<svg id="Layer_1" data-name="Layer 1" xmlns="http://www.w3.org/2000/svg" xmlns:xlink="http://www.w3.org/1999/xlink" viewBox="0 0 752 624"><defs><style>.cls-1,.cls-2,.cls-4{fill:#fff;}.cls-1{clip-rule:evenodd;}.cls-3{fill:none;}.cls-16,.cls-4{fill-rule:evenodd;}.cls-5{clip-path:url(#clip-path);}.cls-6{clip-path:url(#clip-path-2);}.cls-7{fill:url(#linear-gradient);}.cls-8{fill:#2f447d;}.cls-9{fill:url(#linear-gradient-2);}.cls-10{fill:url(#linear-gradient-3);}.cls-11{clip-path:url(#clip-path-3);}.cls-12{opacity:0.6;}.cls-13{fill:#123456;}.cls-14{fill:#f9dac9;}.cls-15{clip-path:url(#clip-path-4);}.cls-16{fill:#f7bd9f;}.cls-17{fill:url(#linear-gradient-4);}.cls-18{clip-path:url(#clip-path-5);}.cls-19{clip-path:url(#clip-path-6);}</style><clipPath id="clip-path"><path class="cls-1" d="M13.68-1043.36"/></clipPath><clipPath id="clip-path-2"><rect class="cls-2" x="135.78" y="-1498.06" width="6.4" height="2.45" transform="translate(1058.17 -307.33) rotate(-43)"/></clipPath><linearGradient id="linear-gradient" x1="303.02" y1="59.9" x2="422.39" y2="59.9" gradientUnits="userSpaceOnUse"><stop offset="0" stop-color="#ed2755"/><stop offset="0.17" stop-color="#ee3150"/><stop offset="0.46" stop-color="#f04b41"/><stop offset="0.83" stop-color="#f3752a"/><stop offset="1" stop-color="#f58b1e"/></linearGradient><linearGradient id="linear-gradient-2" x1="416" y1="173.61" x2="520.78" y2="173.61" xlink:href="#linear-gradient"/><linearGradient id="linear-gradient-3" x1="740.98" y1="219.29" x2="516.36" y2="581.58" xlink:href="#linear-gradient"/><clipPath id="clip-path-3"><path class="cls-3" d="M704.1,340.19a345.69,345.69,0,0,0-77-76.76c-22.42-16.27-63-47.91-91.49-28.7-10.63,7.18-11.08,22-6.67,32.82,4,9.83,11.13,18,15.64,27.52a47.67,47.67,0,0,1,4.55,27.27c-2.57,18.44-14.89,34.11-26.77,47.7-7.5,8.58-15.5,16.7-22.85,25.41q-1.28,1.51-2.52,3.05a104,104,0,0,0-8.47,12.07A140.83,140.83,0,0,0,609.41,624c56.39,0,108.57-34.8,130.25-86.87C767.62,470,744.95,396.67,704.1,340.19ZM610.21,591.78A109.72,109.72,0,1,1,719.93,482.06,109.72,109.72,0,0,1,610.21,591.78Z"/></clipPath><clipPath id="clip-path-4"><circle class="cls-3" cx="610.21" cy="482.06" r="109.72"/></clipPath><linearGradient id="linear-gradient-4" x1="0.52" y1="339.02" x2="307.66" y2="339.02" xlink:href="#linear-gradient"/><clipPath id="clip-path-5"><path class="cls-3" d="M155,125c-61.06,0-117.56,37.69-141,94.06-30.28,72.7-5.73,152.1,38.5,213.26a374.32,374.32,0,0,0,83.35,83.12C160,533.07,204,567.33,234.84,546.54c11.51-7.77,12-23.82,7.22-35.53-4.34-10.65-12.05-19.44-16.94-29.8-4.4-9.34-6.36-19.24-4.92-29.53,2.78-20,16.12-36.94,29-51.66,8.12-9.29,16.79-18.09,24.75-27.51q1.38-1.64,2.73-3.31a112.57,112.57,0,0,0,9.18-13.07A152.5,152.5,0,0,0,155,125Zm-3.28,276.22A118.81,118.81,0,1,1,270.5,282.42,118.81,118.81,0,0,1,151.69,401.23Z"/></clipPath><clipPath id="clip-path-6"><circle class="cls-3" cx="151.69" cy="286.94" r="118.81"/></clipPath></defs><title>icon-nuch</title><path class="cls-4" d="M13.68-1043.36"/><g class="cls-5"><rect class="cls-2" x="-600.64" y="-2520.39" width="1823.02" height="5037.36"/></g><rect class="cls-2" x="135.78" y="-1498.06" width="6.4" height="2.45" transform="translate(1058.17 -307.33) rotate(-43)"/><g class="cls-6"><rect class="cls-2" x="-344.76" y="-2666.61" width="1440" height="3979"/></g><path class="cls-7" d="M410.23,23.08a61.33,61.33,0,0,0-19.86-15.4,65.66,65.66,0,0,0-14.64-5.25,60.89,60.89,0,0,0-7.52-1.27,87.43,87.43,0,0,0-10-.59,62.65,62.65,0,0,0-20.76,3.79,54.33,54.33,0,0,0-23.12,15.42,44.09,44.09,0,0,0-11.21,33A47.76,47.76,0,0,0,314.23,80a62.6,62.6,0,0,0,31.13,20.57,5.47,5.47,0,0,1,4,6.88,48.81,48.81,0,0,1-1.65,5.68,11.48,11.48,0,0,0-1,4.35,1.52,1.52,0,0,0,1.45,1.7,14.74,14.74,0,0,0,3.7-.32,80.26,80.26,0,0,0,15.71-6.12,238.84,238.84,0,0,0,31.78-18.4,62.34,62.34,0,0,0,9.73-7.79,45.8,45.8,0,0,0,12.61-24.31,44.84,44.84,0,0,0,.37-12.37,49.5,49.5,0,0,0-11.9-26.82Z"/><path class="cls-2" d="M383.75,34.91a5.3,5.3,0,0,0-3.85,1.52L353.72,61.81l-8-8.89A5.29,5.29,0,0,0,342,51.17a5.45,5.45,0,0,0-5.71,5.1,5.34,5.34,0,0,0,1.39,3.93l11.72,13a5,5,0,0,0,2.41,1.52,5.47,5.47,0,0,0,2.88.11,5.09,5.09,0,0,0,2.49-1.39l30.25-29.28a5.45,5.45,0,0,0,.11-7.67,5.05,5.05,0,0,0-3.82-1.63Z"/><circle class="cls-8" cx="362.71" cy="461.58" r="20.21"/><circle class="cls-8" cx="413.81" cy="461.58" r="13.48"/><circle class="cls-8" cx="309.35" cy="461.58" r="13.48"/><path class="cls-9" d="M426.67,141.3a53.83,53.83,0,0,1,17.43-13.52A57.63,57.63,0,0,1,457,123.17a53.45,53.45,0,0,1,6.6-1.11,76.74,76.74,0,0,1,8.76-.52,55,55,0,0,1,18.22,3.33,47.68,47.68,0,0,1,20.29,13.54,38.7,38.7,0,0,1,9.84,29,41.92,41.92,0,0,1-9.72,23.92,55,55,0,0,1-27.32,18.06,4.8,4.8,0,0,0-3.55,6,42.84,42.84,0,0,0,1.45,5,10.08,10.08,0,0,1,.86,3.81,1.33,1.33,0,0,1-1.27,1.49,12.94,12.94,0,0,1-3.25-.29A70.45,70.45,0,0,1,464.06,220a209.64,209.64,0,0,1-27.89-16.15,54.72,54.72,0,0,1-8.54-6.84,40.2,40.2,0,0,1-11.07-21.34,39.36,39.36,0,0,1-.33-10.86,43.44,43.44,0,0,1,10.44-23.54Z"/><path class="cls-4" d="M476.56,156.76a10.39,10.39,0,0,0-8.17,3.69,10.39,10.39,0,0,0-8.17-3.69c-7,0-11.65,6.28-11.65,12.14,0,8.53,16.86,20,18.78,21.25a1.9,1.9,0,0,0,2.09,0c1.92-1.28,18.78-12.71,18.78-21.25,0-5.86-4.68-12.14-11.65-12.14Z"/><circle class="cls-2" cx="610.21" cy="482.06" r="115.5"/><path class="cls-10" d="M704.1,340.19a345.69,345.69,0,0,0-77-76.76c-22.42-16.27-63-47.91-91.49-28.7-10.63,7.18-11.08,22-6.67,32.82,4,9.83,11.13,18,15.64,27.52a47.67,47.67,0,0,1,4.55,27.27c-2.57,18.44-14.89,34.11-26.77,47.7-7.5,8.58-15.5,16.7-22.85,25.41q-1.28,1.51-2.52,3.05a104,104,0,0,0-8.47,12.07A140.83,140.83,0,0,0,609.41,624c56.39,0,108.57-34.8,130.25-86.87C767.62,470,744.95,396.67,704.1,340.19ZM610.21,591.78A109.72,109.72,0,1,1,719.93,482.06,109.72,109.72,0,0,1,610.21,591.78Z"/><g class="cls-11"><g class="cls-12"><circle class="cls-2" cx="303" cy="173.29" r="0.93" transform="translate(-4.42 338.61) rotate(-58.04)"/><circle class="cls-2" cx="326.78" cy="185.41" r="0.93" transform="translate(-3.51 364.49) rotate(-58.04)"/><circle class="cls-2" cx="349.52" cy="199.24" r="0.93" transform="translate(-4.54 390.3) rotate(-58.04)"/><circle class="cls-2" cx="368.25" cy="190.31" r="0.93" transform="translate(11.85 401.98) rotate(-58.04)"/><circle class="cls-2" cx="393.57" cy="186.37" r="0.93" transform="translate(27.12 421.62) rotate(-58.04)"/><circle class="cls-2" cx="412.65" cy="198.07" r="0.93" transform="translate(26.18 443.32) rotate(-58.04)"/><circle class="cls-2" cx="418.63" cy="218.44" r="0.93" transform="translate(11.69 457.96) rotate(-58.04)"/><circle class="cls-2" cx="407.6" cy="221.7" r="0.93" transform="translate(3.75 450.16) rotate(-58.04)"/><circle class="cls-2" cx="372.78" cy="198.7" r="0.93" transform="translate(6.87 409.79) rotate(-58.04)"/><circle class="cls-2" cx="337.51" cy="217.43" r="0.93" transform="translate(-25.62 388.69) rotate(-58.04)"/><circle class="cls-2" cx="302.02" cy="206.25" r="0.93" transform="translate(-32.84 353.3) rotate(-58.04)"/><circle class="cls-2" cx="280.77" cy="212.63" r="0.93" transform="translate(-48.26 338.27) rotate(-58.04)"/><circle class="cls-2" cx="276.19" cy="243.42" r="0.93" transform="translate(-76.53 348.88) rotate(-58.04)"/><circle class="cls-2" cx="276.04" cy="278.67" r="0.93" transform="translate(-106.51 365.34) rotate(-58.04)"/><circle class="cls-2" cx="267.84" cy="311.42" r="0.93" transform="translate(-138.15 373.82) rotate(-58.04)"/><circle class="cls-2" cx="277.5" cy="335.72" r="0.93" transform="translate(-154.22 393.42) rotate(-58.04)"/><circle class="cls-2" cx="287.49" cy="329.94" r="0.93" transform="translate(-144.61 399.18) rotate(-58.04)"/><circle class="cls-2" cx="283.44" cy="278.71" r="0.93" transform="translate(-103.05 371.65) rotate(-58.04)"/><circle class="cls-2" cx="292.65" cy="239.95" r="0.93" transform="translate(-65.83 361.22) rotate(-58.04)"/><circle class="cls-2" cx="322.11" cy="254.25" r="0.93" transform="translate(-64.12 392.92) rotate(-58.04)"/><circle class="cls-2" cx="345.81" cy="252.4" r="0.93" transform="translate(-51.38 412.19) rotate(-58.04)"/><circle class="cls-2" cx="375.42" cy="236.51" r="0.93" transform="translate(-23.97 429.8) rotate(-58.04)"/><circle class="cls-2" cx="401.1" cy="260.98" r="0.93" transform="translate(-32.65 463.11) rotate(-58.04)"/><circle class="cls-2" cx="423.79" cy="245.76" r="0.93" transform="translate(-9.04 475.22) rotate(-58.04)"/><circle class="cls-2" cx="409.1" cy="230.02" r="0.93" transform="translate(-2.6 455.35) rotate(-58.04)"/><circle class="cls-2" cx="376.47" cy="216.95" r="0.93" transform="translate(-6.89 421.49) rotate(-58.04)"/><circle class="cls-2" cx="348.65" cy="227.39" r="0.93" transform="matrix(0.53, -0.85, 0.85, 0.53, -28.84, 402.8)"/><circle class="cls-2" cx="325.55" cy="223.73" r="0.93" transform="translate(-36.59 381.48) rotate(-58.04)"/><circle class="cls-2" cx="314.81" cy="260.67" r="0.93" transform="translate(-72.99 389.75) rotate(-58.04)"/><circle class="cls-2" cx="318.02" cy="275.19" r="0.93" transform="translate(-83.81 399.31) rotate(-58.04)"/><circle class="cls-2" cx="299.34" cy="291.33" r="0.93" transform="translate(-106.29 391.06) rotate(-58.04)"/><circle class="cls-2" cx="299.02" cy="311.47" r="0.93" transform="matrix(0.53, -0.85, 0.85, 0.53, -123.52, 400.27)"/><circle class="cls-2" cx="305.36" cy="303.09" r="0.93" transform="translate(-113.43 401.7) rotate(-58.04)"/><circle class="cls-2" cx="349.47" cy="286.34" r="0.93" transform="translate(-78.46 431.27) rotate(-58.04)"/><circle class="cls-2" cx="374.01" cy="269.29" r="0.93" transform="translate(-52.45 444.04) rotate(-58.04)"/><circle class="cls-2" cx="404.43" cy="254.15" r="0.93" transform="matrix(0.53, -0.85, 0.85, 0.53, -25.28, 462.72)"/><circle class="cls-2" cx="327.75" cy="202.82" r="0.93" transform="translate(-17.82 373.51) rotate(-58.04)"/><circle class="cls-2" cx="324.41" cy="162" r="0.93" transform="translate(15.24 351.48) rotate(-58.04)"/><circle class="cls-2" cx="308.93" cy="147.01" r="0.93" transform="translate(20.66 331.28) rotate(-58.04)"/><circle class="cls-2" cx="296.53" cy="131.18" r="0.93" transform="translate(28.26 313.3) rotate(-58.04)"/><circle class="cls-2" cx="281.64" cy="109.99" r="0.93" transform="translate(39.23 290.7) rotate(-58.04)"/><circle class="cls-2" cx="273.1" cy="100.3" r="0.93" transform="translate(43.44 278.89) rotate(-58.04)"/><circle class="cls-2" cx="265.15" cy="92.09" r="0.93" transform="translate(46.67 268.3) rotate(-58.04)"/><circle class="cls-2" cx="256.48" cy="81.07" r="0.93" transform="translate(51.92 255.75) rotate(-58.04)"/><circle class="cls-2" cx="257.63" cy="73.58" r="0.93" transform="matrix(0.53, -0.85, 0.85, 0.53, 58.82, 253.2)"/><circle class="cls-2" cx="300.18" cy="69.85" r="0.93" transform="translate(82.01 287.54) rotate(-58.04)"/><circle class="cls-2" cx="323.57" cy="75.77" r="0.93" transform="translate(88 310.17) rotate(-58.04)"/><circle class="cls-2" cx="346.58" cy="69.62" r="0.93" transform="translate(104.06 326.81) rotate(-58.04)"/><circle class="cls-2" cx="358.43" cy="80.75" r="0.93" transform="translate(100.17 342.09) rotate(-58.04)"/><circle class="cls-2" cx="342.68" cy="89.02" r="0.93" transform="translate(85.75 332.62) rotate(-58.04)"/><circle class="cls-2" cx="307" cy="87.64" r="0.93" transform="translate(70.13 301.7) rotate(-58.04)"/><circle class="cls-2" cx="277.86" cy="118.37" r="0.93" transform="translate(30.34 291.44) rotate(-58.04)"/><circle class="cls-2" cx="265.25" cy="138.45" r="0.93" transform="translate(7.38 290.21) rotate(-58.04)"/><circle class="cls-2" cx="259.19" cy="176.89" r="0.93" transform="translate(-28.09 303.14) rotate(-58.04)"/><circle class="cls-2" cx="253" cy="197.62" r="0.93" transform="translate(-48.59 307.66) rotate(-58.04)"/><circle class="cls-2" cx="274.21" cy="174.05" r="0.93" transform="translate(-18.61 314.56) rotate(-58.04)"/><circle class="cls-2" cx="328.07" cy="149.59" r="0.93" transform="translate(27.48 348.73) rotate(-58.04)"/><circle class="cls-2" cx="367.26" cy="159.85" r="0.93" transform="translate(37.23 386.81) rotate(-58.04)"/><circle class="cls-2" cx="405.52" cy="157.14" r="0.93" transform="translate(57.54 418.01) rotate(-58.04)"/><circle class="cls-2" cx="405.24" cy="139.29" r="0.93" transform="translate(72.55 409.36) rotate(-58.04)"/><circle class="cls-2" cx="386.47" cy="105.02" r="0.93" transform="translate(92.79 377.3) rotate(-58.04)"/><circle class="cls-2" cx="368.74" cy="105.34" r="0.93" transform="translate(84.17 362.41) rotate(-58.04)"/><circle class="cls-2" cx="380.72" cy="79.67" r="0.93" transform="translate(111.58 360.49) rotate(-58.04)"/></g><g class="cls-12"><circle class="cls-2" cx="598.84" cy="77.27" r="0.93" transform="translate(98.96 415.94) rotate(-41.47)"/><circle class="cls-2" cx="591.97" cy="97.37" r="0.93" transform="translate(83.92 416.43) rotate(-41.47)"/><circle class="cls-2" cx="586.1" cy="120.85" r="0.93" transform="translate(66.92 418.46) rotate(-41.47)"/><circle class="cls-2" cx="571.14" cy="132.06" r="0.93" transform="translate(55.73 411.34) rotate(-41.47)"/><circle class="cls-2" cx="577.51" cy="149.56" r="0.93" transform="translate(45.74 419.94) rotate(-41.47)"/><circle class="cls-2" cx="597.79" cy="159.11" r="0.93" transform="translate(44.5 435.76) rotate(-41.47)"/><circle class="cls-2" cx="604.44" cy="149.53" r="0.93" transform="translate(52.51 437.76) rotate(-41.47)"/><circle class="cls-2" cx="604.14" cy="108.62" r="0.93" transform="translate(79.52 427.31) rotate(-41.47)"/><circle class="cls-2" cx="638.85" cy="104.97" r="0.93" transform="translate(90.65 449.38) rotate(-41.47)"/><circle class="cls-2" cx="662.27" cy="127.89" r="0.93" transform="translate(81.33 470.63) rotate(-41.47)"/><circle class="cls-2" cx="647.93" cy="170.1" r="0.93" transform="translate(49.79 471.72) rotate(-41.47)"/><circle class="cls-2" cx="637.34" cy="199.23" r="0.93" transform="translate(27.84 472.01) rotate(-41.47)"/><circle class="cls-2" cx="645.08" cy="238.99" r="0.93" transform="translate(3.46 487.11) rotate(-41.47)"/><circle class="cls-2" cx="660.57" cy="256.32" r="0.93" transform="translate(-4.13 501.73) rotate(-41.47)"/><circle class="cls-2" cx="675.79" cy="261.14" r="0.93" transform="translate(-3.5 513.03) rotate(-41.47)"/><circle class="cls-2" cx="681.52" cy="237.3" r="0.93" transform="translate(13.72 510.84) rotate(-41.47)"/><circle class="cls-2" cx="677.36" cy="190.5" r="0.93" transform="matrix(0.75, -0.66, 0.66, 0.75, 43.68, 496.36)"/><circle class="cls-2" cx="683.09" cy="164.29" r="0.93" transform="translate(62.45 493.55) rotate(-41.47)"/><circle class="cls-2" cx="685.96" cy="140.57" r="0.93" transform="translate(78.88 489.5) rotate(-41.47)"/><circle class="cls-2" cx="715.17" cy="142.66" r="0.93" transform="translate(84.82 509.38) rotate(-41.47)"/><circle class="cls-2" cx="739.84" cy="233.42" r="0.93" transform="translate(150.18 737.55) rotate(-58.04)"/><circle class="cls-2" cx="722.36" cy="147.9" r="0.93" transform="translate(83.15 515.45) rotate(-41.47)"/><circle class="cls-2" cx="691.96" cy="127.91" r="0.93" transform="translate(88.77 490.31) rotate(-41.47)"/><circle class="cls-2" cx="666.49" cy="87.96" r="0.93" transform="translate(108.86 463.46) rotate(-41.47)"/><circle class="cls-2" cx="663.7" cy="63.78" r="0.93" transform="translate(124.15 455.51) rotate(-41.47)"/><circle class="cls-2" cx="646.13" cy="45.21" r="0.93" transform="translate(132.06 439.24) rotate(-41.47)"/><circle class="cls-2" cx="640.28" cy="25.69" r="0.93" transform="translate(143.5 430.46) rotate(-41.47)"/><circle class="cls-2" cx="650.41" cy="5.13" r="0.93" transform="translate(159.66 432.01) rotate(-41.47)"/><circle class="cls-2" cx="615.8" cy="12.31" r="0.93" transform="translate(146.23 410.89) rotate(-41.47)"/><circle class="cls-2" cx="617.27" cy="47.43" r="0.93" transform="translate(123.34 420.67) rotate(-41.47)"/><circle class="cls-2" cx="625.32" cy="79.23" r="0.93" transform="translate(104.3 433.97) rotate(-41.47)"/><circle class="cls-2" cx="618.36" cy="115.76" r="0.93" transform="translate(78.38 438.55) rotate(-41.47)"/><circle class="cls-2" cx="620.71" cy="143.92" r="0.93" transform="translate(60.3 447.14) rotate(-41.47)"/><circle class="cls-2" cx="656.81" cy="207.82" r="0.93" transform="translate(27.05 487.1) rotate(-41.47)"/><circle class="cls-2" cx="613.24" cy="176.5" r="0.93" transform="translate(36.86 450.35) rotate(-41.47)"/><circle class="cls-2" cx="581.04" cy="196.87" r="0.93" transform="translate(15.29 434.14) rotate(-41.47)"/><circle class="cls-2" cx="579.66" cy="234.68" r="0.93" transform="translate(-10.09 442.7) rotate(-41.47)"/><circle class="cls-2" cx="566.64" cy="262.57" r="0.93" transform="translate(-31.82 441.07) rotate(-41.47)"/><circle class="cls-2" cx="542.63" cy="286.08" r="0.93" transform="translate(-53.41 431.1) rotate(-41.47)"/><circle class="cls-2" cx="538.77" cy="310.83" r="0.93" transform="translate(-70.77 434.71) rotate(-41.47)"/><circle class="cls-2" cx="552.66" cy="336.38" r="0.93" transform="translate(-84.21 450.32) rotate(-41.47)"/><circle class="cls-2" cx="556.42" cy="277.01" r="0.93" transform="translate(-43.95 437.92) rotate(-41.47)"/><circle class="cls-2" cx="594.98" cy="230.38" r="0.93" transform="translate(-3.4 451.77) rotate(-41.47)"/><circle class="cls-2" cx="616.96" cy="204.45" r="0.93" transform="translate(19.28 459.83) rotate(-41.47)"/><circle class="cls-2" cx="573.65" cy="155.3" r="0.93" transform="translate(40.97 418.82) rotate(-41.47)"/><circle class="cls-2" cx="550.41" cy="203.16" r="0.93" transform="translate(3.45 415.43) rotate(-41.47)"/><circle class="cls-2" cx="541.27" cy="252.32" r="0.93" transform="translate(-31.4 421.7) rotate(-41.47)"/><circle class="cls-2" cx="558.25" cy="306.65" r="0.93" transform="translate(-63.12 446.57) rotate(-41.47)"/><circle class="cls-2" cx="605.11" cy="296.41" r="0.93" transform="translate(-44.59 475.03) rotate(-41.47)"/><circle class="cls-2" cx="636.51" cy="252.85" r="0.93" transform="translate(-7.87 484.91) rotate(-41.47)"/><circle class="cls-2" cx="606.77" cy="173.01" r="0.93" transform="translate(37.55 445.21) rotate(-41.47)"/><circle class="cls-2" cx="662.48" cy="156.78" r="0.93" transform="translate(62.28 478.06) rotate(-41.47)"/><circle class="cls-2" cx="664.78" cy="120.57" r="0.93" transform="translate(86.81 470.47) rotate(-41.47)"/><circle class="cls-2" cx="652.26" cy="234.71" r="0.93" transform="translate(8.09 490.79) rotate(-41.47)"/><circle class="cls-2" cx="603.96" cy="325.48" r="0.93" transform="translate(-64.13 481.56) rotate(-41.47)"/><circle class="cls-2" cx="592.45" cy="343.66" r="0.93" transform="translate(-79.05 478.5) rotate(-41.47)"/><circle class="cls-2" cx="634.97" cy="403.26" r="0.93" transform="translate(-107.86 521.59) rotate(-41.47)"/><circle class="cls-2" cx="602.94" cy="385.88" r="0.93" transform="translate(-104.38 496.07) rotate(-41.47)"/><circle class="cls-2" cx="426.37" cy="241.65" r="0.93" transform="matrix(0.53, -0.85, 0.85, 0.53, -4.35, 475.45)"/><circle class="cls-2" cx="578.46" cy="436.35" r="0.93" transform="translate(-143.94 492.47) rotate(-41.47)"/><circle class="cls-2" cx="605" cy="447.11" r="0.93" transform="translate(-144.42 512.74) rotate(-41.47)"/><circle class="cls-2" cx="558.66" cy="408.34" r="0.93" transform="translate(-130.36 472.33) rotate(-41.47)"/><circle class="cls-2" cx="635.29" cy="413.85" r="0.93" transform="translate(-114.8 524.46) rotate(-41.47)"/><circle class="cls-2" cx="583.56" cy="301.02" r="0.93" transform="translate(-53.05 461.92) rotate(-41.47)"/><circle class="cls-2" cx="557.63" cy="245.03" r="0.93" transform="translate(54.55 588.4) rotate(-58.04)"/><circle class="cls-2" cx="626.23" cy="227.13" r="0.93" transform="translate(6.59 471.68) rotate(-41.47)"/><circle class="cls-2" cx="606.62" cy="234.15" r="0.93" transform="translate(86.84 624.84) rotate(-58.04)"/><circle class="cls-2" cx="674.77" cy="234.51" r="0.93" transform="translate(118.6 682.82) rotate(-58.04)"/><circle class="cls-2" cx="691.36" cy="250.21" r="0.93" transform="translate(113.09 704.29) rotate(-58.04)"/><circle class="cls-2" cx="727.27" cy="242.74" r="0.93" transform="translate(136.33 731.24) rotate(-58.04)"/><circle class="cls-2" cx="730.54" cy="265.08" r="0.93" transform="translate(118.91 744.53) rotate(-58.04)"/><circle class="cls-2" cx="681.99" cy="250.42" r="0.93" transform="translate(5.14 514.41) rotate(-41.47)"/><circle class="cls-2" cx="628.22" cy="348.09" r="0.93" transform="translate(-73.02 503.29) rotate(-41.47)"/><circle class="cls-2" cx="595.53" cy="308.2" r="0.93" transform="translate(-54.8 471.64) rotate(-41.47)"/><circle class="cls-2" cx="665.06" cy="333.4" r="0.93" transform="translate(-54.06 524) rotate(-41.47)"/><circle class="cls-2" cx="493.74" cy="250.41" r="0.93" transform="translate(19.92 536.72) rotate(-58.04)"/><circle class="cls-2" cx="455.3" cy="296.61" r="0.93" transform="translate(-37.37 525.86) rotate(-58.04)"/><circle class="cls-2" cx="509.64" cy="281.57" r="0.93" transform="translate(0.99 564.91) rotate(-58.04)"/><circle class="cls-2" cx="572.08" cy="289.87" r="0.93" transform="matrix(0.53, -0.85, 0.85, 0.53, 23.31, 621.76)"/><circle class="cls-2" cx="659.79" cy="272.23" r="0.93" transform="translate(79.58 687.91) rotate(-58.04)"/><circle class="cls-2" cx="739.29" cy="255.67" r="0.93" transform="translate(131.03 747.54) rotate(-58.04)"/><circle class="cls-2" cx="718.18" cy="242.83" r="0.93" transform="translate(132.01 723.61) rotate(-58.04)"/><circle class="cls-2" cx="603.04" cy="265.66" r="0.93" transform="translate(58.44 636.66) rotate(-58.04)"/><circle class="cls-2" cx="667.14" cy="342.23" r="0.93" transform="translate(-59.38 527.6) rotate(-41.47)"/><circle class="cls-2" cx="618.91" cy="311.65" r="0.93" transform="translate(-51.22 488.02) rotate(-41.47)"/><circle class="cls-2" cx="637.34" cy="292.66" r="0.93" transform="translate(-34.01 495.48) rotate(-41.47)"/><circle class="cls-2" cx="605.78" cy="258.28" r="0.93" transform="translate(-19.17 465.92) rotate(-41.47)"/><circle class="cls-2" cx="557.35" cy="363.1" r="0.93" transform="translate(-100.73 460.12) rotate(-41.47)"/><circle class="cls-2" cx="543.55" cy="372.34" r="0.93" transform="translate(-110.31 453.3) rotate(-41.47)"/><circle class="cls-2" cx="528.8" cy="381.98" r="0.93" transform="translate(-120.39 445.95) rotate(-41.47)"/><circle class="cls-2" cx="512.46" cy="391.64" r="0.93" transform="translate(-130.89 437.55) rotate(-41.47)"/><circle class="cls-2" cx="477.47" cy="434.2" r="0.93" transform="translate(-167.84 425.05) rotate(-41.47)"/><circle class="cls-2" cx="499.61" cy="432.88" r="0.93" transform="translate(-161.41 439.38) rotate(-41.47)"/><circle class="cls-2" cx="503.77" cy="327.51" r="0.93" transform="translate(-90.59 415.72) rotate(-41.47)"/><circle class="cls-2" cx="520.17" cy="341.53" r="0.93" transform="translate(-95.77 430.09) rotate(-41.47)"/><circle class="cls-2" cx="489.33" cy="385.78" r="0.93" transform="translate(-132.8 420.79) rotate(-41.47)"/><circle class="cls-2" cx="524.26" cy="424.63" r="0.93" transform="translate(-149.77 453.63) rotate(-41.47)"/><circle class="cls-2" cx="481.16" cy="423.59" r="0.93" transform="translate(-159.89 424.83) rotate(-41.47)"/><circle class="cls-2" cx="597.48" cy="413.07" r="0.93" transform="translate(-123.76 499.23) rotate(-41.47)"/><circle class="cls-2" cx="535.21" cy="402.83" r="0.93" transform="translate(-132.59 455.42) rotate(-41.47)"/><circle class="cls-2" cx="550.13" cy="443.26" r="0.93" transform="translate(-155.62 475.44) rotate(-41.47)"/><circle class="cls-2" cx="688.07" cy="96.45" r="0.93" transform="translate(108.63 479.84) rotate(-41.47)"/><circle class="cls-2" cx="738.5" cy="92.06" r="0.93" transform="translate(124.18 512.14) rotate(-41.47)"/><circle class="cls-2" cx="713.88" cy="4.96" r="0.93" transform="translate(175.72 474.03) rotate(-41.47)"/><circle class="cls-2" cx="682.24" cy="7.81" r="0.93" transform="translate(165.88 453.78) rotate(-41.47)"/><circle class="cls-2" cx="683.42" cy="47.53" r="0.93" transform="translate(139.86 464.5) rotate(-41.47)"/><circle class="cls-2" cx="700.1" cy="301.89" r="0.93" transform="translate(73.39 736.07) rotate(-58.04)"/><circle class="cls-2" cx="716.3" cy="300.82" r="0.93" transform="translate(81.89 749.26) rotate(-58.04)"/><circle class="cls-2" cx="465.05" cy="270.55" r="0.93" transform="translate(-10.67 521.86) rotate(-58.04)"/><circle class="cls-2" cx="435.94" cy="287.36" r="0.93" transform="translate(-38.63 505.08) rotate(-58.04)"/><circle class="cls-2" cx="374.05" cy="326.05" r="0.93" transform="translate(-100.58 470.78) rotate(-58.04)"/><circle class="cls-2" cx="342.33" cy="352.48" r="0.93" transform="translate(-137.93 456.31) rotate(-58.04)"/><circle class="cls-2" cx="314.06" cy="383.9" r="0.93" transform="translate(-177.89 447.11) rotate(-58.04)"/><circle class="cls-2" cx="358.78" cy="308.88" r="0.93" transform="translate(-93.2 449.75) rotate(-58.04)"/><circle class="cls-2" cx="331.76" cy="311.97" r="0.93" transform="translate(-108.53 428.28) rotate(-58.04)"/><circle class="cls-2" cx="296.4" cy="341.62" r="0.93" transform="translate(-150.33 412.23) rotate(-58.04)"/><circle class="cls-2" cx="279.85" cy="363.67" r="0.93" transform="translate(-176.83 408.58) rotate(-58.04)"/><circle class="cls-2" cx="261.29" cy="382.79" r="0.93" transform="translate(-201.78 401.85) rotate(-58.04)"/><circle class="cls-2" cx="370.26" cy="289.16" r="0.93" transform="translate(-71.06 450.22) rotate(-58.04)"/><circle class="cls-2" cx="397.42" cy="334.95" r="0.93" transform="translate(-97.13 494.81) rotate(-58.04)"/><circle class="cls-2" cx="409.75" cy="398.82" r="0.93" transform="matrix(0.53, -0.85, 0.85, 0.53, -145.51, 535.35)"/><circle class="cls-2" cx="415.46" cy="434.33" r="0.93" transform="matrix(0.53, -0.85, 0.85, 0.53, -172.95, 556.87)"/><circle class="cls-2" cx="440.72" cy="337.5" r="0.93" transform="translate(-78.92 532.73) rotate(-58.04)"/><circle class="cls-2" cx="445.15" cy="308.87" r="0.93" transform="translate(-52.54 523.02) rotate(-58.04)"/><circle class="cls-2" cx="408.43" cy="294.37" r="0.93" transform="translate(-57.51 485.06) rotate(-58.04)"/><circle class="cls-2" cx="392.8" cy="280.1" r="0.93" transform="translate(-52.77 465.06) rotate(-58.04)"/><circle class="cls-2" cx="388.63" cy="299.7" r="0.93" transform="translate(-71.37 470.75) rotate(-58.04)"/><circle class="cls-2" cx="343.51" cy="372.92" r="0.93" transform="translate(-154.71 466.93) rotate(-58.04)"/><circle class="cls-2" cx="313.52" cy="394.2" r="0.93" transform="translate(-186.88 451.53) rotate(-58.04)"/><circle class="cls-2" cx="267.7" cy="436.49" r="0.93" transform="translate(-244.33 432.57) rotate(-58.04)"/><circle class="cls-2" cx="254.74" cy="450.15" r="0.93" transform="translate(-262.01 427.96) rotate(-58.04)"/><circle class="cls-2" cx="257.93" cy="410.62" r="0.93" transform="matrix(0.53, -0.85, 0.85, 0.53, -226.98, 412.07)"/><circle class="cls-2" cx="266.47" cy="350.31" r="0.93" transform="translate(-171.79 390.94) rotate(-58.04)"/><circle class="cls-2" cx="270.85" cy="326.08" r="0.93" transform="translate(-149.18 383.24) rotate(-58.04)"/><circle class="cls-2" cx="368.03" cy="380.45" r="0.93" transform="matrix(0.53, -0.85, 0.85, 0.53, -149.57, 491.27)"/><circle class="cls-2" cx="394.97" cy="467.47" r="0.93" transform="translate(-210.71 555.08) rotate(-58.04)"/><circle class="cls-2" cx="421.5" cy="524.22" r="0.93" transform="translate(-246.37 604.3) rotate(-58.04)"/><circle class="cls-2" cx="320.89" cy="353.07" r="0.93" transform="translate(-148.52 438.39) rotate(-58.04)"/><circle class="cls-2" cx="304.56" cy="378.82" r="0.93" transform="matrix(0.53, -0.85, 0.85, 0.53, -178.05, 436.66)"/><circle class="cls-2" cx="294.84" cy="433.4" r="0.93" transform="translate(-228.93 454.1) rotate(-58.04)"/><circle class="cls-2" cx="285.08" cy="478.39" r="0.93" transform="matrix(0.53, -0.85, 0.85, 0.53, -271.7, 466.99)"/><circle class="cls-2" cx="270.44" cy="549.79" r="0.93" transform="translate(-339.16 488.21) rotate(-58.04)"/><circle class="cls-2" cx="259.8" cy="465.37" r="0.93" transform="translate(-272.55 439.42) rotate(-58.04)"/><circle class="cls-2" cx="258.74" cy="545.08" r="0.93" transform="translate(-340.67 476.03) rotate(-58.04)"/><circle class="cls-2" cx="282.33" cy="593.07" r="0.93" transform="translate(-370.28 518.63) rotate(-58.04)"/><circle class="cls-2" cx="283.54" cy="508.86" r="0.93" transform="translate(-298.27 480.03) rotate(-58.04)"/><circle class="cls-2" cx="315.86" cy="530.76" r="0.93" transform="translate(-301.64 517.79) rotate(-58.04)"/><circle class="cls-2" cx="369.58" cy="533.9" r="0.93" transform="translate(-279.02 564.83) rotate(-58.04)"/><circle class="cls-2" cx="402.44" cy="569.22" r="0.93" transform="translate(-293.52 609.31) rotate(-58.04)"/><circle class="cls-2" cx="417.88" cy="594.42" r="0.93" transform="translate(-307.63 634.31) rotate(-58.04)"/><circle class="cls-2" cx="362.04" cy="511.95" r="0.93" transform="translate(-263.94 548.08) rotate(-58.04)"/><circle class="cls-2" cx="397.88" cy="490.33" r="0.93" transform="translate(-228.74 568.31) rotate(-58.04)"/><circle class="cls-2" cx="450.01" cy="463.73" r="0.93" transform="translate(-181.63 600.05) rotate(-58.04)"/><circle class="cls-2" cx="647.24" cy="379.11" r="0.93" transform="translate(-88.8 523.66) rotate(-41.47)"/><circle class="cls-2" cx="642.43" cy="354.32" r="0.93" transform="translate(-73.58 514.31) rotate(-41.47)"/><circle class="cls-2" cx="652.66" cy="328.27" r="0.93" transform="translate(-53.77 514.51) rotate(-41.47)"/><circle class="cls-2" cx="556.15" cy="233.02" r="0.93" transform="translate(64.04 581.49) rotate(-58.04)"/><circle class="cls-2" cx="517.93" cy="265.96" r="0.93" transform="translate(18.11 564.57) rotate(-58.04)"/><circle class="cls-2" cx="685.03" cy="271.61" r="0.93" transform="translate(91.99 709.03) rotate(-58.04)"/><circle class="cls-2" cx="701.58" cy="232.3" r="0.93" transform="translate(133.1 704.53) rotate(-58.04)"/><circle class="cls-2" cx="639.99" cy="279.77" r="0.93" transform="translate(63.85 674.64) rotate(-58.04)"/><circle class="cls-2" cx="702.21" cy="340.28" r="0.93" transform="translate(41.78 755.89) rotate(-58.04)"/><circle class="cls-2" cx="752.1" cy="394.27" r="0.93" transform="translate(19.49 823.66) rotate(-58.04)"/><circle class="cls-2" cx="739.72" cy="497.63" r="0.93" transform="translate(-74.04 861.79) rotate(-58.04)"/><circle class="cls-2" cx="708.4" cy="381.04" r="0.93" transform="translate(10.14 780.36) rotate(-58.04)"/><circle class="cls-2" cx="707.63" cy="404.61" r="0.93" transform="translate(-10.24 790.76) rotate(-58.04)"/><circle class="cls-2" cx="693.07" cy="468.47" r="0.93" transform="translate(-71.27 808.46) rotate(-58.04)"/><circle class="cls-2" cx="661.03" cy="527.18" r="0.93" transform="translate(-136.15 808.93) rotate(-58.04)"/><circle class="cls-2" cx="747.71" cy="407.69" r="0.93" transform="translate(6.01 826.21) rotate(-58.04)"/><circle class="cls-2" cx="741.98" cy="372.16" r="0.93" transform="translate(33.45 804.63) rotate(-58.04)"/><circle class="cls-2" cx="725.94" cy="553.59" r="0.93" transform="translate(-128.01 876.4) rotate(-58.04)"/><circle class="cls-2" cx="692.01" cy="551.16" r="0.93" transform="translate(-141.93 846.47) rotate(-58.04)"/><circle class="cls-2" cx="725.39" cy="467.92" r="0.93" transform="translate(-55.6 835.62) rotate(-58.04)"/><circle class="cls-2" cx="691.57" cy="514.67" r="0.93" transform="translate(-111.17 828.93) rotate(-58.04)"/><circle class="cls-2" cx="671.32" cy="467.86" r="0.93" transform="translate(-80.98 789.75) rotate(-58.04)"/><circle class="cls-2" cx="619.43" cy="482.69" r="0.93" transform="translate(-117.98 752.72) rotate(-58.04)"/><circle class="cls-2" cx="567.84" cy="482.15" r="0.93" transform="matrix(0.53, -0.85, 0.85, 0.53, -141.79, 708.72)"/><circle class="cls-2" cx="523.28" cy="484.47" r="0.93" transform="translate(-164.76 671.94) rotate(-58.04)"/><circle class="cls-2" cx="503.8" cy="467.68" r="0.93" transform="translate(-159.66 647.55) rotate(-58.04)"/><circle class="cls-2" cx="451.78" cy="514.47" r="0.93" transform="matrix(0.53, -0.85, 0.85, 0.53, -223.85, 625.4)"/><circle class="cls-2" cx="499.86" cy="560.71" r="0.93" transform="translate(-240.46 687.95) rotate(-58.04)"/><circle class="cls-2" cx="583.77" cy="564.88" r="0.93" transform="translate(-204.5 761.1) rotate(-58.04)"/><circle class="cls-2" cx="607.26" cy="530.28" r="0.93" transform="translate(-164.1 764.75) rotate(-58.04)"/><circle class="cls-2" cx="598.7" cy="528.94" r="0.93" transform="translate(-166.98 756.85) rotate(-58.04)"/><circle class="cls-2" cx="552.55" cy="526.55" r="0.93" transform="translate(-186.68 716.58) rotate(-58.04)"/><circle class="cls-2" cx="528.23" cy="538.64" r="0.93" transform="translate(-208.37 701.63) rotate(-58.04)"/><circle class="cls-2" cx="489.86" cy="536.53" r="0.93" transform="translate(-224.64 668.13) rotate(-58.04)"/><circle class="cls-2" cx="447.63" cy="553.84" r="0.93" transform="translate(-259.2 640.45) rotate(-58.04)"/><circle class="cls-2" cx="550.59" cy="463.92" r="0.93" transform="translate(-134.47 685.44) rotate(-58.04)"/><circle class="cls-2" cx="584.12" cy="461.19" r="0.93" transform="translate(-116.37 712.61) rotate(-58.04)"/><circle class="cls-2" cx="621.78" cy="465.93" r="0.93" transform="translate(-102.67 746.78) rotate(-58.04)"/><circle class="cls-2" cx="659.11" cy="469.56" r="0.93" transform="translate(-88.18 780.16) rotate(-58.04)"/><circle class="cls-2" cx="389.94" cy="345.35" r="0.93" transform="translate(-109.47 493.34) rotate(-58.04)"/><circle class="cls-2" cx="406.6" cy="371.99" r="0.93" transform="matrix(0.53, -0.85, 0.85, 0.53, -124.23, 520.07)"/><circle class="cls-2" cx="424.64" cy="377.43" r="0.93" transform="translate(-120.37 537.88) rotate(-58.04)"/><circle class="cls-2" cx="434.78" cy="381.86" r="0.93" transform="translate(-119.35 548.57) rotate(-58.04)"/><circle class="cls-2" cx="438.16" cy="352.65" r="0.93" transform="translate(-92.96 537.74) rotate(-58.04)"/><circle class="cls-2" cx="472.03" cy="510.62" r="0.93" transform="matrix(0.53, -0.85, 0.85, 0.53, -211.05, 640.77)"/><circle class="cls-2" cx="443.22" cy="496.92" r="0.93" transform="translate(-212.98 609.92) rotate(-58.04)"/><circle class="cls-2" cx="424.28" cy="529.66" r="0.93" transform="translate(-249.67 609.26) rotate(-58.04)"/><circle class="cls-2" cx="388.25" cy="557.67" r="0.93" transform="translate(-290.4 591.88) rotate(-58.04)"/><circle class="cls-2" cx="345.17" cy="573.04" r="0.93" transform="translate(-323.71 562.55) rotate(-58.04)"/><circle class="cls-2" cx="305.54" cy="593.75" r="0.93" transform="translate(-359.93 538.65) rotate(-58.04)"/><circle class="cls-2" cx="286.95" cy="607.65" r="0.93" transform="translate(-380.48 529.41) rotate(-58.04)"/><circle class="cls-2" cx="371.84" cy="616.52" r="0.93" transform="translate(-348.06 605.61) rotate(-58.04)"/><circle class="cls-2" cx="322.95" cy="613.68" r="0.93" transform="translate(-368.65 562.83) rotate(-58.04)"/><circle class="cls-2" cx="332.74" cy="582.86" r="0.93" transform="translate(-337.9 556.62) rotate(-58.04)"/><circle class="cls-2" cx="332.27" cy="570.37" r="0.93" transform="translate(-327.52 550.34) rotate(-58.04)"/><circle class="cls-2" cx="301.4" cy="568.13" r="0.93" transform="translate(-340.15 523.08) rotate(-58.04)"/><circle class="cls-2" cx="276.8" cy="564.81" r="0.93" transform="translate(-348.91 500.68) rotate(-58.04)"/><circle class="cls-2" cx="267.22" cy="582.27" r="0.93" transform="translate(-368.24 500.77) rotate(-58.04)"/><circle class="cls-2" cx="261.72" cy="614.75" r="0.93" transform="translate(-398.38 511.37) rotate(-58.04)"/><circle class="cls-2" cx="488.77" cy="492.01" r="0.93" transform="matrix(0.53, -0.85, 0.85, 0.53, -187.38, 646.21)"/><circle class="cls-2" cx="534.11" cy="492.83" r="0.93" transform="translate(-166.75 685.06) rotate(-58.04)"/><circle class="cls-2" cx="587.91" cy="510.45" r="0.93" transform="translate(-156.38 739) rotate(-58.04)"/><circle class="cls-2" cx="650.26" cy="518.1" r="0.93" transform="translate(-133.52 795.5) rotate(-58.04)"/><circle class="cls-2" cx="752.8" cy="607.32" r="0.93" transform="translate(-160.96 924.47) rotate(-58.04)"/><circle class="cls-2" cx="683.29" cy="602.19" r="0.93" transform="translate(-189.32 863.09) rotate(-58.04)"/><circle class="cls-2" cx="618.76" cy="596" r="0.93" transform="translate(-214.43 805.48) rotate(-58.04)"/><circle class="cls-2" cx="480.76" cy="609.08" r="0.93" transform="translate(-290.48 694.51) rotate(-58.04)"/><circle class="cls-2" cx="363.68" cy="588.61" r="0.93" transform="translate(-328.21 585.55) rotate(-58.04)"/><circle class="cls-2" cx="401.07" cy="601.18" r="0.93" transform="translate(-321.28 623.19) rotate(-58.04)"/><circle class="cls-2" cx="461.38" cy="592.8" r="0.93" transform="translate(-285.79 670.44) rotate(-58.04)"/><circle class="cls-2" cx="443.49" cy="588.34" r="0.93" transform="translate(-290.42 653.17) rotate(-58.04)"/><circle class="cls-2" cx="454.77" cy="602.16" r="0.93" transform="matrix(0.53, -0.85, 0.85, 0.53, -296.84, 669.25)"/><circle class="cls-2" cx="509.78" cy="591.92" r="0.93" transform="translate(-262.26 711.1) rotate(-58.04)"/><circle class="cls-2" cx="573.24" cy="588.04" r="0.93" transform="translate(-229.1 763.09) rotate(-58.04)"/><circle class="cls-2" cx="608.97" cy="584.61" r="0.93" transform="translate(-209.38 791.76) rotate(-58.04)"/><circle class="cls-2" cx="647.67" cy="612.74" r="0.93" transform="translate(-215.03 837.84) rotate(-58.04)"/><circle class="cls-2" cx="560.47" cy="559.94" r="0.93" transform="translate(-211.27 739.01) rotate(-58.04)"/><circle class="cls-2" cx="533.8" cy="609.5" r="0.93" transform="translate(-265.87 739.73) rotate(-58.04)"/><circle class="cls-2" cx="601.79" cy="624.37" r="0.93" transform="translate(-246.49 804.39) rotate(-58.04)"/><circle class="cls-2" cx="728.34" cy="543.73" r="0.93" transform="translate(-118.52 873.8) rotate(-58.04)"/><circle class="cls-2" cx="682.85" cy="572.97" r="0.93" transform="translate(-164.74 848.97) rotate(-58.04)"/><circle class="cls-2" cx="663.53" cy="577.86" r="0.93" transform="translate(-177.98 834.88) rotate(-58.04)"/><circle class="cls-2" cx="642.7" cy="582.53" r="0.93" transform="translate(-191.75 819.41) rotate(-58.04)"/><circle class="cls-2" cx="636.56" cy="548.56" r="0.93" transform="translate(-165.81 798.21) rotate(-58.04)"/><circle class="cls-2" cx="621.97" cy="532.34" r="0.93" transform="translate(-158.92 778.19) rotate(-58.04)"/><circle class="cls-2" cx="638" cy="501.27" r="0.93" transform="translate(-125.02 777.17) rotate(-58.04)"/><circle class="cls-2" cx="630.86" cy="505.29" r="0.93" transform="translate(-131.78 773.01) rotate(-58.04)"/><circle class="cls-2" cx="643.55" cy="484.25" r="0.93" transform="translate(-107.96 773.88) rotate(-58.04)"/><circle class="cls-2" cx="684.03" cy="494.74" r="0.93" transform="translate(-97.82 813.15) rotate(-58.04)"/><circle class="cls-2" cx="746.15" cy="492.71" r="0.93" transform="translate(-66.86 864.89) rotate(-58.04)"/><circle class="cls-2" cx="730.64" cy="494.08" r="0.93" transform="translate(-75.32 852.39) rotate(-58.04)"/><circle class="cls-2" cx="734.96" cy="538.19" r="0.93" transform="translate(-110.71 876.81) rotate(-58.04)"/><circle class="cls-2" cx="708.74" cy="575.27" r="0.93" transform="translate(-154.51 872.01) rotate(-58.04)"/><circle class="cls-2" cx="695.43" cy="594.12" r="0.93" transform="translate(-176.75 869.63) rotate(-58.04)"/><circle class="cls-2" cx="728.55" cy="574.74" r="0.93" transform="translate(-144.74 888.57) rotate(-58.04)"/><circle class="cls-2" cx="724.08" cy="623.05" r="0.93" transform="translate(-187.8 907.57) rotate(-58.04)"/><circle class="cls-2" cx="567.25" cy="617.62" r="0.93" transform="translate(-257.02 771.91) rotate(-58.04)"/><circle class="cls-2" cx="554.88" cy="602.17" r="0.93" transform="matrix(0.53, -0.85, 0.85, 0.53, -249.73, 754.14)"/><circle class="cls-2" cx="752.72" cy="429" r="0.93" transform="translate(-9.72 840.49) rotate(-58.04)"/><circle class="cls-2" cx="343.01" cy="527.23" r="0.93" transform="translate(-285.87 539.16) rotate(-58.04)"/><circle class="cls-2" cx="321.22" cy="518.13" r="0.93" transform="translate(-288.4 516.39) rotate(-58.04)"/><circle class="cls-2" cx="301.89" cy="504.62" r="0.93" transform="translate(-286.04 493.61) rotate(-58.04)"/><circle class="cls-2" cx="284.98" cy="517.68" r="0.93" transform="translate(-305.08 485.4) rotate(-58.04)"/><circle class="cls-2" cx="281.88" cy="623.32" r="0.93" transform="translate(-396.16 532.53) rotate(-58.04)"/></g></g><path class="cls-13" d="M651.84,421.72c3.75,3.13,7.61,6.13,11.63,8.91,10.59-17.34,21.22-34.75,29.2-53.42a166.3,166.3,0,0,0,10.17-31.69c2.06-10,4.64-22.5,1.12-32.32a93.38,93.38,0,0,0-94.6-61.76c-2.92.21-5.92.55-8.72-.3a25.34,25.34,0,0,1-5.65-2.92c-7-4.27-15.39-7.3-23.43-5.56-6.74,1.47-12.43,6.17-16.42,11.79-7.06,9.92-9.36,22.64-8.44,34.78s4.86,23.84,9.34,35.16a56.34,56.34,0,0,0,5.9,11.84,61.23,61.23,0,0,0,8.27,8.95L633,404.57C639.13,410.42,645.32,416.28,651.84,421.72Z"/><path class="cls-14" d="M661.15,467.92,655,430.78l4.15-41.56s26-32.47,11.41-39.36-19.54,6.65-19.54,6.65-55.85-19.7-69.89-59l-18.83,40.24s-19.28,98.08,22,118.81c10.72,5.39,19.19,6.6,25.91,5.53l6.7,34.73-14.09,3.82s-5.16,29.91,35.9,27.81,22.41-34.8,22.41-34.8Z"/><g class="cls-15"><path class="cls-13" d="M608.08,482.77l53.06-14.85s.93,17.61,5.83,18.84,48.77,15.34,48.77,15.34,25.76,70.24-23,77.91c-26.75,4.21-52.6,12.91-79.28,17.55-20.14,3.51-51,8.47-66-9.74-5.58-6.78-6.94-12.6-3.47-20.75,9.86-23.16,20.53-40.5,41.16-55.29,2.22-1.59,24.55-14.76,24.75-13.05Z"/></g><path class="cls-16" d="M593.16,434.07q15.21-4.08,13.69-18.71l-34.9,9.35Q577.95,438.14,593.16,434.07Z"/><path class="cls-17" d="M155,125c-61.06,0-117.56,37.69-141,94.06-30.28,72.7-5.73,152.1,38.5,213.26a374.32,374.32,0,0,0,83.35,83.12C160,533.07,204,567.33,234.84,546.54c11.51-7.77,12-23.82,7.22-35.53-4.34-10.65-12.05-19.44-16.94-29.8-4.4-9.34-6.36-19.24-4.92-29.53,2.78-20,16.12-36.94,29-51.66,8.12-9.29,16.79-18.09,24.75-27.51q1.38-1.64,2.73-3.31a112.57,112.57,0,0,0,9.18-13.07A152.5,152.5,0,0,0,155,125Zm-3.28,276.22A118.81,118.81,0,1,1,270.5,282.42,118.81,118.81,0,0,1,151.69,401.23Z"/><circle class="cls-2" cx="152.75" cy="281.48" r="121.49"/><g class="cls-18"><g class="cls-12"><circle class="cls-2" cx="28.07" cy="83.77" r="0.93" transform="translate(-57.86 63.23) rotate(-58.04)"/><circle class="cls-2" cx="51.85" cy="95.88" r="0.93" transform="translate(-56.94 89.11) rotate(-58.04)"/><circle class="cls-2" cx="74.59" cy="109.72" r="0.93" transform="translate(-57.98 114.92) rotate(-58.04)"/><circle class="cls-2" cx="93.32" cy="100.78" r="0.93" transform="translate(-41.58 126.6) rotate(-58.04)"/><circle class="cls-2" cx="118.64" cy="96.84" r="0.93" transform="translate(-26.32 146.23) rotate(-58.04)"/><circle class="cls-2" cx="137.72" cy="108.54" r="0.93" transform="translate(-27.27 167.93) rotate(-58.04)"/><circle class="cls-2" cx="143.7" cy="128.91" r="0.93" transform="translate(-41.74 182.58) rotate(-58.04)"/><circle class="cls-2" cx="132.67" cy="132.18" r="0.93" transform="translate(-49.7 174.77) rotate(-58.04)"/><circle class="cls-2" cx="97.85" cy="109.18" r="0.93" transform="translate(-46.57 134.4) rotate(-58.04)"/><circle class="cls-2" cx="62.58" cy="127.91" r="0.93" transform="translate(-79.06 113.29) rotate(-58.04)"/><circle class="cls-2" cx="27.09" cy="116.72" r="0.93" transform="translate(-86.28 77.92) rotate(-58.04)"/><circle class="cls-2" cx="5.84" cy="123.1" r="0.93" transform="translate(-101.69 62.89) rotate(-58.04)"/><circle class="cls-2" cx="1.26" cy="153.89" r="0.93" transform="matrix(0.53, -0.85, 0.85, 0.53, -129.97, 73.5)"/><circle class="cls-2" cx="1.11" cy="189.14" r="0.93" transform="translate(-159.94 89.96) rotate(-58.04)"/><circle class="cls-2" cx="2.57" cy="246.19" r="0.93" transform="translate(-207.66 118.04) rotate(-58.04)"/><circle class="cls-2" cx="12.56" cy="240.41" r="0.93" transform="translate(-198.05 123.8) rotate(-58.04)"/><circle class="cls-2" cx="8.51" cy="189.18" r="0.93" transform="translate(-156.5 96.26) rotate(-58.04)"/><circle class="cls-2" cx="17.72" cy="150.42" r="0.93" transform="translate(-119.28 85.83) rotate(-58.04)"/><circle class="cls-2" cx="47.18" cy="164.73" r="0.93" transform="translate(-117.55 117.55) rotate(-58.04)"/><circle class="cls-2" cx="70.88" cy="162.88" r="0.93" transform="translate(-104.82 136.8) rotate(-58.04)"/><circle class="cls-2" cx="100.49" cy="146.98" r="0.93" transform="translate(-77.4 154.43) rotate(-58.04)"/><circle class="cls-2" cx="126.17" cy="171.46" r="0.93" transform="translate(-86.08 187.73) rotate(-58.04)"/><circle class="cls-2" cx="148.86" cy="156.23" r="0.93" transform="translate(-62.49 199.83) rotate(-58.04)"/><circle class="cls-2" cx="134.17" cy="140.49" r="0.93" transform="translate(-56.04 179.96) rotate(-58.04)"/><circle class="cls-2" cx="101.54" cy="127.43" r="0.93" transform="translate(-60.32 146.11) rotate(-58.04)"/><circle class="cls-2" cx="73.72" cy="137.87" r="0.93" transform="translate(-82.27 127.43) rotate(-58.04)"/><circle class="cls-2" cx="50.62" cy="134.2" r="0.93" transform="translate(-90.03 106.11) rotate(-58.04)"/><circle class="cls-2" cx="39.88" cy="171.14" r="0.93" transform="translate(-126.43 114.38) rotate(-58.04)"/><circle class="cls-2" cx="43.09" cy="185.67" r="0.93" transform="translate(-137.24 123.93) rotate(-58.04)"/><circle class="cls-2" cx="24.41" cy="201.81" r="0.93" transform="translate(-159.72 115.68) rotate(-58.04)"/><circle class="cls-2" cx="24.1" cy="221.94" r="0.93" transform="translate(-176.95 124.89) rotate(-58.04)"/><circle class="cls-2" cx="30.43" cy="213.56" r="0.93" transform="translate(-166.86 126.32) rotate(-58.04)"/><circle class="cls-2" cx="74.54" cy="196.82" r="0.93" transform="translate(-131.9 155.87) rotate(-58.04)"/><circle class="cls-2" cx="99.08" cy="179.77" r="0.93" transform="translate(-105.88 168.66) rotate(-58.04)"/><circle class="cls-2" cx="129.5" cy="164.62" r="0.93" transform="translate(-78.72 187.34) rotate(-58.04)"/><circle class="cls-2" cx="52.82" cy="113.29" r="0.93" transform="translate(-71.26 98.13) rotate(-58.04)"/><circle class="cls-2" cx="49.48" cy="72.48" r="0.93" transform="translate(-38.2 76.09) rotate(-58.04)"/><circle class="cls-2" cx="34" cy="57.49" r="0.93" transform="translate(-32.77 55.9) rotate(-58.04)"/><circle class="cls-2" cx="21.6" cy="41.65" r="0.93" transform="translate(-25.17 37.93) rotate(-58.04)"/><circle class="cls-2" cx="6.71" cy="20.46" r="0.93" transform="translate(-14.2 15.32) rotate(-58.04)"/><circle class="cls-2" cx="67.75" cy="-0.51" r="0.93" transform="translate(32.31 57.24) rotate(-58.04)"/><circle class="cls-2" cx="2.93" cy="28.85" r="0.93" transform="translate(-23.09 16.07) rotate(-58.04)"/><circle class="cls-2" cx="-0.72" cy="84.53" r="0.93" transform="translate(-72.05 39.17) rotate(-58.04)"/><circle class="cls-2" cx="53.14" cy="60.07" r="0.93" transform="translate(-25.95 73.35) rotate(-58.04)"/><circle class="cls-2" cx="92.33" cy="70.32" r="0.93" transform="translate(-16.21 111.43) rotate(-58.04)"/><circle class="cls-2" cx="130.59" cy="67.61" r="0.93" transform="translate(4.1 142.62) rotate(-58.04)"/><circle class="cls-2" cx="130.31" cy="49.76" r="0.93" transform="translate(19.11 133.98) rotate(-58.04)"/><circle class="cls-2" cx="111.54" cy="15.49" r="0.93" transform="translate(39.35 101.92) rotate(-58.04)"/><circle class="cls-2" cx="93.81" cy="15.81" r="0.93" transform="translate(30.73 87.03) rotate(-58.04)"/></g><g class="cls-12"><circle class="cls-2" cx="317.04" cy="7.85" r="0.93" transform="translate(74.28 211.92) rotate(-41.47)"/><circle class="cls-2" cx="311.17" cy="31.33" r="0.93" transform="translate(57.28 213.94) rotate(-41.47)"/><circle class="cls-2" cx="296.21" cy="42.53" r="0.93" transform="translate(46.1 206.82) rotate(-41.47)"/><circle class="cls-2" cx="302.58" cy="60.04" r="0.93" transform="translate(36.1 215.43) rotate(-41.47)"/><circle class="cls-2" cx="322.86" cy="69.58" r="0.93" transform="translate(34.86 231.25) rotate(-41.47)"/><circle class="cls-2" cx="329.51" cy="60" r="0.93" transform="translate(42.87 233.25) rotate(-41.47)"/><circle class="cls-2" cx="329.21" cy="19.1" r="0.93" transform="translate(69.89 222.8) rotate(-41.47)"/><circle class="cls-2" cx="363.92" cy="15.44" r="0.93" transform="translate(81.01 244.87) rotate(-41.47)"/><circle class="cls-2" cx="387.34" cy="38.37" r="0.93" transform="translate(71.7 266.12) rotate(-41.47)"/><circle class="cls-2" cx="373" cy="80.57" r="0.93" transform="translate(40.15 267.21) rotate(-41.47)"/><circle class="cls-2" cx="362.41" cy="109.71" r="0.93" transform="translate(18.2 267.5) rotate(-41.47)"/><circle class="cls-2" cx="370.15" cy="149.46" r="0.93" transform="translate(-6.18 282.6) rotate(-41.47)"/><circle class="cls-2" cx="385.64" cy="166.79" r="0.93" transform="translate(-13.77 297.21) rotate(-41.47)"/><circle class="cls-2" cx="400.86" cy="171.61" r="0.93" transform="translate(-13.14 308.51) rotate(-41.47)"/><circle class="cls-2" cx="406.59" cy="147.77" r="0.93" transform="translate(4.08 306.32) rotate(-41.47)"/><circle class="cls-2" cx="402.43" cy="100.97" r="0.93" transform="translate(34.04 291.84) rotate(-41.47)"/><circle class="cls-2" cx="408.16" cy="74.77" r="0.93" transform="translate(52.81 289.04) rotate(-41.47)"/><circle class="cls-2" cx="411.03" cy="51.04" r="0.93" transform="translate(69.24 284.99) rotate(-41.47)"/><circle class="cls-2" cx="440.24" cy="53.14" r="0.93" transform="translate(75.18 304.86) rotate(-41.47)"/><circle class="cls-2" cx="464.91" cy="143.9" r="0.93" transform="translate(96.73 462.16) rotate(-58.04)"/><circle class="cls-2" cx="447.43" cy="58.37" r="0.93" transform="translate(73.51 310.94) rotate(-41.47)"/><circle class="cls-2" cx="417.03" cy="38.38" r="0.93" transform="translate(79.13 285.79) rotate(-41.47)"/><circle class="cls-2" cx="343.43" cy="26.23" r="0.93" transform="translate(68.74 234.03) rotate(-41.47)"/><circle class="cls-2" cx="345.78" cy="54.4" r="0.93" transform="translate(50.66 242.62) rotate(-41.47)"/><circle class="cls-2" cx="381.88" cy="118.3" r="0.93" transform="translate(17.41 282.57) rotate(-41.47)"/><circle class="cls-2" cx="338.31" cy="86.97" r="0.93" transform="translate(27.22 245.84) rotate(-41.47)"/><circle class="cls-2" cx="306.11" cy="107.35" r="0.93" transform="translate(5.65 229.63) rotate(-41.47)"/><circle class="cls-2" cx="304.73" cy="145.16" r="0.93" transform="translate(-19.73 238.19) rotate(-41.47)"/><circle class="cls-2" cx="291.71" cy="173.04" r="0.93" transform="translate(-41.46 236.56) rotate(-41.47)"/><circle class="cls-2" cx="267.7" cy="196.56" r="0.93" transform="translate(-63.05 226.57) rotate(-41.47)"/><circle class="cls-2" cx="263.84" cy="221.3" r="0.93" transform="translate(-80.41 230.2) rotate(-41.47)"/><circle class="cls-2" cx="277.73" cy="246.85" r="0.93" transform="translate(-93.84 245.81) rotate(-41.47)"/><circle class="cls-2" cx="281.49" cy="187.48" r="0.93" transform="translate(-53.59 233.41) rotate(-41.47)"/><circle class="cls-2" cx="320.05" cy="140.85" r="0.93" transform="translate(-13.04 247.26) rotate(-41.47)"/><circle class="cls-2" cx="342.03" cy="114.92" r="0.93" transform="translate(9.64 255.31) rotate(-41.47)"/><circle class="cls-2" cx="298.72" cy="65.77" r="0.93" transform="translate(31.33 214.31) rotate(-41.47)"/><circle class="cls-2" cx="275.48" cy="113.64" r="0.93" transform="translate(-6.19 210.92) rotate(-41.47)"/><circle class="cls-2" cx="266.34" cy="162.79" r="0.93" transform="translate(-41.03 217.19) rotate(-41.47)"/><circle class="cls-2" cx="283.32" cy="217.13" r="0.93" transform="translate(-72.76 242.06) rotate(-41.47)"/><circle class="cls-2" cx="330.18" cy="206.88" r="0.93" transform="translate(-54.23 270.52) rotate(-41.47)"/><circle class="cls-2" cx="361.58" cy="163.32" r="0.93" transform="translate(-17.51 280.39) rotate(-41.47)"/><circle class="cls-2" cx="331.84" cy="83.49" r="0.93" transform="translate(27.91 240.69) rotate(-41.47)"/><circle class="cls-2" cx="387.55" cy="67.26" r="0.93" transform="translate(52.63 273.53) rotate(-41.47)"/><circle class="cls-2" cx="389.85" cy="31.05" r="0.93" transform="translate(77.18 265.96) rotate(-41.47)"/><circle class="cls-2" cx="377.33" cy="145.19" r="0.93" transform="translate(-1.55 286.28) rotate(-41.47)"/><circle class="cls-2" cx="329.03" cy="235.96" r="0.93" transform="translate(-73.77 277.05) rotate(-41.47)"/><circle class="cls-2" cx="317.52" cy="254.13" r="0.93" transform="translate(-88.69 273.98) rotate(-41.47)"/><circle class="cls-2" cx="360.04" cy="313.73" r="0.93" transform="translate(-117.5 317.08) rotate(-41.47)"/><circle class="cls-2" cx="328.01" cy="296.35" r="0.93" transform="translate(-114.02 291.54) rotate(-41.47)"/><circle class="cls-2" cx="151.44" cy="152.12" r="0.93" transform="translate(-57.79 200.07) rotate(-58.04)"/><circle class="cls-2" cx="303.53" cy="346.82" r="0.93" transform="translate(-153.58 287.96) rotate(-41.47)"/><circle class="cls-2" cx="330.07" cy="357.58" r="0.93" transform="translate(-154.05 308.23) rotate(-41.47)"/><circle class="cls-2" cx="283.73" cy="318.81" r="0.93" transform="translate(-140 267.82) rotate(-41.47)"/><circle class="cls-2" cx="360.36" cy="324.33" r="0.93" transform="translate(-124.44 319.95) rotate(-41.47)"/><circle class="cls-2" cx="308.63" cy="211.5" r="0.93" transform="translate(-62.69 257.41) rotate(-41.47)"/><circle class="cls-2" cx="282.7" cy="155.5" r="0.93" transform="translate(1.12 313.02) rotate(-58.04)"/><circle class="cls-2" cx="351.3" cy="137.61" r="0.93" transform="translate(-3.05 267.16) rotate(-41.47)"/><circle class="cls-2" cx="331.69" cy="144.62" r="0.93" transform="matrix(0.53, -0.85, 0.85, 0.53, 33.4, 349.46)"/><circle class="cls-2" cx="399.84" cy="144.99" r="0.93" transform="translate(65.16 407.45) rotate(-58.04)"/><circle class="cls-2" cx="416.43" cy="160.68" r="0.93" transform="translate(59.66 428.91) rotate(-58.04)"/><circle class="cls-2" cx="452.34" cy="153.21" r="0.93" transform="translate(82.89 455.86) rotate(-58.04)"/><circle class="cls-2" cx="455.61" cy="175.56" r="0.93" transform="translate(65.48 469.15) rotate(-58.04)"/><circle class="cls-2" cx="407.06" cy="160.89" r="0.93" transform="translate(-4.5 309.9) rotate(-41.47)"/><circle class="cls-2" cx="353.29" cy="258.56" r="0.93" transform="translate(-82.66 298.78) rotate(-41.47)"/><circle class="cls-2" cx="320.6" cy="218.68" r="0.93" transform="translate(-64.44 267.13) rotate(-41.47)"/><circle class="cls-2" cx="390.13" cy="243.88" r="0.93" transform="translate(-63.7 319.49) rotate(-41.47)"/><circle class="cls-2" cx="218.81" cy="160.88" r="0.93" transform="translate(-33.52 261.35) rotate(-58.04)"/><circle class="cls-2" cx="180.37" cy="207.08" r="0.93" transform="translate(-90.8 250.48) rotate(-58.04)"/><circle class="cls-2" cx="234.71" cy="192.04" r="0.93" transform="translate(-52.46 289.52) rotate(-58.04)"/><circle class="cls-2" cx="297.15" cy="200.34" r="0.93" transform="translate(-30.12 346.38) rotate(-58.04)"/><circle class="cls-2" cx="384.86" cy="182.7" r="0.93" transform="translate(26.14 412.51) rotate(-58.04)"/><circle class="cls-2" cx="464.36" cy="166.14" r="0.93" transform="translate(77.59 472.15) rotate(-58.04)"/><circle class="cls-2" cx="491.5" cy="192.28" r="0.93" transform="translate(68.18 507.47) rotate(-58.04)"/><circle class="cls-2" cx="443.25" cy="153.3" r="0.93" transform="translate(78.56 448.21) rotate(-58.04)"/><circle class="cls-2" cx="328.11" cy="176.13" r="0.93" transform="translate(5 361.27) rotate(-58.04)"/><circle class="cls-2" cx="392.21" cy="252.7" r="0.93" transform="translate(-69.02 323.08) rotate(-41.47)"/><circle class="cls-2" cx="343.98" cy="222.12" r="0.93" transform="translate(-60.86 283.5) rotate(-41.47)"/><circle class="cls-2" cx="362.41" cy="203.13" r="0.93" transform="translate(-43.66 290.95) rotate(-41.47)"/><circle class="cls-2" cx="330.85" cy="168.75" r="0.93" transform="translate(-28.81 261.41) rotate(-41.47)"/><circle class="cls-2" cx="282.42" cy="273.58" r="0.93" transform="translate(-110.37 255.61) rotate(-41.47)"/><circle class="cls-2" cx="268.62" cy="282.82" r="0.93" transform="translate(-119.95 248.79) rotate(-41.47)"/><circle class="cls-2" cx="253.87" cy="292.45" r="0.93" transform="translate(-130.03 241.44) rotate(-41.47)"/><circle class="cls-2" cx="237.53" cy="302.12" r="0.93" transform="translate(-140.52 233.04) rotate(-41.47)"/><circle class="cls-2" cx="202.54" cy="344.67" r="0.93" transform="translate(-177.47 220.54) rotate(-41.47)"/><circle class="cls-2" cx="224.68" cy="343.35" r="0.93" transform="translate(-171.05 234.87) rotate(-41.47)"/><circle class="cls-2" cx="228.84" cy="237.98" r="0.93" transform="translate(-100.23 211.21) rotate(-41.47)"/><circle class="cls-2" cx="245.24" cy="252.01" r="0.93" transform="translate(-105.4 225.58) rotate(-41.47)"/><circle class="cls-2" cx="214.4" cy="296.25" r="0.93" transform="translate(-142.44 216.27) rotate(-41.47)"/><circle class="cls-2" cx="249.33" cy="335.1" r="0.93" transform="translate(-159.41 249.12) rotate(-41.47)"/><circle class="cls-2" cx="206.23" cy="334.06" r="0.93" transform="translate(-169.52 220.32) rotate(-41.47)"/><circle class="cls-2" cx="322.55" cy="323.54" r="0.93" transform="translate(-133.4 294.72) rotate(-41.47)"/><circle class="cls-2" cx="260.28" cy="313.3" r="0.93" transform="translate(-142.23 250.91) rotate(-41.47)"/><circle class="cls-2" cx="275.2" cy="353.73" r="0.93" transform="translate(-165.26 270.93) rotate(-41.47)"/><circle class="cls-2" cx="413.14" cy="6.93" r="0.93" transform="translate(98.99 275.33) rotate(-41.47)"/><circle class="cls-2" cx="463.58" cy="2.53" r="0.93" transform="translate(114.54 307.63) rotate(-41.47)"/><circle class="cls-2" cx="553.22" cy="169.47" r="0.93" transform="translate(116.58 549.09) rotate(-58.04)"/><circle class="cls-2" cx="583.2" cy="209.15" r="0.93" transform="translate(97.02 593.21) rotate(-58.04)"/><circle class="cls-2" cx="600.34" cy="234.21" r="0.93" transform="translate(83.83 619.54) rotate(-58.04)"/><circle class="cls-2" cx="599.57" cy="143.98" r="0.93" transform="translate(160.02 576.42) rotate(-58.04)"/><circle class="cls-2" cx="516.41" cy="157.28" r="0.93" transform="translate(109.6 512.13) rotate(-58.04)"/><circle class="cls-2" cx="502.43" cy="160.19" r="0.93" transform="translate(100.55 501.64) rotate(-58.04)"/><circle class="cls-2" cx="488.3" cy="178.91" r="0.93" transform="matrix(0.53, -0.85, 0.85, 0.53, 78.02, 498.46)"/><circle class="cls-2" cx="425.17" cy="212.36" r="0.93" transform="translate(19.94 460.68) rotate(-58.04)"/><circle class="cls-2" cx="441.37" cy="211.29" r="0.93" transform="translate(28.46 473.88) rotate(-58.04)"/><circle class="cls-2" cx="482.58" cy="230.06" r="0.93" transform="translate(31.93 517.68) rotate(-58.04)"/><circle class="cls-2" cx="507.09" cy="262.53" r="0.93" transform="translate(15.92 553.75) rotate(-58.04)"/><circle class="cls-2" cx="534.57" cy="213.35" r="0.93" transform="translate(70.57 553.93) rotate(-58.04)"/><circle class="cls-2" cx="544" cy="223.87" r="0.93" transform="translate(66.11 566.91) rotate(-58.04)"/><circle class="cls-2" cx="565.65" cy="260.8" r="0.93" transform="translate(44.95 602.62) rotate(-58.04)"/><circle class="cls-2" cx="580.61" cy="288.38" r="0.93" transform="translate(28.61 628.33) rotate(-58.04)"/><circle class="cls-2" cx="529.37" cy="247.63" r="0.93" transform="translate(39.05 565.65) rotate(-58.04)"/><circle class="cls-2" cx="534.98" cy="290.06" r="0.93" transform="matrix(0.53, -0.85, 0.85, 0.53, 5.69, 590.37)"/><circle class="cls-2" cx="579.4" cy="193.56" r="0.93" transform="translate(108.47 582.64) rotate(-58.04)"/><circle class="cls-2" cx="535.28" cy="194.87" r="0.93" transform="translate(86.58 545.83) rotate(-58.04)"/><circle class="cls-2" cx="190.12" cy="181.02" r="0.93" transform="translate(-64.1 246.49) rotate(-58.04)"/><circle class="cls-2" cx="161.01" cy="197.83" r="0.93" transform="translate(-92.07 229.7) rotate(-58.04)"/><circle class="cls-2" cx="99.12" cy="236.52" r="0.93" transform="translate(-154.02 195.4) rotate(-58.04)"/><circle class="cls-2" cx="67.41" cy="262.95" r="0.93" transform="translate(-191.36 180.93) rotate(-58.04)"/><circle class="cls-2" cx="39.13" cy="294.37" r="0.93" transform="translate(-231.32 171.73) rotate(-58.04)"/><circle class="cls-2" cx="83.85" cy="219.36" r="0.93" transform="translate(-146.64 174.37) rotate(-58.04)"/><circle class="cls-2" cx="56.84" cy="222.44" r="0.93" transform="translate(-161.97 152.9) rotate(-58.04)"/><circle class="cls-2" cx="21.47" cy="252.09" r="0.93" transform="translate(-203.76 136.86) rotate(-58.04)"/><circle class="cls-2" cx="4.92" cy="274.14" r="0.93" transform="translate(-230.27 133.2) rotate(-58.04)"/><circle class="cls-2" cx="95.33" cy="199.63" r="0.93" transform="translate(-124.5 174.84) rotate(-58.04)"/><circle class="cls-2" cx="122.49" cy="245.42" r="0.93" transform="translate(-150.57 219.43) rotate(-58.04)"/><circle class="cls-2" cx="134.82" cy="309.3" r="0.93" transform="translate(-198.96 259.95) rotate(-58.04)"/><circle class="cls-2" cx="140.53" cy="344.8" r="0.93" transform="translate(-226.39 281.49) rotate(-58.04)"/><circle class="cls-2" cx="165.79" cy="247.97" r="0.93" transform="translate(-132.35 257.35) rotate(-58.04)"/><circle class="cls-2" cx="170.22" cy="219.34" r="0.93" transform="translate(-105.98 247.64) rotate(-58.04)"/><circle class="cls-2" cx="133.5" cy="204.84" r="0.93" transform="translate(-110.96 209.67) rotate(-58.04)"/><circle class="cls-2" cx="117.87" cy="190.57" r="0.93" transform="translate(-106.21 189.68) rotate(-58.04)"/><circle class="cls-2" cx="113.7" cy="210.17" r="0.93" transform="translate(-124.8 195.37) rotate(-58.04)"/><circle class="cls-2" cx="68.58" cy="283.39" r="0.93" transform="translate(-208.15 191.56) rotate(-58.04)"/><circle class="cls-2" cx="38.59" cy="304.68" r="0.93" transform="matrix(0.53, -0.85, 0.85, 0.53, -240.33, 176.14)"/><circle class="cls-2" cx="93.1" cy="290.92" r="0.93" transform="translate(-203 215.89) rotate(-58.04)"/><circle class="cls-2" cx="120.04" cy="377.94" r="0.93" transform="translate(-264.15 279.71) rotate(-58.04)"/><circle class="cls-2" cx="146.57" cy="434.69" r="0.93" transform="translate(-299.81 328.92) rotate(-58.04)"/><circle class="cls-2" cx="45.96" cy="263.54" r="0.93" transform="translate(-201.95 163.02) rotate(-58.04)"/><circle class="cls-2" cx="29.63" cy="289.29" r="0.93" transform="translate(-231.49 161.28) rotate(-58.04)"/><circle class="cls-2" cx="19.91" cy="343.87" r="0.93" transform="translate(-282.36 178.72) rotate(-58.04)"/><circle class="cls-2" cx="10.15" cy="388.87" r="0.93" transform="translate(-325.13 191.62) rotate(-58.04)"/><circle class="cls-2" cx="7.4" cy="503.54" r="0.93" transform="translate(-423.72 243.25) rotate(-58.04)"/><circle class="cls-2" cx="8.61" cy="419.34" r="0.93" transform="translate(-351.71 204.65) rotate(-58.04)"/><circle class="cls-2" cx="40.93" cy="441.23" r="0.93" transform="translate(-355.08 242.4) rotate(-58.04)"/><circle class="cls-2" cx="94.65" cy="444.38" r="0.93" transform="translate(-332.46 289.44) rotate(-58.04)"/><circle class="cls-2" cx="127.51" cy="479.7" r="0.93" transform="translate(-346.95 333.93) rotate(-58.04)"/><circle class="cls-2" cx="142.95" cy="504.89" r="0.93" transform="translate(-361.07 358.92) rotate(-58.04)"/><circle class="cls-2" cx="87.11" cy="422.42" r="0.93" transform="translate(-317.38 272.7) rotate(-58.04)"/><circle class="cls-2" cx="122.95" cy="400.81" r="0.93" transform="translate(-282.18 292.93) rotate(-58.04)"/><circle class="cls-2" cx="175.08" cy="374.2" r="0.93" transform="translate(-235.07 324.66) rotate(-58.04)"/><circle class="cls-2" cx="372.31" cy="289.58" r="0.93" transform="translate(-98.43 319.15) rotate(-41.47)"/><circle class="cls-2" cx="367.5" cy="264.8" r="0.93" transform="translate(-83.22 309.78) rotate(-41.47)"/><circle class="cls-2" cx="377.73" cy="238.74" r="0.93" transform="translate(-63.41 310) rotate(-41.47)"/><circle class="cls-2" cx="281.22" cy="143.49" r="0.93" transform="translate(10.61 306.11) rotate(-58.04)"/><circle class="cls-2" cx="243" cy="176.44" r="0.93" transform="translate(-35.33 289.19) rotate(-58.04)"/><circle class="cls-2" cx="410.1" cy="182.08" r="0.93" transform="translate(38.54 433.64) rotate(-58.04)"/><circle class="cls-2" cx="426.65" cy="142.77" r="0.93" transform="translate(79.67 429.15) rotate(-58.04)"/><circle class="cls-2" cx="365.06" cy="190.24" r="0.93" transform="translate(10.41 399.26) rotate(-58.04)"/><circle class="cls-2" cx="427.28" cy="250.76" r="0.93" transform="translate(-11.65 480.51) rotate(-58.04)"/><circle class="cls-2" cx="477.17" cy="304.74" r="0.93" transform="translate(-33.96 548.27) rotate(-58.04)"/><circle class="cls-2" cx="485.96" cy="374.7" r="0.93" transform="translate(-89.19 588.62) rotate(-58.04)"/><circle class="cls-2" cx="464.79" cy="408.1" r="0.93" transform="translate(-127.48 586.4) rotate(-58.04)"/><circle class="cls-2" cx="433.47" cy="291.51" r="0.93" transform="translate(-43.31 504.96) rotate(-58.04)"/><circle class="cls-2" cx="432.7" cy="315.09" r="0.93" transform="translate(-63.68 515.38) rotate(-58.04)"/><circle class="cls-2" cx="418.14" cy="378.95" r="0.93" transform="translate(-124.71 533.08) rotate(-58.04)"/><circle class="cls-2" cx="386.1" cy="437.66" r="0.93" transform="translate(-189.59 533.55) rotate(-58.04)"/><circle class="cls-2" cx="472.78" cy="318.16" r="0.93" transform="translate(-47.42 550.83) rotate(-58.04)"/><circle class="cls-2" cx="467.05" cy="282.64" r="0.93" transform="translate(-19.98 529.25) rotate(-58.04)"/><circle class="cls-2" cx="488.86" cy="270.5" r="0.93" transform="translate(0.59 542.07) rotate(-58.04)"/><circle class="cls-2" cx="517.22" cy="318.5" r="0.93" transform="translate(-26.8 588.69) rotate(-58.04)"/><circle class="cls-2" cx="536.27" cy="366.24" r="0.93" transform="matrix(0.53, -0.85, 0.85, 0.53, -58.3, 627.38)"/><circle class="cls-2" cx="560" cy="405.92" r="0.93" transform="translate(-80.83 666.12) rotate(-58.04)"/><circle class="cls-2" cx="568.26" cy="316.93" r="0.93" transform="matrix(0.53, -0.85, 0.85, 0.53, -1.45, 631.25)"/><circle class="cls-2" cx="577.01" cy="360.45" r="0.93" transform="translate(-34.25 659.16) rotate(-58.04)"/><circle class="cls-2" cx="581.03" cy="424.92" r="0.93" transform="translate(-87.04 692.94) rotate(-58.04)"/><circle class="cls-2" cx="577.29" cy="459.38" r="0.93" transform="translate(-118.04 705.96) rotate(-58.04)"/><circle class="cls-2" cx="564.65" cy="454.45" r="0.93" transform="translate(-119.81 692.91) rotate(-58.04)"/><circle class="cls-2" cx="496.87" cy="459.05" r="0.93" transform="translate(-155.61 637.61) rotate(-58.04)"/><circle class="cls-2" cx="451.01" cy="464.06" r="0.93" transform="translate(-181.45 601.03) rotate(-58.04)"/><circle class="cls-2" cx="417.08" cy="461.64" r="0.93" transform="matrix(0.53, -0.85, 0.85, 0.53, -195.36, 571.1)"/><circle class="cls-2" cx="450.46" cy="378.4" r="0.93" transform="translate(-109.03 560.24) rotate(-58.04)"/><circle class="cls-2" cx="416.64" cy="425.14" r="0.93" transform="translate(-164.6 553.55) rotate(-58.04)"/><circle class="cls-2" cx="509.29" cy="397.83" r="0.93" transform="translate(-97.83 619.3) rotate(-58.04)"/><circle class="cls-2" cx="504.18" cy="402.79" r="0.93" transform="translate(-104.44 617.3) rotate(-58.04)"/><circle class="cls-2" cx="530.92" cy="433.58" r="0.93" transform="translate(-117.99 654.48) rotate(-58.04)"/><circle class="cls-2" cx="525.68" cy="359.09" r="0.93" transform="translate(-57.25 614.97) rotate(-58.04)"/><circle class="cls-2" cx="396.39" cy="378.33" r="0.93" transform="translate(-134.42 514.36) rotate(-58.04)"/><circle class="cls-2" cx="344.5" cy="393.17" r="0.93" transform="translate(-171.42 477.33) rotate(-58.04)"/><circle class="cls-2" cx="292.91" cy="392.62" r="0.93" transform="translate(-195.25 433.32) rotate(-58.04)"/><circle class="cls-2" cx="248.35" cy="394.95" r="0.93" transform="translate(-218.19 396.56) rotate(-58.04)"/><circle class="cls-2" cx="228.87" cy="378.15" r="0.93" transform="translate(-213.11 372.16) rotate(-58.04)"/><circle class="cls-2" cx="176.86" cy="424.94" r="0.93" transform="translate(-277.28 350.03) rotate(-58.04)"/><circle class="cls-2" cx="224.93" cy="471.19" r="0.93" transform="matrix(0.53, -0.85, 0.85, 0.53, -293.89, 412.57)"/><circle class="cls-2" cx="308.84" cy="475.35" r="0.93" transform="translate(-257.93 485.73) rotate(-58.04)"/><circle class="cls-2" cx="332.33" cy="440.76" r="0.93" transform="matrix(0.53, -0.85, 0.85, 0.53, -217.53, 489.37)"/><circle class="cls-2" cx="323.77" cy="439.41" r="0.93" transform="translate(-220.42 481.47) rotate(-58.04)"/><circle class="cls-2" cx="277.62" cy="437.03" r="0.93" transform="translate(-240.12 441.2) rotate(-58.04)"/><circle class="cls-2" cx="253.3" cy="449.11" r="0.93" transform="translate(-261.81 426.26) rotate(-58.04)"/><circle class="cls-2" cx="214.93" cy="447" r="0.93" transform="translate(-278.08 392.74) rotate(-58.04)"/><circle class="cls-2" cx="172.7" cy="464.31" r="0.93" transform="translate(-312.65 365.06) rotate(-58.04)"/><circle class="cls-2" cx="275.66" cy="374.4" r="0.93" transform="matrix(0.53, -0.85, 0.85, 0.53, -187.9, 410.06)"/><circle class="cls-2" cx="309.2" cy="371.67" r="0.93" transform="matrix(0.53, -0.85, 0.85, 0.53, -169.81, 437.23)"/><circle class="cls-2" cx="346.85" cy="376.41" r="0.93" transform="translate(-156.11 471.4) rotate(-58.04)"/><circle class="cls-2" cx="384.18" cy="380.03" r="0.93" transform="translate(-141.61 504.78) rotate(-58.04)"/><circle class="cls-2" cx="115.01" cy="255.82" r="0.93" transform="translate(-162.91 217.97) rotate(-58.04)"/><circle class="cls-2" cx="131.67" cy="282.47" r="0.93" transform="translate(-177.68 244.67) rotate(-58.04)"/><circle class="cls-2" cx="149.71" cy="287.91" r="0.93" transform="translate(-173.8 262.5) rotate(-58.04)"/><circle class="cls-2" cx="159.85" cy="292.33" r="0.93" transform="translate(-172.78 273.19) rotate(-58.04)"/><circle class="cls-2" cx="163.23" cy="263.13" r="0.93" transform="translate(-146.41 262.35) rotate(-58.04)"/><circle class="cls-2" cx="197.1" cy="421.09" r="0.93" transform="translate(-264.49 365.39) rotate(-58.04)"/><circle class="cls-2" cx="168.29" cy="407.39" r="0.93" transform="translate(-266.43 334.53) rotate(-58.04)"/><circle class="cls-2" cx="149.35" cy="440.13" r="0.93" transform="translate(-303.12 333.86) rotate(-58.04)"/><circle class="cls-2" cx="113.32" cy="468.15" r="0.93" transform="translate(-343.85 316.49) rotate(-58.04)"/><circle class="cls-2" cx="70.24" cy="483.51" r="0.93" transform="translate(-377.16 287.16) rotate(-58.04)"/><circle class="cls-2" cx="30.61" cy="504.22" r="0.93" transform="translate(-413.37 263.27) rotate(-58.04)"/><circle class="cls-2" cx="12.02" cy="518.13" r="0.93" transform="translate(-433.91 254.03) rotate(-58.04)"/><circle class="cls-2" cx="55.17" cy="584.82" r="0.93" transform="translate(-470.19 322.03) rotate(-58.04)"/><circle class="cls-2" cx="123.5" cy="582.88" r="0.93" transform="translate(-436.39 379.09) rotate(-58.04)"/><circle class="cls-2" cx="185.94" cy="590.01" r="0.93" transform="translate(-413.05 435.42) rotate(-58.04)"/><circle class="cls-2" cx="248.72" cy="604.58" r="0.93" transform="matrix(0.53, -0.85, 0.85, 0.53, -395.87, 495.53)"/><circle class="cls-2" cx="96.91" cy="527" r="0.93" transform="translate(-401.49 330.23) rotate(-58.04)"/><circle class="cls-2" cx="72.51" cy="537.26" r="0.93" transform="translate(-421.68 314.38) rotate(-58.04)"/><circle class="cls-2" cx="58.75" cy="542.59" r="0.93" transform="translate(-432.68 305.19) rotate(-58.04)"/><circle class="cls-2" cx="48.02" cy="524.15" r="0.93" transform="translate(-422.1 287.44) rotate(-58.04)"/><circle class="cls-2" cx="57.81" cy="493.34" r="0.93" transform="translate(-391.34 281.23) rotate(-58.04)"/><circle class="cls-2" cx="57.34" cy="480.84" r="0.93" transform="translate(-380.96 274.96) rotate(-58.04)"/><circle class="cls-2" cx="26.48" cy="478.61" r="0.93" transform="translate(-393.58 247.7) rotate(-58.04)"/><circle class="cls-2" cx="1.87" cy="475.29" r="0.93" transform="translate(-402.36 225.29) rotate(-58.04)"/><circle class="cls-2" cx="13.58" cy="558.58" r="0.93" transform="translate(-467.5 274.4) rotate(-58.04)"/><circle class="cls-2" cx="43.66" cy="569.55" r="0.93" transform="translate(-462.64 305.08) rotate(-58.04)"/><circle class="cls-2" cx="61.59" cy="593.75" r="0.93" transform="translate(-474.74 331.69) rotate(-58.04)"/><circle class="cls-2" cx="213.84" cy="402.48" r="0.93" transform="translate(-240.82 370.84) rotate(-58.04)"/><circle class="cls-2" cx="259.18" cy="403.3" r="0.93" transform="translate(-220.18 409.68) rotate(-58.04)"/><circle class="cls-2" cx="312.98" cy="420.93" r="0.93" transform="translate(-209.81 463.62) rotate(-58.04)"/><circle class="cls-2" cx="375.33" cy="428.57" r="0.93" transform="translate(-186.96 520.12) rotate(-58.04)"/><circle class="cls-2" cx="578.59" cy="434.16" r="0.93" transform="translate(-96.03 695.21) rotate(-58.04)"/><circle class="cls-2" cx="592.51" cy="479.88" r="0.93" transform="matrix(0.53, -0.85, 0.85, 0.53, -128.28, 728.51)"/><circle class="cls-2" cx="598.85" cy="532.91" r="0.93" transform="translate(-170.29 758.85) rotate(-58.04)"/><circle class="cls-2" cx="590.42" cy="560.84" r="0.93" transform="translate(-197.95 764.84) rotate(-58.04)"/><circle class="cls-2" cx="556.35" cy="555.42" r="0.93" transform="translate(-209.38 733.38) rotate(-58.04)"/><circle class="cls-2" cx="510.12" cy="556.31" r="0.93" transform="translate(-231.89 694.58) rotate(-58.04)"/><circle class="cls-2" cx="447.65" cy="576.23" r="0.93" transform="translate(-278.19 650.96) rotate(-58.04)"/><circle class="cls-2" cx="384.83" cy="591.4" r="0.93" transform="translate(-320.62 604.8) rotate(-58.04)"/><circle class="cls-2" cx="369.46" cy="555" r="0.93" transform="translate(-296.97 574.64) rotate(-58.04)"/><circle class="cls-2" cx="424.96" cy="538.08" r="0.93" transform="translate(-256.5 613.8) rotate(-58.04)"/><circle class="cls-2" cx="498.9" cy="543.83" r="0.93" transform="translate(-226.58 679.19) rotate(-58.04)"/><circle class="cls-2" cx="546.26" cy="538.06" r="0.93" transform="translate(-199.4 716.69) rotate(-58.04)"/><circle class="cls-2" cx="536.32" cy="515.62" r="0.93" transform="translate(-185.04 697.66) rotate(-58.04)"/><circle class="cls-2" cx="477.87" cy="517.79" r="0.93" transform="translate(-214.39 649.1) rotate(-58.04)"/><circle class="cls-2" cx="408.36" cy="512.66" r="0.93" transform="translate(-242.75 587.71) rotate(-58.04)"/><circle class="cls-2" cx="343.83" cy="506.48" r="0.93" transform="translate(-267.87 530.09) rotate(-58.04)"/><circle class="cls-2" cx="287.02" cy="537.96" r="0.93" transform="translate(-321.32 496.68) rotate(-58.04)"/><circle class="cls-2" cx="205.83" cy="519.55" r="0.93" transform="translate(-343.91 419.13) rotate(-58.04)"/><circle class="cls-2" cx="174.09" cy="538.18" r="0.93" transform="translate(-374.66 401.02) rotate(-58.04)"/><circle class="cls-2" cx="123.03" cy="558" r="0.93" transform="translate(-415.51 367.01) rotate(-58.04)"/><circle class="cls-2" cx="100.7" cy="557.89" r="0.93" transform="translate(-425.92 347.98) rotate(-58.04)"/><circle class="cls-2" cx="93.74" cy="561.12" r="0.93" transform="translate(-431.93 343.6) rotate(-58.04)"/><circle class="cls-2" cx="76.86" cy="573.97" r="0.93" transform="translate(-450.77 335.33) rotate(-58.04)"/><circle class="cls-2" cx="88.75" cy="499.08" r="0.93" transform="translate(-381.65 310.17) rotate(-58.04)"/><circle class="cls-2" cx="126.14" cy="511.66" r="0.93" transform="translate(-374.72 347.81) rotate(-58.04)"/><circle class="cls-2" cx="151.07" cy="546.89" r="0.93" transform="translate(-392.88 385.54) rotate(-58.04)"/><circle class="cls-2" cx="191.27" cy="568.63" r="0.93" transform="translate(-392.4 429.88) rotate(-58.04)"/><circle class="cls-2" cx="238.73" cy="581.56" r="0.93" transform="translate(-381.04 476.26) rotate(-58.04)"/><circle class="cls-2" cx="292.61" cy="578.77" r="0.93" transform="matrix(0.53, -0.85, 0.85, 0.53, -353.31, 520.62)"/><circle class="cls-2" cx="186.45" cy="503.28" r="0.93" transform="translate(-339.23 395.05) rotate(-58.04)"/><circle class="cls-2" cx="168.56" cy="498.81" r="0.93" transform="translate(-343.86 377.78) rotate(-58.04)"/><circle class="cls-2" cx="179.84" cy="512.64" r="0.93" transform="translate(-350.28 393.86) rotate(-58.04)"/><circle class="cls-2" cx="234.85" cy="502.39" r="0.93" transform="translate(-315.7 435.71) rotate(-58.04)"/><circle class="cls-2" cx="298.31" cy="498.51" r="0.93" transform="translate(-282.54 487.71) rotate(-58.04)"/><circle class="cls-2" cx="334.04" cy="495.08" r="0.93" transform="translate(-262.82 516.38) rotate(-58.04)"/><circle class="cls-2" cx="372.74" cy="523.21" r="0.93" transform="translate(-268.47 562.46) rotate(-58.04)"/><circle class="cls-2" cx="285.54" cy="470.41" r="0.93" transform="translate(-264.71 463.63) rotate(-58.04)"/><circle class="cls-2" cx="258.87" cy="519.97" r="0.93" transform="translate(-319.31 464.35) rotate(-58.04)"/><circle class="cls-2" cx="232.13" cy="546.44" r="0.93" transform="translate(-354.35 454.1) rotate(-58.04)"/><circle class="cls-2" cx="326.86" cy="534.84" r="0.93" transform="translate(-299.93 529.01) rotate(-58.04)"/><circle class="cls-2" cx="349.84" cy="564.63" r="0.93" transform="translate(-314.38 562.55) rotate(-58.04)"/><circle class="cls-2" cx="380.13" cy="584.06" r="0.93" transform="translate(-316.61 597.36) rotate(-58.04)"/><circle class="cls-2" cx="422.29" cy="587.52" r="0.93" transform="matrix(0.53, -0.85, 0.85, 0.53, -299.7, 634.76)"/><circle class="cls-2" cx="477.55" cy="584.52" r="0.93" transform="translate(-271.15 680.23) rotate(-58.04)"/><circle class="cls-2" cx="528.29" cy="571.68" r="0.93" transform="translate(-236.39 717.23) rotate(-58.04)"/><circle class="cls-2" cx="557.35" cy="577.12" r="0.93" transform="translate(-227.32 744.45) rotate(-58.04)"/><circle class="cls-2" cx="586.14" cy="585.93" r="0.93" transform="translate(-221.25 773.02) rotate(-58.04)"/><circle class="cls-2" cx="605.19" cy="539.24" r="0.93" transform="translate(-172.65 767.26) rotate(-58.04)"/><circle class="cls-2" cx="573.57" cy="502.69" r="0.93" transform="translate(-156.55 723.18) rotate(-58.04)"/><circle class="cls-2" cx="545.14" cy="489.14" r="0.93" transform="translate(-158.43 692.69) rotate(-58.04)"/><circle class="cls-2" cx="517.51" cy="473.94" r="0.93" transform="translate(-158.53 662.09) rotate(-58.04)"/><circle class="cls-2" cx="498.62" cy="480.98" r="0.93" transform="translate(-173.39 649.38) rotate(-58.04)"/><circle class="cls-2" cx="479.99" cy="491.25" r="0.93" transform="matrix(0.53, -0.85, 0.85, 0.53, -190.88, 638.41)"/><circle class="cls-2" cx="493.27" cy="433.58" r="0.93" transform="translate(-135.7 622.53) rotate(-58.04)"/><circle class="cls-2" cx="453.41" cy="454.21" r="0.93" transform="translate(-171.96 598.42) rotate(-58.04)"/><circle class="cls-2" cx="407.92" cy="483.44" r="0.93" transform="translate(-218.17 573.59) rotate(-58.04)"/><circle class="cls-2" cx="388.6" cy="488.34" r="0.93" transform="translate(-231.41 559.5) rotate(-58.04)"/><circle class="cls-2" cx="367.77" cy="493.01" r="0.93" transform="translate(-245.18 544.03) rotate(-58.04)"/><circle class="cls-2" cx="361.63" cy="459.03" r="0.93" transform="translate(-219.24 522.83) rotate(-58.04)"/><circle class="cls-2" cx="347.04" cy="442.81" r="0.93" transform="matrix(0.53, -0.85, 0.85, 0.53, -212.35, 502.82)"/><circle class="cls-2" cx="363.07" cy="411.75" r="0.93" transform="translate(-178.45 501.79) rotate(-58.04)"/><circle class="cls-2" cx="355.93" cy="415.76" r="0.93" transform="translate(-185.22 497.63) rotate(-58.04)"/><circle class="cls-2" cx="368.63" cy="394.73" r="0.93" transform="translate(-161.4 498.5) rotate(-58.04)"/><circle class="cls-2" cx="409.1" cy="405.22" r="0.93" transform="translate(-151.25 537.77) rotate(-58.04)"/><circle class="cls-2" cx="471.22" cy="403.19" r="0.93" transform="translate(-120.29 589.52) rotate(-58.04)"/><circle class="cls-2" cx="455.71" cy="404.56" r="0.93" transform="translate(-128.75 577.01) rotate(-58.04)"/><circle class="cls-2" cx="460.03" cy="448.67" r="0.93" transform="translate(-164.14 601.43) rotate(-58.04)"/><circle class="cls-2" cx="433.81" cy="485.74" r="0.93" transform="translate(-207.94 596.63) rotate(-58.04)"/><circle class="cls-2" cx="420.5" cy="504.6" r="0.93" transform="translate(-230.19 594.24) rotate(-58.04)"/><circle class="cls-2" cx="453.62" cy="485.22" r="0.93" transform="translate(-198.17 613.19) rotate(-58.04)"/><circle class="cls-2" cx="449.15" cy="533.52" r="0.93" transform="translate(-241.25 632.18) rotate(-58.04)"/><circle class="cls-2" cx="456.14" cy="553.28" r="0.93" transform="translate(-254.72 647.36) rotate(-58.04)"/><circle class="cls-2" cx="500.69" cy="561.54" r="0.93" transform="translate(-240.77 689.05) rotate(-58.04)"/><circle class="cls-2" cx="512.84" cy="579.86" r="0.93" transform="translate(-250.59 707.97) rotate(-58.04)"/><circle class="cls-2" cx="547.68" cy="593.76" r="0.93" transform="matrix(0.53, -0.85, 0.85, 0.53, -245.99, 744.08)"/><circle class="cls-2" cx="563" cy="597.23" r="0.93" transform="translate(-241.72 758.7) rotate(-58.04)"/><circle class="cls-2" cx="577.22" cy="603.36" r="0.93" transform="translate(-240.23 773.68) rotate(-58.04)"/><circle class="cls-2" cx="559.81" cy="589.9" r="0.93" transform="translate(-237 752.54) rotate(-58.04)"/><circle class="cls-2" cx="476.59" cy="572.35" r="0.93" transform="translate(-261.28 673.69) rotate(-58.04)"/><circle class="cls-2" cx="417.21" cy="580.49" r="0.93" transform="translate(-296.13 627.14) rotate(-58.04)"/><circle class="cls-2" cx="367.98" cy="588.63" r="0.93" transform="translate(-326.21 589.21) rotate(-58.04)"/><circle class="cls-2" cx="330.59" cy="595.86" r="0.93" transform="translate(-349.94 560.89) rotate(-58.04)"/><circle class="cls-2" cx="292.35" cy="605.89" r="0.93" transform="translate(-376.44 533.16) rotate(-58.04)"/><circle class="cls-2" cx="276.76" cy="609.78" r="0.93" transform="translate(-387.08 521.8) rotate(-58.04)"/><circle class="cls-2" cx="314.58" cy="572.04" r="0.93" transform="translate(-337.26 536.1) rotate(-58.04)"/><circle class="cls-2" cx="292.32" cy="528.1" r="0.93" transform="translate(-310.46 496.53) rotate(-58.04)"/><circle class="cls-2" cx="279.95" cy="512.64" r="0.93" transform="translate(-303.17 478.76) rotate(-58.04)"/><circle class="cls-2" cx="258.29" cy="537.92" r="0.93" transform="translate(-334.81 472.28) rotate(-58.04)"/><circle class="cls-2" cx="240.6" cy="572.45" r="0.93" transform="translate(-372.42 473.53) rotate(-58.04)"/><circle class="cls-2" cx="248.32" cy="574.91" r="0.93" transform="translate(-370.88 481.27) rotate(-58.04)"/><circle class="cls-2" cx="277.09" cy="555.58" r="0.93" transform="matrix(0.53, -0.85, 0.85, 0.53, -340.94, 496.54)"/><circle class="cls-2" cx="217.54" cy="565.12" r="0.93" transform="matrix(0.53, -0.85, 0.85, 0.53, -377.07, 450.55)"/><circle class="cls-2" cx="180.58" cy="571.04" r="0.93" transform="translate(-399.48 421.94) rotate(-58.04)"/><circle class="cls-2" cx="143.15" cy="595.11" r="0.93" transform="translate(-437.52 401.52) rotate(-58.04)"/><circle class="cls-2" cx="117.3" cy="592.71" r="0.93" transform="translate(-447.65 378.47) rotate(-58.04)"/><circle class="cls-2" cx="77.57" cy="605.54" r="0.93" transform="translate(-477.22 350.79) rotate(-58.04)"/><circle class="cls-2" cx="134.75" cy="567.66" r="0.93" transform="translate(-418.19 381.5) rotate(-58.04)"/><circle class="cls-2" cx="158.84" cy="563.35" r="0.93" transform="translate(-403.19 399.88) rotate(-58.04)"/><circle class="cls-2" cx="592.62" cy="395.11" r="0.93" transform="translate(-56.31 688.71) rotate(-58.04)"/><circle class="cls-2" cx="581.28" cy="324.84" r="0.93" transform="translate(-2.02 646.03) rotate(-58.04)"/><circle class="cls-2" cx="544.38" cy="323.48" r="0.93" transform="translate(-18.22 614.11) rotate(-58.04)"/><circle class="cls-2" cx="507.91" cy="343.79" r="0.93" transform="matrix(0.53, -0.85, 0.85, 0.53, -52.62, 592.73)"/><circle class="cls-2" cx="477.79" cy="339.48" r="0.93" transform="translate(-63.15 565.11) rotate(-58.04)"/><circle class="cls-2" cx="68.08" cy="437.7" r="0.93" transform="translate(-339.31 263.77) rotate(-58.04)"/><circle class="cls-2" cx="46.29" cy="428.6" r="0.93" transform="translate(-341.84 241) rotate(-58.04)"/><circle class="cls-2" cx="26.96" cy="415.1" r="0.93" transform="translate(-339.47 218.23) rotate(-58.04)"/><circle class="cls-2" cx="10.05" cy="428.16" r="0.93" transform="translate(-358.51 210.03) rotate(-58.04)"/><circle class="cls-2" cx="6.95" cy="533.79" r="0.93" transform="translate(-449.6 257.14) rotate(-58.04)"/><circle class="cls-2" cx="8.71" cy="569.54" r="0.93" transform="translate(-479.08 275.42) rotate(-58.04)"/><circle class="cls-2" cx="9.31" cy="577.22" r="0.93" transform="matrix(0.53, -0.85, 0.85, 0.53, -485.34, 279.57)"/></g></g><path class="cls-14" d="M163.12,242.19,113.63,348.87s-8.44,56.07,54.92,51.28S197.63,350,197.63,350l-19-4.44,17-40.54s10.16,9.1,21.89,7.22,36.92-20.6,70.32-103.32L269.93,145,147.65,212.65Z"/><path class="cls-13" d="M131.1,160.51S118.27,218.77,144,251.13v35.8l18.32-44.67s-9-23.39-3.32-29.75c0,0,58.76,7.09,110.94-55l16.74,53.26-8,19.65s34.36-18,40.4-55.66-7-52.64-48.74-59.92c0,0-29.46-42.18-87.86-11.8,0,0-37.63-71.39-84.29-14.47S131.1,160.51,131.1,160.51Z"/><g class="cls-19"><path class="cls-13" d="M183.8,332.09c2.29.51,4.87,2.58,7,3.7s4.22,2.22,6.31,3.37l18.83,10.45,14.91,8.28,46.85,20s-80.93,42.07-126.06,38.69S9.72,374.28,9.72,374.28l17.5-20L128,318c-.48.24,2,6.78,2.2,7.22a42.27,42.27,0,0,0,9.07,14.19,33.88,33.88,0,0,0,15.47,8.85,31.56,31.56,0,0,0,13.49.29c5.89-1,10.34-2.17,12.45-8.3A64.12,64.12,0,0,1,183.8,332.09Z"/></g><path class="cls-16" d="M217.15,292.67q14.27,6.65,22.51-5.53l-32.75-15.27Q202.89,286,217.15,292.67Z"/></svg>