<svg xmlns="http://www.w3.org/2000/svg" xmlns:xlink="http://www.w3.org/1999/xlink" viewBox="0 0 712 555"><defs><style>.cls-1{fill:none;}.cls-2{fill:url(#New_Gradient_Swatch_3);}.cls-3{opacity:0.6;}.cls-4{fill:#fff;}.cls-5{isolation:isolate;}.cls-6{clip-path:url(#clip-path);}.cls-7{fill:#c62a6a;}.cls-8{fill:url(#New_Pattern);}.cls-9{fill:#ed2755;}.cls-10{fill:url(#New_Gradient_Swatch_3-2);}.cls-11{fill:#d1f4ff;}.cls-12{opacity:0.1;}.cls-13{fill:#a6cddd;}.cls-14{fill:#e7e7e7;}.cls-15{fill:#123456;}.cls-16{fill:#045379;}.cls-17{fill:#dcdcdc;}.cls-18{fill:#dadada;}.cls-19,.cls-20,.cls-21{fill:#f9dac9;}.cls-19{opacity:0.9;mix-blend-mode:multiply;}.cls-20{mix-blend-mode:soft-light;}.cls-22{fill:#fce8de;}.cls-23{fill:#f7bd9f;}.cls-24{opacity:0.5;}</style><linearGradient id="New_Gradient_Swatch_3" x1="-15301.62" y1="-28708.28" x2="-14488.39" y2="-28708.28" gradientTransform="matrix(1, 0, 0, -1, 15301.62, -28448.6)" gradientUnits="userSpaceOnUse"><stop offset="0" stop-color="#ed2755"/><stop offset="0.17" stop-color="#ee3150"/><stop offset="0.46" stop-color="#f04b41"/><stop offset="0.83" stop-color="#f3752a"/><stop offset="1" stop-color="#f58b1e"/></linearGradient><clipPath id="clip-path"><rect class="cls-1" x="-388.6" y="-0.89" width="1199.8" height="559.91"/></clipPath><pattern id="New_Pattern" data-name="New Pattern" width="813.24" height="519.36" patternTransform="translate(1771.3 -141.46) rotate(-5.17)" patternUnits="userSpaceOnUse" viewBox="0 0 813.24 519.36"><rect class="cls-1" width="813.24" height="519.36"/><rect class="cls-2" width="813.24" height="519.36"/><g class="cls-3"><path class="cls-4" d="M66.85,164.67a1.94,1.94,0,0,1-1.65.2c-.56-.18-.73-.57-.38-.86a1.94,1.94,0,0,1,1.65-.2C67,164,67.2,164.38,66.85,164.67Z"/><path class="cls-4" d="M97.61,172.83A1.94,1.94,0,0,1,96,173c-.56-.18-.73-.57-.38-.86a1.94,1.94,0,0,1,1.65-.2C97.78,172.15,98,172.54,97.61,172.83Z"/><path class="cls-4" d="M127,182.15a1.94,1.94,0,0,1-1.65.2c-.56-.18-.73-.57-.38-.86a1.94,1.94,0,0,1,1.65-.2C127.19,181.47,127.36,181.86,127,182.15Z"/><path class="cls-4" d="M151.23,176.13a1.94,1.94,0,0,1-1.65.2c-.56-.18-.73-.57-.38-.86a1.94,1.94,0,0,1,1.65-.2C151.4,175.45,151.58,175.84,151.23,176.13Z"/><path class="cls-4" d="M184,173.48a1.94,1.94,0,0,1-1.65.2c-.56-.18-.73-.57-.38-.86a1.94,1.94,0,0,1,1.65-.2C184.14,172.8,184.31,173.19,184,173.48Z"/><path class="cls-4" d="M208.63,181.36a1.94,1.94,0,0,1-1.65.2c-.56-.18-.73-.57-.38-.86a1.94,1.94,0,0,1,1.65-.2C208.81,180.68,209,181.07,208.63,181.36Z"/><path class="cls-4" d="M216.36,195.09a1.94,1.94,0,0,1-1.65.2c-.56-.18-.73-.57-.38-.86a1.94,1.94,0,0,1,1.65-.2C216.54,194.41,216.71,194.79,216.36,195.09Z"/><path class="cls-4" d="M202.1,197.28a1.94,1.94,0,0,1-1.65.2c-.56-.18-.73-.57-.38-.86a1.94,1.94,0,0,1,1.65-.2C202.28,196.61,202.45,197,202.1,197.28Z"/><path class="cls-4" d="M157.08,181.79a1.94,1.94,0,0,1-1.65.2c-.56-.18-.73-.57-.38-.86a1.94,1.94,0,0,1,1.65-.2C157.26,181.11,157.43,181.5,157.08,181.79Z"/><path class="cls-4" d="M111.48,194.41a1.94,1.94,0,0,1-1.65.2c-.56-.18-.73-.57-.38-.86a1.94,1.94,0,0,1,1.65-.2C111.66,193.73,111.83,194.11,111.48,194.41Z"/><path class="cls-4" d="M65.59,186.87a1.94,1.94,0,0,1-1.65.2c-.56-.18-.73-.57-.38-.86a1.94,1.94,0,0,1,1.65-.2C65.77,186.19,65.94,186.58,65.59,186.87Z"/><path class="cls-4" d="M38.11,191.17a1.94,1.94,0,0,1-1.65.2c-.56-.18-.73-.57-.38-.86a1.94,1.94,0,0,1,1.65-.2C38.29,190.49,38.46,190.88,38.11,191.17Z"/><path class="cls-4" d="M32.19,211.92a1.94,1.94,0,0,1-1.65.2c-.56-.18-.73-.57-.38-.86a1.94,1.94,0,0,1,1.65-.2C32.37,211.24,32.54,211.62,32.19,211.92Z"/><path class="cls-4" d="M32,235.67a1.94,1.94,0,0,1-1.65.2c-.56-.18-.73-.57-.38-.86a1.94,1.94,0,0,1,1.65-.2C32.18,235,32.35,235.37,32,235.67Z"/><path class="cls-4" d="M21.4,257.73a1.94,1.94,0,0,1-1.65.2c-.56-.18-.73-.57-.38-.86a1.94,1.94,0,0,1,1.65-.2C21.58,257.05,21.75,257.44,21.4,257.73Z"/><path class="cls-4" d="M33.88,274.1a1.94,1.94,0,0,1-1.65.2c-.56-.18-.73-.57-.38-.86a1.94,1.94,0,0,1,1.65-.2C34.06,273.42,34.23,273.81,33.88,274.1Z"/><path class="cls-4" d="M46.81,270.21a1.94,1.94,0,0,1-1.65.2c-.56-.18-.73-.57-.38-.86a1.94,1.94,0,0,1,1.65-.2C47,269.53,47.16,269.91,46.81,270.21Z"/><path class="cls-4" d="M41.57,235.69a1.94,1.94,0,0,1-1.65.2c-.56-.18-.73-.57-.38-.86a1.94,1.94,0,0,1,1.65-.2C41.75,235,41.92,235.4,41.57,235.69Z"/><path class="cls-4" d="M53.48,209.58a1.94,1.94,0,0,1-1.65.2c-.56-.18-.73-.57-.38-.86a1.94,1.94,0,0,1,1.65-.2C53.66,208.9,53.83,209.28,53.48,209.58Z"/><path class="cls-4" d="M91.56,219.21a1.94,1.94,0,0,1-1.65.2c-.56-.18-.73-.57-.38-.86a1.94,1.94,0,0,1,1.65-.2C91.74,218.54,91.91,218.92,91.56,219.21Z"/><path class="cls-4" d="M122.21,218a1.94,1.94,0,0,1-1.65.2c-.56-.18-.73-.57-.38-.86a1.94,1.94,0,0,1,1.65-.2C122.39,217.29,122.56,217.67,122.21,218Z"/><path class="cls-4" d="M160.49,207.26a1.94,1.94,0,0,1-1.65.2c-.56-.18-.73-.57-.38-.86a1.94,1.94,0,0,1,1.65-.2C160.67,206.58,160.84,207,160.49,207.26Z"/><path class="cls-4" d="M193.7,223.75a1.94,1.94,0,0,1-1.65.2c-.56-.18-.73-.57-.38-.86a1.94,1.94,0,0,1,1.65-.2C193.88,223.07,194.05,223.46,193.7,223.75Z"/><path class="cls-4" d="M223,213.49a1.94,1.94,0,0,1-1.65.2c-.56-.18-.73-.57-.38-.86a1.94,1.94,0,0,1,1.65-.2C223.22,212.82,223.39,213.2,223,213.49Z"/><path class="cls-4" d="M204,202.89a1.94,1.94,0,0,1-1.65.2c-.56-.18-.73-.57-.38-.86a1.94,1.94,0,0,1,1.65-.2C204.23,202.21,204.4,202.59,204,202.89Z"/><path class="cls-4" d="M161.85,194.08a1.94,1.94,0,0,1-1.65.2c-.56-.18-.73-.57-.38-.86a1.94,1.94,0,0,1,1.65-.2C162,193.41,162.2,193.79,161.85,194.08Z"/><path class="cls-4" d="M125.88,201.12a1.94,1.94,0,0,1-1.65.2c-.56-.18-.73-.57-.38-.86a1.94,1.94,0,0,1,1.65-.2C126.06,200.44,126.23,200.83,125.88,201.12Z"/><path class="cls-4" d="M96,198.65a1.94,1.94,0,0,1-1.65.2c-.56-.18-.73-.57-.38-.86a1.94,1.94,0,0,1,1.65-.2C96.2,198,96.37,198.35,96,198.65Z"/><path class="cls-4" d="M82.13,223.54a1.94,1.94,0,0,1-1.65.2c-.56-.18-.73-.57-.38-.86a1.94,1.94,0,0,1,1.65-.2C82.31,222.86,82.48,223.25,82.13,223.54Z"/><path class="cls-4" d="M86.27,233.32a1.94,1.94,0,0,1-1.65.2c-.56-.18-.73-.57-.38-.86a1.94,1.94,0,0,1,1.65-.2C86.45,232.65,86.62,233,86.27,233.32Z"/><path class="cls-4" d="M62.12,244.2a1.94,1.94,0,0,1-1.65.2c-.56-.18-.73-.57-.38-.86a1.94,1.94,0,0,1,1.65-.2C62.3,243.52,62.47,243.9,62.12,244.2Z"/><path class="cls-4" d="M61.72,257.76a1.94,1.94,0,0,1-1.65.2c-.56-.18-.73-.57-.38-.86a1.94,1.94,0,0,1,1.65-.2C61.9,257.09,62.07,257.47,61.72,257.76Z"/><path class="cls-4" d="M69.91,252.12a1.94,1.94,0,0,1-1.65.2c-.56-.18-.73-.57-.38-.86a1.94,1.94,0,0,1,1.65-.2C70.09,251.44,70.26,251.82,69.91,252.12Z"/><path class="cls-4" d="M126.94,240.84a1.94,1.94,0,0,1-1.65.2c-.56-.18-.73-.57-.38-.86a1.94,1.94,0,0,1,1.65-.2C127.12,240.16,127.29,240.54,126.94,240.84Z"/><path class="cls-4" d="M158.67,229.35a1.94,1.94,0,0,1-1.65.2c-.56-.18-.73-.57-.38-.86a1.94,1.94,0,0,1,1.65-.2C158.85,228.67,159,229.06,158.67,229.35Z"/><path class="cls-4" d="M198,219.14a1.94,1.94,0,0,1-1.65.2c-.56-.18-.73-.57-.38-.86a1.94,1.94,0,0,1,1.65-.2C198.18,218.47,198.35,218.85,198,219.14Z"/><path class="cls-4" d="M98.86,184.56a1.94,1.94,0,0,1-1.65.2c-.56-.18-.73-.57-.38-.86a1.94,1.94,0,0,1,1.65-.2C99,183.88,99.21,184.27,98.86,184.56Z"/><path class="cls-4" d="M94.54,157.06a1.94,1.94,0,0,1-1.65.2c-.56-.18-.73-.57-.38-.86a1.94,1.94,0,0,1,1.65-.2C94.72,156.38,94.89,156.77,94.54,157.06Z"/><path class="cls-4" d="M74.53,147a1.94,1.94,0,0,1-1.65.2c-.56-.18-.73-.57-.38-.86a1.94,1.94,0,0,1,1.65-.2C74.71,146.29,74.88,146.67,74.53,147Z"/><path class="cls-4" d="M58.49,136.3a1.94,1.94,0,0,1-1.65.2c-.56-.18-.73-.57-.38-.86a1.94,1.94,0,0,1,1.65-.2C58.67,135.62,58.84,136,58.49,136.3Z"/><path class="cls-4" d="M39.24,122a1.94,1.94,0,0,1-1.65.2c-.56-.18-.73-.57-.38-.86a1.94,1.94,0,0,1,1.65-.2C39.42,121.34,39.59,121.72,39.24,122Z"/><path class="cls-4" d="M28.2,115.49a1.94,1.94,0,0,1-1.65.2c-.56-.18-.73-.57-.38-.86a1.94,1.94,0,0,1,1.65-.2C28.38,114.81,28.55,115.2,28.2,115.49Z"/><path class="cls-4" d="M17.92,110a1.94,1.94,0,0,1-1.65.2c-.56-.18-.73-.57-.38-.86a1.94,1.94,0,0,1,1.65-.2C18.1,109.28,18.27,109.67,17.92,110Z"/><path class="cls-4" d="M6.71,102.54a1.94,1.94,0,0,1-1.65.2c-.56-.18-.73-.57-.38-.86a1.94,1.94,0,0,1,1.65-.2C6.89,101.86,7.06,102.24,6.71,102.54Z"/><path class="cls-4" d="M8.2,97.49a1.94,1.94,0,0,1-1.65.2c-.56-.18-.73-.57-.38-.86a1.94,1.94,0,0,1,1.65-.2C8.38,96.81,8.55,97.2,8.2,97.49Z"/><path class="cls-4" d="M63.22,95a1.94,1.94,0,0,1-1.65.2c-.56-.18-.73-.57-.38-.86a1.94,1.94,0,0,1,1.65-.2C63.4,94.3,63.57,94.69,63.22,95Z"/><path class="cls-4" d="M93.46,99a1.94,1.94,0,0,1-1.65.2c-.56-.18-.73-.57-.38-.86a1.94,1.94,0,0,1,1.65-.2C93.64,98.28,93.81,98.67,93.46,99Z"/><path class="cls-4" d="M123.21,94.82a1.94,1.94,0,0,1-1.65.2c-.56-.18-.73-.57-.38-.86a1.94,1.94,0,0,1,1.65-.2C123.39,94.14,123.56,94.53,123.21,94.82Z"/><path class="cls-4" d="M138.53,102.32a1.94,1.94,0,0,1-1.65.2c-.56-.18-.73-.57-.38-.86a1.94,1.94,0,0,1,1.65-.2C138.71,101.65,138.88,102,138.53,102.32Z"/><path class="cls-4" d="M118.16,107.89a1.94,1.94,0,0,1-1.65.2c-.56-.18-.73-.57-.38-.86a1.94,1.94,0,0,1,1.65-.2C118.34,107.21,118.51,107.6,118.16,107.89Z"/><path class="cls-4" d="M72,107a1.94,1.94,0,0,1-1.65.2c-.56-.18-.73-.57-.38-.86a1.94,1.94,0,0,1,1.65-.2C72.21,106.28,72.38,106.67,72,107Z"/><path class="cls-4" d="M34.36,127.67a1.94,1.94,0,0,1-1.65.2c-.56-.18-.73-.57-.38-.86a1.94,1.94,0,0,1,1.65-.2C34.54,127,34.71,127.38,34.36,127.67Z"/><path class="cls-4" d="M18,141.2a1.94,1.94,0,0,1-1.65.2c-.56-.18-.73-.57-.38-.86a1.94,1.94,0,0,1,1.65-.2C18.23,140.52,18.4,140.9,18,141.2Z"/><path class="cls-4" d="M10.22,167.09a1.94,1.94,0,0,1-1.65.2c-.56-.18-.73-.57-.38-.86a1.94,1.94,0,0,1,1.65-.2C10.4,166.41,10.57,166.8,10.22,167.09Z"/><path class="cls-4" d="M2.21,181.06a1.94,1.94,0,0,1-1.65.2c-.56-.18-.73-.57-.38-.86a1.94,1.94,0,0,1,1.65-.2C2.39,180.38,2.57,180.77,2.21,181.06Z"/><path class="cls-4" d="M29.63,165.18a1.94,1.94,0,0,1-1.65.2c-.56-.18-.73-.57-.38-.86a1.94,1.94,0,0,1,1.65-.2C29.81,164.5,30,164.89,29.63,165.18Z"/><path class="cls-4" d="M99.27,148.7a1.94,1.94,0,0,1-1.65.2c-.56-.18-.73-.57-.38-.86a1.94,1.94,0,0,1,1.65-.2C99.45,148,99.62,148.41,99.27,148.7Z"/><path class="cls-4" d="M149.95,155.61a1.94,1.94,0,0,1-1.65.2c-.56-.18-.73-.57-.38-.86a1.94,1.94,0,0,1,1.65-.2C150.13,154.93,150.3,155.32,149.95,155.61Z"/><path class="cls-4" d="M199.41,153.79a1.94,1.94,0,0,1-1.65.2c-.56-.18-.73-.57-.38-.86a1.94,1.94,0,0,1,1.65-.2C199.59,153.11,199.76,153.49,199.41,153.79Z"/><path class="cls-4" d="M199.05,141.76a1.94,1.94,0,0,1-1.65.2c-.56-.18-.73-.57-.38-.86a1.94,1.94,0,0,1,1.65-.2C199.23,141.08,199.4,141.47,199.05,141.76Z"/><path class="cls-4" d="M174.79,118.67a1.94,1.94,0,0,1-1.65.2c-.56-.18-.73-.57-.38-.86a1.94,1.94,0,0,1,1.65-.2C175,118,175.14,118.38,174.79,118.67Z"/><path class="cls-4" d="M151.86,118.89a1.94,1.94,0,0,1-1.65.2c-.56-.18-.73-.57-.38-.86a1.94,1.94,0,0,1,1.65-.2C152,118.21,152.21,118.59,151.86,118.89Z"/><path class="cls-4" d="M167.35,101.59a1.94,1.94,0,0,1-1.65.2c-.56-.18-.73-.57-.38-.86a1.94,1.94,0,0,1,1.65-.2C167.53,100.92,167.7,101.3,167.35,101.59Z"/></g><g class="cls-3"><path class="cls-4" d="M449.25,99.23c.44.26.39.65-.1.88a2,2,0,0,1-1.69-.05c-.44-.26-.39-.65.1-.88A2,2,0,0,1,449.25,99.23Z"/><path class="cls-4" d="M440.37,112.78c.44.26.39.65-.1.88a2,2,0,0,1-1.69-.05c-.44-.26-.39-.65.1-.88A2,2,0,0,1,440.37,112.78Z"/><path class="cls-4" d="M432.78,128.6c.44.26.39.65-.1.88a2,2,0,0,1-1.69-.05c-.44-.26-.39-.65.1-.88A2,2,0,0,1,432.78,128.6Z"/><path class="cls-4" d="M413.44,136.14c.44.26.39.65-.1.88a2,2,0,0,1-1.69-.05c-.44-.26-.39-.65.1-.88A2,2,0,0,1,413.44,136.14Z"/><path class="cls-4" d="M421.67,147.94c.44.26.39.65-.1.88a2,2,0,0,1-1.69-.05c-.44-.26-.39-.65.1-.88A2,2,0,0,1,421.67,147.94Z"/><path class="cls-4" d="M447.9,154.37c.44.26.39.65-.1.88a2,2,0,0,1-1.69-.05c-.44-.26-.39-.65.1-.88A2,2,0,0,1,447.9,154.37Z"/><path class="cls-4" d="M456.49,147.92c.44.26.39.65-.1.88a2,2,0,0,1-1.69-.05c-.44-.26-.39-.65.1-.88A2,2,0,0,1,456.49,147.92Z"/><path class="cls-4" d="M456.1,120.35c.44.26.39.65-.1.88a2,2,0,0,1-1.69-.05c-.44-.26-.39-.65.1-.88A2,2,0,0,1,456.1,120.35Z"/><path class="cls-4" d="M501,117.89c.44.26.39.65-.1.88a2,2,0,0,1-1.69-.05c-.44-.26-.39-.65.1-.88A2,2,0,0,1,501,117.89Z"/><path class="cls-4" d="M531.26,133.34c.44.26.39.65-.1.88a2,2,0,0,1-1.69-.05c-.44-.26-.39-.65.1-.88A2,2,0,0,1,531.26,133.34Z"/><path class="cls-4" d="M512.72,161.77c.44.26.39.65-.1.88a2,2,0,0,1-1.69-.05c-.44-.26-.39-.65.1-.88A2,2,0,0,1,512.72,161.77Z"/><path class="cls-4" d="M499,181.4c.44.26.39.65-.1.88a2,2,0,0,1-1.69-.05c-.44-.26-.39-.65.1-.88A2,2,0,0,1,499,181.4Z"/><path class="cls-4" d="M509,208.19c.44.26.39.65-.1.88a2,2,0,0,1-1.69-.05c-.44-.26-.39-.65.1-.88A2,2,0,0,1,509,208.19Z"/><path class="cls-4" d="M529.06,219.86c.44.26.39.65-.1.88a2,2,0,0,1-1.69-.05c-.44-.26-.39-.65.1-.88A2,2,0,0,1,529.06,219.86Z"/><path class="cls-4" d="M548.74,223.11c.44.26.39.65-.1.88a2,2,0,0,1-1.69-.05c-.44-.26-.39-.65.1-.88A2,2,0,0,1,548.74,223.11Z"/><path class="cls-4" d="M556.15,207c.44.26.39.65-.1.88a2,2,0,0,1-1.69-.05c-.44-.26-.39-.65.1-.88A2,2,0,0,1,556.15,207Z"/><path class="cls-4" d="M550.77,175.51c.44.26.39.65-.1.88a2,2,0,0,1-1.69-.05c-.44-.26-.39-.65.1-.88A2,2,0,0,1,550.77,175.51Z"/><path class="cls-4" d="M558.18,157.86c.44.26.39.65-.1.88a2,2,0,0,1-1.69-.05c-.44-.26-.39-.65.1-.88A2,2,0,0,1,558.18,157.86Z"/><path class="cls-4" d="M561.89,141.88c.44.26.39.65-.1.88a2,2,0,0,1-1.69-.05c-.44-.26-.39-.65.1-.88A2,2,0,0,1,561.89,141.88Z"/><path class="cls-4" d="M599.66,143.29c.44.26.39.65-.1.88a2,2,0,0,1-1.69-.05c-.44-.26-.39-.65.1-.88A2,2,0,0,1,599.66,143.29Z"/><path class="cls-4" d="M631.67,205.18a1.94,1.94,0,0,1-1.65.2c-.56-.18-.73-.57-.38-.86a1.94,1.94,0,0,1,1.65-.2C631.85,204.5,632,204.89,631.67,205.18Z"/><path class="cls-4" d="M609,146.82c.44.26.39.65-.1.88a2,2,0,0,1-1.69-.05c-.44-.26-.39-.65.1-.88A2,2,0,0,1,609,146.82Z"/><path class="cls-4" d="M569.65,133.35c.44.26.39.65-.1.88a2,2,0,0,1-1.69-.05c-.44-.26-.39-.65.1-.88A2,2,0,0,1,569.65,133.35Z"/><path class="cls-4" d="M536.72,106.44c.44.26.39.65-.1.88a2,2,0,0,1-1.69-.05c-.44-.26-.39-.65.1-.88A2,2,0,0,1,536.72,106.44Z"/><path class="cls-4" d="M533.11,90.15c.44.26.39.65-.1.88a2,2,0,0,1-1.69-.05c-.44-.26-.39-.65.1-.88A2,2,0,0,1,533.11,90.15Z"/><path class="cls-4" d="M510.39,77.63c.44.26.39.65-.1.88a2,2,0,0,1-1.69-.05c-.44-.26-.39-.65.1-.88A2,2,0,0,1,510.39,77.63Z"/><path class="cls-4" d="M502.83,64.48c.44.26.39.65-.1.88a2,2,0,0,1-1.69-.05c-.44-.26-.39-.65.1-.88A2,2,0,0,1,502.83,64.48Z"/><path class="cls-4" d="M515.93,50.63c.44.26.39.65-.1.88a2,2,0,0,1-1.69-.05c-.44-.26-.39-.65.1-.88A2,2,0,0,1,515.93,50.63Z"/><path class="cls-4" d="M504.82,44.51c.44.26.39.65-.1.88a2,2,0,0,1-1.69-.05c-.44-.26-.39-.65.1-.88A2,2,0,0,1,504.82,44.51Z"/><path class="cls-4" d="M471.18,55.46c.44.26.39.65-.1.88a2,2,0,0,1-1.69-.05c-.44-.26-.39-.65.1-.88A2,2,0,0,1,471.18,55.46Z"/><path class="cls-4" d="M473.08,79.13c.44.26.39.65-.1.88a2,2,0,0,1-1.69-.05c-.44-.26-.39-.65.1-.88A2,2,0,0,1,473.08,79.13Z"/><path class="cls-4" d="M483.49,100.55c.44.26.39.65-.1.88a2,2,0,0,1-1.69-.05c-.44-.26-.39-.65.1-.88A2,2,0,0,1,483.49,100.55Z"/><path class="cls-4" d="M474.49,125.16c.44.26.39.65-.1.88a2,2,0,0,1-1.69-.05c-.44-.26-.39-.65.1-.88A2,2,0,0,1,474.49,125.16Z"/><path class="cls-4" d="M477.53,144.14c.44.26.39.65-.1.88a2,2,0,0,1-1.69-.05c-.44-.26-.39-.65.1-.88A2,2,0,0,1,477.53,144.14Z"/><path class="cls-4" d="M524.2,187.19c.44.26.39.65-.1.88a2,2,0,0,1-1.69-.05c-.44-.26-.39-.65.1-.88A2,2,0,0,1,524.2,187.19Z"/><path class="cls-4" d="M467.87,166.08c.44.26.39.65-.1.88a2,2,0,0,1-1.69-.05c-.44-.26-.39-.65.1-.88A2,2,0,0,1,467.87,166.08Z"/><path class="cls-4" d="M426.23,179.81c.44.26.39.65-.1.88a2,2,0,0,1-1.69-.05c-.44-.26-.39-.65.1-.88A2,2,0,0,1,426.23,179.81Z"/><path class="cls-4" d="M424.45,205.29c.44.26.39.65-.1.88a2,2,0,0,1-1.69-.05c-.44-.26-.39-.65.1-.88A2,2,0,0,1,424.45,205.29Z"/><path class="cls-4" d="M407.61,224.07c.44.26.39.65-.1.88a2,2,0,0,1-1.69-.05c-.44-.26-.39-.65.1-.88A2,2,0,0,1,407.61,224.07Z"/><path class="cls-4" d="M376.57,239.91c.44.26.39.65-.1.88a2,2,0,0,1-1.69-.05c-.44-.26-.39-.65.1-.88A2,2,0,0,1,376.57,239.91Z"/><path class="cls-4" d="M371.58,256.59c.44.26.39.65-.1.88a2,2,0,0,1-1.69-.05c-.44-.26-.39-.65.1-.88A2,2,0,0,1,371.58,256.59Z"/><path class="cls-4" d="M389.54,273.8c.44.26.39.65-.1.88a2,2,0,0,1-1.69-.05c-.44-.26-.39-.65.1-.88A2,2,0,0,1,389.54,273.8Z"/><path class="cls-4" d="M394.4,233.8c.44.26.39.65-.1.88a2,2,0,0,1-1.69-.05c-.44-.26-.39-.65.1-.88A2,2,0,0,1,394.4,233.8Z"/><path class="cls-4" d="M444.26,202.38c.44.26.39.65-.1.88a2,2,0,0,1-1.69-.05c-.44-.26-.39-.65.1-.88A2,2,0,0,1,444.26,202.38Z"/><path class="cls-4" d="M472.68,184.91c.44.26.39.65-.1.88a2,2,0,0,1-1.69-.05c-.44-.26-.39-.65.1-.88A2,2,0,0,1,472.68,184.91Z"/><path class="cls-4" d="M416.67,151.8c.44.26.39.65-.1.88a2,2,0,0,1-1.69-.05c-.44-.26-.39-.65.1-.88A2,2,0,0,1,416.67,151.8Z"/><path class="cls-4" d="M386.63,184.05c.44.26.39.65-.1.88a2,2,0,0,1-1.69-.05c-.44-.26-.39-.65.1-.88A2,2,0,0,1,386.63,184.05Z"/><path class="cls-4" d="M374.82,217.17c.44.26.39.65-.1.88A2,2,0,0,1,373,218c-.44-.26-.39-.65.1-.88A2,2,0,0,1,374.82,217.17Z"/><path class="cls-4" d="M396.77,253.77c.44.26.39.65-.1.88a2,2,0,0,1-1.69-.05c-.44-.26-.39-.65.1-.88A2,2,0,0,1,396.77,253.77Z"/><path class="cls-4" d="M457.36,246.87c.44.26.39.65-.1.88a2,2,0,0,1-1.69-.05c-.44-.26-.39-.65.1-.88A2,2,0,0,1,457.36,246.87Z"/><path class="cls-4" d="M498,217.53c.44.26.39.65-.1.88a2,2,0,0,1-1.69-.05c-.44-.26-.39-.65.1-.88A2,2,0,0,1,498,217.53Z"/><path class="cls-4" d="M459.5,163.74c.44.26.39.65-.1.88a2,2,0,0,1-1.69-.05c-.44-.26-.39-.65.1-.88A2,2,0,0,1,459.5,163.74Z"/><path class="cls-4" d="M531.53,152.8c.44.26.39.65-.1.88a2,2,0,0,1-1.69-.05c-.44-.26-.39-.65.1-.88A2,2,0,0,1,531.53,152.8Z"/><path class="cls-4" d="M534.51,128.41c.44.26.39.65-.1.88a2,2,0,0,1-1.69-.05c-.44-.26-.39-.65.1-.88A2,2,0,0,1,534.51,128.41Z"/><path class="cls-4" d="M518.32,205.31c.44.26.39.65-.1.88a2,2,0,0,1-1.69-.05c-.44-.26-.39-.65.1-.88A2,2,0,0,1,518.32,205.31Z"/><path class="cls-4" d="M455.87,266.46c.44.26.39.65-.1.88a2,2,0,0,1-1.69-.05c-.44-.26-.39-.65.1-.88A2,2,0,0,1,455.87,266.46Z"/><path class="cls-4" d="M441,278.7c.44.26.39.65-.1.88a2,2,0,0,1-1.69-.05c-.44-.26-.39-.65.1-.88A2,2,0,0,1,441,278.7Z"/><path class="cls-4" d="M496,318.86c.44.26.39.65-.1.88a2,2,0,0,1-1.69-.05c-.44-.26-.39-.65.1-.88A2,2,0,0,1,496,318.86Z"/><path class="cls-4" d="M454.55,307.15c.44.26.39.65-.1.88a2,2,0,0,1-1.69-.05c-.44-.26-.39-.65.1-.88A2,2,0,0,1,454.55,307.15Z"/><path class="cls-4" d="M226.37,210.72a1.94,1.94,0,0,1-1.65.2c-.56-.18-.73-.57-.38-.86a1.94,1.94,0,0,1,1.65-.2C226.55,210,226.72,210.43,226.37,210.72Z"/><path class="cls-4" d="M422.9,341.16c.44.26.39.65-.1.88a2,2,0,0,1-1.69-.05c-.44-.26-.39-.65.1-.88A2,2,0,0,1,422.9,341.16Z"/><path class="cls-4" d="M457.22,348.4c.44.26.39.65-.1.88a2,2,0,0,1-1.69-.05c-.44-.26-.39-.65.1-.88A2,2,0,0,1,457.22,348.4Z"/><path class="cls-4" d="M397.29,322.28c.44.26.39.65-.1.88a2,2,0,0,1-1.69-.05c-.44-.26-.39-.65.1-.88A2,2,0,0,1,397.29,322.28Z"/><path class="cls-4" d="M496.38,326c.44.26.39.65-.1.88a2,2,0,0,1-1.69-.05c-.44-.26-.39-.65.1-.88A2,2,0,0,1,496.38,326Z"/><path class="cls-4" d="M429.49,250c.44.26.39.65-.1.88a2,2,0,0,1-1.69-.05c-.44-.26-.39-.65.1-.88A2,2,0,0,1,429.49,250Z"/><path class="cls-4" d="M396.09,213a1.94,1.94,0,0,1-1.65.2c-.56-.18-.73-.57-.38-.86a1.94,1.94,0,0,1,1.65-.2C396.26,212.32,396.44,212.71,396.09,213Z"/><path class="cls-4" d="M484.66,200.2c.44.26.39.65-.1.88a2,2,0,0,1-1.69-.05c-.44-.26-.39-.65.1-.88A2,2,0,0,1,484.66,200.2Z"/><path class="cls-4" d="M459.43,205.67a1.94,1.94,0,0,1-1.65.2c-.56-.18-.73-.57-.38-.86a1.94,1.94,0,0,1,1.65-.2C459.61,205,459.78,205.38,459.43,205.67Z"/><path class="cls-4" d="M547.54,205.92a1.94,1.94,0,0,1-1.65.2c-.56-.18-.73-.57-.38-.86a1.94,1.94,0,0,1,1.65-.2C547.72,205.24,547.89,205.62,547.54,205.92Z"/><path class="cls-4" d="M569,216.49a1.94,1.94,0,0,1-1.65.2c-.56-.18-.73-.57-.38-.86a1.94,1.94,0,0,1,1.65-.2C569.17,215.81,569.34,216.2,569,216.49Z"/><path class="cls-4" d="M615.42,211.46a1.94,1.94,0,0,1-1.65.2c-.56-.18-.73-.57-.38-.86a1.94,1.94,0,0,1,1.65-.2C615.59,210.78,615.77,211.16,615.42,211.46Z"/><path class="cls-4" d="M619.65,226.51a1.94,1.94,0,0,1-1.65.2c-.56-.18-.73-.57-.38-.86a1.94,1.94,0,0,1,1.65-.2C619.83,225.83,620,226.22,619.65,226.51Z"/><path class="cls-4" d="M556.75,215.89c.44.26.39.65-.1.88a2,2,0,0,1-1.69-.05c-.44-.26-.39-.65.1-.88A2,2,0,0,1,556.75,215.89Z"/><path class="cls-4" d="M487.23,281.69c.44.26.39.65-.1.88a2,2,0,0,1-1.69-.05c-.44-.26-.39-.65.1-.88A2,2,0,0,1,487.23,281.69Z"/><path class="cls-4" d="M445,254.82c.44.26.39.65-.1.88a2,2,0,0,1-1.69-.05c-.44-.26-.39-.65.1-.88A2,2,0,0,1,445,254.82Z"/><path class="cls-4" d="M534.86,271.8c.44.26.39.65-.1.88a2,2,0,0,1-1.69-.05c-.44-.26-.39-.65.1-.88A2,2,0,0,1,534.86,271.8Z"/><path class="cls-4" d="M313.47,216.63a1.94,1.94,0,0,1-1.65.2c-.56-.18-.73-.57-.38-.86a1.94,1.94,0,0,1,1.65-.2C313.65,215.95,313.82,216.33,313.47,216.63Z"/><path class="cls-4" d="M263.77,247.75a1.94,1.94,0,0,1-1.65.2c-.56-.18-.73-.57-.38-.86a1.94,1.94,0,0,1,1.65-.2C264,247.07,264.12,247.46,263.77,247.75Z"/><path class="cls-4" d="M334,237.62a1.94,1.94,0,0,1-1.65.2c-.56-.18-.73-.57-.38-.86a1.94,1.94,0,0,1,1.65-.2C334.22,236.94,334.39,237.32,334,237.62Z"/><path class="cls-4" d="M414.77,243.21a1.94,1.94,0,0,1-1.65.2c-.56-.18-.73-.57-.38-.86a1.94,1.94,0,0,1,1.65-.2C415,242.53,415.12,242.92,414.77,243.21Z"/><path class="cls-4" d="M528.18,231.32a1.94,1.94,0,0,1-1.65.2c-.56-.18-.73-.57-.38-.86a1.94,1.94,0,0,1,1.65-.2C528.36,230.65,528.53,231,528.18,231.32Z"/><path class="cls-4" d="M631,220.17a1.94,1.94,0,0,1-1.65.2c-.56-.18-.73-.57-.38-.86a1.94,1.94,0,0,1,1.65-.2C631.14,219.49,631.31,219.87,631,220.17Z"/><path class="cls-4" d="M666.05,237.78a1.94,1.94,0,0,1-1.65.2c-.56-.18-.73-.57-.38-.86a1.94,1.94,0,0,1,1.65-.2C666.23,237.1,666.4,237.48,666.05,237.78Z"/><path class="cls-4" d="M603.67,211.52a1.94,1.94,0,0,1-1.65.2c-.56-.18-.73-.57-.38-.86a1.94,1.94,0,0,1,1.65-.2C603.85,210.84,604,211.22,603.67,211.52Z"/><path class="cls-4" d="M454.8,226.9a1.94,1.94,0,0,1-1.65.2c-.56-.18-.73-.57-.38-.86a1.94,1.94,0,0,1,1.65-.2C455,226.22,455.15,226.61,454.8,226.9Z"/><path class="cls-4" d="M537.55,277.74c.44.26.39.65-.1.88a2,2,0,0,1-1.69-.05c-.44-.26-.39-.65.1-.88A2,2,0,0,1,537.55,277.74Z"/><path class="cls-4" d="M475.2,257.14c.44.26.39.65-.1.88a2,2,0,0,1-1.69-.05c-.44-.26-.39-.65.1-.88A2,2,0,0,1,475.2,257.14Z"/><path class="cls-4" d="M499,244.35c.44.26.39.65-.1.88a2,2,0,0,1-1.69-.05c-.44-.26-.39-.65.1-.88A2,2,0,0,1,499,244.35Z"/><path class="cls-4" d="M458.23,221.18c.44.26.39.65-.1.88a2,2,0,0,1-1.69-.05c-.44-.26-.39-.65.1-.88A2,2,0,0,1,458.23,221.18Z"/><path class="cls-4" d="M395.6,291.81c.44.26.39.65-.1.88a2,2,0,0,1-1.69-.05c-.44-.26-.39-.65.1-.88A2,2,0,0,1,395.6,291.81Z"/><path class="cls-4" d="M377.76,298c.44.26.39.65-.1.88a2,2,0,0,1-1.69-.05c-.44-.26-.39-.65.1-.88A2,2,0,0,1,377.76,298Z"/><path class="cls-4" d="M358.69,304.52c.44.26.39.65-.1.88a2,2,0,0,1-1.69-.05c-.44-.26-.39-.65.1-.88A2,2,0,0,1,358.69,304.52Z"/><path class="cls-4" d="M337.56,311c.44.26.39.65-.1.88a2,2,0,0,1-1.69-.05c-.44-.26-.39-.65.1-.88A2,2,0,0,1,337.56,311Z"/><path class="cls-4" d="M292.33,339.7c.44.26.39.65-.1.88a2,2,0,0,1-1.69-.05c-.44-.26-.39-.65.1-.88A2,2,0,0,1,292.33,339.7Z"/><path class="cls-4" d="M320.95,338.82c.44.26.39.65-.1.88a2,2,0,0,1-1.69-.05c-.44-.26-.39-.65.1-.88A2,2,0,0,1,320.95,338.82Z"/><path class="cls-4" d="M326.33,267.82c.44.26.39.65-.1.88a2,2,0,0,1-1.69-.05c-.44-.26-.39-.65.1-.88A2,2,0,0,1,326.33,267.82Z"/><path class="cls-4" d="M347.53,277.27c.44.26.39.65-.1.88a2,2,0,0,1-1.69-.05c-.44-.26-.39-.65.1-.88A2,2,0,0,1,347.53,277.27Z"/><path class="cls-4" d="M307.66,307.08c.44.26.39.65-.1.88a2,2,0,0,1-1.69-.05c-.44-.26-.39-.65.1-.88A2,2,0,0,1,307.66,307.08Z"/><path class="cls-4" d="M352.82,333.26c.44.26.39.65-.1.88a2,2,0,0,1-1.69-.05c-.44-.26-.39-.65.1-.88A2,2,0,0,1,352.82,333.26Z"/><path class="cls-4" d="M297.1,332.56c.44.26.39.65-.1.88a2,2,0,0,1-1.69-.05c-.44-.26-.39-.65.1-.88A2,2,0,0,1,297.1,332.56Z"/><path class="cls-4" d="M447.49,325.47c.44.26.39.65-.1.88a2,2,0,0,1-1.69-.05c-.44-.26-.39-.65.1-.88A2,2,0,0,1,447.49,325.47Z"/><path class="cls-4" d="M367,318.57c.44.26.39.65-.1.88a2,2,0,0,1-1.69-.05c-.44-.26-.39-.65.1-.88A2,2,0,0,1,367,318.57Z"/><path class="cls-4" d="M386.27,345.81c.44.26.39.65-.1.88a2,2,0,0,1-1.69-.05c-.44-.26-.39-.65.1-.88A2,2,0,0,1,386.27,345.81Z"/><path class="cls-4" d="M564.62,112.15c.44.26.39.65-.1.88a2,2,0,0,1-1.69-.05c-.44-.26-.39-.65.1-.88A2,2,0,0,1,564.62,112.15Z"/><path class="cls-4" d="M629.83,109.19c.44.26.39.65-.1.88A2,2,0,0,1,628,110c-.44-.26-.39-.65.1-.88A2,2,0,0,1,629.83,109.19Z"/><path class="cls-4" d="M745.85,222.41a1.94,1.94,0,0,1-1.65.2c-.56-.18-.73-.57-.38-.86a1.94,1.94,0,0,1,1.65-.2C746,221.73,746.2,222.12,745.85,222.41Z"/><path class="cls-4" d="M784.62,249.15a1.94,1.94,0,0,1-1.65.2c-.56-.18-.73-.57-.38-.86a1.94,1.94,0,0,1,1.65-.2C784.8,248.47,785,248.85,784.62,249.15Z"/><path class="cls-4" d="M806.77,266a1.94,1.94,0,0,1-1.65.2c-.56-.18-.73-.57-.38-.86a1.94,1.94,0,0,1,1.65-.2C807,265.35,807.12,265.73,806.77,266Z"/><path class="cls-4" d="M805.79,205.23a1.94,1.94,0,0,1-1.65.2c-.56-.18-.73-.57-.38-.86a1.94,1.94,0,0,1,1.65-.2C806,204.56,806.14,204.94,805.79,205.23Z"/><path class="cls-4" d="M598,50.51c.44.26.39.65-.1.88a2,2,0,0,1-1.69-.05c-.44-.26-.39-.65.1-.88A2,2,0,0,1,598,50.51Z"/><path class="cls-4" d="M565.41,42.49c.44.26.39.65-.1.88a2,2,0,0,1-1.69-.05c-.44-.26-.39-.65.1-.88A2,2,0,0,1,565.41,42.49Z"/><path class="cls-4" d="M534.6,40.49c.44.26.39.65-.1.88a2,2,0,0,1-1.69-.05c-.44-.26-.39-.65.1-.88A2,2,0,0,1,534.6,40.49Z"/><path class="cls-4" d="M557.08,52.44c.44.26.39.65-.1.88a2,2,0,0,1-1.69-.05c-.44-.26-.39-.65.1-.88A2,2,0,0,1,557.08,52.44Z"/><path class="cls-4" d="M558.6,79.2c.44.26.39.65-.1.88a2,2,0,0,1-1.69-.05c-.44-.26-.39-.65.1-.88A2,2,0,0,1,558.6,79.2Z"/><path class="cls-4" d="M698.26,214.2a1.94,1.94,0,0,1-1.65.2c-.56-.18-.73-.57-.38-.86a1.94,1.94,0,0,1,1.65-.2C698.44,213.52,698.61,213.9,698.26,214.2Z"/><path class="cls-4" d="M680.18,216.16a1.94,1.94,0,0,1-1.65.2c-.56-.18-.73-.57-.38-.86a1.94,1.94,0,0,1,1.65-.2C680.36,215.48,680.53,215.87,680.18,216.16Z"/><path class="cls-4" d="M661.92,228.77a1.94,1.94,0,0,1-1.65.2c-.56-.18-.73-.57-.38-.86a1.94,1.94,0,0,1,1.65-.2C662.1,228.09,662.27,228.48,661.92,228.77Z"/><path class="cls-4" d="M580.3,251.31a1.94,1.94,0,0,1-1.65.2c-.56-.18-.73-.57-.38-.86a1.94,1.94,0,0,1,1.65-.2C580.48,250.63,580.65,251,580.3,251.31Z"/><path class="cls-4" d="M601.24,250.59a1.94,1.94,0,0,1-1.65.2c-.56-.18-.73-.57-.38-.86a1.94,1.94,0,0,1,1.65-.2C601.41,249.91,601.59,250.29,601.24,250.59Z"/><path class="cls-4" d="M654.51,263.23a1.94,1.94,0,0,1-1.65.2c-.56-.18-.73-.57-.38-.86a1.94,1.94,0,0,1,1.65-.2C654.69,262.56,654.86,262.94,654.51,263.23Z"/><path class="cls-4" d="M686.21,285.11a1.94,1.94,0,0,1-1.65.2c-.56-.18-.73-.57-.38-.86a1.94,1.94,0,0,1,1.65-.2C686.39,284.43,686.56,284.81,686.21,285.11Z"/><path class="cls-4" d="M721.74,252a1.94,1.94,0,0,1-1.65.2c-.56-.18-.73-.57-.38-.86a1.94,1.94,0,0,1,1.65-.2C721.92,251.3,722.09,251.68,721.74,252Z"/><path class="cls-4" d="M733.93,259.06a1.94,1.94,0,0,1-1.65.2c-.56-.18-.73-.57-.38-.86a1.94,1.94,0,0,1,1.65-.2C734.11,258.38,734.29,258.77,733.93,259.06Z"/><path class="cls-4" d="M761.93,283.94a1.94,1.94,0,0,1-1.65.2c-.56-.18-.73-.57-.38-.86a1.94,1.94,0,0,1,1.65-.2C762.1,283.26,762.28,283.65,761.93,283.94Z"/><path class="cls-4" d="M781.27,302.53a1.94,1.94,0,0,1-1.65.2c-.56-.18-.73-.57-.38-.86a1.94,1.94,0,0,1,1.65-.2C781.45,301.85,781.62,302.23,781.27,302.53Z"/><path class="cls-4" d="M715,275.07a1.94,1.94,0,0,1-1.65.2c-.56-.18-.73-.57-.38-.86a1.94,1.94,0,0,1,1.65-.2C715.2,274.39,715.37,274.78,715,275.07Z"/><path class="cls-4" d="M722.27,303.65a1.94,1.94,0,0,1-1.65.2c-.56-.18-.73-.57-.38-.86a1.94,1.94,0,0,1,1.65-.2C722.45,303,722.62,303.36,722.27,303.65Z"/><path class="cls-4" d="M779.71,238.64a1.94,1.94,0,0,1-1.65.2c-.56-.18-.73-.57-.38-.86a1.94,1.94,0,0,1,1.65-.2C779.89,238,780.06,238.34,779.71,238.64Z"/><path class="cls-4" d="M722.65,239.53a1.94,1.94,0,0,1-1.65.2c-.56-.18-.73-.57-.38-.86a1.94,1.94,0,0,1,1.65-.2C722.83,238.85,723,239.23,722.65,239.53Z"/><path class="cls-4" d="M276.38,230.19a1.94,1.94,0,0,1-1.65.2c-.56-.18-.73-.57-.38-.86a1.94,1.94,0,0,1,1.65-.2C276.56,229.51,276.73,229.9,276.38,230.19Z"/><path class="cls-4" d="M238.74,241.52a1.94,1.94,0,0,1-1.65.2c-.56-.18-.73-.57-.38-.86a1.94,1.94,0,0,1,1.65-.2C238.92,240.84,239.09,241.23,238.74,241.52Z"/><path class="cls-4" d="M158.72,267.59a1.94,1.94,0,0,1-1.65.2c-.56-.18-.73-.57-.38-.86a1.94,1.94,0,0,1,1.65-.2C158.9,266.91,159.07,267.29,158.72,267.59Z"/><path class="cls-4" d="M117.72,285.39a1.94,1.94,0,0,1-1.65.2c-.56-.18-.73-.57-.38-.86a1.94,1.94,0,0,1,1.65-.2C117.9,284.71,118.07,285.1,117.72,285.39Z"/><path class="cls-4" d="M81.16,306.56a1.94,1.94,0,0,1-1.65.2c-.56-.18-.73-.57-.38-.86a1.94,1.94,0,0,1,1.65-.2C81.34,305.88,81.51,306.27,81.16,306.56Z"/><path class="cls-4" d="M139,256a1.94,1.94,0,0,1-1.65.2c-.56-.18-.73-.57-.38-.86a1.94,1.94,0,0,1,1.65-.2C139.16,255.34,139.33,255.73,139,256Z"/><path class="cls-4" d="M104.05,258.1a1.94,1.94,0,0,1-1.65.2c-.56-.18-.73-.57-.38-.86a1.94,1.94,0,0,1,1.65-.2C104.23,257.42,104.4,257.81,104.05,258.1Z"/><path class="cls-4" d="M58.33,278.07a1.94,1.94,0,0,1-1.65.2c-.56-.18-.73-.57-.38-.86a1.94,1.94,0,0,1,1.65-.2C58.51,277.4,58.68,277.78,58.33,278.07Z"/><path class="cls-4" d="M36.92,292.93a1.94,1.94,0,0,1-1.65.2c-.56-.18-.73-.57-.38-.86a1.94,1.94,0,0,1,1.65-.2C37.1,292.25,37.27,292.64,36.92,292.93Z"/><path class="cls-4" d="M12.93,305.81a1.94,1.94,0,0,1-1.65.2c-.56-.18-.73-.57-.38-.86a1.94,1.94,0,0,1,1.65-.2C13.11,305.13,13.28,305.52,12.93,305.81Z"/><path class="cls-4" d="M153.82,242.73a1.94,1.94,0,0,1-1.65.2c-.56-.18-.73-.57-.38-.86a1.94,1.94,0,0,1,1.65-.2C154,242.05,154.17,242.44,153.82,242.73Z"/><path class="cls-4" d="M188.94,273.58a1.94,1.94,0,0,1-1.65.2c-.56-.18-.73-.57-.38-.86a1.94,1.94,0,0,1,1.65-.2C189.12,272.9,189.29,273.29,188.94,273.58Z"/><path class="cls-4" d="M204.88,316.61a1.94,1.94,0,0,1-1.65.2c-.56-.18-.73-.57-.38-.86a1.94,1.94,0,0,1,1.65-.2C205.05,315.94,205.23,316.32,204.88,316.61Z"/><path class="cls-4" d="M212.26,340.54a1.94,1.94,0,0,1-1.65.2c-.56-.18-.73-.57-.38-.86a1.94,1.94,0,0,1,1.65-.2C212.44,339.86,212.61,340.24,212.26,340.54Z"/><path class="cls-4" d="M244.92,275.3a1.94,1.94,0,0,1-1.65.2c-.56-.18-.73-.57-.38-.86a1.94,1.94,0,0,1,1.65-.2C245.1,274.62,245.27,275,244.92,275.3Z"/><path class="cls-4" d="M250.65,256a1.94,1.94,0,0,1-1.65.2c-.56-.18-.73-.57-.38-.86a1.94,1.94,0,0,1,1.65-.2C250.83,255.33,251,255.72,250.65,256Z"/><path class="cls-4" d="M203.18,246.24a1.94,1.94,0,0,1-1.65.2c-.56-.18-.73-.57-.38-.86a1.94,1.94,0,0,1,1.65-.2C203.36,245.56,203.53,245.95,203.18,246.24Z"/><path class="cls-4" d="M183,236.63a1.94,1.94,0,0,1-1.65.2c-.56-.18-.73-.57-.38-.86a1.94,1.94,0,0,1,1.65-.2C183.14,236,183.31,236.34,183,236.63Z"/><path class="cls-4" d="M177.57,249.83a1.94,1.94,0,0,1-1.65.2c-.56-.18-.73-.57-.38-.86a1.94,1.94,0,0,1,1.65-.2C177.75,249.16,177.92,249.54,177.57,249.83Z"/><path class="cls-4" d="M119.24,299.16a1.94,1.94,0,0,1-1.65.2c-.56-.18-.73-.57-.38-.86a1.94,1.94,0,0,1,1.65-.2C119.42,298.49,119.59,298.87,119.24,299.16Z"/><path class="cls-4" d="M80.46,313.5a1.94,1.94,0,0,1-1.65.2c-.56-.18-.73-.57-.38-.86a1.94,1.94,0,0,1,1.65-.2C80.64,312.83,80.81,313.21,80.46,313.5Z"/><path class="cls-4" d="M21.22,342a1.94,1.94,0,0,1-1.65.2c-.56-.18-.73-.57-.38-.86a1.94,1.94,0,0,1,1.65-.2C21.4,341.32,21.57,341.7,21.22,342Z"/><path class="cls-4" d="M4.46,351.2a1.94,1.94,0,0,1-1.65.2c-.56-.18-.73-.57-.38-.86a1.94,1.94,0,0,1,1.65-.2C4.64,350.52,4.81,350.9,4.46,351.2Z"/><path class="cls-4" d="M8.58,324.57a1.94,1.94,0,0,1-1.65.2c-.56-.18-.73-.57-.38-.86a1.94,1.94,0,0,1,1.65-.2C8.76,323.89,8.94,324.27,8.58,324.57Z"/><path class="cls-4" d="M19.63,283.93a1.94,1.94,0,0,1-1.65.2c-.56-.18-.73-.57-.38-.86a1.94,1.94,0,0,1,1.65-.2C19.81,283.25,20,283.64,19.63,283.93Z"/><path class="cls-4" d="M25.28,267.61a1.94,1.94,0,0,1-1.65.2c-.56-.18-.73-.57-.38-.86a1.94,1.94,0,0,1,1.65-.2C25.46,266.93,25.63,267.32,25.28,267.61Z"/><path class="cls-4" d="M150.93,304.24a1.94,1.94,0,0,1-1.65.2c-.56-.18-.73-.57-.38-.86a1.94,1.94,0,0,1,1.65-.2C151.11,303.56,151.28,303.95,150.93,304.24Z"/><path class="cls-4" d="M185.77,362.87a1.94,1.94,0,0,1-1.65.2c-.56-.18-.73-.57-.38-.86a1.94,1.94,0,0,1,1.65-.2C186,362.19,186.12,362.57,185.77,362.87Z"/><path class="cls-4" d="M220.08,401.1a1.94,1.94,0,0,1-1.65.2c-.56-.18-.73-.57-.38-.86a1.94,1.94,0,0,1,1.65-.2C220.26,400.42,220.43,400.81,220.08,401.1Z"/><path class="cls-4" d="M90,285.79a1.94,1.94,0,0,1-1.65.2c-.56-.18-.73-.57-.38-.86a1.94,1.94,0,0,1,1.65-.2C90.17,285.11,90.34,285.5,90,285.79Z"/><path class="cls-4" d="M68.87,303.14a1.94,1.94,0,0,1-1.65.2c-.56-.18-.73-.57-.38-.86a1.94,1.94,0,0,1,1.65-.2C69.05,302.46,69.22,302.84,68.87,303.14Z"/><path class="cls-4" d="M56.3,339.91a1.94,1.94,0,0,1-1.65.2c-.56-.18-.73-.57-.38-.86a1.94,1.94,0,0,1,1.65-.2C56.48,339.23,56.65,339.62,56.3,339.91Z"/><path class="cls-4" d="M43.69,370.23a1.94,1.94,0,0,1-1.65.2c-.56-.18-.73-.57-.38-.86a1.94,1.94,0,0,1,1.65-.2C43.87,369.55,44,369.93,43.69,370.23Z"/><path class="cls-4" d="M24.76,418.33a1.94,1.94,0,0,1-1.65.2c-.56-.18-.73-.57-.38-.86a1.94,1.94,0,0,1,1.65-.2C24.94,417.65,25.11,418,24.76,418.33Z"/><path class="cls-4" d="M11,361.45a1.94,1.94,0,0,1-1.65.2c-.56-.18-.73-.57-.38-.86a1.94,1.94,0,0,1,1.65-.2C11.18,360.77,11.35,361.16,11,361.45Z"/><path class="cls-4" d="M9.63,415.15a1.94,1.94,0,0,1-1.65.2c-.56-.18-.73-.57-.38-.86a1.94,1.94,0,0,1,1.65-.2C9.81,414.47,10,414.86,9.63,415.15Z"/><path class="cls-4" d="M40.13,447.49a1.94,1.94,0,0,1-1.65.2c-.56-.18-.73-.57-.38-.86a1.94,1.94,0,0,1,1.65-.2C40.31,446.81,40.48,447.19,40.13,447.49Z"/><path class="cls-4" d="M41.7,390.75A1.94,1.94,0,0,1,40,391c-.56-.18-.73-.57-.38-.86a1.94,1.94,0,0,1,1.65-.2C41.88,390.07,42,390.46,41.7,390.75Z"/><path class="cls-4" d="M83.48,405.5a1.94,1.94,0,0,1-1.65.2c-.56-.18-.73-.57-.38-.86a1.94,1.94,0,0,1,1.65-.2C83.66,404.83,83.83,405.21,83.48,405.5Z"/><path class="cls-4" d="M152.94,407.62a1.94,1.94,0,0,1-1.65.2c-.56-.18-.73-.57-.38-.86a1.94,1.94,0,0,1,1.65-.2C153.12,406.95,153.29,407.33,152.94,407.62Z"/><path class="cls-4" d="M195.44,431.42a1.94,1.94,0,0,1-1.65.2c-.56-.18-.73-.57-.38-.86a1.94,1.94,0,0,1,1.65-.2C195.62,430.74,195.79,431.13,195.44,431.42Z"/><path class="cls-4" d="M215.4,448.39a1.94,1.94,0,0,1-1.65.2c-.56-.18-.73-.57-.38-.86a1.94,1.94,0,0,1,1.65-.2C215.58,447.71,215.75,448.1,215.4,448.39Z"/><path class="cls-4" d="M143.2,392.83a1.94,1.94,0,0,1-1.65.2c-.56-.18-.73-.57-.38-.86a1.94,1.94,0,0,1,1.65-.2C143.38,392.15,143.55,392.54,143.2,392.83Z"/><path class="cls-4" d="M189.53,378.27a1.94,1.94,0,0,1-1.65.2c-.56-.18-.73-.57-.38-.86a1.94,1.94,0,0,1,1.65-.2C189.71,377.59,189.88,378,189.53,378.27Z"/><path class="cls-4" d="M256.94,360.35a1.94,1.94,0,0,1-1.65.2c-.56-.18-.73-.57-.38-.86a1.94,1.94,0,0,1,1.65-.2C257.12,359.67,257.29,360.05,256.94,360.35Z"/><path class="cls-4" d="M511.82,302.59c.44.26.39.65-.1.88a2,2,0,0,1-1.69-.05c-.44-.26-.39-.65.1-.88A2,2,0,0,1,511.82,302.59Z"/><path class="cls-4" d="M505.61,285.89c.44.26.39.65-.1.88a2,2,0,0,1-1.69-.05c-.44-.26-.39-.65.1-.88A2,2,0,0,1,505.61,285.89Z"/><path class="cls-4" d="M518.84,268.34c.44.26.39.65-.1.88a2,2,0,0,1-1.69-.05c-.44-.26-.39-.65.1-.88A2,2,0,0,1,518.84,268.34Z"/><path class="cls-4" d="M394.17,204.91a1.94,1.94,0,0,1-1.65.2c-.56-.18-.73-.57-.38-.86a1.94,1.94,0,0,1,1.65-.2C394.35,204.23,394.52,204.62,394.17,204.91Z"/><path class="cls-4" d="M344.75,227.1a1.94,1.94,0,0,1-1.65.2c-.56-.18-.73-.57-.38-.86a1.94,1.94,0,0,1,1.65-.2C344.93,226.43,345.1,226.81,344.75,227.1Z"/><path class="cls-4" d="M560.81,230.91a1.94,1.94,0,0,1-1.65.2c-.56-.18-.73-.57-.38-.86a1.94,1.94,0,0,1,1.65-.2C561,230.23,561.16,230.61,560.81,230.91Z"/><path class="cls-4" d="M582.21,204.42a1.94,1.94,0,0,1-1.65.2c-.56-.18-.73-.57-.38-.86a1.94,1.94,0,0,1,1.65-.2C582.39,203.74,582.56,204.13,582.21,204.42Z"/><path class="cls-4" d="M502.57,236.41a1.94,1.94,0,0,1-1.65.2c-.56-.18-.73-.57-.38-.86a1.94,1.94,0,0,1,1.65-.2C502.75,235.73,502.92,236.11,502.57,236.41Z"/><path class="cls-4" d="M583,277.18a1.94,1.94,0,0,1-1.65.2c-.56-.18-.73-.57-.38-.86a1.94,1.94,0,0,1,1.65-.2C583.2,276.5,583.37,276.88,583,277.18Z"/><path class="cls-4" d="M647.53,313.55a1.94,1.94,0,0,1-1.65.2c-.56-.18-.73-.57-.38-.86a1.94,1.94,0,0,1,1.65-.2C647.71,312.87,647.88,313.25,647.53,313.55Z"/><path class="cls-4" d="M658.9,360.68a1.94,1.94,0,0,1-1.65.2c-.56-.18-.73-.57-.38-.86a1.94,1.94,0,0,1,1.65-.2C659.08,360,659.25,360.39,658.9,360.68Z"/><path class="cls-4" d="M631.52,383.18a1.94,1.94,0,0,1-1.65.2c-.56-.18-.73-.57-.38-.86a1.94,1.94,0,0,1,1.65-.2C631.7,382.51,631.87,382.89,631.52,383.18Z"/><path class="cls-4" d="M591,304.63a1.94,1.94,0,0,1-1.65.2c-.56-.18-.73-.57-.38-.86a1.94,1.94,0,0,1,1.65-.2C591.2,304,591.37,304.34,591,304.63Z"/><path class="cls-4" d="M590,320.52a1.94,1.94,0,0,1-1.65.2c-.56-.18-.73-.57-.38-.86a1.94,1.94,0,0,1,1.65-.2C590.21,319.84,590.38,320.22,590,320.52Z"/><path class="cls-4" d="M571.2,363.54a1.94,1.94,0,0,1-1.65.2c-.56-.18-.73-.57-.38-.86a1.94,1.94,0,0,1,1.65-.2C571.38,362.86,571.55,363.25,571.2,363.54Z"/><path class="cls-4" d="M529.77,403.1a1.94,1.94,0,0,1-1.65.2c-.56-.18-.73-.57-.38-.86a1.94,1.94,0,0,1,1.65-.2C529.95,402.42,530.12,402.8,529.77,403.1Z"/><path class="cls-4" d="M641.85,322.59a1.94,1.94,0,0,1-1.65.2c-.56-.18-.73-.57-.38-.86a1.94,1.94,0,0,1,1.65-.2C642,321.91,642.2,322.3,641.85,322.59Z"/><path class="cls-4" d="M634.44,298.65a1.94,1.94,0,0,1-1.65.2c-.56-.18-.73-.57-.38-.86a1.94,1.94,0,0,1,1.65-.2C634.62,298,634.79,298.36,634.44,298.65Z"/><path class="cls-4" d="M662.64,290.48a1.94,1.94,0,0,1-1.65.2c-.56-.18-.73-.57-.38-.86a1.94,1.94,0,0,1,1.65-.2C662.82,289.8,663,290.18,662.64,290.48Z"/><path class="cls-4" d="M699.31,322.82a1.94,1.94,0,0,1-1.65.2c-.56-.18-.73-.57-.38-.86a1.94,1.94,0,0,1,1.65-.2C699.49,322.14,699.66,322.52,699.31,322.82Z"/><path class="cls-4" d="M723.95,355a1.94,1.94,0,0,1-1.65.2c-.56-.18-.73-.57-.38-.86a1.94,1.94,0,0,1,1.65-.2C724.12,354.3,724.3,354.69,723.95,355Z"/><path class="cls-4" d="M754.62,381.71a1.94,1.94,0,0,1-1.65.2c-.56-.18-.73-.57-.38-.86a1.94,1.94,0,0,1,1.65-.2C754.8,381,755,381.42,754.62,381.71Z"/><path class="cls-4" d="M765.3,321.76a1.94,1.94,0,0,1-1.65.2c-.56-.18-.73-.57-.38-.86a1.94,1.94,0,0,1,1.65-.2C765.48,321.08,765.65,321.47,765.3,321.76Z"/><path class="cls-4" d="M776.61,351.08a1.94,1.94,0,0,1-1.65.2c-.56-.18-.73-.57-.38-.86a1.94,1.94,0,0,1,1.65-.2C776.79,350.4,777,350.79,776.61,351.08Z"/><path class="cls-4" d="M781.81,394.52a1.94,1.94,0,0,1-1.65.2c-.56-.18-.73-.57-.38-.86a1.94,1.94,0,0,1,1.65-.2C782,393.84,782.16,394.22,781.81,394.52Z"/><path class="cls-4" d="M777,417.73a1.94,1.94,0,0,1-1.65.2c-.56-.18-.73-.57-.38-.86a1.94,1.94,0,0,1,1.65-.2C777.16,417.05,777.33,417.44,777,417.73Z"/><path class="cls-4" d="M760.63,414.41a1.94,1.94,0,0,1-1.65.2c-.56-.18-.73-.57-.38-.86a1.94,1.94,0,0,1,1.65-.2C760.81,413.73,761,414.12,760.63,414.41Z"/><path class="cls-4" d="M673,417.51a1.94,1.94,0,0,1-1.65.2c-.56-.18-.73-.57-.38-.86a1.94,1.94,0,0,1,1.65-.2C673.18,416.83,673.35,417.22,673,417.51Z"/><path class="cls-4" d="M613.71,420.89a1.94,1.94,0,0,1-1.65.2c-.56-.18-.73-.57-.38-.86a1.94,1.94,0,0,1,1.65-.2C613.89,420.21,614.06,420.59,613.71,420.89Z"/><path class="cls-4" d="M569.83,419.25a1.94,1.94,0,0,1-1.65.2c-.56-.18-.73-.57-.38-.86a1.94,1.94,0,0,1,1.65-.2C570,418.57,570.18,419,569.83,419.25Z"/><path class="cls-4" d="M613,363.17a1.94,1.94,0,0,1-1.65.2c-.56-.18-.73-.57-.38-.86a1.94,1.94,0,0,1,1.65-.2C613.17,362.49,613.34,362.88,613,363.17Z"/><path class="cls-4" d="M569.27,394.66a1.94,1.94,0,0,1-1.65.2c-.56-.18-.73-.57-.38-.86a1.94,1.94,0,0,1,1.65-.2C569.45,394,569.62,394.37,569.27,394.66Z"/><path class="cls-4" d="M689.06,376.26a1.94,1.94,0,0,1-1.65.2c-.56-.18-.73-.57-.38-.86a1.94,1.94,0,0,1,1.65-.2C689.24,375.59,689.41,376,689.06,376.26Z"/><path class="cls-4" d="M682.45,379.6a1.94,1.94,0,0,1-1.65.2c-.56-.18-.73-.57-.38-.86a1.94,1.94,0,0,1,1.65-.2C682.63,378.93,682.8,379.31,682.45,379.6Z"/><path class="cls-4" d="M717,400.35a1.94,1.94,0,0,1-1.65.2c-.56-.18-.73-.57-.38-.86a1.94,1.94,0,0,1,1.65-.2C717.21,399.67,717.38,400.06,717,400.35Z"/><path class="cls-4" d="M710.25,350.16a1.94,1.94,0,0,1-1.65.2c-.56-.18-.73-.57-.38-.86a1.94,1.94,0,0,1,1.65-.2C710.43,349.49,710.6,349.87,710.25,350.16Z"/><path class="cls-4" d="M543.09,363.13a1.94,1.94,0,0,1-1.65.2c-.56-.18-.73-.57-.38-.86a1.94,1.94,0,0,1,1.65-.2C543.27,362.45,543.44,362.84,543.09,363.13Z"/><path class="cls-4" d="M476,373.12a1.94,1.94,0,0,1-1.65.2c-.56-.18-.73-.57-.38-.86a1.94,1.94,0,0,1,1.65-.2C476.17,372.44,476.34,372.83,476,373.12Z"/><path class="cls-4" d="M409.28,372.76a1.94,1.94,0,0,1-1.65.2c-.56-.18-.73-.57-.38-.86a1.94,1.94,0,0,1,1.65-.2C409.46,372.08,409.63,372.46,409.28,372.76Z"/><path class="cls-4" d="M351.67,374.32a1.94,1.94,0,0,1-1.65.2c-.56-.18-.73-.57-.38-.86a1.94,1.94,0,0,1,1.65-.2C351.84,373.64,352,374,351.67,374.32Z"/><path class="cls-4" d="M326.48,363a1.94,1.94,0,0,1-1.65.2c-.56-.18-.73-.57-.38-.86a1.94,1.94,0,0,1,1.65-.2C326.66,362.33,326.84,362.71,326.48,363Z"/><path class="cls-4" d="M259.23,394.53a1.94,1.94,0,0,1-1.65.2c-.56-.18-.73-.57-.38-.86a1.94,1.94,0,0,1,1.65-.2C259.41,393.85,259.58,394.24,259.23,394.53Z"/><path class="cls-4" d="M321.38,425.69a1.94,1.94,0,0,1-1.65.2c-.56-.18-.73-.57-.38-.86a1.94,1.94,0,0,1,1.65-.2C321.56,425,321.73,425.39,321.38,425.69Z"/><path class="cls-4" d="M429.89,428.49a1.94,1.94,0,0,1-1.65.2c-.56-.18-.73-.57-.38-.86a1.94,1.94,0,0,1,1.65-.2C430.07,427.82,430.24,428.2,429.89,428.49Z"/><path class="cls-4" d="M460.25,405.18a1.94,1.94,0,0,1-1.65.2c-.56-.18-.73-.57-.38-.86a1.94,1.94,0,0,1,1.65-.2C460.43,404.51,460.6,404.89,460.25,405.18Z"/><path class="cls-4" d="M449.18,404.28a1.94,1.94,0,0,1-1.65.2c-.56-.18-.73-.57-.38-.86a1.94,1.94,0,0,1,1.65-.2C449.36,403.6,449.53,404,449.18,404.28Z"/><path class="cls-4" d="M389.52,402.67a1.94,1.94,0,0,1-1.65.2c-.56-.18-.73-.57-.38-.86a1.94,1.94,0,0,1,1.65-.2C389.69,402,389.87,402.38,389.52,402.67Z"/><path class="cls-4" d="M358.08,410.81a1.94,1.94,0,0,1-1.65.2c-.56-.18-.73-.57-.38-.86a1.94,1.94,0,0,1,1.65-.2C358.26,410.13,358.43,410.52,358.08,410.81Z"/><path class="cls-4" d="M308.46,409.39a1.94,1.94,0,0,1-1.65.2c-.56-.18-.73-.57-.38-.86a1.94,1.94,0,0,1,1.65-.2C308.64,408.72,308.81,409.1,308.46,409.39Z"/><path class="cls-4" d="M253.85,421.06a1.94,1.94,0,0,1-1.65.2c-.56-.18-.73-.57-.38-.86a1.94,1.94,0,0,1,1.65-.2C254,420.38,254.2,420.76,253.85,421.06Z"/><path class="cls-4" d="M387,360.48a1.94,1.94,0,0,1-1.65.2c-.56-.18-.73-.57-.38-.86a1.94,1.94,0,0,1,1.65-.2C387.16,359.8,387.33,360.18,387,360.48Z"/><path class="cls-4" d="M430.34,358.64a1.94,1.94,0,0,1-1.65.2c-.56-.18-.73-.57-.38-.86a1.94,1.94,0,0,1,1.65-.2C430.52,358,430.69,358.35,430.34,358.64Z"/><path class="cls-4" d="M479,361.83a1.94,1.94,0,0,1-1.65.2c-.56-.18-.73-.57-.38-.86a1.94,1.94,0,0,1,1.65-.2C479.21,361.15,479.38,361.54,479,361.83Z"/><path class="cls-4" d="M527.29,364.27a1.94,1.94,0,0,1-1.65.2c-.56-.18-.73-.57-.38-.86a1.94,1.94,0,0,1,1.65-.2C527.47,363.59,527.64,364,527.29,364.27Z"/><path class="cls-4" d="M179.27,280.59a1.94,1.94,0,0,1-1.65.2c-.56-.18-.73-.57-.38-.86a1.94,1.94,0,0,1,1.65-.2C179.45,279.91,179.62,280.29,179.27,280.59Z"/><path class="cls-4" d="M200.81,298.54a1.94,1.94,0,0,1-1.65.2c-.56-.18-.73-.57-.38-.86a1.94,1.94,0,0,1,1.65-.2C201,297.86,201.16,298.25,200.81,298.54Z"/><path class="cls-4" d="M224.13,302.21a1.94,1.94,0,0,1-1.65.2c-.56-.18-.73-.57-.38-.86a1.94,1.94,0,0,1,1.65-.2C224.31,301.53,224.48,301.91,224.13,302.21Z"/><path class="cls-4" d="M237.24,305.19a1.94,1.94,0,0,1-1.65.2c-.56-.18-.73-.57-.38-.86a1.94,1.94,0,0,1,1.65-.2C237.42,304.51,237.59,304.89,237.24,305.19Z"/><path class="cls-4" d="M241.62,285.51a1.94,1.94,0,0,1-1.65.2c-.56-.18-.73-.57-.38-.86a1.94,1.94,0,0,1,1.65-.2C241.8,284.83,242,285.22,241.62,285.51Z"/><path class="cls-4" d="M285.41,391.94a1.94,1.94,0,0,1-1.65.2c-.56-.18-.73-.57-.38-.86a1.94,1.94,0,0,1,1.65-.2C285.59,391.26,285.76,391.64,285.41,391.94Z"/><path class="cls-4" d="M248.16,382.7a1.94,1.94,0,0,1-1.65.2c-.56-.18-.73-.57-.38-.86a1.94,1.94,0,0,1,1.65-.2C248.34,382,248.51,382.41,248.16,382.7Z"/><path class="cls-4" d="M223.67,404.76a1.94,1.94,0,0,1-1.65.2c-.56-.18-.73-.57-.38-.86a1.94,1.94,0,0,1,1.65-.2C223.85,404.09,224,404.47,223.67,404.76Z"/><path class="cls-4" d="M177.09,423.64a1.94,1.94,0,0,1-1.65.2c-.56-.18-.73-.57-.38-.86a1.94,1.94,0,0,1,1.65-.2C177.27,423,177.44,423.35,177.09,423.64Z"/><path class="cls-4" d="M121.38,434a1.94,1.94,0,0,1-1.65.2c-.56-.18-.73-.57-.38-.86a1.94,1.94,0,0,1,1.65-.2C121.56,433.31,121.73,433.7,121.38,434Z"/><path class="cls-4" d="M70.15,447.94a1.94,1.94,0,0,1-1.65.2c-.56-.18-.73-.57-.38-.86a1.94,1.94,0,0,1,1.65-.2C70.33,447.27,70.5,447.65,70.15,447.94Z"/><path class="cls-4" d="M46.1,457.31a1.94,1.94,0,0,1-1.65.2c-.56-.18-.73-.57-.38-.86a1.94,1.94,0,0,1,1.65-.2C46.28,456.63,46.45,457,46.1,457.31Z"/><path class="cls-4" d="M27.35,474.47a1.94,1.94,0,0,1-1.65.2c-.56-.18-.73-.57-.38-.86a1.94,1.94,0,0,1,1.65-.2C27.53,473.79,27.7,474.17,27.35,474.47Z"/><path class="cls-4" d="M23.7,487.1a1.94,1.94,0,0,1-1.65.2c-.56-.18-.73-.57-.38-.86a1.94,1.94,0,0,1,1.65-.2C23.88,486.42,24,486.8,23.7,487.1Z"/><path class="cls-4" d="M17.25,499.42a1.94,1.94,0,0,1-1.65.2c-.56-.18-.73-.57-.38-.86a1.94,1.94,0,0,1,1.65-.2C17.43,498.74,17.6,499.13,17.25,499.42Z"/><path class="cls-4" d="M25.56,508.92a1.94,1.94,0,0,1-1.65.2c-.56-.18-.73-.57-.38-.86a1.94,1.94,0,0,1,1.65-.2C25.74,508.25,25.91,508.63,25.56,508.92Z"/><path class="cls-4" d="M101.9,502.25a1.94,1.94,0,0,1-1.65.2c-.56-.18-.73-.57-.38-.86a1.94,1.94,0,0,1,1.65-.2C102.07,501.57,102.25,502,101.9,502.25Z"/><path class="cls-4" d="M190.24,500.94a1.94,1.94,0,0,1-1.65.2c-.56-.18-.73-.57-.38-.86a1.94,1.94,0,0,1,1.65-.2C190.42,500.26,190.59,500.65,190.24,500.94Z"/><path class="cls-4" d="M271,505.74a1.94,1.94,0,0,1-1.65.2c-.56-.18-.73-.57-.38-.86a1.94,1.94,0,0,1,1.65-.2C271.16,505.06,271.33,505.45,271,505.74Z"/><path class="cls-4" d="M352.15,515.56a1.94,1.94,0,0,1-1.65.2c-.56-.18-.73-.57-.38-.86a1.94,1.94,0,0,1,1.65-.2C352.32,514.88,352.5,515.27,352.15,515.56Z"/><path class="cls-4" d="M155.86,463.29a1.94,1.94,0,0,1-1.65.2c-.56-.18-.73-.57-.38-.86a1.94,1.94,0,0,1,1.65-.2C156,462.61,156.21,463,155.86,463.29Z"/><path class="cls-4" d="M124.32,470.2a1.94,1.94,0,0,1-1.65.2c-.56-.18-.73-.57-.38-.86a1.94,1.94,0,0,1,1.65-.2C124.5,469.52,124.67,469.91,124.32,470.2Z"/><path class="cls-4" d="M106.53,473.79a1.94,1.94,0,0,1-1.65.2c-.56-.18-.73-.57-.38-.86a1.94,1.94,0,0,1,1.65-.2C106.7,473.12,106.88,473.5,106.53,473.79Z"/><path class="cls-4" d="M92.65,461.37a1.94,1.94,0,0,1-1.65.2c-.56-.18-.73-.57-.38-.86a1.94,1.94,0,0,1,1.65-.2C92.83,460.69,93,461.08,92.65,461.37Z"/><path class="cls-4" d="M105.31,440.61a1.94,1.94,0,0,1-1.65.2c-.56-.18-.73-.57-.38-.86a1.94,1.94,0,0,1,1.65-.2C105.49,439.93,105.66,440.32,105.31,440.61Z"/><path class="cls-4" d="M104.71,432.19a1.94,1.94,0,0,1-1.65.2c-.56-.18-.73-.57-.38-.86a1.94,1.94,0,0,1,1.65-.2C104.88,431.51,105.06,431.9,104.71,432.19Z"/><path class="cls-4" d="M64.8,430.68a1.94,1.94,0,0,1-1.65.2c-.56-.18-.73-.57-.38-.86a1.94,1.94,0,0,1,1.65-.2C65,430,65.15,430.39,64.8,430.68Z"/><path class="cls-4" d="M33,428.45a1.94,1.94,0,0,1-1.65.2c-.56-.18-.73-.57-.38-.86a1.94,1.94,0,0,1,1.65-.2C33.17,427.77,33.34,428.16,33,428.45Z"/><path class="cls-4" d="M20.59,440.21a1.94,1.94,0,0,1-1.65.2c-.56-.18-.73-.57-.38-.86a1.94,1.94,0,0,1,1.65-.2C20.77,439.53,20.94,439.92,20.59,440.21Z"/><path class="cls-4" d="M13.48,462.1a1.94,1.94,0,0,1-1.65.2c-.56-.18-.73-.57-.38-.86a1.94,1.94,0,0,1,1.65-.2C13.66,461.42,13.83,461.8,13.48,462.1Z"/><path class="cls-4" d="M10.42,472.37a1.94,1.94,0,0,1-1.65.2c-.56-.18-.73-.57-.38-.86a1.94,1.94,0,0,1,1.65-.2C10.6,471.69,10.77,472.08,10.42,472.37Z"/><path class="cls-4" d="M48.12,484.56a1.94,1.94,0,0,1-1.65.2c-.56-.18-.73-.57-.38-.86a1.94,1.94,0,0,1,1.65-.2C48.3,483.89,48.47,484.27,48.12,484.56Z"/><path class="cls-4" d="M87,492a1.94,1.94,0,0,1-1.65.2c-.56-.18-.73-.57-.38-.86a1.94,1.94,0,0,1,1.65-.2C87.2,491.28,87.37,491.66,87,492Z"/><path class="cls-4" d="M110.2,508.26a1.94,1.94,0,0,1-1.65.2c-.56-.18-.73-.57-.38-.86a1.94,1.94,0,0,1,1.65-.2C110.38,507.59,110.55,508,110.2,508.26Z"/><path class="cls-4" d="M307.06,379.4a1.94,1.94,0,0,1-1.65.2c-.56-.18-.73-.57-.38-.86a1.94,1.94,0,0,1,1.65-.2C307.24,378.72,307.41,379.1,307.06,379.4Z"/><path class="cls-4" d="M365.67,380a1.94,1.94,0,0,1-1.65.2c-.56-.18-.73-.57-.38-.86a1.94,1.94,0,0,1,1.65-.2C365.85,379.27,366,379.66,365.67,380Z"/><path class="cls-4" d="M435.24,391.82a1.94,1.94,0,0,1-1.65.2c-.56-.18-.73-.57-.38-.86a1.94,1.94,0,0,1,1.65-.2C435.42,391.15,435.59,391.53,435.24,391.82Z"/><path class="cls-4" d="M515.86,397a1.94,1.94,0,0,1-1.65.2c-.56-.18-.73-.57-.38-.86a1.94,1.94,0,0,1,1.65-.2C516,396.3,516.21,396.68,515.86,397Z"/><path class="cls-4" d="M778.66,400.74a1.94,1.94,0,0,1-1.65.2c-.56-.18-.73-.57-.38-.86a1.94,1.94,0,0,1,1.65-.2C778.84,400.06,779,400.45,778.66,400.74Z"/><path class="cls-4" d="M796.65,431.55a1.94,1.94,0,0,1-1.65.2c-.56-.18-.73-.57-.38-.86a1.94,1.94,0,0,1,1.65-.2C796.83,430.87,797,431.25,796.65,431.55Z"/><path class="cls-4" d="M804.85,467.27a1.94,1.94,0,0,1-1.65.2c-.56-.18-.73-.57-.38-.86a1.94,1.94,0,0,1,1.65-.2C805,466.59,805.2,467,804.85,467.27Z"/><path class="cls-4" d="M794,486.09a1.94,1.94,0,0,1-1.65.2c-.56-.18-.73-.57-.38-.86a1.94,1.94,0,0,1,1.65-.2C794.13,485.41,794.3,485.8,794,486.09Z"/><path class="cls-4" d="M749.9,482.43a1.94,1.94,0,0,1-1.65.2c-.56-.18-.73-.57-.38-.86a1.94,1.94,0,0,1,1.65-.2C750.08,481.76,750.25,482.14,749.9,482.43Z"/><path class="cls-4" d="M690.13,483a1.94,1.94,0,0,1-1.65.2c-.56-.18-.73-.57-.38-.86a1.94,1.94,0,0,1,1.65-.2C690.31,482.36,690.48,482.74,690.13,483Z"/><path class="cls-4" d="M609.36,496.46a1.94,1.94,0,0,1-1.65.2c-.56-.18-.73-.57-.38-.86a1.94,1.94,0,0,1,1.65-.2C609.54,495.78,609.71,496.16,609.36,496.46Z"/><path class="cls-4" d="M528.13,506.68a1.94,1.94,0,0,1-1.65.2c-.56-.18-.73-.57-.38-.86a1.94,1.94,0,0,1,1.65-.2C528.31,506,528.49,506.38,528.13,506.68Z"/><path class="cls-4" d="M508.27,482.15a1.94,1.94,0,0,1-1.65.2c-.56-.18-.73-.57-.38-.86a1.94,1.94,0,0,1,1.65-.2C508.45,481.47,508.62,481.86,508.27,482.15Z"/><path class="cls-4" d="M580,470.76a1.94,1.94,0,0,1-1.65.2c-.56-.18-.73-.57-.38-.86a1.94,1.94,0,0,1,1.65-.2C580.2,470.08,580.37,470.46,580,470.76Z"/><path class="cls-4" d="M675.63,474.63a1.94,1.94,0,0,1-1.65.2c-.56-.18-.73-.57-.38-.86a1.94,1.94,0,0,1,1.65-.2C675.81,473.95,676,474.33,675.63,474.63Z"/><path class="cls-4" d="M736.86,470.74a1.94,1.94,0,0,1-1.65.2c-.56-.18-.73-.57-.38-.86a1.94,1.94,0,0,1,1.65-.2C737,470.06,737.21,470.45,736.86,470.74Z"/><path class="cls-4" d="M724,455.62a1.94,1.94,0,0,1-1.65.2c-.56-.18-.73-.57-.38-.86a1.94,1.94,0,0,1,1.65-.2C724.19,454.94,724.36,455.33,724,455.62Z"/><path class="cls-4" d="M648.43,457.09a1.94,1.94,0,0,1-1.65.2c-.56-.18-.73-.57-.38-.86a1.94,1.94,0,0,1,1.65-.2C648.61,456.41,648.78,456.79,648.43,457.09Z"/><path class="cls-4" d="M558.56,453.63a1.94,1.94,0,0,1-1.65.2c-.56-.18-.73-.57-.38-.86a1.94,1.94,0,0,1,1.65-.2C558.74,453,558.91,453.34,558.56,453.63Z"/><path class="cls-4" d="M475.12,449.46a1.94,1.94,0,0,1-1.65.2c-.56-.18-.73-.57-.38-.86a1.94,1.94,0,0,1,1.65-.2C475.3,448.78,475.47,449.17,475.12,449.46Z"/><path class="cls-4" d="M401.67,470.67a1.94,1.94,0,0,1-1.65.2c-.56-.18-.73-.57-.38-.86a1.94,1.94,0,0,1,1.65-.2C401.85,470,402,470.38,401.67,470.67Z"/><path class="cls-4" d="M296.69,458.27a1.94,1.94,0,0,1-1.65.2c-.56-.18-.73-.57-.38-.86a1.94,1.94,0,0,1,1.65-.2C296.87,457.59,297,458,296.69,458.27Z"/><path class="cls-4" d="M255.65,470.82a1.94,1.94,0,0,1-1.65.2c-.56-.18-.73-.57-.38-.86a1.94,1.94,0,0,1,1.65-.2C255.83,470.14,256,470.53,255.65,470.82Z"/><path class="cls-4" d="M189.64,484.17a1.94,1.94,0,0,1-1.65.2c-.56-.18-.73-.57-.38-.86a1.94,1.94,0,0,1,1.65-.2C189.82,483.5,190,483.88,189.64,484.17Z"/><path class="cls-4" d="M160.76,484.1a1.94,1.94,0,0,1-1.65.2c-.56-.18-.73-.57-.38-.86a1.94,1.94,0,0,1,1.65-.2C160.94,483.42,161.11,483.81,160.76,484.1Z"/><path class="cls-4" d="M151.77,486.28a1.94,1.94,0,0,1-1.65.2c-.56-.18-.73-.57-.38-.86a1.94,1.94,0,0,1,1.65-.2C152,485.6,152.12,486,151.77,486.28Z"/><path class="cls-4" d="M129.94,494.93a1.94,1.94,0,0,1-1.65.2c-.56-.18-.73-.57-.38-.86a1.94,1.94,0,0,1,1.65-.2C130.12,494.26,130.29,494.64,129.94,494.93Z"/><path class="cls-4" d="M145.31,444.48a1.94,1.94,0,0,1-1.65.2c-.56-.18-.73-.57-.38-.86a1.94,1.94,0,0,1,1.65-.2C145.49,443.8,145.66,444.19,145.31,444.48Z"/><path class="cls-4" d="M193.66,453a1.94,1.94,0,0,1-1.65.2c-.56-.18-.73-.57-.38-.86a1.94,1.94,0,0,1,1.65-.2C193.84,452.27,194,452.66,193.66,453Z"/><path class="cls-4" d="M225.89,476.69a1.94,1.94,0,0,1-1.65.2c-.56-.18-.73-.57-.38-.86a1.94,1.94,0,0,1,1.65-.2C226.07,476,226.24,476.4,225.89,476.69Z"/><path class="cls-4" d="M277.87,491.34a1.94,1.94,0,0,1-1.65.2c-.56-.18-.73-.57-.38-.86a1.94,1.94,0,0,1,1.65-.2C278.05,490.66,278.22,491,277.87,491.34Z"/><path class="cls-4" d="M339.23,500a1.94,1.94,0,0,1-1.65.2c-.56-.18-.73-.57-.38-.86a1.94,1.94,0,0,1,1.65-.2C339.41,499.37,339.58,499.75,339.23,500Z"/><path class="cls-4" d="M408.9,498.17a1.94,1.94,0,0,1-1.65.2c-.56-.18-.73-.57-.38-.86a1.94,1.94,0,0,1,1.65-.2C409.08,497.49,409.25,497.88,408.9,498.17Z"/><path class="cls-4" d="M271.64,447.31a1.94,1.94,0,0,1-1.65.2c-.56-.18-.73-.57-.38-.86a1.94,1.94,0,0,1,1.65-.2C271.82,446.63,272,447,271.64,447.31Z"/><path class="cls-4" d="M248.5,444.3a1.94,1.94,0,0,1-1.65.2c-.56-.18-.73-.57-.38-.86a1.94,1.94,0,0,1,1.65-.2C248.68,443.62,248.85,444,248.5,444.3Z"/><path class="cls-4" d="M263.1,453.61a1.94,1.94,0,0,1-1.65.2c-.56-.18-.73-.57-.38-.86a1.94,1.94,0,0,1,1.65-.2C263.27,452.93,263.45,453.32,263.1,453.61Z"/><path class="cls-4" d="M334.21,446.71a1.94,1.94,0,0,1-1.65.2c-.56-.18-.73-.57-.38-.86a1.94,1.94,0,0,1,1.65-.2C334.39,446,334.56,446.42,334.21,446.71Z"/><path class="cls-4" d="M416.27,444.1a1.94,1.94,0,0,1-1.65.2c-.56-.18-.73-.57-.38-.86a1.94,1.94,0,0,1,1.65-.2C416.44,443.42,416.62,443.8,416.27,444.1Z"/><path class="cls-4" d="M462.46,441.79a1.94,1.94,0,0,1-1.65.2c-.56-.18-.73-.57-.38-.86a1.94,1.94,0,0,1,1.65-.2C462.64,441.11,462.81,441.49,462.46,441.79Z"/><path class="cls-4" d="M512.5,460.74a1.94,1.94,0,0,1-1.65.2c-.56-.18-.73-.57-.38-.86a1.94,1.94,0,0,1,1.65-.2C512.68,460.06,512.85,460.45,512.5,460.74Z"/><path class="cls-4" d="M399.76,425.16a1.94,1.94,0,0,1-1.65.2c-.56-.18-.73-.57-.38-.86a1.94,1.94,0,0,1,1.65-.2C399.94,424.49,400.11,424.87,399.76,425.16Z"/><path class="cls-4" d="M365.27,458.55a1.94,1.94,0,0,1-1.65.2c-.56-.18-.73-.57-.38-.86a1.94,1.94,0,0,1,1.65-.2C365.45,457.88,365.62,458.26,365.27,458.55Z"/><path class="cls-4" d="M330.7,476.39a1.94,1.94,0,0,1-1.65.2c-.56-.18-.73-.57-.38-.86a1.94,1.94,0,0,1,1.65-.2C330.88,475.71,331,476.1,330.7,476.39Z"/><path class="cls-4" d="M453.18,468.57a1.94,1.94,0,0,1-1.65.2c-.56-.18-.73-.57-.38-.86a1.94,1.94,0,0,1,1.65-.2C453.36,467.9,453.53,468.28,453.18,468.57Z"/><path class="cls-4" d="M482.9,488.64a1.94,1.94,0,0,1-1.65.2c-.56-.18-.73-.57-.38-.86a1.94,1.94,0,0,1,1.65-.2C483.08,488,483.25,488.35,482.9,488.64Z"/><path class="cls-4" d="M522.06,501.73a1.94,1.94,0,0,1-1.65.2c-.56-.18-.73-.57-.38-.86a1.94,1.94,0,0,1,1.65-.2C522.24,501.05,522.41,501.44,522.06,501.73Z"/><path class="cls-4" d="M576.57,504.06a1.94,1.94,0,0,1-1.65.2c-.56-.18-.73-.57-.38-.86a1.94,1.94,0,0,1,1.65-.2C576.75,503.38,576.92,503.77,576.57,504.06Z"/><path class="cls-4" d="M648,502a1.94,1.94,0,0,1-1.65.2c-.56-.18-.73-.57-.38-.86a1.94,1.94,0,0,1,1.65-.2C648.2,501.36,648.37,501.75,648,502Z"/><path class="cls-4" d="M713.62,493.39a1.94,1.94,0,0,1-1.65.2c-.56-.18-.73-.57-.38-.86a1.94,1.94,0,0,1,1.65-.2C713.8,492.72,714,493.1,713.62,493.39Z"/><path class="cls-4" d="M751.2,497.06a1.94,1.94,0,0,1-1.65.2c-.56-.18-.73-.57-.38-.86a1.94,1.94,0,0,1,1.65-.2C751.38,496.38,751.55,496.77,751.2,497.06Z"/><path class="cls-4" d="M788.42,503a1.94,1.94,0,0,1-1.65.2c-.56-.18-.73-.57-.38-.86a1.94,1.94,0,0,1,1.65-.2C788.6,502.31,788.77,502.7,788.42,503Z"/><path class="cls-4" d="M813.05,471.53a1.94,1.94,0,0,1-1.65.2c-.56-.18-.73-.57-.38-.86a1.94,1.94,0,0,1,1.65-.2C813.23,470.86,813.4,471.24,813.05,471.53Z"/><path class="cls-4" d="M772.17,446.91a1.94,1.94,0,0,1-1.65.2c-.56-.18-.73-.57-.38-.86a1.94,1.94,0,0,1,1.65-.2C772.35,446.24,772.52,446.62,772.17,446.91Z"/><path class="cls-4" d="M735.41,437.78a1.94,1.94,0,0,1-1.65.2c-.56-.18-.73-.57-.38-.86a1.94,1.94,0,0,1,1.65-.2C735.59,437.11,735.76,437.49,735.41,437.78Z"/><path class="cls-4" d="M699.68,427.54a1.94,1.94,0,0,1-1.65.2c-.56-.18-.73-.57-.38-.86a1.94,1.94,0,0,1,1.65-.2C699.86,426.86,700,427.25,699.68,427.54Z"/><path class="cls-4" d="M675.27,432.28a1.94,1.94,0,0,1-1.65.2c-.56-.18-.73-.57-.38-.86a1.94,1.94,0,0,1,1.65-.2C675.44,431.61,675.62,432,675.27,432.28Z"/><path class="cls-4" d="M651.17,439.2a1.94,1.94,0,0,1-1.65.2c-.56-.18-.73-.57-.38-.86a1.94,1.94,0,0,1,1.65-.2C651.35,438.52,651.52,438.91,651.17,439.2Z"/><path class="cls-4" d="M668.35,400.35a1.94,1.94,0,0,1-1.65.2c-.56-.18-.73-.57-.38-.86a1.94,1.94,0,0,1,1.65-.2C668.52,399.67,668.7,400.06,668.35,400.35Z"/><path class="cls-4" d="M616.81,414.25a1.94,1.94,0,0,1-1.65.2c-.56-.18-.73-.57-.38-.86a1.94,1.94,0,0,1,1.65-.2C617,413.57,617.16,414,616.81,414.25Z"/><path class="cls-4" d="M558,433.94a1.94,1.94,0,0,1-1.65.2c-.56-.18-.73-.57-.38-.86a1.94,1.94,0,0,1,1.65-.2C558.17,433.27,558.34,433.65,558,433.94Z"/><path class="cls-4" d="M533,437.24a1.94,1.94,0,0,1-1.65.2c-.56-.18-.73-.57-.38-.86a1.94,1.94,0,0,1,1.65-.2C533.19,436.56,533.36,436.95,533,437.24Z"/><path class="cls-4" d="M506.08,440.39a1.94,1.94,0,0,1-1.65.2c-.56-.18-.73-.57-.38-.86a1.94,1.94,0,0,1,1.65-.2C506.26,439.71,506.43,440.1,506.08,440.39Z"/><path class="cls-4" d="M498.14,417.5a1.94,1.94,0,0,1-1.65.2c-.56-.18-.73-.57-.38-.86a1.94,1.94,0,0,1,1.65-.2C498.32,416.82,498.49,417.2,498.14,417.5Z"/><path class="cls-4" d="M479.27,406.57a1.94,1.94,0,0,1-1.65.2c-.56-.18-.73-.57-.38-.86a1.94,1.94,0,0,1,1.65-.2C479.45,405.89,479.62,406.28,479.27,406.57Z"/><path class="cls-4" d="M500,385.64a1.94,1.94,0,0,1-1.65.2c-.56-.18-.73-.57-.38-.86a1.94,1.94,0,0,1,1.65-.2C500.17,385,500.34,385.35,500,385.64Z"/><path class="cls-4" d="M490.77,388.34a1.94,1.94,0,0,1-1.65.2c-.56-.18-.73-.57-.38-.86a1.94,1.94,0,0,1,1.65-.2C491,387.67,491.12,388.05,490.77,388.34Z"/><path class="cls-4" d="M507.18,374.17a1.94,1.94,0,0,1-1.65.2c-.56-.18-.73-.57-.38-.86a1.94,1.94,0,0,1,1.65-.2C507.36,373.49,507.53,373.88,507.18,374.17Z"/><path class="cls-4" d="M559.51,381.24a1.94,1.94,0,0,1-1.65.2c-.56-.18-.73-.57-.38-.86a1.94,1.94,0,0,1,1.65-.2C559.69,380.56,559.86,380.95,559.51,381.24Z"/><path class="cls-4" d="M639.83,379.87a1.94,1.94,0,0,1-1.65.2c-.56-.18-.73-.57-.38-.86a1.94,1.94,0,0,1,1.65-.2C640,379.19,640.18,379.58,639.83,379.87Z"/><path class="cls-4" d="M619.78,380.8a1.94,1.94,0,0,1-1.65.2c-.56-.18-.73-.57-.38-.86a1.94,1.94,0,0,1,1.65-.2C620,380.12,620.13,380.5,619.78,380.8Z"/><path class="cls-4" d="M625.36,410.51a1.94,1.94,0,0,1-1.65.2c-.56-.18-.73-.57-.38-.86a1.94,1.94,0,0,1,1.65-.2C625.54,409.84,625.71,410.22,625.36,410.51Z"/><path class="cls-4" d="M591.46,435.49a1.94,1.94,0,0,1-1.65.2c-.56-.18-.73-.57-.38-.86a1.94,1.94,0,0,1,1.65-.2C591.64,434.81,591.81,435.2,591.46,435.49Z"/><path class="cls-4" d="M574.26,448.2a1.94,1.94,0,0,1-1.65.2c-.56-.18-.73-.57-.38-.86a1.94,1.94,0,0,1,1.65-.2C574.44,447.52,574.61,447.9,574.26,448.2Z"/><path class="cls-4" d="M617.07,435.14a1.94,1.94,0,0,1-1.65.2c-.56-.18-.73-.57-.38-.86a1.94,1.94,0,0,1,1.65-.2C617.25,434.46,617.42,434.85,617.07,435.14Z"/><path class="cls-4" d="M611.3,467.68a1.94,1.94,0,0,1-1.65.2c-.56-.18-.73-.57-.38-.86a1.94,1.94,0,0,1,1.65-.2C611.48,467,611.65,467.39,611.3,467.68Z"/><path class="cls-4" d="M620.34,481a1.94,1.94,0,0,1-1.65.2c-.56-.18-.73-.57-.38-.86a1.94,1.94,0,0,1,1.65-.2C620.52,480.32,620.69,480.7,620.34,481Z"/><path class="cls-4" d="M677.94,486.56a1.94,1.94,0,0,1-1.65.2c-.56-.18-.73-.57-.38-.86a1.94,1.94,0,0,1,1.65-.2C678.12,485.88,678.29,486.27,677.94,486.56Z"/><path class="cls-4" d="M693.65,498.9a1.94,1.94,0,0,1-1.65.2c-.56-.18-.73-.57-.38-.86a1.94,1.94,0,0,1,1.65-.2C693.83,498.23,694,498.61,693.65,498.9Z"/><path class="cls-4" d="M738.69,508.27a1.94,1.94,0,0,1-1.65.2c-.56-.18-.73-.57-.38-.86a1.94,1.94,0,0,1,1.65-.2C738.87,507.59,739,508,738.69,508.27Z"/><path class="cls-4" d="M758.5,510.61a1.94,1.94,0,0,1-1.65.2c-.56-.18-.73-.57-.38-.86a1.94,1.94,0,0,1,1.65-.2C758.68,509.93,758.85,510.31,758.5,510.61Z"/><path class="cls-4" d="M776.89,514.74a1.94,1.94,0,0,1-1.65.2c-.56-.18-.73-.57-.38-.86a1.94,1.94,0,0,1,1.65-.2C777.07,514.06,777.24,514.45,776.89,514.74Z"/><path class="cls-4" d="M754.37,505.66a1.94,1.94,0,0,1-1.65.2c-.56-.18-.73-.57-.38-.86a1.94,1.94,0,0,1,1.65-.2C754.55,505,754.72,505.37,754.37,505.66Z"/><path class="cls-4" d="M646.78,493.84a1.94,1.94,0,0,1-1.65.2c-.56-.18-.73-.57-.38-.86a1.94,1.94,0,0,1,1.65-.2C647,493.17,647.13,493.55,646.78,493.84Z"/><path class="cls-4" d="M570,499.33a1.94,1.94,0,0,1-1.65.2c-.56-.18-.73-.57-.38-.86a1.94,1.94,0,0,1,1.65-.2C570.18,498.65,570.35,499,570,499.33Z"/><path class="cls-4" d="M506.35,504.81a1.94,1.94,0,0,1-1.65.2c-.56-.18-.73-.57-.38-.86A1.94,1.94,0,0,1,506,504C506.53,504.14,506.7,504.52,506.35,504.81Z"/><path class="cls-4" d="M458,509.68a1.94,1.94,0,0,1-1.65.2c-.56-.18-.73-.57-.38-.86a1.94,1.94,0,0,1,1.65-.2C458.18,509,458.35,509.39,458,509.68Z"/><path class="cls-4" d="M408.56,516.44a1.94,1.94,0,0,1-1.65.2c-.56-.18-.73-.57-.38-.86a1.94,1.94,0,0,1,1.65-.2C408.74,515.76,408.91,516.15,408.56,516.44Z"/><path class="cls-4" d="M388.41,519.06a1.94,1.94,0,0,1-1.65.2c-.56-.18-.73-.57-.38-.86a1.94,1.94,0,0,1,1.65-.2C388.59,518.38,388.76,518.77,388.41,519.06Z"/><path class="cls-4" d="M437.31,493.63a1.94,1.94,0,0,1-1.65.2c-.56-.18-.73-.57-.38-.86a1.94,1.94,0,0,1,1.65-.2C437.49,493,437.66,493.34,437.31,493.63Z"/><path class="cls-4" d="M408.53,464a1.94,1.94,0,0,1-1.65.2c-.56-.18-.73-.57-.38-.86a1.94,1.94,0,0,1,1.65-.2C408.71,463.35,408.88,463.74,408.53,464Z"/><path class="cls-4" d="M392.53,453.62a1.94,1.94,0,0,1-1.65.2c-.56-.18-.73-.57-.38-.86a1.94,1.94,0,0,1,1.65-.2C392.71,452.94,392.88,453.32,392.53,453.62Z"/><path class="cls-4" d="M364.52,470.64a1.94,1.94,0,0,1-1.65.2c-.56-.18-.73-.57-.38-.86a1.94,1.94,0,0,1,1.65-.2C364.7,470,364.87,470.35,364.52,470.64Z"/><path class="cls-4" d="M341.66,493.91a1.94,1.94,0,0,1-1.65.2c-.56-.18-.73-.57-.38-.86a1.94,1.94,0,0,1,1.65-.2C341.84,493.23,342,493.62,341.66,493.91Z"/><path class="cls-4" d="M351.63,495.57a1.94,1.94,0,0,1-1.65.2c-.56-.18-.73-.57-.38-.86a1.94,1.94,0,0,1,1.65-.2C351.81,494.89,352,495.27,351.63,495.57Z"/><path class="cls-4" d="M388.84,482.54a1.94,1.94,0,0,1-1.65.2c-.56-.18-.73-.57-.38-.86a1.94,1.94,0,0,1,1.65-.2C389,481.86,389.19,482.25,388.84,482.54Z"/><path class="cls-4" d="M311.84,489a1.94,1.94,0,0,1-1.65.2c-.56-.18-.73-.57-.38-.86a1.94,1.94,0,0,1,1.65-.2C312,488.3,312.19,488.68,311.84,489Z"/><path class="cls-4" d="M264,493a1.94,1.94,0,0,1-1.65.2c-.56-.18-.73-.57-.38-.86a1.94,1.94,0,0,1,1.65-.2C264.23,492.28,264.4,492.67,264,493Z"/><path class="cls-4" d="M215.65,509.18a1.94,1.94,0,0,1-1.65.2c-.56-.18-.73-.57-.38-.86a1.94,1.94,0,0,1,1.65-.2C215.83,508.5,216,508.89,215.65,509.18Z"/><path class="cls-4" d="M182.23,507.56a1.94,1.94,0,0,1-1.65.2c-.56-.18-.73-.57-.38-.86a1.94,1.94,0,0,1,1.65-.2C182.41,506.88,182.58,507.27,182.23,507.56Z"/><path class="cls-4" d="M130.87,516.2a1.94,1.94,0,0,1-1.65.2c-.56-.18-.73-.57-.38-.86a1.94,1.94,0,0,1,1.65-.2C131,515.53,131.22,515.91,130.87,516.2Z"/><path class="cls-4" d="M204.79,490.68a1.94,1.94,0,0,1-1.65.2c-.56-.18-.73-.57-.38-.86a1.94,1.94,0,0,1,1.65-.2C205,490,205.14,490.39,204.79,490.68Z"/><path class="cls-4" d="M235.93,487.78a1.94,1.94,0,0,1-1.65.2c-.56-.18-.73-.57-.38-.86a1.94,1.94,0,0,1,1.65-.2C236.11,487.1,236.28,487.49,235.93,487.78Z"/><path class="cls-4" d="M796.8,374.43a1.94,1.94,0,0,1-1.65.2c-.56-.18-.73-.57-.38-.86a1.94,1.94,0,0,1,1.65-.2C797,373.75,797.15,374.14,796.8,374.43Z"/><path class="cls-4" d="M782.14,327.09a1.94,1.94,0,0,1-1.65.2c-.56-.18-.73-.57-.38-.86a1.94,1.94,0,0,1,1.65-.2C782.32,326.41,782.49,326.79,782.14,327.09Z"/><path class="cls-4" d="M734.43,326.17a1.94,1.94,0,0,1-1.65.2c-.56-.18-.73-.57-.38-.86a1.94,1.94,0,0,1,1.65-.2C734.61,325.49,734.78,325.88,734.43,326.17Z"/><path class="cls-4" d="M687.27,339.86a1.94,1.94,0,0,1-1.65.2c-.56-.18-.73-.57-.38-.86a1.94,1.94,0,0,1,1.65-.2C687.45,339.18,687.62,339.56,687.27,339.86Z"/><path class="cls-4" d="M648.33,336.95a1.94,1.94,0,0,1-1.65.2c-.56-.18-.73-.57-.38-.86a1.94,1.94,0,0,1,1.65-.2C648.51,336.27,648.68,336.66,648.33,336.95Z"/><path class="cls-4" d="M118.59,403.13a1.94,1.94,0,0,1-1.65.2c-.56-.18-.73-.57-.38-.86a1.94,1.94,0,0,1,1.65-.2C118.77,402.45,118.94,402.83,118.59,403.13Z"/><path class="cls-4" d="M90.42,397a1.94,1.94,0,0,1-1.65.2c-.56-.18-.73-.57-.38-.86a1.94,1.94,0,0,1,1.65-.2C90.6,396.32,90.77,396.7,90.42,397Z"/><path class="cls-4" d="M65.43,387.9a1.94,1.94,0,0,1-1.65.2c-.56-.18-.73-.57-.38-.86A1.94,1.94,0,0,1,65,387C65.61,387.22,65.78,387.61,65.43,387.9Z"/><path class="cls-4" d="M43.56,396.7a1.94,1.94,0,0,1-1.65.2c-.56-.18-.73-.57-.38-.86a1.94,1.94,0,0,1,1.65-.2C43.74,396,43.91,396.4,43.56,396.7Z"/><path class="cls-4" d="M39.55,467.86a1.94,1.94,0,0,1-1.65.2c-.56-.18-.73-.57-.38-.86a1.94,1.94,0,0,1,1.65-.2C39.73,467.19,39.9,467.57,39.55,467.86Z"/><path class="cls-4" d="M41.83,491.95a1.94,1.94,0,0,1-1.65.2c-.56-.18-.73-.57-.38-.86a1.94,1.94,0,0,1,1.65-.2C42,491.27,42.18,491.65,41.83,491.95Z"/><path class="cls-4" d="M42.6,497.12a1.94,1.94,0,0,1-1.65.2c-.56-.18-.73-.57-.38-.86a1.94,1.94,0,0,1,1.65-.2C42.78,496.45,42.95,496.83,42.6,497.12Z"/></g></pattern><linearGradient id="New_Gradient_Swatch_3-2" x1="189.75" y1="295.43" x2="912.22" y2="295.43" gradientTransform="matrix(1, 0, 0, 1, 0, 0)" xlink:href="#New_Gradient_Swatch_3"/></defs><title>contact</title><g class="cls-5"><g id="Layer_1" data-name="Layer 1"><g class="cls-6"><path class="cls-7" d="M5.27-.9C-7.29.3,7.15,54.86,9.29,59.77c11.14,25.47,31,46.79,53,63.42,38.93,29.51,85.73,46.37,124.85,75.5,39.45,29.37,59.71,67.55,80,111.32,17,36.64,38.59,75,75.58,91.22,90.23,39.66,174-31.63,257.21-52.59,39.94-10.06,73.66,2.2,97,36.93,15.48,23.08,23.62,50.14,34,75.94s23.94,51.67,46.68,67.64C801.17,545.74,878.73,557.58,890.9,518L837.1-76.21Z"/><path class="cls-8" d="M22.27-3.9c-12.56,1.19,1.88,55.76,4,60.67,11.14,25.47,31,46.79,53,63.42,38.93,29.51,85.73,46.37,124.85,75.5,39.45,29.37,59.71,67.55,80,111.32,17,36.64,38.59,75,75.58,91.22,90.23,39.66,174-31.63,257.21-52.59,39.94-10.06,73.66,2.2,97,36.93,15.48,23.08,23.62,50.14,34,75.94s23.94,51.67,46.68,67.64c23.62,16.59,101.18,28.43,113.35-11.18L854.1-79.21Z"/><path class="cls-9" d="M210.65-35.75S127,68.15,244.38,168c25.22,21.45,50.53,42.8,76.45,63.42,18.4,14.64,39.37,27,56.39,43.24,11.67,11.15,21.27,25.06,24.64,40.85C411.07,358.59,373,398.33,386,441c8,26,27.56,50.13,48.59,67,15.5,12.46,21.19,34.19,19,53.33-1.12,9.55-4.18,19.16-9.79,27.05-1.75,2.47-7.83,6.8-8.34,9.56-.74,4,4.56,13.89,6.27,17.77,2.38,5.42,7,10.66,12.87,10.82,3.44.09,6.67-1.56,9.61-3.35,12.26-7.46,19.73-21.31,32.45-27.47,12.33-6,26.85-2.28,40.44-.6,25.76,3.18,53.1-1.86,74.06-17.17,17.24-12.59,29.25-31.3,37.15-51.14,10.1-25.35,11.78-52.79,23.49-77.39,18.73-39.33,53.9-69.4,98.47-72.64,13.89-1,29.46,0,39.84-9.31,7.64-6.83,10.35-17.75,10.23-28-.38-31.62-11.11-56.49,13.82-82.24,9.22-9.53,20.74-16.68,32.64-22.36,3.1-1.48,37.43-13,37.43-13V-35.75Z"/><path class="cls-10" d="M218.64-35.75S135,68.15,252.38,168c25.22,21.45,50.53,42.8,76.45,63.42,18.4,14.64,39.37,27,56.39,43.24,11.67,11.15,21.27,25.06,24.64,40.85C419.07,358.59,381,398.33,394,441c8,26,27.56,50.13,48.59,67,15.5,12.46,21.19,34.19,19,53.33-1.12,9.55-4.18,19.16-9.79,27.05-1.75,2.47-7.83,6.8-8.34,9.56-.74,4,4.56,13.89,6.27,17.77,2.38,5.42,7,10.66,12.87,10.82,3.44.09,6.67-1.56,9.61-3.35,12.26-7.46,19.73-21.31,32.45-27.47,12.33-6,26.85-2.28,40.44-.6,25.76,3.18,53.1-1.86,74.06-17.17,17.24-12.59,29.25-31.3,37.15-51.14,10.1-25.35,11.78-52.79,23.49-77.39,18.73-39.33,53.9-69.4,98.47-72.64,13.89-1,29.46,0,39.84-9.31,7.64-6.83,10.35-17.75,10.23-28-.38-31.62-11.11-56.49,13.82-82.24,9.22-9.53,20.74-16.68,32.64-22.36,3.1-1.48,37.43-13,37.43-13V-35.75Z"/><g id="Moon"><g id="Moon-2" data-name="Moon"><circle class="cls-11" cx="737.13" cy="75.78" r="115.12"/><path class="cls-12" d="M772.68-33.74A115.15,115.15,0,0,1,647.31,147.77,115.13,115.13,0,1,0,772.68-33.74Z"/><circle class="cls-13" cx="667.95" cy="93.34" r="14.9"/><g class="cls-12"><path d="M671.64,82.3a14.84,14.84,0,0,1,8.76,2.85,14.9,14.9,0,1,0-21.21,20.24A14.9,14.9,0,0,1,671.64,82.3Z"/></g><circle class="cls-13" cx="720.08" cy="129.78" r="14.9"/><g class="cls-12"><path d="M723.77,118.74a14.83,14.83,0,0,1,8.76,2.85,14.9,14.9,0,1,0-21.21,20.24,14.9,14.9,0,0,1,12.45-23.09Z"/></g><circle class="cls-13" cx="691.38" cy="8.45" r="8.53"/><g class="cls-12"><path d="M693.49,2.13a8.49,8.49,0,0,1,5,1.63,8.53,8.53,0,1,0-12.14,11.58,8.53,8.53,0,0,1,7.13-13.21Z"/></g><circle class="cls-13" cx="644.84" cy="32.73" r="4.48"/><g class="cls-12"><path d="M646,29.41a4.46,4.46,0,0,1,2.63.86,4.48,4.48,0,1,0-6.38,6.08A4.48,4.48,0,0,1,646,29.41Z"/></g><circle class="cls-13" cx="663.47" cy="131.87" r="4.48"/><g class="cls-12"><path d="M664.58,128.55a4.46,4.46,0,0,1,2.63.86,4.48,4.48,0,1,0-6.38,6.08,4.48,4.48,0,0,1,3.74-6.94Z"/></g><circle class="cls-13" cx="705.18" cy="163.03" r="4.48"/><g class="cls-12"><path d="M706.29,159.71a4.46,4.46,0,0,1,2.63.86,4.48,4.48,0,1,0-6.38,6.08,4.48,4.48,0,0,1,3.74-6.94Z"/></g></g></g><path class="cls-4" d="M423.27,185.06s-28.4,13.17-20.83,29.42c14.31,30.72,50.94,121.18,113.46,226,0,0,1.89,17.85,6.25,31.56a11.14,11.14,0,0,0,18.75,4.18c9.15-9.92,23.66-28.56,14.9-51.16C540,384.31,514.46,346.5,508.5,332.33c-2.54-6,2.27-16.88,10.7-3.12s44.29,85.86,50.52,96.56c4,6.93,4.65,20,6.55,31.64a9.85,9.85,0,0,0,17.06,4.94c10.53-11.74,32.79-37.37,16.2-61.16-46.24-66.31-87.59-178-96.85-198s-30.08-52-55.76-39.35Z"/><path class="cls-14" d="M416.19,174.22a55.16,55.16,0,0,1,5.56,11.21s21.3-2.45,29-18.34l-5-9Z"/><circle class="cls-4" cx="412.96" cy="134.62" r="43.44" transform="translate(138.34 471.14) rotate(-68.84)"/><ellipse class="cls-15" cx="396.83" cy="141.75" rx="27.67" ry="30.97" transform="translate(-24.18 123.9) rotate(-17.23)"/><ellipse class="cls-16" cx="444.07" cy="131.36" rx="10.47" ry="9.57" transform="translate(161.25 498.06) rotate(-68.84)"/><ellipse class="cls-15" cx="446.18" cy="132.18" rx="10.47" ry="9.57" transform="translate(161.84 500.56) rotate(-68.84)"/><ellipse class="cls-4" cx="447.93" cy="132.68" rx="5.98" ry="5.47" transform="translate(162.53 502.53) rotate(-68.84)"/><path class="cls-17" d="M401,103.18A35.73,35.73,0,0,0,381.24,105a43.13,43.13,0,0,0-5.24,6.87,32.31,32.31,0,0,1,24.34-5.1c19.74,3.59,31.31,21.3,27.52,42.11C424.74,166,415.45,174.73,399,175.69a43.4,43.4,0,0,0,9.47,2.1c12.58-3.51,20.19-12.86,23-28.29C435.59,126.63,422.79,107.15,401,103.18Z"/><path class="cls-4" d="M410.47,197.39s-46.47,56.8-31,154.49l22.4-5.52s-4.52-65.11,28.29-92.63Z"/><path class="cls-4" d="M401.82,346.37s11.3,29.07,7.73,32.11-8.25-5-8.25-5-1,4.57-5.11,5.58-5.69-7.78-5.69-7.78-1.42,5.21-5.61,5.7-5.47-25.11-5.47-25.11Z"/><path class="cls-4" d="M492.3,222.86s51.24-52.54,44.37-151.21L513.88,75.2s-1.16,65.26-36.24,89.82Z"/><path class="cls-4" d="M513.88,75.2S505.16,45.26,509,42.55s7.78,5.69,7.78,5.69,1.43-4.47,5.57-5.11,5,8.24,5,8.24,1.86-5.06,6.09-5.19,3.26,25.49,3.26,25.49Z"/><path class="cls-15" d="M486.67,265.58l-25.77,12a15.32,15.32,0,0,1-20.34-7.39l-13.79-29.5a15.32,15.32,0,0,1,7.38-20.35l25.77-12a15.32,15.32,0,0,1,20.35,7.38l13.79,29.5A15.32,15.32,0,0,1,486.67,265.58Zm-50.19-40.21a9.82,9.82,0,0,0-4.73,13l13.79,29.5a9.82,9.82,0,0,0,13,4.74l25.77-12a9.82,9.82,0,0,0,4.73-13l-13.79-29.5a9.82,9.82,0,0,0-13-4.73Z"/><path class="cls-18" d="M452.4,249a6.19,6.19,0,0,1-8.22-3l-4.07-8.71a6.18,6.18,0,0,1,11.2-5.23l4.07,8.71A6.19,6.19,0,0,1,452.4,249Zm-8.14-17.42a3.43,3.43,0,0,0-1.66,4.56l4.07,8.71a3.43,3.43,0,1,0,6.22-2.91l-4.07-8.71A3.43,3.43,0,0,0,444.26,231.59Z"/><path class="cls-18" d="M464.4,230.9a5.84,5.84,0,1,1,2.82-7.76A5.84,5.84,0,0,1,464.4,230.9Zm-3.78-8.09a3.09,3.09,0,1,0,4.11,1.49A3.09,3.09,0,0,0,460.61,222.81Z"/><path class="cls-18" d="M470.21,243.34a5.84,5.84,0,1,1,2.82-7.76A5.84,5.84,0,0,1,470.21,243.34Zm-3.78-8.09a3.09,3.09,0,1,0,4.11,1.49A3.09,3.09,0,0,0,466.43,235.25Z"/><path class="cls-18" d="M476,255.78a5.84,5.84,0,1,1,2.82-7.76A5.84,5.84,0,0,1,476,255.78Zm-3.78-8.09a3.09,3.09,0,1,0,4.11,1.49A3.09,3.09,0,0,0,472.25,247.69Z"/><path class="cls-18" d="M462.52,262.85l-4.13,1.93a6.31,6.31,0,0,1-8.38-3l-.19-.4a6.31,6.31,0,0,1,3-8.38L457,251a6.31,6.31,0,0,1,8.38,3l.19.4A6.31,6.31,0,0,1,462.52,262.85Zm-8.49-7.4a3.56,3.56,0,0,0-1.72,4.73l.19.4a3.56,3.56,0,0,0,4.73,1.72l4.13-1.93a3.56,3.56,0,0,0,1.72-4.73l-.19-.4a3.56,3.56,0,0,0-4.73-1.71Z"/><path class="cls-18" d="M575.53,343.83l-1.95-3.77c-17.81,4.77-30.46,16.08-36.7,22.24l2,3.84C544.56,360.42,557.33,348.43,575.53,343.83ZM376.36,316.9a74.08,74.08,0,0,0,25.41,14c.05-1.34.11-2.7.2-4.17-10.82-3.44-19.39-9.67-25.63-15.23C376.34,313.3,376.33,315.08,376.36,316.9Zm127.3,102.61,2.09,3.63c8.88-7.51,23.17-16.83,41.68-17.67-.62-1.33-1.23-2.67-1.86-4C527,402.82,512.75,411.94,503.66,419.52Zm19-61.14-2.28-4c-18.91,1.18-33.47,10.53-42.64,18.21l2,3.72C488.69,368.64,503.44,358.93,522.62,358.38ZM512.2,93.57c-.19,1.31-.4,2.68-.63,4.08,6.67,2,15.27,7,24.27,18.52.21-1.9.4-3.81.57-5.76C527.53,100.17,519,95.49,512.2,93.57ZM564.48,416l2,3.81c6.17-6.16,20.18-19.17,40.11-22.94-.83-1.23-1.66-2.47-2.49-3.73C584.81,397.34,571.13,409.48,564.48,416Zm-180-163.34a130.06,130.06,0,0,0,24.84,34c.48-1.43,1.05-2.83,1.6-4.24a124.37,124.37,0,0,1-24.64-35.86C385.63,248.55,385,250.6,384.45,252.68ZM499.4,138q-.92,1.87-1.91,3.71c7.43,2.05,17.4,7.81,27.7,22.46.54-1.56,1.05-3.16,1.57-4.77C516.81,146.13,507.09,140.3,499.4,138Z"/><path class="cls-4" d="M1637.57-267.82C1580.12-151.16,1428.88-74,1285.78-88.26,1121.58-104.68,1105.46,28.26,1088.41,169c-9.84,81.18-20,165.13-58.29,227.5-19.76,32.18-42.66,49.67-70,53.47-65.84,9.26-144.94-64.07-215-128.61C705.44,284.82,668,250.3,636.48,233.71c-110.63-58.3-156.62,17.38-157.08,18.15l5.9,3.46c.42-.72,43.06-70.85,148-15.56,30.71,16.18,67.85,50.4,107.18,86.63C810.62,391,890,464.14,958.06,457.1c1-.11,2-.23,3-.36,29.11-4,54.31-23.1,74.91-56.66,39.06-63.63,49.33-148.34,59.26-230.25,17.36-143.28,32.3-267,189.91-251.28,145.79,14.57,300-64.26,358.6-183.35,33.89-68.83,29.13-137.39-12.8-196l-8,.83C1665.42-402.76,1670.87-335.44,1637.57-267.82Z"/><circle class="cls-15" cx="217.91" cy="92.65" r="45.66" transform="translate(83.64 287.69) rotate(-78.49)"/><path class="cls-19" d="M227,47.91c-1.39-.28-2.78-.49-4.16-.64a45.65,45.65,0,0,1-18.14,89.09c1.33.4,2.69.75,4.08,1A45.66,45.66,0,1,0,227,47.91Z"/><path class="cls-20" d="M201.93,57.58a2.52,2.52,0,0,1-.46-4.8,42.61,42.61,0,0,1,18.83-3.2,2.52,2.52,0,1,1-.28,5,37.61,37.61,0,0,0-16.62,2.83A2.51,2.51,0,0,1,201.93,57.58Z"/><path class="cls-21" d="M263,85.62a45.3,45.3,0,0,1,.49,4.67c14.07,5.57,22.56,11.32,21.68,15.64-1.59,7.83-33.34,8-70.92.32s-66.74-20.2-65.14-28c.91-4.48,11.73-6.44,27.86-5.86a45.25,45.25,0,0,1,2.25-4c-26.49-2.26-45.18-.08-46.52,6.53-2,9.71,34.22,25.29,80.86,34.78s86,9.32,88-.39C302.92,102.8,287.33,93.75,263,85.62Z"/><circle class="cls-20" cx="196.15" cy="58.34" r="3.14" transform="translate(99.85 238.9) rotate(-78.49)"/><circle class="cls-22" cx="734.08" cy="446.5" r="49.88" transform="translate(117.4 1044.79) rotate(-75.44)"/><path class="cls-21" d="M685.17,456.36c14.18.48,52.69-.87,96.56-24.62A50.14,50.14,0,0,0,774,416.53c-14.25,9.8-46.84,28-89.56,25.44A49.52,49.52,0,0,0,685.17,456.36Z"/><path class="cls-21" d="M782.36,459a49.85,49.85,0,0,0,1.54-15.24c-11.26,8.44-45.78,30.81-92.62,28.31a50.06,50.06,0,0,0,7.83,10c14.8.1,45.93-2.15,82-19.07Q781.83,461.07,782.36,459Z"/><path class="cls-21" d="M764.78,407.17a49.91,49.91,0,0,0-76.29,19.07C704.84,425.69,732.88,422.16,764.78,407.17Z"/><circle class="cls-23" cx="703.15" cy="446.33" r="6.46" transform="translate(94.41 1014.72) rotate(-75.44)"/><g class="cls-12"><path d="M705.9,442.11a6.43,6.43,0,0,1,3.36,2.15,6.46,6.46,0,1,0-11.1,6.18,6.46,6.46,0,0,1,7.74-8.33Z"/></g><g class="cls-12"><path class="cls-23" d="M697.9,460.74a1.93,1.93,0,0,1,1,.65,1.94,1.94,0,1,0-3.34,1.86,1.94,1.94,0,0,1,2.33-2.5Z"/></g><g class="cls-12"><path class="cls-23" d="M712,478.35a1.94,1.94,0,0,1,1,.65,1.94,1.94,0,1,0-3.34,1.86,1.94,1.94,0,0,1,2.33-2.5Z"/></g><path class="cls-12" d="M765.89,408.33A49.89,49.89,0,0,1,687.28,464a49.89,49.89,0,1,0,78.61-55.71Z"/></g><g id="Star" class="cls-24"><path class="cls-4" d="M305.65,227.49A10.63,10.63,0,0,1,294.94,238a10.63,10.63,0,0,1,10.55,10.7,10.63,10.63,0,0,1,10.7-10.55A10.63,10.63,0,0,1,305.65,227.49Z"/><path class="cls-4" d="M544.41,161.68a10.63,10.63,0,0,1-10.7,10.55,10.63,10.63,0,0,1,10.55,10.7A10.63,10.63,0,0,1,555,172.39,10.63,10.63,0,0,1,544.41,161.68Z"/><path class="cls-4" d="M340.94.1a22.34,22.34,0,0,1-22.5,22.18,22.34,22.34,0,0,1,22.18,22.5,22.34,22.34,0,0,1,22.5-22.18A22.34,22.34,0,0,1,340.94.1Z"/></g><g id="Star-2" data-name="Star" class="cls-24"><path class="cls-4" d="M481.71,489.55a20.91,20.91,0,0,1,14.74-25.63,20.91,20.91,0,0,1-25.63-14.74,20.91,20.91,0,0,1-14.74,25.63A20.91,20.91,0,0,1,481.71,489.55Z"/><path class="cls-4" d="M602.65,318.77a16.82,16.82,0,0,1,.94-23.77,16.82,16.82,0,0,1-23.77-.94,16.82,16.82,0,0,1-.94,23.77A16.82,16.82,0,0,1,602.65,318.77Z"/><path class="cls-4" d="M667.81,559.45a10.59,10.59,0,0,1-7.38-13,10.59,10.59,0,0,1-13,7.38,10.59,10.59,0,0,1,7.38,13A10.59,10.59,0,0,1,667.81,559.45Z"/><path class="cls-4" d="M703.85,355.74a10.59,10.59,0,0,1,12.63-8,10.59,10.59,0,0,1-8-12.63,10.59,10.59,0,0,1-12.63,8A10.59,10.59,0,0,1,703.85,355.74Z"/><path class="cls-4" d="M494,392.74a10.59,10.59,0,0,1,.59-15,10.59,10.59,0,0,1-15-.59,10.59,10.59,0,0,1-.59,15A10.59,10.59,0,0,1,494,392.74Z"/></g></g></g></svg>