<svg xmlns="http://www.w3.org/2000/svg" xmlns:xlink="http://www.w3.org/1999/xlink" viewBox="0 0 712 555"><defs><style>.cls-1{isolation:isolate;}.cls-2{fill:#c62a6a;}.cls-3{fill:url(#linear-gradient);}.cls-4{opacity:0.6;}.cls-5{fill:#fff;}.cls-6{fill:#ed2755;}.cls-7{fill:url(#New_Gradient_Swatch_3);}.cls-8{fill:#d1f4ff;}.cls-9{opacity:0.1;}.cls-10{fill:#a6cddd;}.cls-11{fill:#e7e7e7;}.cls-12{fill:#123456;}.cls-13{fill:#045379;}.cls-14{fill:#dcdcdc;}.cls-15{fill:#dadada;}.cls-16,.cls-17,.cls-18{fill:#f9dac9;}.cls-16{opacity:0.9;mix-blend-mode:multiply;}.cls-17{mix-blend-mode:soft-light;}.cls-19{fill:#fce8de;}.cls-20{fill:#f7bd9f;}.cls-21{opacity:0.5;}.cls-22{fill:none;}</style><linearGradient id="linear-gradient" x1="842.82" y1="431.57" x2="261.75" y2="-199.69" gradientUnits="userSpaceOnUse"><stop offset="0" stop-color="#ed2755"/><stop offset="0.64" stop-color="#f26a30"/><stop offset="1" stop-color="#f58b1e"/></linearGradient><linearGradient id="New_Gradient_Swatch_3" x1="189.75" y1="295.43" x2="912.22" y2="295.43" gradientUnits="userSpaceOnUse"><stop offset="0" stop-color="#ed2755"/><stop offset="0.17" stop-color="#ee3150"/><stop offset="0.46" stop-color="#f04b41"/><stop offset="0.83" stop-color="#f3752a"/><stop offset="1" stop-color="#f58b1e"/></linearGradient></defs><title>contact</title><g class="cls-1"><g id="Layer_1" data-name="Layer 1"><path class="cls-2" d="M5.27-.9C-7.29.3,7.15,54.86,9.29,59.77c11.14,25.48,31.05,46.79,53,63.42,38.94,29.51,85.73,46.37,124.86,75.5,39.44,29.38,59.7,67.55,80,111.32,17,36.64,38.59,75,75.58,91.22,90.23,39.66,174-31.63,257.2-52.59,39.95-10.06,73.67,2.2,97,36.93,15.48,23.08,23.61,50.14,34,75.93s23.94,51.67,46.68,67.65C801.17,545.74,878.73,557.58,890.9,518L837.1-76.21Z"/><path class="cls-3" d="M22.27-3.9c-12.56,1.2,1.87,55.76,4,60.67,11.14,25.48,31.05,46.79,53,63.42,38.93,29.51,85.73,46.37,124.85,75.5,39.45,29.38,59.71,67.55,80,111.32,17,36.65,38.59,75,75.58,91.22,90.23,39.66,174-31.63,257.2-52.59,39.94-10.06,73.66,2.2,97,36.93,15.49,23.08,23.62,50.14,34,75.93s23.94,51.67,46.68,67.65c23.62,16.59,101.17,28.43,113.34-11.19L854.1-79.21Z"/><g class="cls-4"><path class="cls-5" d="M99.94,16.46c.43.26.39.65-.11.88a2,2,0,0,1-1.69-.05c-.44-.26-.39-.65.1-.88A2.05,2.05,0,0,1,99.94,16.46Z"/><path class="cls-5" d="M110,43.25c.44.26.4.65-.1.88a2,2,0,0,1-1.69-.06c-.44-.25-.39-.65.1-.88A2,2,0,0,1,110,43.25Z"/><path class="cls-5" d="M130,54.92c.44.26.39.65-.1.88a2,2,0,0,1-1.69,0c-.44-.26-.4-.65.1-.88A2,2,0,0,1,130,54.92Z"/><path class="cls-5" d="M149.65,58.17c.44.26.39.65-.1.88a2.05,2.05,0,0,1-1.7-.06c-.43-.25-.39-.65.11-.88A2.07,2.07,0,0,1,149.65,58.17Z"/><path class="cls-5" d="M157.06,42.11c.44.25.39.65-.11.88a2,2,0,0,1-1.69-.06c-.43-.26-.39-.65.11-.88A2,2,0,0,1,157.06,42.11Z"/><path class="cls-5" d="M151.69,10.57c.43.26.39.66-.11.89a2.07,2.07,0,0,1-1.69-.06c-.44-.26-.39-.65.1-.88A2.09,2.09,0,0,1,151.69,10.57Z"/><path class="cls-5" d="M232.58,40.24a2,2,0,0,1-1.65.2c-.56-.18-.73-.57-.38-.86a2,2,0,0,1,1.65-.2C232.76,39.56,232.93,40,232.58,40.24Z"/><path class="cls-5" d="M125.12,22.25c.44.26.39.65-.11.88a2,2,0,0,1-1.69-.05c-.44-.26-.39-.66.11-.88A2,2,0,0,1,125.12,22.25Z"/><path class="cls-5" d="M68.78,1.14c.44.26.39.66-.1.88A2.05,2.05,0,0,1,67,2c-.43-.26-.39-.65.11-.88A2,2,0,0,1,68.78,1.14Z"/><path class="cls-5" d="M27.15,14.87c.44.26.39.66-.11.88a2,2,0,0,1-1.69-.05c-.44-.26-.39-.65.11-.88A2,2,0,0,1,27.15,14.87Z"/><path class="cls-5" d="M25.36,40.35c.44.25.39.65-.1.88a2,2,0,0,1-1.69-.06c-.44-.26-.39-.65.1-.88A2,2,0,0,1,25.36,40.35Z"/><path class="cls-5" d="M8.53,59.13c.43.26.39.65-.11.88a2,2,0,0,1-1.69,0c-.44-.26-.39-.66.1-.88A2.05,2.05,0,0,1,8.53,59.13Z"/><path class="cls-5" d="M45.18,37.44c.43.26.39.66-.11.88a2,2,0,0,1-1.69,0c-.44-.26-.39-.65.11-.88A2.07,2.07,0,0,1,45.18,37.44Z"/><path class="cls-5" d="M73.59,20c.44.26.39.66-.1.88a2,2,0,0,1-1.69-.05c-.44-.26-.39-.65.1-.88A2.07,2.07,0,0,1,73.59,20Z"/><path class="cls-5" d="M58.27,81.93c.44.26.4.65-.1.88a2,2,0,0,1-1.69,0c-.44-.26-.39-.65.1-.88A2,2,0,0,1,58.27,81.93Z"/><path class="cls-5" d="M98.87,52.59c.43.25.39.65-.11.88a2,2,0,0,1-1.69-.06c-.44-.26-.39-.65.1-.88A2.05,2.05,0,0,1,98.87,52.59Z"/><path class="cls-5" d="M119.24,40.37c.43.25.39.65-.11.88a2,2,0,0,1-1.69-.06c-.44-.26-.39-.65.1-.88A2.05,2.05,0,0,1,119.24,40.37Z"/><path class="cls-5" d="M56.78,101.52c.44.26.39.65-.1.88a2.05,2.05,0,0,1-1.7-.05c-.43-.26-.39-.66.11-.88A2,2,0,0,1,56.78,101.52Z"/><path class="cls-5" d="M41.9,113.76c.44.26.39.66-.1.89a2.07,2.07,0,0,1-1.69-.06c-.44-.26-.39-.65.1-.88A2.07,2.07,0,0,1,41.9,113.76Z"/><path class="cls-5" d="M96.88,153.92c.44.26.39.65-.1.88a2.09,2.09,0,0,1-1.7-.05c-.43-.26-.39-.66.11-.89A2.07,2.07,0,0,1,96.88,153.92Z"/><path class="cls-5" d="M97.29,161.06c.44.26.39.65-.1.88a2,2,0,0,1-1.69-.06c-.44-.25-.4-.65.1-.88A2,2,0,0,1,97.29,161.06Z"/><path class="cls-5" d="M30.4,85c.44.26.39.65-.1.88a2,2,0,0,1-1.69,0c-.44-.26-.39-.65.1-.88A2,2,0,0,1,30.4,85Z"/><path class="cls-5" d="M85.57,35.26c.44.26.39.65-.1.88a2.09,2.09,0,0,1-1.7,0c-.43-.26-.39-.66.11-.89A2.07,2.07,0,0,1,85.57,35.26Z"/><path class="cls-5" d="M60.34,40.73a2,2,0,0,1-1.65.2c-.56-.18-.73-.57-.38-.86a2,2,0,0,1,1.65-.2C60.52,40.05,60.69,40.44,60.34,40.73Z"/><path class="cls-5" d="M148.45,41a2,2,0,0,1-1.65.2c-.56-.19-.73-.57-.38-.86a1.89,1.89,0,0,1,1.65-.2C148.63,40.3,148.8,40.68,148.45,41Z"/><path class="cls-5" d="M169.9,51.55a2,2,0,0,1-1.65.2c-.56-.18-.73-.57-.38-.86a2,2,0,0,1,1.65-.2C170.08,50.87,170.25,51.26,169.9,51.55Z"/><path class="cls-5" d="M216.33,46.52a2,2,0,0,1-1.65.2c-.56-.19-.73-.57-.38-.86a1.89,1.89,0,0,1,1.65-.2C216.51,45.84,216.68,46.22,216.33,46.52Z"/><path class="cls-5" d="M220.56,61.57a2,2,0,0,1-1.65.2c-.56-.18-.73-.57-.38-.86a2,2,0,0,1,1.65-.2C220.74,60.89,220.91,61.28,220.56,61.57Z"/><path class="cls-5" d="M157.67,51c.44.26.39.65-.11.88a2.07,2.07,0,0,1-1.69,0c-.44-.26-.39-.66.11-.89A2.07,2.07,0,0,1,157.67,51Z"/><path class="cls-5" d="M88.14,116.75c.44.26.39.65-.1.88a2,2,0,0,1-1.69,0c-.44-.26-.39-.65.1-.88A2,2,0,0,1,88.14,116.75Z"/><path class="cls-5" d="M45.88,89.88c.44.26.39.65-.1.88a2.09,2.09,0,0,1-1.7-.05c-.43-.26-.39-.66.11-.89A2.07,2.07,0,0,1,45.88,89.88Z"/><path class="cls-5" d="M135.78,106.86c.44.25.39.65-.11.88a2,2,0,0,1-1.69-.06c-.44-.26-.39-.65.11-.88A2,2,0,0,1,135.78,106.86Z"/><path class="cls-5" d="M15.68,78.27a2,2,0,0,1-1.65.2c-.56-.19-.73-.57-.38-.86a1.89,1.89,0,0,1,1.65-.2C15.86,77.59,16,78,15.68,78.27Z"/><path class="cls-5" d="M129.09,66.38a1.92,1.92,0,0,1-1.65.2c-.56-.18-.73-.57-.38-.86a2,2,0,0,1,1.65-.2C129.27,65.71,129.44,66.09,129.09,66.38Z"/><path class="cls-5" d="M231.87,55.23a2,2,0,0,1-1.65.2c-.56-.19-.73-.57-.38-.86a1.89,1.89,0,0,1,1.65-.2C232.05,54.55,232.22,54.93,231.87,55.23Z"/><path class="cls-5" d="M267,72.84a2,2,0,0,1-1.65.2c-.56-.19-.74-.57-.39-.86a1.9,1.9,0,0,1,1.66-.2C267.15,72.16,267.32,72.54,267,72.84Z"/><path class="cls-5" d="M204.59,46.58a1.94,1.94,0,0,1-1.66.19c-.56-.18-.73-.56-.38-.86a1.92,1.92,0,0,1,1.65-.19C204.76,45.9,204.94,46.28,204.59,46.58Z"/><path class="cls-5" d="M55.71,62a2,2,0,0,1-1.65.2c-.56-.18-.73-.57-.38-.86a2,2,0,0,1,1.65-.2C55.89,61.28,56.06,61.67,55.71,62Z"/><path class="cls-5" d="M138.47,112.8c.43.26.39.66-.11.89a2.07,2.07,0,0,1-1.69-.06c-.44-.26-.39-.65.1-.88A2.09,2.09,0,0,1,138.47,112.8Z"/><path class="cls-5" d="M76.11,92.2c.44.26.4.65-.1.88a2,2,0,0,1-1.69,0c-.44-.26-.39-.66.1-.88A2,2,0,0,1,76.11,92.2Z"/><path class="cls-5" d="M100,79.41c.43.25.39.65-.11.88a2,2,0,0,1-1.69-.06c-.44-.25-.39-.65.1-.88A2.05,2.05,0,0,1,100,79.41Z"/><path class="cls-5" d="M59.14,56.24c.44.26.39.66-.11.88a2,2,0,0,1-1.69,0c-.44-.26-.39-.65.11-.88A2.07,2.07,0,0,1,59.14,56.24Z"/><path class="cls-5" d="M346.77,57.47a2,2,0,0,1-1.66.2c-.56-.18-.73-.57-.38-.86a2,2,0,0,1,1.65-.2C346.94,56.79,347.12,57.18,346.77,57.47Z"/><path class="cls-5" d="M385.54,84.21a1.92,1.92,0,0,1-1.65.19c-.56-.18-.74-.56-.39-.86a1.94,1.94,0,0,1,1.66-.19C385.72,83.53,385.89,83.91,385.54,84.21Z"/><path class="cls-5" d="M407.69,101.08a1.89,1.89,0,0,1-1.65.2c-.56-.18-.74-.56-.39-.86a2,2,0,0,1,1.66-.2C407.87,100.41,408,100.79,407.69,101.08Z"/><path class="cls-5" d="M406.7,40.29a1.89,1.89,0,0,1-1.65.2c-.56-.18-.74-.56-.38-.86a2,2,0,0,1,1.65-.2C406.88,39.62,407.05,40,406.7,40.29Z"/><path class="cls-5" d="M299.17,49.26a2,2,0,0,1-1.65.2c-.56-.19-.73-.57-.38-.86a1.89,1.89,0,0,1,1.65-.2C299.35,48.58,299.52,49,299.17,49.26Z"/><path class="cls-5" d="M281.1,51.22a2,2,0,0,1-1.65.2c-.56-.18-.74-.57-.39-.86a2,2,0,0,1,1.66-.2C281.28,50.54,281.45,50.93,281.1,51.22Z"/><path class="cls-5" d="M262.83,63.83a2,2,0,0,1-1.65.2c-.56-.18-.73-.57-.38-.86a2,2,0,0,1,1.65-.2C263,63.15,263.18,63.54,262.83,63.83Z"/><path class="cls-5" d="M181.21,86.37a2,2,0,0,1-1.65.2c-.56-.18-.73-.57-.38-.86a2,2,0,0,1,1.65-.2C181.39,85.69,181.56,86.08,181.21,86.37Z"/><path class="cls-5" d="M202.15,85.65a1.92,1.92,0,0,1-1.65.19c-.56-.18-.73-.56-.38-.86a1.92,1.92,0,0,1,1.65-.19C202.33,85,202.5,85.35,202.15,85.65Z"/><path class="cls-5" d="M255.43,98.29a1.92,1.92,0,0,1-1.65.2c-.56-.18-.74-.57-.39-.86a2,2,0,0,1,1.66-.2C255.61,97.62,255.78,98,255.43,98.29Z"/><path class="cls-5" d="M287.12,120.17a1.92,1.92,0,0,1-1.65.19c-.56-.18-.73-.56-.38-.86a1.92,1.92,0,0,1,1.65-.19C287.3,119.49,287.47,119.87,287.12,120.17Z"/><path class="cls-5" d="M322.65,87a1.89,1.89,0,0,1-1.65.2c-.56-.18-.73-.56-.38-.86a2,2,0,0,1,1.65-.2C322.83,86.36,323,86.74,322.65,87Z"/><path class="cls-5" d="M334.85,94.12a2,2,0,0,1-1.65.2c-.56-.18-.74-.57-.39-.86a2,2,0,0,1,1.66-.2C335,93.44,335.2,93.83,334.85,94.12Z"/><path class="cls-5" d="M362.84,119a2,2,0,0,1-1.65.2c-.56-.18-.74-.57-.38-.86a2,2,0,0,1,1.65-.2C363,118.32,363.19,118.71,362.84,119Z"/><path class="cls-5" d="M382.18,137.59a1.92,1.92,0,0,1-1.65.19c-.56-.18-.73-.56-.38-.86a1.92,1.92,0,0,1,1.65-.19C382.36,136.91,382.53,137.29,382.18,137.59Z"/><path class="cls-5" d="M315.94,110.13a2,2,0,0,1-1.65.2c-.57-.18-.74-.57-.39-.86a2,2,0,0,1,1.65-.2C316.12,109.45,316.29,109.84,315.94,110.13Z"/><path class="cls-5" d="M323.19,138.71a1.89,1.89,0,0,1-1.65.2c-.56-.18-.74-.56-.39-.86a2,2,0,0,1,1.66-.2C323.37,138,323.54,138.42,323.19,138.71Z"/><path class="cls-5" d="M380.62,73.7a2,2,0,0,1-1.65.2c-.56-.19-.73-.57-.38-.86a1.89,1.89,0,0,1,1.65-.2C380.8,73,381,73.4,380.62,73.7Z"/><path class="cls-5" d="M323.57,74.59a1.92,1.92,0,0,1-1.65.19c-.57-.18-.74-.56-.39-.86a2,2,0,0,1,1.65-.2C323.75,73.91,323.92,74.29,323.57,74.59Z"/><path class="cls-5" d="M112.74,137.65c.43.26.39.65-.11.88a2,2,0,0,1-1.69-.05c-.44-.26-.39-.66.11-.88A2,2,0,0,1,112.74,137.65Z"/><path class="cls-5" d="M106.52,121c.44.26.39.65-.1.88a2.09,2.09,0,0,1-1.7,0c-.43-.26-.39-.66.11-.88A2,2,0,0,1,106.52,121Z"/><path class="cls-5" d="M119.75,103.4c.44.26.39.65-.1.88a2,2,0,0,1-1.69-.06c-.44-.25-.4-.65.1-.88A2,2,0,0,1,119.75,103.4Z"/><path class="cls-5" d="M161.73,66a2,2,0,0,1-1.66.2c-.56-.19-.73-.57-.38-.86a1.89,1.89,0,0,1,1.65-.2C161.9,65.29,162.08,65.67,161.73,66Z"/><path class="cls-5" d="M183.12,39.48a2,2,0,0,1-1.65.2c-.56-.18-.73-.57-.38-.86a2,2,0,0,1,1.65-.2C183.3,38.8,183.47,39.19,183.12,39.48Z"/><path class="cls-5" d="M103.48,71.47a2,2,0,0,1-1.65.2c-.56-.19-.73-.57-.38-.86a1.89,1.89,0,0,1,1.65-.2C103.66,70.79,103.83,71.17,103.48,71.47Z"/><path class="cls-5" d="M183.94,112.24a2,2,0,0,1-1.66.2c-.56-.19-.73-.57-.38-.86a1.89,1.89,0,0,1,1.65-.2C184.11,111.56,184.29,111.94,183.94,112.24Z"/><path class="cls-5" d="M248.44,148.61a2,2,0,0,1-1.65.2c-.56-.19-.73-.57-.38-.86a1.89,1.89,0,0,1,1.65-.2C248.62,147.93,248.79,148.31,248.44,148.61Z"/><path class="cls-5" d="M259.81,195.74a2,2,0,0,1-1.65.2c-.56-.18-.73-.57-.38-.86a2,2,0,0,1,1.65-.2C260,195.06,260.16,195.45,259.81,195.74Z"/><path class="cls-5" d="M232.44,218.24a1.89,1.89,0,0,1-1.65.2c-.57-.18-.74-.56-.39-.86a2,2,0,0,1,1.65-.2C232.62,217.57,232.79,218,232.44,218.24Z"/><path class="cls-5" d="M191.93,139.69a1.89,1.89,0,0,1-1.65.2c-.56-.18-.73-.56-.38-.86a2,2,0,0,1,1.65-.2C192.11,139,192.28,139.4,191.93,139.69Z"/><path class="cls-5" d="M191,155.58a2,2,0,0,1-1.65.2c-.57-.19-.74-.57-.39-.86a1.89,1.89,0,0,1,1.65-.2C191.13,154.9,191.3,155.28,191,155.58Z"/><path class="cls-5" d="M172.12,198.6a2,2,0,0,1-1.66.2c-.56-.18-.73-.57-.38-.86a2,2,0,0,1,1.65-.2C172.29,197.92,172.47,198.31,172.12,198.6Z"/><path class="cls-5" d="M242.77,157.65a2,2,0,0,1-1.65.2c-.56-.18-.74-.57-.39-.86a2,2,0,0,1,1.66-.2C243,157,243.12,157.36,242.77,157.65Z"/><path class="cls-5" d="M235.36,133.71a1.89,1.89,0,0,1-1.65.2c-.57-.18-.74-.56-.39-.86a2,2,0,0,1,1.65-.2C235.54,133,235.71,133.42,235.36,133.71Z"/><path class="cls-5" d="M263.55,125.54a2,2,0,0,1-1.65.2c-.56-.19-.73-.57-.38-.86a1.89,1.89,0,0,1,1.65-.2C263.73,124.86,263.9,125.24,263.55,125.54Z"/><path class="cls-5" d="M300.22,157.88a1.92,1.92,0,0,1-1.65.19c-.56-.18-.73-.56-.38-.86a1.92,1.92,0,0,1,1.65-.19C300.4,157.2,300.57,157.58,300.22,157.88Z"/><path class="cls-5" d="M324.86,190a2,2,0,0,1-1.65.2c-.56-.19-.73-.57-.38-.86a1.88,1.88,0,0,1,1.65-.2C325,189.36,325.21,189.75,324.86,190Z"/><path class="cls-5" d="M355.53,216.77a2,2,0,0,1-1.65.2c-.56-.18-.73-.57-.38-.86a2,2,0,0,1,1.65-.2C355.71,216.09,355.88,216.48,355.53,216.77Z"/><path class="cls-5" d="M366.22,156.82a2,2,0,0,1-1.66.2c-.56-.18-.73-.57-.38-.86a2,2,0,0,1,1.65-.2C366.4,156.14,366.57,156.53,366.22,156.82Z"/><path class="cls-5" d="M377.52,186.14a2,2,0,0,1-1.65.2c-.56-.18-.73-.57-.38-.86a2,2,0,0,1,1.65-.2C377.7,185.46,377.87,185.85,377.52,186.14Z"/><path class="cls-5" d="M382.73,229.58a2,2,0,0,1-1.65.2c-.56-.19-.74-.57-.39-.86a1.91,1.91,0,0,1,1.66-.2C382.91,228.9,383.08,229.28,382.73,229.58Z"/><path class="cls-5" d="M377.9,252.79a2,2,0,0,1-1.66.2c-.56-.19-.73-.57-.38-.86a1.92,1.92,0,0,1,1.65-.2C378.07,252.11,378.25,252.5,377.9,252.79Z"/><path class="cls-5" d="M361.54,249.47a2,2,0,0,1-1.65.2c-.56-.19-.73-.57-.38-.86a1.92,1.92,0,0,1,1.65-.2C361.72,248.79,361.89,249.18,361.54,249.47Z"/><path class="cls-5" d="M273.91,252.57a2,2,0,0,1-1.65.2c-.56-.18-.73-.57-.38-.86a2,2,0,0,1,1.65-.2C274.09,251.89,274.26,252.28,273.91,252.57Z"/><path class="cls-5" d="M213.9,198.23a2,2,0,0,1-1.65.2c-.56-.18-.73-.57-.38-.86a2,2,0,0,1,1.65-.2C214.08,197.55,214.25,197.94,213.9,198.23Z"/><path class="cls-5" d="M290,211.32a1.89,1.89,0,0,1-1.65.2c-.56-.18-.73-.56-.38-.86a2,2,0,0,1,1.65-.2C290.15,210.65,290.32,211,290,211.32Z"/><path class="cls-5" d="M283.37,214.66a1.94,1.94,0,0,1-1.66.2c-.56-.18-.73-.57-.38-.86a2,2,0,0,1,1.65-.2C283.54,214,283.72,214.37,283.37,214.66Z"/><path class="cls-5" d="M317.94,235.41a1.92,1.92,0,0,1-1.65.2c-.56-.18-.73-.57-.38-.86a2,2,0,0,1,1.65-.2C318.12,234.73,318.29,235.12,317.94,235.41Z"/><path class="cls-5" d="M311.16,185.22a1.89,1.89,0,0,1-1.65.2c-.56-.18-.73-.56-.38-.86a2,2,0,0,1,1.65-.2C311.34,184.55,311.51,184.93,311.16,185.22Z"/><path class="cls-5" d="M144,198.19a2,2,0,0,1-1.65.2c-.56-.18-.73-.57-.38-.86a1.92,1.92,0,0,1,1.65-.2C144.18,197.51,144.35,197.9,144,198.19Z"/><path class="cls-5" d="M128.2,199.33a2,2,0,0,1-1.65.2c-.56-.18-.73-.57-.38-.86a2,2,0,0,1,1.65-.2C128.38,198.65,128.55,199,128.2,199.33Z"/><path class="cls-5" d="M379.57,235.8a2,2,0,0,1-1.65.2c-.56-.18-.73-.57-.38-.86a2,2,0,0,1,1.65-.2C379.75,235.12,379.92,235.51,379.57,235.8Z"/><path class="cls-5" d="M397.57,266.61a1.92,1.92,0,0,1-1.65.19c-.57-.18-.74-.56-.39-.86a1.92,1.92,0,0,1,1.65-.19C397.75,265.93,397.92,266.31,397.57,266.61Z"/><path class="cls-5" d="M405.77,302.33a1.94,1.94,0,0,1-1.66.2c-.56-.18-.73-.57-.38-.86a2,2,0,0,1,1.65-.2C405.94,301.65,406.12,302,405.77,302.33Z"/><path class="cls-5" d="M394.86,321.15a2,2,0,0,1-1.65.2c-.56-.18-.73-.57-.38-.86a2,2,0,0,1,1.65-.2C395,320.47,395.21,320.86,394.86,321.15Z"/><path class="cls-5" d="M350.81,317.49a1.89,1.89,0,0,1-1.65.2c-.56-.18-.73-.56-.38-.86a2,2,0,0,1,1.65-.2C351,316.82,351.16,317.2,350.81,317.49Z"/><path class="cls-5" d="M291,318.1a1.92,1.92,0,0,1-1.65.19c-.56-.18-.73-.56-.38-.86a1.92,1.92,0,0,1,1.65-.19C291.22,317.42,291.39,317.8,291,318.1Z"/><path class="cls-5" d="M276.54,309.69a1.92,1.92,0,0,1-1.65.19c-.56-.18-.73-.56-.38-.86a2,2,0,0,1,1.65-.2C276.72,309,276.89,309.39,276.54,309.69Z"/><path class="cls-5" d="M337.77,305.8a1.92,1.92,0,0,1-1.65.2c-.56-.18-.73-.57-.38-.86a2,2,0,0,1,1.65-.2C338,305.12,338.12,305.51,337.77,305.8Z"/><path class="cls-5" d="M324.92,290.68a2,2,0,0,1-1.65.2c-.56-.18-.73-.57-.38-.86a2,2,0,0,1,1.65-.2C325.1,290,325.27,290.39,324.92,290.68Z"/><path class="cls-5" d="M249.34,292.15a1.92,1.92,0,0,1-1.65.19c-.56-.18-.73-.56-.38-.86a2,2,0,0,1,1.65-.2C249.52,291.47,249.69,291.85,249.34,292.15Z"/><path class="cls-5" d="M248.93,337.1a2,2,0,0,1-1.65.2c-.56-.18-.73-.57-.38-.86a2,2,0,0,1,1.65-.2C249.11,336.42,249.28,336.81,248.93,337.1Z"/><path class="cls-5" d="M314.53,328.45a1.89,1.89,0,0,1-1.65.2c-.56-.18-.73-.57-.38-.86a2,2,0,0,1,1.65-.2C314.71,327.78,314.88,328.16,314.53,328.45Z"/><path class="cls-5" d="M352.11,332.12a2,2,0,0,1-1.65.2c-.56-.18-.73-.57-.38-.86a2,2,0,0,1,1.65-.2C352.29,331.44,352.46,331.83,352.11,332.12Z"/><path class="cls-5" d="M389.33,338.05a2,2,0,0,1-1.65.2c-.56-.18-.73-.57-.38-.86a2,2,0,0,1,1.65-.2C389.51,337.37,389.68,337.76,389.33,338.05Z"/><path class="cls-5" d="M414,306.59a1.89,1.89,0,0,1-1.65.2c-.57-.18-.74-.56-.39-.86a2,2,0,0,1,1.65-.2C414.15,305.92,414.32,306.3,414,306.59Z"/><path class="cls-5" d="M373.08,282a1.89,1.89,0,0,1-1.65.2c-.56-.18-.73-.56-.38-.86a2,2,0,0,1,1.65-.2C373.26,281.3,373.43,281.68,373.08,282Z"/><path class="cls-5" d="M336.32,272.84a1.89,1.89,0,0,1-1.65.2c-.56-.18-.73-.57-.38-.86a2,2,0,0,1,1.65-.2C336.5,272.17,336.67,272.55,336.32,272.84Z"/><path class="cls-5" d="M300.59,262.6a2,2,0,0,1-1.65.2c-.56-.19-.73-.57-.38-.86a1.92,1.92,0,0,1,1.65-.2C300.77,261.92,300.94,262.31,300.59,262.6Z"/><path class="cls-5" d="M276.18,267.34a1.89,1.89,0,0,1-1.65.2c-.56-.18-.73-.56-.38-.86a2,2,0,0,1,1.65-.2C276.36,266.67,276.53,267.05,276.18,267.34Z"/><path class="cls-5" d="M252.08,274.26a2,2,0,0,1-1.65.2c-.56-.18-.73-.57-.38-.86a2,2,0,0,1,1.65-.2C252.26,273.58,252.43,274,252.08,274.26Z"/><path class="cls-5" d="M269.26,235.41a2,2,0,0,1-1.65.2c-.56-.19-.74-.57-.38-.86a1.92,1.92,0,0,1,1.65-.2C269.44,234.73,269.61,235.12,269.26,235.41Z"/><path class="cls-5" d="M108.1,209.23a2,2,0,0,1-1.66.2c-.56-.18-.73-.57-.38-.86a2,2,0,0,1,1.65-.2C108.27,208.55,108.45,208.94,108.1,209.23Z"/><path class="cls-5" d="M160.42,216.3a2,2,0,0,1-1.65.2c-.56-.18-.73-.57-.38-.86a2,2,0,0,1,1.65-.2C160.6,215.62,160.77,216,160.42,216.3Z"/><path class="cls-5" d="M240.74,214.93a2,2,0,0,1-1.65.2c-.56-.18-.73-.57-.38-.86a2,2,0,0,1,1.65-.2C240.92,214.25,241.09,214.64,240.74,214.93Z"/><path class="cls-5" d="M220.69,215.86a2,2,0,0,1-1.65.2c-.56-.19-.73-.57-.38-.86a1.89,1.89,0,0,1,1.65-.2C220.87,215.18,221,215.56,220.69,215.86Z"/><path class="cls-5" d="M278.85,321.62a2,2,0,0,1-1.65.2c-.56-.18-.73-.57-.38-.86a2,2,0,0,1,1.65-.2C279,320.94,279.2,321.33,278.85,321.62Z"/><path class="cls-5" d="M294.56,334a1.89,1.89,0,0,1-1.65.2c-.56-.18-.73-.56-.38-.86a2,2,0,0,1,1.65-.2C294.74,333.29,294.91,333.67,294.56,334Z"/><path class="cls-5" d="M339.61,343.33a2,2,0,0,1-1.66.2c-.56-.18-.73-.57-.38-.86a1.92,1.92,0,0,1,1.65-.2C339.79,342.65,340,343,339.61,343.33Z"/><path class="cls-5" d="M359.42,345.67a1.92,1.92,0,0,1-1.65.19c-.56-.18-.74-.56-.39-.86a1.94,1.94,0,0,1,1.66-.19C359.6,345,359.77,345.37,359.42,345.67Z"/><path class="cls-5" d="M377.8,349.8a2,2,0,0,1-1.65.2c-.56-.19-.73-.57-.38-.86a1.92,1.92,0,0,1,1.65-.2C378,349.12,378.15,349.51,377.8,349.8Z"/><path class="cls-5" d="M355.28,340.72a1.89,1.89,0,0,1-1.65.2c-.56-.18-.73-.56-.38-.86a2,2,0,0,1,1.65-.2C355.46,340.05,355.63,340.43,355.28,340.72Z"/><path class="cls-5" d="M247.69,328.9a1.92,1.92,0,0,1-1.65.2c-.56-.18-.73-.57-.38-.86a2,2,0,0,1,1.65-.2C247.87,328.23,248,328.61,247.69,328.9Z"/><path class="cls-5" d="M397.72,209.49a2,2,0,0,1-1.65.2c-.57-.18-.74-.57-.39-.86a2,2,0,0,1,1.65-.2C397.9,208.81,398.07,209.2,397.72,209.49Z"/><path class="cls-5" d="M383.05,162.15a2,2,0,0,1-1.65.2c-.56-.19-.73-.57-.38-.86a1.89,1.89,0,0,1,1.65-.2C383.23,161.47,383.4,161.85,383.05,162.15Z"/><path class="cls-5" d="M335.34,161.23a2,2,0,0,1-1.65.2c-.56-.18-.73-.57-.38-.86a2,2,0,0,1,1.65-.2C335.52,160.55,335.69,160.94,335.34,161.23Z"/><path class="cls-5" d="M288.19,174.92a2,2,0,0,1-1.66.2c-.56-.19-.73-.57-.38-.86a1.89,1.89,0,0,1,1.65-.2C288.36,174.24,288.54,174.62,288.19,174.92Z"/><path class="cls-5" d="M249.24,172a2,2,0,0,1-1.65.2c-.56-.18-.73-.57-.38-.86a2,2,0,0,1,1.65-.2C249.42,171.33,249.59,171.72,249.24,172Z"/></g><path class="cls-6" d="M210.65-35.75S127,68.15,244.38,168c25.22,21.45,50.54,42.8,76.45,63.42,18.4,14.64,39.37,27,56.39,43.24,11.67,11.15,21.27,25.06,24.64,40.84,9.21,43.08-28.9,82.82-15.81,125.51,8,26,27.56,50.13,48.59,67,15.51,12.46,21.2,34.19,18.95,53.33-1.12,9.56-4.18,19.17-9.79,27.06-1.76,2.47-7.83,6.8-8.34,9.56-.74,4,4.56,13.89,6.27,17.77,2.38,5.43,6.95,10.67,12.87,10.83,3.44.09,6.67-1.56,9.61-3.35,12.26-7.46,19.73-21.31,32.45-27.47,12.33-6,26.85-2.28,40.45-.6,25.75,3.18,53.1-1.86,74.06-17.17,17.24-12.59,29.24-31.3,37.14-51.14,10.1-25.35,11.78-52.79,23.49-77.38,18.74-39.33,53.9-69.4,98.47-72.65,13.89-1,29.46,0,39.84-9.3,7.64-6.83,10.35-17.76,10.23-28-.38-31.62-11.11-56.49,13.82-82.24,9.22-9.53,20.74-16.68,32.64-22.37,3.1-1.48,37.42-13,37.42-13V-35.75Z"/><path class="cls-7" d="M218.64-35.75S135,68.15,252.38,168c25.22,21.45,50.53,42.8,76.45,63.42,18.4,14.64,39.37,27,56.39,43.24,11.67,11.15,21.27,25.06,24.64,40.84,9.21,43.08-28.9,82.82-15.81,125.51,7.95,26,27.56,50.13,48.59,67,15.5,12.46,21.19,34.19,18.95,53.33-1.12,9.56-4.18,19.17-9.79,27.06-1.76,2.47-7.83,6.8-8.34,9.56-.74,4,4.56,13.89,6.27,17.77,2.38,5.43,6.95,10.67,12.87,10.83,3.44.09,6.67-1.56,9.61-3.35,12.26-7.46,19.73-21.31,32.45-27.47,12.33-6,26.85-2.28,40.44-.6,25.76,3.18,53.11-1.86,74.06-17.17,17.25-12.59,29.25-31.3,37.15-51.14,10.1-25.35,11.78-52.79,23.49-77.38,18.73-39.33,53.9-69.4,98.47-72.65,13.89-1,29.46,0,39.84-9.3,7.64-6.83,10.35-17.76,10.23-28-.38-31.62-11.11-56.49,13.81-82.24,9.23-9.53,20.75-16.68,32.65-22.37,3.1-1.48,37.42-13,37.42-13V-35.75Z"/><g id="Moon"><g id="Moon-2" data-name="Moon"><circle class="cls-8" cx="737.13" cy="75.78" r="115.12" transform="translate(514.69 782.62) rotate(-78.4)"/><path class="cls-9" d="M772.68-33.74A115.15,115.15,0,0,1,647.31,147.77,115.12,115.12,0,1,0,772.68-33.74Z"/><circle class="cls-10" cx="667.95" cy="93.34" r="14.9" transform="translate(559.47 759) rotate(-88.7)"/><g class="cls-9"><path d="M671.64,82.3a14.85,14.85,0,0,1,8.76,2.85,14.9,14.9,0,1,0-21.21,20.24A14.9,14.9,0,0,1,671.64,82.3Z"/></g><path class="cls-10" d="M735,129.78a14.91,14.91,0,1,1-14.91-14.9A14.91,14.91,0,0,1,735,129.78Z"/><g class="cls-9"><path d="M723.77,118.74a14.85,14.85,0,0,1,8.76,2.85,14.9,14.9,0,1,0-21.21,20.24,14.9,14.9,0,0,1,12.45-23.09Z"/></g><path class="cls-10" d="M699.91,8.45a8.53,8.53,0,1,1-8.53-8.53A8.53,8.53,0,0,1,699.91,8.45Z"/><g class="cls-9"><path d="M693.49,2.13a8.53,8.53,0,0,1,5,1.63,8.53,8.53,0,1,0-12.14,11.59,8.52,8.52,0,0,1,7.12-13.22Z"/></g><path class="cls-10" d="M649.32,32.73a4.48,4.48,0,1,1-4.48-4.48A4.48,4.48,0,0,1,649.32,32.73Z"/><g class="cls-9"><path d="M646,29.41a4.52,4.52,0,0,1,2.64.85,4.48,4.48,0,1,0-6.38,6.09,4.43,4.43,0,0,1-.74-2.46A4.48,4.48,0,0,1,646,29.41Z"/></g><path class="cls-10" d="M668,131.87a4.48,4.48,0,1,1-4.48-4.48A4.48,4.48,0,0,1,668,131.87Z"/><g class="cls-9"><path d="M664.58,128.55a4.45,4.45,0,0,1,2.63.86,4.48,4.48,0,1,0-6.37,6.08,4.4,4.4,0,0,1-.74-2.46A4.49,4.49,0,0,1,664.58,128.55Z"/></g><path class="cls-10" d="M709.66,163a4.48,4.48,0,1,1-4.48-4.48A4.49,4.49,0,0,1,709.66,163Z"/><g class="cls-9"><path d="M706.29,159.71a4.45,4.45,0,0,1,2.63.86,4.48,4.48,0,1,0-6.37,6.08,4.4,4.4,0,0,1-.74-2.46A4.48,4.48,0,0,1,706.29,159.71Z"/></g></g></g><path class="cls-5" d="M423.27,185.06s-28.39,13.17-20.82,29.42c14.31,30.72,50.93,121.18,113.46,226,0,0,1.89,17.85,6.26,31.56a11.15,11.15,0,0,0,18.75,4.18c9.15-9.93,23.65-28.56,14.89-51.16C540,384.31,514.46,346.5,508.5,332.33c-2.54-6,2.27-16.88,10.7-3.12s44.28,85.85,50.52,96.55c4,6.93,4.65,20,6.55,31.65a9.86,9.86,0,0,0,17.06,4.93c10.52-11.74,32.78-37.37,16.19-61.16-46.24-66.3-87.59-178-96.85-198s-30.08-52-55.76-39.35Z"/><path class="cls-11" d="M416.19,174.22a55.32,55.32,0,0,1,5.56,11.21s21.29-2.45,29-18.34l-5-9Z"/><path class="cls-5" d="M453.47,150.3a43.44,43.44,0,1,1-24.83-56.19A43.43,43.43,0,0,1,453.47,150.3Z"/><path class="cls-12" d="M423.25,133.56c5.07,16.33-2.66,33.24-17.25,37.77s-30.54-5.05-35.6-21.38,2.66-33.25,17.25-37.77S418.19,117.22,423.25,133.56Z"/><path class="cls-13" d="M435.14,127.91c-2.08,5.39.22,11.3,5.15,13.21s10.62-.91,12.7-6.3-.21-11.31-5.14-13.22S437.23,122.52,435.14,127.91Z"/><path class="cls-12" d="M437.25,128.72c-2.08,5.4.22,11.31,5.15,13.22s10.62-.91,12.7-6.31-.21-11.3-5.14-13.21S439.34,123.33,437.25,128.72Z"/><path class="cls-5" d="M442.83,130.71a5.49,5.49,0,1,0,7.26-3.61A5.75,5.75,0,0,0,442.83,130.71Z"/><path class="cls-14" d="M401,103.18A35.69,35.69,0,0,0,381.24,105a42.77,42.77,0,0,0-5.23,6.87,32.29,32.29,0,0,1,24.33-5.1c19.74,3.59,31.31,21.3,27.53,42.11C424.74,166,415.45,174.73,399,175.69a43.61,43.61,0,0,0,9.47,2.1c12.59-3.51,20.19-12.87,23-28.3C435.59,126.63,422.79,107.15,401,103.18Z"/><path class="cls-5" d="M410.47,197.39s-46.47,56.8-31,154.49l22.39-5.51s-4.52-65.11,28.29-92.63Z"/><path class="cls-5" d="M401.82,346.37s11.3,29.07,7.73,32.1-8.25-5-8.25-5-1,4.57-5.1,5.57-5.69-7.77-5.69-7.77-1.42,5.21-5.62,5.7-5.46-25.11-5.46-25.11Z"/><path class="cls-5" d="M492.3,222.86s51.25-52.54,44.38-151.2l-22.8,3.54s-1.16,65.26-36.24,89.82Z"/><path class="cls-5" d="M513.88,75.2s-8.72-29.94-4.9-32.65,7.78,5.68,7.78,5.68,1.43-4.46,5.57-5.11,5,8.24,5,8.24,1.86-5.06,6.09-5.19,3.26,25.49,3.26,25.49Z"/><path class="cls-12" d="M486.67,265.58,460.9,277.63a15.32,15.32,0,0,1-20.34-7.39l-13.79-29.5a15.32,15.32,0,0,1,7.38-20.34l25.77-12.05a15.33,15.33,0,0,1,20.35,7.39l13.79,29.5A15.32,15.32,0,0,1,486.67,265.58Zm-50.19-40.2a9.82,9.82,0,0,0-4.73,13l13.79,29.5a9.82,9.82,0,0,0,13,4.73l25.77-12a9.82,9.82,0,0,0,4.73-13l-13.79-29.5a9.82,9.82,0,0,0-13-4.73Z"/><path class="cls-15" d="M452.4,249a6.19,6.19,0,0,1-8.22-3l-4.07-8.71a6.18,6.18,0,1,1,11.2-5.23l4.07,8.7A6.2,6.2,0,0,1,452.4,249Zm-8.14-17.42a3.44,3.44,0,0,0-1.66,4.57l4.07,8.71a3.43,3.43,0,0,0,6.22-2.91l-4.07-8.71A3.43,3.43,0,0,0,444.26,231.59Z"/><path class="cls-15" d="M464.4,230.9a5.84,5.84,0,1,1,2.81-7.76A5.84,5.84,0,0,1,464.4,230.9Zm-3.79-8.09a3.09,3.09,0,1,0,4.11,1.49A3.1,3.1,0,0,0,460.61,222.81Z"/><path class="cls-15" d="M470.21,243.34a5.84,5.84,0,1,1,2.82-7.76A5.84,5.84,0,0,1,470.21,243.34Zm-3.78-8.09a3.09,3.09,0,1,0,4.11,1.49A3.1,3.1,0,0,0,466.43,235.25Z"/><path class="cls-15" d="M476,255.78a5.84,5.84,0,1,1,2.81-7.76A5.84,5.84,0,0,1,476,255.78Zm-3.78-8.09a3.09,3.09,0,1,0,4.1,1.49A3.08,3.08,0,0,0,472.25,247.69Z"/><path class="cls-15" d="M462.52,262.85l-4.13,1.93a6.31,6.31,0,0,1-8.38-3l-.19-.4a6.32,6.32,0,0,1,3-8.38L457,251a6.32,6.32,0,0,1,8.38,3l.18.4A6.31,6.31,0,0,1,462.52,262.85Zm-8.49-7.4a3.56,3.56,0,0,0-1.72,4.73l.19.4a3.57,3.57,0,0,0,4.73,1.71l4.13-1.93a3.57,3.57,0,0,0,1.71-4.73l-.18-.4a3.57,3.57,0,0,0-4.73-1.71Z"/><path class="cls-15" d="M575.53,343.83l-1.95-3.78c-17.81,4.77-30.46,16.09-36.7,22.24q1,1.9,2,3.84C544.56,360.42,557.33,348.43,575.53,343.83ZM376.36,316.9a73.92,73.92,0,0,0,25.42,14c.05-1.34.11-2.7.2-4.17-10.83-3.43-19.4-9.67-25.63-15.23C376.34,313.3,376.33,315.08,376.36,316.9Zm127.3,102.62,2.09,3.63c8.88-7.51,23.17-16.83,41.68-17.67-.62-1.34-1.23-2.67-1.86-4C527.05,402.82,512.75,411.94,503.66,419.52Zm19-61.14-2.27-4c-18.91,1.19-33.47,10.53-42.65,18.21.67,1.25,1.31,2.47,2,3.73C488.69,368.64,503.44,358.93,522.62,358.38ZM512.2,93.57c-.19,1.31-.4,2.68-.63,4.08,6.67,2,15.27,7,24.27,18.52.21-1.9.4-3.81.56-5.76C527.53,100.17,519,95.49,512.2,93.57ZM564.48,416l2,3.81c6.17-6.16,20.18-19.17,40.12-22.94q-1.25-1.84-2.49-3.73C584.81,397.34,571.13,409.48,564.48,416Zm-180-163.34a130.26,130.26,0,0,0,24.85,34c.48-1.43,1.05-2.83,1.59-4.24a124.57,124.57,0,0,1-24.64-35.86C385.63,248.55,385,250.6,384.45,252.68ZM499.4,138c-.61,1.25-1.24,2.48-1.91,3.7,7.44,2,17.4,7.81,27.7,22.46.54-1.55,1.06-3.15,1.57-4.77C516.81,146.13,507.09,140.3,499.4,138Z"/><path class="cls-5" d="M1637.57-267.82C1580.12-151.16,1428.88-74,1285.78-88.26,1121.58-104.68,1105.46,28.26,1088.41,169c-9.84,81.19-20,165.14-58.29,227.5-19.76,32.18-42.66,49.67-70,53.46-65.83,9.26-144.94-64.06-215-128.6C705.44,284.82,668,250.3,636.48,233.71c-110.63-58.3-156.63,17.38-157.08,18.15l5.9,3.46c.41-.72,43.06-70.85,148-15.57,30.71,16.18,67.85,50.4,107.18,86.63C810.62,391,890,464.14,958.06,457.1c1-.11,2-.23,3-.36,29.11-4,54.31-23.11,74.91-56.66,39.06-63.64,49.33-148.34,59.26-230.26,17.36-143.27,32.3-267,189.91-251.28,145.79,14.57,300-64.25,358.6-183.34,33.89-68.83,29.13-137.39-12.81-196l-8,.82C1665.42-402.76,1670.87-335.44,1637.57-267.82Z"/><circle class="cls-12" cx="217.91" cy="92.65" r="45.66" transform="translate(71.37 278.65) rotate(-74.8)"/><path class="cls-16" d="M227,47.91c-1.39-.28-2.78-.49-4.16-.64a45.65,45.65,0,0,1-18.14,89.09c1.33.4,2.69.75,4.08,1A45.66,45.66,0,0,0,227,47.91Z"/><path class="cls-17" d="M201.93,57.58a2.52,2.52,0,0,1-.46-4.8,42.55,42.55,0,0,1,18.83-3.2,2.52,2.52,0,1,1-.28,5,37.59,37.59,0,0,0-16.62,2.83A2.49,2.49,0,0,1,201.93,57.58Z"/><path class="cls-18" d="M263,85.62a45,45,0,0,1,.49,4.67c14.07,5.57,22.56,11.32,21.68,15.63-1.6,7.83-33.35,8-70.92.32s-66.74-20.2-65.14-28c.91-4.49,11.73-6.44,27.86-5.86a43.62,43.62,0,0,1,2.25-4c-26.49-2.26-45.18-.07-46.52,6.54-2,9.71,34.22,25.28,80.86,34.78s86,9.32,88-.39C302.92,102.8,287.33,93.75,263,85.62Z"/><path class="cls-17" d="M199.23,59a3.14,3.14,0,1,1-2.45-3.7A3.13,3.13,0,0,1,199.23,59Z"/><path class="cls-19" d="M782.36,459a49.88,49.88,0,1,1-35.74-60.82A49.88,49.88,0,0,1,782.36,459Z"/><path class="cls-18" d="M685.17,456.36c14.18.48,52.69-.87,96.57-24.62A50.28,50.28,0,0,0,774,416.53c-14.24,9.8-46.83,28-89.55,25.44A49.65,49.65,0,0,0,685.17,456.36Z"/><path class="cls-18" d="M782.36,459a49.67,49.67,0,0,0,1.54-15.23c-11.26,8.44-45.78,30.81-92.62,28.31a50.19,50.19,0,0,0,7.83,10c14.8.09,45.94-2.15,82-19.07C781.61,461.72,782,460.4,782.36,459Z"/><path class="cls-18" d="M764.78,407.17a49.91,49.91,0,0,0-76.29,19.08C704.84,425.69,732.88,422.16,764.78,407.17Z"/><path class="cls-20" d="M709.4,448a6.46,6.46,0,1,1-4.62-7.88A6.45,6.45,0,0,1,709.4,448Z"/><g class="cls-9"><path d="M705.9,442.11a6.39,6.39,0,0,1,3.37,2.15,6.46,6.46,0,1,0-11.1,6.17,6.36,6.36,0,0,1-.14-3.7A6.45,6.45,0,0,1,705.9,442.11Z"/></g><g class="cls-9"><path class="cls-20" d="M697.9,460.74a1.89,1.89,0,0,1,1,.64,1.94,1.94,0,1,0-3.34,1.86,1.9,1.9,0,0,1,0-1.11A1.94,1.94,0,0,1,697.9,460.74Z"/></g><g class="cls-9"><path class="cls-20" d="M712,478.35a1.88,1.88,0,0,1,1,.64,1.94,1.94,0,1,0-3.33,1.86,1.9,1.9,0,0,1,0-1.11A1.94,1.94,0,0,1,712,478.35Z"/></g><path class="cls-9" d="M765.89,408.33A49.89,49.89,0,0,1,687.28,464a49.89,49.89,0,1,0,78.61-55.71Z"/><g id="Star" class="cls-21"><circle class="cls-5" cx="305.57" cy="238.11" r="10.63"/><path class="cls-5" d="M544.41,161.68a10.63,10.63,0,0,1-10.7,10.56,10.62,10.62,0,0,1,10.55,10.7A10.62,10.62,0,0,1,555,172.39,10.63,10.63,0,0,1,544.41,161.68Z"/><circle class="cls-5" cx="340.78" cy="22.44" r="22.34"/></g><g id="Star-2" data-name="Star" class="cls-21"><circle class="cls-5" cx="476.27" cy="469.36" r="20.91"/><path class="cls-5" d="M602.65,318.77a16.83,16.83,0,0,1,.94-23.77,16.81,16.81,0,0,1-23.77-.94,16.83,16.83,0,0,1-.94,23.77A16.83,16.83,0,0,1,602.65,318.77Z"/><path class="cls-5" d="M667.81,559.45a10.59,10.59,0,0,1-7.39-13,10.58,10.58,0,0,1-13,7.39,10.59,10.59,0,0,1,7.38,13A10.6,10.6,0,0,1,667.81,559.45Z"/><circle class="cls-5" cx="706.15" cy="345.4" r="10.59"/><path class="cls-5" d="M494,392.74a10.59,10.59,0,0,1,.59-15,10.59,10.59,0,0,1-15-.59,10.59,10.59,0,0,1-.59,15A10.59,10.59,0,0,1,494,392.74Z"/></g><rect class="cls-22" x="0.19" y="-1.89" width="710.93" height="555.89"/></g></g></svg>