<svg xmlns="http://www.w3.org/2000/svg" xmlns:xlink="http://www.w3.org/1999/xlink" viewBox="0 0 300 235"><defs><style>.cls-1{isolation:isolate;}.cls-2{fill:#c62a6a;}.cls-3{fill:url(#linear-gradient);}.cls-4{opacity:0.6;}.cls-5{fill:#fff;}.cls-6{fill:#ed2755;}.cls-7{fill:url(#New_Gradient_Swatch_3);}.cls-8{fill:#d1f4ff;}.cls-9{opacity:0.1;}.cls-10{fill:#a6cddd;}.cls-11{fill:#e7e7e7;}.cls-12{fill:#123456;}.cls-13{fill:#045379;}.cls-14{fill:#dcdcdc;}.cls-15{fill:#dadada;}.cls-16,.cls-17,.cls-18{fill:#f9dac9;}.cls-16{opacity:0.9;mix-blend-mode:multiply;}.cls-17{mix-blend-mode:soft-light;}.cls-19{fill:#fce8de;}.cls-20{fill:#f7bd9f;}.cls-21{opacity:0.5;}.cls-22{fill:none;}</style><linearGradient id="linear-gradient" x1="365.48" y1="160.02" x2="150.82" y2="-73.19" gradientUnits="userSpaceOnUse"><stop offset="0" stop-color="#ed2755"/><stop offset="0.64" stop-color="#f26a30"/><stop offset="1" stop-color="#f58b1e"/></linearGradient><linearGradient id="New_Gradient_Swatch_3" x1="124.22" y1="103.97" x2="391.12" y2="103.97" gradientUnits="userSpaceOnUse"><stop offset="0" stop-color="#ed2755"/><stop offset="0.17" stop-color="#ee3150"/><stop offset="0.46" stop-color="#f04b41"/><stop offset="0.83" stop-color="#f3752a"/><stop offset="1" stop-color="#f58b1e"/></linearGradient></defs><title>contact</title><g class="cls-1"><g id="Layer_1" data-name="Layer 1"><path class="cls-2" d="M53-3.17c-4.77,0,4.2,25,4.55,25.84C61.67,32.08,69,40,77.13,46.09,91.51,57,108.8,63.22,123.25,74s22.06,25,29.57,41.12c6.28,13.54,14.25,27.7,27.92,33.7,33.33,14.65,64.27-11.68,95-19.43,14.75-3.72,27.21.81,35.82,13.64,5.72,8.53,8.72,18.53,12.54,28.06s8.85,19.09,17.25,25c8.73,6.13,37.38,10.5,41.87-4.14L363.37-27.57S57.24-3.17,53-3.17Z"/><path class="cls-3" d="M62.34-.86c-4.64.45.7,20.6,1.49,22.42C68,31,75.3,38.84,83.41,45c14.38,10.9,31.67,17.13,46.12,27.89s22.06,25,29.57,41.12c6.28,13.54,14.25,27.7,27.92,33.7,33.33,14.65,64.27-11.68,95-19.43,14.75-3.71,27.21.82,35.82,13.65,5.72,8.52,8.72,18.52,12.54,28.05s8.85,19.09,17.25,25c8.72,6.13,37.38,10.5,41.87-4.13L369.65-28.68Z"/><g class="cls-4"><path class="cls-5" d="M91,6.67c.16.09.14.24,0,.32a.73.73,0,0,1-.63,0c-.16-.09-.14-.24,0-.32A.73.73,0,0,1,91,6.67Z"/><path class="cls-5" d="M94.74,16.56c.16.1.14.24,0,.33a.78.78,0,0,1-.62,0c-.17-.1-.15-.25,0-.33A.81.81,0,0,1,94.74,16.56Z"/><path class="cls-5" d="M102.13,20.87c.17.1.15.24,0,.33a.78.78,0,0,1-.62,0c-.16-.1-.14-.24,0-.33A.78.78,0,0,1,102.13,20.87Z"/><path class="cls-5" d="M109.4,22.07c.17.1.15.24,0,.33a.78.78,0,0,1-.62,0c-.16-.1-.14-.24,0-.33A.78.78,0,0,1,109.4,22.07Z"/><path class="cls-5" d="M112.14,16.14c.16.09.15.24,0,.32a.71.71,0,0,1-.62,0c-.16-.09-.15-.24,0-.32A.71.71,0,0,1,112.14,16.14Z"/><path class="cls-5" d="M110.16,4.49c.16.1.14.24,0,.33a.81.81,0,0,1-.63,0c-.16-.1-.14-.25,0-.33A.81.81,0,0,1,110.16,4.49Z"/><path class="cls-5" d="M140,15.45a.7.7,0,0,1-.61.07c-.21-.06-.27-.21-.14-.31a.7.7,0,0,1,.61-.08C140.11,15.2,140.17,15.34,140,15.45Z"/><path class="cls-5" d="M100.34,8.8c.16.1.14.24,0,.33a.78.78,0,0,1-.62,0c-.17-.1-.15-.24,0-.33A.78.78,0,0,1,100.34,8.8Z"/><path class="cls-5" d="M79.53,1c.16.09.14.24,0,.32a.73.73,0,0,1-.63,0c-.16-.09-.14-.24,0-.32A.73.73,0,0,1,79.53,1Z"/><path class="cls-5" d="M64.15,6.08c.16.09.14.24,0,.32a.73.73,0,0,1-.63,0c-.16-.09-.14-.24,0-.32A.73.73,0,0,1,64.15,6.08Z"/><path class="cls-5" d="M63.49,15.49c.16.09.14.24,0,.32a.73.73,0,0,1-.63,0c-.16-.09-.14-.24,0-.32A.73.73,0,0,1,63.49,15.49Z"/><path class="cls-5" d="M57.27,22.43c.16.09.14.24,0,.32a.73.73,0,0,1-.63,0c-.16-.09-.14-.24,0-.32A.73.73,0,0,1,57.27,22.43Z"/><path class="cls-5" d="M70.81,14.42c.16.09.14.24,0,.32a.73.73,0,0,1-.63,0c-.16-.09-.14-.24,0-.32A.73.73,0,0,1,70.81,14.42Z"/><path class="cls-5" d="M81.31,8c.16.1.14.24,0,.33a.81.81,0,0,1-.63,0c-.16-.1-.14-.24,0-.33A.81.81,0,0,1,81.31,8Z"/><path class="cls-5" d="M75.65,30.85c.16.1.14.24,0,.33a.81.81,0,0,1-.63,0c-.16-.1-.14-.24,0-.33A.81.81,0,0,1,75.65,30.85Z"/><path class="cls-5" d="M90.64,20c.16.1.15.24,0,.33a.78.78,0,0,1-.62,0c-.16-.1-.15-.25,0-.33A.78.78,0,0,1,90.64,20Z"/><path class="cls-5" d="M76.44.14c.16.09.14.24,0,.32a.73.73,0,0,1-.63,0c-.16-.09-.14-.24,0-.32A.73.73,0,0,1,76.44.14Z"/><path class="cls-5" d="M98.17,15.5c.16.09.14.24,0,.32a.73.73,0,0,1-.63,0c-.16-.09-.14-.24,0-.32A.73.73,0,0,1,98.17,15.5Z"/><path class="cls-5" d="M75.09,38.09c.17.09.15.24,0,.32a.73.73,0,0,1-.63,0c-.16-.09-.14-.24,0-.32A.71.71,0,0,1,75.09,38.09Z"/><path class="cls-5" d="M69.6,42.61c.16.1.14.24,0,.33a.81.81,0,0,1-.63,0c-.16-.1-.14-.24,0-.33A.81.81,0,0,1,69.6,42.61Z"/><path class="cls-5" d="M89.91,57.45c.16.09.14.24,0,.32a.73.73,0,0,1-.63,0c-.16-.09-.14-.24,0-.32A.73.73,0,0,1,89.91,57.45Z"/><path class="cls-5" d="M90.06,60.08c.16.1.14.24,0,.33a.78.78,0,0,1-.62,0c-.16-.1-.15-.24,0-.33A.78.78,0,0,1,90.06,60.08Z"/><path class="cls-5" d="M65.35,32c.16.1.14.24,0,.33a.78.78,0,0,1-.62,0c-.17-.1-.15-.25,0-.33A.81.81,0,0,1,65.35,32Z"/><path class="cls-5" d="M85.73,13.61c.16.09.14.24,0,.33a.74.74,0,0,1-.62,0c-.17-.09-.15-.24,0-.32A.74.74,0,0,1,85.73,13.61Z"/><path class="cls-5" d="M76.41,15.63a.7.7,0,0,1-.61.07c-.21-.06-.27-.21-.14-.31a.74.74,0,0,1,.61-.08C76.48,15.38,76.54,15.52,76.41,15.63Z"/><path class="cls-5" d="M109,15.72a.74.74,0,0,1-.61.08c-.21-.07-.27-.21-.14-.32a.74.74,0,0,1,.61-.08C109,15.47,109.09,15.61,109,15.72Z"/><path class="cls-5" d="M116.89,19.63a.71.71,0,0,1-.61.07c-.21-.07-.28-.21-.15-.32a.74.74,0,0,1,.61-.07C117,19.38,117,19.52,116.89,19.63Z"/><path class="cls-5" d="M134,17.77a.71.71,0,0,1-.61.07c-.21-.07-.27-.21-.14-.32a.73.73,0,0,1,.61-.07C134.1,17.52,134.17,17.66,134,17.77Z"/><path class="cls-5" d="M135.6,23.33a.7.7,0,0,1-.61.07c-.21-.06-.27-.21-.14-.31a.74.74,0,0,1,.61-.08C135.67,23.08,135.73,23.22,135.6,23.33Z"/><path class="cls-5" d="M112.37,19.41c.16.09.14.24,0,.32a.73.73,0,0,1-.63,0c-.16-.09-.14-.24,0-.32A.73.73,0,0,1,112.37,19.41Z"/><path class="cls-5" d="M86.68,43.72c.16.09.15.24,0,.32A.71.71,0,0,1,86,44c-.16-.09-.15-.24,0-.32A.71.71,0,0,1,86.68,43.72Z"/><path class="cls-5" d="M71.07,33.79c.16.09.14.24,0,.32a.73.73,0,0,1-.63,0c-.16-.09-.14-.24,0-.32A.73.73,0,0,1,71.07,33.79Z"/><path class="cls-5" d="M104.28,40.06c.16.1.14.24,0,.33a.81.81,0,0,1-.63,0c-.16-.1-.14-.25,0-.33A.77.77,0,0,1,104.28,40.06Z"/><path class="cls-5" d="M59.91,29.5a.7.7,0,0,1-.61.07c-.2-.07-.27-.21-.14-.32a.74.74,0,0,1,.61-.07C60,29.25,60,29.39,59.91,29.5Z"/><path class="cls-5" d="M101.81,25.11a.7.7,0,0,1-.61.07c-.21-.07-.27-.21-.14-.32a.74.74,0,0,1,.61-.07C101.87,24.86,101.94,25,101.81,25.11Z"/><path class="cls-5" d="M139.78,21a.74.74,0,0,1-.61.07c-.21-.07-.27-.21-.14-.32a.7.7,0,0,1,.61-.07C139.84,20.74,139.91,20.88,139.78,21Z"/><path class="cls-5" d="M152.74,27.49a.74.74,0,0,1-.61.08c-.2-.07-.27-.21-.14-.32a.74.74,0,0,1,.61-.08C152.81,27.24,152.87,27.38,152.74,27.49Z"/><path class="cls-5" d="M129.7,17.79a.7.7,0,0,1-.61.07c-.21-.06-.27-.21-.14-.31a.7.7,0,0,1,.61-.08C129.76,17.54,129.83,17.68,129.7,17.79Z"/><path class="cls-5" d="M74.7,23.47a.74.74,0,0,1-.61.08c-.21-.07-.27-.21-.14-.32a.7.7,0,0,1,.61-.07C74.76,23.22,74.83,23.37,74.7,23.47Z"/><path class="cls-5" d="M105.27,42.26c.16.09.15.24,0,.32a.71.71,0,0,1-.62,0c-.16-.09-.15-.24,0-.32A.71.71,0,0,1,105.27,42.26Z"/><path class="cls-5" d="M82.24,34.65c.16.09.14.24,0,.32a.73.73,0,0,1-.63,0c-.16-.09-.14-.24,0-.32A.73.73,0,0,1,82.24,34.65Z"/><path class="cls-5" d="M91,29.92c.16.09.15.24,0,.32a.71.71,0,0,1-.62,0c-.16-.09-.15-.24,0-.32A.71.71,0,0,1,91,29.92Z"/><path class="cls-5" d="M76,21.36c.16.1.14.24,0,.33a.81.81,0,0,1-.63,0c-.16-.1-.14-.24,0-.33A.81.81,0,0,1,76,21.36Z"/><path class="cls-5" d="M182.22,21.81a.7.7,0,0,1-.61.08c-.2-.07-.27-.21-.14-.32a.71.71,0,0,1,.61-.07C182.29,21.56,182.35,21.71,182.22,21.81Z"/><path class="cls-5" d="M196.55,31.69a.74.74,0,0,1-.61.08c-.21-.07-.27-.21-.14-.32a.74.74,0,0,1,.61-.08C196.61,31.44,196.68,31.58,196.55,31.69Z"/><path class="cls-5" d="M204.73,37.93a.7.7,0,0,1-.61.07c-.21-.07-.27-.21-.14-.32a.74.74,0,0,1,.61-.07C204.8,37.68,204.86,37.82,204.73,37.93Z"/><path class="cls-5" d="M204.36,15.47a.7.7,0,0,1-.61.07c-.2-.06-.27-.21-.14-.31a.71.71,0,0,1,.61-.08C204.43,15.22,204.49,15.36,204.36,15.47Z"/><path class="cls-5" d="M164.64,18.78a.7.7,0,0,1-.61.07c-.21-.06-.27-.21-.14-.31a.74.74,0,0,1,.61-.08C164.71,18.53,164.77,18.67,164.64,18.78Z"/><path class="cls-5" d="M158,19.51a.74.74,0,0,1-.61.07c-.2-.07-.27-.21-.14-.32a.71.71,0,0,1,.61-.07C158,19.26,158.09,19.4,158,19.51Z"/><path class="cls-5" d="M151.22,24.16a.71.71,0,0,1-.61.08c-.21-.07-.27-.21-.15-.32a.71.71,0,0,1,.61-.07C151.28,23.91,151.35,24.06,151.22,24.16Z"/><path class="cls-5" d="M121.06,32.49a.7.7,0,0,1-.61.07c-.2-.06-.27-.21-.14-.31a.74.74,0,0,1,.61-.08C121.13,32.24,121.19,32.38,121.06,32.49Z"/><path class="cls-5" d="M128.8,32.22a.74.74,0,0,1-.61.08c-.21-.07-.27-.21-.14-.32a.7.7,0,0,1,.61-.07C128.86,32,128.93,32.12,128.8,32.22Z"/><path class="cls-5" d="M148.48,36.9a.74.74,0,0,1-.61.07c-.21-.07-.27-.21-.14-.32a.7.7,0,0,1,.61-.07C148.55,36.65,148.61,36.79,148.48,36.9Z"/><path class="cls-5" d="M160.19,45a.74.74,0,0,1-.61.07c-.21-.07-.27-.21-.14-.32a.7.7,0,0,1,.61-.07C160.26,44.73,160.32,44.87,160.19,45Z"/><path class="cls-5" d="M173.32,32.74a.74.74,0,0,1-.61.07c-.21-.07-.27-.21-.14-.32a.7.7,0,0,1,.61-.07C173.38,32.49,173.45,32.63,173.32,32.74Z"/><path class="cls-5" d="M177.82,35.35a.7.7,0,0,1-.61.08c-.21-.07-.27-.21-.14-.32a.7.7,0,0,1,.61-.07C177.89,35.1,178,35.25,177.82,35.35Z"/><path class="cls-5" d="M188.16,44.55a.74.74,0,0,1-.61.07c-.21-.07-.27-.21-.14-.32a.7.7,0,0,1,.61-.07C188.23,44.3,188.29,44.44,188.16,44.55Z"/><path class="cls-5" d="M195.31,51.41a.74.74,0,0,1-.61.08c-.21-.07-.27-.21-.14-.32a.74.74,0,0,1,.61-.08C195.37,51.16,195.44,51.3,195.31,51.41Z"/><path class="cls-5" d="M170.83,41.27a.68.68,0,0,1-.6.07c-.21-.06-.28-.21-.15-.32a.74.74,0,0,1,.61-.07C170.9,41,171,41.16,170.83,41.27Z"/><path class="cls-5" d="M173.51,51.83a.7.7,0,0,1-.61.07c-.2-.06-.27-.21-.14-.32a.74.74,0,0,1,.61-.07C173.58,51.58,173.64,51.72,173.51,51.83Z"/><path class="cls-5" d="M194.73,27.81a.7.7,0,0,1-.61.07c-.21-.06-.27-.21-.14-.31a.7.7,0,0,1,.61-.08C194.8,27.56,194.86,27.7,194.73,27.81Z"/><path class="cls-5" d="M173.65,28.14a.7.7,0,0,1-.61.07c-.2-.07-.27-.21-.14-.32a.74.74,0,0,1,.61-.07C173.72,27.89,173.78,28,173.65,28.14Z"/><path class="cls-5" d="M95.77,51.44c.16.09.14.24,0,.32a.73.73,0,0,1-.63,0c-.16-.09-.14-.24,0-.32A.73.73,0,0,1,95.77,51.44Z"/><path class="cls-5" d="M93.47,45.27c.16.09.14.24,0,.32a.71.71,0,0,1-.62,0c-.17-.09-.15-.24,0-.32A.73.73,0,0,1,93.47,45.27Z"/><path class="cls-5" d="M98.36,38.78c.16.1.14.24,0,.33a.81.81,0,0,1-.63,0c-.16-.1-.14-.24,0-.33A.81.81,0,0,1,98.36,38.78Z"/><path class="cls-5" d="M113.86,25a.74.74,0,0,1-.61.08c-.2-.07-.27-.21-.14-.32a.71.71,0,0,1,.61-.07C113.93,24.7,114,24.85,113.86,25Z"/><path class="cls-5" d="M121.77,15.17a.7.7,0,0,1-.61.07c-.21-.06-.27-.21-.14-.31a.7.7,0,0,1,.61-.08C121.84,14.92,121.9,15.06,121.77,15.17Z"/><path class="cls-5" d="M92.35,27a.74.74,0,0,1-.61.07c-.21-.07-.27-.21-.14-.32a.7.7,0,0,1,.61-.07C92.41,26.74,92.48,26.88,92.35,27Z"/><path class="cls-5" d="M122.07,42.05a.7.7,0,0,1-.61.07c-.21-.07-.27-.21-.14-.32a.7.7,0,0,1,.61-.07C122.14,41.8,122.2,41.94,122.07,42.05Z"/><path class="cls-5" d="M145.9,55.48a.74.74,0,0,1-.61.08c-.21-.07-.27-.21-.14-.32a.7.7,0,0,1,.61-.07C146,55.23,146,55.38,145.9,55.48Z"/><path class="cls-5" d="M150.1,72.9a.74.74,0,0,1-.61.07c-.21-.07-.27-.21-.14-.32a.7.7,0,0,1,.61-.07C150.17,72.65,150.23,72.79,150.1,72.9Z"/><path class="cls-5" d="M140,81.21a.71.71,0,0,1-.61.07c-.21-.06-.27-.21-.14-.31a.7.7,0,0,1,.61-.08C140.05,81,140.12,81.1,140,81.21Z"/><path class="cls-5" d="M125,52.19a.7.7,0,0,1-.61.07c-.2-.06-.27-.2-.14-.31a.74.74,0,0,1,.61-.08C125.09,51.94,125.15,52.08,125,52.19Z"/><path class="cls-5" d="M124.66,58.06a.7.7,0,0,1-.61.07c-.21-.07-.27-.21-.14-.32a.74.74,0,0,1,.61-.07C124.73,57.81,124.79,58,124.66,58.06Z"/><path class="cls-5" d="M117.7,74a.74.74,0,0,1-.61.08c-.2-.07-.27-.21-.14-.32a.7.7,0,0,1,.61-.07C117.77,73.7,117.83,73.85,117.7,74Z"/><path class="cls-5" d="M143.8,58.82a.7.7,0,0,1-.61.08c-.2-.07-.27-.21-.14-.32a.71.71,0,0,1,.61-.07C143.87,58.57,143.93,58.72,143.8,58.82Z"/><path class="cls-5" d="M141.07,50a.74.74,0,0,1-.61.08c-.21-.07-.27-.21-.14-.32a.71.71,0,0,1,.6-.08C141.13,49.73,141.2,49.87,141.07,50Z"/><path class="cls-5" d="M151.48,47a.7.7,0,0,1-.61.07c-.21-.06-.27-.21-.14-.31a.74.74,0,0,1,.61-.08C151.55,46.71,151.61,46.85,151.48,47Z"/><path class="cls-5" d="M165,58.91a.7.7,0,0,1-.61.07c-.21-.07-.27-.21-.14-.32a.74.74,0,0,1,.61-.07C165.1,58.66,165.16,58.8,165,58.91Z"/><path class="cls-5" d="M174.13,70.79a.7.7,0,0,1-.61.07c-.21-.06-.27-.21-.14-.31a.7.7,0,0,1,.61-.08C174.2,70.54,174.26,70.68,174.13,70.79Z"/><path class="cls-5" d="M185.46,80.67a.74.74,0,0,1-.61.07c-.2-.07-.27-.21-.14-.32a.7.7,0,0,1,.61-.07C185.53,80.42,185.59,80.56,185.46,80.67Z"/><path class="cls-5" d="M189.41,58.52a.7.7,0,0,1-.61.07c-.21-.07-.27-.21-.14-.32a.74.74,0,0,1,.61-.07C189.48,58.27,189.54,58.41,189.41,58.52Z"/><path class="cls-5" d="M193.59,69.35a.71.71,0,0,1-.61.07c-.21-.06-.27-.21-.14-.31a.7.7,0,0,1,.61-.08C193.65,69.1,193.72,69.24,193.59,69.35Z"/><path class="cls-5" d="M195.51,85.4a.74.74,0,0,1-.61.07c-.21-.07-.27-.21-.14-.32a.7.7,0,0,1,.61-.07C195.58,85.15,195.64,85.29,195.51,85.4Z"/><path class="cls-5" d="M193.72,94a.74.74,0,0,1-.61.08c-.2-.07-.27-.21-.14-.32a.74.74,0,0,1,.61-.08C193.79,93.72,193.85,93.86,193.72,94Z"/><path class="cls-5" d="M187.68,92.74a.7.7,0,0,1-.61.08c-.2-.07-.27-.21-.14-.32a.7.7,0,0,1,.61-.07C187.75,92.49,187.81,92.64,187.68,92.74Z"/><path class="cls-5" d="M155.31,93.89a.74.74,0,0,1-.61.08c-.21-.07-.27-.21-.14-.32a.74.74,0,0,1,.61-.08C155.38,93.64,155.44,93.78,155.31,93.89Z"/><path class="cls-5" d="M133.14,73.82a.74.74,0,0,1-.61.07c-.21-.07-.27-.21-.14-.32a.7.7,0,0,1,.61-.07C133.21,73.57,133.27,73.71,133.14,73.82Z"/><path class="cls-5" d="M161.24,78.65a.74.74,0,0,1-.61.08c-.21-.07-.27-.21-.14-.32a.7.7,0,0,1,.61-.07C161.31,78.4,161.37,78.55,161.24,78.65Z"/><path class="cls-5" d="M158.8,79.89a.7.7,0,0,1-.61.07c-.21-.07-.27-.21-.14-.32a.7.7,0,0,1,.61-.07C158.87,79.64,158.93,79.78,158.8,79.89Z"/><path class="cls-5" d="M171.57,87.55a.71.71,0,0,1-.6.08c-.21-.07-.28-.21-.15-.32a.74.74,0,0,1,.61-.08C171.64,87.3,171.7,87.44,171.57,87.55Z"/><path class="cls-5" d="M169.07,69a.7.7,0,0,1-.61.07c-.21-.06-.27-.21-.14-.31a.74.74,0,0,1,.61-.08C169.14,68.76,169.2,68.9,169.07,69Z"/><path class="cls-5" d="M107.32,73.8a.71.71,0,0,1-.61.07c-.21-.06-.27-.21-.15-.31a.74.74,0,0,1,.61-.08C107.38,73.55,107.45,73.69,107.32,73.8Z"/><path class="cls-5" d="M101.48,74.22a.74.74,0,0,1-.61.08c-.21-.07-.27-.21-.14-.32a.7.7,0,0,1,.61-.07C101.55,74,101.61,74.12,101.48,74.22Z"/><path class="cls-5" d="M194.34,87.7a.74.74,0,0,1-.61.07c-.2-.07-.27-.21-.14-.32a.7.7,0,0,1,.61-.07C194.41,87.45,194.47,87.59,194.34,87.7Z"/><path class="cls-5" d="M201,99.08a.74.74,0,0,1-.61.07c-.21-.07-.27-.21-.14-.32a.7.7,0,0,1,.61-.07C201.06,98.83,201.12,99,201,99.08Z"/><path class="cls-5" d="M204,112.27a.7.7,0,0,1-.61.08c-.21-.07-.27-.21-.14-.32a.7.7,0,0,1,.61-.07C204.09,112,204.15,112.17,204,112.27Z"/><path class="cls-5" d="M200,119.23a.74.74,0,0,1-.61.07c-.2-.07-.27-.21-.14-.32a.7.7,0,0,1,.61-.07C200.06,119,200.12,119.12,200,119.23Z"/><path class="cls-5" d="M183.72,117.88a.74.74,0,0,1-.61.07c-.21-.07-.27-.21-.14-.32a.7.7,0,0,1,.61-.07C183.79,117.63,183.85,117.77,183.72,117.88Z"/><path class="cls-5" d="M161.64,118.1a.71.71,0,0,1-.61.07c-.21-.07-.27-.21-.14-.32a.74.74,0,0,1,.61-.07C161.7,117.85,161.77,118,161.64,118.1Z"/><path class="cls-5" d="M156.28,115a.7.7,0,0,1-.61.07c-.21-.06-.27-.21-.14-.31a.74.74,0,0,1,.61-.08C156.35,114.74,156.41,114.88,156.28,115Z"/><path class="cls-5" d="M178.9,113.56a.74.74,0,0,1-.61.07c-.21-.07-.27-.21-.14-.32a.7.7,0,0,1,.61-.07C179,113.31,179,113.45,178.9,113.56Z"/><path class="cls-5" d="M174.15,108a.7.7,0,0,1-.61.07c-.2-.06-.27-.21-.14-.31a.74.74,0,0,1,.61-.08C174.22,107.72,174.28,107.86,174.15,108Z"/><path class="cls-5" d="M146.23,108.51a.7.7,0,0,1-.61.07c-.2-.06-.27-.2-.14-.31a.74.74,0,0,1,.61-.08C146.3,108.26,146.36,108.4,146.23,108.51Z"/><path class="cls-5" d="M146.08,125.12a.7.7,0,0,1-.61.07c-.21-.06-.27-.21-.14-.32a.74.74,0,0,1,.61-.07C146.15,124.87,146.21,125,146.08,125.12Z"/><path class="cls-5" d="M170.31,121.92a.7.7,0,0,1-.61.08c-.2-.07-.27-.21-.14-.32a.71.71,0,0,1,.61-.07C170.38,121.67,170.44,121.82,170.31,121.92Z"/><path class="cls-5" d="M184.2,123.28a.7.7,0,0,1-.61.07c-.21-.07-.27-.21-.14-.32a.74.74,0,0,1,.61-.07C184.26,123,184.33,123.17,184.2,123.28Z"/><path class="cls-5" d="M198,125.47a.7.7,0,0,1-.61.07c-.21-.06-.27-.21-.14-.31a.74.74,0,0,1,.61-.08C198,125.22,198.08,125.36,198,125.47Z"/><path class="cls-5" d="M207.05,113.85a.7.7,0,0,1-.61.07c-.21-.06-.27-.21-.14-.31a.7.7,0,0,1,.61-.08C207.12,113.6,207.18,113.74,207.05,113.85Z"/><path class="cls-5" d="M192,104.75a.74.74,0,0,1-.61.08c-.21-.07-.28-.21-.15-.32a.71.71,0,0,1,.61-.07C192,104.5,192.07,104.65,192,104.75Z"/><path class="cls-5" d="M178.37,101.38a.71.71,0,0,1-.61.07c-.21-.06-.27-.21-.14-.31a.73.73,0,0,1,.61-.08C178.43,101.13,178.5,101.27,178.37,101.38Z"/><path class="cls-5" d="M165.17,97.6a.74.74,0,0,1-.61.07c-.21-.07-.27-.21-.14-.32a.68.68,0,0,1,.6-.07C165.23,97.35,165.3,97.49,165.17,97.6Z"/><path class="cls-5" d="M156.15,99.35a.71.71,0,0,1-.61.07c-.21-.07-.27-.21-.14-.32A.74.74,0,0,1,156,99C156.21,99.1,156.28,99.24,156.15,99.35Z"/><path class="cls-5" d="M147.25,101.9a.71.71,0,0,1-.61.08c-.21-.07-.27-.21-.15-.32a.71.71,0,0,1,.61-.07C147.31,101.65,147.38,101.8,147.25,101.9Z"/><path class="cls-5" d="M153.59,87.55a.7.7,0,0,1-.61.07c-.21-.06-.27-.21-.14-.31a.74.74,0,0,1,.61-.08C153.66,87.3,153.72,87.44,153.59,87.55Z"/><path class="cls-5" d="M94.05,77.88a.7.7,0,0,1-.61.07c-.21-.06-.27-.21-.14-.31a.74.74,0,0,1,.61-.08C94.12,77.63,94.18,77.77,94.05,77.88Z"/><path class="cls-5" d="M113.38,80.49a.7.7,0,0,1-.61.07c-.2-.06-.27-.2-.14-.31a.74.74,0,0,1,.61-.08C113.45,80.24,113.51,80.38,113.38,80.49Z"/><path class="cls-5" d="M143.06,80a.74.74,0,0,1-.61.07c-.21-.07-.28-.21-.15-.32a.71.71,0,0,1,.61-.07C143.12,79.74,143.18,79.88,143.06,80Z"/><path class="cls-5" d="M135.65,80.33a.7.7,0,0,1-.61.07c-.21-.07-.27-.21-.14-.32a.74.74,0,0,1,.61-.07C135.72,80.08,135.78,80.22,135.65,80.33Z"/><path class="cls-5" d="M157.13,119.4a.7.7,0,0,1-.61.07c-.2-.06-.27-.21-.14-.31a.71.71,0,0,1,.61-.08C157.2,119.15,157.26,119.29,157.13,119.4Z"/><path class="cls-5" d="M162.94,124a.7.7,0,0,1-.61.07c-.21-.06-.27-.21-.14-.31a.74.74,0,0,1,.61-.08C163,123.71,163.07,123.85,162.94,124Z"/><path class="cls-5" d="M179.58,127.42a.7.7,0,0,1-.61.07c-.21-.06-.27-.21-.14-.31a.7.7,0,0,1,.61-.08C179.65,127.17,179.71,127.31,179.58,127.42Z"/><path class="cls-5" d="M186.9,128.28a.74.74,0,0,1-.61.08c-.21-.07-.27-.21-.14-.32a.7.7,0,0,1,.61-.07C187,128,187,128.18,186.9,128.28Z"/><path class="cls-5" d="M193.69,129.81a.7.7,0,0,1-.61.07c-.21-.06-.27-.21-.14-.31a.7.7,0,0,1,.61-.08C193.76,129.56,193.82,129.7,193.69,129.81Z"/><path class="cls-5" d="M185.37,126.46a.7.7,0,0,1-.61.07c-.21-.07-.27-.21-.14-.32a.74.74,0,0,1,.61-.07C185.44,126.21,185.5,126.35,185.37,126.46Z"/><path class="cls-5" d="M145.62,122.09a.7.7,0,0,1-.61.07c-.2-.06-.27-.21-.14-.31a.74.74,0,0,1,.61-.08C145.69,121.84,145.75,122,145.62,122.09Z"/><path class="cls-5" d="M201.05,78a.74.74,0,0,1-.61.07c-.21-.07-.27-.21-.14-.32a.7.7,0,0,1,.61-.07C201.11,77.73,201.18,77.87,201.05,78Z"/><path class="cls-5" d="M195.63,60.49a.74.74,0,0,1-.61.07c-.21-.07-.27-.21-.14-.32a.7.7,0,0,1,.61-.07C195.7,60.24,195.76,60.38,195.63,60.49Z"/><path class="cls-5" d="M178,60.15a.74.74,0,0,1-.61.07c-.2-.07-.27-.21-.14-.32a.7.7,0,0,1,.61-.07C178.07,59.9,178.13,60,178,60.15Z"/><path class="cls-5" d="M160.58,65.2a.74.74,0,0,1-.61.08c-.2-.07-.27-.21-.14-.32a.7.7,0,0,1,.61-.07C160.65,65,160.71,65.1,160.58,65.2Z"/><path class="cls-5" d="M146.2,64.13a.71.71,0,0,1-.61.07c-.21-.06-.27-.21-.15-.32a.74.74,0,0,1,.61-.07C146.26,63.88,146.33,64,146.2,64.13Z"/></g><path class="cls-6" d="M279.9,214.12c6.42-4.58,10.81-11.57,13.72-18.89,3.74-9.37,4.36-19.51,8.68-28.59,6.92-14.53,19.91-25.64,36.38-26.84,5.13-.37,10.88,0,14.72-3.44,2.82-2.52,3.82-6.56,3.78-10.34-.14-11.68-4.11-20.87,5.1-30.38a41.28,41.28,0,0,1,12.06-8.26c.62-.3,4.56-1.66,8.09-2.86a8.47,8.47,0,0,0,5.74-8V-4a8.6,8.6,0,0,0-8.6-8.59H136.51a8.58,8.58,0,0,0-7.37,4.16C122.64,2.45,109.58,33,144.4,62.65c9.32,7.93,18.67,15.81,28.24,23.43,6.8,5.41,14.55,10,20.83,16,4.32,4.12,7.86,9.26,9.11,15.09,1.18,5.54.42,11.42-.93,17.23a72.43,72.43,0,0,0,12.85,60.28c11.05,14.53,26.9,28.17,46.59,25.81C263.69,220.51,274.05,218.29,279.9,214.12Z"/><path class="cls-7" d="M198,164.54c-1.25-16.14,10.88-31.65,7.51-47.4-1.24-5.83-4.79-11-9.1-15.09-6.29-6-14-10.56-20.83-16-9.58-7.62-18.93-15.5-28.25-23.43C120.6,39.9,122.11,16.58,127.2,2a21.93,21.93,0,0,1,20.72-14.66H369.14a22,22,0,0,1,22,22V82.13a.62.62,0,0,1-.43.6c-2.23.74-12.38,4.16-13.4,4.65a41.23,41.23,0,0,0-12.05,8.26c-9.21,9.51-5.25,18.7-5.11,30.38.05,3.78-.95,7.82-3.78,10.34-3.83,3.43-9.58,3.07-14.72,3.44-16.46,1.2-29.45,12.31-36.37,26.84-4.33,9.08-4.95,19.22-8.68,28.59-2.92,7.32-7.07,14.65-13.72,18.89-8.38,5.34-17.79,6.87-27.36,6.34C255.5,220.46,202.32,220.46,198,164.54Z"/><g id="Moon"><g id="Moon-2" data-name="Moon"><circle class="cls-8" cx="326.44" cy="28.58" r="42.53" transform="translate(232.81 342.6) rotate(-78.4)"/><path class="cls-9" d="M339.57-11.88a42.55,42.55,0,0,1-46.32,67.06,42.53,42.53,0,1,0,46.32-67.06Z"/><circle class="cls-10" cx="300.88" cy="35.07" r="5.51" transform="translate(258.99 335.07) rotate(-88.7)"/><g class="cls-9"><path d="M302.24,31A5.5,5.5,0,0,1,305.48,32a5.51,5.51,0,1,0-7.84,7.48,5.51,5.51,0,0,1,4.6-8.53Z"/></g><path class="cls-10" d="M294,12.67A1.66,1.66,0,1,1,292.34,11,1.66,1.66,0,0,1,294,12.67Z"/><g class="cls-9"><path d="M292.75,11.45a1.73,1.73,0,0,1,1,.31,1.69,1.69,0,0,0-1.39-.74,1.65,1.65,0,0,0-1,3,1.65,1.65,0,0,1,1.38-2.56Z"/></g><path class="cls-10" d="M300.88,49.3a1.66,1.66,0,1,1-1.66-1.65A1.66,1.66,0,0,1,300.88,49.3Z"/><g class="cls-9"><path d="M299.63,48.07a1.67,1.67,0,0,1,1,.32,1.66,1.66,0,1,0-2.36,2.25,1.66,1.66,0,0,1,1.38-2.57Z"/></g></g></g><path class="cls-5" d="M210.49,69s-10.49,4.87-7.7,10.87c5.29,11.35,18.82,44.77,41.92,83.49A70.6,70.6,0,0,0,247,175a4.12,4.12,0,0,0,6.93,1.54c3.38-3.67,8.74-10.55,5.5-18.9-5.83-15.05-15.27-29-17.48-34.25-.93-2.23.84-6.24,3.95-1.16s16.37,31.72,18.67,35.67c1.49,2.56,1.72,7.4,2.42,11.69a3.64,3.64,0,0,0,6.3,1.83c3.89-4.34,12.11-13.81,6-22.6C262.21,124.3,246.93,83,243.52,75.64s-11.12-19.2-20.6-14.54Z"/><path class="cls-11" d="M207.87,64.94a20.49,20.49,0,0,1,2,4.15s7.87-.91,10.73-6.78L218.8,59Z"/><path class="cls-5" d="M221.64,56.11a16,16,0,1,1-9.17-20.76A16,16,0,0,1,221.64,56.11Z"/><path class="cls-12" d="M210.48,49.92c1.87,6-1,12.29-6.37,14S192.83,62,191,56s1-12.28,6.38-14S208.61,43.89,210.48,49.92Z"/><path class="cls-13" d="M214.87,47.84a3.55,3.55,0,1,0,4.7-2.33A3.71,3.71,0,0,0,214.87,47.84Z"/><path class="cls-12" d="M215.65,48.14a3.55,3.55,0,1,0,4.7-2.33A3.71,3.71,0,0,0,215.65,48.14Z"/><path class="cls-5" d="M217.71,48.87a2,2,0,1,0,2.69-1.33A2.12,2.12,0,0,0,217.71,48.87Z"/><path class="cls-14" d="M202.26,38.7a13.25,13.25,0,0,0-7.3.66A15.59,15.59,0,0,0,193,41.9,11.92,11.92,0,0,1,202,40c7.29,1.32,11.56,7.87,10.16,15.55-1.15,6.34-4.58,9.57-10.67,9.92a15.9,15.9,0,0,0,3.5.77c4.64-1.29,7.45-4.75,8.49-10.45C215,47.36,210.31,40.17,202.26,38.7Z"/><path class="cls-5" d="M205.76,73.51s-17.17,21-11.47,57.07l8.27-2s-1.67-24,10.46-34.22Z"/><path class="cls-5" d="M202.56,128.54s4.18,10.74,2.86,11.86-3-1.84-3-1.84a2.86,2.86,0,0,1-1.88,2.06c-1.51.37-2.11-2.87-2.11-2.87s-.52,1.92-2.07,2.11-2-9.28-2-9.28Z"/><path class="cls-5" d="M236,82.92s18.93-19.41,16.39-55.86L244,28.37s-.43,24.1-13.39,33.18Z"/><path class="cls-5" d="M244,28.37s-3.22-11.07-1.81-12.07S245,18.4,245,18.4a2.85,2.85,0,0,1,2.05-1.89c1.53-.23,1.85,3,1.85,3s.69-1.87,2.25-1.92,1.2,9.42,1.2,9.42Z"/><path class="cls-12" d="M233.91,98.7l-9.52,4.45a5.67,5.67,0,0,1-7.52-2.73l-5.09-10.9A5.65,5.65,0,0,1,214.51,82L224,77.56a5.66,5.66,0,0,1,7.51,2.72l5.1,10.9A5.67,5.67,0,0,1,233.91,98.7ZM215.37,83.84a3.63,3.63,0,0,0-1.75,4.82l5.09,10.9a3.63,3.63,0,0,0,4.82,1.75l9.52-4.45A3.63,3.63,0,0,0,234.8,92l-5.1-10.9a3.62,3.62,0,0,0-4.81-1.75Z"/><path class="cls-15" d="M221.25,92.58a2.3,2.3,0,0,1-3-1.11l-1.5-3.21a2.29,2.29,0,0,1,4.14-1.94l1.5,3.22A2.3,2.3,0,0,1,221.25,92.58Zm-3-6.44a1.27,1.27,0,0,0-.61,1.69l1.5,3.21a1.27,1.27,0,1,0,2.3-1.07l-1.5-3.22A1.28,1.28,0,0,0,218.24,86.14Z"/><path class="cls-15" d="M225.68,85.88a2.15,2.15,0,1,1,1-2.86A2.16,2.16,0,0,1,225.68,85.88Zm-1.4-3a1.14,1.14,0,1,0,1.52.55A1.14,1.14,0,0,0,224.28,82.9Z"/><path class="cls-15" d="M227.83,90.48a2.16,2.16,0,1,1,1-2.87A2.16,2.16,0,0,1,227.83,90.48Zm-1.4-3A1.14,1.14,0,1,0,228,88,1.14,1.14,0,0,0,226.43,87.49Z"/><path class="cls-15" d="M230,95.08a2.16,2.16,0,1,1,1-2.87A2.17,2.17,0,0,1,230,95.08Zm-1.4-3a1.14,1.14,0,0,0-.55,1.52,1.14,1.14,0,1,0,.55-1.52Z"/><path class="cls-15" d="M225,97.69l-1.53.71a2.32,2.32,0,0,1-3.09-1.12l-.07-.15A2.32,2.32,0,0,1,221.42,94l1.53-.72A2.32,2.32,0,0,1,226,94.45l.07.14A2.34,2.34,0,0,1,225,97.69ZM221.85,95a1.31,1.31,0,0,0-.63,1.75l.07.15a1.31,1.31,0,0,0,1.74.63l1.53-.71a1.32,1.32,0,0,0,.63-1.75l-.07-.15a1.31,1.31,0,0,0-1.74-.63Z"/><path class="cls-15" d="M266.74,127.6l-.72-1.39a31.28,31.28,0,0,0-13.56,8.21c.24.47.48,1,.73,1.42C255.3,133.74,260,129.3,266.74,127.6Zm-73.58-9.94a27.41,27.41,0,0,0,9.39,5.18c0-.5,0-1,.07-1.54a26.53,26.53,0,0,1-9.47-5.63C193.15,116.33,193.15,117,193.16,117.66Zm47,37.91.77,1.34c3.28-2.78,8.56-6.22,15.4-6.53-.23-.49-.46-1-.69-1.47A27.43,27.43,0,0,0,240.19,155.57Zm7-22.59-.84-1.48a27.4,27.4,0,0,0-15.75,6.73l.73,1.38C234.66,136.77,240.1,133.18,247.19,133Zm-3.85-97.83c-.07.49-.15,1-.23,1.51,2.46.74,5.64,2.59,9,6.84q.12-1.05.21-2.13C249,37.59,245.86,35.86,243.34,35.15Zm19.31,119.12c.27.51.52,1,.74,1.41,2.28-2.27,7.46-7.08,14.82-8.47l-.91-1.38C270.17,147.37,265.11,151.86,262.65,154.27Zm-66.5-60.34a47.91,47.91,0,0,0,9.17,12.56c.18-.53.39-1,.59-1.57a45.88,45.88,0,0,1-9.1-13.24C196.58,92.4,196.36,93.16,196.15,93.93Zm42.46-42.37c-.22.46-.46.91-.7,1.37,2.74.75,6.42,2.88,10.23,8.29.2-.57.39-1.16.58-1.76C245,54.57,241.45,52.41,238.61,51.56Z"/><path class="cls-5" d="M659.09-98.36C637.86-55.26,582-26.74,529.13-32,468.47-38.09,462.51,11,456.21,63c-3.64,30-7.39,61-21.53,84-7.3,11.89-15.76,18.35-25.87,19.75-24.33,3.42-53.55-23.66-79.43-47.51-14.65-13.5-28.49-26.25-40.13-32.38-40.87-21.53-57.86,6.42-58,6.71l2.18,1.28c.16-.27,15.91-26.18,54.68-5.75,11.34,6,25.06,18.62,39.59,32,25.92,23.88,55.24,50.89,80.39,48.29l1.09-.13c10.76-1.5,20.07-8.54,27.68-20.94,14.43-23.5,18.22-54.8,21.89-85.06,6.41-52.93,11.93-98.65,70.16-92.83,53.86,5.38,110.81-23.74,132.47-67.73,12.52-25.43,10.77-50.76-4.73-72.41l-3,.31C669.37-148.21,671.39-123.34,659.09-98.36Z"/><circle class="cls-12" cx="134.62" cy="34.81" r="16.87" transform="matrix(0.26, -0.97, 0.97, 0.26, 65.74, 155.6)"/><path class="cls-16" d="M138,18.28c-.52-.1-1-.18-1.54-.23A16.86,16.86,0,0,1,129.75,51a15,15,0,0,0,1.5.38A16.87,16.87,0,0,0,138,18.28Z"/><path class="cls-17" d="M128.72,21.86a1,1,0,0,1-.68-.56.94.94,0,0,1,.51-1.22,15.63,15.63,0,0,1,6.95-1.18.93.93,0,1,1-.1,1.86,13.9,13.9,0,0,0-6.14,1A.93.93,0,0,1,128.72,21.86Z"/><path class="cls-18" d="M151.29,32.21a16.62,16.62,0,0,1,.18,1.73c5.2,2.06,8.33,4.18,8,5.78-.59,2.89-12.32,2.94-26.2.11s-24.65-7.46-24.07-10.35c.34-1.66,4.34-2.38,10.3-2.16a15.37,15.37,0,0,1,.83-1.49c-9.79-.84-16.69,0-17.19,2.42-.73,3.58,12.65,9.34,29.87,12.85s31.79,3.44,32.52-.15C166,38.56,160.27,35.22,151.29,32.21Z"/><path class="cls-17" d="M127.72,22.37a1.16,1.16,0,1,1-.91-1.37A1.16,1.16,0,0,1,127.72,22.37Z"/><path class="cls-19" d="M324.68,170.17a18.43,18.43,0,1,1-13.21-22.47A18.43,18.43,0,0,1,324.68,170.17Z"/><path class="cls-18" d="M288.77,169.18c5.24.17,19.47-.32,35.67-9.1a18.57,18.57,0,0,0-2.87-5.62,53.66,53.66,0,0,1-33.09,9.4A18.5,18.5,0,0,0,288.77,169.18Z"/><path class="cls-18" d="M324.68,170.17a18.4,18.4,0,0,0,.56-5.63A53.8,53.8,0,0,1,291,175a18.32,18.32,0,0,0,2.89,3.68,71.59,71.59,0,0,0,30.31-7Q324.48,170.92,324.68,170.17Z"/><path class="cls-18" d="M318.18,151a18.43,18.43,0,0,0-28.18,7A72.82,72.82,0,0,0,318.18,151Z"/><path class="cls-20" d="M297.72,166.07a2.39,2.39,0,1,1-1.71-2.91A2.38,2.38,0,0,1,297.72,166.07Z"/><g class="cls-9"><path d="M296.43,163.91a2.34,2.34,0,0,1,1.24.8,2.39,2.39,0,1,0-4.1,2.28,2.36,2.36,0,0,1-.05-1.37A2.39,2.39,0,0,1,296.43,163.91Z"/></g><g class="cls-9"><path class="cls-20" d="M293.47,170.79a.75.75,0,0,1,.38.24.72.72,0,1,0-1.24.69.73.73,0,0,1,.86-.93Z"/></g><g class="cls-9"><path class="cls-20" d="M298.68,177.3a.8.8,0,0,1,.38.24.72.72,0,0,0-1.38.05.71.71,0,0,0,.14.63.72.72,0,0,1,.86-.92Z"/></g><path class="cls-9" d="M318.59,151.44a18.44,18.44,0,0,1-29,20.58,18.43,18.43,0,1,0,29-20.58Z"/><g id="Star" class="cls-21"><circle class="cls-5" cx="167.01" cy="88.55" r="3.93"/><path class="cls-5" d="M255.24,60.31a3.93,3.93,0,0,1-4,3.9,3.93,3.93,0,0,1,3.89,4,3.93,3.93,0,0,1,4-3.9A3.93,3.93,0,0,1,255.24,60.31Z"/><circle class="cls-5" cx="180.01" cy="8.87" r="8.25"/></g><g id="Star-2" data-name="Star" class="cls-21"><circle class="cls-5" cx="263.49" cy="198.93" r="6.22"/><circle class="cls-5" cx="230.07" cy="173.98" r="7.72"/><path class="cls-5" d="M276.76,118.35a6.21,6.21,0,0,1,.34-8.78,6.21,6.21,0,0,1-8.78-.35A6.21,6.21,0,0,1,268,118,6.22,6.22,0,0,1,276.76,118.35Z"/><path class="cls-5" d="M298,175a3.9,3.9,0,0,1-2.73-4.81,3.93,3.93,0,0,1-4.82,2.73,3.9,3.9,0,0,1,2.73,4.81A3.93,3.93,0,0,1,298,175Z"/><path class="cls-5" d="M236.61,145.67a3.9,3.9,0,0,1,.22-5.52,3.92,3.92,0,0,1-5.53-.22,3.91,3.91,0,0,1-.22,5.53A3.92,3.92,0,0,1,236.61,145.67Z"/></g><rect class="cls-22" x="54.19" y="-0.11" width="262.64" height="205.36"/></g></g></svg>