<svg xmlns="http://www.w3.org/2000/svg" xmlns:xlink="http://www.w3.org/1999/xlink" viewBox="0 0 280 235"><defs><style>.cls-1{isolation:isolate;}.cls-2{fill:#c62a6a;}.cls-3{fill:url(#linear-gradient);}.cls-4{opacity:0.6;}.cls-5{fill:#fff;}.cls-6{fill:#ed2755;}.cls-7{fill:url(#New_Gradient_Swatch_3);}.cls-8{fill:#d1f4ff;}.cls-9{opacity:0.1;}.cls-10{fill:#a6cddd;}.cls-11{fill:#e7e7e7;}.cls-12{fill:#123456;}.cls-13{fill:#045379;}.cls-14{fill:#dcdcdc;}.cls-15{fill:#dadada;}.cls-16,.cls-17,.cls-18{fill:#f9dac9;}.cls-16{opacity:0.9;mix-blend-mode:multiply;}.cls-17{mix-blend-mode:soft-light;}.cls-19{fill:#fce8de;}.cls-20{fill:#f7bd9f;}.cls-21{opacity:0.5;}.cls-22{fill:none;}</style><linearGradient id="linear-gradient" x1="329.35" y1="167.1" x2="103.39" y2="-78.38" gradientUnits="userSpaceOnUse"><stop offset="0" stop-color="#ed2755"/><stop offset="0.64" stop-color="#f26a30"/><stop offset="1" stop-color="#f58b1e"/></linearGradient><linearGradient id="New_Gradient_Swatch_3" x1="75.39" y1="108.1" x2="356.34" y2="108.1" gradientUnits="userSpaceOnUse"><stop offset="0" stop-color="#ed2755"/><stop offset="0.17" stop-color="#ee3150"/><stop offset="0.46" stop-color="#f04b41"/><stop offset="0.83" stop-color="#f3752a"/><stop offset="1" stop-color="#f58b1e"/></linearGradient></defs><title>contact</title><g class="cls-1"><g id="Layer_1" data-name="Layer 1"><path class="cls-2" d="M3.65-1.08c-4.88.47.73,21.68,1.57,23.59,4.33,9.91,12.07,18.2,20.6,24.67C41,58.65,59.16,65.21,74.38,76.54s23.21,26.26,31.12,43.28c6.61,14.25,15,29.16,29.39,35.48,35.08,15.42,67.65-12.3,100-20.45,15.54-3.92,28.65.85,37.71,14.36,6,9,9.18,19.5,13.21,29.53S295.13,198.83,304,205c9.19,6.45,39.35,11.06,44.08-4.35l-20.92-231Z"/><path class="cls-3" d="M10.26-2.24c-4.88.46.73,21.68,1.57,23.59C16.16,31.25,23.9,39.54,32.43,46,47.57,57.48,65.77,64,81,75.37s23.21,26.27,31.12,43.29c6.61,14.25,15,29.15,29.38,35.47,35.09,15.42,67.66-12.3,100-20.45,15.54-3.91,28.65.85,37.71,14.36,6,9,9.18,19.5,13.21,29.53s9.31,20.09,18.15,26.3c9.19,6.45,39.34,11.06,44.08-4.35l-20.92-231Z"/><g class="cls-4"><path class="cls-5" d="M40.47,5.67c.17.1.15.26,0,.34a.8.8,0,0,1-.66,0c-.17-.1-.15-.25,0-.34A.8.8,0,0,1,40.47,5.67Z"/><path class="cls-5" d="M44.36,16.09c.17.1.15.25,0,.34a.8.8,0,0,1-.66,0c-.17-.1-.15-.25,0-.34A.8.8,0,0,1,44.36,16.09Z"/><path class="cls-5" d="M52.15,20.63c.17.1.15.25,0,.34a.8.8,0,0,1-.66,0c-.17-.1-.15-.25,0-.34A.8.8,0,0,1,52.15,20.63Z"/><path class="cls-5" d="M59.8,21.89c.17.1.15.25,0,.34a.8.8,0,0,1-.66,0c-.17-.1-.15-.25,0-.34A.8.8,0,0,1,59.8,21.89Z"/><path class="cls-5" d="M62.68,15.64c.17.1.15.26,0,.35A.8.8,0,0,1,62,16c-.17-.1-.15-.26,0-.35A.8.8,0,0,1,62.68,15.64Z"/><path class="cls-5" d="M60.59,3.38c.17.1.15.26,0,.35a.84.84,0,0,1-.66,0c-.17-.1-.15-.25,0-.34A.8.8,0,0,1,60.59,3.38Z"/><path class="cls-5" d="M92.05,14.92a.77.77,0,0,1-.64.08c-.22-.07-.29-.22-.15-.34a.76.76,0,0,1,.64-.08C92.12,14.66,92.18,14.81,92.05,14.92Z"/><path class="cls-5" d="M50.26,7.92c.17.1.15.26,0,.35a.84.84,0,0,1-.66,0c-.17-.1-.15-.25,0-.34A.8.8,0,0,1,50.26,7.92Z"/><path class="cls-5" d="M28.35-.29c.17.11.15.26,0,.35a.8.8,0,0,1-.66,0c-.17-.1-.15-.26,0-.35A.84.84,0,0,1,28.35-.29Z"/><path class="cls-5" d="M12.16,5.05c.17.1.15.26,0,.35a.8.8,0,0,1-.66,0c-.17-.1-.15-.26,0-.35A.8.8,0,0,1,12.16,5.05Z"/><path class="cls-5" d="M11.47,15c.17.1.15.25,0,.34a.8.8,0,0,1-.66,0c-.17-.1-.15-.25,0-.34A.8.8,0,0,1,11.47,15Z"/><path class="cls-5" d="M4.92,22.26c.17.11.15.26,0,.35a.8.8,0,0,1-.66,0c-.17-.1-.15-.26,0-.35A.8.8,0,0,1,4.92,22.26Z"/><path class="cls-5" d="M19.17,13.83c.17.1.15.26,0,.34a.8.8,0,0,1-.66,0c-.17-.1-.15-.25,0-.34A.8.8,0,0,1,19.17,13.83Z"/><path class="cls-5" d="M30.22,7c.17.1.15.25,0,.34a.8.8,0,0,1-.66,0c-.17-.1-.15-.25,0-.34A.8.8,0,0,1,30.22,7Z"/><path class="cls-5" d="M24.26,31.13c.18.1.16.26,0,.34a.78.78,0,0,1-.65,0c-.17-.1-.16-.25,0-.34A.78.78,0,0,1,24.26,31.13Z"/><path class="cls-5" d="M40.05,19.72c.17.1.15.25,0,.34a.8.8,0,0,1-.66,0c-.17-.1-.15-.25,0-.34A.8.8,0,0,1,40.05,19.72Z"/><path class="cls-5" d="M48,15c.17.1.15.25,0,.34a.8.8,0,0,1-.66,0c-.17-.1-.15-.25,0-.34A.8.8,0,0,1,48,15Z"/><path class="cls-5" d="M23.68,38.75c.17.1.16.25,0,.34a.78.78,0,0,1-.65,0c-.17-.1-.16-.25,0-.34A.78.78,0,0,1,23.68,38.75Z"/><path class="cls-5" d="M17.9,43.51c.17.1.15.25,0,.34a.8.8,0,0,1-.66,0c-.17-.1-.15-.25,0-.34A.8.8,0,0,1,17.9,43.51Z"/><path class="cls-5" d="M39.28,59.12c.17.11.15.26,0,.35a.8.8,0,0,1-.66,0c-.17-.1-.15-.26,0-.35A.8.8,0,0,1,39.28,59.12Z"/><path class="cls-5" d="M39.44,61.9c.17.1.15.25,0,.34a.8.8,0,0,1-.66,0c-.17-.1-.15-.25,0-.34A.8.8,0,0,1,39.44,61.9Z"/><path class="cls-5" d="M13.43,32.34c.17.1.15.25,0,.34a.8.8,0,0,1-.66,0c-.17-.1-.15-.25,0-.34A.8.8,0,0,1,13.43,32.34Z"/><path class="cls-5" d="M34.88,13c.17.1.15.26,0,.34a.8.8,0,0,1-.66,0c-.17-.1-.15-.25,0-.34A.8.8,0,0,1,34.88,13Z"/><path class="cls-5" d="M25.07,15.11a.77.77,0,0,1-.64.08c-.22-.07-.29-.22-.15-.34a.76.76,0,0,1,.64-.08C25.14,14.85,25.2,15,25.07,15.11Z"/><path class="cls-5" d="M59.33,15.2a.73.73,0,0,1-.64.08c-.22-.07-.29-.22-.15-.33a.73.73,0,0,1,.64-.08C59.4,14.94,59.47,15.09,59.33,15.2Z"/><path class="cls-5" d="M67.67,19.32a.76.76,0,0,1-.64.07c-.22-.07-.28-.22-.15-.33a.79.79,0,0,1,.65-.08C67.74,19.05,67.81,19.2,67.67,19.32Z"/><path class="cls-5" d="M85.73,17.36a.77.77,0,0,1-.64.08c-.22-.07-.29-.22-.15-.34a.73.73,0,0,1,.64-.07C85.8,17.1,85.86,17.25,85.73,17.36Z"/><path class="cls-5" d="M87.37,23.21a.73.73,0,0,1-.64.08c-.22-.07-.28-.22-.15-.33a.74.74,0,0,1,.64-.08C87.44,23,87.51,23.1,87.37,23.21Z"/><path class="cls-5" d="M62.92,19.08c.17.1.15.26,0,.35a.84.84,0,0,1-.66,0c-.17-.1-.15-.25,0-.34A.8.8,0,0,1,62.92,19.08Z"/><path class="cls-5" d="M35.88,44.67c.17.1.15.26,0,.34a.8.8,0,0,1-.66,0c-.17-.1-.15-.25,0-.34A.8.8,0,0,1,35.88,44.67Z"/><path class="cls-5" d="M19.45,34.22c.17.1.15.26-.05.34a.78.78,0,0,1-.65,0c-.17-.1-.16-.25,0-.34A.8.8,0,0,1,19.45,34.22Z"/><path class="cls-5" d="M54.4,40.82c.17.1.16.26,0,.35a.78.78,0,0,1-.65,0c-.18-.11-.16-.26,0-.35A.78.78,0,0,1,54.4,40.82Z"/><path class="cls-5" d="M7.7,29.71a.76.76,0,0,1-.64.07c-.22-.07-.28-.22-.15-.33a.77.77,0,0,1,.64-.08C7.77,29.44,7.84,29.59,7.7,29.71Z"/><path class="cls-5" d="M51.8,25.08a.73.73,0,0,1-.64.08c-.22-.07-.28-.22-.15-.33a.74.74,0,0,1,.64-.08C51.87,24.82,51.94,25,51.8,25.08Z"/><path class="cls-5" d="M91.77,20.75a.73.73,0,0,1-.64.07c-.22-.07-.28-.22-.15-.33a.77.77,0,0,1,.64-.08C91.84,20.48,91.91,20.63,91.77,20.75Z"/><path class="cls-5" d="M105.42,27.59a.73.73,0,0,1-.64.08c-.22-.07-.29-.22-.15-.33a.73.73,0,0,1,.64-.08C105.49,27.33,105.56,27.48,105.42,27.59Z"/><path class="cls-5" d="M81.16,17.38a.73.73,0,0,1-.64.08c-.22-.07-.29-.22-.15-.33a.73.73,0,0,1,.64-.08C81.23,17.12,81.3,17.27,81.16,17.38Z"/><path class="cls-5" d="M23.27,23.36a.74.74,0,0,1-.64.08c-.22-.07-.29-.22-.15-.33a.73.73,0,0,1,.64-.08C23.34,23.1,23.4,23.25,23.27,23.36Z"/><path class="cls-5" d="M55.45,43.14c.17.1.15.25,0,.34a.8.8,0,0,1-.66,0c-.17-.1-.15-.26,0-.34A.8.8,0,0,1,55.45,43.14Z"/><path class="cls-5" d="M31.2,35.12c.17.1.15.26,0,.35a.8.8,0,0,1-.66,0c-.17-.1-.15-.26,0-.35A.8.8,0,0,1,31.2,35.12Z"/><path class="cls-5" d="M40.47,30.15c.17.1.15.25,0,.34a.8.8,0,0,1-.66,0c-.17-.1-.15-.25,0-.34A.8.8,0,0,1,40.47,30.15Z"/><path class="cls-5" d="M24.6,21.14c.17.1.15.26,0,.34a.8.8,0,0,1-.66,0c-.17-.1-.15-.25,0-.34A.8.8,0,0,1,24.6,21.14Z"/><path class="cls-5" d="M136.45,21.62a.77.77,0,0,1-.64.08c-.22-.07-.29-.22-.15-.34a.77.77,0,0,1,.64-.08C136.52,21.36,136.59,21.51,136.45,21.62Z"/><path class="cls-5" d="M151.53,32a.77.77,0,0,1-.64.07c-.22-.07-.29-.22-.15-.33a.73.73,0,0,1,.64-.08C151.6,31.75,151.66,31.9,151.53,32Z"/><path class="cls-5" d="M160.14,38.58a.76.76,0,0,1-.64.08c-.22-.07-.29-.22-.15-.34a.77.77,0,0,1,.64-.08C160.21,38.32,160.28,38.47,160.14,38.58Z"/><path class="cls-5" d="M159.76,14.94a.79.79,0,0,1-.65.08c-.21-.07-.28-.22-.14-.34a.73.73,0,0,1,.64-.07C159.83,14.68,159.89,14.83,159.76,14.94Z"/><path class="cls-5" d="M117.94,18.42a.73.73,0,0,1-.64.08c-.22-.07-.28-.22-.15-.33a.74.74,0,0,1,.64-.08C118,18.16,118.08,18.31,117.94,18.42Z"/><path class="cls-5" d="M110.91,19.19a.76.76,0,0,1-.64.08c-.22-.08-.28-.23-.15-.34a.79.79,0,0,1,.65-.08C111,18.92,111.05,19.07,110.91,19.19Z"/><path class="cls-5" d="M103.81,24.09a.73.73,0,0,1-.64.08c-.22-.07-.29-.22-.15-.33a.73.73,0,0,1,.64-.08C103.88,23.83,104,24,103.81,24.09Z"/><path class="cls-5" d="M72.07,32.86a.73.73,0,0,1-.64.07c-.22-.07-.29-.22-.15-.33a.77.77,0,0,1,.64-.08C72.14,32.59,72.21,32.74,72.07,32.86Z"/><path class="cls-5" d="M80.21,32.58a.76.76,0,0,1-.64.07c-.22-.07-.28-.22-.15-.33a.74.74,0,0,1,.64-.08C80.28,32.31,80.35,32.46,80.21,32.58Z"/><path class="cls-5" d="M100.93,37.49a.73.73,0,0,1-.64.08c-.22-.07-.28-.22-.15-.33a.74.74,0,0,1,.64-.08C101,37.23,101.07,37.38,100.93,37.49Z"/><path class="cls-5" d="M113.26,46a.79.79,0,0,1-.65.08c-.21-.07-.28-.22-.14-.34a.76.76,0,0,1,.64-.08C113.33,45.74,113.39,45.89,113.26,46Z"/><path class="cls-5" d="M127.07,33.12a.76.76,0,0,1-.64.07c-.22-.07-.28-.22-.15-.33a.76.76,0,0,1,.65-.08C127.14,32.85,127.21,33,127.07,33.12Z"/><path class="cls-5" d="M131.82,35.87a.76.76,0,0,1-.65.08c-.21-.07-.28-.22-.14-.34a.76.76,0,0,1,.64-.07C131.89,35.61,132,35.76,131.82,35.87Z"/><path class="cls-5" d="M142.7,45.55a.77.77,0,0,1-.64.07c-.22-.07-.29-.22-.15-.33a.73.73,0,0,1,.64-.08C142.77,45.28,142.84,45.43,142.7,45.55Z"/><path class="cls-5" d="M150.22,52.77a.73.73,0,0,1-.64.08c-.22-.07-.28-.22-.15-.33a.74.74,0,0,1,.64-.08C150.29,52.51,150.36,52.66,150.22,52.77Z"/><path class="cls-5" d="M124.46,42.1a.76.76,0,0,1-.64.07c-.22-.07-.28-.22-.15-.33a.77.77,0,0,1,.64-.08C124.53,41.83,124.6,42,124.46,42.1Z"/><path class="cls-5" d="M127.28,53.21a.73.73,0,0,1-.64.08c-.22-.07-.28-.22-.15-.33a.74.74,0,0,1,.64-.08C127.35,53,127.42,53.1,127.28,53.21Z"/><path class="cls-5" d="M149.62,27.93A.77.77,0,0,1,149,28c-.22-.07-.29-.22-.15-.34a.76.76,0,0,1,.64-.08C149.69,27.67,149.75,27.82,149.62,27.93Z"/><path class="cls-5" d="M127.43,28.27a.73.73,0,0,1-.64.08c-.22-.07-.29-.22-.15-.33a.73.73,0,0,1,.64-.08C127.5,28,127.57,28.16,127.43,28.27Z"/><path class="cls-5" d="M45.44,52.8c.17.1.16.25,0,.34a.78.78,0,0,1-.65,0c-.18-.1-.16-.25,0-.34A.78.78,0,0,1,45.44,52.8Z"/><path class="cls-5" d="M43,46.3c.17.1.15.26,0,.35a.8.8,0,0,1-.66,0c-.17-.1-.15-.26,0-.35A.8.8,0,0,1,43,46.3Z"/><path class="cls-5" d="M48.17,39.48c.17.1.15.25,0,.34a.8.8,0,0,1-.66,0c-.17-.1-.15-.25,0-.34A.8.8,0,0,1,48.17,39.48Z"/><path class="cls-5" d="M64.49,24.92a.73.73,0,0,1-.64.08c-.22-.07-.28-.22-.15-.33a.76.76,0,0,1,.65-.08C64.56,24.66,64.63,24.81,64.49,24.92Z"/><path class="cls-5" d="M72.81,14.62a.73.73,0,0,1-.64.08c-.22-.07-.28-.22-.15-.33a.76.76,0,0,1,.65-.08C72.88,14.36,73,14.51,72.81,14.62Z"/><path class="cls-5" d="M41.85,27.06a.76.76,0,0,1-.65.08c-.21-.07-.28-.22-.14-.34a.76.76,0,0,1,.64-.07C41.92,26.8,42,27,41.85,27.06Z"/><path class="cls-5" d="M73.13,42.92a.77.77,0,0,1-.64.07c-.22-.07-.29-.22-.15-.33a.73.73,0,0,1,.64-.08C73.2,42.65,73.27,42.8,73.13,42.92Z"/><path class="cls-5" d="M98.22,57.06a.79.79,0,0,1-.65.08c-.21-.07-.28-.22-.14-.34a.76.76,0,0,1,.64-.08C98.29,56.8,98.35,57,98.22,57.06Z"/><path class="cls-5" d="M102.64,75.39a.79.79,0,0,1-.65.08c-.21-.07-.28-.22-.14-.34a.76.76,0,0,1,.64-.08C102.71,75.13,102.77,75.27,102.64,75.39Z"/><path class="cls-5" d="M92,84.14a.76.76,0,0,1-.64.08c-.22-.07-.29-.22-.15-.34a.77.77,0,0,1,.64-.08C92.06,83.88,92.13,84,92,84.14Z"/><path class="cls-5" d="M76.24,53.59a.73.73,0,0,1-.64.08c-.22-.07-.29-.22-.15-.33a.73.73,0,0,1,.64-.08C76.31,53.33,76.38,53.48,76.24,53.59Z"/><path class="cls-5" d="M75.86,59.77a.77.77,0,0,1-.64.08c-.22-.07-.29-.22-.15-.34a.73.73,0,0,1,.64-.07C75.93,59.51,76,59.66,75.86,59.77Z"/><path class="cls-5" d="M68.53,76.5a.76.76,0,0,1-.64.08c-.22-.07-.28-.22-.15-.34a.79.79,0,0,1,.65-.07C68.6,76.24,68.67,76.39,68.53,76.5Z"/><path class="cls-5" d="M96,60.58a.77.77,0,0,1-.64.07c-.22-.07-.29-.22-.15-.33a.73.73,0,0,1,.64-.08C96.08,60.31,96.15,60.46,96,60.58Z"/><path class="cls-5" d="M93.13,51.27a.77.77,0,0,1-.64.08c-.22-.08-.29-.23-.15-.34a.76.76,0,0,1,.64-.08C93.2,51,93.26,51.15,93.13,51.27Z"/><path class="cls-5" d="M104.09,48.09a.77.77,0,0,1-.64.08c-.22-.08-.29-.23-.15-.34a.77.77,0,0,1,.64-.08C104.16,47.82,104.23,48,104.09,48.09Z"/><path class="cls-5" d="M118.35,60.66a.73.73,0,0,1-.64.08c-.22-.07-.29-.22-.15-.33a.73.73,0,0,1,.64-.08C118.42,60.4,118.49,60.55,118.35,60.66Z"/><path class="cls-5" d="M127.93,73.17a.76.76,0,0,1-.64.08c-.22-.07-.29-.22-.15-.34a.77.77,0,0,1,.64-.07C128,72.91,128.07,73.06,127.93,73.17Z"/><path class="cls-5" d="M139.86,83.57a.77.77,0,0,1-.64.07c-.22-.07-.29-.22-.15-.33a.77.77,0,0,1,.64-.08C139.93,83.3,140,83.45,139.86,83.57Z"/><path class="cls-5" d="M144,60.25a.73.73,0,0,1-.64.08c-.22-.07-.28-.22-.15-.33a.76.76,0,0,1,.65-.08C144.08,60,144.15,60.14,144,60.25Z"/><path class="cls-5" d="M148.41,71.66a.76.76,0,0,1-.64.07c-.22-.07-.29-.22-.15-.33a.73.73,0,0,1,.64-.08C148.48,71.39,148.55,71.54,148.41,71.66Z"/><path class="cls-5" d="M150.44,88.55a.79.79,0,0,1-.65.07c-.21-.07-.28-.22-.15-.33a.79.79,0,0,1,.65-.08C150.51,88.28,150.57,88.43,150.44,88.55Z"/><path class="cls-5" d="M148.56,97.57a.76.76,0,0,1-.65.08c-.21-.07-.28-.22-.14-.33a.73.73,0,0,1,.64-.08C148.63,97.31,148.69,97.46,148.56,97.57Z"/><path class="cls-5" d="M142.2,96.28a.76.76,0,0,1-.65.08c-.21-.07-.28-.22-.14-.34a.76.76,0,0,1,.64-.07C142.27,96,142.33,96.17,142.2,96.28Z"/><path class="cls-5" d="M108.12,97.49a.77.77,0,0,1-.64.08c-.22-.08-.29-.23-.15-.34a.77.77,0,0,1,.64-.08C108.19,97.22,108.26,97.37,108.12,97.49Z"/><path class="cls-5" d="M84.78,76.36a.76.76,0,0,1-.64.07c-.22-.07-.28-.22-.15-.33a.79.79,0,0,1,.65-.08C84.85,76.09,84.92,76.24,84.78,76.36Z"/><path class="cls-5" d="M114.36,81.45a.76.76,0,0,1-.64.08c-.22-.08-.28-.22-.15-.34a.79.79,0,0,1,.65-.08C114.43,81.18,114.5,81.33,114.36,81.45Z"/><path class="cls-5" d="M111.8,82.75a.76.76,0,0,1-.65.07c-.21-.07-.28-.22-.14-.33a.76.76,0,0,1,.64-.08C111.87,82.48,111.93,82.63,111.8,82.75Z"/><path class="cls-5" d="M125.24,90.82a.76.76,0,0,1-.64.07c-.22-.07-.29-.22-.15-.33a.73.73,0,0,1,.64-.08C125.31,90.55,125.38,90.7,125.24,90.82Z"/><path class="cls-5" d="M122.6,71.3a.76.76,0,0,1-.64.08c-.22-.07-.28-.22-.15-.34a.79.79,0,0,1,.65-.08C122.67,71,122.74,71.18,122.6,71.3Z"/><path class="cls-5" d="M57.6,76.34a.77.77,0,0,1-.64.08c-.22-.07-.29-.22-.15-.34a.73.73,0,0,1,.64-.07C57.67,76.08,57.74,76.23,57.6,76.34Z"/><path class="cls-5" d="M51.46,76.78a.74.74,0,0,1-.64.08c-.22-.07-.29-.22-.15-.33a.73.73,0,0,1,.64-.08C51.53,76.52,51.59,76.67,51.46,76.78Z"/><path class="cls-5" d="M149.21,91a.74.74,0,0,1-.64.07c-.22-.07-.29-.22-.15-.33a.76.76,0,0,1,.64-.08C149.28,90.7,149.34,90.85,149.21,91Z"/><path class="cls-5" d="M156.21,103a.79.79,0,0,1-.65.07c-.21-.07-.28-.22-.14-.33a.73.73,0,0,1,.64-.08C156.28,102.68,156.34,102.83,156.21,103Z"/><path class="cls-5" d="M159.39,116.84a.76.76,0,0,1-.64.08c-.22-.07-.28-.22-.15-.34a.79.79,0,0,1,.65-.08C159.46,116.58,159.53,116.73,159.39,116.84Z"/><path class="cls-5" d="M155.15,124.16a.76.76,0,0,1-.64.07c-.22-.07-.28-.22-.15-.33a.79.79,0,0,1,.65-.08C155.22,123.89,155.29,124,155.15,124.16Z"/><path class="cls-5" d="M138,122.73a.73.73,0,0,1-.64.08c-.22-.07-.28-.22-.15-.33a.76.76,0,0,1,.65-.08C138.09,122.47,138.16,122.62,138,122.73Z"/><path class="cls-5" d="M114.78,123a.77.77,0,0,1-.64.08c-.22-.07-.29-.22-.15-.34a.77.77,0,0,1,.64-.08C114.85,122.71,114.92,122.85,114.78,123Z"/><path class="cls-5" d="M109.14,119.7a.76.76,0,0,1-.64.08c-.22-.08-.28-.23-.15-.34a.77.77,0,0,1,.64-.08C109.21,119.43,109.28,119.58,109.14,119.7Z"/><path class="cls-5" d="M133,118.19a.76.76,0,0,1-.64.08c-.22-.08-.28-.23-.15-.34a.77.77,0,0,1,.64-.08C133,117.92,133.09,118.07,133,118.19Z"/><path class="cls-5" d="M128,112.31a.79.79,0,0,1-.65.08c-.21-.08-.28-.23-.15-.34a.79.79,0,0,1,.65-.08C128,112,128.09,112.19,128,112.31Z"/><path class="cls-5" d="M98.57,112.88a.76.76,0,0,1-.65.07c-.21-.07-.28-.22-.14-.33a.76.76,0,0,1,.64-.08C98.64,112.61,98.7,112.76,98.57,112.88Z"/><path class="cls-5" d="M98.41,130.36a.79.79,0,0,1-.65.08c-.21-.07-.28-.22-.14-.34a.76.76,0,0,1,.64-.08C98.48,130.1,98.54,130.25,98.41,130.36Z"/><path class="cls-5" d="M123.91,127a.76.76,0,0,1-.64.07c-.22-.07-.28-.22-.15-.33a.79.79,0,0,1,.65-.08C124,126.73,124.05,126.88,123.91,127Z"/><path class="cls-5" d="M138.53,128.42a.73.73,0,0,1-.64.08c-.22-.07-.29-.22-.15-.34a.76.76,0,0,1,.64-.07C138.6,128.16,138.67,128.31,138.53,128.42Z"/><path class="cls-5" d="M153,130.73a.76.76,0,0,1-.64.08c-.22-.07-.28-.22-.15-.34a.79.79,0,0,1,.65-.08C153.07,130.47,153.14,130.62,153,130.73Z"/><path class="cls-5" d="M162.58,118.5a.76.76,0,0,1-.64.07c-.22-.07-.28-.22-.15-.33a.77.77,0,0,1,.64-.08C162.65,118.23,162.72,118.38,162.58,118.5Z"/><path class="cls-5" d="M146.68,108.92a.73.73,0,0,1-.64.08c-.22-.07-.28-.22-.15-.34a.79.79,0,0,1,.65-.07C146.75,108.66,146.82,108.81,146.68,108.92Z"/><path class="cls-5" d="M132.39,105.37a.73.73,0,0,1-.64.08c-.22-.07-.29-.22-.15-.34a.77.77,0,0,1,.64-.07C132.46,105.11,132.53,105.26,132.39,105.37Z"/><path class="cls-5" d="M118.5,101.39a.76.76,0,0,1-.65.07c-.21-.07-.28-.22-.15-.33a.79.79,0,0,1,.65-.08C118.57,101.12,118.63,101.27,118.5,101.39Z"/><path class="cls-5" d="M109,103.23a.73.73,0,0,1-.64.08c-.22-.07-.29-.22-.15-.33a.73.73,0,0,1,.64-.08C109.07,103,109.14,103.12,109,103.23Z"/><path class="cls-5" d="M99.63,105.92A.73.73,0,0,1,99,106c-.22-.07-.28-.22-.15-.33a.73.73,0,0,1,.64-.08C99.7,105.66,99.77,105.81,99.63,105.92Z"/><path class="cls-5" d="M106.31,90.81a.73.73,0,0,1-.64.08c-.22-.07-.29-.22-.15-.33a.73.73,0,0,1,.64-.08C106.38,90.55,106.45,90.7,106.31,90.81Z"/><path class="cls-5" d="M43.64,80.63a.73.73,0,0,1-.64.08c-.22-.07-.29-.22-.15-.33a.73.73,0,0,1,.64-.08C43.71,80.37,43.77,80.52,43.64,80.63Z"/><path class="cls-5" d="M64,83.38a.74.74,0,0,1-.64.08c-.22-.07-.29-.22-.15-.33a.73.73,0,0,1,.64-.08C64.06,83.12,64.12,83.27,64,83.38Z"/><path class="cls-5" d="M95.22,82.85a.73.73,0,0,1-.64.08c-.22-.07-.29-.22-.15-.34a.77.77,0,0,1,.64-.07C95.29,82.59,95.36,82.74,95.22,82.85Z"/><path class="cls-5" d="M87.43,83.21a.79.79,0,0,1-.65.08c-.22-.07-.28-.22-.15-.34a.79.79,0,0,1,.65-.07C87.49,83,87.56,83.1,87.43,83.21Z"/><path class="cls-5" d="M110,124.34a.77.77,0,0,1-.64.08c-.22-.07-.29-.22-.15-.34a.77.77,0,0,1,.64-.08C110.11,124.08,110.18,124.22,110,124.34Z"/><path class="cls-5" d="M116.15,129.14a.77.77,0,0,1-.64.08c-.22-.07-.29-.22-.15-.34a.77.77,0,0,1,.64-.08C116.22,128.88,116.29,129,116.15,129.14Z"/><path class="cls-5" d="M133.67,132.78a.79.79,0,0,1-.65.08c-.21-.07-.28-.22-.14-.34a.76.76,0,0,1,.64-.07C133.74,132.52,133.8,132.67,133.67,132.78Z"/><path class="cls-5" d="M141.37,133.69a.77.77,0,0,1-.64.08c-.22-.07-.29-.22-.15-.34a.73.73,0,0,1,.64-.07C141.44,133.43,141.51,133.58,141.37,133.69Z"/><path class="cls-5" d="M148.52,135.3a.73.73,0,0,1-.64.07c-.22-.07-.29-.22-.15-.33a.77.77,0,0,1,.64-.08C148.59,135,148.66,135.18,148.52,135.3Z"/><path class="cls-5" d="M139.76,131.77a.76.76,0,0,1-.64.08c-.22-.08-.28-.23-.15-.34a.77.77,0,0,1,.64-.08C139.83,131.5,139.9,131.65,139.76,131.77Z"/><path class="cls-5" d="M97.92,127.17a.73.73,0,0,1-.64.08c-.22-.07-.28-.22-.15-.34a.79.79,0,0,1,.65-.07C98,126.91,98.06,127.06,97.92,127.17Z"/><path class="cls-5" d="M156.26,80.74a.76.76,0,0,1-.64.07c-.22-.07-.28-.22-.15-.33a.79.79,0,0,1,.65-.08C156.33,80.47,156.4,80.62,156.26,80.74Z"/><path class="cls-5" d="M150.56,62.32a.73.73,0,0,1-.64.08c-.22-.07-.28-.22-.15-.33a.74.74,0,0,1,.64-.08C150.63,62.06,150.7,62.21,150.56,62.32Z"/><path class="cls-5" d="M132,62a.77.77,0,0,1-.64.08c-.22-.08-.29-.23-.15-.34a.76.76,0,0,1,.64-.08C132.08,61.7,132.14,61.85,132,62Z"/><path class="cls-5" d="M113.67,67.29a.77.77,0,0,1-.64.08c-.22-.07-.29-.22-.15-.34a.77.77,0,0,1,.64-.07C113.74,67,113.81,67.18,113.67,67.29Z"/><path class="cls-5" d="M98.53,66.16a.77.77,0,0,1-.64.08c-.22-.07-.29-.22-.15-.34a.73.73,0,0,1,.64-.07C98.6,65.9,98.66,66.05,98.53,66.16Z"/></g><path class="cls-6" d="M239.27,224c6.76-4.82,11.37-12.17,14.44-19.88,3.93-9.86,4.58-20.53,9.14-30.1,7.28-15.29,21-27,38.29-28.25,5.4-.39,11.46,0,15.49-3.62,3-2.65,4-6.9,4-10.88-.15-12.3-4.32-22,5.37-32a43.62,43.62,0,0,1,12.7-8.7c.64-.31,4.8-1.75,8.51-3a8.91,8.91,0,0,0,6-8.43V-5.58a9,9,0,0,0-9.05-9H88.33a9,9,0,0,0-7.75,4.38C73.73,1.23,60,33.43,96.64,64.6c9.8,8.35,19.65,16.65,29.72,24.67,7.16,5.69,15.32,10.49,21.93,16.81,4.54,4.34,8.27,9.75,9.59,15.88,1.24,5.84.44,12-1,18.13a76.23,76.23,0,0,0,13.53,63.46c11.63,15.29,28.31,29.65,49,27.17C222.2,230.77,233.11,228.44,239.27,224Z"/><path class="cls-7" d="M153.07,171.85c-1.3-17,11.46-33.31,7.92-49.89-1.32-6.13-5.05-11.54-9.59-15.88-6.61-6.32-14.77-11.12-21.93-16.81C119.4,81.25,109.55,73,99.75,64.6,71.59,40.65,73.18,16.11,78.53.81a23.09,23.09,0,0,1,21.81-15.44H333.21A23.14,23.14,0,0,1,356.34,8.5V85.11a.65.65,0,0,1-.46.63c-2.34.78-13,4.38-14.09,4.89a43.62,43.62,0,0,0-12.7,8.7c-9.69,10-5.52,19.68-5.37,32,0,4-1,8.23-4,10.88-4,3.61-10.09,3.23-15.49,3.62-17.33,1.27-31,13-38.29,28.25-4.56,9.57-5.21,20.24-9.14,30.1-3.07,7.71-7.44,15.42-14.44,19.88-8.81,5.62-18.72,7.24-28.8,6.68C213.58,230.72,157.6,230.72,153.07,171.85Z"/><g id="Moon"><g id="Moon-2" data-name="Moon"><circle class="cls-8" cx="288.25" cy="28.74" r="44.77" transform="translate(202.14 305.33) rotate(-78.4)"/><path class="cls-9" d="M302.08-13.85a44.79,44.79,0,0,1-48.76,70.59,44.77,44.77,0,1,0,48.76-70.59Z"/><circle class="cls-10" cx="261.35" cy="35.57" r="5.8" transform="translate(219.86 296.04) rotate(-88.7)"/><g class="cls-9"><path d="M262.78,31.27a5.79,5.79,0,0,1,3.41,1.11,5.79,5.79,0,1,0-8.25,7.87,5.8,5.8,0,0,1,4.84-9Z"/></g><path class="cls-10" d="M287.42,49.74a5.8,5.8,0,1,1-5.8-5.8A5.8,5.8,0,0,1,287.42,49.74Z"/><g class="cls-9"><path d="M283.06,45.45a5.78,5.78,0,0,1,3.4,1.1,5.79,5.79,0,1,0-8.24,7.87,5.68,5.68,0,0,1-1-3.18A5.8,5.8,0,0,1,283.06,45.45Z"/></g><path class="cls-10" d="M273.78,2.56a3.32,3.32,0,1,1-3.32-3.32A3.32,3.32,0,0,1,273.78,2.56Z"/><g class="cls-9"><path d="M271.28.1a3.34,3.34,0,0,1,2,.63,3.31,3.31,0,0,0-6.08,1.83,3.3,3.3,0,0,0,1.36,2.68A3.32,3.32,0,0,1,271.28.1Z"/></g><path class="cls-10" d="M254.11,12a1.75,1.75,0,1,1-1.75-1.75A1.74,1.74,0,0,1,254.11,12Z"/><g class="cls-9"><path d="M252.8,10.71a1.73,1.73,0,0,1,1,.33,1.74,1.74,0,1,0-2.48,2.37,1.78,1.78,0,0,1-.29-1A1.74,1.74,0,0,1,252.8,10.71Z"/></g><path class="cls-10" d="M261.35,50.55a1.74,1.74,0,1,1-1.74-1.74A1.74,1.74,0,0,1,261.35,50.55Z"/><g class="cls-9"><path d="M260,49.26a1.7,1.7,0,0,1,1,.33,1.74,1.74,0,0,0-3.19,1,1.75,1.75,0,0,0,.71,1.41,1.75,1.75,0,0,1,1.46-2.7Z"/></g><path class="cls-10" d="M277.57,62.67a1.74,1.74,0,1,1-1.74-1.74A1.74,1.74,0,0,1,277.57,62.67Z"/><g class="cls-9"><path d="M276.26,61.38a1.7,1.7,0,0,1,1,.33,1.74,1.74,0,0,0-3.19,1,1.75,1.75,0,0,0,.71,1.41,1.77,1.77,0,0,1-.28-1A1.74,1.74,0,0,1,276.26,61.38Z"/></g></g></g><path class="cls-5" d="M166.2,71.23s-11,5.13-8.1,11.45c5.57,11.94,19.81,47.12,44.13,87.88a73.48,73.48,0,0,0,2.43,12.27,4.33,4.33,0,0,0,7.29,1.62c3.56-3.86,9.2-11.1,5.79-19.89-6.14-15.84-16.08-30.55-18.4-36.06-1-2.34.89-6.56,4.16-1.21s17.23,33.39,19.65,37.55c1.57,2.69,1.81,7.79,2.55,12.3a3.83,3.83,0,0,0,6.63,1.92c4.1-4.56,12.75-14.53,6.3-23.78-18-25.79-34.06-69.21-37.66-77S189.27,58.06,179.28,63Z"/><path class="cls-11" d="M163.45,67a21.54,21.54,0,0,1,2.16,4.36s8.28-.95,11.29-7.13l-2-3.51Z"/><path class="cls-5" d="M177.94,57.72a16.89,16.89,0,1,1-9.65-21.85A16.9,16.9,0,0,1,177.94,57.72Z"/><path class="cls-12" d="M166.19,51.21c2,6.35-1,12.93-6.71,14.69s-11.87-2-13.84-8.32,1-12.93,6.71-14.69S164.22,44.85,166.19,51.21Z"/><path class="cls-13" d="M170.82,49a3.74,3.74,0,1,0,4.94-2.45A3.9,3.9,0,0,0,170.82,49Z"/><path class="cls-12" d="M171.64,49.33a3.73,3.73,0,1,0,4.94-2.45A3.91,3.91,0,0,0,171.64,49.33Z"/><path class="cls-5" d="M173.81,50.1a2.14,2.14,0,1,0,2.82-1.4A2.22,2.22,0,0,0,173.81,50.1Z"/><path class="cls-14" d="M157.54,39.39a13.9,13.9,0,0,0-7.68.7,16.82,16.82,0,0,0-2,2.67,12.57,12.57,0,0,1,9.47-2c7.67,1.4,12.17,8.28,10.7,16.37-1.22,6.68-4.83,10.07-11.24,10.44a16.66,16.66,0,0,0,3.68.82c4.9-1.37,7.85-5,8.94-11C171,48.51,166,40.94,157.54,39.39Z"/><path class="cls-5" d="M161.23,76s-18.08,22.09-12.08,60.08l8.71-2.15s-1.76-25.32,11-36Z"/><path class="cls-5" d="M157.86,134s4.39,11.31,3,12.49-3.21-1.94-3.21-1.94a3,3,0,0,1-2,2.17c-1.58.39-2.21-3-2.21-3s-.55,2-2.18,2.22-2.13-9.76-2.13-9.76Z"/><path class="cls-5" d="M193.05,85.94S213,65.5,210.3,27.14l-8.86,1.38s-.45,25.37-14.1,34.92Z"/><path class="cls-5" d="M201.44,28.52s-3.4-11.65-1.91-12.7,3,2.21,3,2.21a3,3,0,0,1,2.16-2c1.61-.25,1.95,3.2,1.95,3.2s.72-2,2.36-2,1.27,9.92,1.27,9.92Z"/><path class="cls-12" d="M190.86,102.55l-10,4.68a6,6,0,0,1-7.91-2.87l-5.37-11.47A6,6,0,0,1,170.43,85l10-4.69a6,6,0,0,1,7.92,2.87l5.36,11.48A6,6,0,0,1,190.86,102.55ZM171.34,86.91A3.82,3.82,0,0,0,169.5,92l5.36,11.47a3.82,3.82,0,0,0,5.07,1.85l10-4.69a3.81,3.81,0,0,0,1.84-5.07l-5.36-11.47a3.82,3.82,0,0,0-5.07-1.84Z"/><path class="cls-15" d="M177.53,96.1a2.41,2.41,0,0,1-3.2-1.16l-1.58-3.38a2.4,2.4,0,1,1,4.35-2l1.59,3.39A2.4,2.4,0,0,1,177.53,96.1Zm-3.17-6.77a1.35,1.35,0,0,0-.64,1.78l1.58,3.38a1.34,1.34,0,1,0,2.42-1.13L176.14,90A1.35,1.35,0,0,0,174.36,89.33Z"/><path class="cls-15" d="M182.19,89.06a2.27,2.27,0,1,1,1.1-3A2.26,2.26,0,0,1,182.19,89.06Zm-1.47-3.15a1.2,1.2,0,1,0,1.6.58A1.21,1.21,0,0,0,180.72,85.91Z"/><path class="cls-15" d="M184.46,93.9a2.27,2.27,0,1,1,1.09-3A2.27,2.27,0,0,1,184.46,93.9ZM183,90.75a1.2,1.2,0,1,0,1.59.58A1.2,1.2,0,0,0,183,90.75Z"/><path class="cls-15" d="M186.72,98.73a2.27,2.27,0,1,1,1.09-3A2.27,2.27,0,0,1,186.72,98.73Zm-1.47-3.14a1.2,1.2,0,1,0,1.59.58A1.21,1.21,0,0,0,185.25,95.59Z"/><path class="cls-15" d="M181.46,101.48l-1.6.76a2.45,2.45,0,0,1-3.26-1.19l-.07-.15a2.45,2.45,0,0,1,1.18-3.26l1.61-.75a2.45,2.45,0,0,1,3.25,1.18l.08.16A2.45,2.45,0,0,1,181.46,101.48Zm-3.3-2.87a1.39,1.39,0,0,0-.67,1.84l.08.15a1.39,1.39,0,0,0,1.84.67l1.6-.75a1.39,1.39,0,0,0,.67-1.84l-.07-.16a1.38,1.38,0,0,0-1.84-.66Z"/><path class="cls-15" d="M225.41,133l-.76-1.46c-6.92,1.85-11.84,6.25-14.27,8.64l.77,1.5C213.37,139.43,218.33,134.76,225.41,133ZM148,122.51a29,29,0,0,0,9.88,5.45c0-.53,0-1,.08-1.63a27.79,27.79,0,0,1-10-5.92C148,121.1,148,121.8,148,122.51Zm49.5,39.9c.27.47.54.94.82,1.41,3.45-2.92,9-6.54,16.2-6.87l-.72-1.55A28.87,28.87,0,0,0,197.46,162.41Zm7.38-23.78-.89-1.55a28.85,28.85,0,0,0-16.58,7.08l.77,1.45C191.64,142.62,197.38,138.85,204.84,138.63Zm-4.06-103c-.07.51-.15,1-.24,1.58,2.59.78,5.94,2.73,9.43,7.21.09-.74.16-1.49.23-2.24C206.74,38.22,203.43,36.4,200.78,35.66Zm20.33,125.39c.29.53.54,1,.78,1.48,2.4-2.4,7.85-7.45,15.6-8.92l-1-1.45C229,153.78,223.7,158.5,221.11,161.05Zm-70-63.52a50.61,50.61,0,0,0,9.66,13.22c.19-.55.41-1.1.62-1.65a48.18,48.18,0,0,1-9.58-13.94C151.56,95.92,151.33,96.72,151.11,97.53Zm44.7-44.6q-.36.72-.75,1.44c2.89.79,6.77,3,10.78,8.73.2-.6.41-1.23.61-1.86C202.58,56.1,198.8,53.83,195.81,52.93Z"/><path class="cls-5" d="M638.41-104.88C616.07-59.51,557.25-29.49,501.61-35c-63.85-6.39-70.12,45.31-76.76,100-3.82,31.57-7.78,64.22-22.66,88.47C394.5,166,385.6,172.77,375,174.25c-25.61,3.6-56.37-24.92-83.61-50-15.42-14.21-30-27.63-42.24-34.09-43-22.67-60.91,6.76-61.08,7.06l2.29,1.35c.16-.28,16.75-27.56,57.55-6.06,11.94,6.3,26.39,19.6,41.68,33.69,27.28,25.13,58.15,53.57,84.62,50.83l1.15-.14c11.32-1.57,21.12-9,29.13-22,15.19-24.75,19.18-57.69,23-89.54,6.75-55.72,12.57-103.84,73.85-97.72C558-26.74,618-57.39,640.79-103.7c13.18-26.77,11.33-53.43-5-76.22l-3.1.32C649.24-157.35,651.36-131.17,638.41-104.88Z"/><circle class="cls-12" cx="86.34" cy="35.3" r="17.76" transform="translate(29.64 109.37) rotate(-74.8)"/><path class="cls-16" d="M89.88,17.9c-.54-.11-1.08-.19-1.61-.25A17.76,17.76,0,0,1,81.21,52.3c.52.15,1.05.29,1.59.4a17.76,17.76,0,1,0,7.08-34.8Z"/><path class="cls-17" d="M80.13,21.66a1,1,0,0,1-.71-.58A1,1,0,0,1,80,19.79a16.69,16.69,0,0,1,7.32-1.24,1,1,0,0,1,.93,1,1,1,0,0,1-1,.93,14.49,14.49,0,0,0-6.46,1.1A1,1,0,0,1,80.13,21.66Z"/><path class="cls-18" d="M103.89,32.57a17.89,17.89,0,0,1,.19,1.81c5.47,2.17,8.77,4.4,8.43,6.08-.62,3-13,3.1-27.58.12S59,32.73,59.6,29.69c.35-1.75,4.56-2.51,10.83-2.28a16.93,16.93,0,0,1,.88-1.56c-10.3-.88-17.57,0-18.09,2.54-.77,3.77,13.31,9.83,31.44,13.52s33.46,3.63,34.23-.15C119.4,39.25,113.34,35.73,103.89,32.57Z"/><path class="cls-17" d="M79.08,22.2a1.22,1.22,0,1,1-1-1.44A1.22,1.22,0,0,1,79.08,22.2Z"/><path class="cls-19" d="M286.4,177.78a19.4,19.4,0,1,1-13.9-23.65A19.4,19.4,0,0,1,286.4,177.78Z"/><path class="cls-18" d="M248.6,176.74c5.52.18,20.49-.34,37.55-9.58a19.34,19.34,0,0,0-3-5.91,56.59,56.59,0,0,1-34.83,9.89A19.73,19.73,0,0,0,248.6,176.74Z"/><path class="cls-18" d="M286.4,177.78a19.75,19.75,0,0,0,.6-5.93c-4.38,3.29-17.81,12-36,11a19.28,19.28,0,0,0,3,3.88,75.43,75.43,0,0,0,31.91-7.42C286.1,178.82,286.26,178.31,286.4,177.78Z"/><path class="cls-18" d="M266.26,192.26a19.44,19.44,0,0,0,12.65-3.58A56.92,56.92,0,0,1,266.26,192.26Z"/><path class="cls-18" d="M279.56,157.61A19.42,19.42,0,0,0,249.89,165,76.68,76.68,0,0,0,279.56,157.61Z"/><path class="cls-20" d="M279.38,167.61a3.68,3.68,0,1,1-2.64-4.49A3.68,3.68,0,0,1,279.38,167.61Z"/><g class="cls-9"><path d="M277.38,164.27a3.67,3.67,0,0,1,1.92,1.23A3.68,3.68,0,1,0,273,169a3.76,3.76,0,0,1-.08-2.11A3.69,3.69,0,0,1,277.38,164.27Z"/></g><path class="cls-20" d="M267.26,175.87a2.51,2.51,0,1,1-1.8-3.07A2.52,2.52,0,0,1,267.26,175.87Z"/><g class="cls-9"><path d="M265.9,173.59a2.53,2.53,0,0,1,1.31.84,2.51,2.51,0,1,0-4.32,2.4,2.52,2.52,0,0,1,3-3.24Z"/></g><path class="cls-20" d="M275.88,158.81a1.63,1.63,0,0,1-2,1.17,1.63,1.63,0,1,1,2-1.17Z"/><g class="cls-9"><path d="M275,157.33a1.65,1.65,0,0,1,.85.54,1.61,1.61,0,0,0-1.14-1.05,1.63,1.63,0,0,0-2,1.17,1.65,1.65,0,0,0,.32,1.45,1.58,1.58,0,0,1,0-.94A1.63,1.63,0,0,1,275,157.33Z"/></g><path class="cls-20" d="M258,173.47a2.51,2.51,0,1,1-1.8-3.06A2.52,2.52,0,0,1,258,173.47Z"/><g class="cls-9"><path d="M256.66,171.19A2.45,2.45,0,0,1,258,172a2.51,2.51,0,1,0-4.31,2.4,2.5,2.5,0,0,1,3-3.24Z"/></g><path class="cls-20" d="M266.76,187.79a2.51,2.51,0,1,1-1.8-3.06A2.51,2.51,0,0,1,266.76,187.79Z"/><g class="cls-9"><path d="M265.4,185.52a2.51,2.51,0,0,1,1.3.83,2.51,2.51,0,1,0-4.31,2.41,2.5,2.5,0,0,1,3-3.24Z"/></g><path class="cls-20" d="M276.05,186.22a2.51,2.51,0,1,1-1.8-3.06A2.51,2.51,0,0,1,276.05,186.22Z"/><g class="cls-9"><path d="M274.69,183.94a2.53,2.53,0,0,1,1.31.84,2.51,2.51,0,1,0-4.32,2.4,2.52,2.52,0,0,1,3-3.24Z"/></g><path class="cls-20" d="M264.4,160.35a1.44,1.44,0,1,1-1-1.76A1.43,1.43,0,0,1,264.4,160.35Z"/><g class="cls-9"><path d="M263.62,159a1.38,1.38,0,0,1,.75.48,1.44,1.44,0,1,0-2.47,1.38,1.55,1.55,0,0,1,0-.83A1.44,1.44,0,0,1,263.62,159Z"/></g><g class="cls-9"><path class="cls-20" d="M253.55,178.44a.73.73,0,0,1,.4.25.76.76,0,0,0-1.45.05.76.76,0,0,0,.15.67.78.78,0,0,1,0-.43A.75.75,0,0,1,253.55,178.44Z"/></g><g class="cls-9"><path class="cls-20" d="M259,185.29a.74.74,0,0,1,.39.25.75.75,0,1,0-1.3.72.79.79,0,0,1,0-.43A.74.74,0,0,1,259,185.29Z"/></g><path class="cls-9" d="M280,158.06a19.4,19.4,0,0,1-30.57,21.66A19.4,19.4,0,1,0,280,158.06Z"/><g id="Star" class="cls-21"><circle class="cls-5" cx="120.43" cy="91.87" r="4.13"/><path class="cls-5" d="M213.31,62.14a4.14,4.14,0,0,1-4.16,4.11,4.12,4.12,0,0,1,4.1,4.16,4.13,4.13,0,0,1,4.16-4.1A4.13,4.13,0,0,1,213.31,62.14Z"/><circle class="cls-5" cx="134.12" cy="8" r="8.69"/></g><g id="Star-2" data-name="Star" class="cls-21"><circle class="cls-5" cx="221.99" cy="208.05" r="6.54"/><circle class="cls-5" cx="186.81" cy="181.79" r="8.13"/><path class="cls-5" d="M236,123.23a6.54,6.54,0,0,1,.36-9.24,6.53,6.53,0,0,1-9.24-.37,6.54,6.54,0,0,1-.37,9.25A6.54,6.54,0,0,1,236,123.23Z"/><path class="cls-5" d="M258.27,182.89a4.12,4.12,0,0,1-2.87-5.07,4.11,4.11,0,0,1-5.07,2.87,4.13,4.13,0,0,1,2.88,5.07A4.11,4.11,0,0,1,258.27,182.89Z"/><circle class="cls-5" cx="276.21" cy="133.59" r="4.12"/><path class="cls-5" d="M193.7,152a4.12,4.12,0,0,1,.23-5.82,4.12,4.12,0,0,1-5.82-.23,4.12,4.12,0,0,1-.23,5.82A4.11,4.11,0,0,1,193.7,152Z"/></g><rect class="cls-22" x="1.68" y="-1.46" width="276.46" height="216.17"/></g></g></svg>