<?xml version="1.0" encoding="UTF-8"?>
<svg width="350px" height="245px" viewBox="0 0 350 245" version="1.1" xmlns="http://www.w3.org/2000/svg" xmlns:xlink="http://www.w3.org/1999/xlink">
    <!-- Generator: Sketch 49.3 (51167) - http://www.bohemiancoding.com/sketch -->
    <title>img-footer-plane</title>
    <desc>Created with Sketch.</desc>
    <defs>
        <linearGradient x1="50%" y1="0%" x2="50%" y2="104.469583%" id="linearGradient-1">
            <stop stop-color="#F58B1E" offset="0%"></stop>
            <stop stop-color="#F58B1E" offset="23.54416%"></stop>
            <stop stop-color="#ED2755" offset="100%"></stop>
        </linearGradient>
    </defs>
    <g id="Resource" stroke="none" stroke-width="1" fill="none" fill-rule="evenodd">
        <g id="Artboard" transform="translate(-1031.000000, -587.000000)">
            <g id="img-footer-plane" transform="translate(1031.000000, 587.000000)">
                <path d="M19.8333333,191.923868 C14.3553635,191.923868 9.91594645,187.473251 9.91594645,182 C9.91594645,187.473251 5.4765294,191.923868 0,191.923868 C5.4765294,191.923868 9.91594645,196.360082 9.91594645,201.833333 C9.91594645,196.360082 14.3553635,191.923868 19.8333333,191.923868" id="Fill-330-Copy" fill="#FFFFFE"></path>
                <path d="M159.833333,72.9092503 C150.49105,72.9092503 142.916667,65.3445857 142.916667,56 C142.916667,65.3445857 135.342283,72.9092503 126,72.9092503 C135.342283,72.9092503 142.916667,80.4887476 142.916667,89.8333333 C142.916667,80.4887476 150.49105,72.9092503 159.833333,72.9092503" id="Fill-685-Copy" fill="#FFFFFE"></path>
                <path d="M319.666667,202.416667 C314.190144,202.416667 309.75,197.976368 309.75,192.5 C309.75,197.976368 305.311337,202.416667 299.833333,202.416667 C305.311337,202.416667 309.75,206.856965 309.75,212.333333 C309.75,206.856965 314.190144,202.416667 319.666667,202.416667" id="Fill-686-Copy" fill="#FFFFFE"></path>
                <path d="M350,95.0759273 C344.523477,95.0759273 340.083333,90.6323127 340.083333,85.1666667 C340.083333,90.6323127 335.64467,95.0759273 330.166667,95.0759273 C335.64467,95.0759273 340.083333,99.5195419 340.083333,105 C340.083333,99.5195419 344.523477,95.0759273 350,95.0759273" id="Fill-687-Copy" fill="#FFFFFE"></path>
                <path d="M171.5,176.742594 C166.023068,176.742594 161.582593,172.313791 161.582593,166.833333 C161.582593,172.313791 157.143598,176.742594 151.666667,176.742594 C157.143598,176.742594 161.582593,181.186209 161.582593,186.666667 C161.582593,181.186209 166.023068,176.742594 171.5,176.742594" id="Fill-688-Copy" fill="#FFFFFE"></path>
                <polyline id="Fill-689-Copy" fill="#FFFFFE" points="250.833333 154 233.431445 154 229.833333 204.166667 250.833333 204.166667 250.833333 154"></polyline>
                <polyline id="Fill-690-Copy" fill="#FFFFFE" points="250.833333 154 268.236466 154 271.833333 204.166667 250.833333 204.166667 250.833333 154"></polyline>
                <path d="M254.333333,179.666667 C254.333333,184.820041 250.155276,189 244.999284,189 C239.846156,189 235.666667,184.820041 235.666667,179.666667 C235.666667,174.513292 239.846156,170.333333 244.999284,170.333333 C250.155276,170.333333 254.333333,174.513292 254.333333,179.666667" id="Fill-691-Copy" fill="#FFFFFE"></path>
                <path d="M264.833333,185.5 C264.833333,190.653374 260.655276,194.833333 255.499284,194.833333 C250.346156,194.833333 246.166667,190.653374 246.166667,185.5 C246.166667,180.346626 250.346156,176.166667 255.499284,176.166667 C260.655276,176.166667 264.833333,180.346626 264.833333,185.5" id="Fill-692-Copy" fill="#FFFFFE"></path>
                <path d="M254.333333,194.833333 C254.333333,199.986708 250.155276,204.166667 244.999284,204.166667 C239.846156,204.166667 235.666667,199.986708 235.666667,194.833333 C235.666667,189.679959 239.846156,185.5 244.999284,185.5 C250.155276,185.5 254.333333,189.679959 254.333333,194.833333" id="Fill-693-Copy" fill="#FFFFFE"></path>
                <path d="M252,207.666667 C252,212.820041 247.559293,217 242.082573,217 C236.605853,217 232.166667,212.820041 232.166667,207.666667 C232.166667,202.513292 236.605853,198.333333 242.082573,198.333333 C247.559293,198.333333 252,202.513292 252,207.666667" id="Fill-694-Copy" fill="#FFFFFE"></path>
                <path d="M269.5,207.666667 C269.5,212.820041 265.320831,217 260.166667,217 C255.01107,217 250.833333,212.820041 250.833333,207.666667 C250.833333,202.513292 255.01107,198.333333 260.166667,198.333333 C265.320831,198.333333 269.5,202.513292 269.5,207.666667" id="Fill-695-Copy" fill="#FFFFFE"></path>
                <path d="M266,198.32617 C266,203.4835 261.821622,207.666667 256.668099,207.666667 C251.511711,207.666667 247.333333,203.4835 247.333333,198.32617 C247.333333,193.168841 251.511711,189 256.668099,189 C261.821622,189 266,193.168841 266,198.32617" id="Fill-696-Copy" fill="#FFFFFE"></path>
                <path d="M266,215.840496 C266,220.997826 261.821622,225.166667 256.668099,225.166667 C251.511711,225.166667 247.333333,220.997826 247.333333,215.840496 C247.333333,210.683167 251.511711,206.5 256.668099,206.5 C261.821622,206.5 266,210.683167 266,215.840496" id="Fill-697-Copy" fill="#FFFFFE"></path>
                <path d="M275.333333,207.666667 C275.333333,212.820041 271.154956,217 265.998568,217 C260.845044,217 256.666667,212.820041 256.666667,207.666667 C256.666667,202.513292 260.845044,198.333333 265.998568,198.333333 C271.154956,198.333333 275.333333,202.513292 275.333333,207.666667" id="Fill-698-Copy" fill="#FFFFFE"></path>
                <path d="M241.5,205.333333 C241.5,210.486708 237.321943,214.666667 232.167383,214.666667 C227.012822,214.666667 222.833333,210.486708 222.833333,205.333333 C222.833333,200.179959 227.012822,196 232.167383,196 C237.321943,196 241.5,200.179959 241.5,205.333333" id="Fill-699-Copy" fill="#FFFFFE"></path>
                <path d="M239.166667,220.5 C239.166667,225.653374 234.988609,229.833333 229.832617,229.833333 C224.679489,229.833333 220.5,225.653374 220.5,220.5 C220.5,215.346626 224.679489,211.166667 229.832617,211.166667 C234.988609,211.166667 239.166667,215.346626 239.166667,220.5" id="Fill-700-Copy" fill="#FFFFFE"></path>
                <path d="M233.333333,232.757161 C233.333333,236.939093 229.937661,240.333333 225.75,240.333333 C221.560907,240.333333 218.166667,236.939093 218.166667,232.757161 C218.166667,228.575228 221.560907,225.166667 225.75,225.166667 C229.937661,225.166667 233.333333,228.575228 233.333333,232.757161" id="Fill-701-Copy" fill="#FFFFFE"></path>
                <path d="M254.333333,221.666667 C254.333333,226.820041 250.155276,231 244.999284,231 C239.846156,231 235.666667,226.820041 235.666667,221.666667 C235.666667,216.513292 239.846156,212.333333 244.999284,212.333333 C250.155276,212.333333 254.333333,216.513292 254.333333,221.666667" id="Fill-702-Copy" fill="#FFFFFE"></path>
                <path d="M257.833333,242.090698 C257.833333,251.42911 250.259476,259 240.917403,259 C231.573857,259 224,251.42911 224,242.090698 C224,232.737556 231.573857,225.166667 240.917403,225.166667 C250.259476,225.166667 257.833333,232.737556 257.833333,242.090698" id="Fill-703-Copy" fill="#FFFFFE"></path>
                <path d="M285.833333,231 C285.833333,241.313878 277.477162,249.666667 267.167393,249.666667 C256.857624,249.666667 248.5,241.313878 248.5,231 C248.5,220.686122 256.857624,212.333333 267.167393,212.333333 C277.477162,212.333333 285.833333,220.686122 285.833333,231" id="Fill-704-Copy" fill="#FFFFFE"></path>
                <path d="M260.166667,162.44815 C260.166667,167.117249 256.248711,182 251.415911,182 C246.58311,182 242.666667,167.117249 242.666667,162.44815 C242.666667,157.779052 246.58311,154 251.415911,154 C256.248711,154 260.166667,157.779052 260.166667,162.44815" id="Fill-705-Copy" fill="#ED2755"></path>
                <path d="M248.738596,155.166667 L234.261404,155.166667 C233.109893,155.166667 232.166667,154.238423 232.166667,153.103904 L232.166667,145.833333 L232.166667,144.581066 C231.617288,144.716146 230.994353,144.695368 230.335453,144.490068 L196.332697,133.876266 C194.133418,133.175785 192.333333,130.693648 192.333333,128.333333 L192.386466,128.333333 C192.351518,128.102468 192.333333,127.870921 192.333333,127.640569 L192.333333,102.238204 C192.333333,99.9463724 193.766872,96.8560964 195.516501,95.3774954 L215.983747,78.0335059 C217.73486,76.5549049 219.727864,73.5533449 220.414953,71.3650155 L228.232634,46.480161 C228.918239,44.2918315 230.571408,42.2957202 231.907003,42.029572 L232.13999,42 L232.166667,42 L232.166667,26.8333333 C232.166667,26.8333333 238.034077,0 250.832589,0 C263.632589,0 269.5,26.8333333 269.5,26.8333333 L269.5,42 L270.693343,42 L270.92633,42.029572 C272.261925,42.2957202 273.915094,44.2918315 274.6007,46.480161 L282.41838,71.3650155 C283.10547,73.5533449 285.098474,76.5549049 286.849587,78.0335059 L307.315349,95.3774954 C309.066462,96.8560964 310.5,99.9463724 310.5,102.238204 L310.5,127.640569 C310.5,127.870921 310.48183,128.102468 310.446908,128.333333 L310.5,128.333333 C310.5,130.693648 308.701399,133.175785 306.500636,133.876266 L272.496396,144.490068 C271.838145,144.695305 271.215702,144.716133 270.666667,144.581191 L270.666667,153.103904 C270.666667,154.238423 269.723515,155.166667 268.572096,155.166667 L254.09457,155.166667 L248.738596,155.166667 Z" id="Combined-Shape" fill="url(#linearGradient-1)"></path>
                <polyline id="Fill-715-Copy" fill="#123456" points="305.666667 114.840297 301.635633 114.284587 299.832561 110.833333 298.031033 114.284587 294 114.840297 296.917053 117.531105 296.227961 121.333333 299.832561 119.534587 303.437161 121.333333 302.749614 117.531105 305.666667 114.840297"></polyline>
                <path d="M250.249267,32.6666667 C243.483871,32.6666667 238,38.4147705 238,45.5 L262.5,45.5 C262.5,38.4147705 257.014663,32.6666667 250.249267,32.6666667" id="Fill-717-Copy" fill="#FFFFFF"></path>
                <path d="M206.5,115.5 C206.5,118.069444 204.409411,120.166667 201.832639,120.166667 C199.255866,120.166667 197.166667,118.069444 197.166667,115.5 C197.166667,112.916667 199.255866,110.833333 201.832639,110.833333 C204.409411,110.833333 206.5,112.916667 206.5,115.5" id="Fill-718-Copy" fill="#123456"></path>
                <polygon id="Fill-719-Copy" fill="#FFFFFF" points="238 127.166667 262.5 127.166667 262.5 44.3333333 238 44.3333333"></polygon>
                <path d="M254.333333,146.122584 C254.333333,147.238856 255.275147,148.166667 256.428237,148.166667 L270.905096,148.166667 C272.058186,148.166667 273,147.238856 273,146.122584 L273,132.234418 C273,131.118146 272.1668,129.769921 271.147617,129.248028 L262.150539,124.623471 C261.131357,124.087081 259.354854,123.666667 258.203252,123.666667 L256.428237,123.666667 C255.275147,123.666667 254.333333,124.57998 254.333333,125.71075 L254.333333,146.122584" id="Fill-720-Copy" fill="#FFFFFF"></path>
                <path d="M248.5,146.122584 C248.5,147.238856 247.556848,148.166667 246.40543,148.166667 L231.929391,148.166667 C230.776485,148.166667 229.833333,147.238856 229.833333,146.122584 L229.833333,132.234418 C229.833333,131.118146 230.667889,129.769921 231.686909,129.248028 L240.681065,124.623471 C241.700085,124.087081 243.477792,123.666667 244.62921,123.666667 L246.40543,123.666667 C247.556848,123.666667 248.5,124.57998 248.5,125.71075 L248.5,146.122584" id="Fill-721-Copy" fill="#FFFFFF"></path>
            </g>
        </g>
    </g>
</svg>