<?xml version="1.0" encoding="UTF-8"?>
<svg width="200px" height="100px" viewBox="0 0 200 100" version="1.1" xmlns="http://www.w3.org/2000/svg" xmlns:xlink="http://www.w3.org/1999/xlink">
    <!-- Generator: Sketch 54.1 (76490) - https://sketchapp.com -->
    <title>openposition</title>
    <desc>Created with Sketch.</desc>
    <defs>
        <linearGradient x1="0%" y1="50%" x2="100%" y2="50%" id="linearGradient-1">
            <stop stop-color="#ED2954" offset="0%"></stop>
            <stop stop-color="#F58B1F" offset="100%"></stop>
        </linearGradient>
    </defs>
    <g id="openposition" stroke="none" stroke-width="1" fill="none" fill-rule="evenodd">
        <g id="Group-6" transform="translate(0.000000, 1.000000)">
            <text id="positions" font-family="Rubik-Medium, Rubik" font-size="24" font-weight="400" line-spacing="39" letter-spacing="1.00000019" fill="#123456">
                <tspan x="51.0510511" y="81.1585366">positions</tspan>
            </text>
            <path d="M13.9622993,70.3100204 C13.7750106,70.3100204 13.4940819,70.2634359 13.1195046,70.1702655 C12.8853938,70.1236803 12.6395811,70.0887419 12.3820592,70.0654493 C12.1245373,70.0421567 11.8787247,69.9839261 11.6446138,69.8907557 C10.8018149,69.6112445 10.0526716,69.2618608 9.39716131,68.842594 C8.64800672,68.3767421 7.98080092,67.8526665 7.3955239,67.2703515 C6.81024688,66.6880366 6.26009473,66.0474997 5.74505095,65.3487218 C4.99589635,64.4170179 4.36380665,63.3921589 3.84876287,62.2741142 C3.33371909,61.1560695 2.86550449,60.0380416 2.44410504,58.9199969 C1.69495045,57.0100038 1.13309293,55.053455 0.758515635,53.0502915 C0.38393834,51.0471281 0.149831042,49.0207025 0.0561867179,46.9709538 C-0.0374576059,44.87462 -0.0140468761,42.7783176 0.12641961,40.6819838 C0.266886095,38.58565 0.477582663,36.4893476 0.758515635,34.3930138 C1.03944861,32.3898503 1.39060955,30.3634247 1.81200901,28.3136761 C2.04611982,27.2888018 2.29193248,26.2872351 2.54945437,25.308946 C2.80697626,24.3306568 3.07619966,23.3523824 3.35713263,22.3740933 L3.5678313,21.5355639 C3.38054266,20.5572748 3.24007828,19.5324159 3.14643395,18.4609564 C3.05278963,17.5758376 3.05278963,16.6674399 3.14643395,15.735736 C3.28690044,13.592817 3.7317043,11.531453 4.48085889,9.55158216 C5.23001349,7.57171133 6.35372852,5.78985431 7.8520377,4.20595764 C9.30352472,2.71523137 11.0593294,1.59720343 13.1195046,0.851840292 C15.1796797,0.106477155 17.2632346,-0.14973758 19.3702319,0.0831884 C19.9320979,0.176358792 20.4939554,0.257881663 21.0558213,0.327759457 C21.6176873,0.397637251 22.1561341,0.525744618 22.6711778,0.712085403 C23.1862216,0.898426187 23.7012577,1.0964103 24.2163015,1.30604368 C24.7313452,1.51567707 25.2463813,1.76024568 25.7614251,2.03975685 C26.2764689,2.31926803 26.7563888,2.62206726 27.2011994,2.94816363 C27.6460099,3.27426001 28.0791084,3.62364374 28.5005079,3.99632531 C29.0623738,4.46217727 29.5774099,4.97460674 30.0456315,5.53362909 C30.4202088,5.99948105 30.7713697,6.46532602 31.0991248,6.93117799 C31.42688,7.39702995 31.7312195,7.88616717 32.0121524,8.39860432 C32.5271962,9.37689344 33.0188215,10.4716291 33.4870432,11.6828442 L33.2763445,11.5430893 C33.6040996,12.3816229 33.873323,13.2317899 34.0840227,14.0936161 C34.2947225,14.9554422 34.4703029,15.8289015 34.6107694,16.7140202 C34.9853467,18.8103541 35.2311594,20.8950103 35.3482148,22.9680516 C35.4652702,25.0410928 35.5003863,27.125749 35.4535641,29.2220829 C35.406742,31.4581723 35.2896883,33.6592898 35.1023997,35.8255014 C34.915111,37.991713 34.6341823,40.1695383 34.259605,42.3590425 C33.6040947,46.5051249 32.6910762,50.5113917 31.5205222,54.377963 C30.8650119,56.3811264 30.0690471,58.3376753 29.1326039,60.2476683 C28.1961606,62.1576614 26.9788027,63.8812878 25.4804935,65.4185992 C25.1059162,65.837866 24.6962284,66.2221881 24.2514179,66.5715771 C23.8066074,66.920966 23.3266874,67.2819959 22.8116436,67.6546775 C22.062489,68.1671146 21.3367564,68.5863751 20.634424,68.9124715 C20.1193802,69.1453975 19.5926388,69.3666738 19.0541839,69.5763072 C18.5157291,69.7859406 17.9655769,69.9373402 17.403711,70.0305106 C16.7950229,70.123681 16.2097546,70.2052039 15.6478887,70.2750816 C15.0860227,70.3449594 14.5241652,70.3566056 13.9622993,70.3100204 Z M27.7351881,34.1833814 C27.9692989,31.8075364 28.0980579,29.4084348 28.121469,26.9860046 C28.1448801,24.5635744 28.0161211,22.1644728 27.7351881,19.7886278 C27.5947216,18.9500943 27.4308465,18.1115733 27.2435578,17.2730398 C27.0562692,16.4345063 26.7987512,15.6192776 26.470996,14.8273292 C26.0964187,13.9887957 25.6047934,13.1269825 24.9961053,12.2418638 C24.5747059,11.7760118 24.129902,11.3334591 23.6616804,10.9141923 C23.0998144,10.5415108 22.5613676,10.2154193 22.0463239,9.93590811 C21.7185687,9.84273772 21.4025239,9.76121485 21.0981798,9.69133705 C20.7938358,9.62145926 20.4777909,9.53993639 20.1500358,9.446766 C19.5881698,9.4001808 19.0263123,9.4001808 18.4644464,9.446766 C18.2303356,9.49335119 18.019639,9.53993569 17.8323504,9.58652089 C17.6450617,9.63310608 17.4343651,9.70298283 17.2002543,9.79615322 L16.146761,10.4250502 C15.7253615,10.7977318 15.3273791,11.1937 14.9528018,11.6129668 C14.7655132,11.892478 14.5899327,12.1719849 14.4260551,12.4514961 C14.2621775,12.7310073 14.1100078,13.0338065 13.9695413,13.3599029 C13.6886083,14.1984364 13.4779118,15.0369574 13.3374453,15.8754909 C13.2906231,16.4345133 13.2672124,16.9935272 13.2672124,17.5525496 C13.2672124,18.1115719 13.3140339,18.6705859 13.4076782,19.2296083 C13.5013225,19.881801 13.6183762,20.5106917 13.7588426,21.1162993 C13.8993091,21.7219068 14.0397735,22.3507975 14.18024,23.0029903 C14.5079951,24.353961 14.8708614,25.6932653 15.2688498,27.0209434 C15.6668382,28.3486214 16.0531152,29.6879257 16.4276925,31.0388964 L17.6918846,35.2315431 C17.8323511,35.6973951 17.925994,36.1515939 17.9728161,36.5941533 C18.0196383,37.0367126 18.0664598,37.4909115 18.1132819,37.9567635 C18.1601041,38.1896894 18.1952202,38.434258 18.2186313,38.6904766 C18.2420423,38.9466952 18.2537477,39.1912638 18.2537477,39.4241898 C18.4410364,40.0297973 18.3356881,40.6004574 17.9376997,41.1361872 C17.5397113,41.6719169 17.0597914,42.0329468 16.4979254,42.2192876 C16.2169924,42.312458 15.9009476,42.3357502 15.5497814,42.289165 C15.1986152,42.2425798 14.905981,42.1494108 14.6718702,42.0096552 C14.3441151,41.8233145 14.0631863,41.5670997 13.8290755,41.2410034 L13.4076782,40.8217387 L13.1969795,40.402474 L11.9327875,38.7254153 L11.7220888,38.3061507 C11.6284445,38.2129803 11.5348015,38.0732268 11.4411572,37.886886 C11.3006907,37.65396 11.1719317,37.3977453 11.0548763,37.1182341 C10.9378209,36.8387229 10.8324726,36.5825082 10.7388283,36.3495822 L10.1067323,34.6725235 C9.87262146,34.1135012 9.61510344,33.5544872 9.33417046,32.9954649 C9.05323749,32.4364425 8.79571947,31.8774286 8.56160866,31.3184062 C8.32749785,30.8991394 8.12850664,30.4682328 7.96462908,30.0256735 C7.80075151,29.5831141 7.62517104,29.1522075 7.43788239,28.7329407 L7.22718371,28.3136761 C7.13353939,28.8261132 7.0633072,29.3501888 7.01648504,29.8859186 C6.96966288,30.4216483 6.92284142,30.9457239 6.87601926,31.4581611 C6.64190845,33.7408357 6.51314943,36.0234761 6.48973835,38.3061507 C6.46632727,40.5888253 6.59508628,42.8714657 6.87601926,45.1541403 C7.29741871,48.415104 8.09338353,51.4663886 9.26393757,54.3080855 C9.68533703,55.2397894 10.1418463,56.1598333 10.633479,57.0682446 C11.1251117,57.9766559 11.6752638,58.8501152 12.2839519,59.6886488 C12.5180627,59.9215747 12.7404647,60.1544972 12.9511644,60.3874232 C13.1618641,60.6203492 13.384266,60.8532717 13.6183769,61.0861977 L14.2504729,61.5054623 L14.8825689,61.7150947 L16.146761,61.7150947 C16.3808718,61.6685095 16.6266844,61.621925 16.8842063,61.5753398 C17.1417282,61.5287546 17.3875409,61.4588778 17.6216517,61.3657074 C18.1835176,61.1327815 18.7687859,60.7833977 19.377474,60.3175458 C19.9861621,59.8516938 20.5480196,59.2926798 21.0630634,58.6404871 C21.9058623,57.5224424 22.6081842,56.3345377 23.1700501,55.0767374 C23.4041609,54.5643003 23.6031521,54.0402247 23.7670297,53.5044949 C23.9309073,52.9687652 24.1064877,52.4446896 24.2937764,51.9322524 C25.042931,49.5564074 25.6750207,47.180598 26.1900645,44.804753 C26.7051083,42.428908 27.1499121,40.0298064 27.5244894,37.6073762 L27.9458868,33.6243619 L27.7351881,34.1833814 Z M47.8622291,29.7769824 C47.8498922,29.8715255 47.8364143,29.9660687 47.8217951,30.0606122 C47.8419341,30.0005011 47.8577419,29.9231541 47.8692187,29.8285707 L47.8622291,29.7769824 Z M47.8692187,29.8285707 C47.884425,29.7032521 47.892028,29.5476748 47.892028,29.3618377 L47.4706307,33.3448521 L47.892028,32.9255874 C48.2197831,32.5063207 48.5475334,32.0987063 48.8752885,31.7027321 C49.2030436,31.306758 49.5542046,30.9224359 49.9287819,30.5497543 C50.3033592,30.2236579 50.7013416,29.9208587 51.122741,29.6413475 C51.5441405,29.3618364 51.9889443,29.1056216 52.457166,28.8726956 C52.7380989,28.7795252 53.0190277,28.6747101 53.2999607,28.5582471 C53.5808936,28.4417841 53.8618224,28.336969 54.1427554,28.2437986 C54.7514435,28.104043 55.3835332,28.0341663 56.0390434,28.0341663 C56.3667986,28.0341663 56.6828434,28.0574585 56.9871875,28.1040437 C57.2915315,28.1506289 57.6075764,28.1972134 57.9353315,28.2437986 C58.3099088,28.336969 58.5908376,28.430138 58.7781262,28.5233084 C59.3399922,28.7562344 59.8784389,29.0124491 60.3934827,29.2919603 C60.9085265,29.5714715 61.3767411,29.9441475 61.7981406,30.4099994 C62.7345838,31.4348737 63.3432628,32.5994862 63.6241957,33.9038717 C63.7646622,34.462894 63.8583052,35.021908 63.9051273,35.5809303 L64.0455931,37.257989 L63.6944286,37.5374988 C63.788073,38.4226175 63.8465998,39.2960768 63.8700109,40.157903 C63.8934219,41.0197291 63.8817166,41.8931884 63.8348944,42.7783071 C63.7880723,43.8497667 63.7061347,44.8979178 63.5890793,45.9227922 C63.4720239,46.9476665 63.3198542,47.9725254 63.1325655,48.9973997 C63.0389212,49.4166665 62.9569836,49.835927 62.8867504,50.2551937 C62.8165171,50.6744605 62.7345796,51.093721 62.6409353,51.5129877 C62.5004688,52.0254249 62.3365937,52.5262082 62.149305,53.0153528 C61.9620164,53.5044974 61.7513198,54.0052807 61.517209,54.5177179 C61.1426317,55.4028366 60.5573635,56.3112343 59.7613867,57.2429382 C59.6209202,57.429279 59.3634022,57.6622015 58.9888249,57.9417127 C58.7547141,58.1746386 58.5089014,58.3842689 58.2513795,58.5706097 C57.9938576,58.7569504 57.7246342,58.9199962 57.4437013,59.0597518 C56.8350132,59.3858481 56.156102,59.6653551 55.4069474,59.8982811 C55.0791923,59.9914515 54.7514421,60.0613282 54.4236869,60.1079134 L53.4404265,60.2476683 C53.0658492,60.2942535 52.7029828,60.2942535 52.3518166,60.2476683 C52.0006504,60.2010831 51.6377841,60.1312064 51.2632068,60.038036 C50.8886295,59.9448656 50.5491739,59.8400505 50.2448299,59.7235875 C49.9404858,59.6071245 49.624441,59.4790171 49.2966858,59.3392615 C48.5943534,58.9199948 48.0324959,58.3609808 47.6110964,57.6622029 L47.1896991,56.6140412 C47.0492326,56.2879448 46.9790004,55.9385611 46.9790004,55.5658795 L46.5576031,57.8718352 L46.5576031,64.5800699 C46.5576031,68.3534708 46.5810138,72.1268151 46.627836,75.900216 C46.6746581,79.6736168 46.7448903,83.4469611 46.8385346,87.220362 C46.8385346,87.8259695 46.7097756,88.3966296 46.4522537,88.9323594 C46.1947318,89.4680892 45.878687,89.9688725 45.5041097,90.4347245 C45.0827102,90.9005764 44.5910849,91.2266679 44.029219,91.4130087 C43.467353,91.5993495 42.8820848,91.7158107 42.2733967,91.7623959 C41.6647086,91.7623959 41.0794403,91.6226424 40.5175744,91.3431312 C39.9088863,91.1102053 39.4172609,90.807406 39.0426837,90.4347245 C38.6681064,90.0620429 38.3637669,89.5729057 38.1296561,88.9672981 C37.8487231,88.4082758 37.7082587,87.8259695 37.7082587,87.220362 L37.49756,84.9144063 C37.3570936,81.8397834 37.2634506,78.8001449 37.2166285,75.7953998 C37.1698063,72.7906546 37.2634492,69.7510162 37.49756,66.6763932 C37.6380265,64.5800594 37.8370177,62.5070493 38.0945396,60.4573007 C38.3520615,58.407552 38.6915171,56.3578342 39.1129165,54.3080855 L39.5343139,50.1154388 C39.9557134,45.9227712 40.4473387,41.7301664 41.0092046,37.5374988 L41.430602,34.6026461 C41.5710685,33.624357 41.7349436,32.6460825 41.9222322,31.6677934 C42.0158765,31.1553563 42.0978141,30.666219 42.1680473,30.2003671 C42.2382806,29.7345151 42.3202181,29.2453779 42.4138625,28.7329407 C42.5075068,28.2205036 42.6245604,27.7313664 42.7650269,27.2655144 C42.9054934,26.7996624 43.022547,26.3105252 43.1161914,25.7980881 C43.2566579,25.1924805 43.5961134,24.7149894 44.1345683,24.3656004 C44.6730232,24.0162115 45.246586,23.8881041 45.8552741,23.9812745 C46.4171401,24.0744449 46.9087654,24.2840751 47.3301649,24.6101715 C47.5642757,24.8430975 47.7515615,25.1226045 47.892028,25.4487008 C48.0324945,25.7747972 48.079316,26.0775964 48.0324938,26.3571076 C47.9856716,27.0093004 47.9622609,27.6381911 47.9622609,28.2437986 C47.9622609,28.7548627 47.9289173,29.2659203 47.8622291,29.7769824 L47.8692187,29.8285707 Z M55.5474132,39.3543123 C55.5942354,38.8418752 55.6293515,38.3177996 55.6527625,37.7820698 C55.6761736,37.2463401 55.6644683,36.7222645 55.6176461,36.2098273 L55.4069474,36.2098273 L54.9855501,36.4194597 C54.5641506,36.745556 54.1895789,37.118232 53.8618238,37.5374988 C53.4872465,38.0499359 53.1360856,38.5623654 52.8083304,39.0748026 L51.8250699,40.6121064 C51.4973148,41.1711287 51.18127,41.7301427 50.8769259,42.289165 C50.5725819,42.8481874 50.3033585,43.4304936 50.0692477,44.0361011 C49.881959,44.5019531 49.7063785,44.956152 49.542501,45.3987113 C49.3786234,45.8412707 49.2264537,46.2954695 49.0859872,46.7613215 C48.3368326,48.9508257 47.7047429,51.2334661 47.1896991,53.6093111 L47.4003978,52.9804141 C47.6345086,52.4679769 48.032491,52.0254242 48.5943569,51.6527426 C49.0157564,51.2334759 49.5307924,50.9539689 50.1394805,50.8142133 C50.7481686,50.6278725 51.3802584,50.6045803 52.0357686,50.7443358 C52.3635238,50.7443358 52.7146847,50.8142126 53.089262,50.9539682 L53.2999607,50.7443358 C53.4404272,50.5579951 53.6043023,50.2784881 53.7915909,49.9058065 C53.9788796,49.4399545 54.1310493,48.9857557 54.2481047,48.5431963 C54.3651601,48.100637 54.4705084,47.6464381 54.5641527,47.1805862 C54.657797,46.668149 54.75144,46.1324273 54.8450843,45.5734049 L55.3367145,42.6385523 C55.4303589,42.0795299 55.4888857,41.5205159 55.5122968,40.9614936 C55.5357078,40.4024712 55.5708239,39.8434573 55.6176461,39.2844349 L55.5474132,39.3543123 Z M87.7843105,45.7830373 C88.0184213,46.1557188 88.1822964,46.5866254 88.2759407,47.07577 C88.3695851,47.5649146 88.3695851,48.0424056 88.2759407,48.5082576 C88.2759407,49.1138652 88.1354764,49.6495869 87.8545434,50.1154388 L87.433146,50.5347035 L87.0117487,51.1636005 L85.7475566,52.4213945 C85.2325129,52.8872465 84.7408875,53.3530914 84.2726659,53.8189434 C83.8044443,54.2847954 83.312819,54.7273481 82.7977752,55.1466149 C82.4231979,55.4727112 82.0369208,55.7755105 81.6389325,56.0550216 C81.2409441,56.3345328 80.8078456,56.5907476 80.339624,56.8236735 C79.9182245,57.0565995 79.485126,57.2662298 79.0403155,57.4525705 C78.5955049,57.6389113 78.1389957,57.7786648 77.6707741,57.8718352 C75.4233103,58.4308576 73.2227017,58.1746428 71.0688823,57.1031833 C70.3197277,56.7305017 69.6408165,56.2180723 69.0321284,55.5658795 C68.4234403,54.9136868 67.9084042,54.2382116 67.4870048,53.5394336 C67.0656053,52.7940705 66.7144444,51.9788418 66.4335114,51.0937231 C66.3398671,50.8607971 66.2579295,50.6045823 66.1876963,50.3250712 C66.1174631,50.04556 66.0355255,49.766053 65.9418812,49.4865418 C65.6609482,48.0424008 65.5204838,46.5516968 65.5204838,45.014385 C65.5204838,42.2192736 65.941877,39.5173728 66.7846759,36.9086018 C67.2060753,35.6508015 67.7211114,34.4163123 68.3297995,33.2050972 C68.9384876,31.9938821 69.6408095,30.8525619 70.4367862,29.7811024 C71.2795852,28.6164725 72.204309,27.5100907 73.2109855,26.4619238 C74.2176619,25.4137569 75.3764931,24.5635898 76.6875136,23.9113971 C77.4834904,23.5387155 78.3028659,23.2592085 79.1456648,23.0728677 C79.9884637,22.8865269 80.8546607,22.8399424 81.7442818,22.9331128 C82.7275472,23.0728684 83.6288603,23.410606 84.4482481,23.9463358 C85.267636,24.4820655 85.9348418,25.1924791 86.4498856,26.0775978 C86.8244628,26.7297906 87.0819809,27.4518503 87.2224474,28.2437986 C87.3629138,29.035747 87.3863246,29.8276834 87.2926803,30.6196318 L87.1522145,31.8774258 C87.1053923,32.2966925 87.0117494,32.6926608 86.8712829,33.0653423 C86.7308164,33.4380239 86.5786467,33.7990537 86.4147691,34.1484427 C86.2508915,34.4978317 86.0753111,34.8588615 85.8880224,35.2315431 C84.8111127,37.5608029 83.3830582,39.6571053 81.603816,41.5205131 C81.1355944,41.9863651 80.608853,42.4056256 80.023576,42.7783071 C79.4382989,43.1509887 78.8413253,43.4770802 78.2326372,43.7565914 C77.9985264,43.8497618 77.7761245,43.9429308 77.5654248,44.0361011 C77.354725,44.1292715 77.1323231,44.1991483 76.8982123,44.2457335 C76.523635,44.3389039 76.2427062,44.3854884 76.0554176,44.3854884 C75.6808403,44.4320736 75.3296793,44.4670119 75.0019242,44.4903045 C74.6741691,44.5135971 74.3230081,44.5252433 73.9484308,44.5252433 L73.7377322,44.5252433 L73.7377322,45.5734049 C73.8781986,46.4119385 74.0888952,47.2504594 74.3698282,48.0889929 L74.7912255,48.9275223 L75.0019242,49.1371546 L75.2126229,49.1371546 L76.0554176,48.9275223 C76.2427062,48.8343519 76.4182867,48.7295368 76.5821643,48.6130738 C76.7460418,48.4966108 76.9216223,48.3685034 77.108911,48.2287478 L79.005199,46.5516892 L79.5319457,46.0276083 C79.6958233,45.8645601 79.8948145,45.6898683 80.1289253,45.5035275 L80.339624,45.2938952 C80.5269126,45.1541396 80.7141985,45.0027399 80.9014871,44.8396918 C81.0887758,44.6766436 81.2994723,44.5485362 81.5335831,44.4553658 C81.7676939,44.3156102 82.025212,44.1875029 82.3061449,44.0710399 C82.5870779,43.9545769 82.8680067,43.8497618 83.1489396,43.7565914 C83.6639834,43.5702506 84.2258409,43.5469583 84.834529,43.6867139 C85.396395,43.6867139 85.9348418,43.8264674 86.4498856,44.1059786 C87.0585737,44.5252454 87.5736097,45.0376748 87.9950092,45.6432824 L87.7843105,45.7830373 Z M73.7377322,41.031371 C73.8781986,40.8916154 74.0069577,40.7518619 74.1240131,40.6121064 C74.2410685,40.4723508 74.3464167,40.3325973 74.4400611,40.1928417 C74.5805276,40.0065009 74.7326973,39.8434552 74.8965749,39.7036996 C75.0604524,39.563944 75.2126222,39.4241905 75.3530887,39.2844349 C75.4935551,39.1446793 75.7042517,38.8884646 75.9851847,38.515783 L76.8279794,37.4676213 C77.3430232,36.8154286 77.787827,36.1515995 78.1624043,35.4761142 C78.5369816,34.8006288 78.8881426,34.0902152 79.2158977,33.3448521 C79.4500073,32.8324175 79.6489997,32.3316316 79.8128773,31.842487 C79.9767549,31.3533425 80.1055139,30.8525591 80.1991582,30.340122 L80.1991582,29.9208573 C80.0118695,29.9208573 79.8714052,29.9441496 79.7777608,29.9907348 C79.4031835,30.1770755 79.1222548,30.3401213 78.9349661,30.4798769 C78.3731002,30.992314 77.8112427,31.5979125 77.2493767,32.2966904 C76.3129335,33.5544907 75.5403794,34.8821489 74.9316913,36.2797048 C74.3698254,37.7238459 73.9250215,39.3077188 73.5972664,41.031371 L73.7377322,41.031371 Z M124.483662,48.3532702 C124.618713,48.6540066 124.711468,48.9968234 124.761928,49.3817257 C124.832161,49.9174554 124.820456,50.4182388 124.726812,50.8840907 C124.586345,51.3965279 124.352238,51.8157884 124.024483,52.1418847 C123.696727,52.6077367 123.345567,52.9338282 122.970989,53.120169 C122.455945,53.4928505 121.882383,53.7024808 121.250283,53.749066 C120.618184,53.7956512 120.021211,53.7490667 119.459345,53.6093111 C118.522901,53.3763851 117.750347,52.8872479 117.141659,52.1418847 C116.72026,51.6760328 116.369099,51.1868956 116.088166,50.6744584 C115.807233,50.1620212 115.526304,49.6262995 115.245371,49.0672772 C114.402572,47.3902101 113.641724,45.689876 112.962802,43.9662237 C112.283881,42.2425714 111.616675,40.4956528 110.961165,38.7254153 C110.727054,38.166393 110.528063,37.607379 110.364185,37.0483567 C110.200308,36.4893343 110.024727,35.9303204 109.837438,35.371298 L108.573246,39.3543123 C107.215404,43.3606392 105.81076,47.3436137 104.359273,51.3033554 L101.198793,60.1079134 C100.964682,60.7601062 100.695459,61.4239353 100.391115,62.0994206 C100.086771,62.774906 99.7707256,63.438735 99.4429705,64.0909278 C99.0683932,64.6965353 98.6235894,65.1623803 98.1085456,65.4884767 C97.5935018,65.9077434 97.0316443,66.1872504 96.4229562,66.327006 C95.4865129,66.559932 94.5734945,66.559932 93.6838734,66.327006 C93.0283631,66.1872504 92.4665056,65.9077434 91.998284,65.4884767 C91.6237067,65.3021359 91.3427779,65.0226289 91.1554893,64.6499473 C90.7340898,64.1840954 90.4531611,63.6250814 90.3126946,62.9728887 L90.1019959,61.7150947 L90.1019959,58.6754258 C90.1019959,57.6738441 90.1254066,56.6606313 90.1722288,55.635757 C90.219051,52.0486969 90.4297475,48.4383983 90.8043248,44.804753 C90.9916135,42.8481748 91.2023101,40.9265643 91.4364209,39.0398638 C91.6705317,37.1531634 91.9280497,35.2315529 92.2089827,33.2749747 L92.2089827,33.9038717 C92.302627,33.3448493 92.3962699,32.8790043 92.4899142,32.5063228 L92.7006129,31.8774258 L93.1220103,30.4099994 C93.2156546,29.9907327 93.3210029,29.5714722 93.4380583,29.1522054 C93.5551137,28.7329387 93.6838727,28.3136782 93.8243392,27.8944114 C94.1520943,26.8695371 94.526666,25.9844316 94.9480654,25.2390685 C95.1821763,24.7732165 95.4982211,24.3656022 95.8962095,24.0162132 C96.2941979,23.6668243 96.7038856,23.3290866 97.1252851,23.0029903 C97.3593959,22.8166495 97.6403247,22.7467727 97.9680798,22.7933579 C98.2958349,22.8399431 98.5767637,22.9564044 98.8108745,23.1427452 C99.0449853,23.329086 99.2205658,23.5736546 99.3376212,23.8764583 C99.4546766,24.1792621 99.4663819,24.4704152 99.3727376,24.7499264 C99.2790933,24.9828524 99.2088611,25.1924826 99.1620389,25.3788234 C99.1152168,25.5651642 99.0683953,25.7747944 99.0215732,26.0077204 C99.0215732,26.1008908 99.0098678,26.1824137 98.9864567,26.2522915 C98.9630456,26.3221693 98.9513403,26.4036921 98.9513403,26.4968625 C98.9513403,26.6366181 98.9045188,26.8462483 98.8108745,27.1257595 C98.7172302,28.1040486 98.7172302,29.0823231 98.8108745,30.0606122 L99.0215732,33.8339942 C99.0683953,34.4396018 99.0801007,35.0335541 99.0566896,35.6158691 C99.0332785,36.198184 99.0215732,36.7921363 99.0215732,37.3977439 L99.0215732,38.8651702 L99.6536692,37.1881116 L101.12856,33.4147295 C101.409493,32.7159516 101.690422,32.005538 101.971355,31.2834675 C102.252288,30.5613969 102.580038,29.8742756 102.954615,29.2220829 C103.422837,28.4301345 103.961284,27.7080748 104.569972,27.0558821 C105.17866,26.4036893 105.880982,25.8213831 106.676958,25.308946 C106.911069,25.1691904 107.121766,25.041083 107.309054,24.92462 C107.496343,24.808157 107.70704,24.7033419 107.94115,24.6101715 C108.175261,24.5170011 108.374252,24.4471244 108.53813,24.4005392 C108.702008,24.353954 108.900999,24.3073695 109.13511,24.2607843 C110.165197,24.0744435 111.125037,24.0045668 112.014658,24.0511519 L111.593261,24.0511519 C111.921016,24.0977371 112.237061,24.1443216 112.541405,24.1909068 C112.845749,24.237492 113.161794,24.3073688 113.489549,24.4005392 C114.37917,24.6800503 115.104903,25.1924798 115.666768,25.937843 C116.181812,26.6832061 116.486152,27.5450193 116.579796,28.5233084 L116.790495,30.2003671 C117.024606,31.2252414 117.247008,32.2384542 117.457707,33.2400359 C117.668407,34.2416176 117.91422,35.2315382 118.195153,36.2098273 C118.476086,37.2347016 118.79213,38.2362683 119.143297,39.2145575 C119.494463,40.1928466 119.857329,41.1478288 120.231906,42.0795327 C120.466017,42.5919699 120.688419,43.0811071 120.899119,43.546959 C121.109819,44.012811 121.332221,44.5019482 121.566331,45.0143854 L122.619825,47.1107087 C123.088046,47.2038791 123.50944,47.4135093 123.884017,47.7396057 C124.109306,47.9357358 124.309187,48.1402899 124.483662,48.3532702 L124.483662,48.3532702 Z M124.483662,48.3532702 C124.584774,48.4766964 124.677353,48.6029526 124.761401,48.7320391 L124.305414,48.0191155 C124.371325,48.124039 124.430741,48.2354238 124.483662,48.3532702 L124.483662,48.3532702 Z M130.004048,16.7140202 C130.097692,17.133287 130.121103,17.5525475 130.074281,17.9718143 C130.027458,18.391081 129.886994,18.7870492 129.652883,19.1597308 C129.37195,19.672168 128.973968,20.0681362 128.458924,20.3476474 C127.850236,20.7203289 127.18303,20.8484363 126.457287,20.7319733 C125.731543,20.6155103 125.111159,20.3243572 124.596115,19.8585053 C124.362004,19.6255793 124.116192,19.3693645 123.85867,19.0898534 C123.601148,18.8103422 123.378746,18.5308352 123.191457,18.251324 C122.863702,17.6457165 122.582773,16.9702413 122.348663,16.2248781 C122.161374,15.5261002 122.020909,14.7807482 121.927265,13.9887999 C121.927265,13.7558739 121.938971,13.5578898 121.962382,13.3948416 C121.985793,13.2317934 122.020909,13.0338093 122.067731,12.8008833 C122.161375,12.241861 122.32525,11.7294315 122.559361,11.2635796 C122.699828,10.9374832 122.898819,10.6696223 123.156341,10.4599889 C123.413863,10.2503556 123.683086,10.0523714 123.964019,9.86603066 C124.338596,9.63310468 124.736579,9.49335119 125.157978,9.446766 C125.579378,9.4001808 125.97736,9.42347305 126.351937,9.51664344 C126.866981,9.51664344 127.335196,9.65639693 127.756595,9.93590811 L128.59939,10.5648051 C129.067611,10.9374867 129.383656,11.3916855 129.547534,11.9274153 C129.711411,12.463145 129.81676,12.9872206 129.863582,13.4996578 L129.863582,14.9670841 L130.074281,15.3863488 L130.284979,16.6441428 L130.284979,16.8537751 L130.004048,16.7140202 Z M168.122541,48.3532702 C168.257592,48.6540066 168.350347,48.9968234 168.400807,49.3817257 C168.47104,49.9174554 168.459335,50.4182388 168.365691,50.8840907 C168.225224,51.3965279 167.991117,51.8157884 167.663362,52.1418847 C167.335607,52.6077367 166.984446,52.9338282 166.609868,53.120169 C166.094825,53.4928505 165.521262,53.7024808 164.889163,53.749066 C164.257063,53.7956512 163.66009,53.7490667 163.098224,53.6093111 C162.161781,53.3763851 161.389226,52.8872479 160.780538,52.1418847 C160.359139,51.6760328 160.007978,51.1868956 159.727045,50.6744584 C159.446112,50.1620212 159.165183,49.6262995 158.88425,49.0672772 C158.041451,47.3902101 157.280603,45.689876 156.601681,43.9662237 C155.92276,42.2425714 155.255554,40.4956528 154.600044,38.7254153 C154.365933,38.166393 154.166942,37.607379 154.003064,37.0483567 C153.839187,36.4893343 153.663606,35.9303204 153.476318,35.371298 L152.212126,39.3543123 C150.854283,43.3606392 149.449639,47.3436137 147.998152,51.3033554 L144.837672,60.1079134 C144.603561,60.7601062 144.334338,61.4239353 144.029994,62.0994206 C143.72565,62.774906 143.409605,63.438735 143.08185,64.0909278 C142.707272,64.6965353 142.262468,65.1623803 141.747425,65.4884767 C141.232381,65.9077434 140.670523,66.1872504 140.061835,66.327006 C139.125392,66.559932 138.212374,66.559932 137.322753,66.327006 C136.667242,66.1872504 136.105385,65.9077434 135.637163,65.4884767 C135.262586,65.3021359 134.981657,65.0226289 134.794368,64.6499473 C134.372969,64.1840954 134.09204,63.6250814 133.951574,62.9728887 L133.740875,61.7150947 L133.740875,58.6754258 C133.740875,57.6738441 133.764286,56.6606313 133.811108,55.635757 C133.85793,52.0486969 134.068627,48.4383983 134.443204,44.804753 C134.630493,42.8481748 134.841189,40.9265643 135.0753,39.0398638 C135.309411,37.1531634 135.566929,35.2315529 135.847862,33.2749747 L135.847862,33.9038717 C135.941506,33.3448493 136.035149,32.8790043 136.128793,32.5063228 L136.339492,31.8774258 L136.760889,30.4099994 C136.854534,29.9907327 136.959882,29.5714722 137.076937,29.1522054 C137.193993,28.7329387 137.322752,28.3136782 137.463218,27.8944114 C137.790973,26.8695371 138.165545,25.9844316 138.586945,25.2390685 C138.821055,24.7732165 139.1371,24.3656022 139.535089,24.0162132 C139.933077,23.6668243 140.342765,23.3290866 140.764164,23.0029903 C140.998275,22.8166495 141.279204,22.7467727 141.606959,22.7933579 C141.934714,22.8399431 142.215643,22.9564044 142.449754,23.1427452 C142.683864,23.329086 142.859445,23.5736546 142.9765,23.8764583 C143.093556,24.1792621 143.105261,24.4704152 143.011617,24.7499264 C142.917972,24.9828524 142.84774,25.1924826 142.800918,25.3788234 C142.754096,25.5651642 142.707274,25.7747944 142.660452,26.0077204 C142.660452,26.1008908 142.648747,26.1824137 142.625336,26.2522915 C142.601925,26.3221693 142.590219,26.4036921 142.590219,26.4968625 C142.590219,26.6366181 142.543398,26.8462483 142.449754,27.1257595 C142.356109,28.1040486 142.356109,29.0823231 142.449754,30.0606122 L142.660452,33.8339942 C142.707274,34.4396018 142.71898,35.0335541 142.695569,35.6158691 C142.672158,36.198184 142.660452,36.7921363 142.660452,37.3977439 L142.660452,38.8651702 L143.292548,37.1881116 L144.767439,33.4147295 C145.048372,32.7159516 145.329301,32.005538 145.610234,31.2834675 C145.891167,30.5613969 146.218917,29.8742756 146.593494,29.2220829 C147.061716,28.4301345 147.600163,27.7080748 148.208851,27.0558821 C148.817539,26.4036893 149.519861,25.8213831 150.315837,25.308946 C150.549948,25.1691904 150.760645,25.041083 150.947934,24.92462 C151.135222,24.808157 151.345919,24.7033419 151.58003,24.6101715 C151.81414,24.5170011 152.013132,24.4471244 152.177009,24.4005392 C152.340887,24.353954 152.539878,24.3073695 152.773989,24.2607843 C153.804076,24.0744435 154.763916,24.0045668 155.653537,24.0511519 L155.23214,24.0511519 C155.559895,24.0977371 155.87594,24.1443216 156.180284,24.1909068 C156.484628,24.237492 156.800673,24.3073688 157.128428,24.4005392 C158.018049,24.6800503 158.743782,25.1924798 159.305648,25.937843 C159.820691,26.6832061 160.125031,27.5450193 160.218675,28.5233084 L160.429374,30.2003671 C160.663485,31.2252414 160.885887,32.2384542 161.096586,33.2400359 C161.307286,34.2416176 161.553099,35.2315382 161.834032,36.2098273 C162.114965,37.2347016 162.43101,38.2362683 162.782176,39.2145575 C163.133342,40.1928466 163.496208,41.1478288 163.870786,42.0795327 C164.104896,42.5919699 164.327298,43.0811071 164.537998,43.546959 C164.748698,44.012811 164.9711,44.5019482 165.205211,45.0143854 L166.258704,47.1107087 C166.726926,47.2038791 167.148319,47.4135093 167.522896,47.7396057 C167.748185,47.9357358 167.948066,48.1402899 168.122541,48.3532702 L168.122541,48.3532702 Z M169.924343,48.3532702 C169.871422,48.2354238 169.812006,48.124039 169.746095,48.0191155 L170.202082,48.7320391 C170.118034,48.6029526 170.025455,48.4766964 169.924343,48.3532702 L169.924343,48.3532702 Z M189.890027,37.2912576 C189.722749,37.5995518 189.530473,37.8912625 189.313197,38.1663958 C189.055676,38.4924922 188.809863,38.8418759 188.575752,39.2145575 L187.100861,41.1012485 C186.773106,41.5205152 186.457061,41.9397757 186.152717,42.3590425 C185.848373,42.7783092 185.508918,43.1975697 185.13434,43.6168365 C184.853407,43.9429329 184.572479,44.2573782 184.291546,44.560182 C184.010613,44.8629858 183.706273,45.1541389 183.378518,45.43365 C182.629364,46.0858428 181.821693,46.6797951 180.955483,47.2155249 C180.089273,47.7512546 179.16455,48.1122845 178.181284,48.2986253 C177.525774,48.3917957 176.881979,48.4500263 176.24988,48.4733189 C175.61778,48.4966115 174.973985,48.3917964 174.318475,48.1588704 C173.101099,47.7396036 172.071027,47.1340052 171.228228,46.3420568 C170.994117,46.1091308 170.795126,45.8762084 170.631248,45.6432824 C170.467371,45.4103564 170.29179,45.1774339 170.104502,44.9445079 C169.964035,44.7581671 169.80016,44.4786602 169.612871,44.1059786 C169.378761,43.6867118 169.191475,43.2674514 169.051008,42.8481846 C168.910542,42.4289178 168.793488,41.9863651 168.699844,41.5205131 C168.465733,40.3558832 168.418912,39.2611475 168.559378,38.2362732 C168.699844,37.1648137 168.910541,36.0933703 169.191474,35.0219108 C169.425585,34.1833772 169.694808,33.3681485 169.999152,32.5762002 C170.303496,31.7842519 170.642952,30.9923154 171.017529,30.2003671 C171.673039,28.7096408 172.562647,27.3121059 173.686379,26.0077204 C174.716467,24.7499201 175.933825,23.7716457 177.338489,23.0728677 C178.181288,22.653601 179.047485,22.374094 179.937106,22.2343384 C180.218039,22.1877532 180.498968,22.1528148 180.779901,22.1295222 C181.060834,22.1062296 181.341763,22.0945835 181.622696,22.0945835 L182.044093,22.0945835 C182.559137,22.0945835 183.003941,22.1877525 183.378518,22.3740933 C184.361784,22.7001896 185.274802,23.2126191 186.117601,23.9113971 L185.696204,23.4921324 C185.977137,23.6784732 186.258065,23.853165 186.538998,24.0162132 C186.819931,24.1792614 187.077449,24.3772455 187.31156,24.6101715 C187.686137,24.9828531 187.885129,25.4370519 187.90854,25.9727817 C187.931951,26.5085114 187.803192,26.9627103 187.522259,27.3353919 C187.288148,27.6614882 186.936987,27.8944107 186.468765,28.0341663 C186.187832,28.1273367 185.918609,28.1506289 185.661087,28.1040437 C185.422304,28.0608483 185.193587,27.9976275 184.974932,27.9143798 C184.899863,27.8807332 184.835944,27.8507847 184.783176,27.824534 L184.572477,27.824534 L183.940381,28.0341663 C183.612626,28.2205071 183.284876,28.3369683 182.957121,28.3835535 L183.167819,28.3835535 C182.933709,28.4301387 182.582548,28.5466 182.114326,28.7329407 C181.411994,29.0590371 180.803315,29.4084208 180.288271,29.7811024 C179.866871,30.1071988 179.4923,30.4798748 179.164545,30.8991415 C178.602679,31.6910899 178.111053,32.5296108 177.689654,33.4147295 C177.034144,35.0917966 176.565929,36.7455463 176.284996,38.3760281 C176.238174,38.6089541 176.214763,38.8535227 176.214763,39.1097413 L176.214763,39.8434545 L176.425462,40.4723515 L176.636161,40.8916161 L176.846859,41.1012485 L177.057558,41.1012485 L177.478955,40.8916161 L178.181284,40.4723515 C178.415395,40.3325959 178.649502,40.1695501 178.883613,39.9832094 L179.937106,39.14468 L179.094312,39.773577 C179.843466,39.2145547 180.569199,38.6322484 181.271531,38.0266409 C181.973864,37.4210333 182.652775,36.7921426 183.308285,36.1399499 C183.682863,35.8138535 184.022318,35.4994082 184.326662,35.1966044 L185.274806,34.2532589 L186.679464,32.5762002 C187.522263,31.5513259 188.271406,30.526467 188.926917,29.5015926 C190.191115,27.6381848 191.385062,25.6816359 192.508794,23.6318873 C192.789727,23.1194501 193.05895,22.6186668 193.316472,22.1295222 C193.573994,21.6403777 193.819807,21.1395943 194.053918,20.6271572 C194.194384,20.347646 194.323143,20.068139 194.440199,19.7886278 C194.557254,19.5091166 194.662602,19.2296097 194.756247,18.9500985 C194.896713,18.6705873 195.060588,18.4376648 195.247877,18.251324 L195.669274,17.622427 C195.856563,17.1565751 196.137492,16.7955452 196.512069,16.5393266 C196.886646,16.2831081 197.33145,16.2015852 197.846494,16.2947556 C198.267893,16.3413408 198.665876,16.5276788 199.040453,16.8537751 L199.180919,16.99353 C199.368207,17.1798708 199.520377,17.4127933 199.637433,17.6923045 C199.754488,17.9718157 199.789604,18.2280304 199.742782,18.4609564 C199.508671,20.510705 199.297975,22.5371306 199.110686,24.5402941 C198.923397,26.5434575 198.759522,28.5698831 198.619056,30.6196318 C198.384945,33.9737659 198.174248,37.2929113 197.98696,40.5771676 C197.799671,43.861424 197.44851,47.1572771 196.933466,50.4648261 C196.699355,51.9555523 196.418427,53.422964 196.090672,54.8671051 C195.950205,55.565883 195.762919,56.2530044 195.528808,56.9284897 C195.294698,57.603975 195.03718,58.2678041 194.756247,58.9199969 C194.522136,59.5256044 194.077332,60.3641254 193.421822,61.4355849 C192.766311,62.5070444 192.017168,63.6250723 191.174369,64.7897022 C190.33157,65.9543321 189.477079,67.0490678 188.610869,68.0739421 C187.744659,69.0988165 187.007221,69.8907529 186.398532,70.4497753 L185.766436,70.8690399 C185.391859,71.1485511 185.040698,71.416412 184.712943,71.6726305 C184.385188,71.9288491 184.034027,72.1734177 183.65945,72.4063437 C183.331695,72.6392697 183.01565,72.8488999 182.711306,73.0352407 C182.406962,73.2215815 182.067506,73.4079195 181.692929,73.5942603 C181.037418,73.9669418 180.089284,74.4444329 178.848497,75.0267479 C177.607709,75.6090628 176.331825,76.1098462 175.020804,76.529113 C173.709783,76.9483797 172.504131,77.2045945 171.40381,77.2977648 C170.303489,77.3909352 169.566051,77.1347205 169.191474,76.529113 C168.816897,76.0166758 168.723254,75.4227235 168.910542,74.7472381 C169.097831,74.0717528 169.472403,73.5942617 170.034269,73.3147505 C171.719867,72.3830466 173.440555,71.0786806 175.196386,69.4016136 C176.952217,67.7245465 178.590968,65.896105 180.112689,63.9162342 C181.634409,61.9363633 182.992231,59.9099377 184.186196,57.8368965 C185.380162,55.7638553 186.258064,53.865537 186.81993,52.1418847 C187.569084,50.1387213 188.271406,48.1122957 188.926917,46.062547 C189.488783,44.152554 189.992113,42.2542357 190.436924,40.3675353 C190.881734,38.4808349 191.338244,36.5592243 191.806465,34.6026461 C191.431888,35.1150833 191.057316,35.6391589 190.682739,36.1748886 C190.4185,36.5528093 190.154264,36.9249304 189.890027,37.2912576 L189.890027,37.2912576 Z M183.773731,27.9143798 C183.831881,27.9404433 183.896723,27.9687258 183.968256,27.9992276 L183.722441,27.8944114 C183.739475,27.9011909 183.756572,27.907847 183.773731,27.9143798 L183.773731,27.9143798 Z" id="Opening" fill="url(#linearGradient-1)"></path>
            <path d="M127.897061,54.5875953 L128.10776,56.264654 C128.10776,56.4044096 128.119465,56.5441631 128.142876,56.6839186 C128.166287,56.8236742 128.177993,56.9634277 128.177993,57.1031833 C128.177993,57.7553761 128.037528,58.3609745 127.756595,58.9199969 C127.569307,59.5256044 127.218146,60.0380339 126.703102,60.4573007 L126.492403,60.666933 C126.21147,60.9464442 125.907131,61.1793667 125.579376,61.3657074 L124.525882,61.7849721 C123.964016,61.9713129 123.367043,62.0062513 122.734943,61.8897883 C122.102844,61.7733253 121.529281,61.5753412 121.014238,61.29583 C120.780127,61.1560744 120.581136,61.027967 120.417258,60.9115041 C120.25338,60.7950411 120.054389,60.6203492 119.820278,60.3874232 C119.164768,59.7352305 118.743375,59.0131708 118.556086,58.2212224 L118.556086,57.5923254 L118.345388,56.1248991 C118.298566,55.8453879 118.263449,55.5658809 118.240038,55.2863698 C118.216627,55.0068586 118.204922,54.7273516 118.204922,54.4478404 C118.1581,53.8888181 118.122984,53.3298041 118.099573,52.7707817 C118.076161,52.2117594 118.087867,51.6527454 118.134689,51.0937231 C118.228333,48.9042188 118.415619,46.7380397 118.696552,44.5951207 C118.977485,42.4522017 119.328646,40.3093148 119.750046,38.1663958 C120.171445,36.1166472 120.66307,34.1833905 121.224936,32.3665679 C121.365403,31.8541307 121.505867,31.3766396 121.646334,30.9340803 C121.7868,30.4915209 121.927264,30.037322 122.067731,29.5714701 C122.161375,29.3385441 122.243313,29.1056216 122.313546,28.8726956 C122.383779,28.6397697 122.489128,28.4068472 122.629594,28.1739212 L123.893786,26.2872302 C124.502474,25.4486967 125.275028,25.1226052 126.211472,25.308946 C126.679693,25.4021163 127.030854,25.646685 127.264965,26.0426591 C127.499076,26.4386333 127.63954,26.8462476 127.686362,27.2655144 L127.897061,29.3618377 C127.943883,29.6413489 127.943883,29.9208559 127.897061,30.2003671 L127.756595,31.0388964 L127.756595,31.6677934 C127.662951,32.3199862 127.592719,32.9838153 127.545896,33.6593006 C127.499074,34.3347859 127.452253,34.998615 127.405431,35.6508078 C127.17132,38.1664084 127.089382,40.6936173 127.159616,43.2325105 C127.229849,45.7714037 127.42884,48.2986127 127.756595,50.8142133 L127.545896,49.5564193 C127.639541,50.3017824 127.709773,51.0354883 127.756595,51.7575588 C127.803417,52.4796293 127.87365,53.2133352 127.967294,53.9586983 L127.897061,54.5875953 Z" id="Path" fill="#F26434"></path>
        </g>
    </g>
</svg>