<svg xmlns="http://www.w3.org/2000/svg" xmlns:xlink="http://www.w3.org/1999/xlink" viewBox="0 0 271.25 50"><defs><style>.cls-1{isolation:isolate;}.cls-2,.cls-3,.cls-4{fill-rule:evenodd;}.cls-2{fill:url(#linear-gradient);}.cls-3{fill:url(#linear-gradient-2);}.cls-4{mix-blend-mode:multiply;fill:url(#linear-gradient-3);}.cls-5{fill:#123456;}</style><linearGradient id="linear-gradient" x1="49.11" y1="45.76" x2="25.9" y2="19.05" gradientUnits="userSpaceOnUse"><stop offset="0" stop-color="#ef8721"/><stop offset="0.11" stop-color="#ee7a29"/><stop offset="0.51" stop-color="#e95042"/><stop offset="0.82" stop-color="#e63651"/><stop offset="1" stop-color="#e52c57"/></linearGradient><linearGradient id="linear-gradient-2" x1="31.06" y1="33.26" x2="10.58" y2="22.46" xlink:href="#linear-gradient"/><linearGradient id="linear-gradient-3" x1="38.05" y1="33.68" x2="34.11" y2="28.37" gradientUnits="userSpaceOnUse"><stop offset="0" stop-color="#fff" stop-opacity="0"/><stop offset="1" stop-color="#221e20"/></linearGradient></defs><title>logo-Ahancer-master</title><g class="cls-1"><g id="Layer_1" data-name="Layer 1"><path class="cls-2" d="M29.62.83,55.28,47.64a1.59,1.59,0,0,1-2.2,2.15L12.76,26.49,26.83.83a1.59,1.59,0,0,1,2.8,0Z"/><path class="cls-3" d="M29.59.83l14,25.55L3.36,49.76a1.59,1.59,0,0,1-2.2-2.15L26.8.83a1.59,1.59,0,0,1,2.8,0Z"/><polygon class="cls-4" points="43.63 26.32 33.35 38.28 28.23 35.33 43.63 26.32"/><path class="cls-5" d="M73.47,36.91a1.08,1.08,0,0,1-.34.46.89.89,0,0,1-.56.17H70.78q-.78,0-.78-.59a1.78,1.78,0,0,1,0-.19,1,1,0,0,1,0-.14l0-.12,9.76-23.44.08-.19a.8.8,0,0,1,.14-.2.69.69,0,0,1,.25-.16,1.14,1.14,0,0,1,.43-.07h1.12a1.09,1.09,0,0,1,.41.07.69.69,0,0,1,.25.16.8.8,0,0,1,.14.2l.08.19L92.4,36.49l0,.17,0,.16a.61.61,0,0,1,0,.13q0,.59-.78.59H89.91a.89.89,0,0,1-.56-.17,1.07,1.07,0,0,1-.34-.46l-1.86-4.65H75.28Q74.69,33.77,74.2,35T73.47,36.91ZM76.63,29h9.22L81.29,17.42Z"/><path class="cls-5" d="M118.89,13.17a.75.75,0,0,1,.2-.52.7.7,0,0,1,.54-.22h1.71a.87.87,0,0,1,.56.2.66.66,0,0,1,.25.54V36.79q0,.74-.81.74h-1.71a.66.66,0,0,1-.74-.74V25.94H104.64V36.79q0,.74-.81.74h-1.71a.66.66,0,0,1-.74-.74V13.17a.75.75,0,0,1,.2-.52.7.7,0,0,1,.54-.22h1.74a.77.77,0,0,1,.54.22.69.69,0,0,1,.24.52v9.49h14.26Z"/><path class="cls-5" d="M134.65,36.91a1.08,1.08,0,0,1-.34.46.89.89,0,0,1-.56.17H132q-.78,0-.78-.59a1.78,1.78,0,0,1,0-.19,1,1,0,0,1,0-.14l0-.12L141,13.05l.08-.19a.8.8,0,0,1,.14-.2.69.69,0,0,1,.25-.16,1.14,1.14,0,0,1,.43-.07H143a1.09,1.09,0,0,1,.41.07.69.69,0,0,1,.25.16.8.8,0,0,1,.14.2l.08.19,9.67,23.44,0,.17,0,.16a.61.61,0,0,1,0,.13q0,.59-.78.59h-1.79a.89.89,0,0,1-.56-.17,1.07,1.07,0,0,1-.34-.46l-1.86-4.65H136.46q-.59,1.51-1.08,2.72T134.65,36.91ZM137.82,29H147l-4.57-11.57Z"/><path class="cls-5" d="M181.19,37.54a.78.78,0,0,1-.64-.37L165.79,17.38V36.79q0,.74-.78.74H163.3a.66.66,0,0,1-.74-.74V13.2a.79.79,0,0,1,.2-.56.7.7,0,0,1,.54-.22h2.27a.84.84,0,0,1,.71.37l14.39,19.13V13.05a.67.67,0,0,1,.74-.63h1.71a.91.91,0,0,1,.57.2.65.65,0,0,1,.26.54V36.79q0,.74-.83.74Z"/><path class="cls-5" d="M213.93,14.54a1.25,1.25,0,0,1,.3.31.65.65,0,0,1,.12.36.63.63,0,0,1-.14.41l-.9,1.49a.78.78,0,0,1-.59.41.69.69,0,0,1-.26-.06,1.63,1.63,0,0,1-.33-.19,10,10,0,0,0-2.56-1.32,10.62,10.62,0,0,0-2.83-.54,10.16,10.16,0,0,0-7.21,2.9,9.75,9.75,0,0,0-2.11,3.08,9.17,9.17,0,0,0-.76,3.7,9.28,9.28,0,0,0,.78,3.81A9.6,9.6,0,0,0,207.6,34.5a7.92,7.92,0,0,0,1.41-.35,12.92,12.92,0,0,0,1.5-.63,17.28,17.28,0,0,0,1.66-.94,1.13,1.13,0,0,1,.52-.19q.3,0,.56.42l1,1.59a.87.87,0,0,1,.12.41.72.72,0,0,1-.41.64,13.17,13.17,0,0,1-3.5,1.8,12.71,12.71,0,0,1-4.13.65,12.86,12.86,0,0,1-3.44-.46,12.64,12.64,0,0,1-3.08-1.3,13.12,13.12,0,0,1-2.6-2,12.9,12.9,0,0,1-2-15.63,13.21,13.21,0,0,1,2-2.62,12.62,12.62,0,0,1,2.61-2,13.23,13.23,0,0,1,3.09-1.3,13.07,13.07,0,0,1,7.45.16A13.5,13.5,0,0,1,213.93,14.54Z"/><path class="cls-5" d="M240.49,12.43q.78,0,.78.81v1.67a.86.86,0,0,1-.19.56.75.75,0,0,1-.62.24H226.83v7h10.72a.81.81,0,0,1,.52.18.73.73,0,0,1,.22.6v1.72a.85.85,0,0,1-.19.54.67.67,0,0,1-.56.24H226.83v8.32h13.7a.7.7,0,0,1,.78.79v1.74a.66.66,0,0,1-.74.74H224.29q-.74,0-.74-.71V13.2q0-.78.74-.78Z"/><path class="cls-5" d="M250.35,13.24q0-.81.74-.81h9.76a7.78,7.78,0,0,1,3.15.63,8.1,8.1,0,0,1,2.54,1.72,8,8,0,0,1,2.32,5.67,7.81,7.81,0,0,1-.33,2.27,8.13,8.13,0,0,1-.92,2,7.86,7.86,0,0,1-1.42,1.67,8,8,0,0,1-1.84,1.23l4.46,9.15V37q0,.52-.63.52h-2a.89.89,0,0,1-.81-.63l-4.06-8.52-.3,0h-7.33v8.37q0,.74-.78.74H251.1a.66.66,0,0,1-.74-.74Zm15.25,7.19a4.58,4.58,0,0,0-.36-1.79,5,5,0,0,0-1-1.52,4.88,4.88,0,0,0-1.5-1.06,4.5,4.5,0,0,0-1.89-.4h-7.22v9.54h7.29a4.47,4.47,0,0,0,1.86-.39,4.69,4.69,0,0,0,1.49-1,4.91,4.91,0,0,0,1-1.52A4.71,4.71,0,0,0,265.61,20.43Z"/></g></g></svg>