<svg width="287" height="50" viewBox="0 0 287 50" fill="none" xmlns="http://www.w3.org/2000/svg">
<path fill-rule="evenodd" clip-rule="evenodd" d="M53.6582 2.86404C49.7474 6.84624 45.7375 11.0364 41.7392 15.2145C37.6833 19.4529 33.6392 23.6788 29.7225 27.6626L17.4594 17.5353C16.7657 16.8531 15.8183 16.4934 14.8471 16.5443C13.8793 16.5986 12.9758 17.0568 12.3566 17.8102C11.7407 18.5603 11.4666 19.5378 11.6019 20.505C11.7407 21.4689 12.272 22.331 13.0739 22.8842L27.8006 35.048C29.1778 36.1884 31.1913 36.0934 32.4569 34.8308C37.1319 30.1319 42.0065 25.0289 46.8624 19.9456C50.8157 15.8071 54.7566 11.6816 58.5672 7.7977C64.3797 17.0549 60.7007 33.3497 30.6941 49.7929L30.4516 49.9248L30.3066 49.8426C-15.8055 24.6414 0.0192674 -0.291359 17.1349 0.00257356C17.6818 0.00257356 18.2357 0.0523064 18.7849 0.112851C25.6723 0.871817 28.9176 4.34659 30.4514 7.33717C31.9801 4.34891 35.2302 0.871761 42.1203 0.141082C46.2017 -0.316095 50.3223 0.703934 53.6582 2.86404Z" fill="#009688"/>
<path d="M92.1478 39.9534C91.6303 39.9534 91.2041 39.8316 90.8692 39.5881C90.5648 39.3141 90.3517 38.9792 90.2299 38.5835L81.006 9.35922L80.9147 8.94826C80.9147 8.70472 81.006 8.49163 81.1887 8.30897C81.4018 8.09588 81.6453 7.98933 81.9193 7.98933H87.9011C88.3578 7.98933 88.7231 8.12632 88.997 8.4003C89.3015 8.64384 89.4993 8.91781 89.5907 9.22223L95.8008 29.8619L102.057 9.22223C102.148 8.88737 102.331 8.59817 102.605 8.35464C102.909 8.1111 103.29 7.98933 103.746 7.98933H109.728C110.002 7.98933 110.23 8.09588 110.413 8.30897C110.596 8.49163 110.687 8.70472 110.687 8.94826C110.687 9.10047 110.672 9.23745 110.641 9.35922L101.372 38.5835C101.28 38.9792 101.067 39.3141 100.732 39.5881C100.428 39.8316 100.017 39.9534 99.4995 39.9534H92.1478Z" fill="#009688"/>
<path d="M115.494 12.9209C115.159 12.9209 114.885 12.8144 114.672 12.6013C114.459 12.3578 114.352 12.0686 114.352 11.7337V7.48704C114.352 7.15218 114.459 6.8782 114.672 6.66511C114.915 6.42157 115.189 6.2998 115.494 6.2998H121.202C121.536 6.2998 121.81 6.42157 122.023 6.66511C122.267 6.8782 122.389 7.15218 122.389 7.48704V11.7337C122.389 12.0686 122.267 12.3578 122.023 12.6013C121.81 12.8144 121.536 12.9209 121.202 12.9209H115.494ZM115.494 39.9534C115.189 39.9534 114.915 39.8468 114.672 39.6337C114.459 39.3902 114.352 39.1162 114.352 38.8118V17.3502C114.352 17.0154 114.459 16.7414 114.672 16.5283C114.915 16.3152 115.189 16.2087 115.494 16.2087H121.202C121.536 16.2087 121.81 16.3152 122.023 16.5283C122.267 16.7414 122.389 17.0154 122.389 17.3502V38.8118C122.389 39.1467 122.267 39.4206 122.023 39.6337C121.81 39.8468 121.536 39.9534 121.202 39.9534H115.494Z" fill="#009688"/>
<path d="M140.062 39.9534C133.608 39.9534 130.382 36.9244 130.382 30.8665V22.4188H126.774C126.47 22.4188 126.196 22.3123 125.952 22.0992C125.739 21.8556 125.633 21.5817 125.633 21.2772V17.3502C125.633 17.0154 125.739 16.7414 125.952 16.5283C126.196 16.3152 126.47 16.2087 126.774 16.2087H130.382V8.67428C130.382 8.33942 130.488 8.06544 130.701 7.85235C130.945 7.63925 131.219 7.5327 131.523 7.5327H137.14C137.475 7.5327 137.749 7.63925 137.962 7.85235C138.175 8.06544 138.281 8.33942 138.281 8.67428V16.2087H143.989C144.324 16.2087 144.598 16.3152 144.811 16.5283C145.055 16.7414 145.176 17.0154 145.176 17.3502V21.2772C145.176 21.6121 145.055 21.8861 144.811 22.0992C144.598 22.3123 144.324 22.4188 143.989 22.4188H138.281V30.1815C138.281 31.247 138.479 32.0537 138.875 32.6017C139.271 33.1496 139.91 33.4236 140.793 33.4236H144.4C144.735 33.4236 145.009 33.5454 145.222 33.7889C145.435 34.002 145.542 34.276 145.542 34.6108V38.8118C145.542 39.1162 145.435 39.3902 145.222 39.6337C145.009 39.8468 144.735 39.9534 144.4 39.9534H140.062Z" fill="#009688"/>
<path d="M156.393 40.41C154.779 40.41 153.303 40.1056 151.963 39.4968C150.654 38.8575 149.619 37.9899 148.858 36.894C148.128 35.7981 147.762 34.5956 147.762 33.2866C147.762 31.2165 148.615 29.5422 150.319 28.2637C152.055 26.9547 154.429 26.0566 157.443 25.5696L163.105 24.702V24.154C163.105 23.0277 162.877 22.2057 162.42 21.6882C161.964 21.1707 161.187 20.9119 160.091 20.9119C159.483 20.9119 158.965 21.0185 158.539 21.2316C158.143 21.4447 157.686 21.7643 157.169 22.1905C156.773 22.5254 156.423 22.7689 156.119 22.9211C155.997 23.1342 155.845 23.2408 155.662 23.2408H150.365C150.061 23.2408 149.802 23.1494 149.589 22.9668C149.406 22.7537 149.33 22.5101 149.361 22.2362C149.391 21.4142 149.802 20.501 150.593 19.4964C151.385 18.4614 152.587 17.5785 154.201 16.8479C155.814 16.1173 157.808 15.752 160.183 15.752C163.957 15.752 166.758 16.5892 168.585 18.2635C170.411 19.9074 171.324 22.1448 171.324 24.9759V38.8118C171.324 39.1162 171.218 39.3902 171.005 39.6337C170.792 39.8468 170.518 39.9534 170.183 39.9534H164.566C164.262 39.9534 163.988 39.8468 163.744 39.6337C163.531 39.3902 163.425 39.1162 163.425 38.8118V37.2136C162.755 38.1573 161.827 38.9336 160.639 39.5424C159.452 40.1208 158.037 40.41 156.393 40.41ZM158.676 35.0218C160.015 35.0218 161.096 34.5804 161.918 33.6976C162.77 32.8147 163.196 31.5362 163.196 29.8619V29.3139L159.406 29.9532C156.849 30.4403 155.571 31.3535 155.571 32.693C155.571 33.3931 155.86 33.9563 156.438 34.3825C157.047 34.8087 157.793 35.0218 158.676 35.0218Z" fill="#009688"/>
<path d="M177.479 39.9534C177.144 39.9534 176.855 39.8468 176.611 39.6337C176.398 39.4206 176.291 39.1467 176.291 38.8118V8.67428C176.291 8.33942 176.398 8.06544 176.611 7.85235C176.855 7.63925 177.144 7.5327 177.479 7.5327H183.186C183.521 7.5327 183.795 7.63925 184.008 7.85235C184.221 8.06544 184.328 8.33942 184.328 8.67428V38.8118C184.328 39.1162 184.221 39.3902 184.008 39.6337C183.795 39.8468 183.521 39.9534 183.186 39.9534H177.479Z" fill="#009688"/>
<path d="M202.138 40.41C199.185 40.41 196.674 39.9838 194.604 39.1315C192.534 38.2791 190.966 37.1527 189.901 35.7524C188.835 34.3521 188.272 32.83 188.211 31.1861C188.211 30.9121 188.302 30.6838 188.485 30.5012C188.698 30.3185 188.942 30.2272 189.216 30.2272H195.289C195.654 30.2272 195.943 30.2881 196.156 30.4098C196.4 30.5316 196.659 30.7447 196.933 31.0491C197.329 31.7797 197.937 32.3886 198.759 32.8756C199.612 33.3323 200.738 33.5606 202.138 33.5606C203.782 33.5606 205.046 33.317 205.928 32.83C206.811 32.3125 207.253 31.6123 207.253 30.7295C207.253 30.0902 207.024 29.5727 206.568 29.1769C206.111 28.7507 205.38 28.3854 204.376 28.081C203.371 27.7462 201.925 27.3809 200.038 26.9851C196.354 26.2545 193.599 25.1434 191.773 23.6517C189.946 22.1601 189.033 20.0291 189.033 17.2589C189.033 15.3715 189.551 13.6972 190.586 12.236C191.651 10.7443 193.143 9.58754 195.061 8.7656C197.009 7.94367 199.262 7.5327 201.819 7.5327C204.498 7.5327 206.811 8.00455 208.759 8.94826C210.738 9.86151 212.245 11.0183 213.28 12.4186C214.346 13.7885 214.909 15.1432 214.97 16.4826C214.97 16.7566 214.878 17.0002 214.696 17.2132C214.513 17.3959 214.285 17.4872 214.011 17.4872H207.618C206.948 17.4872 206.431 17.2132 206.065 16.6653C205.883 16.026 205.411 15.4933 204.65 15.0671C203.889 14.6105 202.945 14.3821 201.819 14.3821C200.54 14.3821 199.551 14.6105 198.851 15.0671C198.15 15.5237 197.8 16.1934 197.8 17.0763C197.8 17.9591 198.257 18.6592 199.17 19.1768C200.084 19.6638 201.788 20.1661 204.285 20.6836C207.146 21.2011 209.414 21.8556 211.088 22.6471C212.793 23.4082 214.041 24.4128 214.833 25.6609C215.655 26.8786 216.066 28.4311 216.066 30.3185C216.066 32.3886 215.472 34.1846 214.285 35.7067C213.097 37.2288 211.454 38.4008 209.353 39.2228C207.253 40.0143 204.848 40.41 202.138 40.41Z" fill="#009688"/>
<path d="M221.089 12.9209C220.754 12.9209 220.48 12.8144 220.267 12.6013C220.054 12.3578 219.948 12.0686 219.948 11.7337V7.48704C219.948 7.15218 220.054 6.8782 220.267 6.66511C220.511 6.42157 220.785 6.2998 221.089 6.2998H226.797C227.132 6.2998 227.406 6.42157 227.619 6.66511C227.863 6.8782 227.984 7.15218 227.984 7.48704V11.7337C227.984 12.0686 227.863 12.3578 227.619 12.6013C227.406 12.8144 227.132 12.9209 226.797 12.9209H221.089ZM221.089 39.9534C220.785 39.9534 220.511 39.8468 220.267 39.6337C220.054 39.3902 219.948 39.1162 219.948 38.8118V17.3502C219.948 17.0154 220.054 16.7414 220.267 16.5283C220.511 16.3152 220.785 16.2087 221.089 16.2087H226.797C227.132 16.2087 227.406 16.3152 227.619 16.5283C227.863 16.7414 227.984 17.0154 227.984 17.3502V38.8118C227.984 39.1467 227.863 39.4206 227.619 39.6337C227.406 39.8468 227.132 39.9534 226.797 39.9534H221.089Z" fill="#009688"/>
<path d="M245.064 49.9992C242.142 49.9992 239.767 49.5274 237.941 48.5837C236.114 47.64 234.805 46.5441 234.014 45.2959C233.222 44.0783 232.826 43.0585 232.826 42.2365C232.826 41.9321 232.948 41.6734 233.192 41.4603C233.435 41.2472 233.709 41.1406 234.014 41.1406H240.132C240.437 41.1406 240.68 41.2015 240.863 41.3233C241.046 41.4755 241.213 41.719 241.365 42.0539C241.67 42.7236 242.065 43.2411 242.553 43.6064C243.04 44.0022 243.801 44.2 244.836 44.2C246.145 44.2 247.119 43.8652 247.758 43.1954C248.397 42.5562 248.717 41.4755 248.717 39.9534V36.894C247.104 38.5683 244.897 39.4054 242.096 39.4054C239.021 39.4054 236.662 38.5226 235.018 36.757C233.405 34.9609 232.522 32.3277 232.37 28.8573L232.324 27.6244C232.324 23.9105 233.146 21.0033 234.79 18.9028C236.464 16.8023 238.899 15.752 242.096 15.752C243.648 15.752 245.018 16.0564 246.206 16.6653C247.393 17.2437 248.382 18.0352 249.174 19.0398V17.3959C249.174 17.061 249.28 16.7871 249.493 16.574C249.706 16.3304 249.98 16.2087 250.315 16.2087H255.886C256.221 16.2087 256.495 16.3304 256.708 16.574C256.952 16.7871 257.073 17.061 257.073 17.3959V39.2684C257.073 42.7693 256.023 45.4329 253.923 47.2594C251.822 49.086 248.869 49.9992 245.064 49.9992ZM244.699 33.2409C246.008 33.2409 246.982 32.8452 247.621 32.0537C248.26 31.2622 248.626 30.2576 248.717 29.0399C248.747 28.8268 248.763 28.3702 248.763 27.6701C248.763 26.9394 248.747 26.4828 248.717 26.3002C248.626 25.052 248.26 24.0475 247.621 23.2864C246.982 22.4949 246.008 22.0992 244.699 22.0992C243.359 22.0992 242.385 22.5101 241.776 23.3321C241.167 24.1236 240.833 25.2347 240.772 26.6655L240.726 27.6701C240.726 29.4052 241.015 30.7751 241.594 31.7797C242.172 32.7539 243.207 33.2409 244.699 33.2409Z" fill="#009688"/>
<path d="M263.452 39.9534C263.148 39.9534 262.874 39.8468 262.63 39.6337C262.417 39.3902 262.311 39.1162 262.311 38.8118V17.3502C262.311 17.0154 262.417 16.7414 262.63 16.5283C262.874 16.3152 263.148 16.2087 263.452 16.2087H269.069C269.404 16.2087 269.678 16.3152 269.891 16.5283C270.104 16.7414 270.21 17.0154 270.21 17.3502V19.0854C271.032 18.0808 272.083 17.2741 273.361 16.6653C274.67 16.0564 276.162 15.752 277.836 15.752C279.571 15.752 281.109 16.1478 282.448 16.9393C283.818 17.7308 284.883 18.9028 285.644 20.4553C286.436 22.0079 286.832 23.88 286.832 26.0718V38.8118C286.832 39.1162 286.725 39.3902 286.512 39.6337C286.299 39.8468 286.025 39.9534 285.69 39.9534H279.617C279.282 39.9534 278.993 39.8468 278.749 39.6337C278.536 39.4206 278.43 39.1467 278.43 38.8118V26.3458C278.43 24.9759 278.095 23.9257 277.425 23.1951C276.786 22.4645 275.842 22.0992 274.594 22.0992C273.376 22.0992 272.417 22.4797 271.717 23.2408C271.017 23.9714 270.667 25.0064 270.667 26.3458V38.8118C270.667 39.1162 270.56 39.3902 270.347 39.6337C270.134 39.8468 269.86 39.9534 269.525 39.9534H263.452Z" fill="#009688"/>
</svg>
