<svg width="432" height="393" viewBox="0 0 432 393" fill="none" xmlns="http://www.w3.org/2000/svg">
<path fill-rule="evenodd" clip-rule="evenodd" d="M227.503 6.73688L337.427 206.598L337.033 206.827L337.139 207.02L229.036 269.628L215.5 277.5L224.703 282.84L215.454 277.494L19.8718 390.765C13.747 394.44 6.39714 391.99 2.72222 386.478C0.272282 382.803 0.272282 377.903 2.72222 374.228L204.842 7.34952C205.481 6.07218 206.333 4.95468 207.337 4.01923C211.09 -0.0291121 217.488 -1.23231 222.603 1.837C224.441 2.44948 226.278 4.28694 227.503 6.73688ZM256.039 300.953L337.49 206.712L429.623 374.228C432.686 380.353 430.848 387.703 424.723 391.378C421.049 393.215 416.149 393.215 412.474 391.378L256.039 300.953Z" fill="#F16F78"/>
</svg>
