<svg width="24" height="32" viewBox="0 0 24 32" fill="none" xmlns="http://www.w3.org/2000/svg">
<rect width="24" height="32" fill="white"/>
<path d="M5.69299 3H7.00003V4.53808H5.69299V3Z" fill="black"/>
<path d="M11.1537 3H12.4607V4.53808H11.1537V3Z" fill="black"/>
<path d="M16.6154 3H17.9225V4.53808H16.6154V3Z" fill="black"/>
<path d="M2.00014 23.8852H19.1158C20.5008 23.8852 21.6164 22.7696 21.6164 21.3846L21.615 9.92352H2L2.00014 23.8852ZM10.6161 15.3088L11.77 11.7321L12.9239 15.3088H16.3473L13.5788 17.2707L14.6944 20.6559L11.8083 18.5778L8.8852 20.6545L10.0008 17.2694L7.23226 15.3074L10.6161 15.3088Z" fill="black"/>
<path d="M2.00015 8.61644H21.5771V4.53964H17.9238V6.92402H16.6153V4.53964H12.4619V6.92402H11.1535V4.53964H7.00004V6.92402H5.693V4.53964H2.00015V8.61644Z" fill="black"/>
</svg>
