<?xml version="1.0" encoding="UTF-8"?>
<svg width="375px" height="270px" viewBox="0 0 375 270" version="1.1" xmlns="http://www.w3.org/2000/svg" xmlns:xlink="http://www.w3.org/1999/xlink">
    <!-- Generator: Sketch 55 (78076) - https://sketchapp.com -->
    <title>img-busy-space</title>
    <desc>Created with Sketch.</desc>
    <defs>
        <linearGradient x1="79.2642263%" y1="56.0623155%" x2="27.7241673%" y2="50%" id="linearGradient-1">
            <stop stop-color="#C62A6B" offset="0%"></stop>
            <stop stop-color="#F58B1E" offset="100%"></stop>
        </linearGradient>
        <linearGradient x1="46.4531883%" y1="45.9031022%" x2="79.7043725%" y2="65.097235%" id="linearGradient-2">
            <stop stop-color="#EE2854" offset="0%"></stop>
            <stop stop-color="#F26931" offset="100%"></stop>
        </linearGradient>
    </defs>
    <g id="img-busy-space" stroke="none" stroke-width="1" fill="none" fill-rule="evenodd">
        <rect fill="#FFFFFF" x="0" y="0" width="375" height="270"></rect>
        <g id="bg" transform="translate(-115.000000, -13.000000)">
            <g id="Group-5">
                <path d="M171,184.902005 C210.832042,186.124329 257.562816,185.800184 284.475972,224.940393 C306.006854,256.740577 328.266127,242.258176 376.883063,264 C425.5,285.741824 429.836532,256.239218 471.82202,232.999862 C508.764358,210.779109 541.089722,235.374888 578.678183,218.288199 L525,34 L30,31 C31.9892372,38.5422247 45.1212103,137.88341 51.7743117,141.123176 C78.6883602,152.130172 143.009675,184.902005 171,184.902005 Z" id="Fill-11-Copy" fill="url(#linearGradient-1)"></path>
                <path d="M105.745286,118.685524 C145.577329,119.907848 187.562816,124.800184 214.475972,163.940393 C236.006854,195.740577 231.246251,210.995445 249.548304,240.349461 C279.691181,286.828174 341.054105,274.597333 383.039593,251.357977 C419.981931,229.137224 457.411539,211.351196 495,194.264507 L495,3 L0,-2.84217094e-14 C1.98923716,7.54222467 15.1212103,106.88341 21.7743117,110.123176 C48.6883602,121.130172 77.7549615,118.685524 105.745286,118.685524 Z" id="Fill-11" fill="url(#linearGradient-2)"></path>
            </g>
            <path d="M309.109889,184.673077 C309.203303,184.549993 309.351281,184.47028 309.517411,184.47028 C309.798982,184.47028 310.028411,184.699269 310.028411,184.980301 L310.028411,185.490323 C310.028411,185.920978 310.377768,186.270968 310.810554,186.270968 L311.081696,186.270968 C311.364571,186.270968 311.592696,186.498656 311.592696,186.780989 C311.592696,187.062022 311.364571,187.291011 311.081696,187.291011 L310.810554,187.291011 C310.377768,187.291011 310.028411,187.639699 310.028411,188.071656 L310.028411,188.580376 C310.028411,188.86271 309.798982,189.091699 309.517411,189.091699 C309.235839,189.091699 309.006411,188.86271 309.006411,188.580376 L309.006411,188.071656 C309.006411,187.639699 308.65575,187.291011 308.224268,187.291011 L307.951821,187.291011 C307.67025,187.291011 307.442125,187.062022 307.442125,186.780989 C307.442125,186.498656 307.67025,186.270968 307.951821,186.270968 L308.224268,186.270968 C308.65575,186.270968 309.006411,185.920978 309.006411,185.490323 L309.006411,185.374891 C308.920838,185.440301 308.813966,185.479151 308.698196,185.479151 C308.416625,185.479151 308.1885,185.251462 308.1885,184.97043 C308.1885,184.690699 308.416625,184.463011 308.698196,184.463011 C308.867291,184.463011 309.017404,184.545891 309.109889,184.673077 Z M453.342786,117.569398 C453.342786,117.289667 453.570911,117.061978 453.852482,117.061978 C454.13275,117.061978 454.360875,117.289667 454.360875,117.569398 C454.360875,117.85043 454.13275,118.078118 453.852482,118.078118 C453.570911,118.078118 453.342786,117.85043 453.342786,117.569398 Z M410.065518,70.1894409 C410.065518,69.9097097 410.293643,69.6820215 410.573911,69.6820215 C410.855482,69.6820215 411.083607,69.9097097 411.083607,70.1894409 C411.083607,70.4704731 410.855482,70.6981613 410.573911,70.6981613 C410.293643,70.6981613 410.065518,70.4704731 410.065518,70.1894409 Z M437.895464,148.695022 C437.895464,148.41529 438.123589,148.187602 438.403857,148.187602 C438.685429,148.187602 438.913554,148.41529 438.913554,148.695022 C438.913554,148.976054 438.685429,149.202441 438.403857,149.202441 C438.123589,149.202441 437.895464,148.976054 437.895464,148.695022 Z M475.343161,41.8246989 C475.343161,41.5449677 475.571286,41.3172796 475.851554,41.3172796 C476.133125,41.3172796 476.36125,41.5449677 476.36125,41.8246989 C476.36125,42.1057312 476.133125,42.3334194 475.851554,42.3334194 C475.571286,42.3334194 475.343161,42.1057312 475.343161,41.8246989 Z M465.250911,134.203645 C465.250911,133.923914 465.479036,133.696226 465.759304,133.696226 C466.040875,133.696226 466.269,133.923914 466.269,134.203645 C466.269,134.484677 466.040875,134.711065 465.759304,134.711065 C465.479036,134.711065 465.250911,134.484677 465.250911,134.203645 Z M404,106.047075 C404,105.766043 404.228125,105.538355 404.508393,105.538355 C404.789964,105.538355 405.018089,105.766043 405.018089,106.047075 C405.018089,106.326806 404.789964,106.554495 404.508393,106.554495 C404.228125,106.554495 404,106.326806 404,106.047075 Z M441.834857,29.2524086 C441.834857,28.9713763 442.062982,28.7436882 442.34325,28.7436882 C442.624821,28.7436882 442.852946,28.9713763 442.852946,29.2524086 C442.852946,29.5321398 442.624821,29.759828 442.34325,29.759828 C442.062982,29.759828 441.834857,29.5321398 441.834857,29.2524086 Z M428.423714,119.005785 C428.423714,118.726054 428.650536,118.498366 428.932107,118.498366 C429.213679,118.498366 429.4405,118.726054 429.4405,119.005785 C429.4405,119.286817 429.213679,119.514505 428.932107,119.514505 C428.650536,119.514505 428.423714,119.286817 428.423714,119.005785 Z M464.1885,83.9704301 C464.1885,83.6906989 464.416625,83.4630108 464.698196,83.4630108 C464.978464,83.4630108 465.206589,83.6906989 465.206589,83.9704301 C465.206589,84.2514624 464.978464,84.4791505 464.698196,84.4791505 C464.416625,84.4791505 464.1885,84.2514624 464.1885,83.9704301 Z M471.534125,113.741634 C471.817,113.741634 472.046429,113.969323 472.046429,114.251656 C472.046429,114.533989 471.817,114.761677 471.534125,114.761677 L471.262982,114.761677 C470.8315,114.761677 470.480839,115.110366 470.480839,115.542323 L470.480839,116.051043 C470.480839,116.333376 470.252714,116.562366 469.969839,116.562366 C469.688268,116.562366 469.458839,116.333376 469.458839,116.051043 L469.458839,115.542323 C469.458839,115.110366 469.109482,114.761677 468.676696,114.761677 L468.405554,114.761677 C468.122679,114.761677 467.894554,114.533989 467.894554,114.251656 C467.894554,113.969323 468.122679,113.741634 468.405554,113.741634 L468.676696,113.741634 C469.109482,113.741634 469.458839,113.392946 469.458839,112.960989 L469.458839,112.450968 C469.458839,112.169935 469.688268,111.940946 469.969839,111.940946 C470.252714,111.940946 470.480839,112.169935 470.480839,112.450968 L470.480839,112.960989 C470.480839,113.392946 470.8315,113.741634 471.262982,113.741634 L471.534125,113.741634 Z M431.081696,42.2709677 C431.364571,42.2709677 431.592696,42.4986559 431.592696,42.7809892 C431.592696,43.0620215 431.364571,43.2910108 431.081696,43.2910108 L430.810554,43.2910108 C430.377768,43.2910108 430.028411,43.6396989 430.028411,44.0716559 L430.028411,44.5803763 C430.028411,44.8627097 429.798982,45.0916989 429.517411,45.0916989 C429.235839,45.0916989 429.006411,44.8627097 429.006411,44.5803763 L429.006411,44.0716559 C429.006411,43.6396989 428.65575,43.2910108 428.224268,43.2910108 L427.951821,43.2910108 C427.67025,43.2910108 427.442125,43.0620215 427.442125,42.7809892 C427.442125,42.4986559 427.67025,42.2709677 427.951821,42.2709677 L428.224268,42.2709677 C428.65575,42.2709677 429.006411,41.9209785 429.006411,41.4903226 L429.006411,40.9803011 C429.006411,40.6992688 429.235839,40.4702796 429.517411,40.4702796 C429.798982,40.4702796 430.028411,40.6992688 430.028411,40.9803011 L430.028411,41.4903226 C430.028411,41.9209785 430.377768,42.2709677 430.810554,42.2709677 L431.081696,42.2709677 Z M411.206143,141.883892 C411.487714,141.883892 411.717143,142.111581 411.717143,142.393914 C411.717143,142.674946 411.487714,142.903935 411.206143,142.903935 L410.935,142.903935 C410.502214,142.903935 410.152857,143.252624 410.152857,143.684581 L410.152857,144.193301 C410.152857,144.475634 409.923429,144.703323 409.640554,144.703323 C409.358982,144.703323 409.130857,144.475634 409.130857,144.193301 L409.130857,143.684581 C409.130857,143.252624 408.780196,142.903935 408.348714,142.903935 L408.076268,142.903935 C407.794696,142.903935 407.565268,142.674946 407.565268,142.393914 C407.565268,142.111581 407.794696,141.883892 408.076268,141.883892 L408.348714,141.883892 C408.780196,141.883892 409.130857,141.533903 409.130857,141.103247 L409.130857,140.593226 C409.130857,140.310892 409.358982,140.083204 409.640554,140.083204 C409.923429,140.083204 410.152857,140.310892 410.152857,140.593226 L410.152857,141.103247 C410.152857,141.533903 410.502214,141.883892 410.935,141.883892 L411.206143,141.883892 Z M436.714429,101.916161 C436.996,101.916161 437.225429,102.145151 437.225429,102.426183 C437.225429,102.707215 436.996,102.934903 436.714429,102.934903 L436.443286,102.934903 C436.0105,102.934903 435.659839,103.284892 435.659839,103.716849 L435.659839,104.226871 C435.659839,104.507903 435.431714,104.735591 435.148839,104.735591 C434.867268,104.735591 434.639143,104.507903 434.639143,104.226871 L434.639143,103.716849 C434.639143,103.284892 434.288482,102.934903 433.857,102.934903 L433.584554,102.934903 C433.302982,102.934903 433.074857,102.707215 433.074857,102.426183 C433.074857,102.145151 433.302982,101.916161 433.584554,101.916161 L433.857,101.916161 C434.288482,101.916161 434.639143,101.566172 434.639143,101.135516 L434.639143,100.625495 C434.639143,100.344462 434.867268,100.115473 435.148839,100.115473 C435.431714,100.115473 435.659839,100.344462 435.659839,100.625495 L435.659839,101.135516 C435.659839,101.566172 436.0105,101.916161 436.443286,101.916161 L436.714429,101.916161 Z M297.342786,218.569398 C297.342786,218.289667 297.570911,218.061978 297.852482,218.061978 C298.13275,218.061978 298.360875,218.289667 298.360875,218.569398 C298.360875,218.85043 298.13275,219.078118 297.852482,219.078118 C297.570911,219.078118 297.342786,218.85043 297.342786,218.569398 Z M254.065518,171.189441 C254.065518,170.90971 254.293643,170.682022 254.573911,170.682022 C254.855482,170.682022 255.083607,170.90971 255.083607,171.189441 C255.083607,171.470473 254.855482,171.698161 254.573911,171.698161 C254.293643,171.698161 254.065518,171.470473 254.065518,171.189441 Z M281.895464,249.695022 C281.895464,249.41529 282.123589,249.187602 282.403857,249.187602 C282.685429,249.187602 282.913554,249.41529 282.913554,249.695022 C282.913554,249.976054 282.685429,250.202441 282.403857,250.202441 C282.123589,250.202441 281.895464,249.976054 281.895464,249.695022 Z M319.343161,142.824699 C319.343161,142.544968 319.571286,142.31728 319.851554,142.31728 C320.133125,142.31728 320.36125,142.544968 320.36125,142.824699 C320.36125,143.105731 320.133125,143.333419 319.851554,143.333419 C319.571286,143.333419 319.343161,143.105731 319.343161,142.824699 Z M309.250911,235.203645 C309.250911,234.923914 309.479036,234.696226 309.759304,234.696226 C310.040875,234.696226 310.269,234.923914 310.269,235.203645 C310.269,235.484677 310.040875,235.711065 309.759304,235.711065 C309.479036,235.711065 309.250911,235.484677 309.250911,235.203645 Z M248,207.047075 C248,206.766043 248.228125,206.538355 248.508393,206.538355 C248.789964,206.538355 249.018089,206.766043 249.018089,207.047075 C249.018089,207.326806 248.789964,207.554495 248.508393,207.554495 C248.228125,207.554495 248,207.326806 248,207.047075 Z M285.834857,130.252409 C285.834857,129.971376 286.062982,129.743688 286.34325,129.743688 C286.624821,129.743688 286.852946,129.971376 286.852946,130.252409 C286.852946,130.53214 286.624821,130.759828 286.34325,130.759828 C286.062982,130.759828 285.834857,130.53214 285.834857,130.252409 Z M272.423714,220.005785 C272.423714,219.726054 272.650536,219.498366 272.932107,219.498366 C273.213679,219.498366 273.4405,219.726054 273.4405,220.005785 C273.4405,220.286817 273.213679,220.514505 272.932107,220.514505 C272.650536,220.514505 272.423714,220.286817 272.423714,220.005785 Z M315.534125,214.741634 C315.817,214.741634 316.046429,214.969323 316.046429,215.251656 C316.046429,215.533989 315.817,215.761677 315.534125,215.761677 L315.262982,215.761677 C314.8315,215.761677 314.480839,216.110366 314.480839,216.542323 L314.480839,217.051043 C314.480839,217.333376 314.252714,217.562366 313.969839,217.562366 C313.688268,217.562366 313.458839,217.333376 313.458839,217.051043 L313.458839,216.542323 C313.458839,216.110366 313.109482,215.761677 312.676696,215.761677 L312.405554,215.761677 C312.122679,215.761677 311.894554,215.533989 311.894554,215.251656 C311.894554,214.969323 312.122679,214.741634 312.405554,214.741634 L312.676696,214.741634 C313.109482,214.741634 313.458839,214.392946 313.458839,213.960989 L313.458839,213.450968 C313.458839,213.169935 313.688268,212.940946 313.969839,212.940946 C314.252714,212.940946 314.480839,213.169935 314.480839,213.450968 L314.480839,213.960989 C314.480839,214.392946 314.8315,214.741634 315.262982,214.741634 L315.534125,214.741634 Z M275.081696,143.270968 C275.364571,143.270968 275.592696,143.498656 275.592696,143.780989 C275.592696,144.062022 275.364571,144.291011 275.081696,144.291011 L274.810554,144.291011 C274.377768,144.291011 274.028411,144.639699 274.028411,145.071656 L274.028411,145.580376 C274.028411,145.86271 273.798982,146.091699 273.517411,146.091699 C273.235839,146.091699 273.006411,145.86271 273.006411,145.580376 L273.006411,145.071656 C273.006411,144.639699 272.65575,144.291011 272.224268,144.291011 L271.951821,144.291011 C271.67025,144.291011 271.442125,144.062022 271.442125,143.780989 C271.442125,143.498656 271.67025,143.270968 271.951821,143.270968 L272.224268,143.270968 C272.65575,143.270968 273.006411,142.920978 273.006411,142.490323 L273.006411,141.980301 C273.006411,141.699269 273.235839,141.47028 273.517411,141.47028 C273.798982,141.47028 274.028411,141.699269 274.028411,141.980301 L274.028411,142.490323 C274.028411,142.920978 274.377768,143.270968 274.810554,143.270968 L275.081696,143.270968 Z M280.714429,202.916161 C280.996,202.916161 281.225429,203.145151 281.225429,203.426183 C281.225429,203.707215 280.996,203.934903 280.714429,203.934903 L280.443286,203.934903 C280.0105,203.934903 279.659839,204.284892 279.659839,204.716849 L279.659839,205.226871 C279.659839,205.507903 279.431714,205.735591 279.148839,205.735591 C278.867268,205.735591 278.639143,205.507903 278.639143,205.226871 L278.639143,204.716849 C278.639143,204.284892 278.288482,203.934903 277.857,203.934903 L277.584554,203.934903 C277.302982,203.934903 277.074857,203.707215 277.074857,203.426183 C277.074857,203.145151 277.302982,202.916161 277.584554,202.916161 L277.857,202.916161 C278.288482,202.916161 278.639143,202.566172 278.639143,202.135516 L278.639143,201.625495 C278.639143,201.344462 278.867268,201.115473 279.148839,201.115473 C279.431714,201.115473 279.659839,201.344462 279.659839,201.625495 L279.659839,202.135516 C279.659839,202.566172 280.0105,202.916161 280.443286,202.916161 L280.714429,202.916161 Z M421.342786,218.569398 C421.342786,218.289667 421.570911,218.061978 421.852482,218.061978 C422.13275,218.061978 422.360875,218.289667 422.360875,218.569398 C422.360875,218.85043 422.13275,219.078118 421.852482,219.078118 C421.570911,219.078118 421.342786,218.85043 421.342786,218.569398 Z M378.065518,171.189441 C378.065518,170.90971 378.293643,170.682022 378.573911,170.682022 C378.855482,170.682022 379.083607,170.90971 379.083607,171.189441 C379.083607,171.470473 378.855482,171.698161 378.573911,171.698161 C378.293643,171.698161 378.065518,171.470473 378.065518,171.189441 Z M443.343161,142.824699 C443.343161,142.544968 443.571286,142.31728 443.851554,142.31728 C444.133125,142.31728 444.36125,142.544968 444.36125,142.824699 C444.36125,143.105731 444.133125,143.333419 443.851554,143.333419 C443.571286,143.333419 443.343161,143.105731 443.343161,142.824699 Z M372,207.047075 C372,206.766043 372.228125,206.538355 372.508393,206.538355 C372.789964,206.538355 373.018089,206.766043 373.018089,207.047075 C373.018089,207.326806 372.789964,207.554495 372.508393,207.554495 C372.228125,207.554495 372,207.326806 372,207.047075 Z M409.834857,130.252409 C409.834857,129.971376 410.062982,129.743688 410.34325,129.743688 C410.624821,129.743688 410.852946,129.971376 410.852946,130.252409 C410.852946,130.53214 410.624821,130.759828 410.34325,130.759828 C410.062982,130.759828 409.834857,130.53214 409.834857,130.252409 Z M396.423714,220.005785 C396.423714,219.726054 396.650536,219.498366 396.932107,219.498366 C397.213679,219.498366 397.4405,219.726054 397.4405,220.005785 C397.4405,220.286817 397.213679,220.514505 396.932107,220.514505 C396.650536,220.514505 396.423714,220.286817 396.423714,220.005785 Z M432.1885,184.97043 C432.1885,184.690699 432.416625,184.463011 432.698196,184.463011 C432.978464,184.463011 433.206589,184.690699 433.206589,184.97043 C433.206589,185.251462 432.978464,185.479151 432.698196,185.479151 C432.416625,185.479151 432.1885,185.251462 432.1885,184.97043 Z M439.534125,214.741634 C439.817,214.741634 440.046429,214.969323 440.046429,215.251656 C440.046429,215.533989 439.817,215.761677 439.534125,215.761677 L439.262982,215.761677 C438.8315,215.761677 438.480839,216.110366 438.480839,216.542323 L438.480839,217.051043 C438.480839,217.333376 438.252714,217.562366 437.969839,217.562366 C437.688268,217.562366 437.458839,217.333376 437.458839,217.051043 L437.458839,216.542323 C437.458839,216.110366 437.109482,215.761677 436.676696,215.761677 L436.405554,215.761677 C436.122679,215.761677 435.894554,215.533989 435.894554,215.251656 C435.894554,214.969323 436.122679,214.741634 436.405554,214.741634 L436.676696,214.741634 C437.109482,214.741634 437.458839,214.392946 437.458839,213.960989 L437.458839,213.450968 C437.458839,213.169935 437.688268,212.940946 437.969839,212.940946 C438.252714,212.940946 438.480839,213.169935 438.480839,213.450968 L438.480839,213.960989 C438.480839,214.392946 438.8315,214.741634 439.262982,214.741634 L439.534125,214.741634 Z M399.081696,143.270968 C399.364571,143.270968 399.592696,143.498656 399.592696,143.780989 C399.592696,144.062022 399.364571,144.291011 399.081696,144.291011 L398.810554,144.291011 C398.377768,144.291011 398.028411,144.639699 398.028411,145.071656 L398.028411,145.580376 C398.028411,145.86271 397.798982,146.091699 397.517411,146.091699 C397.235839,146.091699 397.006411,145.86271 397.006411,145.580376 L397.006411,145.071656 C397.006411,144.639699 396.65575,144.291011 396.224268,144.291011 L395.951821,144.291011 C395.67025,144.291011 395.442125,144.062022 395.442125,143.780989 C395.442125,143.498656 395.67025,143.270968 395.951821,143.270968 L396.224268,143.270968 C396.65575,143.270968 397.006411,142.920978 397.006411,142.490323 L397.006411,141.980301 C397.006411,141.699269 397.235839,141.47028 397.517411,141.47028 C397.798982,141.47028 398.028411,141.699269 398.028411,141.980301 L398.028411,142.490323 C398.028411,142.920978 398.377768,143.270968 398.810554,143.270968 L399.081696,143.270968 Z M379.206143,242.883892 C379.487714,242.883892 379.717143,243.111581 379.717143,243.393914 C379.717143,243.674946 379.487714,243.903935 379.206143,243.903935 L378.935,243.903935 C378.502214,243.903935 378.152857,244.252624 378.152857,244.684581 L378.152857,245.193301 C378.152857,245.475634 377.923429,245.703323 377.640554,245.703323 C377.358982,245.703323 377.130857,245.475634 377.130857,245.193301 L377.130857,244.684581 C377.130857,244.252624 376.780196,243.903935 376.348714,243.903935 L376.076268,243.903935 C375.794696,243.903935 375.565268,243.674946 375.565268,243.393914 C375.565268,243.111581 375.794696,242.883892 376.076268,242.883892 L376.348714,242.883892 C376.780196,242.883892 377.130857,242.533903 377.130857,242.103247 L377.130857,241.593226 C377.130857,241.310892 377.358982,241.083204 377.640554,241.083204 C377.923429,241.083204 378.152857,241.310892 378.152857,241.593226 L378.152857,242.103247 C378.152857,242.533903 378.502214,242.883892 378.935,242.883892 L379.206143,242.883892 Z M404.714429,202.916161 C404.996,202.916161 405.225429,203.145151 405.225429,203.426183 C405.225429,203.707215 404.996,203.934903 404.714429,203.934903 L404.443286,203.934903 C404.0105,203.934903 403.659839,204.284892 403.659839,204.716849 L403.659839,205.226871 C403.659839,205.507903 403.431714,205.735591 403.148839,205.735591 C402.867268,205.735591 402.639143,205.507903 402.639143,205.226871 L402.639143,204.716849 C402.639143,204.284892 402.288482,203.934903 401.857,203.934903 L401.584554,203.934903 C401.302982,203.934903 401.074857,203.707215 401.074857,203.426183 C401.074857,203.145151 401.302982,202.916161 401.584554,202.916161 L401.857,202.916161 C402.288482,202.916161 402.639143,202.566172 402.639143,202.135516 L402.639143,201.625495 C402.639143,201.344462 402.867268,201.115473 403.148839,201.115473 C403.431714,201.115473 403.659839,201.344462 403.659839,201.625495 L403.659839,202.135516 C403.659839,202.566172 404.0105,202.916161 404.443286,202.916161 L404.714429,202.916161 Z M333.342786,261.569398 C333.342786,261.289667 333.570911,261.061978 333.852482,261.061978 C334.13275,261.061978 334.360875,261.289667 334.360875,261.569398 C334.360875,261.85043 334.13275,262.078118 333.852482,262.078118 C333.570911,262.078118 333.342786,261.85043 333.342786,261.569398 Z M290.065518,214.189441 C290.065518,213.90971 290.293643,213.682022 290.573911,213.682022 C290.855482,213.682022 291.083607,213.90971 291.083607,214.189441 C291.083607,214.470473 290.855482,214.698161 290.573911,214.698161 C290.293643,214.698161 290.065518,214.470473 290.065518,214.189441 Z M355.343161,185.824699 C355.343161,185.544968 355.571286,185.31728 355.851554,185.31728 C356.133125,185.31728 356.36125,185.544968 356.36125,185.824699 C356.36125,186.105731 356.133125,186.333419 355.851554,186.333419 C355.571286,186.333419 355.343161,186.105731 355.343161,185.824699 Z M284,250.047075 C284,249.766043 284.228125,249.538355 284.508393,249.538355 C284.789964,249.538355 285.018089,249.766043 285.018089,250.047075 C285.018089,250.326806 284.789964,250.554495 284.508393,250.554495 C284.228125,250.554495 284,250.326806 284,250.047075 Z M321.834857,173.252409 C321.834857,172.971376 322.062982,172.743688 322.34325,172.743688 C322.624821,172.743688 322.852946,172.971376 322.852946,173.252409 C322.852946,173.53214 322.624821,173.759828 322.34325,173.759828 C322.062982,173.759828 321.834857,173.53214 321.834857,173.252409 Z M308.423714,263.005785 C308.423714,262.726054 308.650536,262.498366 308.932107,262.498366 C309.213679,262.498366 309.4405,262.726054 309.4405,263.005785 C309.4405,263.286817 309.213679,263.514505 308.932107,263.514505 C308.650536,263.514505 308.423714,263.286817 308.423714,263.005785 Z M344.1885,227.97043 C344.1885,227.690699 344.416625,227.463011 344.698196,227.463011 C344.978464,227.463011 345.206589,227.690699 345.206589,227.97043 C345.206589,228.251462 344.978464,228.479151 344.698196,228.479151 C344.416625,228.479151 344.1885,228.251462 344.1885,227.97043 Z M351.534125,257.741634 C351.817,257.741634 352.046429,257.969323 352.046429,258.251656 C352.046429,258.533989 351.817,258.761677 351.534125,258.761677 L351.262982,258.761677 C350.8315,258.761677 350.480839,259.110366 350.480839,259.542323 L350.480839,260.051043 C350.480839,260.333376 350.252714,260.562366 349.969839,260.562366 C349.688268,260.562366 349.458839,260.333376 349.458839,260.051043 L349.458839,259.542323 C349.458839,259.110366 349.109482,258.761677 348.676696,258.761677 L348.405554,258.761677 C348.122679,258.761677 347.894554,258.533989 347.894554,258.251656 C347.894554,257.969323 348.122679,257.741634 348.405554,257.741634 L348.676696,257.741634 C349.109482,257.741634 349.458839,257.392946 349.458839,256.960989 L349.458839,256.450968 C349.458839,256.169935 349.688268,255.940946 349.969839,255.940946 C350.252714,255.940946 350.480839,256.169935 350.480839,256.450968 L350.480839,256.960989 C350.480839,257.392946 350.8315,257.741634 351.262982,257.741634 L351.534125,257.741634 Z M316.714429,245.916161 C316.996,245.916161 317.225429,246.145151 317.225429,246.426183 C317.225429,246.707215 316.996,246.934903 316.714429,246.934903 L316.443286,246.934903 C316.0105,246.934903 315.659839,247.284892 315.659839,247.716849 L315.659839,248.226871 C315.659839,248.507903 315.431714,248.735591 315.148839,248.735591 C314.867268,248.735591 314.639143,248.507903 314.639143,248.226871 L314.639143,247.716849 C314.639143,247.284892 314.288482,246.934903 313.857,246.934903 L313.584554,246.934903 C313.302982,246.934903 313.074857,246.707215 313.074857,246.426183 C313.074857,246.145151 313.302982,245.916161 313.584554,245.916161 L313.857,245.916161 C314.288482,245.916161 314.639143,245.566172 314.639143,245.135516 L314.639143,244.625495 C314.639143,244.344462 314.867268,244.115473 315.148839,244.115473 C315.431714,244.115473 315.659839,244.344462 315.659839,244.625495 L315.659839,245.135516 C315.659839,245.566172 316.0105,245.916161 316.443286,245.916161 L316.714429,245.916161 Z M224.342786,133.569398 C224.342786,133.289667 224.570911,133.061978 224.852482,133.061978 C225.13275,133.061978 225.360875,133.289667 225.360875,133.569398 C225.360875,133.85043 225.13275,134.078118 224.852482,134.078118 C224.570911,134.078118 224.342786,133.85043 224.342786,133.569398 Z M181.065518,86.1894409 C181.065518,85.9097097 181.293643,85.6820215 181.573911,85.6820215 C181.855482,85.6820215 182.083607,85.9097097 182.083607,86.1894409 C182.083607,86.4704731 181.855482,86.6981613 181.573911,86.6981613 C181.293643,86.6981613 181.065518,86.4704731 181.065518,86.1894409 Z M208.895464,164.695022 C208.895464,164.41529 209.123589,164.187602 209.403857,164.187602 C209.685429,164.187602 209.913554,164.41529 209.913554,164.695022 C209.913554,164.976054 209.685429,165.202441 209.403857,165.202441 C209.123589,165.202441 208.895464,164.976054 208.895464,164.695022 Z M246.343161,57.8246989 C246.343161,57.5449677 246.571286,57.3172796 246.851554,57.3172796 C247.133125,57.3172796 247.36125,57.5449677 247.36125,57.8246989 C247.36125,58.1057312 247.133125,58.3334194 246.851554,58.3334194 C246.571286,58.3334194 246.343161,58.1057312 246.343161,57.8246989 Z M236.250911,150.203645 C236.250911,149.923914 236.479036,149.696226 236.759304,149.696226 C237.040875,149.696226 237.269,149.923914 237.269,150.203645 C237.269,150.484677 237.040875,150.711065 236.759304,150.711065 C236.479036,150.711065 236.250911,150.484677 236.250911,150.203645 Z M175,122.047075 C175,121.766043 175.228125,121.538355 175.508393,121.538355 C175.789964,121.538355 176.018089,121.766043 176.018089,122.047075 C176.018089,122.326806 175.789964,122.554495 175.508393,122.554495 C175.228125,122.554495 175,122.326806 175,122.047075 Z M212.834857,45.2524086 C212.834857,44.9713763 213.062982,44.7436882 213.34325,44.7436882 C213.624821,44.7436882 213.852946,44.9713763 213.852946,45.2524086 C213.852946,45.5321398 213.624821,45.759828 213.34325,45.759828 C213.062982,45.759828 212.834857,45.5321398 212.834857,45.2524086 Z M199.423714,135.005785 C199.423714,134.726054 199.650536,134.498366 199.932107,134.498366 C200.213679,134.498366 200.4405,134.726054 200.4405,135.005785 C200.4405,135.286817 200.213679,135.514505 199.932107,135.514505 C199.650536,135.514505 199.423714,135.286817 199.423714,135.005785 Z M235.1885,99.9704301 C235.1885,99.6906989 235.416625,99.4630108 235.698196,99.4630108 C235.978464,99.4630108 236.206589,99.6906989 236.206589,99.9704301 C236.206589,100.251462 235.978464,100.479151 235.698196,100.479151 C235.416625,100.479151 235.1885,100.251462 235.1885,99.9704301 Z M242.534125,129.741634 C242.817,129.741634 243.046429,129.969323 243.046429,130.251656 C243.046429,130.533989 242.817,130.761677 242.534125,130.761677 L242.262982,130.761677 C241.8315,130.761677 241.480839,131.110366 241.480839,131.542323 L241.480839,132.051043 C241.480839,132.333376 241.252714,132.562366 240.969839,132.562366 C240.688268,132.562366 240.458839,132.333376 240.458839,132.051043 L240.458839,131.542323 C240.458839,131.110366 240.109482,130.761677 239.676696,130.761677 L239.405554,130.761677 C239.122679,130.761677 238.894554,130.533989 238.894554,130.251656 C238.894554,129.969323 239.122679,129.741634 239.405554,129.741634 L239.676696,129.741634 C240.109482,129.741634 240.458839,129.392946 240.458839,128.960989 L240.458839,128.450968 C240.458839,128.169935 240.688268,127.940946 240.969839,127.940946 C241.252714,127.940946 241.480839,128.169935 241.480839,128.450968 L241.480839,128.960989 C241.480839,129.392946 241.8315,129.741634 242.262982,129.741634 L242.534125,129.741634 Z M202.081696,58.2709677 C202.364571,58.2709677 202.592696,58.4986559 202.592696,58.7809892 C202.592696,59.0620215 202.364571,59.2910108 202.081696,59.2910108 L201.810554,59.2910108 C201.377768,59.2910108 201.028411,59.6396989 201.028411,60.0716559 L201.028411,60.5803763 C201.028411,60.8627097 200.798982,61.0916989 200.517411,61.0916989 C200.235839,61.0916989 200.006411,60.8627097 200.006411,60.5803763 L200.006411,60.0716559 C200.006411,59.6396989 199.65575,59.2910108 199.224268,59.2910108 L198.951821,59.2910108 C198.67025,59.2910108 198.442125,59.0620215 198.442125,58.7809892 C198.442125,58.4986559 198.67025,58.2709677 198.951821,58.2709677 L199.224268,58.2709677 C199.65575,58.2709677 200.006411,57.9209785 200.006411,57.4903226 L200.006411,56.9803011 C200.006411,56.6992688 200.235839,56.4702796 200.517411,56.4702796 C200.798982,56.4702796 201.028411,56.6992688 201.028411,56.9803011 L201.028411,57.4903226 C201.028411,57.9209785 201.377768,58.2709677 201.810554,58.2709677 L202.081696,58.2709677 Z M207.714429,117.916161 C207.996,117.916161 208.225429,118.145151 208.225429,118.426183 C208.225429,118.707215 207.996,118.934903 207.714429,118.934903 L207.443286,118.934903 C207.0105,118.934903 206.659839,119.284892 206.659839,119.716849 L206.659839,120.226871 C206.659839,120.507903 206.431714,120.735591 206.148839,120.735591 C205.867268,120.735591 205.639143,120.507903 205.639143,120.226871 L205.639143,119.716849 C205.639143,119.284892 205.288482,118.934903 204.857,118.934903 L204.584554,118.934903 C204.302982,118.934903 204.074857,118.707215 204.074857,118.426183 C204.074857,118.145151 204.302982,117.916161 204.584554,117.916161 L204.857,117.916161 C205.288482,117.916161 205.639143,117.566172 205.639143,117.135516 L205.639143,116.625495 C205.639143,116.344462 205.867268,116.115473 206.148839,116.115473 C206.431714,116.115473 206.659839,116.344462 206.659839,116.625495 L206.659839,117.135516 C206.659839,117.566172 207.0105,117.916161 207.443286,117.916161 L207.714429,117.916161 Z M362.342786,50.633043 C362.342786,50.3520108 362.570911,50.1243226 362.852482,50.1243226 C363.13275,50.1243226 363.360875,50.3520108 363.360875,50.633043 C363.360875,50.9127742 363.13275,51.1404624 362.852482,51.1404624 C362.570911,51.1404624 362.342786,50.9127742 362.342786,50.633043 Z M319.065518,98.013 C319.065518,97.7319677 319.293643,97.5042796 319.573911,97.5042796 C319.855482,97.5042796 320.083607,97.7319677 320.083607,98.013 C320.083607,98.2927312 319.855482,98.5204194 319.573911,98.5204194 C319.293643,98.5204194 319.065518,98.2927312 319.065518,98.013 Z M346.895464,19.5074194 C346.895464,19.2263871 347.123589,19 347.403857,19 C347.685429,19 347.913554,19.2263871 347.913554,19.5074194 C347.913554,19.7871505 347.685429,20.0148387 347.403857,20.0148387 C347.123589,20.0148387 346.895464,19.7871505 346.895464,19.5074194 Z M384.343161,126.377742 C384.343161,126.09671 384.571286,125.869022 384.851554,125.869022 C385.133125,125.869022 385.36125,126.09671 385.36125,126.377742 C385.36125,126.657473 385.133125,126.885161 384.851554,126.885161 C384.571286,126.885161 384.343161,126.657473 384.343161,126.377742 Z M374.250911,33.9987957 C374.250911,33.7177634 374.479036,33.4913763 374.759304,33.4913763 C375.040875,33.4913763 375.269,33.7177634 375.269,33.9987957 C375.269,34.2785269 375.040875,34.5062151 374.759304,34.5062151 C374.479036,34.5062151 374.250911,34.2785269 374.250911,33.9987957 Z M313,62.1553656 C313,61.8756344 313.228125,61.6479462 313.508393,61.6479462 C313.789964,61.6479462 314.018089,61.8756344 314.018089,62.1553656 C314.018089,62.4363978 313.789964,62.664086 313.508393,62.664086 C313.228125,62.664086 313,62.4363978 313,62.1553656 Z M350.834857,138.950032 C350.834857,138.670301 351.062982,138.442613 351.34325,138.442613 C351.624821,138.442613 351.852946,138.670301 351.852946,138.950032 C351.852946,139.231065 351.624821,139.458753 351.34325,139.458753 C351.062982,139.458753 350.834857,139.231065 350.834857,138.950032 Z M337.423714,49.1966559 C337.423714,48.9156237 337.650536,48.6879355 337.932107,48.6879355 C338.213679,48.6879355 338.4405,48.9156237 338.4405,49.1966559 C338.4405,49.4763871 338.213679,49.7040753 337.932107,49.7040753 C337.650536,49.7040753 337.423714,49.4763871 337.423714,49.1966559 Z M373.1885,84.2320108 C373.1885,83.9509785 373.416625,83.7232903 373.698196,83.7232903 C373.978464,83.7232903 374.206589,83.9509785 374.206589,84.2320108 C374.206589,84.5117419 373.978464,84.7394301 373.698196,84.7394301 C373.416625,84.7394301 373.1885,84.5117419 373.1885,84.2320108 Z M380.534125,54.4608065 L380.262982,54.4608065 C379.8315,54.4608065 379.480839,54.8094946 379.480839,55.2414516 L379.480839,55.7514731 C379.480839,56.0325054 379.252714,56.2614946 378.969839,56.2614946 C378.688268,56.2614946 378.458839,56.0325054 378.458839,55.7514731 L378.458839,55.2414516 C378.458839,54.8094946 378.109482,54.4608065 377.676696,54.4608065 L377.405554,54.4608065 C377.122679,54.4608065 376.894554,54.2331183 376.894554,53.9507849 C376.894554,53.6684516 377.122679,53.4407634 377.405554,53.4407634 L377.676696,53.4407634 C378.109482,53.4407634 378.458839,53.0920753 378.458839,52.6601183 L378.458839,52.1513978 C378.458839,51.8690645 378.688268,51.6400753 378.969839,51.6400753 C379.252714,51.6400753 379.480839,51.8690645 379.480839,52.1513978 L379.480839,52.6601183 C379.480839,53.0920753 379.8315,53.4407634 380.262982,53.4407634 L380.534125,53.4407634 C380.817,53.4407634 381.046429,53.6684516 381.046429,53.9507849 C381.046429,54.2331183 380.817,54.4608065 380.534125,54.4608065 Z M340.081696,125.931473 L339.810554,125.931473 C339.377768,125.931473 339.028411,126.281462 339.028411,126.712118 L339.028411,127.22214 C339.028411,127.503172 338.798982,127.732161 338.517411,127.732161 C338.235839,127.732161 338.006411,127.503172 338.006411,127.22214 L338.006411,126.712118 C338.006411,126.281462 337.65575,125.931473 337.224268,125.931473 L336.951821,125.931473 C336.67025,125.931473 336.442125,125.703785 336.442125,125.421452 C336.442125,125.140419 336.67025,124.91143 336.951821,124.91143 L337.224268,124.91143 C337.65575,124.91143 338.006411,124.562742 338.006411,124.130785 L338.006411,123.622065 C338.006411,123.339731 338.235839,123.110742 338.517411,123.110742 C338.798982,123.110742 339.028411,123.339731 339.028411,123.622065 L339.028411,124.130785 C339.028411,124.562742 339.377768,124.91143 339.810554,124.91143 L340.081696,124.91143 C340.364571,124.91143 340.592696,125.140419 340.592696,125.421452 C340.592696,125.703785 340.364571,125.931473 340.081696,125.931473 Z M320.206143,26.3185484 L319.935,26.3185484 C319.502214,26.3185484 319.152857,26.6685376 319.152857,27.0991935 L319.152857,27.6092151 C319.152857,27.8915484 318.923429,28.1192366 318.640554,28.1192366 C318.358982,28.1192366 318.130857,27.8915484 318.130857,27.6092151 L318.130857,27.0991935 C318.130857,26.6685376 317.780196,26.3185484 317.348714,26.3185484 L317.076268,26.3185484 C316.794696,26.3185484 316.565268,26.0908602 316.565268,25.8085269 C316.565268,25.5274946 316.794696,25.2985054 317.076268,25.2985054 L317.348714,25.2985054 C317.780196,25.2985054 318.130857,24.9498172 318.130857,24.5178602 L318.130857,24.0091398 C318.130857,23.7268065 318.358982,23.4991183 318.640554,23.4991183 C318.923429,23.4991183 319.152857,23.7268065 319.152857,24.0091398 L319.152857,24.5178602 C319.152857,24.9498172 319.502214,25.2985054 319.935,25.2985054 L320.206143,25.2985054 C320.487714,25.2985054 320.717143,25.5274946 320.717143,25.8085269 C320.717143,26.0908602 320.487714,26.3185484 320.206143,26.3185484 Z M345.714429,66.2862796 L345.443286,66.2862796 C345.0105,66.2862796 344.659839,66.6362688 344.659839,67.0669247 L344.659839,67.5769462 C344.659839,67.8579785 344.431714,68.0869677 344.148839,68.0869677 C343.867268,68.0869677 343.639143,67.8579785 343.639143,67.5769462 L343.639143,67.0669247 C343.639143,66.6362688 343.288482,66.2862796 342.857,66.2862796 L342.584554,66.2862796 C342.302982,66.2862796 342.074857,66.0572903 342.074857,65.7762581 C342.074857,65.4952258 342.302982,65.2675376 342.584554,65.2675376 L342.857,65.2675376 C343.288482,65.2675376 343.639143,64.9175484 343.639143,64.4855914 L343.639143,63.9755699 C343.639143,63.6945376 343.867268,63.4668495 344.148839,63.4668495 C344.431714,63.4668495 344.659839,63.6945376 344.659839,63.9755699 L344.659839,64.4855914 C344.659839,64.9175484 345.0105,65.2675376 345.443286,65.2675376 L345.714429,65.2675376 C345.996,65.2675376 346.225429,65.4952258 346.225429,65.7762581 C346.225429,66.0572903 345.996,66.2862796 345.714429,66.2862796 Z M275.342786,54.633043 C275.342786,54.3520108 275.570911,54.1243226 275.852482,54.1243226 C276.13275,54.1243226 276.360875,54.3520108 276.360875,54.633043 C276.360875,54.9127742 276.13275,55.1404624 275.852482,55.1404624 C275.570911,55.1404624 275.342786,54.9127742 275.342786,54.633043 Z M232.065518,102.013 C232.065518,101.731968 232.293643,101.50428 232.573911,101.50428 C232.855482,101.50428 233.083607,101.731968 233.083607,102.013 C233.083607,102.292731 232.855482,102.520419 232.573911,102.520419 C232.293643,102.520419 232.065518,102.292731 232.065518,102.013 Z M259.895464,23.5074194 C259.895464,23.2263871 260.123589,23 260.403857,23 C260.685429,23 260.913554,23.2263871 260.913554,23.5074194 C260.913554,23.7871505 260.685429,24.0148387 260.403857,24.0148387 C260.123589,24.0148387 259.895464,23.7871505 259.895464,23.5074194 Z M297.343161,130.377742 C297.343161,130.09671 297.571286,129.869022 297.851554,129.869022 C298.133125,129.869022 298.36125,130.09671 298.36125,130.377742 C298.36125,130.657473 298.133125,130.885161 297.851554,130.885161 C297.571286,130.885161 297.343161,130.657473 297.343161,130.377742 Z M287.250911,37.9987957 C287.250911,37.7177634 287.479036,37.4913763 287.759304,37.4913763 C288.040875,37.4913763 288.269,37.7177634 288.269,37.9987957 C288.269,38.2785269 288.040875,38.5062151 287.759304,38.5062151 C287.479036,38.5062151 287.250911,38.2785269 287.250911,37.9987957 Z M226,66.1553656 C226,65.8756344 226.228125,65.6479462 226.508393,65.6479462 C226.789964,65.6479462 227.018089,65.8756344 227.018089,66.1553656 C227.018089,66.4363978 226.789964,66.664086 226.508393,66.664086 C226.228125,66.664086 226,66.4363978 226,66.1553656 Z M263.834857,142.950032 C263.834857,142.670301 264.062982,142.442613 264.34325,142.442613 C264.624821,142.442613 264.852946,142.670301 264.852946,142.950032 C264.852946,143.231065 264.624821,143.458753 264.34325,143.458753 C264.062982,143.458753 263.834857,143.231065 263.834857,142.950032 Z M250.423714,53.1966559 C250.423714,52.9156237 250.650536,52.6879355 250.932107,52.6879355 C251.213679,52.6879355 251.4405,52.9156237 251.4405,53.1966559 C251.4405,53.4763871 251.213679,53.7040753 250.932107,53.7040753 C250.650536,53.7040753 250.423714,53.4763871 250.423714,53.1966559 Z M286.1885,88.2320108 C286.1885,87.9509785 286.416625,87.7232903 286.698196,87.7232903 C286.978464,87.7232903 287.206589,87.9509785 287.206589,88.2320108 C287.206589,88.5117419 286.978464,88.7394301 286.698196,88.7394301 C286.416625,88.7394301 286.1885,88.5117419 286.1885,88.2320108 Z M293.534125,58.4608065 L293.262982,58.4608065 C292.8315,58.4608065 292.480839,58.8094946 292.480839,59.2414516 L292.480839,59.7514731 C292.480839,60.0325054 292.252714,60.2614946 291.969839,60.2614946 C291.688268,60.2614946 291.458839,60.0325054 291.458839,59.7514731 L291.458839,59.2414516 C291.458839,58.8094946 291.109482,58.4608065 290.676696,58.4608065 L290.405554,58.4608065 C290.122679,58.4608065 289.894554,58.2331183 289.894554,57.9507849 C289.894554,57.6684516 290.122679,57.4407634 290.405554,57.4407634 L290.676696,57.4407634 C291.109482,57.4407634 291.458839,57.0920753 291.458839,56.6601183 L291.458839,56.1513978 C291.458839,55.8690645 291.688268,55.6400753 291.969839,55.6400753 C292.252714,55.6400753 292.480839,55.8690645 292.480839,56.1513978 L292.480839,56.6601183 C292.480839,57.0920753 292.8315,57.4407634 293.262982,57.4407634 L293.534125,57.4407634 C293.817,57.4407634 294.046429,57.6684516 294.046429,57.9507849 C294.046429,58.2331183 293.817,58.4608065 293.534125,58.4608065 Z M253.081696,129.931473 L252.810554,129.931473 C252.377768,129.931473 252.028411,130.281462 252.028411,130.712118 L252.028411,131.22214 C252.028411,131.503172 251.798982,131.732161 251.517411,131.732161 C251.235839,131.732161 251.006411,131.503172 251.006411,131.22214 L251.006411,130.712118 C251.006411,130.281462 250.65575,129.931473 250.224268,129.931473 L249.951821,129.931473 C249.67025,129.931473 249.442125,129.703785 249.442125,129.421452 C249.442125,129.140419 249.67025,128.91143 249.951821,128.91143 L250.224268,128.91143 C250.65575,128.91143 251.006411,128.562742 251.006411,128.130785 L251.006411,127.622065 C251.006411,127.339731 251.235839,127.110742 251.517411,127.110742 C251.798982,127.110742 252.028411,127.339731 252.028411,127.622065 L252.028411,128.130785 C252.028411,128.562742 252.377768,128.91143 252.810554,128.91143 L253.081696,128.91143 C253.364571,128.91143 253.592696,129.140419 253.592696,129.421452 C253.592696,129.703785 253.364571,129.931473 253.081696,129.931473 Z M233.206143,30.3185484 L232.935,30.3185484 C232.502214,30.3185484 232.152857,30.6685376 232.152857,31.0991935 L232.152857,31.6092151 C232.152857,31.8915484 231.923429,32.1192366 231.640554,32.1192366 C231.358982,32.1192366 231.130857,31.8915484 231.130857,31.6092151 L231.130857,31.0991935 C231.130857,30.6685376 230.780196,30.3185484 230.348714,30.3185484 L230.076268,30.3185484 C229.794696,30.3185484 229.565268,30.0908602 229.565268,29.8085269 C229.565268,29.5274946 229.794696,29.2985054 230.076268,29.2985054 L230.348714,29.2985054 C230.780196,29.2985054 231.130857,28.9498172 231.130857,28.5178602 L231.130857,28.0091398 C231.130857,27.7268065 231.358982,27.4991183 231.640554,27.4991183 C231.923429,27.4991183 232.152857,27.7268065 232.152857,28.0091398 L232.152857,28.5178602 C232.152857,28.9498172 232.502214,29.2985054 232.935,29.2985054 L233.206143,29.2985054 C233.487714,29.2985054 233.717143,29.5274946 233.717143,29.8085269 C233.717143,30.0908602 233.487714,30.3185484 233.206143,30.3185484 Z M258.714429,70.2862796 L258.443286,70.2862796 C258.0105,70.2862796 257.659839,70.6362688 257.659839,71.0669247 L257.659839,71.5769462 C257.659839,71.8579785 257.431714,72.0869677 257.148839,72.0869677 C256.867268,72.0869677 256.639143,71.8579785 256.639143,71.5769462 L256.639143,71.0669247 C256.639143,70.6362688 256.288482,70.2862796 255.857,70.2862796 L255.584554,70.2862796 C255.302982,70.2862796 255.074857,70.0572903 255.074857,69.7762581 C255.074857,69.4952258 255.302982,69.2675376 255.584554,69.2675376 L255.857,69.2675376 C256.288482,69.2675376 256.639143,68.9175484 256.639143,68.4855914 L256.639143,67.9755699 C256.639143,67.6945376 256.867268,67.4668495 257.148839,67.4668495 C257.431714,67.4668495 257.659839,67.6945376 257.659839,67.9755699 L257.659839,68.4855914 C257.659839,68.9175484 258.0105,69.2675376 258.443286,69.2675376 L258.714429,69.2675376 C258.996,69.2675376 259.225429,69.4952258 259.225429,69.7762581 C259.225429,70.0572903 258.996,70.2862796 258.714429,70.2862796 Z M170.342786,54.633043 C170.342786,54.3520108 170.570911,54.1243226 170.852482,54.1243226 C171.13275,54.1243226 171.360875,54.3520108 171.360875,54.633043 C171.360875,54.9127742 171.13275,55.1404624 170.852482,55.1404624 C170.570911,55.1404624 170.342786,54.9127742 170.342786,54.633043 Z M127.065518,102.013 C127.065518,101.731968 127.293643,101.50428 127.573911,101.50428 C127.855482,101.50428 128.083607,101.731968 128.083607,102.013 C128.083607,102.292731 127.855482,102.520419 127.573911,102.520419 C127.293643,102.520419 127.065518,102.292731 127.065518,102.013 Z M154.895464,23.5074194 C154.895464,23.2263871 155.123589,23 155.403857,23 C155.685429,23 155.913554,23.2263871 155.913554,23.5074194 C155.913554,23.7871505 155.685429,24.0148387 155.403857,24.0148387 C155.123589,24.0148387 154.895464,23.7871505 154.895464,23.5074194 Z M192.343161,130.377742 C192.343161,130.09671 192.571286,129.869022 192.851554,129.869022 C193.133125,129.869022 193.36125,130.09671 193.36125,130.377742 C193.36125,130.657473 193.133125,130.885161 192.851554,130.885161 C192.571286,130.885161 192.343161,130.657473 192.343161,130.377742 Z M182.250911,37.9987957 C182.250911,37.7177634 182.479036,37.4913763 182.759304,37.4913763 C183.040875,37.4913763 183.269,37.7177634 183.269,37.9987957 C183.269,38.2785269 183.040875,38.5062151 182.759304,38.5062151 C182.479036,38.5062151 182.250911,38.2785269 182.250911,37.9987957 Z M121,66.1553656 C121,65.8756344 121.228125,65.6479462 121.508393,65.6479462 C121.789964,65.6479462 122.018089,65.8756344 122.018089,66.1553656 C122.018089,66.4363978 121.789964,66.664086 121.508393,66.664086 C121.228125,66.664086 121,66.4363978 121,66.1553656 Z M145.423714,53.1966559 C145.423714,52.9156237 145.650536,52.6879355 145.932107,52.6879355 C146.213679,52.6879355 146.4405,52.9156237 146.4405,53.1966559 C146.4405,53.4763871 146.213679,53.7040753 145.932107,53.7040753 C145.650536,53.7040753 145.423714,53.4763871 145.423714,53.1966559 Z M181.1885,88.2320108 C181.1885,87.9509785 181.416625,87.7232903 181.698196,87.7232903 C181.978464,87.7232903 182.206589,87.9509785 182.206589,88.2320108 C182.206589,88.5117419 181.978464,88.7394301 181.698196,88.7394301 C181.416625,88.7394301 181.1885,88.5117419 181.1885,88.2320108 Z M188.534125,58.4608065 L188.262982,58.4608065 C187.8315,58.4608065 187.480839,58.8094946 187.480839,59.2414516 L187.480839,59.7514731 C187.480839,60.0325054 187.252714,60.2614946 186.969839,60.2614946 C186.688268,60.2614946 186.458839,60.0325054 186.458839,59.7514731 L186.458839,59.2414516 C186.458839,58.8094946 186.109482,58.4608065 185.676696,58.4608065 L185.405554,58.4608065 C185.122679,58.4608065 184.894554,58.2331183 184.894554,57.9507849 C184.894554,57.6684516 185.122679,57.4407634 185.405554,57.4407634 L185.676696,57.4407634 C186.109482,57.4407634 186.458839,57.0920753 186.458839,56.6601183 L186.458839,56.1513978 C186.458839,55.8690645 186.688268,55.6400753 186.969839,55.6400753 C187.252714,55.6400753 187.480839,55.8690645 187.480839,56.1513978 L187.480839,56.6601183 C187.480839,57.0920753 187.8315,57.4407634 188.262982,57.4407634 L188.534125,57.4407634 C188.817,57.4407634 189.046429,57.6684516 189.046429,57.9507849 C189.046429,58.2331183 188.817,58.4608065 188.534125,58.4608065 Z M128.206143,30.3185484 L127.935,30.3185484 C127.502214,30.3185484 127.152857,30.6685376 127.152857,31.0991935 L127.152857,31.6092151 C127.152857,31.8915484 126.923429,32.1192366 126.640554,32.1192366 C126.358982,32.1192366 126.130857,31.8915484 126.130857,31.6092151 L126.130857,31.0991935 C126.130857,30.6685376 125.780196,30.3185484 125.348714,30.3185484 L125.076268,30.3185484 C124.794696,30.3185484 124.565268,30.0908602 124.565268,29.8085269 C124.565268,29.5274946 124.794696,29.2985054 125.076268,29.2985054 L125.348714,29.2985054 C125.780196,29.2985054 126.130857,28.9498172 126.130857,28.5178602 L126.130857,28.0091398 C126.130857,27.7268065 126.358982,27.4991183 126.640554,27.4991183 C126.923429,27.4991183 127.152857,27.7268065 127.152857,28.0091398 L127.152857,28.5178602 C127.152857,28.9498172 127.502214,29.2985054 127.935,29.2985054 L128.206143,29.2985054 C128.487714,29.2985054 128.717143,29.5274946 128.717143,29.8085269 C128.717143,30.0908602 128.487714,30.3185484 128.206143,30.3185484 Z M153.714429,70.2862796 L153.443286,70.2862796 C153.0105,70.2862796 152.659839,70.6362688 152.659839,71.0669247 L152.659839,71.5769462 C152.659839,71.8579785 152.431714,72.0869677 152.148839,72.0869677 C151.867268,72.0869677 151.639143,71.8579785 151.639143,71.5769462 L151.639143,71.0669247 C151.639143,70.6362688 151.288482,70.2862796 150.857,70.2862796 L150.584554,70.2862796 C150.302982,70.2862796 150.074857,70.0572903 150.074857,69.7762581 C150.074857,69.4952258 150.302982,69.2675376 150.584554,69.2675376 L150.857,69.2675376 C151.288482,69.2675376 151.639143,68.9175484 151.639143,68.4855914 L151.639143,67.9755699 C151.639143,67.6945376 151.867268,67.4668495 152.148839,67.4668495 C152.431714,67.4668495 152.659839,67.6945376 152.659839,67.9755699 L152.659839,68.4855914 C152.659839,68.9175484 153.0105,69.2675376 153.443286,69.2675376 L153.714429,69.2675376 C153.996,69.2675376 154.225429,69.4952258 154.225429,69.7762581 C154.225429,70.0572903 153.996,70.2862796 153.714429,70.2862796 Z" id="Combined-Shape" fill="#FFFFFF" opacity="0.40452939"></path>
        </g>
        <g id="phone" transform="translate(207.000000, 22.000000)">
            <path d="M91.4167344,6 C93.9817344,6 96.0613344,8.08452191 96.0613344,10.6563347 L96.0613344,152.204096 C96.0613344,154.775908 93.9817344,156.859829 91.4167344,156.859829 L16.8331344,156.859829 C14.2681344,156.859829 12.1897344,154.775908 12.1897344,152.204096 L12.1897344,10.6563347 C12.1897344,8.08452191 14.2681344,6 16.8331344,6 L91.4167344,6 Z" id="Fill-141" fill="#123356" transform="translate(54.125534, 81.429914) rotate(9.000000) translate(-54.125534, -81.429914) "></path>
            <path d="M17.6912911,140.309336 L90.5590911,140.309336 C91.6636606,140.309336 92.5590911,139.413905 92.5590911,138.309336 L92.5590911,24.5509932 C92.5590911,23.4464237 91.6636606,22.5509932 90.5590911,22.5509932 L17.6912911,22.5509932 C16.5867216,22.5509932 15.6912911,23.4464237 15.6912911,24.5509932 L15.6912911,138.309336 C15.6912911,139.413905 16.5867216,140.309336 17.6912911,140.309336 Z" id="Fill-142" fill="#FFFFFE" transform="translate(54.125191, 81.430165) rotate(9.000000) translate(-54.125191, -81.430165) "></path>
            <path d="M43.7142609,151.807584 C41.1546609,151.807584 39.0792609,149.726671 39.0792609,147.160273 C39.0792609,144.593273 41.1546609,142.512962 43.7142609,142.512962 C46.2744609,142.512962 48.3492609,144.593273 48.3492609,147.160273 C48.3492609,149.726671 46.2744609,151.807584 43.7142609,151.807584" id="Fill-144" fill="#BCDCE6" transform="translate(43.714261, 147.160273) rotate(9.000000) translate(-43.714261, -147.160273) "></path>
            <polygon id="Fill-150" fill="#BCDCE6" transform="translate(75.040031, 51.725435) rotate(9.000000) translate(-75.040031, -51.725435) " points="58.0400309 72.225435 92.0400309 72.225435 92.0400309 31.225435 58.0400309 31.225435"></polygon>
            <polygon id="Fill-165" fill="#BCDCE6" transform="translate(54.793055, 80.069809) rotate(9.000000) translate(-54.793055, -80.069809) " points="22.0729546 84.5698086 87.5131546 84.5698086 87.5131546 75.5698086 22.0729546 75.5698086"></polygon>
            <polygon id="Fill-165-Copy-2" fill="#BCDCE6" transform="translate(47.490170, 120.398375) rotate(9.000000) translate(-47.490170, -120.398375) " points="14.77007 133.898375 80.21027 133.898375 80.21027 106.898375 14.77007 106.898375"></polygon>
            <polygon id="Fill-165-Copy" fill="#BCDCE6" transform="translate(51.793055, 95.509180) rotate(9.000000) translate(-51.793055, -95.509180) " points="19.0729546 100.00918 84.5131546 100.00918 84.5131546 91.0091802 19.0729546 91.0091802"></polygon>
            <path d="M61.6779802,28.8184382 L87.814271,74.6324319" id="Line" stroke="#FFFFFE" stroke-linecap="square"></path>
            <path d="M96.6779802,33.5091802 L54.1251911,70.5066597" id="Line-2" stroke="#FFFFFE" stroke-linecap="square"></path>
            <path d="M16.6779802,101.946031 L78.6779802,138.850719" id="Line-3" stroke="#FFFFFE" stroke-linecap="square"></path>
            <path d="M84.814271,111.50918 L11.6779802,128.50918" id="Line-4" stroke="#FFFFFE" stroke-linecap="square"></path>
        </g>
        <path d="M9.01658214,153.571202 C0.0774539126,148.669002 -4.87720007,142.464328 -5.70454778,135.127019 C-7.86319768,116.036562 18.0783303,95.0072823 18.3397398,94.7977394 C19.0808494,94.2032994 19.0943241,93.2305794 18.3680368,92.6251109 C17.6444444,92.0196423 16.4546267,92.0075109 15.7162122,92.600848 C14.5924206,93.4996766 -11.7614337,114.852094 -9.44378215,135.402734 C-8.50728922,143.708351 -3.00017178,150.679511 6.92800078,156.124317 C13.7947173,159.889471 20.5617209,161.373917 27.2370964,161.373917 C39.9221964,161.371711 52.2825557,156.015134 64.3707256,150.774357 C83.6931348,142.398474 115.131924,136.868039 137.552086,148.75393 C159.972248,160.639821 172.892508,179.172102 173.165694,179.32262 C173.916236,178.503197 174.664082,177.674951 175.411929,176.8445 C175.212624,176.733841 163.867751,159.057789 139.609424,146.171017 C115.351096,133.284245 82.0729726,139.623083 62.6122748,148.060225 C44.3338192,155.983151 27.0700099,163.470448 9.01658214,153.571202 Z" id="Line" fill="#E7E7E7" transform="translate(82.911929, 135.742972) scale(-1, 1) rotate(-25.000000) translate(-82.911929, -135.742972) "></path>
        <g id="Group-2" transform="translate(339.000000, 75.000000)">
            <circle id="Oval" fill="#FBE8DD" cx="43" cy="43" r="43"></circle>
            <g id="Group-4" transform="translate(1.000000, 1.000000)" fill="#F9DAC9">
                <path d="M75.877999,17.128012 C76.7948565,17.0649907 77.7117139,17.0374189 78.6285714,17.0059082 C77.005975,14.6898749 75.1601961,12.5569972 73.1274266,10.625 C62.9635788,11.5013902 52.8821679,13.1360056 42.9837263,15.5859592 C28.4024753,19.195899 14.2595466,24.5428638 1.01135814,31.5086886 C0.486577873,33.7617006 0.138735013,36.0678869 0,38.4134615 C14.5249527,31.0517841 29.7033674,25.2932113 45.7926076,21.5926784 C55.6830066,19.3180028 65.7443111,17.8153383 75.877999,17.128012" id="Fill-38"></path>
                <path d="M77.8685804,58.0152352 C79.8510672,57.2904689 81.914143,56.5697403 84.0013954,55.8207478 C84.9906241,52.849004 85.6756297,49.7581482 86,46.5865385 C83.7153048,47.65249 81.4326243,48.6982531 79.1297966,49.6006781 C69.7250724,53.2850751 60.0906698,56.3335351 50.3152367,58.8712266 C36.3713429,62.4869828 21.8572827,65.1639749 7.37142857,66.6498468 C8.65682147,68.529394 10.0913038,70.2878103 11.6406254,71.9230769 C25.1050152,71.1518771 38.373977,69.3086692 51.7537485,66.0340982 C60.6024093,63.8678747 69.314069,61.1404114 77.8685804,58.0152352" id="Fill-40"></path>
                <path d="M63.8857143,3.59749159 C60.8743607,2.04528442 57.6703616,0.830342082 54.3345524,-1.0658141e-14 C41.9362926,1.08476994 29.0067367,3.21486364 17.2634716,7.29557093 C12.9705184,10.4670438 9.35081055,14.3840494 6.55238095,18.7980769 C15.9940391,15.6640779 25.0950188,11.5439245 34.7698794,8.92075353 C44.3311805,6.32913953 54.046598,4.61323071 63.8857143,3.59749159" id="Fill-42"></path>
                <path d="M86,37.6651105 C85.858537,36.380246 85.6705932,35.0933708 85.4078762,33.8024741 C85.1047411,32.3064817 84.7268327,30.8466826 84.2802137,29.4230769 C71.5283321,31.8440109 58.7239071,35.7750125 46.5601076,38.9198138 C31.5165249,42.8106006 15.3432589,46.3816793 0.819047619,52.5204762 C1.2111023,54.1270594 1.6819721,55.6934279 2.24176151,57.2115385 C17.5844374,54.2959618 32.7997966,49.1022139 47.8777346,45.438641 C60.2658541,42.4305702 73.3713933,40.5525367 86,37.6651105" id="Fill-39"></path>
                <path d="M34.2190476,84.2047458 C39.5215754,85.2572131 45.1045445,85.2959668 50.7272925,84.1353972 C58.6114711,82.5097838 65.544934,78.7466011 71.0761905,73.5576923 C65.2605148,75.8808712 59.450806,78.2366848 53.4103795,79.9642814 C47.0795671,81.7734646 40.6791415,83.1604371 34.2190476,84.2047458" id="Fill-41"></path>
            </g>
        </g>
        <g id="moon-05" transform="translate(15.000000, 30.000000) rotate(138.000000) translate(-15.000000, -30.000000) translate(-29.000000, -14.000000)" fill-rule="nonzero">
            <circle id="Oval" fill="#D1F4FF" cx="44" cy="44" r="44"></circle>
            <path d="M57.6983895,2 C63.7130307,9.54318789 67.329429,19.1157614 67.329429,29.5690116 C67.329429,53.9216385 47.7247438,73.6411398 23.5139092,73.6411398 C18.7935578,73.6411398 14.2635432,72.8753339 10,71.4968833 C18.0322108,81.5672306 30.3660322,88 44.1844802,88 C68.3953148,88 88,68.2804987 88,43.9278718 C88,24.3232413 75.2855051,7.70525378 57.6983895,2 Z" id="Path" fill="#000000" opacity="0.1"></path>
            <circle id="Oval" fill="#A6CDDD" cx="46.5" cy="38.5" r="8.5"></circle>
            <g id="Group" opacity="0.1" transform="translate(39.000000, 30.000000)" fill="#000000">
                <path d="M10.3170732,2.30487805 C12.0731707,2.30487805 13.6829268,2.8902439 15,3.84146341 C13.5731707,1.68292683 11.1219512,0.256097561 8.30487805,0.256097561 C3.87804878,0.256097561 0.292682927,3.84146341 0.292682927,8.26829268 C0.292682927,10.9390244 1.57317073,13.2804878 3.58536585,14.7439024 C2.74390244,13.5 2.26829268,11.9634146 2.26829268,10.3536585 C2.34146341,5.8902439 5.92682927,2.30487805 10.3170732,2.30487805 Z" id="Path"></path>
            </g>
            <circle id="Oval" fill="#A6CDDD" cx="67" cy="24" r="6"></circle>
            <g id="Group" opacity="0.1" transform="translate(61.000000, 17.000000)" fill="#000000">
                <path d="M7.425,1.84642857 C8.72142857,1.84642857 9.9,2.27857143 10.8821429,2.98571429 C9.82142857,1.41428571 8.05357143,0.353571429 5.97142857,0.353571429 C2.75,0.353571429 0.117857143,2.98571429 0.117857143,6.20714286 C0.117857143,8.17142857 1.06071429,9.86071429 2.51428571,10.9607143 C1.925,10.0571429 1.53214286,8.91785714 1.53214286,7.73928571 C1.57142857,4.47857143 4.20357143,1.84642857 7.425,1.84642857 Z" id="Path"></path>
            </g>
            <circle id="Oval" fill="#A6CDDD" cx="50.5" cy="7.5" r="3.5"></circle>
            <g id="Group" opacity="0.1" transform="translate(47.000000, 4.000000)" fill="#000000">
                <path d="M4.67894737,1.05 C5.45263158,1.05 6.18947368,1.32222222 6.77894737,1.78888889 C6.15263158,0.777777778 5.04736842,0.0777777778 3.79473684,0.0777777778 C1.80526316,0.0777777778 0.221052632,1.75 0.221052632,3.85 C0.221052632,5.09444444 0.810526316,6.22222222 1.69473684,6.88333333 C1.32631579,6.3 1.10526316,5.56111111 1.10526316,4.82222222 C1.10526316,2.76111111 2.68947368,1.05 4.67894737,1.05 Z" id="Path"></path>
            </g>
            <circle id="Oval" fill="#A6CDDD" cx="17" cy="51" r="6"></circle>
            <g id="Group" opacity="0.1" transform="translate(12.000000, 44.000000)" fill="#000000">
                <path d="M7.50357143,1.84642857 C8.8,1.84642857 9.97857143,2.27857143 10.9607143,2.98571429 C9.9,1.41428571 8.13214286,0.353571429 6.08928571,0.353571429 C2.86785714,0.353571429 0.235714286,2.98571429 0.235714286,6.20714286 C0.235714286,8.17142857 1.17857143,9.86071429 2.63214286,10.9607143 C2.04285714,10.0571429 1.65,8.91785714 1.65,7.73928571 C1.65,4.47857143 4.24285714,1.84642857 7.50357143,1.84642857 Z" id="Path"></path>
            </g>
            <circle id="Oval" fill="#A6CDDD" cx="38" cy="65" r="6"></circle>
            <g id="Group" opacity="0.1" transform="translate(32.000000, 58.000000)" fill="#000000">
                <path d="M7.28275862,1.65 C8.53448276,1.65 9.67241379,2.08214286 10.6206897,2.78928571 C9.59655172,1.21785714 7.88965517,0.157142857 5.87931034,0.157142857 C2.76896552,0.157142857 0.227586207,2.78928571 0.227586207,6.01071429 C0.227586207,7.975 1.13793103,9.66428571 2.54137931,10.7642857 C1.97241379,9.86071429 1.59310345,8.72142857 1.59310345,7.54285714 C1.63103448,4.24285714 4.17241379,1.65 7.28275862,1.65 Z" id="Path"></path>
            </g>
            <circle id="Oval" fill="#A6CDDD" cx="26.5" cy="18.5" r="3.5"></circle>
            <g id="Group" opacity="0.1" transform="translate(23.000000, 15.000000)" fill="#000000">
                <path d="M4.0875,0.9375 C4.8,0.9375 5.4375,1.1625 5.9625,1.5375 C5.4,0.675 4.425,0.1125 3.3,0.1125 C1.5375,0.1125 0.1125,1.5375 0.1125,3.3 C0.1125,4.35 0.6375,5.2875 1.425,5.8875 C1.0875,5.4 0.9,4.7625 0.9,4.125 C0.9,2.4 2.325,0.9375 4.0875,0.9375 Z" id="Path"></path>
            </g>
            <circle id="Oval" fill="#A6CDDD" cx="9" cy="27" r="2"></circle>
            <g id="Group" opacity="0.1" transform="translate(6.000000, 25.000000)" fill="#000000">
                <path d="M2.84444444,0.8 C3.28888889,0.8 3.68888889,0.933333333 4,1.2 C3.64444444,0.666666667 3.02222222,0.311111111 2.35555556,0.311111111 C1.24444444,0.311111111 0.355555556,1.2 0.355555556,2.31111111 C0.355555556,2.97777778 0.666666667,3.55555556 1.15555556,3.91111111 C0.933333333,3.6 0.844444444,3.2 0.844444444,2.8 C0.844444444,1.68888889 1.73333333,0.8 2.84444444,0.8 Z" id="Path"></path>
            </g>
            <circle id="Oval" fill="#A6CDDD" cx="32" cy="77" r="2"></circle>
            <g id="Group" opacity="0.1" transform="translate(30.000000, 75.000000)" fill="#000000">
                <path d="M2.53333333,0.488888889 C2.97777778,0.488888889 3.37777778,0.622222222 3.68888889,0.888888889 C3.33333333,0.355555556 2.71111111,0 2.04444444,0 C0.933333333,0 0.0444444444,0.888888889 0.0444444444,2 C0.0444444444,2.66666667 0.355555556,3.24444444 0.844444444,3.6 C0.622222222,3.28888889 0.533333333,2.88888889 0.533333333,2.48888889 C0.533333333,1.37777778 1.42222222,0.488888889 2.53333333,0.488888889 Z" id="Path"></path>
            </g>
        </g>
    </g>
</svg>