<?xml version="1.0" encoding="UTF-8"?>
<svg width="140px" height="175px" viewBox="0 0 140 175" version="1.1" xmlns="http://www.w3.org/2000/svg" xmlns:xlink="http://www.w3.org/1999/xlink">
    <!-- Generator: Sketch 54.1 (76490) - https://sketchapp.com -->
    <title>developer</title>
    <desc>Created with Sketch.</desc>
    <defs>
        <linearGradient x1="0%" y1="50%" x2="100%" y2="50%" id="linearGradient-1">
            <stop stop-color="#ED2954" offset="0%"></stop>
            <stop stop-color="#F58B1F" offset="100%"></stop>
        </linearGradient>
    </defs>
    <g id="developer" stroke="none" stroke-width="1" fill="none" fill-rule="evenodd">
        <g id="Group-3" transform="translate(0.000000, 2.000000)">
            <rect id="Rectangle-Copy" x="0" y="0" width="140" height="172"></rect>
            <g id="Combined-Shape-2" transform="translate(3.200000, 24.800000)" fill="url(#linearGradient-1)">
                <path d="M72.7107055,77.9660133 L75.9284594,91.1899877 L46.3595149,98.3700197 L47.2959246,102.220004 C54.125779,101.38506 60.6756605,105.774948 62.3431921,112.615012 C63.2145183,116.18506 62.6386764,119.880036 60.7257839,123.015012 C58.8128913,126.150116 55.7934388,128.355056 52.2180142,129.22506 C51.1263246,129.490063 50.0346862,129.615063 48.9630716,129.615063 C42.7591824,129.615063 37.1106244,125.390039 35.5733366,119.110103 C33.9108046,112.270679 37.7064644,105.365719 44.1612268,102.975703 L43.224817,99.1257189 L13.6558724,106.305751 L0.911716302,53.9755109 C-3.26480418,36.8363109 7.30597172,19.4960229 24.4773934,15.3310309 C32.7650561,13.3210469 41.362817,14.6653029 48.6942898,19.1209829 C56.0257626,23.5766629 61.1734715,30.5861989 63.1864826,38.8611429 L71.5340112,73.1408229 L83.3167216,70.2208869 C81.4438252,68.8558949 80.0217187,66.8608869 79.4208151,64.4459109 C78.0637664,58.9758309 81.4136999,53.4208869 86.892018,52.0608869 C92.3703361,50.7008869 97.9336459,54.0459109 99.2956941,59.5158629 C100.237142,63.3059429 98.9100903,67.1408229 96.1859939,69.5858789 C99.7412922,70.4758629 102.705776,73.2409189 103.652197,77.0358629 C105.014245,82.5059429 101.664184,88.0608869 96.1859939,89.4208869 C95.364791,89.625884 94.5284998,89.7258853 93.702259,89.7258853 C91.8644874,89.7258853 90.0567129,89.2259301 88.4393047,88.2559333 C86.0958127,86.8458853 84.4433053,84.6108773 83.7823177,81.9608933 C83.1964896,79.6109413 83.4618358,77.1909733 84.5084144,75.0409573 L72.7107055,77.9660133 Z M98.8248549,78.2310117 L98.8247524,78.2310885 C98.2287842,75.8460645 96.0755302,74.2460735 93.7220391,74.2410725 C93.3064125,74.2410725 92.880774,74.291068 92.4551356,74.3960677 C91.0930874,74.7360357 89.9414164,75.5860837 89.2153197,76.7860837 C88.4942405,77.9860837 88.2789228,79.4011237 88.6194284,80.7611237 C88.9549089,82.1261157 89.8062371,83.271068 91.0080443,83.9960677 C92.2098515,84.7210674 93.6270226,84.9310693 94.9890708,84.5960677 C97.8033124,83.8960357 99.5259155,81.0409957 98.8248549,78.2310117 Z M88.0937098,56.8754917 L88.0936842,56.8755045 C85.2744303,57.5755365 83.5568523,60.4305765 84.2579001,63.2405605 C84.9539869,66.0455781 87.8133266,67.7705829 90.632542,67.0705765 C93.4467836,66.3705445 95.1693868,63.5155045 94.4683261,60.7055205 C93.8723579,58.3204965 91.7242317,56.7204965 89.3606134,56.7204965 C88.9449868,56.7204965 88.5193483,56.770492 88.0937098,56.8754917 Z M46.8861436,107.325412 L46.8861436,107.325399 C42.1690342,108.470487 39.2696598,113.230423 40.4163826,117.935447 C41.5631951,122.645463 46.3352992,125.540477 51.0424096,124.395479 C55.7545195,123.250391 58.6588934,118.490455 57.5121706,113.785431 C56.535598,109.770455 52.9303045,107.075415 48.9642766,107.075415 C48.2781889,107.075415 47.5821919,107.155415 46.8861436,107.325412 Z M17.317199,100.30538 L69.921359,87.5245029 L58.3540125,40.0249829 C56.6514843,33.0405349 52.304852,27.1205349 46.1105773,23.3555429 C41.7886862,20.7305189 36.9463325,19.3805029 32.0439845,19.3805029 C29.9107286,19.3805029 27.7724732,19.6355045 25.6543441,20.1504997 C11.1529214,23.6756197 2.22455129,38.3213797 5.74985249,52.8007397 L17.317199,100.30538 Z M43.5917176,27.4917733 L43.5915894,27.4922853 C48.6591778,30.5718373 52.2244751,35.4368613 53.6266477,41.1818853 L60.2365233,68.3217253 L17.0919643,78.7967333 L10.4820886,51.6568933 C7.58749587,39.7772133 14.9133282,27.7667173 26.8061561,24.8767333 C32.5600886,23.4767973 38.5191296,24.4118373 43.5917176,27.4917733 Z M18.9146091,75.7912933 L57.2277108,66.4915685 L51.2036761,41.7670885 C49.9618727,36.6670565 46.7970496,32.3470565 42.2953041,29.6120805 C39.160478,27.7070821 35.6403045,26.7270885 32.0698795,26.7270885 C30.5125937,26.7270885 28.9451807,26.9170917 27.3928944,27.2920933 C16.8314766,29.8572133 10.326719,40.5217893 12.8955739,51.0668133 L18.9146091,75.7912933 Z M39.9356597,38.1221733 L39.935147,38.1217893 C46.349785,42.0219493 48.3929214,50.4021093 44.4870159,56.8021093 C41.9282882,61.0071653 37.4314139,63.3271653 32.8345494,63.3271653 C30.4209359,63.3271653 27.9823248,62.6871653 25.7789474,61.3471333 C22.6692472,59.4620773 20.4859705,56.4771173 19.6246689,52.9471333 C18.7633417,49.4221413 19.3291845,45.7672293 21.222079,42.6671973 C25.1281127,36.2622053 33.5210217,34.2221413 39.9356597,38.1221733 Z M41.7033098,55.1116133 L41.7035406,55.1118693 C43.1406969,52.7518053 43.5713477,49.9768933 42.9253715,47.2968293 C42.334531,44.8818533 40.9223595,42.8068453 38.924347,41.3668453 L28.1982014,58.9566053 C32.9601783,61.3615973 38.8790949,59.7466213 41.7033098,55.1116133 Z M53.8022718,115.861693 C53.8022718,122.301629 44.1276915,122.301629 44.1276915,115.861693 C44.1276915,109.421757 53.8022718,109.421757 53.8022718,115.861693 Z M69.2353995,103.861701 C67.8783252,103.861701 66.7766621,102.761669 66.7766621,101.411653 C66.7766621,100.056619 67.8783508,98.956613 69.2353995,98.956613 L98.8094718,98.9516133 C100.166546,98.9516133 101.268209,100.051645 101.268209,101.406653 C101.268209,102.761687 100.16652,103.861693 98.8094718,103.861693 L69.2353995,103.861693 Z M105.11912,111.631293 C105.11912,112.986327 104.017431,114.086333 102.660383,114.086333 L75.8296356,114.086333 C74.4725613,114.086333 73.3708983,112.986301 73.3708983,111.631293 C73.3708983,110.27626 74.472587,109.176253 75.8296356,109.176253 L102.660383,109.176253 C104.017457,109.176253 105.11912,110.276285 105.11912,111.631293 Z M72.4748308,124.307133 C71.1177437,124.307133 70.0160935,123.207127 70.0160935,121.852093 C70.0160935,120.49706 71.1177821,119.397053 72.4748308,119.397053 L92.8203055,119.397053 C94.1773798,119.397053 95.2790429,120.497047 95.2790429,121.852093 C95.2790429,123.20714 94.1773542,124.307133 92.8203055,124.307133 L72.4748308,124.307133 Z M132.38262,22.1366496 L119.18342,35.3100194 C118.271236,36.2204183 116.794684,36.2204183 115.8825,35.3100194 C114.9725,34.3996205 114.9725,32.9259581 115.8825,32.0177389 L127.432332,20.4905093 L115.8825,8.9632797 C114.9725,8.05506052 114.9725,6.57921833 115.8825,5.67099915 C116.794684,4.76060025 118.271236,4.76060025 119.18342,5.67099915 L132.38262,18.844369 C133.29262,19.7525882 133.29262,21.2262507 132.38262,22.1366496 Z M76.032788,20.4905093 L87.58262,32.0177389 C88.49262,32.9259581 88.49262,34.3996205 87.58262,35.3100194 C86.670436,36.2204183 85.193884,36.2204183 84.2817,35.3100194 L71.0825,22.1366496 C70.1725,21.2262507 70.1725,19.7525882 71.0825,18.844369 L84.2817,5.67099915 C85.193884,4.76060025 86.670436,4.76060025 87.58262,5.67099915 C88.49262,6.57921833 88.49262,8.05506052 87.58262,8.9632797 L76.032788,20.4905093 Z M93.148012,37.7185608 L102.810308,1.72575093 C103.142836,0.483508305 104.422492,-0.252238654 105.667204,0.0796106607 C106.911882,0.413667647 107.651256,1.69081943 107.318756,2.93309559 L97.654276,38.9237257 C97.321748,40.1659684 96.042092,40.9017153 94.79738,40.569866 C93.5527016,40.235809 92.8133224,38.960837 93.148012,37.7185608 Z" id="Combined-Shape"></path>
            </g>
        </g>
    </g>
</svg>