<svg width="1652" height="647" viewBox="0 0 1652 647" fill="none" xmlns="http://www.w3.org/2000/svg">
<rect width="1652" height="647" fill="#F1EDE2"/>
<path d="M1413 125H1462.5C1479.07 125 1492.5 138.431 1492.5 155V204.5H1443C1426.43 204.5 1413 191.069 1413 174.5V125Z" fill="#E3DDCF"/>
<path d="M1413 284H1462.5C1479.07 284 1492.5 270.569 1492.5 254V204.5H1443C1426.43 204.5 1413 217.931 1413 234.5V284Z" fill="#E8E4D8"/>
<path d="M1572 125H1522.5C1505.93 125 1492.5 138.431 1492.5 155V204.5H1542C1558.57 204.5 1572 191.069 1572 174.5V125Z" fill="#E8E4D8"/>
<path d="M1572 284H1532.5C1510.41 284 1492.5 266.091 1492.5 244V204.5H1532C1554.09 204.5 1572 222.409 1572 244.5V284Z" fill="#E3DECF"/>
<rect x="1087" y="246" width="40" height="154" fill="#EEA31F"/>
<circle cx="370" cy="323" r="56" fill="#EEA31F" stroke="#00676E" stroke-width="40"/>
<rect x="234" y="323" width="40" height="112" fill="#EEA31F"/>
<circle cx="198" cy="323" r="56" fill="#F698A3" stroke="#C9242B" stroke-width="40"/>
<path fill-rule="evenodd" clip-rule="evenodd" d="M162 435C162 454.882 178.118 471 198 471C217.882 471 234 454.882 234 435H162Z" fill="#0C4DA2"/>
<rect x="1261" y="323" width="40" height="112" fill="#EEA31F"/>
<circle cx="1225" cy="323" r="56" fill="#F698A3" stroke="#C9242B" stroke-width="40"/>
<path fill-rule="evenodd" clip-rule="evenodd" d="M1189 435C1189 454.882 1205.12 471 1225 471C1244.88 471 1261 454.882 1261 435H1189Z" fill="#0C4DA2"/>
<rect x="466" y="246" width="40" height="114" fill="#C9242B"/>
<rect x="546" y="247" width="40" height="113" fill="#C9242B"/>
<path fill-rule="evenodd" clip-rule="evenodd" d="M506 399.5L466 360H506H506H546H546H586L546 399.5V400H506V399.5Z" fill="#0C4DA2"/>
<circle cx="627" cy="380" r="20" fill="#F698A3"/>
<circle cx="725" cy="323" r="46" fill="#DCD990"/>
<rect x="676" y="246" width="40" height="154" fill="#EEA31F"/>
<path fill-rule="evenodd" clip-rule="evenodd" d="M716 399C757.974 399 792 364.974 792 323C792 281.026 757.974 247 716 247V287C735.882 287 752 303.118 752 323C752 342.882 735.882 359 716 359V399Z" fill="#0C4DA2"/>
<rect x="811" y="246" width="40" height="154" fill="#84C299"/>
<rect x="917" y="246" width="40" height="106" transform="rotate(90 917 246)" fill="#0C4DA2"/>
<rect x="917" y="360" width="40" height="106" transform="rotate(90 917 360)" fill="#00676E"/>
<path d="M851 323L891.5 299.617L891.5 346.383L851 323Z" fill="#C9242B"/>
<rect x="1328" y="321" width="40" height="79" fill="#45AB87"/>
<rect x="1440" y="321" width="40" height="79" fill="#45AB87"/>
<path fill-rule="evenodd" clip-rule="evenodd" d="M1479.99 321H1439.98C1439.45 301.58 1423.54 286 1403.99 286C1384.45 286 1368.54 301.58 1368.01 321H1328C1328.54 279.487 1362.35 246 1403.99 246C1445.63 246 1479.45 279.487 1479.99 321Z" fill="#00676E"/>
<rect x="937" y="307.935" width="33.7826" height="124.7" transform="rotate(-60.8529 937 307.935)" fill="#F36E31"/>
<path fill-rule="evenodd" clip-rule="evenodd" d="M1059 308C1059 274.311 1031.69 247 998 247C964.311 247 937 274.311 937 308H977C977 296.402 986.402 287 998 287C1009.6 287 1019 296.402 1019 308H1059Z" fill="#C9242B"/>
<path fill-rule="evenodd" clip-rule="evenodd" d="M940 339C940 372.689 967.311 400 1001 400C1034.69 400 1062 372.689 1062 339L1022 339C1022 350.598 1012.6 360 1001 360C989.402 360 980 350.598 980 339L940 339Z" fill="#A5546A"/>
<path d="M153.483 198.121H158.234V157.789H146.408V165.855H139.401V152.184H185.612V165.855H178.605V157.789H164.934V198.121H170.266V204H153.483V198.121ZM190.91 150.816H202.121V172.486H202.326C202.964 171.848 203.693 171.256 204.514 170.709C205.357 170.139 206.234 169.649 207.146 169.239C208.057 168.829 209.003 168.51 209.982 168.282C210.962 168.054 211.988 167.94 213.059 167.94C214.95 167.94 216.659 168.202 218.186 168.727C219.712 169.251 221.011 170.048 222.082 171.119C223.153 172.19 223.973 173.569 224.543 175.255C225.135 176.918 225.432 178.889 225.432 181.168V198.121H230.764V204H213.947V198.121H218.801V181.954C218.801 179.243 218.106 177.192 216.716 175.802C215.349 174.389 213.378 173.683 210.803 173.683C209.344 173.683 207.863 174.036 206.359 174.742C204.855 175.426 203.443 176.292 202.121 177.34V198.121H207.248V204H190.432V198.121H195.764V156.695H190.91V150.816ZM257.526 200.719C256.182 201.972 254.689 202.997 253.049 203.795C251.431 204.592 249.585 204.991 247.512 204.991C245.78 204.991 244.185 204.718 242.727 204.171C241.291 203.624 240.049 202.883 239.001 201.949C237.953 200.992 237.132 199.887 236.54 198.634C235.97 197.381 235.686 196.048 235.686 194.635C235.686 193.131 235.902 191.798 236.335 190.636C236.791 189.474 237.383 188.471 238.112 187.628C238.864 186.762 239.73 186.044 240.71 185.475C241.713 184.882 242.749 184.415 243.82 184.073C244.914 183.709 246.019 183.458 247.136 183.321C248.275 183.162 249.357 183.082 250.383 183.082C252.023 183.082 253.402 183.139 254.519 183.253C255.635 183.344 256.649 183.481 257.561 183.663L257.595 180.758C257.595 179.505 257.412 178.422 257.048 177.511C256.683 176.576 256.171 175.813 255.51 175.221C254.849 174.605 254.051 174.15 253.117 173.854C252.206 173.557 251.18 173.409 250.041 173.409C248.97 173.409 247.945 173.489 246.965 173.648C245.985 173.785 245.062 173.979 244.196 174.229C243.353 174.457 242.567 174.731 241.838 175.05C241.132 175.346 240.528 175.665 240.026 176.007L237.941 171.598C238.785 171.051 239.707 170.549 240.71 170.094C241.713 169.615 242.761 169.216 243.854 168.897C244.971 168.556 246.099 168.294 247.238 168.111C248.4 167.906 249.54 167.804 250.656 167.804C252.707 167.804 254.553 168.054 256.193 168.556C257.834 169.034 259.224 169.786 260.363 170.812C261.503 171.837 262.38 173.147 262.995 174.742C263.61 176.314 263.918 178.206 263.918 180.416L263.884 198.121H267.814V204H257.526V200.719ZM248.913 199.659C249.756 199.659 250.599 199.557 251.442 199.352C252.285 199.146 253.083 198.873 253.835 198.531C254.587 198.167 255.282 197.757 255.92 197.301C256.558 196.822 257.093 196.332 257.526 195.831L257.561 187.833H250.178C248.947 187.833 247.819 187.97 246.794 188.243C245.791 188.517 244.914 188.915 244.162 189.439C243.433 189.964 242.863 190.613 242.453 191.388C242.043 192.162 241.838 193.051 241.838 194.054C241.838 194.988 242.009 195.808 242.351 196.515C242.692 197.198 243.171 197.779 243.786 198.258C244.424 198.714 245.176 199.067 246.042 199.317C246.908 199.545 247.865 199.659 248.913 199.659ZM274.719 168.59H286.271V198.121H291.604V204H274.787V198.121H279.846V174.469H274.719V168.59ZM278.649 156.046C278.649 155.453 278.763 154.895 278.991 154.371C279.242 153.824 279.561 153.357 279.948 152.97C280.358 152.56 280.837 152.241 281.384 152.013C281.931 151.762 282.512 151.637 283.127 151.637C283.719 151.637 284.278 151.762 284.802 152.013C285.349 152.241 285.816 152.56 286.203 152.97C286.613 153.357 286.932 153.824 287.16 154.371C287.411 154.895 287.536 155.453 287.536 156.046C287.536 156.661 287.411 157.242 287.16 157.789C286.932 158.336 286.613 158.826 286.203 159.259C285.816 159.669 285.349 159.999 284.802 160.25C284.278 160.478 283.719 160.592 283.127 160.592C282.512 160.592 281.931 160.478 281.384 160.25C280.837 159.999 280.358 159.669 279.948 159.259C279.561 158.826 279.242 158.336 278.991 157.789C278.763 157.242 278.649 156.661 278.649 156.046ZM297.209 150.816H308.693V198.121H314.025V204H297.209V198.121H302.336V156.695H297.209V150.816ZM341.062 200.719C339.717 201.972 338.225 202.997 336.584 203.795C334.966 204.592 333.12 204.991 331.047 204.991C329.315 204.991 327.72 204.718 326.262 204.171C324.826 203.624 323.584 202.883 322.536 201.949C321.488 200.992 320.668 199.887 320.075 198.634C319.506 197.381 319.221 196.048 319.221 194.635C319.221 193.131 319.437 191.798 319.87 190.636C320.326 189.474 320.918 188.471 321.647 187.628C322.399 186.762 323.265 186.044 324.245 185.475C325.248 184.882 326.285 184.415 327.355 184.073C328.449 183.709 329.554 183.458 330.671 183.321C331.81 183.162 332.893 183.082 333.918 183.082C335.559 183.082 336.937 183.139 338.054 183.253C339.17 183.344 340.184 183.481 341.096 183.663L341.13 180.758C341.13 179.505 340.948 178.422 340.583 177.511C340.218 176.576 339.706 175.813 339.045 175.221C338.384 174.605 337.587 174.15 336.652 173.854C335.741 173.557 334.715 173.409 333.576 173.409C332.505 173.409 331.48 173.489 330.5 173.648C329.52 173.785 328.597 173.979 327.731 174.229C326.888 174.457 326.102 174.731 325.373 175.05C324.667 175.346 324.063 175.665 323.562 176.007L321.477 171.598C322.32 171.051 323.243 170.549 324.245 170.094C325.248 169.615 326.296 169.216 327.39 168.897C328.506 168.556 329.634 168.294 330.773 168.111C331.936 167.906 333.075 167.804 334.191 167.804C336.242 167.804 338.088 168.054 339.729 168.556C341.369 169.034 342.759 169.786 343.898 170.812C345.038 171.837 345.915 173.147 346.53 174.742C347.146 176.314 347.453 178.206 347.453 180.416L347.419 198.121H351.35V204H341.062V200.719ZM332.448 199.659C333.291 199.659 334.134 199.557 334.978 199.352C335.821 199.146 336.618 198.873 337.37 198.531C338.122 198.167 338.817 197.757 339.455 197.301C340.093 196.822 340.629 196.332 341.062 195.831L341.096 187.833H333.713C332.482 187.833 331.354 187.97 330.329 188.243C329.326 188.517 328.449 188.915 327.697 189.439C326.968 189.964 326.398 190.613 325.988 191.388C325.578 192.162 325.373 193.051 325.373 194.054C325.373 194.988 325.544 195.808 325.886 196.515C326.228 197.198 326.706 197.779 327.321 198.258C327.959 198.714 328.711 199.067 329.577 199.317C330.443 199.545 331.4 199.659 332.448 199.659ZM381.838 198.121H386.828V181.954C386.828 179.243 386.133 177.192 384.743 175.802C383.376 174.389 381.405 173.683 378.83 173.683C377.349 173.683 375.856 174.036 374.353 174.742C372.849 175.449 371.424 176.326 370.08 177.374V198.121H375.07V204H358.527V198.121H363.449V174.469H358.527V168.59H369.807V172.76H369.875C370.627 172.099 371.424 171.472 372.268 170.88C373.133 170.287 374.034 169.775 374.968 169.342C375.902 168.909 376.87 168.567 377.873 168.316C378.898 168.066 379.969 167.94 381.086 167.94C382.977 167.94 384.686 168.202 386.213 168.727C387.74 169.251 389.038 170.048 390.109 171.119C391.18 172.19 392.001 173.569 392.57 175.255C393.163 176.918 393.459 178.889 393.459 181.168V198.121H398.381V204H381.838V198.121ZM426.101 150.816H437.277V198.121H442.473V204H430.92V201.095C429.781 202.257 428.459 203.168 426.955 203.829C425.451 204.467 423.742 204.786 421.828 204.786C419.436 204.786 417.202 204.376 415.129 203.556C413.078 202.713 411.289 201.493 409.763 199.898C408.259 198.281 407.074 196.31 406.208 193.985C405.365 191.638 404.943 188.961 404.943 185.953C404.943 183.219 405.354 180.735 406.174 178.502C406.994 176.246 408.156 174.332 409.66 172.76C411.164 171.165 412.976 169.934 415.095 169.068C417.214 168.18 419.572 167.735 422.17 167.735C423.879 167.735 425.44 167.929 426.853 168.316C428.265 168.681 429.621 169.33 430.92 170.265V156.695H426.101V150.816ZM422.648 199.249C424.54 199.249 426.123 198.976 427.399 198.429C428.675 197.859 429.849 197.016 430.92 195.899V176.075C429.781 175.118 428.47 174.423 426.989 173.99C425.508 173.557 423.993 173.341 422.443 173.341C420.939 173.341 419.527 173.626 418.205 174.195C416.883 174.742 415.721 175.551 414.719 176.622C413.739 177.693 412.964 179.003 412.395 180.553C411.825 182.102 411.54 183.88 411.54 185.885C411.54 188.072 411.813 189.998 412.36 191.661C412.907 193.325 413.671 194.726 414.65 195.865C415.63 196.982 416.804 197.825 418.171 198.395C419.538 198.964 421.031 199.249 422.648 199.249Z" fill="#584E42"/>
</svg>
