<svg width="24" height="24" viewBox="0 0 24 24" fill="none" xmlns="http://www.w3.org/2000/svg">
<path d="M3.71956 15.7195C2.21747 15.7195 1 16.937 1 18.439H5.41695C5.41695 17.4305 5.72978 16.4942 6.26061 15.7195H3.71956Z" fill="#123456"/>
<path d="M17.8404 17.338C17.82 17.268 17.7963 17.2002 17.7715 17.1313V17.1325C17.7963 17.2002 17.82 17.268 17.8404 17.338Z" fill="#123456"/>
<path d="M17.926 17.6905C17.9136 17.6272 17.8978 17.5662 17.882 17.5052V17.5064C17.8989 17.5674 17.9147 17.6272 17.926 17.6905V17.6905Z" fill="#123456"/>
<path d="M17.235 16.1205C17.192 16.0629 17.1525 16.0041 17.1062 15.9488C17.1514 16.0041 17.1921 16.0629 17.235 16.1205C17.2338 16.1205 17.2338 16.1205 17.235 16.1205Z" fill="#123456"/>
<path d="M17.9803 18.0573C17.9758 18.0065 17.9668 17.958 17.96 17.9083V17.9105C17.9668 17.9602 17.9758 18.0077 17.9803 18.0573Z" fill="#123456"/>
<path d="M17.7251 17.0038C17.6957 16.9281 17.6629 16.8547 17.6279 16.7824V16.7835C17.6629 16.8547 17.6946 16.9281 17.7251 17.0038V17.0038Z" fill="#123456"/>
<path d="M17.5828 16.6886C17.5432 16.6096 17.5003 16.5316 17.4552 16.4548C17.5015 16.5316 17.5432 16.6096 17.5828 16.6886Z" fill="#123456"/>
<path d="M17.4179 16.3926C17.3671 16.3101 17.314 16.2299 17.2576 16.1509C17.3152 16.2299 17.3671 16.3101 17.4179 16.3926Z" fill="#123456"/>
<path d="M23.3201 18.439C23.3201 16.9369 22.1027 15.7194 20.6006 15.7194H18.0583C18.5902 16.4942 18.902 17.4305 18.902 18.439H23.3201Z" fill="#123456"/>
<path d="M19.2654 14.65C19.4393 14.65 19.6088 14.632 19.7714 14.5992C19.9351 14.5653 20.0933 14.5168 20.2435 14.4524C20.3937 14.3891 20.5371 14.3112 20.6704 14.2209C21.339 13.7691 21.7783 13.0045 21.7783 12.1372C21.7783 11.2698 21.339 10.5052 20.6704 10.0534C20.5371 9.96308 20.3937 9.88516 20.2435 9.82191C20.0932 9.75866 19.9351 9.70897 19.7714 9.67509C19.6076 9.64121 19.4382 9.62427 19.2654 9.62427C17.8774 9.62427 16.7525 10.7491 16.7525 12.1372C16.7525 13.5252 17.8774 14.6501 19.2654 14.6501V14.65Z" fill="#123456"/>
<path d="M7.56841 12.1381C7.56841 13.525 6.44355 14.6498 5.05552 14.6498C3.66862 14.6498 2.54375 13.525 2.54375 12.1381C2.54375 10.7501 3.66862 9.62518 5.05552 9.62518C6.44355 9.62518 7.56841 10.7501 7.56841 12.1381Z" fill="#123456"/>
<path d="M15.7781 9.61752C15.7781 11.6166 14.1585 13.2362 12.1606 13.2362C10.1626 13.2362 8.54304 11.6166 8.54304 9.61752C8.54304 7.61962 10.1626 6 12.1606 6C14.1585 6 15.7781 7.61956 15.7781 9.61752Z" fill="#123456"/>
<path d="M15.4788 15.4587L16.2626 15.1865C16.057 15.0487 15.8391 14.929 15.6087 14.8319C15.14 14.6342 14.625 14.5247 14.084 14.5247H10.2372C9.4308 14.5247 8.68202 14.7686 8.05859 15.1865L8.84237 15.4587L7.96598 16.4661C7.48826 17.015 7.2251 17.7163 7.2251 18.4391H17.0972C17.0972 17.7163 16.8341 17.015 16.3564 16.4661L15.4788 15.4587Z" fill="#123456"/>
<path d="M7.28393 15.873C7.21503 15.952 7.14953 16.0356 7.08741 16.1203C7.14953 16.0345 7.21503 15.952 7.28393 15.873Z" fill="#123456"/>
<path d="M7.06239 16.152C7.00592 16.23 6.95284 16.3102 6.90202 16.3926C6.95397 16.3102 7.00592 16.23 7.06239 16.152Z" fill="#123456"/>
<path d="M6.54862 17.1324C6.5249 17.2002 6.50118 17.268 6.48085 17.338C6.50118 17.268 6.5249 17.2002 6.54862 17.1324Z" fill="#123456"/>
<path d="M6.4379 17.5063C6.42322 17.5673 6.40627 17.6283 6.39498 17.6904C6.40628 17.6283 6.42209 17.5673 6.4379 17.5063Z" fill="#123456"/>
<path d="M6.36101 17.9105C6.35424 17.959 6.3452 18.0076 6.34068 18.0573C6.3452 18.0076 6.35424 17.9602 6.36101 17.9105Z" fill="#123456"/>
<path d="M6.69322 16.7823C6.65934 16.8546 6.62658 16.928 6.59722 17.0036C6.62658 16.928 6.65821 16.8546 6.69322 16.7823Z" fill="#123456"/>
<path d="M6.86497 16.4559C6.8198 16.5315 6.77801 16.6095 6.73848 16.6885C6.77801 16.6095 6.8198 16.5315 6.86497 16.4559Z" fill="#123456"/>
<path d="M8.84227 15.4587L8.05848 15.1865C7.77049 15.3796 7.51074 15.6123 7.28372 15.8743C7.21482 15.9534 7.14932 16.037 7.0872 16.1217C7.0793 16.133 7.07139 16.1431 7.06348 16.1544C7.00702 16.2323 6.95393 16.3125 6.90311 16.395C6.89069 16.4164 6.87713 16.4368 6.86471 16.4582C6.81954 16.5339 6.77775 16.6118 6.73822 16.6909C6.72241 16.7225 6.70773 16.753 6.69304 16.7846C6.65916 16.8569 6.62641 16.9303 6.59705 17.006C6.58011 17.0489 6.56543 17.0918 6.54961 17.1347C6.5259 17.2025 6.50218 17.2702 6.48185 17.3403C6.46604 17.3956 6.45248 17.4521 6.43893 17.5085C6.42425 17.5695 6.40844 17.6305 6.39601 17.6926C6.38246 17.7649 6.3723 17.8395 6.36213 17.914C6.35535 17.9626 6.34632 18.0111 6.3418 18.0608C6.32938 18.1862 6.3226 18.3138 6.3226 18.4425H7.22611C7.22611 17.7197 7.48926 17.0184 7.967 16.4695L8.84227 15.4587Z" fill="#123456"/>
<path d="M17.7251 17.0038C17.6957 16.9292 17.6629 16.8558 17.6291 16.7824C17.6629 16.8547 17.6946 16.9281 17.7251 17.0038Z" fill="#123456"/>
<path d="M17.8404 17.338C17.8201 17.268 17.7963 17.2002 17.7726 17.1324C17.7963 17.2002 17.8201 17.268 17.8404 17.338Z" fill="#123456"/>
<path d="M17.926 17.6904C17.9136 17.6283 17.8977 17.5673 17.8831 17.5063C17.8989 17.5673 17.9147 17.6283 17.926 17.6904Z" fill="#123456"/>
<path d="M17.5828 16.6886C17.5433 16.6096 17.5003 16.5317 17.4563 16.456C17.5015 16.5317 17.5433 16.6096 17.5828 16.6886Z" fill="#123456"/>
<path d="M17.4179 16.3926C17.3671 16.3102 17.314 16.23 17.2576 16.152C17.3152 16.23 17.3671 16.3102 17.4179 16.3926Z" fill="#123456"/>
<path d="M17.2338 16.1193C17.1909 16.0617 17.1513 16.003 17.105 15.9477C17.0836 15.9217 17.0587 15.898 17.0361 15.872C17.1062 15.9522 17.1717 16.0346 17.2338 16.1193Z" fill="#123456"/>
<path d="M17.9803 18.0573C17.9758 18.0077 17.9668 17.9602 17.96 17.9105C17.9668 17.9602 17.9758 18.0077 17.9803 18.0573Z" fill="#123456"/>
<path d="M17.9601 17.9105C17.9499 17.8359 17.9409 17.7625 17.9262 17.6891C17.9138 17.627 17.898 17.566 17.8833 17.505C17.8697 17.4486 17.8562 17.3921 17.8404 17.3368C17.82 17.2667 17.7963 17.199 17.7726 17.1312C17.7568 17.0883 17.7421 17.0442 17.7252 17.0025C17.6958 16.9279 17.6631 16.8545 17.6292 16.7811C17.6145 16.7495 17.5998 16.7178 17.584 16.6874C17.5445 16.6083 17.5027 16.5304 17.4575 16.4547C17.4451 16.4332 17.4327 16.4129 17.4191 16.3915C17.3683 16.309 17.3152 16.2288 17.2587 16.1509C17.2508 16.1396 17.2429 16.1294 17.235 16.1181C17.1729 16.0334 17.1074 15.951 17.0385 15.8708C16.9786 15.8019 16.9188 15.733 16.8544 15.6686C16.6771 15.4913 16.4828 15.3309 16.275 15.1909C16.2716 15.1887 16.2671 15.1864 16.2637 15.1841L15.4799 15.4563L16.3563 16.4638C16.8341 17.0126 17.0972 17.714 17.0972 18.4368H18.0007C18.0007 18.308 17.994 18.1804 17.9815 18.0551C17.9759 18.0076 17.9669 17.9602 17.9601 17.9105L17.9601 17.9105Z" fill="#123456"/>
</svg>
