<svg width="60" height="60" viewBox="0 0 60 60" fill="none" xmlns="http://www.w3.org/2000/svg">
<path fill-rule="evenodd" clip-rule="evenodd" d="M14.2843 43.3479C14.7275 41.8516 14.8874 40.2844 14.7595 38.7286L14.7643 38.7274C9.10777 37.5168 4.42222 33.5738 2.26107 28.2097C0.099918 22.8432 0.744117 16.7552 3.98131 11.96C7.21606 7.16729 12.6237 4.29333 18.4081 4.29333H28.5445C34.7631 4.29333 40.5107 7.6106 43.6222 12.9975C46.7315 18.3844 46.7315 25.0212 43.6222 30.4081C40.5109 35.7952 34.7631 39.1146 28.5445 39.1146H26.7306C24.5187 42.7997 20.882 45.1961 18.1452 46.576C17.1674 47.0672 15.9931 46.9301 15.157 46.2287C14.3186 45.5274 13.9759 44.3965 14.2843 43.3479ZM28.5672 7.21814H18.4033L18.408 7.22294C13.4895 7.23229 8.91361 9.73587 6.25213 13.8731C3.59065 18.0103 3.21138 23.2123 5.24235 27.6923C7.27349 32.1725 11.438 35.3137 16.304 36.0379C16.9391 36.1316 17.4417 36.6297 17.5376 37.267C17.878 39.4374 17.7661 41.6534 17.2041 43.7757C19.7124 42.4369 22.8833 40.2552 24.6082 36.9746C24.8595 36.4926 25.3575 36.191 25.8989 36.191H28.5672C33.7413 36.191 38.5253 33.4289 41.1114 28.9466C43.6998 24.4639 43.6998 18.9425 41.1114 14.4602C38.5253 9.97787 33.7417 7.21814 28.5672 7.21814ZM55.9813 47.0807C57.4754 45.1547 58.2955 42.788 58.3115 40.3481C58.3092 37.6955 57.3544 35.1301 55.6182 33.1243C53.884 31.1162 51.4853 29.798 48.8604 29.4119C48.1016 29.3044 47.3954 29.7976 47.2194 30.5279C42.7428 38.7963 38.0994 40.022 34.5472 40.9598C33.4284 41.2551 32.4179 41.5219 31.5548 41.9711C31.2256 42.1098 30.9565 42.3652 30.8035 42.6899C30.6321 43.0485 30.6139 43.462 30.7532 43.8344C31.4843 46.0275 32.887 47.9351 34.7626 49.2853C36.6407 50.6377 38.8932 51.3619 41.2052 51.3619H41.9819C43.3138 53.2535 45.1117 54.7728 47.1997 55.7711C47.9925 56.1617 48.9428 56.0452 49.619 55.4764C50.2952 54.9075 50.5717 53.9937 50.3227 53.1439C50.1193 52.4539 50.0234 51.7366 50.0417 51.017C52.3991 50.391 54.4872 49.0089 55.9813 47.0807ZM14.8346 14.6561C14.0259 14.6561 13.3725 15.3118 13.3725 16.1182C13.3725 16.9246 14.0259 17.5803 14.8346 17.5803H32.14C32.9464 17.5803 33.6021 16.9246 33.6021 16.1182C33.6021 15.3118 32.9464 14.6561 32.14 14.6561H14.8346ZM14.8346 20.2121C14.0259 20.2121 13.3725 20.8677 13.3725 21.6742V21.7039C13.3885 22.4989 14.0373 23.1363 14.8346 23.1363H32.14C32.9464 23.1363 33.6021 22.4806 33.6021 21.6742C33.6021 20.8677 32.9464 20.2121 32.14 20.2121H14.8346ZM14.8346 25.768C14.0259 25.768 13.3725 26.4237 13.3725 27.2301V27.2598C13.3885 28.0549 14.0373 28.6922 14.8346 28.6922H26.6846C27.4911 28.6922 28.1467 28.0366 28.1467 27.2301C28.1467 26.4237 27.4911 25.768 26.6846 25.768H14.8346Z" fill="url(#paint0_linear)"/>
<defs>
<linearGradient id="paint0_linear" x1="1" y1="30.1467" x2="58.3115" y2="30.1467" gradientUnits="userSpaceOnUse">
<stop stop-color="#F16F78"/>
<stop offset="1" stop-color="#EF8721"/>
</linearGradient>
</defs>
</svg>
