<svg id="Layer_1" data-name="Layer 1" xmlns="http://www.w3.org/2000/svg" viewBox="0 0 120.63 108.62"><defs><style>.cls-1{fill:#fce8de;}.cls-2{fill:#f9dac9;}.cls-3{fill:#f7bd9f;}.cls-4{opacity:0.1;}</style></defs><title>contact</title><path class="cls-1" d="M108.6,65.63A49.89,49.89,0,1,1,72.86,4.8,49.89,49.89,0,0,1,108.6,65.63Z"/><path class="cls-2" d="M11.41,63c14.18.47,52.69-.87,96.56-24.62a50,50,0,0,0-7.78-15.22c-14.25,9.81-46.84,28-89.55,25.45A49.34,49.34,0,0,0,11.41,63Z"/><path class="cls-2" d="M108.6,65.63a49.76,49.76,0,0,0,1.54-15.24C98.88,58.83,64.36,81.2,17.52,78.7a49.55,49.55,0,0,0,7.83,10c14.79.1,45.93-2.15,82-19.07C107.84,68.3,108.25,67,108.6,65.63Z"/><path class="cls-2" d="M56.81,102.85a49.82,49.82,0,0,0,32.54-9.2A144.77,144.77,0,0,1,56.81,102.85Z"/><path class="cls-2" d="M91,13.75A49.91,49.91,0,0,0,14.73,32.83C31.08,32.27,59.12,28.74,91,13.75Z"/><path class="cls-3" d="M90.56,39.48a9.47,9.47,0,1,1-6.79-11.55A9.49,9.49,0,0,1,90.56,39.48Z"/><g class="cls-4"><path d="M85.42,30.9a9.37,9.37,0,0,1,4.93,3.15,9.47,9.47,0,1,0-16.28,9.06A9.47,9.47,0,0,1,85.42,30.9Z"/></g><path class="cls-3" d="M59.38,60.71a6.46,6.46,0,1,1-4.62-7.88A6.45,6.45,0,0,1,59.38,60.71Z"/><g class="cls-4"><path d="M55.88,54.85A6.46,6.46,0,0,1,59.25,57a6.46,6.46,0,1,0-11.1,6.17,6.36,6.36,0,0,1-.14-3.7A6.46,6.46,0,0,1,55.88,54.85Z"/></g><path class="cls-3" d="M81.56,16.85a4.2,4.2,0,1,1-3-5.12A4.21,4.21,0,0,1,81.56,16.85Z"/><g class="cls-4"><path d="M79.28,13a4.21,4.21,0,0,1,2.19,1.4,4.2,4.2,0,1,0-7.22,4,4.28,4.28,0,0,1-.09-2.41A4.21,4.21,0,0,1,79.28,13Z"/></g><path class="cls-3" d="M35.64,54.54A6.46,6.46,0,1,1,31,46.67,6.46,6.46,0,0,1,35.64,54.54Z"/><g class="cls-4"><path d="M32.14,48.69a6.42,6.42,0,0,1,3.36,2.15A6.46,6.46,0,1,0,24.4,57a6.54,6.54,0,0,1-.14-3.7A6.46,6.46,0,0,1,32.14,48.69Z"/></g><path class="cls-3" d="M58.09,91.38a6.46,6.46,0,1,1-4.63-7.87A6.46,6.46,0,0,1,58.09,91.38Z"/><g class="cls-4"><path d="M54.59,85.53A6.36,6.36,0,0,1,58,87.68a6.46,6.46,0,1,0-11.1,6.18,6.57,6.57,0,0,1-.14-3.71A6.46,6.46,0,0,1,54.59,85.53Z"/></g><path class="cls-3" d="M82,87.33a6.46,6.46,0,1,1-4.63-7.87A6.47,6.47,0,0,1,82,87.33Z"/><g class="cls-4"><path d="M78.49,81.48a6.4,6.4,0,0,1,3.36,2.15,6.46,6.46,0,1,0-11.1,6.18,6.45,6.45,0,0,1,7.74-8.33Z"/></g><path class="cls-3" d="M52,20.79a3.69,3.69,0,1,1-2.65-4.5A3.69,3.69,0,0,1,52,20.79Z"/><g class="cls-4"><path d="M50,17.45A3.63,3.63,0,0,1,52,18.68a3.69,3.69,0,1,0-6.35,3.53,3.63,3.63,0,0,1-.08-2.12A3.69,3.69,0,0,1,50,17.45Z"/></g><g class="cls-4"><path class="cls-3" d="M38.24,84.93a1.93,1.93,0,0,1,1,.65,1.94,1.94,0,1,0-3.34,1.85,2,2,0,0,1,0-1.11A1.94,1.94,0,0,1,38.24,84.93Z"/></g><path class="cls-4" d="M92.13,14.92A49.89,49.89,0,0,1,13.52,70.63,49.89,49.89,0,1,0,92.13,14.92Z"/></svg>