<svg id="Layer_1" data-name="Layer 1" xmlns="http://www.w3.org/2000/svg" viewBox="0 0 188.2 112.07"><defs><style>.cls-1{fill:#123456;}.cls-2{fill:#132e3d;}.cls-3{fill:#4186b5;}.cls-4{fill:#f9dac9;}</style></defs><title>contact</title><circle class="cls-1" cx="91.91" cy="52.96" r="45.66" transform="translate(16.7 127.77) rotate(-74.8)"/><path class="cls-2" d="M101,8.22c-1.39-.28-2.78-.49-4.16-.64A45.65,45.65,0,0,1,78.72,96.67c1.33.4,2.69.75,4.08,1A45.66,45.66,0,0,0,101,8.22Z"/><path class="cls-3" d="M75.94,17.89a2.52,2.52,0,0,1-.47-4.8,42.57,42.57,0,0,1,18.84-3.2,2.52,2.52,0,0,1-.29,5A37.61,37.61,0,0,0,77.4,17.75,2.46,2.46,0,0,1,75.94,17.89Z"/><path class="cls-4" d="M137,45.93a45.33,45.33,0,0,1,.49,4.67c14.07,5.57,22.56,11.32,21.68,15.64-1.59,7.82-33.34,8-70.92.31s-66.74-20.19-65.14-28c.91-4.48,11.73-6.44,27.86-5.86q1-2.07,2.25-4c-26.49-2.27-45.17-.08-46.52,6.53C4.75,44.9,41,60.48,87.59,70s86,9.32,88-.39C176.92,63.12,161.34,54.07,137,45.93Z"/><path class="cls-3" d="M73.23,19.28a3.14,3.14,0,1,1-2.45-3.71A3.14,3.14,0,0,1,73.23,19.28Z"/></svg>