<svg width="280" height="34" viewBox="0 0 280 34" fill="none" xmlns="http://www.w3.org/2000/svg">
<path d="M211.316 16.8C211.316 7.52162 218.775 0 227.976 0C237.176 0 244.635 7.52162 244.635 16.8C244.635 26.0784 237.176 33.6 227.976 33.6C218.775 33.6 211.316 26.0784 211.316 16.8Z" fill="#1D1D1D"/>
<path d="M239.238 15.32C238.106 15.32 237.173 16.0589 236.84 17.0669L232.908 16.664C232.874 15.0851 232.141 13.7069 230.975 12.8343L233.607 8.33255C233.84 8.39949 234.106 8.46643 234.406 8.46643C235.805 8.46643 236.939 7.32457 236.939 5.91229C236.939 4.50136 235.806 3.35815 234.406 3.35815C233.007 3.35815 231.873 4.50002 231.873 5.91229C231.873 6.65122 232.172 7.29043 232.672 7.76029L230.04 12.262C229.44 11.993 228.774 11.825 228.041 11.825C226.841 11.825 225.775 12.262 224.91 12.9668L222.644 10.8169C222.877 10.4468 223.011 9.97695 223.011 9.50709C223.011 8.09616 221.878 6.95295 220.478 6.95295C219.079 6.95295 217.945 8.09481 217.945 9.50709C217.945 10.918 219.078 12.0612 220.478 12.0612C221.012 12.0612 221.478 11.8932 221.911 11.6242L224.177 13.774C223.577 14.5799 223.211 15.622 223.211 16.6969C223.211 17.0329 223.245 17.4031 223.311 17.7049L218.681 19.2839C218.247 18.5449 217.448 18.0409 216.515 18.0409C215.116 18.0409 213.982 19.1828 213.982 20.5951C213.982 22.006 215.115 23.1492 216.515 23.1492C217.914 23.1492 219.048 22.0074 219.048 20.5951V20.326L223.678 18.7471C224.445 20.4271 226.111 21.569 228.076 21.569C228.277 21.569 228.443 21.569 228.61 21.5348L229.477 25.3988C228.61 25.8018 228.044 26.6759 228.044 27.6839C228.044 29.0948 229.176 30.238 230.577 30.238C231.976 30.238 233.109 29.0962 233.109 27.6839C233.109 26.273 231.977 25.1298 230.577 25.1298H230.543L229.676 21.2658C231.242 20.6948 232.442 19.3508 232.807 17.6709L236.739 18.0738C236.872 19.3509 237.939 20.3248 239.238 20.3248C240.638 20.3248 241.771 19.1829 241.771 17.7706C241.737 16.4634 240.604 15.3202 239.238 15.3202L239.238 15.32Z" fill="#FEE315"/>
<path d="M11.9253 19.7186V15.6663H22.3051V25.2475C21.2964 26.2319 19.8321 27.1014 17.9124 27.8561C16.0035 28.5998 14.0674 28.9717 12.1043 28.9717C9.60967 28.9717 7.43502 28.4467 5.58033 27.3967C3.72565 26.3358 2.33192 24.8264 1.39915 22.8686C0.466383 20.8998 0 18.7616 0 16.4538C0 13.9491 0.520614 11.7233 1.56184 9.77641C2.60307 7.82954 4.12695 6.33657 6.13349 5.29751C7.66279 4.49907 9.56629 4.09985 11.844 4.09985C14.805 4.09985 17.1152 4.72876 18.7746 5.98657C20.445 7.23345 21.5187 8.96157 21.996 11.1709L17.2128 12.0733C16.8766 10.892 16.2421 9.96235 15.3093 9.28423C14.3874 8.59516 13.2323 8.25063 11.844 8.25063C9.73982 8.25063 8.0641 8.92329 6.81679 10.2686C5.58033 11.6139 4.9621 13.61 4.9621 16.2569C4.9621 19.1116 5.59118 21.2553 6.84933 22.6881C8.10748 24.11 9.75609 24.8209 11.7952 24.8209C12.8039 24.8209 13.8125 24.6241 14.8212 24.2303C15.8408 23.8256 16.7139 23.3389 17.4406 22.7702V19.7186H11.9253Z" fill="black"/>
<path d="M27.4292 28.5616V4.51001H45.1138V8.57876H32.2449V13.9108H44.219V17.9631H32.2449V24.5092H45.5694V28.5616H27.4292Z" fill="black"/>
<path d="M55.6881 28.5616V8.57876H48.611V4.51001H67.5647V8.57876H60.5038V28.5616H55.6881Z" fill="black"/>
<path d="M81.262 4.51001H86.0777V17.5366C86.0777 19.6038 86.1374 20.9436 86.2567 21.5561C86.4627 22.5405 86.9508 23.3334 87.7209 23.935C88.5018 24.5256 89.5647 24.8209 90.9096 24.8209C92.2763 24.8209 93.3066 24.542 94.0008 23.9842C94.695 23.4155 95.1125 22.7209 95.2535 21.9006C95.3945 21.0803 95.465 19.7186 95.465 17.8155V4.51001H100.281V17.1428C100.281 20.0303 100.151 22.0702 99.8903 23.2623C99.6299 24.4545 99.1473 25.4608 98.4423 26.2811C97.7481 27.1014 96.8154 27.7577 95.644 28.2498C94.4726 28.7311 92.9433 28.9717 91.0561 28.9717C88.7784 28.9717 87.0484 28.7092 85.8662 28.1842C84.6948 27.6483 83.7675 26.9592 83.0842 26.117C82.4009 25.2639 81.9507 24.3725 81.7338 23.4428C81.4193 22.0647 81.262 20.0303 81.262 17.3397V4.51001Z" fill="black"/>
<path d="M104.819 20.7358L109.505 20.2764C109.787 21.8623 110.356 23.0272 111.213 23.7709C112.081 24.5147 113.247 24.8866 114.711 24.8866C116.262 24.8866 117.428 24.5584 118.209 23.9022C119 23.235 119.396 22.4584 119.396 21.5725C119.396 21.0038 119.228 20.5225 118.892 20.1288C118.567 19.7241 117.992 19.3741 117.167 19.0788C116.603 18.8819 115.318 18.5319 113.312 18.0288C110.73 17.3834 108.919 16.5905 107.878 15.6498C106.414 14.3264 105.681 12.7131 105.681 10.81C105.681 9.58501 106.023 8.44204 106.706 7.3811C107.401 6.30923 108.393 5.49438 109.684 4.93657C110.985 4.37876 112.552 4.09985 114.385 4.09985C117.379 4.09985 119.63 4.76157 121.137 6.08501C122.656 7.40845 123.453 9.17485 123.529 11.3842L118.713 11.5975C118.507 10.3616 118.062 9.47563 117.379 8.93969C116.707 8.39282 115.692 8.11938 114.337 8.11938C112.937 8.11938 111.842 8.40923 111.05 8.98891C110.54 9.36079 110.286 9.85845 110.286 10.4819C110.286 11.0506 110.524 11.5374 111.001 11.942C111.609 12.4561 113.084 12.992 115.427 13.5499C117.769 14.1077 119.499 14.6873 120.617 15.2889C121.745 15.8795 122.623 16.6944 123.252 17.7334C123.892 18.7616 124.212 20.0358 124.212 21.5561C124.212 22.9342 123.832 24.2248 123.073 25.428C122.314 26.6311 121.24 27.528 119.852 28.1186C118.464 28.6983 116.734 28.9881 114.662 28.9881C111.647 28.9881 109.331 28.2881 107.715 26.8881C106.099 25.4772 105.134 23.4264 104.819 20.7358Z" fill="black"/>
<path d="M128.929 28.5616V4.51001H146.614V8.57876H133.745V13.9108H145.719V17.9631H133.745V24.5092H147.07V28.5616H128.929Z" fill="black"/>
<path d="M151.836 28.5616V4.51001H161.972C164.52 4.51001 166.37 4.72876 167.519 5.16626C168.68 5.59282 169.607 6.35845 170.301 7.46313C170.996 8.56782 171.343 9.8311 171.343 11.253C171.343 13.0577 170.817 14.5506 169.764 15.7319C168.712 16.9022 167.14 17.6405 165.046 17.9467C166.088 18.5592 166.944 19.2319 167.617 19.9647C168.3 20.6975 169.217 21.9991 170.366 23.8694L173.279 28.5616H167.519L164.038 23.328C162.801 21.4577 161.955 20.2819 161.5 19.8006C161.044 19.3084 160.562 18.9748 160.052 18.7998C159.542 18.6139 158.734 18.5209 157.628 18.5209H156.652V28.5616H151.836ZM156.652 14.6819H160.214C162.525 14.6819 163.967 14.5834 164.542 14.3866C165.117 14.1897 165.567 13.8506 165.892 13.3694C166.218 12.8881 166.38 12.2866 166.38 11.5647C166.38 10.7553 166.164 10.1045 165.73 9.61235C165.307 9.10923 164.705 8.79204 163.924 8.66079C163.533 8.6061 162.362 8.57876 160.41 8.57876H156.652V14.6819Z" fill="black"/>
<path d="M186.553 28.5616V4.51001H191.239L201 20.5717V4.51001H205.474V28.5616H200.642L191.027 12.8772V28.5616H186.553Z" fill="black"/>
<path d="M254.392 28.5616L248.698 4.51001H253.628L257.223 21.0311L261.583 4.51001H267.31L271.491 21.31L275.152 4.51001H280L274.208 28.5616H269.1L264.349 10.5803L259.615 28.5616H254.392Z" fill="black"/>
</svg>
