<?xml version="1.0" encoding="UTF-8"?>
<svg width="45px" height="45px" viewBox="0 0 45 45" version="1.1" xmlns="http://www.w3.org/2000/svg" xmlns:xlink="http://www.w3.org/1999/xlink">
    <!-- Generator: Sketch 55.2 (78181) - https://sketchapp.com -->
    <title>icon/icon-youtube</title>
    <desc>Created with Sketch.</desc>
    <g id="icon/icon-youtube" stroke="none" stroke-width="1" fill="none" fill-rule="evenodd">
        <path d="M43.0875,9.98727273 C41.866875,7.81163636 40.5421875,7.41145455 37.845,7.25927273 C35.150625,7.07609091 28.3753125,7 22.505625,7 C16.6246875,7 9.8465625,7.07609091 7.155,7.25645455 C4.4634375,7.41145455 3.1359375,7.80881818 1.9040625,9.98727273 C0.646875,12.1600909 0,15.9026364 0,22.4915455 C0,22.4971818 0,22.5 0,22.5 C0,22.5056364 0,22.5084545 0,22.5084545 L0,22.5140909 C0,29.0748182 0.646875,32.8455455 1.9040625,34.9958182 C3.1359375,37.1714545 4.460625,37.566 7.1521875,37.7491818 C9.8465625,37.907 16.6246875,38 22.505625,38 C28.3753125,38 35.150625,37.907 37.8478125,37.752 C40.545,37.5688182 41.8696875,37.1742727 43.0903125,34.9986364 C44.35875,32.8483636 45,29.0776364 45,22.5169091 C45,22.5169091 45,22.5084545 45,22.5028182 C45,22.5028182 45,22.4971818 45,22.4943636 C45,15.9026364 44.35875,12.1600909 43.0875,9.98727273 Z M16.875,30.9545455 L16.875,14.0454545 L30.9375,22.5 L16.875,30.9545455 Z" id="Shape" fill="#FFFFFF" fill-rule="nonzero"></path>
    </g>
</svg>