<?xml version="1.0" encoding="UTF-8"?>
<svg width="14px" height="14px" viewBox="0 0 14 14" version="1.1" xmlns="http://www.w3.org/2000/svg" xmlns:xlink="http://www.w3.org/1999/xlink">
    <!-- Generator: Sketch 58 (84663) - https://sketch.com -->
    <title>icon/icon-question</title>
    <desc>Created with Sketch.</desc>
    <g id="icon/icon-question" stroke="none" stroke-width="1" fill="none" fill-rule="evenodd">
        <path d="M7,0 C3.13909474,0 0,3.13909474 0,7 C0,10.8609053 3.13909474,14 7,14 C10.8609053,14 14,10.8609053 14,7 C14,3.13909474 10.8609053,0 7,0 Z M7.11800968,11.0082737 C6.64654863,11.0082737 6.27812758,10.62488 6.27812758,10.1683916 C6.27812758,9.69693053 6.66152126,9.32850947 7.11800968,9.32850947 C7.58947074,9.32850947 7.95789179,9.71190316 7.95789179,10.1683916 C7.95789179,10.6398526 7.57449811,11.0082737 7.11800968,11.0082737 Z M9.15184126,6.72014737 C8.82774863,7.16225263 8.48868337,7.39827789 8.23827495,7.57500211 C7.95851074,7.76669895 7.84049811,7.85476632 7.81114232,8.31184421 C7.79617558,8.51792421 7.61944547,8.66529263 7.42774863,8.66529263 L6.82330232,8.66529263 C6.60224968,8.66529263 6.41055284,8.47359579 6.42552547,8.23816 C6.51417642,7.17722526 6.92634232,6.79383158 7.44213179,6.44041263 C7.64821179,6.29304421 7.83990863,6.16064842 8.03160547,5.89526737 C8.22330232,5.62988632 8.25265811,5.26146526 8.09032295,4.95234526 C7.98728,4.73129263 7.69254611,4.37784421 7.01441558,4.37784421 C6.13020505,4.37784421 5.864824,4.93796211 5.77675663,5.36509474 C5.74739789,5.55679158 5.58505979,5.68918737 5.39336295,5.68918737 L4.77453347,5.68918737 C4.53850821,5.68918737 4.34740084,5.48310737 4.39113979,5.24708211 C4.55348084,4.08310737 5.39336295,2.97790316 7.01444505,2.97790316 C8.03105137,2.97790316 8.90090821,3.47872 9.32798189,4.31919158 C9.74130611,5.11359579 9.66762189,6.02719158 9.15183242,6.72026526 L9.15184126,6.72014737 Z" id="Shape" fill="#484848"></path>
    </g>
</svg>