<?xml version="1.0" encoding="UTF-8"?>
<svg width="70px" height="40px" viewBox="0 0 70 40" version="1.1" xmlns="http://www.w3.org/2000/svg" xmlns:xlink="http://www.w3.org/1999/xlink">
    <!-- Generator: Sketch 55.2 (78181) - https://sketchapp.com -->
    <title>icon/icon-travel-insurance</title>
    <desc>Created with Sketch.</desc>
    <g id="icon/icon-travel-insurance" stroke="none" stroke-width="1" fill="none" fill-rule="evenodd">
        <g id="Group" transform="translate(14.000000, 5.000000)" fill="#E9483F" fill-rule="nonzero" stroke="#E9483F" stroke-width="0.3">
            <path d="M19.7265223,29.5 C11.5760223,29.5 4.97652235,22.9005 4.97652235,14.75 C4.97652235,6.5995 11.5760223,1.77635684e-15 19.7265223,1.77635684e-15 C23.1269223,1.77635684e-15 26.4765223,1.1992 29.1270223,3.3496 C30.7774223,4.6992 32.1270223,6.4492 33.0274223,8.3496 C33.2266423,8.69921 33.0274223,9.1504 32.6778123,9.3496 C32.3282023,9.54882 31.8770123,9.3496 31.6778123,9 C30.8282123,7.30079 29.6270123,5.74999 28.1778123,4.5 C25.8282123,2.55079 22.8283123,1.44919 19.7288123,1.44919 C12.4278123,1.44919 6.47881235,7.39819 6.47881235,14.69919 C6.47685935,22.00019 12.4263123,28.00019 19.7268123,28.00019 C24.8773123,28.00019 29.5763123,25.00019 31.7778123,20.30119 C31.9282023,19.9008 32.3774123,19.75039 32.7778123,19.95158 C33.1782023,20.10197 33.3286123,20.55118 33.1274223,20.95158 C30.7270223,26.15058 25.4769223,29.50058 19.7269223,29.50058 L19.7265223,29.5 Z" id="Path"></path>
            <path d="M8.57602235,24.301 C4.17562235,24.301 1.07602235,23.1018 0.226522347,20.8518 C-0.673877653,18.40065 1.12692235,15.2503 5.32602235,12.0998 C5.67563235,11.8498 6.12682235,11.90058 6.37682235,12.25019 C6.62682235,12.5998 6.57604235,13.05099 6.22643235,13.30099 C2.72643235,15.95139 1.02743235,18.60199 1.62683235,20.35199 C2.62683235,23.05119 9.52733235,24.00239 19.4278323,20.95159 C19.8282223,20.85198 20.2286323,21.0512 20.3770323,21.45159 C20.4766423,21.85198 20.2774223,22.25239 19.8770323,22.40079 C15.6758823,23.69964 11.7775323,24.30119 8.57603235,24.30119 L8.57602235,24.301 Z" id="Path"></path>
            <path d="M38.5275223,7.6505 C38.2267423,7.6505 37.9279223,7.45128 37.8283223,7.1505 C37.1779223,5.4005 34.1779223,4.5001 29.7773223,4.7013 L28.6269223,4.7013 C28.2265323,4.7013 27.8769223,4.35169 27.8769223,3.9513 C27.8769223,3.55091 28.2265323,3.2013 28.6269223,3.2013 L29.7265223,3.199347 C34.9255223,2.949347 38.3260223,4.148547 39.2265223,6.648547 C39.3769223,7.048937 39.1757423,7.449347 38.7773023,7.597747 C38.6757423,7.6505 38.6269123,7.6505 38.5273023,7.6505 L38.5275223,7.6505 Z" id="Path"></path>
            <path d="M20.4213801,21.90788 L18.7267423,25.49976 C18.5763523,25.80054 18.3263523,25.949 18.0275423,25.949 L18.0275223,25.949 C17.9279123,25.949 17.8283023,25.949 17.7267423,25.89822 C17.3263523,25.74783 17.1759423,25.29862 17.3771323,24.89822 L18.7550533,21.9380255 L19.4257423,22.25022 C19.5273023,22.301 19.6269123,22.301 19.7265223,22.301 L19.7265423,22.301 C20.0243756,22.301 20.2724319,22.1535227 20.4213801,21.90788 L20.4259423,21.89821 C20.4737077,21.8031493 20.501655,21.7053374 20.511144,21.6094263 C20.5115142,21.6059125 20.5118278,21.6023793 20.5121164,21.5988489 C20.5379399,21.2947705 20.378167,21.0115817 20.0763323,20.89821 C20.0463941,20.8831668 20.0164559,20.8700894 19.986602,20.8589351 L16.4257323,19.20141 C16.0253323,19.00022 15.6249523,19.15063 15.4257323,19.55102 C15.2245423,19.95142 15.3749523,20.40063 15.7753423,20.55102 L18.7550533,21.9380255 Z" id="Combined-Shape"></path>
            <path d="M24.0275223,20.75 C23.9279123,20.75 23.8283023,20.75 23.7267423,20.69922 L17.7267423,17.94922 C17.4259623,17.79883 17.2267423,17.44922 17.3263523,17.09962 C17.4259623,16.75002 17.6759623,16.50002 18.0255523,16.50002 L23.9745523,16.3008 L26.1249523,15 L22.7753523,11.4004 C22.6249623,11.25001 22.5761323,11.05079 22.5761323,10.8496 C22.5761323,10.65038 22.6757423,10.44921 22.8261323,10.2988 C22.9257423,10.24802 23.6757323,9.5996 25.1757323,9.5996 C27.0253323,9.5996 29.1757323,10.5488 31.5762323,12.3496 L36.6757323,10 C36.9765123,9.84961 37.4257323,9.80078 37.9257323,9.80078 C38.8749323,9.80078 40.6249323,10.05078 41.0761323,11.10158 C41.2753523,11.5508 41.4765223,12.35158 40.5761323,13.10158 C40.1269123,13.45119 39.4257323,13.80078 38.5761323,14.20118 L24.3261323,20.69918 C24.2265223,20.75 24.1269123,20.75 24.0273023,20.75 L24.0275223,20.75 Z M21.2267223,17.9004 L24.0275223,19.1504 L37.8770223,12.8494 C38.6270223,12.49979 39.5762223,12.0994 39.6778223,11.8494 C39.6778223,11.8494 39.6778223,11.79862 39.6270423,11.74979 C39.5274323,11.5994 38.7774423,11.3494 37.8262423,11.3494 C37.4766323,11.3494 37.2754423,11.40018 37.1758423,11.44901 L31.6758423,13.94901 C31.4258423,14.04862 31.1250423,14.04862 30.8750423,13.8494 C28.0742423,11.5994 26.1758423,11.1502 25.0740423,11.1502 C24.8748223,11.1502 24.6736523,11.1502 24.4744423,11.20098 L27.7244423,14.65018 C27.8748323,14.80057 27.9744423,15.05057 27.9236623,15.24978 C27.8728823,15.449 27.7732723,15.65017 27.5740523,15.80058 L24.4744523,17.70098 C24.3748423,17.75176 24.2244523,17.80059 24.1248423,17.80059 L21.2267223,17.9004 Z" id="Shape"></path>
        </g>
    </g>
</svg>