<?xml version="1.0" encoding="UTF-8"?>
<svg width="70px" height="40px" viewBox="0 0 70 40" version="1.1" xmlns="http://www.w3.org/2000/svg" xmlns:xlink="http://www.w3.org/1999/xlink">
    <!-- Generator: Sketch 55.2 (78181) - https://sketchapp.com -->
    <title>icon/icon-accident-insurance</title>
    <desc>Created with Sketch.</desc>
    <g id="icon/icon-accident-insurance" stroke="none" stroke-width="1" fill="none" fill-rule="evenodd">
        <path d="M25.689,12.6035126 C27.6649533,12.6035126 29.26678,11.0016859 29.26678,9.02573256 C29.26678,7.04977923 27.6649533,5.44795256 25.689,5.44795256 C23.7130467,5.44795256 22.11122,7.04977923 22.11122,9.02573256 C22.11122,11.0016859 23.7130467,12.6035126 25.689,12.6035126 Z M25.689,11.0035126 C24.5967023,11.0035126 23.71122,10.1180303 23.71122,9.02573256 C23.71122,7.93343483 24.5967023,7.04795256 25.689,7.04795256 C26.7812977,7.04795256 27.66678,7.93343483 27.66678,9.02573256 C27.66678,10.1180303 26.7812977,11.0035126 25.689,11.0035126 Z" id="Oval" fill="#E9483F" fill-rule="nonzero"></path>
        <path d="M29.578,12.3597326 L30.012,13.0307326 C30.031,13.0197326 30.048,13.0067326 30.066,12.9937326 L29.578,12.3597326 Z M24.856,15.4147326 L24.421,14.7437326 C24.339,14.7957326 24.268,14.8637326 24.21,14.9417326 L24.856,15.4147326 Z M21.8,19.5817326 L21.155,19.1087326 C21.054,19.2457326 21,19.4117326 21,19.5817326 L21.8,19.5817326 Z M24.578,25.4147326 L25.143,25.9807326 C25.293,25.8307326 25.378,25.6267326 25.378,25.4147326 L24.578,25.4147326 Z M24.578,20.6927326 L23.953,20.1927326 C23.84,20.3347326 23.778,20.5107326 23.778,20.6927326 L24.578,20.6927326 Z M26.8,17.9147326 L27.486,17.5037326 C27.351,17.2787326 27.115,17.1347326 26.854,17.1167326 C26.592,17.0987326 26.339,17.2107326 26.175,17.4147326 L26.8,17.9147326 Z M30.967,24.8597326 L30.281,25.2707326 C30.395,25.4607326 30.582,25.5947326 30.799,25.6417326 L30.967,24.8597326 Z M38.744,26.5257326 L39.296,25.9467326 C39.189,25.8447326 39.056,25.7747326 38.912,25.7437326 L38.744,26.5257326 Z M44.578,32.0817326 L44.026,32.6607326 C44.175,32.8027326 44.372,32.8817326 44.578,32.8817326 L44.578,32.0817326 Z M46.8,29.8597326 L47.6,29.8597326 C47.6,29.6407326 47.511,29.4317326 47.352,29.2807326 L46.8,29.8597326 Z M40.689,24.0257326 L41.241,23.4477326 C41.17,23.3797326 41.087,23.3257326 40.997,23.2877326 L40.689,24.0257326 Z M37.356,22.6367326 L37.048,21.8987326 C36.75,22.0227326 36.556,22.3137326 36.556,22.6367326 C36.556,22.9597326 36.75,23.2517326 37.048,23.3757326 L37.356,22.6367326 Z M40.689,21.2487326 L41.222,20.6517326 C40.993,20.4467326 40.666,20.3917326 40.381,20.5097326 L40.689,21.2487326 Z M45.967,25.9707326 L45.433,26.5667326 C45.54,26.6617326 45.67,26.7267326 45.81,26.7547326 L45.967,25.9707326 Z M48.744,24.0257326 L49.544,24.0257326 C49.544,23.7957326 49.446,23.5777326 49.273,23.4257326 L48.744,24.0257326 Z M41.8,17.9147326 L42.329,17.3147326 C42.131,17.1407326 41.861,17.0747326 41.606,17.1387326 L41.8,17.9147326 Z M36.244,19.3037326 L35.584,19.7557326 C35.773,20.0317326 36.114,20.1607326 36.438,20.0797326 L36.244,19.3037326 Z M32.633,14.0257326 L32.068,13.4607326 C31.795,13.7327326 31.756,14.1597326 31.973,14.4777326 L32.633,14.0257326 Z M35.967,10.6927326 L36.532,11.2587326 C36.673,11.1177326 36.757,10.9287326 36.766,10.7287326 L35.967,10.6927326 Z M36.244,4.58173256 L37.044,4.61773256 C37.054,4.39373256 36.969,4.17473256 36.81,4.01573256 L36.244,4.58173256 Z M33.189,4.58173256 L32.677,3.96673256 C32.494,4.11873256 32.389,4.34373256 32.389,4.58173256 L33.189,4.58173256 Z M33.189,9.58173256 L33.677,10.2157326 C33.874,10.0647326 33.989,9.82973256 33.989,9.58173256 L33.189,9.58173256 Z M44.856,32.0817326 L44.856,32.8817326 C44.93,32.8817326 45.004,32.8717326 45.075,32.8507326 L44.856,32.0817326 Z M21.8,25.4147326 L21,25.4147326 C21,25.6577326 21.11,25.8877326 21.3,26.0397326 L21.8,25.4147326 Z M46.838,26.1447326 L46.995,25.3607326 L46.838,26.1447326 Z M45.465,31.9077326 L45.245,31.1387326 L45.465,31.9077326 Z M22.104,25.6587326 L22.604,25.0337326 L22.104,25.6587326 Z M29.143,11.6877326 L24.421,14.7437326 L25.29,16.0867326 L30.012,13.0307326 L29.143,11.6877326 Z M24.21,14.9417326 L21.155,19.1087326 L22.445,20.0547326 L25.501,15.8877326 L24.21,14.9417326 Z M21,19.5817326 L21,24.8597326 L22.6,24.8597326 L22.6,19.5817326 L21,19.5817326 Z M25.378,25.4147326 L25.378,20.6927326 L23.778,20.6927326 L23.778,25.4147326 L25.378,25.4147326 Z M25.202,21.1927326 L27.425,18.4147326 L26.175,17.4147326 L23.953,20.1927326 L25.202,21.1927326 Z M26.114,18.3267326 L30.281,25.2707326 L31.653,24.4477326 L27.486,17.5037326 L26.114,18.3267326 Z M30.799,25.6417326 L38.577,27.3087326 L38.912,25.7437326 L31.134,24.0767326 L30.799,25.6417326 Z M38.193,27.1057326 L44.026,32.6607326 L45.13,31.5027326 L39.296,25.9467326 L38.193,27.1057326 Z M47.352,29.2807326 L41.241,23.4477326 L40.137,24.6047326 L46.248,30.4377326 L47.352,29.2807326 Z M40.997,23.2877326 L37.663,21.8987326 L37.048,23.3757326 L40.381,24.7647326 L40.997,23.2877326 Z M37.663,23.3757326 L40.997,21.9867326 L40.381,20.5097326 L37.048,21.8987326 L37.663,23.3757326 Z M40.155,21.8447326 L45.433,26.5667326 L46.5,25.3747326 L41.222,20.6517326 L40.155,21.8447326 Z M45.81,26.7547326 L46.681,26.9287326 L46.995,25.3607326 L46.124,25.1857326 L45.81,26.7547326 Z M49.273,23.4257326 L42.329,17.3147326 L41.271,18.5157326 L48.216,24.6267326 L49.273,23.4257326 Z M41.606,17.1387326 L36.05,18.5277326 L36.438,20.0797326 L41.994,18.6907326 L41.606,17.1387326 Z M36.905,18.8517326 L33.294,13.5747326 L31.973,14.4777326 L35.584,19.7557326 L36.905,18.8517326 Z M33.199,14.5917326 L36.532,11.2587326 L35.401,10.1267326 L32.068,13.4607326 L33.199,14.5917326 Z M36.766,10.7287326 L37.044,4.61773256 L35.445,4.54573256 L35.167,10.6567326 L36.766,10.7287326 Z M33.136,3.58373256 L32.677,3.96673256 L33.701,5.19573256 L34.161,4.81373256 L33.136,3.58373256 Z M32.389,4.58173256 L32.389,9.58173256 L33.989,9.58173256 L33.989,4.58173256 L32.389,4.58173256 Z M32.701,8.94773256 L29.09,11.7257326 L30.066,12.9937326 L33.677,10.2157326 L32.701,8.94773256 Z M49.544,24.5817326 L49.544,24.0257326 L47.944,24.0257326 L47.944,24.5817326 L49.544,24.5817326 Z M44.578,32.8817326 L44.856,32.8817326 L44.856,31.2817326 L44.578,31.2817326 L44.578,32.8817326 Z M45.075,32.8507326 L45.684,32.6767326 L45.245,31.1387326 L44.636,31.3127326 L45.075,32.8507326 Z M47.6,30.1367326 L47.6,29.8597326 L46,29.8597326 L46,30.1367326 L47.6,30.1367326 Z M24.866,26.2587326 L25.143,25.9807326 L24.012,24.8497326 L23.734,25.1267326 L24.866,26.2587326 Z M21,24.8597326 L21,25.4147326 L22.6,25.4147326 L22.6,24.8597326 L21,24.8597326 Z M21.3,26.0397326 L21.605,26.2827326 L22.604,25.0337326 L22.3,24.7907326 L21.3,26.0397326 Z M36.81,4.01573256 L36.532,3.73773256 L35.401,4.86973256 L35.679,5.14773256 L36.81,4.01573256 Z M46.681,26.9287326 C48.162,27.2257326 49.544,26.0927326 49.544,24.5817326 L47.944,24.5817326 C47.944,25.0827326 47.486,25.4587326 46.995,25.3607326 L46.681,26.9287326 Z M45.684,32.6767326 C46.818,32.3527326 47.6,31.3167326 47.6,30.1367326 L46,30.1367326 C46,30.6017326 45.692,31.0107326 45.245,31.1387326 L45.684,32.6767326 Z M34.161,4.81373256 C34.526,4.50873256 35.064,4.53273256 35.401,4.86973256 L36.532,3.73773256 C35.61,2.81673256 34.138,2.74973256 33.136,3.58373256 L34.161,4.81373256 Z M23.82,25.0527326 C23.458,25.3247326 22.958,25.3167326 22.604,25.0337326 L21.605,26.2827326 C22.528,27.0217326 23.834,27.0417326 24.78,26.3327326 L23.82,25.0527326 Z" id="Shape" fill="#E9483F" fill-rule="nonzero"></path>
        <path d="M26.437,28.0067326 C26.794,27.7467326 26.873,27.2467326 26.614,26.8887326 C26.354,26.5317326 25.853,26.4527326 25.496,26.7127326 L26.437,28.0067326 Z M22.911,29.5817326 L22.441,28.9347326 C22.16,29.1387326 22.043,29.4997326 22.15,29.8297326 C22.257,30.1587326 22.565,30.3817326 22.911,30.3817326 L22.911,29.5817326 Z M27.356,29.5817326 L28.135,29.7617326 C28.19,29.5247326 28.133,29.2747326 27.982,29.0837326 C27.83,28.8927326 27.599,28.7817326 27.356,28.7817326 L27.356,29.5817326 Z M26.522,33.1927326 L25.743,33.0127326 C25.666,33.3447326 25.808,33.6887326 26.096,33.8707326 C26.385,34.0517326 26.756,34.0307326 27.022,33.8177326 L26.522,33.1927326 Z M30.689,29.8597326 L31.38,29.4567326 C31.263,29.2557326 31.064,29.1157326 30.835,29.0727326 C30.607,29.0307326 30.371,29.0897326 30.189,29.2347326 L30.689,29.8597326 Z M32.633,33.1927326 L31.942,33.5957326 C32.093,33.8537326 32.374,34.0067326 32.672,33.9917326 C32.969,33.9777326 33.235,33.7987326 33.36,33.5287326 L32.633,33.1927326 Z M34.3,29.5817326 L34.827,28.9797326 C34.637,28.8137326 34.38,28.7467326 34.133,28.7997326 C33.887,28.8517326 33.679,29.0177326 33.574,29.2467326 L34.3,29.5817326 Z M36.522,31.5267326 L35.995,32.1287326 C36.21,32.3167326 36.509,32.3757326 36.779,32.2837326 C37.05,32.1917326 37.251,31.9637326 37.307,31.6837326 L36.522,31.5267326 Z M37.862,28.9057326 C37.949,28.4727326 37.668,28.0507326 37.235,27.9637326 C36.801,27.8777326 36.38,28.1587326 36.293,28.5917326 L37.862,28.9057326 Z M25.496,26.7127326 L22.441,28.9347326 L23.382,30.2287326 L26.437,28.0067326 L25.496,26.7127326 Z M22.911,30.3817326 L27.356,30.3817326 L27.356,28.7817326 L22.911,28.7817326 L22.911,30.3817326 Z M26.576,29.4017326 L25.743,33.0127326 L27.302,33.3727326 L28.135,29.7617326 L26.576,29.4017326 Z M27.022,33.8177326 L31.189,30.4847326 L30.189,29.2347326 L26.022,32.5687326 L27.022,33.8177326 Z M29.998,30.2627326 L31.942,33.5957326 L33.324,32.7897326 L31.38,29.4567326 L29.998,30.2627326 Z M33.36,33.5287326 L35.026,29.9167326 L33.574,29.2467326 L31.907,32.8577326 L33.36,33.5287326 Z M33.773,30.1837326 L35.995,32.1287326 L37.049,30.9247326 L34.827,28.9797326 L33.773,30.1837326 Z M37.307,31.6837326 L37.862,28.9057326 L36.293,28.5917326 L35.738,31.3697326 L37.307,31.6837326 Z" id="Shape" fill="#E9483F" fill-rule="nonzero"></path>
    </g>
</svg>