<?xml version="1.0" encoding="UTF-8"?>
<svg width="18px" height="18px" viewBox="0 0 18 18" version="1.1" xmlns="http://www.w3.org/2000/svg" xmlns:xlink="http://www.w3.org/1999/xlink">
    <!-- Generator: Sketch 55.2 (78181) - https://sketchapp.com -->
    <title>icon/icon-close-grey</title>
    <desc>Created with Sketch.</desc>
    <g id="icon/icon-close-grey" stroke="none" stroke-width="1" fill="none" fill-rule="evenodd">
        <path d="M16.611107,3.27778086 C16.8706624,3.01649211 17.0008624,2.70227006 17,2.33333693 C17.0008637,1.96440379 16.8706558,1.65018174 16.611107,1.38889299 C16.3498183,1.12933757 16.0355962,0.999137645 15.6666631,1 C15.2977299,0.999136312 14.9835079,1.12934424 14.7222191,1.38889299 L9,7.11111213 L3.27778086,1.38889299 C3.01649211,1.12933757 2.70227006,0.999137645 2.33333693,1 C1.96440379,0.999136312 1.65018174,1.12934424 1.38889299,1.38889299 C1.12933757,1.65018174 0.999137645,1.96440379 1,2.33333693 C0.999136312,2.70227006 1.12934424,3.01649211 1.38889299,3.27778086 L7.11111213,9 L1.38889299,14.7222191 C1.12933757,14.9835079 0.999137645,15.2977299 1,15.6666631 C0.999136312,16.0355962 1.12934424,16.3498183 1.38889299,16.611107 C1.65018174,16.8706624 1.96440379,17.0008624 2.33333693,17 C2.70227006,17.0008637 3.01649211,16.8706558 3.27778086,16.611107 L9,10.8888879 L14.7222191,16.611107 C14.9835079,16.8706624 15.2977299,17.0008624 15.6666631,17 C16.0355962,17.0008637 16.3498183,16.8706558 16.611107,16.611107 C16.8706624,16.3498183 17.0008624,16.0355962 17,15.6666631 C17.0008637,15.2977299 16.8706558,14.9835079 16.611107,14.7222191 L10.8888879,9 L16.611107,3.27778086 Z" id="Path" fill="#484848"></path>
    </g>
</svg>