<?xml version="1.0" encoding="UTF-8"?>
<svg width="60px" height="60px" viewBox="0 0 60 60" version="1.1" xmlns="http://www.w3.org/2000/svg" xmlns:xlink="http://www.w3.org/1999/xlink">
    <!-- Generator: Sketch 55.2 (78181) - https://sketchapp.com -->
    <title>icon/icon-claimed</title>
    <desc>Created with Sketch.</desc>
    <g id="icon/icon-claimed" stroke="none" stroke-width="1" fill="none" fill-rule="evenodd">
        <circle id="Oval" fill="#CACAFC" cx="31" cy="28" r="14"></circle>
        <path d="M52.5336,9.66215 L30.7117765,3.23595 C30.4741832,3.1650495 30.2236345,3.1650495 29.9860412,3.23595 L8.16864118,9.66215 C7.62433694,9.821133 7.25286,10.31742 7.25286,10.88249 L7.25286,35.64349 C7.25286,35.828257 7.29389874,36.013024 7.37165388,36.178453 C7.65460494,36.784333 14.4647833,51.060903 29.8304656,57.845703 C29.9946228,57.9166035 30.1717354,57.955274 30.348848,57.955274 C30.5259606,57.955274 30.7030787,57.9187502 30.8672304,57.845703 C46.2351245,51.063103 53.0473598,36.784553 53.3304656,36.178453 C53.4082258,36.013024 53.4492595,35.828257 53.4492595,35.64349 L53.4492595,10.88084 C53.4492595,10.31797 53.0755929,9.819505 52.5334784,9.6627 L52.5336,9.66215 Z M50.8920282,35.3466 C49.9524706,37.204995 43.4444635,49.26655 30.3491576,55.2841 C17.2837106,49.2792 10.7523694,37.20505 9.81015765,35.3466 L9.81015765,11.8297 L30.3491576,5.7819 L50.8920282,11.8297 L50.8920282,35.3466 Z" id="Shape" fill="#0F0E9F" fill-rule="nonzero"></path>
        <path d="M32.0874941,19.5946 L32.0874941,18.9071 C32.0874941,18.204585 31.5173012,17.635225 30.8088176,17.635225 C30.1025459,17.635225 29.5301412,18.204585 29.5301412,18.9071 L29.5301412,19.5946 L28.9167082,19.5946 C25.9641129,19.5946 23.5622471,21.68504 23.5622471,24.254585 L23.5622471,24.4372015 C23.5622471,25.8981115 24.5666094,27.1635515 26.5537694,28.2012915 C26.6596079,28.2571495 26.7740833,28.2958255 26.8907207,28.3194535 L27.0354365,28.3495319 C27.0483958,28.3538285 27.0591958,28.3624223 27.0743154,28.3667194 L29.5323048,28.8673074 L29.5323048,33.4520524 L28.9188719,33.4520524 C27.4004401,33.4520524 26.1174507,32.4788274 26.1174507,31.3250924 C26.1174507,30.6225774 25.545046,30.0532174 24.8387742,30.0532174 C24.1325025,30.0532174 23.5600978,30.6225774 23.5600978,31.3250924 C23.5600978,33.9010724 25.9641201,35.9958024 28.9188719,35.9958024 L29.5323048,35.9958024 L29.5323048,36.8423074 C29.5323048,37.5448224 30.1047095,38.1141824 30.8109813,38.1141824 C31.5172531,38.1141824 32.0896578,37.5448224 32.0896578,36.8423074 L32.0896578,35.9958024 L32.2019712,35.9958024 C35.1545665,35.9958024 37.5564324,33.9010724 37.5564324,31.3250924 L37.5564324,31.1446264 C37.5564324,30.1348814 37.0250891,28.6524664 34.5001606,27.3311464 C34.3921657,27.2752884 34.2798467,27.2366124 34.1610528,27.2129844 L34.1070548,27.2000935 C34.1048945,27.2000935 34.1027347,27.1979452 34.1027347,27.1979452 L32.089697,26.7875957 L32.089697,22.1383907 L32.2020104,22.1383907 C33.7204422,22.1383907 35.0055881,23.1073257 35.0055881,24.2546257 C35.0055881,24.9571407 35.5779928,25.5265007 36.2842646,25.5265007 C36.9905363,25.5265007 37.562941,24.9571407 37.562941,24.2546257 C37.562941,21.6850807 35.1589187,19.5946407 32.2041669,19.5946407 L32.0874941,19.5946 Z M34.9969047,31.325 C34.9969047,32.47659 33.7160718,33.45196 32.1997965,33.45196 L32.0874831,33.45196 L32.0874831,29.38713 L33.4612101,29.6664255 C34.5195948,30.2486555 34.9969047,30.8244505 34.9969047,31.1466955 L34.9969047,31.325 Z M29.5322976,26.26544 L27.5905341,25.867977 C26.5127412,25.275022 26.1218118,24.744327 26.1218118,24.439242 L26.1218118,24.2566255 C26.1218118,23.1093805 27.4026447,22.1403905 28.91892,22.1403905 L29.5323529,22.1403905 L29.5322976,26.26544 Z" id="Shape" fill="#0F0E9F" fill-rule="nonzero"></path>
        <path d="M22.4563647,14.26235 C18.7888165,16.359225 16.1600235,19.751625 15.0585647,23.8164 C12.7841518,32.2017 17.7930247,40.8664 26.2274235,43.13075 C27.6011506,43.4981335 28.9942859,43.68075 30.3809518,43.68075 C33.1154118,43.68075 35.8153129,42.9696 38.2493047,41.57744 C41.9168529,39.47842 44.5456459,36.08602 45.6448929,32.02119 C47.0791118,26.733875 45.692411,21.18014 41.9363165,17.16899 C41.4546549,16.653365 40.6468576,16.627581 40.1306318,17.1045355 C39.6122494,17.583635 39.5841711,18.3871355 40.0658326,18.9006155 C43.2171549,22.2650755 44.3792161,26.9207155 43.1761267,31.3570155 C42.2538208,34.7644305 40.0507373,37.6110655 36.9748914,39.3705155 C33.9013126,41.1279305 30.3202444,41.5920205 26.8947738,40.6703305 C19.8232091,38.7711255 15.621962,31.5073305 17.5273973,24.4755805 C18.4518596,21.0681655 20.6549432,18.2215305 23.7330561,16.4620805 C26.8087914,14.7046655 30.3899149,14.2405755 33.8153855,15.1622655 C34.4957796,15.3470325 35.1977385,14.9431235 35.3813149,14.2663705 C35.5648914,13.5896175 35.1610011,12.8913705 34.4806291,12.7066255 C30.3919055,11.6130605 26.1240291,12.1630715 22.4563702,14.2620805 L22.4563647,14.26235 Z" id="Path" fill="#0F0E9F" fill-rule="nonzero"></path>
    </g>
</svg>