<?xml version="1.0" encoding="UTF-8"?>
<svg width="40px" height="40px" viewBox="0 0 40 40" version="1.1" xmlns="http://www.w3.org/2000/svg" xmlns:xlink="http://www.w3.org/1999/xlink">
    <!-- Generator: Sketch 55.2 (78181) - https://sketchapp.com -->
    <title>icon/icon-menu</title>
    <desc>Created with Sketch.</desc>
    <g id="icon/icon-menu" stroke="none" stroke-width="1" fill="none" fill-rule="evenodd">
        <g id="Shape-2" transform="translate(5.000000, 8.000000)" fill="#FFFFFF" fill-rule="nonzero">
            <path d="M2.21428571,0 C0.991815476,0 0,0.988051471 0,2.20588235 C0,3.42371324 0.991815476,4.41176471 2.21428571,4.41176471 L28.7857143,4.41176471 C30.0081845,4.41176471 31,3.42371324 31,2.20588235 C31,0.988051471 30.0081845,0 28.7857143,0 L2.21428571,0 Z M2.21428571,10.2941176 C0.991815476,10.2941176 0,11.2821691 0,12.5 C0,13.7178309 0.991815476,14.7058824 2.21428571,14.7058824 L28.7857143,14.7058824 C30.0081845,14.7058824 31,13.7178309 31,12.5 C31,11.2821691 30.0081845,10.2941176 28.7857143,10.2941176 L2.21428571,10.2941176 Z M2.21428571,20.5882353 C0.991815476,20.5882353 0,21.5762868 0,22.7941176 C0,24.0119485 0.991815476,25 2.21428571,25 L28.7857143,25 C30.0081845,25 31,24.0119485 31,22.7941176 C31,21.5762868 30.0081845,20.5882353 28.7857143,20.5882353 L2.21428571,20.5882353 Z" id="Shape"></path>
        </g>
    </g>
</svg>