<svg xmlns="http://www.w3.org/2000/svg" width="40" height="39" viewBox="0 0 40 39">
    <g fill="#0F0E9F" fill-rule="evenodd">
        <path d="M5.577 28.184l-2.54 6.688h8.475z"/>
        <path d="M20 39.024c-7.954 0-14.423-6.564-14.423-14.634v-9.756C5.577 6.564 12.047 0 20 0c7.954 0 14.423 6.564 14.423 14.634v9.756c0 8.07-6.47 14.634-14.423 14.634zM20 2.44c-6.627 0-12.02 5.471-12.02 12.195v9.756c0 6.724 5.393 12.195 12.02 12.195s12.02-5.47 12.02-12.195v-9.756C32.02 7.91 26.626 2.44 20 2.44z"/>
        <path d="M6.779 17.073a1.21 1.21 0 0 1-1.202-1.22c0-.673.538-1.219 1.202-1.219 14.584 0 15.625-6.183 15.634-6.247a1.219 1.219 0 0 1 1.338-1.049c.652.081 1.118.663 1.05 1.325-.037.344-1.06 8.41-18.022 8.41z"/>
        <path d="M33.224 16.83c-.045 0-.087-.004-.132-.008-5.237-.569-9.226-2.083-11.858-4.503a1.238 1.238 0 0 1-.083-1.724c.448-.5 1.21-.53 1.7-.083 1.544 1.42 4.62 3.247 10.501 3.886.658.07 1.137.674 1.065 1.341a1.21 1.21 0 0 1-1.193 1.09zM20 34.146c-1.988 0-3.606-1.641-3.606-3.658s1.618-3.659 3.606-3.659c1.988 0 3.606 1.642 3.606 3.659S21.988 34.146 20 34.146zm0-4.878c-.664 0-1.202.55-1.202 1.22 0 .67.538 1.22 1.202 1.22.661 0 1.202-.55 1.202-1.22 0-.67-.54-1.22-1.202-1.22zM28.413 23.17a1.21 1.21 0 0 1-1.201-1.219c0-.67-.541-1.22-1.202-1.22-.661 0-1.202.55-1.202 1.22a1.21 1.21 0 0 1-1.202 1.22 1.21 1.21 0 0 1-1.202-1.22c0-2.017 1.618-3.658 3.606-3.658 1.987 0 3.605 1.641 3.605 3.658a1.21 1.21 0 0 1-1.202 1.22zM16.394 23.17a1.21 1.21 0 0 1-1.202-1.219c0-.67-.538-1.22-1.202-1.22-.664 0-1.202.55-1.202 1.22a1.21 1.21 0 0 1-1.201 1.22 1.21 1.21 0 0 1-1.202-1.22c0-2.017 1.618-3.658 3.605-3.658 1.988 0 3.606 1.641 3.606 3.658a1.21 1.21 0 0 1-1.202 1.22z"/>
        <path d="M31.774 31.707h-9.37a1.21 1.21 0 0 1-1.202-1.22c0-.673.538-1.219 1.202-1.219h9.37a1.21 1.21 0 0 1 1.202 1.22 1.21 1.21 0 0 1-1.202 1.22z"/>
        <path d="M38.029 36.585H27.596a1.21 1.21 0 0 1-1.202-1.22c0-.673.538-1.219 1.202-1.219h7.961c-3.04-5.346-3.49-15.695-3.538-17.029a1.214 1.214 0 0 1 1.158-1.264c.654-.1 1.219.503 1.246 1.176.137 3.919 1.187 14.687 4.378 17.402.388.33.532.869.356 1.35a1.201 1.201 0 0 1-1.128.804zM12.404 36.585H1.97c-.505 0-.957-.322-1.13-.802a1.23 1.23 0 0 1 .356-1.35C4.39 31.719 5.44 20.95 5.577 17.029c.024-.673.641-1.221 1.245-1.176.662.025 1.18.59 1.159 1.264-.048 1.334-.5 11.683-3.538 17.03h7.96a1.21 1.21 0 0 1 1.203 1.219 1.21 1.21 0 0 1-1.202 1.22z"/>
        <path d="M5.577 24.39c-2.652 0-4.808-2.187-4.808-4.878 0-2.69 2.156-4.878 4.808-4.878.568 0 1.098.098 1.626.297.62.237.934.94.701 1.57a1.199 1.199 0 0 1-1.549.714c-1.468-.557-3.182.668-3.182 2.297 0 1.63 1.687 2.866 3.188 2.296a1.197 1.197 0 0 1 1.546.72 1.228 1.228 0 0 1-.706 1.568 4.597 4.597 0 0 1-1.624.294zM34.423 24.39a4.523 4.523 0 0 1-1.62-.295 1.224 1.224 0 0 1-.709-1.57c.233-.63.933-.955 1.546-.719 1.512.572 3.184-.664 3.187-2.294 0-1.63-1.726-2.857-3.182-2.297a1.199 1.199 0 0 1-1.548-.712 1.221 1.221 0 0 1 .702-1.57 4.462 4.462 0 0 1 1.624-.299c2.652 0 4.808 2.188 4.808 4.878s-2.156 4.878-4.808 4.878zM33.984 27.694l-4.369 7.178h7.726z"/>
        <path d="M21.202 1.648c-6.562.114-13.84.768-13.927 14.194 3.194.046 11.138-.202 15.129-4.76 2.617 2.588 4.741 4.32 10.572 4.313.22-7.198-5.212-13.861-11.774-13.747z"/>
    </g>
</svg>
