<?xml version="1.0" encoding="UTF-8"?>
<svg width="160px" height="160px" viewBox="0 0 160 160" version="1.1" xmlns="http://www.w3.org/2000/svg" xmlns:xlink="http://www.w3.org/1999/xlink">
    <!-- Generator: Sketch 55.2 (78181) - https://sketchapp.com -->
    <title>icon/icon-confirmation</title>
    <desc>Created with Sketch.</desc>
    <defs>
        <polygon id="path-1" points="0.241450617 0.193186944 9.55877307 0.193186944 9.55877307 13.4965151 0.241450617 13.4965151"></polygon>
    </defs>
    <g id="icon/icon-confirmation" stroke="none" stroke-width="1" fill="none" fill-rule="evenodd">
        <ellipse id="shadow" fill="#E7E7E7" cx="79.5" cy="155" rx="76.5" ry="5"></ellipse>
        <g id="Check" transform="translate(67.000000, 11.000000)" fill="#00BF6C" fill-rule="nonzero">
            <path d="M13,0 C20.17938,0 26,5.82062 26,13 C26,20.17938 20.17938,26 13,26 C5.82062,26 0,20.17938 0,13 C0,5.82062 5.82062,0 13,0 Z M6.1683587,13.9445923 L10.0024122,18.125378 C10.7481256,18.938978 11.9510001,18.8376727 12.6346502,18.0261609 L19.8807581,9.39823321 C21.3534388,7.64259565 18.7047583,5.37730342 17.2319452,7.13502645 L11.2125416,14.3017944 L8.70856079,11.5717117 C7.16229902,9.88382485 4.62315604,12.2589246 6.1683587,13.9445923 Z" id="Shape"></path>
        </g>
        <g id="Group-148" transform="translate(18.000000, 42.000000)">
            <path d="M43.9320679,85.9268677 C43.1795988,89.1672237 43.1218827,94.2011941 43.989784,95.4741911 C45.4366975,93.9120309 47.0570679,89.6301318 46.9413272,86.0425947 C45.5524383,85.2325056 43.9320679,85.9268677 43.9320679,85.9268677" id="Fill-1" fill="#E8473E"></path>
            <path d="M69.568642,85.9268677 C69.2214198,88.4151525 72.693642,93.1019418 77.7862346,95.0112831 C74.6032099,89.5144047 72.4044444,84.9430338 72.4044444,84.9430338 L69.568642,85.9268677 Z" id="Fill-3" fill="#E8473E"></path>
            <path d="M64.9968827,13.7135264 C60.7434877,9.7207905 53.6252778,9.7207905 51.1079938,20.7438647 C49.6323765,25.1704997 41.2990432,35.0650042 49.7191049,39.4049211 C58.1391667,43.7445294 69.3663272,41.3932653 67.080216,29.2499537 C65.6913272,21.8721258 67.6879321,16.4042564 64.9968827,13.7135264" id="Fill-5" fill="#2D2D2D"></path>
            <path d="M61.1774383,26.9642682 C60.830216,26.7328142 58.688858,26.1541792 58.688858,26.1541792 L58.9305247,24.9472237 C57.1703395,25.3968617 55.6502778,24.9629626 55.0919444,24.7617519 C55.0515123,25.0040071 54.9984259,25.3240309 54.9274383,25.7489804 C54.9274383,25.7489804 54.2910185,25.054927 52.9021296,23.8396392 C48.2144753,31.0147134 58.3416358,31.1884582 58.3416358,31.1884582 C58.3416358,31.1884582 61.5823765,30.0311881 61.1774383,26.9642682" id="Fill-7" fill="#F9BDAC"></path>
            <path d="M58.9304321,24.9471929 L59.152037,23.8396083 L55.2168519,24.0133531 C55.2168519,24.0133531 55.2165432,24.0145875 55.0918519,24.7617211 C56.027037,25.2863501 57.7051235,25.5755134 58.9304321,24.9471929" id="Fill-9" fill="#F6AD9C"></path>
            <path d="M62.6820679,21.0621911 C66.6172531,21.0621911 62.739784,26.0961614 61.1774383,22.7980961 C61.1774383,22.7980961 59.0941049,25.8069982 55.2169444,24.013384 C50.8184877,22.0460249 52.7860802,18.169016 55.8533642,14.5814789 C57.2277469,13.0193187 59.9042901,13.0193187 61.6404012,14.4657519 C63.3765123,15.9124938 63.6079938,19.3843039 62.6820679,21.0621911" id="Fill-11" fill="#F9BDAC"></path>
            <path d="M63.8394753,47.5058113 L65.8070679,54.6808855 C65.8070679,54.6808855 65.864784,55.4403632 67.3187963,56.1131228 C68.7728086,56.7855739 69.6126235,57.0340012 68.8163272,56.1998409 C68.360463,55.7224285 68.0783642,55.4187608 68.0783642,55.4187608 C68.0783642,55.4187608 72.0570679,55.7153306 72.664784,55.129289 C72.9468827,54.8617282 72.6033642,54.5290516 71.9629321,54.4855383 C72.1691049,53.9322089 71.485463,53.3788795 70.7150926,53.1946421 C69.4110802,52.8823335 68.0783642,53.1835323 68.0783642,53.1835323 L67.3839198,46.7173246 L63.8394753,47.5058113 Z" id="Fill-13" fill="#F9BDAC"></path>
            <g id="Group-17" transform="translate(44.444444, 0.115418)">
                <mask id="mask-2" fill="white">
                    <use xlink:href="#path-1"></use>
                </mask>
                <g id="Clip-16"></g>
                <path d="M4.64546296,13.383257 C4.50811728,11.0332273 4.85348765,8.4103905 6.02694444,5.55517389 C6.95287037,6.39427181 7.90780864,5.55517389 7.70533951,4.62935786 C7.70533951,4.62935786 9.20996914,4.25316795 9.55719136,2.71970801 C9.61490741,1.27327478 8.08126543,0.173713947 6.89515432,0.28944095 C6.37416667,-0.115449258 4.05935185,0.694639763 3.79885802,3.87697804 C1.78064815,6.99265757 0.629722222,10.2601709 0.241450617,13.4965151 C1.2670679,13.1391501 2.67817901,12.9527525 4.64546296,13.383257" id="Fill-15" fill="#F9BDAC" mask="url(#mask-2)"></path>
            </g>
            <path d="M60.193642,44.3233187 C61.0618519,39.3470576 61.6982716,35.8175383 61.6982716,35.8175383 L63.8396296,47.5059656 C65.1704938,48.6052178 67.1380864,47.7951288 67.3115432,46.9850398 C66.3856173,36.2804463 67.2538272,29.2207905 61.2933333,26.7328142 C59.4991975,30.5518053 50.7609259,29.7417163 52.9019753,23.8396392 C51.4843827,21.6562564 49.3587654,18.1020487 49.0899383,13.4985828 C47.1226543,13.0683869 45.7115432,13.254476 44.6859259,13.6118409 C44.1226543,18.3091228 45.1670988,22.941289 47.505679,26.9497638 C48.5905556,28.9026184 48.2433333,33.0687905 48.2433333,33.0687905 C48.2433333,33.0687905 47.9828395,41.3144166 48.4603086,42.6596273 C48.46,42.6605531 48.4596914,42.6620961 48.4593827,42.663022 C50.147963,43.8770754 53.2458025,45.02447 60.193642,44.3233187" id="Fill-18" fill="#3D55F5"></path>
            <path d="M47.5200309,86.6790932 C47.9829938,84.3068439 53.8857716,52.9448261 53.8857716,52.9448261 C54.9274383,53.1762801 55.3904012,53.2342979 55.3904012,53.2342979 C55.3904012,53.2342979 64.2447222,76.9003157 69.3373148,86.7948202 C71.4783642,87.315746 72.5780556,85.9847312 72.809537,85.4060961 C72.0570679,81.9923039 63.5502778,50.283105 60.1937963,44.3233187 C53.2456481,45.02447 50.1481173,43.8770754 48.4592284,42.663022 C47.8055247,44.4600309 44.3947222,62.7945828 43.5848457,85.6952593 C43.526821,86.621384 45.4366975,87.894381 47.5200309,86.6790932" id="Fill-20" fill="#2A338A"></path>
            <path d="M58.5152469,16.0377258 C58.4353086,16.0377258 58.367716,15.9763134 58.3615432,15.8951501 C58.2880864,14.9403252 57.8368519,14.9103905 57.817716,14.9094647 C57.7340741,14.9057614 57.6664815,14.835708 57.6683333,14.7517674 C57.6701852,14.6681353 57.7371605,14.6008593 57.8208025,14.6008593 C57.8516667,14.6008593 58.5726543,14.6153638 58.6692593,15.8716961 C58.6757407,15.9565626 58.6121605,16.0309365 58.527284,16.0371086 C58.5232716,16.0377258 58.5192593,16.0377258 58.5152469,16.0377258" id="Fill-22" fill="#2D2D2D"></path>
            <path d="M61.9876235,17.6289567 C61.9481173,17.6289567 61.9086111,17.613835 61.8783642,17.5839003 C61.3172531,17.0225472 60.5589198,17.2370279 60.5271296,17.2465947 C60.4453395,17.2697401 60.359537,17.2240665 60.3351543,17.1425947 C60.3110802,17.0608142 60.3570679,16.9753306 60.4385494,16.9509507 C60.4777469,16.9386065 61.4030556,16.6716629 62.0968827,17.3654077 C62.1570679,17.4258944 62.1570679,17.5234136 62.0968827,17.5839003 C62.0666358,17.613835 62.0271296,17.6289567 61.9876235,17.6289567" id="Fill-24" fill="#2D2D2D"></path>
            <path d="M56.1716358,20.3485412 C56.1117593,20.3485412 56.0546605,20.3133602 56.0296605,20.2547252 C55.5052778,19.0243157 56.4278086,18.4373484 57.168858,17.9651822 C57.585216,17.7003988 57.9781173,17.4498113 58.0793519,17.1378113 C58.1055864,17.0569567 58.1916975,17.0122089 58.2734877,17.0384404 C58.3546605,17.0646718 58.3991049,17.1520071 58.3728704,17.2328617 C58.2376852,17.6507134 57.7991049,17.9300012 57.3345988,18.2256451 C56.5926235,18.6978113 55.8916975,19.1443632 56.3136111,20.1337519 C56.3469444,20.2121377 56.3105247,20.3028677 56.2321296,20.336197 C56.2123765,20.3445294 56.1916975,20.3485412 56.1716358,20.3485412" id="Fill-26" fill="#F7A389"></path>
            <path d="M57.4652778,22.3053769 C56.8134259,22.3053769 56.3285494,22.0078813 56.3208333,22.0029436 C56.2489198,21.9575786 56.2273148,21.8625282 56.2723765,21.7906231 C56.3177469,21.7181009 56.4125,21.6971157 56.4850309,21.7415549 C56.5291667,21.7693294 57.5800926,22.4072166 58.6066358,21.5789199 C58.6726852,21.5249139 58.7699074,21.5357151 58.8236111,21.6017567 C58.8770062,21.6681068 58.866821,21.7653175 58.800463,21.8187062 C58.3402778,22.1902671 57.870216,22.3053769 57.4652778,22.3053769" id="Fill-28" fill="#2D2D2D"></path>
            <path d="M61.4666358,20.1170872 C61.3990432,20.1170872 61.3366975,20.0720309 61.318179,20.0038291 C61.2129321,19.6214671 61.0218827,19.3585353 60.7493519,19.2221318 C60.2558333,18.9743217 59.6484259,19.2070101 59.6422531,19.2097875 C59.5632407,19.2406481 59.4734259,19.2017638 59.4422531,19.1221436 C59.4110802,19.0431407 59.4502778,18.9533365 59.5295988,18.9221674 C59.559537,18.910749 60.2721914,18.6373246 60.8879321,18.94593 C61.2416358,19.123378 61.4863889,19.4517341 61.6154012,19.9217401 C61.6382407,20.0041377 61.589784,20.0890042 61.5076852,20.1115323 C61.4937963,20.1152356 61.480216,20.1170872 61.4666358,20.1170872" id="Fill-30" fill="#2D2D2D"></path>
            <path d="M56.981821,17.5421769 C56.9148457,17.5421769 56.8531173,17.4980463 56.8336728,17.4307703 C56.7006481,16.9697139 56.4926235,16.67407 56.2148457,16.5527881 C55.8670062,16.4003371 55.5207099,16.5694528 55.5173148,16.5713045 C55.4410802,16.6092629 55.3484877,16.5784024 55.310216,16.5021769 C55.2719444,16.4259513 55.3031173,16.3333697 55.3793519,16.2951027 C55.3987963,16.2855359 55.860216,16.060254 56.3389198,16.2701056 C56.7043519,16.4299632 56.9704012,16.7916487 57.1299691,17.344978 C57.1537346,17.4270671 57.1065123,17.5125507 57.0247222,17.5360047 C57.010216,17.5403252 56.9957099,17.5421769 56.981821,17.5421769" id="Fill-32" fill="#2D2D2D"></path>
            <path d="M61.8430864,22.518438 C61.7995679,22.518438 61.7560494,22.4999217 61.7258025,22.4641234 C61.6702469,22.3993163 61.677963,22.3024142 61.7424691,22.2468653 C62.1267284,21.9182006 63.0470988,21.4787466 63.7791975,22.1724914 C63.8412346,22.2311264 63.8437037,22.3289543 63.7850617,22.3906754 C63.7267284,22.4523964 63.6288889,22.4545567 63.5668519,22.3965389 C62.8548148,21.7219276 61.9798148,22.4499276 61.9430864,22.4817139 C61.9140741,22.5060938 61.8785802,22.518438 61.8430864,22.518438" id="Fill-34" fill="#F7A389"></path>
            <path d="M50.4735185,3.91561543 C50.462716,3.91561543 50.4519136,3.91438101 50.4411111,3.91222077 C50.359321,3.89617329 50.1935802,3.80328309 49.9935802,3.36907537 C49.0139506,2.26272522 50.513642,0.709823145 50.5781481,0.643781602 C50.6380247,0.583603561 50.7358642,0.582677745 50.796358,0.64192997 C50.8571605,0.701490801 50.8583951,0.799010089 50.7985185,0.860113947 C50.7846296,0.874309792 49.4219753,2.28710504 50.2380247,3.17959169 L50.2648765,3.22001899 C50.4173457,3.55794184 50.5229012,3.61595964 50.5238272,3.61626825 C50.6074691,3.63324154 50.650679,3.71101009 50.6340123,3.79464214 C50.6191975,3.867473 50.5469753,3.91561543 50.4735185,3.91561543" id="Fill-36" fill="#F7A389"></path>
            <path d="M50.4280247,5.36189436 C50.3434568,5.36189436 50.274321,5.29369258 50.2737037,5.20913472 C50.2591975,3.67876083 50.486358,3.0007549 51.0335802,2.94211988 C51.0891358,2.93656499 51.1740123,2.94458872 51.2573457,3.01680237 C51.6005556,3.31645816 51.6591975,4.72184688 51.6675309,5.00051751 C51.6696914,5.08538398 51.6030247,5.15667181 51.5175309,5.15944926 C51.4453086,5.16099228 51.361358,5.09525935 51.3588889,5.00946706 C51.3332716,4.14907537 51.1888272,3.32540772 51.0502469,3.24640475 C50.728642,3.28528902 50.5703086,3.9253365 50.5823457,5.20604866 C50.582963,5.29122374 50.5147531,5.36096855 50.4295679,5.36189436 L50.4280247,5.36189436 Z" id="Fill-38" fill="#F7A389"></path>
            <path d="M51.552716,4.38003561 C51.5132099,4.38003561 51.4897531,4.37787537 51.4845062,4.37756677 C51.399321,4.36985163 51.3369753,4.29455193 51.345,4.20968546 C51.352716,4.1251276 51.4258642,4.06494955 51.512284,4.07019585 C51.5246296,4.06927003 52.2468519,4.11833828 53.0588889,3.3860178 C53.1221605,3.32861721 53.2193827,3.3335549 53.2770988,3.3971276 C53.3338889,3.4607003 53.3289506,3.55821958 53.265679,3.61500297 C52.4841975,4.31985757 51.7724691,4.38003561 51.552716,4.38003561" id="Fill-40" fill="#F7A389"></path>
            <path d="M72.1043827,54.6615976 C72.0941975,54.6615976 72.0837037,54.6606718 72.0732099,54.6585116 C71.5080864,54.5434018 69.6145679,54.5171703 69.5954321,54.5168617 C69.5105556,54.5156273 69.442037,54.4458825 69.4432552,54.3603988 C69.4445062,54.2761496 69.5130247,54.2082564 69.5975926,54.2082564 L69.5997531,54.2082564 C69.6787654,54.2091822 71.5417284,54.235105 72.1349383,54.3560783 C72.2182716,54.3730516 72.272284,54.4545234 72.2553086,54.5381555 C72.2401852,54.611295 72.1759877,54.6615976 72.1043827,54.6615976" id="Fill-42" fill="#F7A389"></path>
            <path d="M53.5383951,49.974654 C53.4637037,49.974654 53.397963,49.9203395 53.3859259,49.8441139 C53.0396296,47.6354255 53.3819136,44.7638528 53.3853086,44.7348439 C53.3958025,44.6502861 53.4711111,44.5882564 53.5572222,44.6006006 C53.6417901,44.6107846 53.7019753,44.6876273 53.6917901,44.7724938 C53.6883951,44.8005769 53.351358,47.6304878 53.6911728,49.7965887 C53.7041358,49.8805294 53.6467284,49.9595323 53.5624691,49.9728024 C53.5544444,49.9740368 53.5461111,49.974654 53.5383951,49.974654" id="Fill-44" fill="#272A6E"></path>
            <path d="M55.6265432,45.7322564 C55.6265432,46.0152475 55.3972222,46.2445412 55.1141975,46.2445412 C54.8311728,46.2445412 54.6018519,46.0152475 54.6018519,45.7322564 C54.6018519,45.4495739 54.8311728,45.2202801 55.1141975,45.2202801 C55.3972222,45.2202801 55.6265432,45.4495739 55.6265432,45.7322564" id="Fill-46" fill="#2BB46C"></path>
            <path d="M46.8834568,71.1526955 C46.8235802,71.1526955 46.7667901,71.1178231 46.7417901,71.0591881 L46.0473457,69.4390101 C46.0137037,69.3606243 46.0498148,69.2698944 46.1282099,69.2362564 C46.2059877,69.2026184 46.2973457,69.2390338 46.330679,69.3174196 L47.0251235,70.9375976 C47.0587654,71.0159834 47.0226543,71.1067134 46.9442593,71.1403513 C46.9245062,71.1486837 46.9038272,71.1526955 46.8834568,71.1526955" id="Fill-48" fill="#272A6E"></path>
            <path d="M48.2146296,70.863378 C48.2041358,70.863378 48.1939506,70.8624522 48.1831481,70.8599834 C48.0998148,70.8430101 48.0461111,70.7612297 48.0633951,70.6775976 L48.4106173,68.9997104 C48.4275926,68.9160783 48.5087654,68.860838 48.5930247,68.8799715 C48.676358,68.8972534 48.7300617,68.9790338 48.7127778,69.0623573 L48.3655556,70.7405531 C48.3504321,70.813384 48.2862346,70.863378 48.2146296,70.863378" id="Fill-50" fill="#272A6E"></path>
            <path d="M65.3441049,70.4583335 C65.3033642,70.4583335 65.2623148,70.4422861 65.2323765,70.4104997 L64.1326852,69.2532297 C64.0740432,69.1915086 64.0765123,69.0936807 64.1382407,69.0350457 C64.2002778,68.9764107 64.2978086,68.9788795 64.3564506,69.040292 L65.4558333,70.197562 C65.514784,70.2592831 65.5123148,70.357111 65.4505864,70.415746 C65.4206481,70.4441377 65.3823765,70.4583335 65.3441049,70.4583335" id="Fill-52" fill="#272A6E"></path>
            <path d="M66.8484259,69.358927 C66.7765123,69.358927 66.7123148,69.3083157 66.6975,69.2348677 L66.4079938,67.7881258 C66.3913272,67.7048024 66.4453395,67.6233306 66.5292901,67.6066659 C66.6092284,67.5900012 66.6937963,67.6436985 66.7107716,67.7279478 L66.9999691,69.174381 C67.0169444,69.2580131 66.9626235,69.3394849 66.8789815,69.3558409 C66.8687963,69.3580012 66.8586111,69.358927 66.8484259,69.358927" id="Fill-54" fill="#272A6E"></path>
            <polygon id="Fill-56" fill="#F6AD9C" points="101.686698 39.4338682 101.252747 42.0955893 103.943488 44.0629484 105.737623 43.7447763 106.171574 40.6201472"></polygon>
            <path d="M95.8996605,89.96287 L93.9465741,91.612057 C93.9465741,91.612057 93.3823765,101.072662 98.1999691,103.806597 C97.3752778,100.031119 96.8978086,96.3423596 98.9379321,92.3496237 C97.7225,91.3515941 95.8996605,89.96287 95.8996605,89.96287" id="Fill-58" fill="#E8473E"></path>
            <path d="M96.4638889,84.5381436 L94.9447531,85.1457875 C92.1234568,89.7893721 91.9064815,97.731022 91.9064815,97.731022 C91.9064815,97.731022 96.0299383,89.6591407 97.5055556,88.1401852 C97.2018519,86.8381792 96.4638889,84.5381436 96.4638889,84.5381436" id="Fill-60" fill="#E8473E"></path>
            <path d="M107.227778,61.3207454 L107.401235,58.4130659 C104.716358,60.0323181 96.9716049,58.3044368 94.3910494,56.7623359 C94.1373457,59.2105021 93.9361111,61.2784665 93.9030864,62.0151074 C93.816358,63.967962 94.1635802,66.0945614 98.2867284,70.3474516 C102.410185,74.6003418 104.146296,75.5116534 102.019444,81.196781 C96.6808642,84.2778967 96.0731481,84.538051 96.0731481,84.538051 C95.7694444,85.7098255 95.7694444,88.2271193 96.4203704,89.0949175 C95.8561728,89.7457662 95.682716,90.0062291 95.682716,90.0062291 C95.9429012,91.7856475 96.7675926,93.0441401 98.2867284,93.4348344 C101.672222,90.961054 104.623457,88.3138374 106.620062,85.840057 C110.916975,83.496508 118.092901,78.6943003 115.908333,70.5208878 C113.955247,64.315143 107.227778,61.3207454 107.227778,61.3207454" id="Fill-62" fill="#2A338A"></path>
            <path d="M108.862623,35.470203 C111.293179,32.2875561 112.797809,26.2700605 106.026821,24.5341555 C96.4203395,22.6245056 94.2792901,32.0561021 98.0987346,34.9495858 C101.918179,37.8424522 108.862623,35.470203 108.862623,35.470203" id="Fill-64" fill="#2D2D2D"></path>
            <path d="M107.965617,29.5536831 C109.831975,31.1158433 109.441235,32.9819798 109.527963,34.9348344 C109.615,36.8879976 110.309444,42.4860985 103.538457,40.8804249 C100.109753,39.8823953 100.066235,37.0614338 100.066235,37.0614338 C97.4187037,39.0142884 95.6390741,32.7650303 98.5906173,34.0235228 C99.2850617,34.4142172 100.24,36.8009709 100.500494,33.6763418 C100.760679,30.5517128 101.194938,29.0330659 103.798951,29.6404012 C106.403272,30.2480451 107.965617,29.5536831 107.965617,29.5536831" id="Fill-66" fill="#F9BDAC"></path>
            <path d="M99.3718827,36.4056783 C99.3064506,36.4056783 99.2459568,36.3640166 99.2246605,36.2982837 C98.7799074,34.9117199 97.7657099,35.0910196 97.7231173,35.100895 C97.6404012,35.1150908 97.5586111,35.0623193 97.5419444,34.9789958 C97.5258951,34.8953638 97.580216,34.8145092 97.6641667,34.7978445 C97.6780556,34.7969187 98.9916358,34.5599098 99.5191049,36.2044677 C99.5450309,36.2853223 99.5002778,36.372349 99.4187963,36.3985804 C99.4033642,36.4032095 99.3876235,36.4056783 99.3718827,36.4056783" id="Fill-68" fill="#F7A389"></path>
            <path d="M106.374198,37.2736309 C106.340247,37.2736309 106.305679,37.2625211 106.277284,37.2393757 C106.210926,37.1856783 106.200741,37.0884677 106.254136,37.0224261 C106.929444,36.1882659 106.709691,35.9392214 106.310617,35.4861887 C105.91679,35.0393282 105.377284,34.4270552 105.585,33.0460463 C105.597654,32.9611798 105.677284,32.9019276 105.760617,32.916432 C105.844877,32.9290849 105.902901,33.0077792 105.890247,33.0917199 C105.703519,34.3310789 106.168642,34.8584855 106.542099,35.2822006 C106.966481,35.7639335 107.333148,36.1799335 106.494259,37.2162303 C106.463704,37.2541887 106.419259,37.2736309 106.374198,37.2736309" id="Fill-70" fill="#F7A389"></path>
            <path d="M106.923951,85.5603988 C106.88784,85.5603988 106.852037,85.5480546 106.822716,85.5224404 C106.75821,85.4662742 106.75142,85.3690635 106.807593,85.3048736 C110.410679,81.1714136 111.944012,77.1759003 111.364691,73.4285056 C110.556358,68.1970279 105.820864,65.2572534 105.773025,65.2279359 C105.700185,65.1838053 105.677346,65.0887549 105.721481,65.0162326 C105.765617,64.9434018 105.860679,64.9199478 105.933519,64.9646955 C105.982593,64.9940131 110.837222,68.0041496 111.669321,73.378203 C112.264383,77.2206481 110.706975,81.3013365 107.040309,85.5073187 C107.009753,85.5424997 106.96716,85.5603988 106.923951,85.5603988" id="Fill-72" fill="#272A6E"></path>
            <path d="M96.5941049,89.0539347 C96.5579938,89.0539347 96.5218827,89.0412819 96.4925617,89.0156677 C96.4283642,88.9595015 96.4218827,88.8619822 96.4780556,88.7981009 C100.988241,83.6499466 101.703056,81.5393947 101.709537,81.5187181 C101.735772,81.4375549 101.823117,81.3931157 101.903673,81.4190386 C101.984846,81.4449614 102.02929,81.5313709 102.003673,81.6125341 C101.976204,81.698635 101.279599,83.7860415 96.7101543,89.0011632 C96.6795988,89.0360356 96.6370062,89.0539347 96.5941049,89.0539347" id="Fill-74" fill="#272A6E"></path>
            <path d="M83.6923148,57.6075134 C83.8058951,58.2697804 83.948179,58.9524154 84.123179,59.65727 C83.0815123,61.9137923 81.4321296,64.4307774 82.4157716,64.9807122 C82.589537,65.7908012 83.2839815,66.1666825 83.8626852,66.4561543 C83.6312037,67.0057804 84.0074383,68.1340415 85.0778086,66.4271454 C86.1484877,64.7202493 86.7562037,63.3892344 86.7562037,63.3892344 C86.7562037,63.3892344 86.6694753,65.1541484 87.248179,65.3565935 C87.8268827,65.5593472 88.6136111,61.1314777 87.6821296,59.541543 C87.4401543,59.1286291 87.2617593,58.5141958 87.1577469,57.7707656 C85.7416975,58.1472641 84.6021914,58.0617804 83.6923148,57.6075134" id="Fill-76" fill="#F9BDAC"></path>
            <path d="M124.648858,37.8287501 C124.406574,35.9332961 123.894537,34.8482398 123.894537,34.8482398 C124.892685,32.0272783 122.505648,28.9026493 121.594228,29.2498303 C120.899784,28.8594445 119.640833,29.1195988 119.597623,29.9009875 C118.989907,29.5970113 118.165216,29.7707561 118.946389,30.9425306 C119.72787,32.1139964 120.769537,35.1519074 119.684352,34.2841092 C118.729414,33.2857709 118.251944,33.7631834 118.555957,34.8047264 C118.85966,35.8462694 119.554105,36.5406315 120.769537,36.3671953 C120.86429,36.6097591 120.966451,37.4294148 120.944228,38.4789816 C122.627562,38.560762 123.83034,38.2277769 124.648858,37.8287501" id="Fill-78" fill="#F9BDAC"></path>
            <path d="M109.007253,49.1259276 C112.653241,50.8186279 122.288426,52.9449187 124.458796,43.093619 C124.858796,40.9836843 124.823611,39.1959335 124.64892,37.8288119 C123.830093,38.2278386 122.627623,38.5608237 120.94429,38.4790433 C120.874228,41.7487169 119.592438,47.2523846 113.087191,44.5258564 C110.222685,43.1371323 109.759722,42.2258208 105.853241,42.7899513 C103.104475,43.3975953 101.411883,41.2709958 101.411883,41.2709958 C100.109722,40.2294528 97.5276235,38.9018326 92.904784,40.5331205 C86.6908951,42.72607 82.0362654,47.959708 83.6924383,57.6076368 C84.6023148,58.0615953 85.7415123,58.1473875 87.1575617,57.770889 C86.5381173,53.3590671 88.5439815,44.3876012 95.5523148,45.7988534 C95.3720679,47.6369068 94.8103395,52.7184024 94.3912037,56.7620582 C96.9714506,58.3041591 104.716512,60.032349 107.401389,58.4130967 C108.833796,54.6808237 109.007253,49.1259276 109.007253,49.1259276 Z" id="Fill-80" fill="#00BF6C"></path>
            <path d="M104.001821,63.1675323 C103.998117,63.1675323 103.995031,63.1675323 103.991636,63.1672237 C103.906451,63.1616688 103.841944,63.0882208 103.8475,63.0033543 L104.089784,59.2710813 C104.095648,59.1859062 104.175586,59.1207905 104.253673,59.1269626 C104.338858,59.1325175 104.403364,59.2059656 104.397809,59.290832 L104.155525,63.023105 C104.149969,63.1048855 104.082377,63.1675323 104.001821,63.1675323" id="Fill-82" fill="#272A6E"></path>
            <path d="M103.378796,60.6324012 C103.378796,60.8524368 103.200401,61.0308107 102.98034,61.0308107 C102.760278,61.0308107 102.581883,60.8524368 102.581883,60.6324012 C102.581883,60.4123656 102.760278,60.2339917 102.98034,60.2339917 C103.200401,60.2339917 103.378796,60.4123656 103.378796,60.6324012" id="Fill-84" fill="#2BB46C"></path>
            <path d="M86.756142,63.5436605 L86.7536728,63.5436605 C86.6684877,63.5424261 86.6005864,63.4723727 86.601821,63.386889 C86.614784,62.5308178 86.4629321,62.2768356 86.4613889,62.2743668 C86.4172531,62.2033875 86.4360802,62.1086457 86.5055247,62.0623549 C86.5743519,62.0157555 86.6666358,62.0311858 86.7154012,62.0987703 C86.7502778,62.1484558 86.9249691,62.4416309 86.910463,63.3918267 C86.9092284,63.476076 86.8400926,63.5436605 86.756142,63.5436605" id="Fill-86" fill="#F7A389"></path>
            <path d="M105.766543,38.6334077 C105.764383,38.6334077 105.761914,38.6334077 105.759753,38.6330991 C103.741852,38.5429864 103.240617,37.2567193 103.220247,37.2020961 C103.190617,37.122476 103.231049,37.033289 103.310988,37.0036629 C103.391852,36.9737282 103.479815,37.0147727 103.509753,37.0943929 C103.530123,37.147473 103.975185,38.2442564 105.773333,38.325111 C105.858519,38.3288142 105.924568,38.4007193 105.920556,38.4858944 C105.916852,38.5689092 105.848951,38.6334077 105.766543,38.6334077" id="Fill-88" fill="#2D2D2D"></path>
            <path d="M103.68321,34.6119098 C103.637222,34.6119098 103.591235,34.5912332 103.560988,34.5517318 C102.84679,33.6237555 101.992778,34.2104142 101.956975,34.2360285 C101.888148,34.2850967 101.791235,34.2696665 101.74216,34.1999217 C101.692778,34.1304855 101.708519,34.0345092 101.777654,33.9851323 C101.788765,33.9771086 102.907284,33.1954113 103.805432,34.3634825 C103.857284,34.4310671 103.84463,34.5282777 103.777346,34.5798148 C103.749259,34.6014172 103.715926,34.6119098 103.68321,34.6119098" id="Fill-90" fill="#2D2D2D"></path>
            <path d="M106.86608,34.5247905 C106.833981,34.5247905 106.802191,34.5152237 106.774722,34.4948558 C106.706204,34.4445531 106.691389,34.3485769 106.741389,34.2797579 C106.75466,34.2618588 107.067006,33.8412297 107.590463,33.7600665 C107.924414,33.7079122 108.265154,33.8057401 108.599414,34.0510813 C108.668241,34.101384 108.683056,34.1979774 108.632747,34.2667964 C108.58213,34.335924 108.485216,34.3504285 108.416698,34.2998172 C107.594475,33.6974196 107.049722,34.3819062 106.990154,34.4621436 C106.960216,34.5031881 106.913302,34.5247905 106.86608,34.5247905" id="Fill-92" fill="#2D2D2D"></path>
            <path d="M104.232994,32.0080522 C104.165401,32.0080522 104.103673,31.9633045 104.084537,31.8957199 C104.028673,31.6966694 103.924043,31.5574884 103.765401,31.4704617 C103.457377,31.3010374 103.006759,31.3791145 102.859537,31.4229365 C102.778673,31.4479335 102.691944,31.4010255 102.667562,31.3195537 C102.64287,31.2377733 102.689167,31.151981 102.770957,31.1272926 C102.7975,31.1192688 103.430525,30.9334884 103.914167,31.2001234 C104.145957,31.3272688 104.303364,31.5331086 104.381451,31.8117792 C104.404599,31.8941769 104.356759,31.9790433 104.274969,32.0021887 C104.260772,32.0062006 104.246883,32.0080522 104.232994,32.0080522" id="Fill-94" fill="#2D2D2D"></path>
            <path d="M107.01108,31.979105 C107.002438,31.979105 106.993179,31.9784878 106.984537,31.9769448 C106.900586,31.9624404 106.844105,31.8828202 106.858611,31.7985709 C106.862006,31.7803632 106.939784,31.350476 107.275586,31.1708677 C107.47929,31.0613128 107.722809,31.0693365 107.999352,31.1918528 C108.07713,31.2267252 108.112315,31.3177638 108.077747,31.3955323 C108.043179,31.4736095 107.951821,31.5084819 107.874043,31.4739181 C107.687932,31.3918291 107.53608,31.3813365 107.420957,31.4430576 C107.219722,31.5504522 107.163241,31.8479478 107.162932,31.8510338 C107.149969,31.9260249 107.084537,31.979105 107.01108,31.979105" id="Fill-96" fill="#2D2D2D"></path>
            <path d="M120.704352,31.769346 C120.635833,31.769346 120.573179,31.7236724 120.555278,31.6542362 C120.234907,30.4343193 119.601883,30.1470077 119.595401,30.1442303 C119.517623,30.1105923 119.480895,30.0201709 119.514228,29.9420938 C119.546944,29.8640166 119.637377,29.8266754 119.714228,29.8596961 C119.746019,29.8726576 120.49108,30.1939157 120.853426,31.5758504 C120.87534,31.6585567 120.825957,31.7428059 120.743549,31.7640997 C120.730278,31.767803 120.717315,31.769346 120.704352,31.769346" id="Fill-98" fill="#F7A389"></path>
            <path d="M122.143858,35.4219988 C122.082747,35.4219988 122.025031,35.3855834 122.000648,35.3254053 C121.745093,34.69153 121.441389,34.3159573 121.121636,34.2388059 C120.856821,34.1755418 120.655586,34.3409543 120.653426,34.3428059 C120.58892,34.3986635 120.491389,34.3915656 120.435833,34.3270671 C120.379969,34.2628772 120.387068,34.1653579 120.451574,34.1095003 C120.464537,34.0983905 120.771944,33.8385448 121.194167,33.9385329 C121.62071,34.0416071 121.988302,34.4693341 122.287068,35.2099869 C122.318858,35.2889899 122.280586,35.3787941 122.201574,35.410889 C122.182747,35.4182955 122.162994,35.4219988 122.143858,35.4219988" id="Fill-100" fill="#F7A389"></path>
            <path d="M19.1058333,95.1271644 C18.5271296,98.8884463 17.7749691,101.89704 17.3697222,103.401491 C20.8419444,100.855497 23.214784,95.1271644 23.3305247,94.0276036 C22.5780556,93.1598053 21.8258951,92.4654433 21.8258951,92.4654433 L19.1058333,95.1271644 Z" id="Fill-102" fill="#E8473E"></path>
            <path d="M20.6683333,82.5129211 C20.6683333,82.5129211 22.9251235,82.9178113 23.7933333,83.4967549 C24.4300617,85.4641139 23.2146296,92.0602445 21.7680247,94.0279122 C18.4115432,90.0351763 18.7007407,89.1093602 18.7007407,89.1093602 L20.6683333,82.5129211 Z" id="Fill-104" fill="#E8473E"></path>
            <path d="M4.45453704,29.8505306 C4.59311728,28.3775573 4.93694444,26.7610825 5.50638889,24.9967858 C5.50638889,24.9967858 8.68910494,23.1741626 8.51564815,22.8559905 C8.34188272,22.5378184 7.38694444,22.5665187 6.83725309,22.7979727 C10.1937346,17.9374386 9.5137963,17.8942338 9.25330247,17.9954564 C8.99898148,18.0942101 8.92058642,18.1688926 7.2425,19.8760973 C7.2425,19.8760973 8.97861111,17.720489 8.19712963,17.2430766 C6.63478395,16.7659727 5.65083333,18.8345543 5.65083333,18.8345543 C5.65083333,18.8345543 6.34527778,17.3301033 5.73787037,17.2720855 C5.13015432,17.2143763 4.72490741,18.4003466 3.97274691,19.9338065 C3.97274691,19.9338065 1.68694444,21.3515395 2.26564815,24.2447145 C1.36873457,26.178127 0.765030864,27.9627917 0.407006173,29.6190766 C1.44280864,29.504584 2.80391975,29.5126077 4.45453704,29.8505306" id="Fill-106" fill="#F9BDAC"></path>
            <path d="M29.8153086,30.6690445 C29.6258025,28.618362 29.2375309,26.9562136 29.102963,25.994908 C29.898642,23.3189911 29.0884568,22.4653887 27.9890741,21.2068961 C27.4825926,20.078635 26.5276543,18.4729614 24.9217901,18.227003 C23.3159259,17.9810445 24.3720988,20.3968071 24.3720988,20.3968071 C24.3720988,20.3968071 23.3449383,18.1257804 22.6359877,18.7621246 C21.8548148,19.5145045 24.6612963,23.7964036 24.6612963,23.7964036 C24.6612963,23.7964036 24.0538889,23.5791454 23.0844444,23.4779228 C22.115,23.3767003 24.1406173,25.1126053 25.6452469,26.3278932 C25.6452469,26.3278932 26.1128395,28.4350504 26.0045062,31.0597389 C26.7437037,30.5739941 27.9872222,30.1410208 29.8153086,30.6690445" id="Fill-108" fill="#F9BDAC"></path>
            <path d="M12.4507407,78.5206481 C11.0618519,77.7105591 10.4254321,74.007295 14.4183333,67.2951288 L16.0967284,67.9894908 C16.0967284,67.9894908 12.9714198,74.8750932 12.4507407,78.5206481 M10.2516667,58.0946777 C10.2516667,58.0946777 9.90444444,60.4672356 10.0491975,61.9716866 C-0.88845679,77.5081139 6.6637037,83.5833187 12.4797531,84.6248617 C13.4346914,88.7043157 17.9482716,94.693111 19.0769753,95.9083988 C21.247037,95.8216807 22.1584568,94.9970872 22.3754321,92.8704878 C22.3754321,92.8704878 20.8998148,89.8325769 20.2053704,87.2288736 C21.247037,85.1457875 21.0732716,82.4553662 21.0732716,82.4553662 C21.0732716,82.4553662 20.639321,82.1949033 19.0769753,81.4138231 C19.0769753,81.4138231 19.5976543,77.9420131 21.9414815,72.9080427 C24.243642,67.9623335 25.7890123,65.4422623 22.8529012,57.702749 C20.3862346,60.2774433 13.5633951,60.9008261 10.2516667,58.0946777" id="Fill-110" fill="#2A338A"></path>
            <path d="M7.61854938,33.7632451 C6.01268519,32.7217021 5.36175926,30.985797 7.83552469,28.6422481 C8.31299383,27.9478861 9.18089506,26.0385448 12.523179,26.4289306 C13.781821,26.5159573 15.9954012,24.3458445 19.3373765,29.2934053 C21.3339815,31.4196961 21.3339815,32.6781887 20.3355247,34.5011205 C19.3373765,36.3237436 20.0750309,37.9729306 18.0787346,38.8407288" id="Fill-112" fill="#2D2D2D"></path>
            <path d="M24.0248148,46.0013602 C29.7226543,41.0899062 30.2161728,35.0069864 29.8152469,30.6689211 C27.9871605,30.1408973 26.743642,30.5741792 26.0044444,31.0596154 C25.8973457,33.6543691 25.227284,36.754927 22.9831481,38.8262861 C16.9646296,43.2239122 12.2192593,41.6037341 8.51555556,39.4049211 C5.54796296,37.5286006 4.02944444,34.3681733 4.45444444,29.8504997 C2.80382716,29.5125769 1.44271605,29.5045531 0.407222222,29.6190457 C-1.11777778,36.675924 1.84549383,41.3944997 5.91123457,45.2489804 C5.91123457,45.2489804 7.14117284,46.4352593 7.47388889,47.7372653 C7.47388889,47.7372653 8.97851852,53.8707964 10.2516667,58.0949864 C13.5633951,60.9008261 20.3862346,60.2774433 22.8529012,57.702749 C22.8001235,57.5638766 22.7495062,57.4268558 22.6939506,57.2848973 C22.6939506,57.2848973 21.0732716,49.1840071 24.0248148,46.0013602" id="Fill-114" fill="#00BF6C"></path>
            <path d="M11.8141667,40.6779181 C12.3348457,42.4715323 12.826821,43.6001021 15.2863889,43.6001021 C17.9194136,43.4843751 18.1799074,41.4302979 17.485463,39.2891941 C16.7910185,37.1480902 11.8141667,40.6779181 11.8141667,40.6779181" id="Fill-116" fill="#F6AD9C"></path>
            <path d="M7.79216049,32.5047217 C7.7054321,35.4991193 7.18444444,42.312508 12.9137654,41.8350955 C18.6427778,41.3576831 18.2523457,37.0615881 18.2523457,37.0615881 C19.8582099,38.927416 22.8674691,33.4015288 19.3952469,33.705505 C18.7298148,33.7922231 18.1798148,34.4575763 18.1798148,34.4575763 C18.0495679,34.8482706 16.5594444,34.5010896 16.2557407,31.6801282 C15.7347531,29.163143 13.6514198,31.2027157 11.8720988,31.3764605 C10.0924691,31.5498967 7.79216049,29.8139917 7.79216049,32.5047217" id="Fill-118" fill="#F9BDAC"></path>
            <path d="M5.65095679,18.8344617 L4.95651235,19.9340226" id="Fill-120" fill="#F9BDAC"></path>
            <path d="M4.00151235,24.138616 C3.97743827,24.138616 3.9533642,24.1330611 3.93052469,24.1210255 C3.85490741,24.0818326 3.82558642,23.9889424 3.86478395,23.9133341 C4.34935185,22.981346 5.12589506,22.5736783 6.10984568,22.7326101 C6.1937963,22.7461887 6.25089506,22.8255003 6.23731481,22.9097496 C6.22342593,22.9933816 6.14626543,23.0513994 6.06015432,23.0372036 C5.2092284,22.899257 4.56169753,23.2415003 4.13854938,24.0552926 C4.11108025,24.1083727 4.05737654,24.138616 4.00151235,24.138616" id="Fill-122" fill="#F7A389"></path>
            <path d="M15.7927469,61.3134932 C15.7927469,61.5508107 15.600463,61.7430718 15.3631173,61.7430718 C15.1260802,61.7430718 14.9334877,61.5508107 14.9334877,61.3134932 C14.9334877,61.0761757 15.1260802,60.8836059 15.3631173,60.8836059 C15.600463,60.8836059 15.7927469,61.0761757 15.7927469,61.3134932" id="Fill-124" fill="#2BB46C"></path>
            <path d="M27.7865432,24.948705 C27.7353086,24.948705 27.685,24.9230908 27.655679,24.8768 C27.2788272,24.2771798 26.8501235,23.9201234 26.3816049,23.8145804 C25.8590741,23.6973104 25.4717284,23.9383312 25.467716,23.9408 C25.3954938,23.9864736 25.3004321,23.9651798 25.2544444,23.8935834 C25.2087654,23.8216783 25.2300617,23.7263193 25.3019753,23.6806457 C25.322037,23.6679929 25.802284,23.3680285 26.4491975,23.5136902 C27.0010494,23.6377496 27.4948765,24.0410967 27.9170988,24.7120047 C27.9624691,24.784527 27.9408642,24.8795774 27.868642,24.9249424 C27.8430247,24.9412985 27.8146296,24.948705 27.7865432,24.948705" id="Fill-126" fill="#F7A389"></path>
            <path d="M14.4074691,64.3862766 C14.3411111,64.3862766 14.28,64.3433804 14.2596296,64.2770303 C13.475679,61.6924605 13.8361728,60.0426564 13.8519136,59.9735288 C13.8707407,59.8908226 13.9531481,59.8383596 14.0364815,59.8574932 C14.1195062,59.8763181 14.1716667,59.9590243 14.1528395,60.0420392 C14.1491358,60.0583953 13.7966667,61.6881401 14.5553086,64.1869175 C14.58,64.2686979 14.5337037,64.3547988 14.4522222,64.3797958 C14.4374074,64.3841163 14.422284,64.3862766 14.4074691,64.3862766" id="Fill-128" fill="#272A6E"></path>
            <path d="M12.4795062,84.779257 C12.4088272,84.779257 12.3452469,84.7308059 12.3291975,84.6589009 C11.8381481,82.481073 12.0341358,80.5032214 12.297716,78.5003727 C12.3088272,78.416432 12.3835185,78.3565626 12.4708642,78.3676724 C12.5554321,78.3787822 12.6146914,78.4562421 12.6035802,78.5408 C12.2915432,80.9130493 12.1958642,82.6637674 12.6301235,84.5910077 C12.6489506,84.6740226 12.5967901,84.7567288 12.5134568,84.7752451 C12.502037,84.7780226 12.4909259,84.779257 12.4795062,84.779257" id="Fill-130" fill="#272A6E"></path>
            <path d="M20.2541975,87.5133151 C20.1906173,87.5133151 20.131358,87.4738136 20.1088272,87.4105496 L20.0045062,87.1183003 C19.4921605,85.6872973 18.6347531,83.2919027 18.9242593,81.3905852 C18.9372222,81.3066445 19.0156173,81.2483181 19.1001852,81.2612795 C19.1844444,81.2739323 19.2421605,81.3526267 19.2295062,81.4371846 C18.9517284,83.2616593 19.7924691,85.6107632 20.2949383,87.0143003 L20.3995679,87.3074754 C20.427963,87.3880214 20.3859877,87.4759739 20.3057407,87.5046742 C20.2887654,87.5105377 20.2711728,87.5133151 20.2541975,87.5133151" id="Fill-132" fill="#272A6E"></path>
            <path d="M11.5825309,38.7202184 C11.5553704,38.7202184 11.5275926,38.7131205 11.5025926,38.6979988 C10.227284,37.9243252 10.7491975,36.4874588 11.1303704,35.437892 C11.3096914,34.9441234 11.4791358,34.4775122 11.4062963,34.2429721 C11.3809877,34.1618089 11.4266667,34.0750908 11.5078395,34.0497852 C11.5908642,34.0241709 11.6760494,34.0704617 11.7010494,34.1513163 C11.8047531,34.4852273 11.6266667,34.9756012 11.4204938,35.5431264 C11.0374691,36.5970136 10.6038272,37.7916249 11.6627778,38.4338326 C11.7356173,38.4782718 11.7587654,38.5730136 11.7146296,38.6461531 C11.6856173,38.6936783 11.6346914,38.7202184 11.5825309,38.7202184" id="Fill-134" fill="#F7A389"></path>
            <path d="M13.6513889,35.5666421 C13.6248457,35.5666421 13.5979938,35.5598528 13.5736111,35.545657 C13.4998457,35.5021436 13.475463,35.4077104 13.5183642,35.3342623 C13.528858,35.3166718 13.7751543,34.9053009 14.2878086,34.7787727 C14.6816358,34.6821792 15.1155864,34.7772297 15.5776235,35.0642326 C15.6501543,35.109289 15.6720679,35.2043395 15.6273148,35.2768617 C15.5822531,35.3490754 15.4871914,35.3709864 15.4146605,35.3265472 C15.0263889,35.0852178 14.6726852,35.0018944 14.3618827,35.0784285 C13.9739198,35.1744047 13.7862654,35.4873306 13.7847222,35.4904166 C13.7557099,35.5394849 13.7041667,35.5666421 13.6513889,35.5666421" id="Fill-136" fill="#2D2D2D"></path>
            <path d="M10.222716,35.6317579 C10.1844444,35.6317579 10.1461728,35.617562 10.1165432,35.5891703 C9.88475309,35.3697519 9.64524691,35.2605056 9.40512346,35.2694552 C9.03814815,35.2808736 8.77611111,35.5576926 8.77364198,35.56047 C8.71592593,35.6231169 8.61808642,35.6268202 8.55574074,35.5688024 C8.49308642,35.5110932 8.48907407,35.4141911 8.54648148,35.3515442 C8.56037037,35.3364226 8.8937037,34.978749 9.39154321,34.9611585 C9.71654321,34.9522089 10.0341358,35.085835 10.3288889,35.3657401 C10.3906173,35.4240665 10.3933951,35.5218944 10.3347531,35.5836154 C10.3045062,35.6154018 10.2634568,35.6317579 10.222716,35.6317579" id="Fill-138" fill="#2D2D2D"></path>
            <path d="M8.74688272,33.280432 C8.71848765,33.280432 8.68978395,33.2730255 8.66416667,33.2563608 C8.59256173,33.2106872 8.57126543,33.116254 8.6166358,33.044349 C8.62311728,33.034165 9.28669753,32.0154588 10.7258951,32.735435 C10.8021296,32.7737021 10.8329938,32.8662837 10.7947222,32.9425092 C10.7567593,33.0187347 10.663858,33.0499039 10.5876235,33.0116368 C9.40521605,32.4200404 8.89842593,33.1776665 8.87712963,33.2097614 C8.8475,33.255435 8.79780864,33.280432 8.74688272,33.280432" id="Fill-140" fill="#2D2D2D"></path>
            <path d="M13.0873148,32.9842018 C13.0499691,32.9842018 13.0126235,32.9709318 12.9829938,32.9434659 C12.9203395,32.8860653 12.9160185,32.7888546 12.9734259,32.7262077 C12.9833025,32.7150979 13.9950309,31.6349792 15.3620062,32.5046291 C15.4339198,32.5506113 15.455216,32.6456617 15.4092284,32.7178754 C15.3635494,32.7897804 15.2684877,32.8107656 15.1962654,32.765092 C14.0512037,32.0361662 13.2351543,32.8977923 13.2008951,32.9345163 C13.1706481,32.9675371 13.1289815,32.9842018 13.0873148,32.9842018" id="Fill-142" fill="#2D2D2D"></path>
            <path d="M13.5354938,40.1622694 C13.3972222,40.1622694 13.2583333,40.1483822 13.1212963,40.1199905 C13.037963,40.1030172 12.9839506,40.0215454 13.0012346,39.9379134 C13.0185185,39.8545899 13.1006173,39.7981151 13.1833333,39.8181745 C13.6188272,39.90767 14.0790123,39.827124 14.4141975,39.6030766 C14.7419753,39.3833496 14.9527778,39.0370944 15.0407407,38.5735691 C15.0564815,38.4896285 15.1358025,38.4340795 15.2209877,38.4504356 C15.3046296,38.4664831 15.3598765,38.5473377 15.3438272,38.6306611 C15.241358,39.1710291 14.979321,39.59567 14.5858025,39.8595276 C14.2904321,40.057035 13.9169753,40.1622694 13.5354938,40.1622694" id="Fill-144" fill="#2D2D2D"></path>
            <path d="M18.3391975,36.4997104 C18.3351852,36.4997104 18.3308642,36.4994018 18.3265432,36.4990932 C18.2419753,36.4923039 18.1783951,36.41793 18.1851852,36.3333721 C18.1882716,36.2957223 18.2654321,35.4047786 18.9148148,34.9545234 C19.3064815,34.6829507 19.8138889,34.6332653 20.4216049,34.8085531 C20.5033951,34.8320071 20.5509259,34.9174908 20.5271605,34.9992712 C20.5037037,35.080743 20.4185185,35.1288855 20.3364198,35.1048142 C19.8225309,34.9569923 19.4040123,34.9918647 19.0919753,35.2072712 C18.5632716,35.5723513 18.4935185,36.3500368 18.4929012,36.3577519 C18.4864198,36.4386065 18.4188272,36.4997104 18.3391975,36.4997104" id="Fill-146" fill="#F7A389"></path>
        </g>
    </g>
</svg>