<?xml version="1.0" encoding="UTF-8"?>
<svg width="14px" height="14px" viewBox="0 0 14 14" version="1.1" xmlns="http://www.w3.org/2000/svg" xmlns:xlink="http://www.w3.org/1999/xlink">
    <!-- Generator: Sketch 55.2 (78181) - https://sketchapp.com -->
    <title>icon/icon-question</title>
    <desc>Created with Sketch.</desc>
    <g id="icon/icon-question" stroke="none" stroke-width="1" fill="none" fill-rule="evenodd">
        <g id="Shape-2" fill="#484848">
            <path d="M7,0 C3.138,0 0,3.138 0,7 C0,10.862 3.138,14 7,14 C10.862,14 14,10.862 14,7 C14,3.138 10.862,0 7,0 Z M7,0.666666667 C10.502,0.666666667 13.3333333,3.498 13.3333333,7 C13.3333333,10.502 10.502,13.3333333 7,13.3333333 C3.498,13.3333333 0.666666667,10.502 0.666666667,7 C0.666666667,3.498 3.498,0.666666667 7,0.666666667 Z M7.00520833,2.66666667 C5.68619167,2.66666667 4.61004167,3.53776667 4.348875,4.58333333 C4.32218167,4.67057333 4.332599,4.76496667 4.37752167,4.8444 C4.42244333,4.92382667 4.498615,4.98177 4.587155,5.003905 C4.67569667,5.02604 4.769455,5.01041533 4.84627167,4.96158667 C4.92308833,4.912758 4.97713167,4.83398333 4.99470833,4.74478667 C5.16854167,4.04882 5.98884167,3.33332 7.00504167,3.33332 C7.50829167,3.33332 8.026525,3.51430333 8.400875,3.81768667 C8.775225,4.12107 8.99984167,4.52797 8.99984167,4.99998667 C8.99984167,5.57290333 8.87484167,5.86197 8.702975,6.08332 C8.53044167,6.30467 8.28370833,6.47003667 7.97900833,6.68748667 C7.67430833,6.90493667 7.329275,7.18423667 7.077975,7.65102 C6.826675,8.11780333 6.671725,8.75453667 6.671725,9.66668667 C6.67628233,9.84702 6.82406833,9.99090333 7.00505833,9.99090333 C7.18604833,9.99090333 7.33384167,9.84702333 7.33839167,9.66668667 C7.33839167,8.82880333 7.47511,8.31447 7.66130833,7.96868667 C7.84750667,7.62290333 8.08579167,7.42832 8.36444167,7.22910333 C8.64309167,7.02988667 8.96925833,6.83587 9.23424167,6.49473667 C9.499225,6.15360333 9.66654167,5.67703667 9.66654167,4.99993667 C9.66654167,4.30527 9.312375,3.70697 8.812375,3.30193667 C8.312375,2.89690333 7.66719167,2.66652 7.00504167,2.66652 L7.00520833,2.66666667 Z M7.00520833,10.3333333 C6.729175,10.3333333 6.50520833,10.5573 6.50520833,10.8333333 C6.50520833,11.1093667 6.729175,11.3333333 7.00520833,11.3333333 C7.28124167,11.3333333 7.50520833,11.1093667 7.50520833,10.8333333 C7.50520833,10.5573 7.28124167,10.3333333 7.00520833,10.3333333 Z" id="Shape"></path>
        </g>
    </g>
</svg>