<?xml version="1.0" encoding="UTF-8"?>
<svg width="120px" height="120px" viewBox="0 0 120 120" version="1.1" xmlns="http://www.w3.org/2000/svg" xmlns:xlink="http://www.w3.org/1999/xlink">
    <!-- Generator: Sketch 55.2 (78181) - https://sketchapp.com -->
    <title>icon/icon-international</title>
    <desc>Created with Sketch.</desc>
    <g id="icon/icon-international" stroke="none" stroke-width="1" fill="none" fill-rule="evenodd">
        <path d="M69.5015895,81.2392309 C70.1273505,80.8397264 70.4667444,80.1099764 70.3712797,79.3748673 C70.2811285,78.6344536 69.7773403,78.0165627 69.0773471,77.78214 L62.0666901,75.4330036 C61.6954746,75.3104891 61.3083619,75.299835 60.9371463,75.4063705 L53.162853,77.606325 C49.5249572,73.4461432 46.7249572,70.319325 45.0757742,68.4976432 L65.7204288,57.2689159 C66.4045248,56.890725 66.7969456,56.1396614 66.7174052,55.3726432 C66.6378595,54.5949477 66.0969524,53.9397341 65.3492404,53.7214159 L57.2780452,51.3350523 C56.9757674,51.2444986 56.6629005,51.2338445 56.3606227,51.2924386 L33.6687439,55.8467114 C32.2952845,54.3498477 29.2830954,51.1432568 26.8596869,49.0818477 C23.1475318,45.9231205 19.6422712,45.4543023 17.8816312,45.4543023 C15.9726082,45.4543023 14.3975488,45.9763159 13.4536263,46.9244386 C11.4172627,48.9698932 11.0141985,54.9411205 15.6066057,60.3903477 C17.658853,62.8247114 20.8513282,65.8502114 22.3414033,67.2298023 L17.8073718,90.0175295 C17.7437354,90.3211568 17.7543408,90.6407523 17.849796,90.9390477 L20.2255536,99.046275 C20.4429829,99.7973386 21.0952438,100.335334 21.8694421,100.420548 C22.6489892,100.489795 23.3914203,100.10627 23.7572869,99.4191205 L34.9414033,78.6768477 C36.7549888,80.3388477 39.86791,83.1458932 44.0096021,86.8000295 L41.8194251,94.6090295 C41.7133645,94.9819023 41.7239699,95.376075 41.8459399,95.7436159 L44.1846357,102.78557 C44.4179758,103.488702 45.0331205,104.000066 45.7702842,104.085293 C45.84983,104.095946 45.9293785,104.101272 46.0036243,104.101272 C46.6558987,104.101272 47.2657489,103.771013 47.6210401,103.211718 L53.1256025,94.5824905 C53.952882,95.0938541 54.8756534,95.461395 55.9150134,95.461395 C57.2937673,95.461395 58.5983976,94.8275223 59.8923031,93.5277586 C62.5756873,90.832395 61.9817479,88.4460314 60.9423065,86.7308495 L69.5015895,81.2392309 Z M56.6735846,87.5300945 C58.3652598,89.49564 58.216741,89.75664 57.150854,90.8326855 C56.6311604,91.3546991 56.1856991,91.6370127 55.8887294,91.6370127 C55.3372142,91.6370127 54.3030809,90.7367945 53.8629548,90.3532718 C53.4440205,89.9857309 52.8818891,89.8206082 52.3303875,89.9058355 C51.7735643,89.9857364 51.2856923,90.3000082 50.9887226,90.77409 L46.534245,97.7627264 L45.6539386,95.1153627 L48.0138125,86.7044536 C48.2153311,85.9906718 47.9872963,85.2236809 47.4304758,84.7282718 C40.1017388,78.2829082 35.7425631,74.2399991 35.7002067,74.1973173 C35.2600535,73.7924809 34.6661141,73.6113764 34.0774964,73.7125855 C33.4888651,73.8084655 32.9850688,74.1706855 32.704037,74.6980309 L22.5753,93.4903036 L21.6472748,90.3262582 L26.3033524,66.9317127 C26.4412278,66.2605445 26.2078985,65.5734082 25.7041049,65.1153491 C25.6563779,65.0727355 21.0480273,60.9019855 18.5237509,57.9082582 C15.2889194,54.0730309 15.6230188,50.3177127 16.1479934,49.6731218 C16.2593567,49.5825682 16.8108705,49.3215627 17.8714358,49.3215627 C18.8684123,49.3215627 21.4881534,49.5878945 24.3677073,52.0381991 C27.3479934,54.5684264 31.5002746,59.2026082 31.5427667,59.2506082 C31.9988307,59.75664 32.6829131,59.98569 33.3510576,59.8525309 L56.6470576,55.1703491 L59.7970406,56.1025173 L41.0882891,66.2764718 C40.5632874,66.5641173 40.2026882,67.0701491 40.1072234,67.6560627 C40.0117682,68.2420036 40.1867692,68.8439127 40.5898009,69.2860173 C40.6322251,69.3286309 44.6572336,73.7071991 51.0739512,81.0686536 C51.5618368,81.6279627 52.3307677,81.8569991 53.04135,81.6545945 L61.4148772,79.2841855 L64.0504748,80.1684218 L57.0928991,84.6427855 C56.6262324,84.9464127 56.3080574,85.4364627 56.2285034,85.99044 C56.1489495,86.5444173 56.3080492,87.1090445 56.6739512,87.5298491 L56.6735846,87.5300945 Z" id="Shape" fill="#0F0E9F"></path>
        <path d="M96.0109713,80.7755945 C101.526123,73.8455945 104.835214,65.0665036 104.835214,55.5210491 C104.835214,45.9755945 101.520828,37.1965036 96.0109713,30.2665036 C96.0056686,30.2505232 96.0003659,30.2345441 95.9897605,30.2185636 C95.9102147,30.0960491 95.8200636,29.9895136 95.7193043,29.8936364 C88.3163079,20.8062273 77.0689285,15 64.4950619,15 C52.1920316,15 40.8325164,20.6622273 33.307474,29.8609091 C33.1961107,29.9674432 33.0900447,30.0846273 33.0051962,30.2178 C32.9998935,30.2284527 32.9945908,30.2391068 32.9892881,30.2497595 C30.2263499,33.7174868 27.9938166,37.6538959 26.4612493,41.9845323 C26.1059446,42.9912777 26.6309463,44.0939414 27.6332173,44.450805 C28.6301938,44.8076959 29.7279567,44.2856823 30.0832343,43.2789232 C31.2976265,39.832605 33.0051446,36.663105 35.0892949,33.8133777 C38.6264585,35.8747868 42.7362476,37.5261505 47.20145,38.7246505 C46.6128188,41.5798323 46.1620493,44.626605 45.8862985,47.8386505 C45.7908433,48.8986595 46.5703945,49.836105 47.6310549,49.932105 C48.6969691,50.0173323 49.6143373,49.2396368 49.7152052,48.1795595 C49.9750588,45.1700141 50.3993012,42.2988777 50.9508163,39.6088323 C55.2780891,40.4877368 59.8493182,40.951155 64.5001012,40.951155 C69.1614733,40.951155 73.7432915,40.4770732 78.0758588,39.5981686 C78.9296517,43.7796232 79.4704963,48.4724414 79.5766588,53.5972595 L72.2426273,53.5972595 C71.1820212,53.5972595 70.3228794,54.4601823 70.3228794,55.5255777 C70.3228794,56.5909732 71.1819669,57.4538959 72.2426273,57.4538959 L79.5766588,57.4538959 C79.4705982,62.5728505 78.9296925,67.2709868 78.0758588,71.4475323 C73.7432915,70.5686277 69.1614733,70.0998777 64.5001012,70.0998777 C61.477323,70.0998777 58.4705642,70.2916459 55.559243,70.664505 C54.5092396,70.8029959 53.7615412,71.7671277 53.8993351,72.8270959 C54.0372105,73.8817868 54.9970573,74.6221868 56.04702,74.4944141 C58.7992333,74.142855 61.64702,73.9617505 64.5001012,73.9617505 C68.869866,73.9617505 73.1493521,74.3932186 77.1903121,75.2028777 C74.3160527,85.8082868 69.2941085,92.1896959 64.5001012,92.1896959 C63.4394951,92.1896959 62.5803533,93.0526186 62.5803533,94.1180141 C62.5803533,95.1834095 63.4394408,96.0463323 64.5001012,96.0463323 C77.1213473,96.0463323 88.4056527,90.1869232 95.8085133,81.0408777 C95.8721497,80.9716309 95.9410887,80.9023868 95.9941211,80.8224777 C95.9994238,80.8064973 96.0047265,80.7905168 96.0100291,80.7745377 L96.0109713,80.7755945 Z M91.418564,30.7846855 C88.3216622,32.52114 84.7580259,33.9274582 80.9026465,34.9714582 C79.2162659,28.7179582 76.7715434,23.56164 73.8124355,20.0614582 C80.6745737,21.8884582 86.7571919,25.6758218 91.4188355,30.78414 L91.418564,30.7846855 Z M37.5771095,30.7846855 C42.280838,25.63914 48.3687507,21.88914 55.1454974,20.0832764 C52.2128622,23.56164 49.7735701,28.6752764 48.0871895,34.9660036 C44.2319459,33.9272945 40.673604,32.5210036 37.5765665,30.7845491 L37.5771095,30.7846855 Z M64.4951216,37.0861855 C60.1413762,37.0861855 55.8723434,36.6547173 51.8368137,35.85039 C54.5997519,25.64439 59.3777398,18.8581173 64.4898271,18.8581173 C69.2891289,18.8581173 74.3057786,25.2342082 77.180038,35.8449355 C73.1443725,36.6545945 68.8648865,37.0861855 64.4951216,37.0861855 L64.4951216,37.0861855 Z M81.7879216,38.7214582 C86.2371046,37.5282764 90.3470295,35.8823673 93.8734683,33.8315945 C97.9832574,39.4300036 100.534006,46.2214582 100.915893,53.5934127 L83.4099531,53.5934127 C83.2985898,48.2774127 82.7311652,43.2702764 81.7872428,38.7215945 L81.7879216,38.7214582 Z M83.4106319,57.44964 L100.916571,57.44964 C100.534753,64.8217309 97.9786416,71.6191855 93.8741471,77.2114582 C90.3475725,75.1606855 86.243078,73.5094582 81.7886004,72.3215945 C82.7325364,67.77264 83.2999895,62.7601855 83.4113107,57.44964 L83.4106319,57.44964 Z M73.8068695,90.9760036 C76.7659774,87.4763673 79.2106998,82.3253673 80.8970804,76.0714582 C84.7577543,77.1101673 88.3159604,78.5217764 91.412998,80.2529127 C86.7569204,85.3665491 80.6743022,89.1537764 73.806598,90.9755945 L73.8068695,90.9760036 Z" id="Shape" fill="#0F0E9F"></path>
    </g>
</svg>