<?xml version="1.0" encoding="UTF-8"?>
<svg width="120px" height="120px" viewBox="0 0 120 120" version="1.1" xmlns="http://www.w3.org/2000/svg" xmlns:xlink="http://www.w3.org/1999/xlink">
    <!-- Generator: Sketch 55.2 (78181) - https://sketchapp.com -->
    <title>icon/icon-domestic</title>
    <desc>Created with Sketch.</desc>
    <g id="icon/icon-domestic" stroke="none" stroke-width="1" fill="none" fill-rule="evenodd" stroke-linejoin="round">
        <path d="M57.7518555,111 C57.4362354,111 57.1374537,110.860553 56.9312455,110.619702 C56.7208357,110.374623 56.6324638,110.040797 56.6913712,109.72389 C56.8512874,108.832296 57.0238189,107.788543 57.1079893,107.150532 C56.1274631,106.702625 54.057042,105.756057 53.2574611,105.396918 L50.5767859,105.99695 C50.1433402,106.089912 49.6930561,105.908213 49.4447465,105.536366 L42.5642786,95.1119344 L39.4206825,97.0260784 C39.0882348,97.2246756 38.6716168,97.2373536 38.330766,97.0429806 C37.9898938,96.8486023 37.7836963,96.4894312 37.7836963,96.0964557 L37.8215703,87.0157654 C37.8215703,86.8847771 37.8468203,86.7537781 37.8973182,86.6270194 L42.1182262,75.767403 L46.8608764,67.535989 L44.4159171,61.5610906 C44.361209,61.4343212 44.3359601,61.2991033 44.3359601,61.1596667 L44.289669,55.7214209 L37.1946006,48.0224407 C36.9968169,47.8069359 36.8916066,47.5196034 36.9126465,47.2238116 C36.9294795,46.9280199 37.0641381,46.6575841 37.2871848,46.4674354 L40.6705905,43.5686891 L41.8699619,38.3247243 L35.6164895,29.8947023 C35.5617825,29.8228681 35.5196995,29.7468065 35.4860378,29.6665195 L33.0830936,23.8690269 C32.8810976,23.3830864 33.0578446,22.8253181 33.4997117,22.5421611 L35.9278649,20.9913746 L37.1819637,15.0164762 C37.2577117,14.5896962 37.5607035,14.272778 37.9562817,14.167135 L44.7230932,12.4177404 L49.2511428,9.1978247 C49.5246831,9.00344633 49.8697568,8.94851543 50.1895784,9.04992882 L56.2031335,10.917666 C56.7628293,11.0909179 57.0826617,11.678261 56.9227455,12.2445318 L56.1484276,14.9996226 L59.2583038,14.9531412 C59.6665081,14.893984 60.0873276,15.2024505 60.2598699,15.5996556 L61.7411738,18.980102 C61.8632117,19.2547674 61.8632117,19.5632263 61.7495908,19.833662 L60.1084139,23.7465423 L60.60499,24.2240344 C60.9332362,24.5367229 61.0300219,25.0268931 60.8448643,25.4452139 L59.3130345,28.9228007 L59.4014075,28.9608305 L64.0725241,24.4521263 C64.4049718,24.1309785 64.901548,24.0591508 65.3139106,24.270426 L68.8067713,26.0832106 L72.0261024,23.0197149 C72.2701782,22.7915321 72.6026367,22.6858999 72.9266705,22.7366012 L77.3705821,23.4126904 C77.5809919,23.4422685 77.7787864,23.5394599 77.9344903,23.6831262 L84.1963657,29.429885 C84.4488661,29.6580678 84.5751055,29.9961125 84.5414395,30.3341571 L83.9186131,36.5288657 L89.7007616,42.5925752 C89.9237974,42.8249768 90.0332092,43.1503434 89.9911294,43.4757209 L88.9138175,52.1972725 C88.8464855,52.7465924 88.4172414,53.1564755 87.8196996,53.1480271 L74.0710451,52.8184309 L68.73081,58.1172401 L71.6554964,64.6668684 C71.7775343,64.9373042 71.7817465,65.2457739 71.6681214,65.5204285 L69.3788336,71.1319694 C69.2315435,71.4953701 68.8948835,71.7488982 68.50773,71.7996103 C68.1121518,71.8334148 67.733412,71.6728409 67.5061639,71.3517039 L62.9233868,64.903543 L60.979162,65.4148395 C60.8655379,65.4444187 60.7519138,65.4613209 60.6298759,65.448644 L56.5857548,65.1697599 C56.2869731,65.1486324 56.0134328,65.0049672 55.824063,64.7725547 C55.6346931,64.5401531 55.5505227,64.2401317 55.5926133,63.9401211 L56.2827608,58.9033101 L53.1181571,59.2498032 L53.307527,66.3698346 C53.311735,66.5473053 53.273861,66.7163276 53.1981152,66.8726719 L48.3923345,76.6759664 L47.7779328,83.770685 L50.9046151,83.9523854 C51.3422731,83.9777393 51.7210128,84.265074 51.8598891,84.6876352 L56.8887811,99.5908063 L63.07072,100.761252 C63.352674,100.816184 63.6051636,100.976757 63.7650798,101.217618 L67.2663435,106.423505 C67.5567113,106.854515 67.4977932,107.429191 67.1358918,107.796778 L64.37528,110.568744 C64.1774963,110.767341 63.9123699,110.881432 63.6346281,110.885662 L57.7767446,111 L57.7514946,111 L57.7518555,111 Z M53.3752759,103.17424 C53.5267675,103.17424 53.6782699,103.203819 53.8213477,103.271428 C58.6103223,105.44757 58.7281802,105.527835 58.8165198,105.582788 C59.4014678,105.979993 59.4814259,106.284233 59.0437679,108.806922 L63.1552211,108.726636 L64.9815879,106.892758 L62.2293792,102.798145 L55.8707612,101.59384 C55.4878091,101.522006 55.1721891,101.247347 55.0501512,100.875498 L50.0549791,86.0610299 L46.5453124,85.8539735 C46.2549445,85.8370713 45.9814042,85.7018589 45.7920343,85.4821244 C45.6026645,85.2581712 45.5100803,84.9708279 45.5353325,84.6792657 L46.2675706,76.2746647 C46.2801945,76.1436765 46.3138605,76.0126774 46.3727766,75.8943672 L51.1491466,66.150244 L50.9513629,58.3118272 C50.9387379,57.7498293 51.3553549,57.2723372 51.9108384,57.2089904 L57.4320619,56.60051 C57.7729342,56.5624803 58.0927558,56.6807959 58.3200039,56.9216578 C58.5514536,57.1625187 58.6608762,57.4921041 58.6145841,57.82593 L57.8949721,63.0909887 L60.6092594,63.2811375 L63.1005432,62.6261746 C63.5297873,62.4994052 63.9926867,62.6811066 64.2535901,63.0445062 L68.1336366,68.5039542 L69.5054856,65.1361642 L66.4629413,58.3287565 C66.277773,57.9146545 66.3703593,57.4329436 66.6901895,57.1160146 L72.8847329,50.9636022 C73.0909412,50.7565458 73.3476431,50.6213279 73.6674647,50.6509136 L86.9022414,50.9636022 L87.7985972,43.7210093 L82.0248518,37.6699562 C81.8060282,37.4417734 81.6966056,37.1290848 81.7302716,36.8163962 L82.3488857,30.659765 L76.7309196,25.5003925 L73.1329133,24.9510726 L69.736903,28.1752072 C69.4044553,28.4878958 68.9078792,28.5555047 68.499718,28.3526779 L65.0110589,26.5441121 L60.3819574,31.0105201 C60.0663373,31.3105306 59.6118517,31.3908176 59.2163059,31.2260249 L57.4656741,30.4823267 C57.2005584,30.3682353 56.9901378,30.1527305 56.8849383,29.8822947 C56.7797323,29.611859 56.7839403,29.3118485 56.9017724,29.0456316 L58.5724677,25.2553128 L58.0885176,24.7904987 C57.7644837,24.4778101 57.667698,24.0045477 57.8402295,23.5861944 L59.5908614,19.4197537 L58.5850938,17.125269 L54.7429686,17.1844262 C54.3600165,17.1337195 54.073861,17.0238523 53.8676527,16.7534166 C53.6614444,16.4829809 53.5941124,16.1322582 53.6866966,15.7984432 L54.5662248,12.6631197 L50.0633843,11.268645 L45.8046626,14.2983904 C45.6994566,14.374451 45.5774144,14.4293786 45.451175,14.4631831 L39.1429752,16.094235 L37.9352008,21.8620878 C37.8762848,22.1452015 37.7037511,22.3945108 37.4596646,22.5508551 L35.4102941,23.8607375 L37.4176494,28.6990487 L43.8899238,37.4248192 C44.0792937,37.6825769 44.1466257,38.0037247 44.0750922,38.3121837 L42.6863294,44.3927684 C42.6358304,44.6209512 42.5095856,44.823778 42.3370434,44.9758927 L39.5343087,47.3802825 L46.1496502,54.5594852 C46.3306063,54.7580824 46.4316043,55.0158509 46.4358058,55.2862866 L46.4820957,60.9359049 L49.0491145,67.2150976 C49.1753647,67.5277862 49.1543205,67.8785089 48.9859905,68.170071 L44.0497474,76.7141087 L39.9719064,87.2357886 L39.9466563,94.1868518 L42.3326867,92.7332057 C42.8292629,92.4331952 43.4689276,92.5768614 43.7887815,93.062802 L50.8334317,103.736575 L53.1395256,103.22106 C53.2194826,103.187255 53.2994418,103.174578 53.3751876,103.174578 L53.3752759,103.17424 Z" id="Shape" stroke="#0F0E9F" stroke-width="1.5" fill="#0F0E9F"></path>
    </g>
</svg>