<?xml version="1.0" encoding="UTF-8"?>
<svg width="66px" height="84px" viewBox="0 0 66 84" version="1.1" xmlns="http://www.w3.org/2000/svg" xmlns:xlink="http://www.w3.org/1999/xlink">
    <!-- Generator: Sketch 58 (84663) - https://sketch.com -->
    <title>icon/icon-Tutorial@1x</title>
    <desc>Created with Sketch.</desc>
    <g id="icon/icon-Tutorial" stroke="none" stroke-width="1" fill="none" fill-rule="evenodd">
        <g id="Shape-3" fill="#FFFFFF" fill-rule="nonzero">
            <path d="M22.6034354,2.147054 L20.4599304,3.55271368e-14 L12.2486364,8.211294 L20.4599304,16.422588 L22.6034354,14.279083 L18.0534354,9.729083 L48.6485454,9.729083 L48.6485454,6.696963 L18.0534354,6.696963 L22.6034354,2.147054 Z M37.8532154,37.729874 L35.4786614,34.121906 L31.8351124,34.6017854 L30.4096884,37.8045304 L32.9442204,41.2951994 L30.4914974,43.0796184 L26.8727914,38.0994614 L23.3892204,38.4655908 L21.9673454,41.6683358 L25.5825024,46.6449438 L23.1297794,48.4258138 L8.3604794,28.1000538 L4.8804574,28.4661832 L3.4550334,31.6689282 L27.8048134,65.1824082 L10.5648634,57.5078322 L7.7317604,59.5659792 L8.1014479,63.0495502 L18.2215579,67.5568712 L24.3249279,73.1412682 L39.0268879,75.4695942 L43.8541649,82.1133222 L41.4014419,83.8941922 L37.3135399,78.2671162 L22.9528299,75.9921162 L16.5366019,70.1233442 L5.3072019,65.1254422 L4.574934,58.1583002 L10.237591,54.0384572 L18.69777,57.8064032 L2.13162821e-14,32.0670532 L2.847299,25.6686612 L9.810892,24.9363933 L19.934642,38.8739533 L21.356517,35.6676593 L28.380625,35.0100387 L29.8025,31.8037447 L36.488907,30.6910877 L37.914331,27.4883427 L44.877924,26.7560748 L57.045534,43.4982548 L61.645311,60.1521648 L65.939419,66.0636158 L63.486696,67.8480348 L58.869174,61.4886818 L54.265848,44.8384118 L43.427748,29.9226018 L39.947726,30.2851822 L38.522302,33.4879272 L40.31027,35.9441992 L37.8532154,37.729874 Z" id="Shape"></path>
        </g>
    </g>
</svg>