<?xml version="1.0" encoding="UTF-8"?>
<svg width="60px" height="40px" viewBox="0 0 60 40" version="1.1" xmlns="http://www.w3.org/2000/svg" xmlns:xlink="http://www.w3.org/1999/xlink">
    <!-- Generator: Sketch 55.2 (78181) - https://sketchapp.com -->
    <title>icon/icon-plane</title>
    <desc>Created with Sketch.</desc>
    <g id="icon/icon-plane" stroke="none" stroke-width="1" fill="none" fill-rule="evenodd" stroke-linejoin="round">
        <path d="M35.0960159,-0.182689833 C34.7644065,-0.961764052 34.1112815,-1.55351015 33.2746135,-1.81364686 C32.0505979,-2.1332328 30.7608244,-1.5434164 30.2001018,-0.413732802 C29.2843166,1.42607579 28.8059026,3.48609142 28.817258,5.53853673 L28.817258,25.3413609 C28.817258,25.3812164 28.8210432,25.4210719 28.8286877,25.4610016 L30.5323791,34.2884313 C30.6760666,35.3219274 31.5709221,36.0997399 32.6126565,36.0997399 C32.6133244,36.0997399 32.6145862,36.0997399 32.6158479,36.0997399 C33.658844,36.0997399 34.5531057,35.3213336 34.6910784,34.3213844 L36.3998166,25.4610758 C36.4080549,25.4218141 36.4118401,25.3813649 36.4118401,25.3414352 L36.4118401,5.53727501 C36.4073869,3.55704454 35.9478987,1.56916954 35.0960159,-0.182689833 Z M35.1460393,25.279982 L33.4436096,34.1137203 C33.3866838,34.5244469 33.0303596,34.8339391 32.6139182,34.8339391 C32.1981448,34.8339391 31.8424143,34.5244469 31.7810354,34.0814352 L30.0836526,25.2805758 L30.0836526,5.53541954 C30.0735588,3.67668517 30.5058088,1.81409142 31.3342385,0.149587511 C31.6304455,-0.446611708 32.313926,-0.757365614 32.9265276,-0.597201552 C33.3790393,-0.456037489 33.7461252,-0.124428114 33.9442151,0.340700792 C34.7264807,1.9513961 35.1415862,3.74875157 35.1460393,5.53853673 L35.1460393,25.279982 L35.1460393,25.279982 Z" id="Shape" stroke="#484848" stroke-width="0.4" fill="#484848" transform="translate(32.614450, 17.099870) rotate(-315.000000) translate(-32.614450, -17.099870) "></path>
        <path d="M31.7971051,4.06449706 C31.6053239,3.94997753 31.3667106,3.94552441 31.1718121,4.05180566 L15.9827223,12.2793252 C15.7783239,12.3900596 15.6511129,12.6033643 15.6511129,12.8355947 L15.6511129,16.6328486 C15.6511129,16.8404385 15.7523473,17.0340752 15.9232731,17.1530478 C16.0308903,17.2271182 16.1568395,17.2657119 16.2840504,17.2657119 C16.3587145,17.2657119 16.4340465,17.2530205 16.5061871,17.2258564 L31.695277,11.5299385 C31.9421286,11.4369424 32.1060036,11.2008525 32.1060036,10.9369307 L32.1060036,4.60814941 C32.1060036,4.38541894 31.9888864,4.17909081 31.7971051,4.06449706 Z M30.8402028,10.4983721 L16.9168395,15.7196611 L16.9168395,13.2128486 L30.8402028,5.67148144 L30.8402028,10.4983721 Z" id="Shape" stroke="#484848" stroke-width="0.4" fill="#484848" transform="translate(23.878558, 10.620469) rotate(-315.000000) translate(-23.878558, -10.620469) "></path>
        <path d="M46.9897257,27.49447 L31.8006359,19.2670247 C31.6044757,19.1613372 31.3671242,19.1651223 31.1753429,19.2797161 C30.9842296,19.3936418 30.8665187,19.59997 30.8665187,19.8233684 L30.8665187,26.1521497 C30.8665187,26.4160715 31.0297999,26.6527551 31.2766515,26.7451575 L46.4657413,32.4410754 C46.5385499,32.4676457 46.6138077,32.4809309 46.688546,32.4809309 C46.815757,32.4809309 46.9417062,32.4429309 47.0479874,32.3682668 C47.218839,32.2498879 47.3207413,32.0556575 47.3207413,31.8480676 L47.3207413,28.0508137 C47.3207413,27.818509 47.1935304,27.6052043 46.9897257,27.49447 Z M46.0556085,30.9348059 L32.1322452,25.7135168 L32.1322452,20.885884 L46.0556085,28.4279192 L46.0556085,30.9348059 Z" id="Shape" stroke="#484848" stroke-width="0.4" fill="#484848" transform="translate(39.093630, 25.835790) rotate(-315.000000) translate(-39.093630, -25.835790) "></path>
        <path d="M28.1294072,7.15593684 C27.0826259,7.15593684 26.2307431,8.00781965 26.2307431,9.0546009 L26.2307431,10.953265 L27.4964697,10.953265 L27.4964697,9.0546009 C27.4964697,8.705847 27.7806533,8.42173762 28.129333,8.42173762 C28.4780127,8.42173762 28.7621963,8.70592122 28.7621963,9.0546009 L28.7621963,9.68746418 L30.0279228,9.68746418 L30.0279228,9.0546009 C30.0280713,8.00774543 29.1761884,7.15593684 28.1294072,7.15593684 Z" id="Path" stroke="#484848" stroke-width="0.4" fill="#484848" transform="translate(28.129333, 9.054601) rotate(-315.000000) translate(-28.129333, -9.054601) "></path>
        <path d="M21.8646952,5.36540436 C20.817914,5.36540436 19.9660312,6.21728718 19.9660312,7.26406843 L19.9660312,9.16273249 L21.2317577,9.16273249 L21.2317577,7.26406843 C21.2317577,6.91538874 21.5159413,6.63179889 21.864621,6.63179889 C22.2133007,6.63179889 22.4974843,6.91531452 22.4974843,7.26406843 L23.7632109,7.26406843 C23.7633593,6.21728718 22.9114765,5.36540436 21.8646952,5.36540436 Z" id="Path" stroke="#484848" stroke-width="0.4" fill="#484848" transform="translate(21.864621, 7.264068) rotate(-315.000000) translate(-21.864621, -7.264068) "></path>
        <path d="M40.6597758,19.6863054 C39.6129945,19.6863054 38.7611117,20.5381882 38.7611117,21.5849695 L38.7611117,22.2178328 L40.0268383,22.2178328 L40.0268383,21.5849695 C40.0268383,21.2362156 40.3103539,20.9521062 40.6597016,20.9521062 C41.0090492,20.9521062 41.2925648,21.2362898 41.2925648,21.5849695 L41.2925648,23.4836335 L42.5582914,23.4836335 L42.5582914,21.5849695 C42.5584398,20.538114 41.706557,19.6863054 40.6597758,19.6863054 Z" id="Path" stroke="#484848" stroke-width="0.4" fill="#484848" transform="translate(40.659702, 21.584969) rotate(-315.000000) translate(-40.659702, -21.584969) "></path>
        <path d="M42.4503082,25.9510174 C41.403527,25.9510174 40.5516442,26.8029002 40.5516442,27.8496814 L41.8173707,27.8496814 C41.8173707,27.5010018 42.1008864,27.2174119 42.450234,27.2174119 C42.7995817,27.2174119 43.0830973,27.5009275 43.0830973,27.8496814 L43.0830973,29.7483455 L44.3488239,29.7483455 L44.3488239,27.8496814 C44.3489723,26.8029002 43.4970895,25.9510174 42.4503082,25.9510174 Z" id="Path" stroke="#484848" stroke-width="0.4" fill="#484848" transform="translate(42.450234, 27.849681) rotate(-315.000000) translate(-42.450234, -27.849681) "></path>
        <path d="M22.0223516,25.3437725 L15.1651328,26.4867413 L15.1651328,25.0608507 L21.1870195,21.4477335 L20.53575,20.3623585 L14.2069687,24.1596124 C14.0164492,24.2735382 13.9,24.4791983 13.9,24.702003 L13.9,27.2335304 C13.9,27.4195968 13.9823086,27.5968311 14.1240664,27.7163975 C14.2392539,27.8138468 14.3842031,27.8663936 14.5329375,27.8663936 C14.5670781,27.8663936 14.6018867,27.8632022 14.6361016,27.8581554 L22.2306836,26.5924288 L22.0223516,25.3437725 Z" id="Path" stroke="#484848" stroke-width="0.4" fill="#484848" transform="translate(18.065342, 24.114376) rotate(-315.000000) translate(-18.065342, -24.114376) "></path>
        <path d="M29.4579782,31.6939717 L23.1291969,27.8967178 L22.4780016,28.9820928 L28.4998883,32.59521 L28.4998883,34.0204326 L21.6420016,32.8774639 L21.4344118,34.1261201 L29.0289938,35.3918467 C29.0638024,35.3975615 29.097943,35.4006787 29.1327516,35.4006787 C29.281486,35.4006787 29.4264352,35.3481318 29.5409547,35.2506826 C29.6833805,35.1304483 29.7650212,34.9538818 29.7650212,34.7678154 L29.7650212,32.2362881 C29.7650212,32.0142256 29.6484977,31.8085654 29.4579782,31.6939717 Z" id="Path" stroke="#484848" stroke-width="0.4" fill="#484848" transform="translate(25.599716, 31.648698) rotate(-315.000000) translate(-25.599716, -31.648698) "></path>
    </g>
</svg>