<?xml version="1.0" encoding="UTF-8"?>
<svg width="142px" height="60px" viewBox="0 0 142 60" version="1.1" xmlns="http://www.w3.org/2000/svg" xmlns:xlink="http://www.w3.org/1999/xlink">
    <!-- Generator: Sketch 55.2 (78181) - https://sketchapp.com -->
    <title>icon/icon-tipinsure/blue/large</title>
    <desc>Created with Sketch.</desc>
    <g id="icon/icon-tipinsure/blue/large" stroke="none" stroke-width="1" fill="none" fill-rule="evenodd">
        <g id="Logo-Tip-insure-Final-02">
            <rect id="Rectangle" x="0" y="0.127659574" width="141.41417" height="59.5468085"></rect>
            <rect id="Rectangle" fill="#E1251B" fill-rule="nonzero" x="46.4269955" y="32.5914894" width="83.1113901" height="9.80425532"></rect>
            <polygon id="Path" fill="#000F9F" fill-rule="nonzero" points="53.5843049 29.3553191 50.6296861 29.3553191 50.6296861 20.4829787 48.190852 20.4829787 48.190852 17.9808511 56.0167713 17.9808511 56.0167713 20.4829787 53.5843049 20.4829787"></polygon>
            <rect id="Rectangle" fill="#000F9F" fill-rule="nonzero" x="57.0865471" y="17.9808511" width="2.94825112" height="11.3744681"></rect>
            <path d="M61.9642152,17.9808511 L66.4789238,17.9808511 C68.9177578,17.9808511 70.6052018,19.1106383 70.6052018,21.7212766 C70.6052018,24.4085106 69.1597309,25.5829787 66.5871749,25.5829787 L64.9188341,25.5829787 L64.9188341,29.3553191 L61.970583,29.3553191 L61.970583,17.9808511 L61.9642152,17.9808511 Z M64.9124664,23.2021277 L65.409148,23.2021277 C66.4789238,23.2021277 67.5295964,23.2021277 67.5295964,21.8170213 C67.5295964,20.3808511 66.5489686,20.3680851 65.409148,20.3680851 L64.9124664,20.3680851 L64.9124664,23.2021277 Z" id="Shape" fill="#000F9F" fill-rule="nonzero"></path>
            <rect id="Rectangle" fill="#000F9F" fill-rule="nonzero" x="75.0753363" y="18.4212766" width="1.64923767" height="10.9340426"></rect>
            <polygon id="Path" fill="#000F9F" fill-rule="nonzero" points="79.6346188 29.3553191 79.6346188 17.6808511 87.5878924 26.0234043 87.5878924 18.4212766 89.23713 18.4212766 89.23713 30.0255319 81.2774888 21.7021277 81.2774888 29.3553191"></polygon>
            <path d="M98.3047534,20.0489362 L96.9675336,20.8404255 C96.7191928,20.406383 96.4772197,20.1255319 96.2543498,19.9914894 C96.0187444,19.8382979 95.7130942,19.7680851 95.3437668,19.7680851 C94.8852915,19.7680851 94.5095964,19.8957447 94.2039462,20.1574468 C93.9046637,20.412766 93.7518386,20.7319149 93.7518386,21.1212766 C93.7518386,21.6574468 94.1466368,22.0851064 94.9362332,22.4106383 L96.0251121,22.8574468 C96.9102242,23.2148936 97.5597309,23.6553191 97.9672646,24.1723404 C98.3747982,24.6893617 98.578565,25.3212766 98.578565,26.0744681 C98.578565,27.0829787 98.2410762,27.912766 97.5724664,28.5702128 C96.8974888,29.2340426 96.0633184,29.5595745 95.0635874,29.5595745 C94.1147982,29.5595745 93.3315695,29.2787234 92.7202691,28.7170213 C92.1153363,28.1553191 91.7332735,27.3638298 91.5804484,26.3425532 L93.2487892,25.9723404 C93.3252018,26.6170213 93.4589238,27.0574468 93.6435874,27.306383 C93.9810762,27.7787234 94.4777578,28.0148936 95.1272646,28.0148936 C95.6430493,28.0148936 96.0696861,27.8425532 96.4071749,27.4978723 C96.7446637,27.1531915 96.9165919,26.7191489 96.9165919,26.1893617 C96.9165919,25.9787234 96.8847534,25.7808511 96.8274439,25.6021277 C96.7701345,25.4234043 96.6746188,25.2638298 96.5536323,25.1106383 C96.426278,24.9638298 96.2670852,24.8234043 96.0696861,24.6893617 C95.872287,24.5617021 95.6366816,24.4340426 95.36287,24.3191489 L94.3121973,23.8787234 C92.8221525,23.2468085 92.0707623,22.3212766 92.0707623,21.1021277 C92.0707623,20.2787234 92.3827803,19.5957447 93.0068161,19.0404255 C93.630852,18.4851064 94.4140807,18.2042553 95.3437668,18.2042553 C96.6173094,18.2106383 97.5979372,18.8234043 98.3047534,20.0489362" id="Path" fill="#000F9F" fill-rule="nonzero"></path>
            <path d="M102.507444,18.4212766 L102.507444,25.0085106 C102.507444,25.9468085 102.660269,26.6361702 102.965919,27.0702128 C103.424395,27.6957447 104.067534,28.0085106 104.895336,28.0085106 C105.729507,28.0085106 106.372646,27.6957447 106.831121,27.0702128 C107.136771,26.6489362 107.289596,25.9659574 107.289596,25.0085106 L107.289596,18.4212766 L108.938834,18.4212766 L108.938834,25.4617021 C108.938834,26.6170213 108.582242,27.5617021 107.862691,28.3085106 C107.060359,29.1382979 106.066996,29.5531915 104.895336,29.5531915 C103.723677,29.5531915 102.736682,29.1382979 101.93435,28.3085106 C101.221166,27.5617021 100.858206,26.6170213 100.858206,25.4617021 L100.858206,18.4212766 L102.507444,18.4212766 Z" id="Path" fill="#000F9F" fill-rule="nonzero"></path>
            <path d="M115.535785,24.6957447 L118.910673,29.3553191 L116.898475,29.3553191 L113.784664,24.8808511 L113.485381,24.8808511 L113.485381,29.3553191 L111.842511,29.3553191 L111.842511,18.4212766 L113.771928,18.4212766 C115.211031,18.4212766 116.255336,18.6893617 116.892108,19.2382979 C117.598924,19.8446809 117.949148,20.6425532 117.949148,21.6319149 C117.949148,22.4042553 117.726278,23.0744681 117.286906,23.6297872 C116.847534,24.1851064 116.261704,24.5425532 115.535785,24.6957447 L115.535785,24.6957447 Z M113.485381,23.4446809 L114.007534,23.4446809 C115.567623,23.4446809 116.344484,22.8446809 116.344484,21.6510638 C116.344484,20.5340426 115.586726,19.9723404 114.071211,19.9723404 L113.485381,19.9723404 L113.485381,23.4446809 Z" id="Shape" fill="#000F9F" fill-rule="nonzero"></path>
            <polygon id="Path" fill="#000F9F" fill-rule="nonzero" points="126.857578 19.9723404 122.489327 19.9723404 122.489327 22.6021277 126.736592 22.6021277 126.736592 24.1531915 122.489327 24.1531915 122.489327 27.8042553 126.857578 27.8042553 126.857578 29.3553191 120.84009 29.3553191 120.84009 18.4212766 126.857578 18.4212766"></polygon>
            <path d="M51.2346188,37.6404255 C51.2346188,37.1361702 51.4192825,36.7085106 51.7822422,36.3510638 C52.1452018,35.993617 52.584574,35.8085106 53.1003587,35.8085106 C53.6097758,35.8085106 54.0427803,35.987234 54.4057399,36.3510638 C54.7686996,36.7148936 54.9533632,37.1489362 54.9533632,37.6595745 C54.9533632,38.1702128 54.7686996,38.6042553 54.4057399,38.9617021 C54.0364126,39.3191489 53.5970404,39.4978723 53.0748879,39.4978723 C52.6164126,39.4978723 52.2025112,39.3382979 51.8395516,39.0191489 C51.4320179,38.6680851 51.2346188,38.2085106 51.2346188,37.6404255 M51.7758744,37.6468085 C51.7758744,38.0425532 51.9095964,38.3617021 52.1706726,38.6170213 C52.4317489,38.8723404 52.7373991,39 53.0812556,39 C53.4569507,39 53.7689686,38.8723404 54.0236771,38.6106383 C54.2783857,38.3489362 54.4057399,38.0297872 54.4057399,37.6531915 C54.4057399,37.2702128 54.2783857,36.9574468 54.0236771,36.6957447 C53.7753363,36.4404255 53.4633184,36.306383 53.0876233,36.306383 C52.718296,36.306383 52.406278,36.4340426 52.1515695,36.6957447 C51.9032287,36.9510638 51.7758744,37.2702128 51.7758744,37.6468085" id="Shape" fill="#FFFFFF" fill-rule="nonzero"></path>
            <path d="M51.2346188,37.6404255 C51.2346188,37.1361702 51.4192825,36.7085106 51.7822422,36.3510638 C52.1452018,35.993617 52.584574,35.8085106 53.1003587,35.8085106 C53.6097758,35.8085106 54.0427803,35.987234 54.4057399,36.3510638 C54.7686996,36.7148936 54.9533632,37.1489362 54.9533632,37.6595745 C54.9533632,38.1702128 54.7686996,38.6042553 54.4057399,38.9617021 C54.0364126,39.3191489 53.5970404,39.4978723 53.0748879,39.4978723 C52.6164126,39.4978723 52.2025112,39.3382979 51.8395516,39.0191489 C51.4320179,38.6680851 51.2346188,38.2085106 51.2346188,37.6404255 Z M51.7758744,37.6468085 C51.7758744,38.0425532 51.9095964,38.3617021 52.1706726,38.6170213 C52.4317489,38.8723404 52.7373991,39 53.0812556,39 C53.4569507,39 53.7689686,38.8723404 54.0236771,38.6106383 C54.2783857,38.3489362 54.4057399,38.0297872 54.4057399,37.6531915 C54.4057399,37.2702128 54.2783857,36.9574468 54.0236771,36.6957447 C53.7753363,36.4404255 53.4633184,36.306383 53.0876233,36.306383 C52.718296,36.306383 52.406278,36.4340426 52.1515695,36.6957447 C51.9032287,36.9510638 51.7758744,37.2702128 51.7758744,37.6468085 Z" id="Shape" stroke="#FFFFFF" stroke-width="0.5"></path>
            <polygon id="Path" fill="#FFFFFF" fill-rule="nonzero" points="57.4176682 39.4340426 57.4176682 35.6297872 60.0093274 38.3489362 60.0093274 35.8723404 60.5442152 35.8723404 60.5442152 39.6510638 57.9525561 36.9382979 57.9525561 39.4340426"></polygon>
            <polygon id="Path" stroke="#FFFFFF" stroke-width="0.5" points="57.4176682 39.4340426 57.4176682 35.6297872 60.0093274 38.3489362 60.0093274 35.8723404 60.5442152 35.8723404 60.5442152 39.6510638 57.9525561 36.9382979 57.9525561 39.4340426"></polygon>
            <polygon id="Path" fill="#FFFFFF" fill-rule="nonzero" points="63.721704 35.8723404 63.721704 38.9297872 64.7723767 38.9297872 64.7723767 39.4340426 63.1868161 39.4340426 63.1868161 35.8723404"></polygon>
            <polygon id="Path" stroke="#FFFFFF" stroke-width="0.5" points="63.721704 35.8723404 63.721704 38.9297872 64.7723767 38.9297872 64.7723767 39.4340426 63.1868161 39.4340426 63.1868161 35.8723404"></polygon>
            <rect id="Rectangle" fill="#FFFFFF" fill-rule="nonzero" x="67.0711211" y="35.8723404" width="1" height="3.56170213"></rect>
            <rect id="Rectangle" stroke="#FFFFFF" stroke-width="0.5" x="67.0711211" y="35.8723404" width="1" height="3.56170213"></rect>
            <polygon id="Path" fill="#FFFFFF" fill-rule="nonzero" points="70.2486099 39.4340426 70.2486099 35.6297872 72.8402691 38.3489362 72.8402691 35.8723404 73.3815247 35.8723404 73.3815247 39.6510638 70.7898655 36.9382979 70.7898655 39.4340426"></polygon>
            <polygon id="Path" stroke="#FFFFFF" stroke-width="0.5" points="70.2486099 39.4340426 70.2486099 35.6297872 72.8402691 38.3489362 72.8402691 35.8723404 73.3815247 35.8723404 73.3815247 39.6510638 70.7898655 36.9382979 70.7898655 39.4340426"></polygon>
            <polygon id="Path" fill="#FFFFFF" fill-rule="nonzero" points="77.9853812 36.3765957 76.5590135 36.3765957 76.5590135 37.2319149 77.9408072 37.2319149 77.9408072 37.7361702 76.5590135 37.7361702 76.5590135 38.9297872 77.9853812 38.9297872 77.9853812 39.4340426 76.0241256 39.4340426 76.0241256 35.8723404 77.9853812 35.8723404"></polygon>
            <polygon id="Path" stroke="#FFFFFF" stroke-width="0.5" points="77.9853812 36.3765957 76.5590135 36.3765957 76.5590135 37.2319149 77.9408072 37.2319149 77.9408072 37.7361702 76.5590135 37.7361702 76.5590135 38.9297872 77.9853812 38.9297872 77.9853812 39.4340426 76.0241256 39.4340426 76.0241256 35.8723404 77.9853812 35.8723404"></polygon>
            <rect id="Rectangle" fill="#FFFFFF" fill-rule="nonzero" x="83.7290583" y="35.8723404" width="1" height="3.56170213"></rect>
            <rect id="Rectangle" stroke="#FFFFFF" stroke-width="0.5" x="83.7290583" y="35.8723404" width="1" height="3.56170213"></rect>
            <polygon id="Path" fill="#FFFFFF" fill-rule="nonzero" points="86.9129148 39.4340426 86.9129148 35.6297872 89.504574 38.3489362 89.504574 35.8723404 90.0394619 35.8723404 90.0394619 39.6510638 87.4478027 36.9382979 87.4478027 39.4340426"></polygon>
            <polygon id="Path" stroke="#FFFFFF" stroke-width="0.5" points="86.9129148 39.4340426 86.9129148 35.6297872 89.504574 38.3489362 89.504574 35.8723404 90.0394619 35.8723404 90.0394619 39.6510638 87.4478027 36.9382979 87.4478027 39.4340426"></polygon>
            <path d="M94.6942601,36.4021277 L94.2612556,36.6574468 C94.1784753,36.5170213 94.1020628,36.4212766 94.0256502,36.3829787 C93.9492377,36.3319149 93.8473543,36.306383 93.7263677,36.306383 C93.5799103,36.306383 93.4525561,36.3510638 93.3570404,36.4340426 C93.2615247,36.5170213 93.210583,36.6191489 93.210583,36.7468085 C93.210583,36.9191489 93.3379372,37.0595745 93.5990135,37.1680851 L93.9556054,37.3148936 C94.2421525,37.4297872 94.452287,37.5765957 94.586009,37.7425532 C94.7197309,37.9085106 94.7897758,38.1191489 94.7897758,38.3617021 C94.7897758,38.687234 94.6815247,38.9617021 94.4650224,39.1723404 C94.2485202,39.3893617 93.9747085,39.4978723 93.6499552,39.4978723 C93.3443049,39.4978723 93.0895964,39.4085106 92.8858296,39.2234043 C92.6884305,39.0382979 92.5674439,38.7829787 92.5165022,38.4510638 L93.0577578,38.3297872 C93.0832287,38.5404255 93.1278027,38.6808511 93.1851121,38.7638298 C93.2933632,38.9170213 93.4589238,38.993617 93.6690583,38.993617 C93.8346188,38.993617 93.9747085,38.9361702 94.0829596,38.8276596 C94.1912108,38.712766 94.2485202,38.5723404 94.2485202,38.4 C94.2485202,38.3297872 94.2357848,38.2659574 94.2230493,38.2085106 C94.2039462,38.1510638 94.1721076,38.1 94.1339013,38.0489362 C94.0956951,37.9978723 94.0383857,37.9531915 93.9747085,37.9148936 C93.9110314,37.8702128 93.8346188,37.8319149 93.7454709,37.793617 L93.4016143,37.6531915 C92.9176682,37.4489362 92.6693274,37.1425532 92.6693274,36.7468085 C92.6693274,36.4787234 92.7712108,36.2553191 92.9749776,36.0765957 C93.1787444,35.8914894 93.4334529,35.8021277 93.7391031,35.8021277 C94.1402691,35.8021277 94.4586547,36.006383 94.6942601,36.4021277" id="Path" fill="#FFFFFF" fill-rule="nonzero"></path>
            <path d="M94.6942601,36.4021277 L94.2612556,36.6574468 C94.1784753,36.5170213 94.1020628,36.4212766 94.0256502,36.3829787 C93.9492377,36.3319149 93.8473543,36.306383 93.7263677,36.306383 C93.5799103,36.306383 93.4525561,36.3510638 93.3570404,36.4340426 C93.2615247,36.5170213 93.210583,36.6191489 93.210583,36.7468085 C93.210583,36.9191489 93.3379372,37.0595745 93.5990135,37.1680851 L93.9556054,37.3148936 C94.2421525,37.4297872 94.452287,37.5765957 94.586009,37.7425532 C94.7197309,37.9085106 94.7897758,38.1191489 94.7897758,38.3617021 C94.7897758,38.687234 94.6815247,38.9617021 94.4650224,39.1723404 C94.2485202,39.3893617 93.9747085,39.4978723 93.6499552,39.4978723 C93.3443049,39.4978723 93.0895964,39.4085106 92.8858296,39.2234043 C92.6884305,39.0382979 92.5674439,38.7829787 92.5165022,38.4510638 L93.0577578,38.3297872 C93.0832287,38.5404255 93.1278027,38.6808511 93.1851121,38.7638298 C93.2933632,38.9170213 93.4589238,38.993617 93.6690583,38.993617 C93.8346188,38.993617 93.9747085,38.9361702 94.0829596,38.8276596 C94.1912108,38.712766 94.2485202,38.5723404 94.2485202,38.4 C94.2485202,38.3297872 94.2357848,38.2659574 94.2230493,38.2085106 C94.2039462,38.1510638 94.1721076,38.1 94.1339013,38.0489362 C94.0956951,37.9978723 94.0383857,37.9531915 93.9747085,37.9148936 C93.9110314,37.8702128 93.8346188,37.8319149 93.7454709,37.793617 L93.4016143,37.6531915 C92.9176682,37.4489362 92.6693274,37.1425532 92.6693274,36.7468085 C92.6693274,36.4787234 92.7712108,36.2553191 92.9749776,36.0765957 C93.1787444,35.8914894 93.4334529,35.8021277 93.7391031,35.8021277 C94.1402691,35.8021277 94.4586547,36.006383 94.6942601,36.4021277 Z" id="Path" stroke="#FFFFFF" stroke-width="0.5"></path>
            <path d="M97.75713,35.8723404 L97.75713,38.0170213 C97.75713,38.3234043 97.8080717,38.5468085 97.9099552,38.687234 C98.0564126,38.8914894 98.2665471,38.993617 98.5403587,38.993617 C98.8141704,38.993617 99.0243049,38.8914894 99.1707623,38.687234 C99.2726457,38.5531915 99.3235874,38.3234043 99.3235874,38.0170213 L99.3235874,35.8723404 L99.8584753,35.8723404 L99.8584753,38.1638298 C99.8584753,38.5404255 99.7438565,38.8468085 99.5082511,39.0893617 C99.2471749,39.3574468 98.9224215,39.4978723 98.5403587,39.4978723 C98.158296,39.4978723 97.8335426,39.3638298 97.5788341,39.0893617 C97.3432287,38.8468085 97.2286099,38.5340426 97.2286099,38.1638298 L97.2286099,35.8723404 L97.75713,35.8723404 Z" id="Path" fill="#FFFFFF" fill-rule="nonzero"></path>
            <path d="M97.75713,35.8723404 L97.75713,38.0170213 C97.75713,38.3234043 97.8080717,38.5468085 97.9099552,38.687234 C98.0564126,38.8914894 98.2665471,38.993617 98.5403587,38.993617 C98.8141704,38.993617 99.0243049,38.8914894 99.1707623,38.687234 C99.2726457,38.5531915 99.3235874,38.3234043 99.3235874,38.0170213 L99.3235874,35.8723404 L99.8584753,35.8723404 L99.8584753,38.1638298 C99.8584753,38.5404255 99.7438565,38.8468085 99.5082511,39.0893617 C99.2471749,39.3574468 98.9224215,39.4978723 98.5403587,39.4978723 C98.158296,39.4978723 97.8335426,39.3638298 97.5788341,39.0893617 C97.3432287,38.8468085 97.2286099,38.5340426 97.2286099,38.1638298 L97.2286099,35.8723404 L97.75713,35.8723404 Z" id="Path" stroke="#FFFFFF" stroke-width="0.5"></path>
            <path d="M103.698206,37.9148936 L104.799821,39.4340426 L104.143946,39.4340426 L103.13148,37.9787234 L103.035964,37.9787234 L103.035964,39.4340426 L102.501076,39.4340426 L102.501076,35.8723404 L103.13148,35.8723404 C103.602691,35.8723404 103.940179,35.9617021 104.150314,36.1404255 C104.379552,36.3382979 104.49417,36.593617 104.49417,36.9191489 C104.49417,37.1744681 104.424126,37.3914894 104.277668,37.5702128 C104.124843,37.7489362 103.933812,37.8638298 103.698206,37.9148936 L103.698206,37.9148936 Z M103.029596,37.506383 L103.201525,37.506383 C103.710942,37.506383 103.96565,37.3148936 103.96565,36.9191489 C103.96565,36.5553191 103.717309,36.3702128 103.226996,36.3702128 L103.035964,36.3702128 L103.035964,37.506383 L103.029596,37.506383 Z" id="Shape" fill="#FFFFFF" fill-rule="nonzero"></path>
            <path d="M103.698206,37.9148936 L104.799821,39.4340426 L104.143946,39.4340426 L103.13148,37.9787234 L103.035964,37.9787234 L103.035964,39.4340426 L102.501076,39.4340426 L102.501076,35.8723404 L103.13148,35.8723404 C103.602691,35.8723404 103.940179,35.9617021 104.150314,36.1404255 C104.379552,36.3382979 104.49417,36.593617 104.49417,36.9191489 C104.49417,37.1744681 104.424126,37.3914894 104.277668,37.5702128 C104.124843,37.7489362 103.933812,37.8638298 103.698206,37.9148936 Z M103.029596,37.506383 L103.201525,37.506383 C103.710942,37.506383 103.96565,37.3148936 103.96565,36.9191489 C103.96565,36.5553191 103.717309,36.3702128 103.226996,36.3702128 L103.035964,36.3702128 L103.035964,37.506383 L103.029596,37.506383 Z" id="Shape" stroke="#FFFFFF" stroke-width="0.5"></path>
            <path d="M109.212646,38.5723404 L107.690762,38.5723404 L107.295964,39.4404255 L106.716502,39.4404255 L108.473991,35.6553191 L110.167803,39.4404255 L109.581973,39.4404255 L109.212646,38.5723404 Z M108.996143,38.0617021 L108.467623,36.8489362 L107.913632,38.0617021 L108.996143,38.0617021 Z" id="Shape" fill="#FFFFFF" fill-rule="nonzero"></path>
            <path d="M109.212646,38.5723404 L107.690762,38.5723404 L107.295964,39.4404255 L106.716502,39.4404255 L108.473991,35.6553191 L110.167803,39.4404255 L109.581973,39.4404255 L109.212646,38.5723404 Z M108.996143,38.0617021 L108.467623,36.8489362 L107.913632,38.0617021 L108.996143,38.0617021 Z" id="Shape" stroke="#FFFFFF" stroke-width="0.5"></path>
            <polygon id="Path" fill="#FFFFFF" fill-rule="nonzero" points="112.409238 39.4340426 112.409238 35.6297872 115.000897 38.3489362 115.000897 35.8723404 115.542152 35.8723404 115.542152 39.6510638 112.944126 36.9382979 112.944126 39.4340426"></polygon>
            <polygon id="Path" stroke="#FFFFFF" stroke-width="0.5" points="112.409238 39.4340426 112.409238 35.6297872 115.000897 38.3489362 115.000897 35.8723404 115.542152 35.8723404 115.542152 39.6510638 112.944126 36.9382979 112.944126 39.4340426"></polygon>
            <path d="M120.84009,36.0638298 L120.84009,36.7021277 C120.528072,36.4404255 120.209686,36.312766 119.878565,36.312766 C119.515605,36.312766 119.203587,36.4468085 118.955247,36.7085106 C118.706906,36.9702128 118.579552,37.2893617 118.579552,37.6659574 C118.579552,38.0425532 118.706906,38.3553191 118.955247,38.6106383 C119.209955,38.8659574 119.515605,38.993617 119.878565,38.993617 C120.069596,38.993617 120.228789,38.9617021 120.362511,38.8978723 C120.438924,38.8659574 120.515336,38.8276596 120.591749,38.7765957 C120.668161,38.7255319 120.750942,38.6617021 120.84009,38.5851064 L120.84009,39.2361702 C120.534439,39.4085106 120.209686,39.4978723 119.872197,39.4978723 C119.36278,39.4978723 118.929776,39.3191489 118.573184,38.9680851 C118.216592,38.6106383 118.038296,38.1765957 118.038296,37.6723404 C118.038296,37.2191489 118.184753,36.8170213 118.490404,36.4595745 C118.859731,36.0255319 119.337309,35.8085106 119.923139,35.8085106 C120.235157,35.8021277 120.540807,35.8914894 120.84009,36.0638298" id="Path" fill="#FFFFFF" fill-rule="nonzero"></path>
            <path d="M120.84009,36.0638298 L120.84009,36.7021277 C120.528072,36.4404255 120.209686,36.312766 119.878565,36.312766 C119.515605,36.312766 119.203587,36.4468085 118.955247,36.7085106 C118.706906,36.9702128 118.579552,37.2893617 118.579552,37.6659574 C118.579552,38.0425532 118.706906,38.3553191 118.955247,38.6106383 C119.209955,38.8659574 119.515605,38.993617 119.878565,38.993617 C120.069596,38.993617 120.228789,38.9617021 120.362511,38.8978723 C120.438924,38.8659574 120.515336,38.8276596 120.591749,38.7765957 C120.668161,38.7255319 120.750942,38.6617021 120.84009,38.5851064 L120.84009,39.2361702 C120.534439,39.4085106 120.209686,39.4978723 119.872197,39.4978723 C119.36278,39.4978723 118.929776,39.3191489 118.573184,38.9680851 C118.216592,38.6106383 118.038296,38.1765957 118.038296,37.6723404 C118.038296,37.2191489 118.184753,36.8170213 118.490404,36.4595745 C118.859731,36.0255319 119.337309,35.8085106 119.923139,35.8085106 C120.235157,35.8021277 120.540807,35.8914894 120.84009,36.0638298 Z" id="Path" stroke="#FFFFFF" stroke-width="0.5"></path>
            <polygon id="Path" fill="#FFFFFF" fill-rule="nonzero" points="125.272018 36.3765957 123.84565 36.3765957 123.84565 37.2319149 125.227444 37.2319149 125.227444 37.7361702 123.84565 37.7361702 123.84565 38.9297872 125.272018 38.9297872 125.272018 39.4340426 123.310762 39.4340426 123.310762 35.8723404 125.272018 35.8723404"></polygon>
            <polygon id="Path" stroke="#FFFFFF" stroke-width="0.5" points="125.272018 36.3765957 123.84565 36.3765957 123.84565 37.2319149 125.227444 37.2319149 125.227444 37.7361702 123.84565 37.7361702 123.84565 38.9297872 125.272018 38.9297872 125.272018 39.4340426 123.310762 39.4340426 123.310762 35.8723404 125.272018 35.8723404"></polygon>
            <g id="Group" transform="translate(84.690583, 45.319149)" fill="#000F9F" fill-rule="nonzero">
                <path d="M0.140089686,5.39361702 L0.140089686,0.829787234 L0.827802691,0.829787234 C1.13345291,0.829787234 1.37542601,0.855319149 1.55372197,0.9 C1.73838565,0.944680851 1.89121076,1.02765957 2.01856502,1.14255319 C2.14591928,1.25744681 2.24780269,1.40425532 2.32421525,1.57659574 C2.4006278,1.74893617 2.43883408,1.92765957 2.43883408,2.10638298 C2.43883408,2.43191489 2.31147982,2.71276596 2.06313901,2.93617021 C2.30511211,3.01914894 2.4961435,3.16595745 2.63623318,3.37021277 C2.77632287,3.57446809 2.84636771,3.81702128 2.84636771,4.08510638 C2.84636771,4.44255319 2.71901345,4.74255319 2.47067265,4.99148936 C2.31784753,5.14468085 2.152287,5.24680851 1.96125561,5.3106383 C1.75748879,5.36808511 1.49641256,5.39361702 1.18439462,5.39361702 L0.140089686,5.39361702 Z M0.827802691,2.7893617 L1.04430493,2.7893617 C1.29901345,2.7893617 1.49004484,2.73191489 1.60466368,2.61702128 C1.72565022,2.50212766 1.78295964,2.33617021 1.78295964,2.11276596 C1.78295964,1.89574468 1.71928251,1.73617021 1.59829596,1.6212766 C1.47730942,1.50638298 1.29901345,1.45531915 1.06977578,1.45531915 L0.827802691,1.45531915 L0.827802691,2.7893617 Z M0.827802691,4.74255319 L1.25443946,4.74255319 C1.5664574,4.74255319 1.79569507,4.6787234 1.94215247,4.55744681 C2.09497758,4.42340426 2.17139013,4.25744681 2.17139013,4.05319149 C2.17139013,3.85531915 2.09497758,3.6893617 1.94852018,3.55531915 C1.80206278,3.4212766 1.54735426,3.35744681 1.17802691,3.35744681 L0.827802691,3.35744681 L0.827802691,4.74255319 Z" id="Shape"></path>
                <polygon id="Path" points="5.1896861 3.4212766 3.69964126 0.823404255 4.48923767 0.823404255 5.5335426 2.64893617 6.57784753 0.823404255 7.36744395 0.823404255 5.8773991 3.4212766 5.8773991 5.39361702 5.1896861 5.39361702"></polygon>
                <path d="M11.3281614,5.39361702 L11.3281614,0.829787234 L12.2833184,0.829787234 C12.7417937,0.829787234 13.1047534,0.874468085 13.3721973,0.963829787 C13.6587444,1.05319149 13.9134529,1.20638298 14.1490583,1.41702128 C14.6202691,1.84468085 14.8558744,2.41276596 14.8558744,3.11489362 C14.8558744,3.81702128 14.6139013,4.38510638 14.1235874,4.81914894 C13.8752466,5.03617021 13.6205381,5.1893617 13.3530942,5.27234043 C13.0983857,5.35531915 12.7417937,5.4 12.2833184,5.4 L11.3281614,5.4 L11.3281614,5.39361702 Z M12.0158744,4.74255319 L12.3278924,4.74255319 C12.6335426,4.74255319 12.8946188,4.7106383 13.0983857,4.64680851 C13.3021525,4.57659574 13.4868161,4.46808511 13.6523767,4.3212766 C13.9898655,4.00851064 14.1617937,3.60638298 14.1617937,3.10851064 C14.1617937,2.60425532 13.9962332,2.20212766 13.6587444,1.8893617 C13.3594619,1.60851064 12.913722,1.47446809 12.3278924,1.47446809 L12.0158744,1.47446809 L12.0158744,4.74255319 L12.0158744,4.74255319 Z" id="Shape"></path>
                <polygon id="Path" points="17.1928251 2.6106383 19.1540807 2.6106383 19.1540807 0.823404255 19.8417937 0.823404255 19.8417937 5.39361702 19.1540807 5.39361702 19.1540807 3.26170213 17.1928251 3.26170213 17.1928251 5.39361702 16.5051121 5.39361702 16.5051121 0.823404255 17.1928251 0.823404255"></polygon>
                <rect id="Rectangle" x="21.7202691" y="0.823404255" width="1" height="4.57021277"></rect>
                <path d="M24.9741704,3.53617021 L24.9741704,5.39361702 L24.2864574,5.39361702 L24.2864574,0.829787234 L25.0633184,0.829787234 C25.4453812,0.829787234 25.7319283,0.855319149 25.9293274,0.906382979 C26.1267265,0.957446809 26.2986547,1.05957447 26.4514798,1.20638298 C26.7125561,1.46170213 26.846278,1.78723404 26.846278,2.17659574 C26.846278,2.59148936 26.7061883,2.92340426 26.426009,3.17234043 C26.1458296,3.41489362 25.7701345,3.53617021 25.2989238,3.53617021 L24.9741704,3.53617021 L24.9741704,3.53617021 Z M24.9741704,2.89787234 L25.2288789,2.89787234 C25.8592825,2.89787234 26.1776682,2.65531915 26.1776682,2.16382979 C26.1776682,1.69148936 25.8529148,1.45531915 25.2034081,1.45531915 L24.9741704,1.45531915 L24.9741704,2.89787234 Z" id="Shape"></path>
                <path d="M30.6796413,4.28297872 L28.7311211,4.28297872 L28.221704,5.39361702 L27.4830493,5.39361702 L29.7372197,0.542553191 L31.9149776,5.39361702 L31.1635874,5.39361702 L30.6796413,4.28297872 Z M30.3994619,3.63829787 L29.7244843,2.08723404 L29.0176682,3.63829787 L30.3994619,3.63829787 Z" id="Shape"></path>
                <polygon id="Path" points="33.7870852 3.4212766 32.3034081 0.823404255 33.0930045 0.823404255 34.1373094 2.64893617 35.1816143 0.823404255 35.9712108 0.823404255 34.4747982 3.4212766 34.4747982 5.39361702 33.7870852 5.39361702"></polygon>
                <path d="M39.5434978,4.28297872 L37.5949776,4.28297872 L37.0855605,5.39361702 L36.3469058,5.39361702 L38.6010762,0.542553191 L40.7788341,5.39361702 L40.0274439,5.39361702 L39.5434978,4.28297872 Z M39.2633184,3.63829787 L38.5883408,2.08723404 L37.8815247,3.63829787 L39.2633184,3.63829787 Z" id="Shape"></path>
            </g>
            <path d="M33.4623318,17.3744681 C33.2012556,14.3744681 31.8258296,11.7 29.59713,9.84893617 C27.6040359,8.15744681 25.0887892,7.22553191 22.5162332,7.22553191 C22.2042152,7.22553191 21.8794619,7.23829787 21.5674439,7.26382979 C18.5746188,7.53191489 15.9065471,8.90425532 14.0599103,11.1319149 C12.1432287,13.4042553 11.226278,16.2574468 11.4873543,19.1744681 C11.7038565,21.9957447 12.9837668,24.587234 15.0787444,26.4765957 C15.2060987,26.6042553 15.39713,26.6808511 15.575426,26.6808511 C15.7600897,26.6808511 15.9511211,26.6042553 16.0721076,26.4765957 C16.218565,26.3297872 16.2886099,26.1255319 16.263139,25.9148936 C16.2376682,25.7553191 16.1612556,25.6021277 16.0211659,25.4617021 C14.2,23.7510638 13.0856502,21.4659574 12.8882511,19.0276596 C12.690852,16.4297872 13.467713,13.9978723 15.1424215,12 C16.8107623,10.0468085 19.147713,8.86595745 21.7202691,8.66808511 C21.9749776,8.64893617 22.2296861,8.63617021 22.4843946,8.63617021 C24.7640359,8.63617021 26.9672646,9.44680851 28.6865471,10.9276596 C30.6159641,12.587234 31.8130942,14.9170213 32.0550673,17.4765957 C32.2142601,19.6212766 31.6921076,21.6957447 30.552287,23.4702128 C30.4504036,23.6170213 30.418565,23.8148936 30.4567713,24 C30.4949776,24.1914894 30.6032287,24.3574468 30.7496861,24.4531915 C30.8579372,24.5297872 30.9916592,24.5680851 31.1317489,24.5680851 C31.373722,24.5680851 31.6093274,24.4468085 31.7366816,24.2553191 C33.0802691,22.187234 33.6724664,19.806383 33.4623318,17.3744681" id="Path" fill="#000F9F" fill-rule="nonzero"></path>
            <path d="M22.5480717,10.6787234 C22.3379372,10.6787234 22.121435,10.6851064 21.9113004,10.7042553 C17.6704036,11.0553191 14.4992825,14.8021277 14.843139,19.0595745 C14.9704933,20.6425532 15.5945291,22.1553191 16.6515695,23.4446809 C16.8107623,23.706383 17.0973094,23.706383 17.1991928,23.706383 C17.3711211,23.706383 17.4857399,23.6425532 17.5557848,23.5978723 L17.6513004,23.5468085 L17.6958744,23.5021277 C17.950583,23.2468085 17.9887892,22.8638298 17.7850224,22.5638298 L17.7595516,22.5255319 C16.8680717,21.4723404 16.3586547,20.2276596 16.2886099,18.912766 C16.0211659,15.4340426 18.6064574,12.3829787 22.0641256,12.1148936 C22.2296861,12.1021277 22.3952466,12.0957447 22.5608072,12.0957447 C25.8338117,12.0957447 28.5910314,14.6489362 28.8521076,17.9042553 C28.9667265,19.2829787 28.6292377,20.6425532 27.8969507,21.8042553 C27.7695964,21.9765957 27.7186547,22.1744681 27.7504933,22.3659574 C27.7823318,22.5510638 27.8842152,22.7042553 28.0434081,22.812766 C28.1516592,22.8893617 28.2853812,22.9276596 28.4254709,22.9276596 C28.6674439,22.9276596 28.9030493,22.806383 29.0367713,22.6085106 C29.9664574,21.1468085 30.3867265,19.487234 30.2593722,17.8021277 C29.909148,13.8 26.5342601,10.6787234 22.5480717,10.6787234" id="Path" fill="#E1251B" fill-rule="nonzero"></path>
            <path d="M19.5361435,34.9531915 C19.5361435,35.1255319 19.5361435,35.2404255 19.5361435,35.3553191 C19.5361435,36.7148936 19.5297758,38.0744681 19.5425112,39.4404255 C19.5425112,39.8297872 19.8035874,40.1361702 20.1538117,40.2 C20.5486099,40.2702128 20.9115695,40.0978723 21.0452915,39.7404255 C21.1026009,39.593617 21.1089686,39.4276596 21.1089686,39.2680851 C21.1153363,37.9595745 21.1089686,36.6574468 21.1089686,35.3489362 C21.1089686,31.1361702 21.1089686,26.9297872 21.1089686,22.7170213 C21.1089686,21.8042553 21.5992825,21.1404255 22.3697758,20.9744681 C23.4268161,20.7574468 24.3373991,21.5170213 24.3373991,22.6404255 C24.3437668,24.9319149 24.3373991,27.2234043 24.3373991,29.5212766 C24.3373991,30.6446809 24.3373991,31.7680851 24.3373991,32.8978723 C24.3373991,33.4531915 24.6366816,33.7851064 25.1269955,33.7787234 C25.6173094,33.7787234 25.9102242,33.4468085 25.9102242,32.8851064 C25.9102242,31.6085106 25.9038565,30.3382979 25.9102242,29.0617021 C25.9165919,28.206383 26.426009,27.5489362 27.1837668,27.3957447 C28.2153363,27.1914894 29.1195516,27.9319149 29.1386547,29.0170213 C29.1513901,29.8212766 29.1386547,30.6255319 29.1450224,31.4297872 C29.1513901,31.8 29.4124664,32.093617 29.7499552,32.1574468 C30.1447534,32.2340426 30.5013453,32.0553191 30.641435,31.7042553 C30.686009,31.5893617 30.7051121,31.4553191 30.7051121,31.3276596 C30.7178475,31.0723404 30.6987444,30.8106383 30.7114798,30.5553191 C30.7624215,29.6297872 31.4819731,28.9340426 32.3479821,28.9595745 C33.2330942,28.9851064 33.9144395,29.687234 33.9399103,30.606383 C33.9526457,31.1106383 33.9399103,31.6148936 33.946278,32.1191489 C33.9526457,32.6170213 34.2519283,32.9680851 34.6976682,32.987234 C35.1306726,33.012766 35.4808969,32.6808511 35.5191031,32.1829787 C35.5764126,31.4425532 35.9202691,30.9 36.6398206,30.6574468 C37.2765919,30.4404255 37.8433184,30.606383 38.3081614,31.0851064 C38.6138117,31.3978723 38.7539013,31.787234 38.7539013,32.2212766 C38.7539013,35.5340426 38.7984753,38.8468085 38.7411659,42.1531915 C38.6838565,46.6595745 35.6591928,50.3553191 31.2718386,51.2680851 C28.0625112,51.9319149 25.2161435,51.0829787 22.8282511,48.8234043 C21.5738117,47.6297872 20.3639462,46.3851064 19.1540807,45.1468085 C16.3713901,42.293617 16.486009,37.7744681 19.3960538,35.0553191 C19.415157,35.0297872 19.4469955,35.0170213 19.5361435,34.9531915" id="Path" fill="#000F9F" fill-rule="nonzero"></path>
        </g>
    </g>
</svg>