<svg id="Layer_1" data-name="Layer 1" xmlns="http://www.w3.org/2000/svg" xmlns:xlink="http://www.w3.org/1999/xlink" viewBox="0 0 1140 860"><defs><style>.cls-1{opacity:0.2;}.cls-2{fill:#f3ddd7;}.cls-3{fill:#cc4b32;}.cls-4{fill:#931a22;opacity:0.5;}.cls-5{fill:#fcd5c1;}.cls-6{fill:#20386d;}.cls-7{fill:url(#linear-gradient);}.cls-8{fill:#f9b79a;}.cls-10,.cls-9{fill:#f7bd9f;}.cls-9{fill-rule:evenodd;}.cls-11{fill:#f6ede7;}.cls-12{fill:url(#linear-gradient-2);}.cls-13{fill:#3a596c;}.cls-14{fill:url(#linear-gradient-3);}.cls-15{fill:#074670;}.cls-16{fill:#cedce2;}.cls-17{fill:#465c7d;}.cls-18{fill:#fff;}</style><linearGradient id="linear-gradient" x1="659.87" y1="595.51" x2="453.28" y2="762.54" gradientUnits="userSpaceOnUse"><stop offset="0" stop-color="#f58b1e"/><stop offset="0.86" stop-color="#ee354d"/><stop offset="1" stop-color="#ed2755"/></linearGradient><linearGradient id="linear-gradient-2" x1="1027.94" y1="206.27" x2="786.18" y2="412.86" xlink:href="#linear-gradient"/><linearGradient id="linear-gradient-3" x1="-40.88" y1="116.58" x2="304.17" y2="437.45" xlink:href="#linear-gradient"/></defs><title>finalbanner</title><g class="cls-1"><rect class="cls-2" x="409.41" y="250.74" width="321.19" height="228.67" rx="12" ry="12"/><rect class="cls-2" x="818.81" y="250.74" width="321.19" height="228.67" rx="12" ry="12"/><rect class="cls-2" y="250.74" width="321.19" height="228.67" rx="12" ry="12"/></g><path class="cls-3" d="M6.06,4H1133.94a5.4,5.4,0,0,1,5.5,5.3h0a5.4,5.4,0,0,1-5.5,5.3H6.06A5.4,5.4,0,0,1,.56,9.3h0A5.4,5.4,0,0,1,6.06,4Z"/><path class="cls-3" d="M432.49,46.9a42.18,42.18,0,1,0,42.18,42.18A42.18,42.18,0,0,0,432.49,46.9Zm0,75.35a33.17,33.17,0,1,1,33.17-33.17A33.17,33.17,0,0,1,432.49,122.25Z"/><rect class="cls-3" x="427.19" y="4" width="10.59" height="48.25" rx="5.3" ry="5.3"/><rect class="cls-4" x="8.94" y="853.75" width="1053.56" height="4.18" rx="0.79" ry="0.79"/><rect class="cls-4" x="113.5" y="621.41" width="852.02" height="27.04" rx="5.14" ry="5.14"/><polygon class="cls-5" points="573.09 834.35 560.14 833.45 562.29 801.83 575.24 802.73 573.09 834.35"/><polygon class="cls-5" points="532.33 833.81 519.44 835.35 515.77 803.87 528.66 802.33 532.33 833.81"/><path class="cls-6" d="M558.42,831.5l-6.68,23.82H609.6s1.3-6-3.52-6.75-32.8-17.07-32.8-17.07-1.51,1.5-6.52,1.13A63.72,63.72,0,0,1,558.42,831.5Z"/><path class="cls-6" d="M517.43,831.5s9.46,2.25,15.21,0c0,0,7.79,6.94,8.16,23.82H484.6s0-6.75,2.6-6.94S517.43,831.5,517.43,831.5Z"/><path class="cls-7" d="M511.66,813l21.76-7.53-25.2-154.65h46.38l4,156.38,20,2.32L601,659s12.12-67.32-16.85-65.51S555.72,609,555.72,609l-60.28-.29c-2,0-6.47-3.92-8.47-4.77-5.5-2.34-11.65-3.77-17.38-1.41-19,7.81-18.38,28.92-13.47,45.45C464.71,676.91,511.66,813,511.66,813Z"/><path class="cls-5" d="M512.6,445.4v16.79l-7,4.29s5.54,11.25,16.43,11.43,18.4-12.14,18.4-12.14L534.1,445.4Z"/><path class="cls-2" d="M600.91,501.92a70.17,70.17,0,0,0-10.57-25.74c-4-5.79-9.55-11.58-16.91-12.34,0,0-36.47,10.21-51.55,9.73S513.26,460,513.26,460a164,164,0,0,0-18.58,6c-10.52,4-21.13,8.55-29.67,16.08-7.94,7-11.57,17.51-14.14,27.47-3.32,12.84-5.47,26.4-2.49,39.33,3.25,14.12,12.21,26.47,20.15,38.29,3.35,5,6.82,9.89,10.47,14.66.43.57,3.13,5,3.93,4.95l82.45-1.72c5.11-4.47,10-9.29,14.62-14.22,6.89-7.29,14.15-14.23,18.56-23.39,4.66-9.7,5.23-20,5.19-30.6C603.71,525.18,603.33,513.41,600.91,501.92Z"/><path class="cls-6" d="M484.66,494.36s-6-8.58-5.48-42.9,0-80.32,0-80.32,2.38-40.28,50.05-40.28,51.48,41.71,51.48,41.71V485.3s-3.34,19.31-22.17,19.31-25.74-16-25.74-16l1.61-53.57-22.5-.13,1.35,25.1S486.33,473.86,484.66,494.36Z"/><path class="cls-5" d="M487.21,368.94v54.38s8.18,24.53,36.39,24.53c17.63,0,31.89-12.83,31.89-30.66,0,0,12.23.2,12.23-10.63s-10.18-10.63-10.18-10.63l-.41-4.91s-56.83-10.63-60.92-25.76Z"/><path class="cls-6" d="M486.53,411.07V376.89s8.65-6.06,8.65-10.82,12.86,26,56.18,27.69l2.22,56.68h3.89V391.16l-59.7-35.91-16,17.31V410.2Z"/><path class="cls-6" d="M484.82,544.51h76.81a14.92,14.92,0,0,1,14.57,17.6l-6.79,38.47A14.85,14.85,0,0,1,555,612.91l-59.58.61A14.82,14.82,0,0,1,481,602.46l-10.45-39.07A14.93,14.93,0,0,1,484.82,544.51Z"/><ellipse class="cls-8" cx="490.42" cy="414.57" rx="8.27" ry="3.91"/><ellipse class="cls-8" cx="532.74" cy="416.54" rx="8.27" ry="3.91"/><path class="cls-9" d="M519.7,441.17q9.84-1.11,12.6-8.33a3.63,3.63,0,0,0-3.79-4.9l-20.36,2.3a3.63,3.63,0,0,0-2.6,5.62Q509.86,442.29,519.7,441.17Z"/><path class="cls-10" d="M511.87,420a4.87,4.87,0,0,1-1.37.08,5.15,5.15,0,0,1-4.19-3.27c-1.74-3.9,1.33-10.86,2-12.22a1.15,1.15,0,0,1,1.74-.5,1.69,1.69,0,0,1,.54,2.05c-1.31,2.82-2.79,7.6-2,9.43a2.31,2.31,0,0,0,3,1.41,1.33,1.33,0,0,1,1.65,1C513.64,419.22,512.8,419.77,511.87,420Z"/><rect class="cls-5" x="921.04" y="797.63" width="22.07" height="39.3"/><polyline class="cls-6" points="932.08 853.71 861.19 853.71 861.19 849.25 918.55 827.43 925.9 835.37 946.74 835.37 946.74 853.71"/><rect class="cls-5" x="830.75" y="793.54" width="22.07" height="44.87"/><polygon class="cls-6" points="828.26 827.43 835.61 835.37 856.45 835.37 856.45 853.7 841.78 853.71 770.9 853.71 770.9 849.25 828.26 827.43"/><path class="cls-5" d="M799,125.86a30.77,30.77,0,0,1,2.47,7.53,10.15,10.15,0,0,1,.22,2.89,10.67,10.67,0,0,1-1,3.31,28.16,28.16,0,0,1-3.86,6.21,8,8,0,0,0-1.16,4.23,44.11,44.11,0,0,0,3.94,13,4.8,4.8,0,0,1,.68,2.3,3.86,3.86,0,0,1-1.77,2.65,27.68,27.68,0,0,1-3.5,2.15l-3.85,2.11c-1.06.58-2.13,1.17-3.24,1.66a44.29,44.29,0,0,1-6.28,2.09,4.36,4.36,0,0,1-2.4.2,3.82,3.82,0,0,1-2.14-2.36,21.16,21.16,0,0,1-1.19-5.88c-.38-3.52-.84-7-1.53-10.49-1.39-6.91-3.72-13.58-5.33-20.44q-.73-3.13-1.25-6.31Z"/><path class="cls-5" d="M895.7,235.81v17.76s2.55,9.56,14.44,8.71,13.17-15.72,13.17-15.72V233.82Z"/><path class="cls-11" d="M882.73,472.57,893.56,817.2h59.57V561.12s4.06-26.93,8.57-36.06,13.09-29.67,9-47.93Z"/><polygon class="cls-11" points="847.04 478.18 815.04 816.72 869.72 815.97 893.83 555.37 913.9 465.96 847.04 478.18"/><path class="cls-6" d="M969.24,652.78l-113.2-18a11.61,11.61,0,0,1-9.57-13.29l13.23-85.2a11.51,11.51,0,0,1,13.14-9.68l113.2,18a11.61,11.61,0,0,1,9.57,13.29l-13.23,85.2A11.51,11.51,0,0,1,969.24,652.78Z"/><path class="cls-5" d="M934.3,500.93a2.85,2.85,0,0,0-1,.48,17.87,17.87,0,0,0-2.16,2.28l-5.92,6.21-8.53,9s-.49,5.09,5,4.27q-.84,3-1.81,5.95a29.59,29.59,0,0,1-1.43,3.86c-1.65,3.32,3.26,6.91,5.71,8.52,3.91,2.58,8.61,3.36,12.94,1.35,11.35-5.25,13.95-10,14.11-15.1.13-4.09,2.61-7.37,2.52-11.43,0-1.92-.28-3.83-.5-5.73-.27-2.42-1-2.82-3.21-3.7l-6.52-2.62-5.31-2.14C936.79,501.52,935.61,500.63,934.3,500.93Z"/><path class="cls-12" d="M937.45,252.64c25.29,13.89,66.83,39.17,71.37,70.19,4.35,29.72.56,61.13-7.81,91.59-8.57,31.17-21.93,61.36-36.27,87.73-1.81,3.34-4,6.33-5.72,9.72H918.64l9.27-33.69H847s-9.72-76.89-5.73-120.74S847,328.37,847,328.37l-45.36-38.52L777,174l32.11-14,31.17,90,42.12,21.76Z"/><polygon class="cls-11" points="890.35 259.72 933.68 244.13 937.45 264.31 897.63 289.85 890.35 259.72"/><polygon class="cls-11" points="894.41 250.04 877.3 255.2 879.88 283.93 898.66 266.99 894.41 250.04"/><path class="cls-3" d="M777,47.36A42.18,42.18,0,1,0,819.2,89.53,42.18,42.18,0,0,0,777,47.36Zm0,75.35A33.17,33.17,0,1,1,810.2,89.53,33.17,33.17,0,0,1,777,122.7Z"/><rect class="cls-3" x="771.73" y="4.45" width="10.59" height="48.25" rx="5.3" ry="5.3"/><path class="cls-5" d="M796.24,120.25l-2.85,1.67a2,2,0,0,1-2.79-.76l-4.18-7.33a2.09,2.09,0,0,1,.75-2.82l2.85-1.67a2,2,0,0,1,2.79.76l4.18,7.33A2.09,2.09,0,0,1,796.24,120.25Z"/><path class="cls-5" d="M786.62,122.12l-2.69,1.15a1.81,1.81,0,0,1-2.37-1l-3.44-8.23a1.85,1.85,0,0,1,1-2.4l2.69-1.15a1.81,1.81,0,0,1,2.37,1l3.44,8.23A1.85,1.85,0,0,1,786.62,122.12Z"/><path class="cls-5" d="M780.07,124.57l-2.69,1.15a1.81,1.81,0,0,1-2.37-1l-3.44-8.23a1.85,1.85,0,0,1,1-2.4l2.69-1.15a1.81,1.81,0,0,1,2.37,1l3.44,8.23A1.85,1.85,0,0,1,780.07,124.57Z"/><path class="cls-5" d="M772.65,127.51l-2.32,1.35a1.66,1.66,0,0,1-2.27-.61l-4.57-8a1.69,1.69,0,0,1,.61-2.29l2.32-1.35a1.66,1.66,0,0,1,2.27.61l4.57,8A1.69,1.69,0,0,1,772.65,127.51Z"/><path class="cls-5" d="M867.17,134.35s-9.7,13.66-10,40.9c-.16,14-1.77,28.52,1.27,42.32,1.19,5.39,3.4,11.64,7.43,15.62,4.22,4.17,9.66,5.31,15.23,6.66a98.08,98.08,0,0,0,19.87,3.09c19,.63,38.11-9.8,38.7-30.75l1.71-59.48L899,131.13Z"/><path class="cls-6" d="M932.71,230.41c-.56-17.77,4.62-37.17.83-54.76-2.21-10.26-15.19-7.26-15.19-7.26l-.69-1.74s5-3.79,4.83-7.74-3-11.21-13.4-10.89-14.64,5.37-26.52,4.74-16-5.05-16-5.05-5.3,11-5.3,15.7l-3.74,4s1.88-53.76,44.81-51.7c15.38.74,32.51,4.76,43.44,18,8.26,10,10.4,23.63,9.94,36.9-.48,14.22-2.27,31-6.4,44.44-1.25,4.08-3,8.06-5.72,11.06A13.48,13.48,0,0,1,932.71,230.41Z"/><path class="cls-5" d="M939.82,183.64l-3.66,25s14.18,2.76,15.48-11.67S939.82,183.64,939.82,183.64Z"/><path class="cls-9" d="M884.65,227.21q8.8-1.31,12.11-11.54a3.05,3.05,0,0,0-3.36-3.91l-17,2.53a3.08,3.08,0,0,0-2.57,3.46Q875.27,228.6,884.65,227.21Z"/><path class="cls-10" d="M882.94,202.64a7.75,7.75,0,0,1-1.86-.23,6.41,6.41,0,0,1-4.74-4.69c-1.28-4.85,4.72-12.1,5.93-13.5a1.75,1.75,0,0,1,2.64,2.29c-2.52,2.91-5.8,8-5.19,10.31a3.2,3.2,0,0,0,3.65,2.3,1.75,1.75,0,0,1,2,1.51C885.51,202.19,884.25,202.63,882.94,202.64Z"/><path class="cls-13" d="M339.11,260.07,316.91,255a4.77,4.77,0,0,1-3.45-5.76l9.47-57.94c.58-2.61,6.57-4.39,9.06-3.82l22.2,5.07a4.77,4.77,0,0,1,3.45,5.76l-13,58.06A4.71,4.71,0,0,1,339.11,260.07Z"/><path class="cls-5" d="M183.78,192.41c.64-1.56,1-3.23,1.57-4.82a78.71,78.71,0,0,1,3.27-8,60.28,60.28,0,0,1,13.56-19,39.19,39.19,0,0,1,25.16-10.4,50.1,50.1,0,0,1,14.3,1.73c16.23,4.25,27.81,15.17,31.25,30.26,2.82,12.4-.09,24.91-3,36.81a147.29,147.29,0,0,1-14.07,36.63c-2.83,5.1-6.09,10.09-10.69,13.91-7.62,6.33-18.12,7.55-28.16,4.4,0,0-36.77-3.57-32.09-47.08-.09.72-5.73-.75-6.32-.89-3-.72-6.76-1.68-8.47-4.26a9.63,9.63,0,0,1-1.43-4.33c-.48-4.3.64-8.61,1.39-12.77.58-3.26,1.65-6.82,5.16-8.28a10.12,10.12,0,0,1,3.91-.67,12.93,12.93,0,0,0,2.4.2c.84-.22,1.26-1.43,1.67-2.16A12.12,12.12,0,0,0,183.78,192.41Z"/><path class="cls-5" d="M193.2,258.61l-5.62,19.24s-35.46-13.94-42.76,6.83,50.83,37.39,50.83,37.39l8.71-7.4s7.78-26.62,11.9-26.72L204,281l3.18-10.89"/><polygon class="cls-5" points="123.39 828.01 106.14 826.81 108.29 795.18 125.54 796.38 123.39 828.01"/><polygon class="cls-5" points="289.79 834.43 272.72 837.24 266.8 800.47 283.86 797.66 289.79 834.43"/><path class="cls-5" d="M76.24,174.72c.63-1.93,0-5.83,0-6.83a10.34,10.34,0,0,1,2-6.35,22.47,22.47,0,0,1,3.4-2.77,26.91,26.91,0,0,0,4.8-5.58,21.91,21.91,0,0,0,1.87-2.95,11.65,11.65,0,0,0,.46-9.08c-.36-1-1.68-8.53-2.46-9.26-1-.9-2.46-.72-3.65-.94-9.14,0-16.82,3-26,3-.79.15-3.23.17-3.78.76s-.82,6.8-.9,7.69c-.26,3-.34,6.07-.37,9.11-.06,6.09.11,12.2-.45,18.27l.19,2.6c0,.59.05,1.2.13,1.78.2,1.45,2.59.78,3.65.77q3.33,0,6.65.08,6.56.19,13.09.8C75.6,175.87,76,175.42,76.24,174.72Z"/><path class="cls-11" d="M168.23,533c.32-3.49,1.9-7.38,5.08-9.2,3.85-2.2,5.57,2,6.22,5.18L250.93,810l49.9-13.72L233.72,400.15l-115.81,14L91.59,801.85h51.25S168.2,533.28,168.23,533Z"/><path class="cls-14" d="M239.86,427.63c-1.65-6.57-3.15-13.18-4.39-19.87l-4.56-24.56c-.74-4-2-7.91-2.9-11.87a55.56,55.56,0,0,1-1.12-5.89c-.18-1.48-.84-4.48-.16-5.87.82-1.68,5.91,1.34,7,1.87a55.55,55.55,0,0,1,7.05,4.32c4.41,3.09,8.53,6.61,13.11,9.44,10.77,6.64,24.11,11.63,35.87,4.43,6.36-3.9,11-10.2,14.17-17,2.93-6.29,24.35-85.48,25.93-85.19l-24.61-10-31.33,63.37-59.86-45c-3.16,11.3-16.88,18.2-27.69,13.92S170,281,175.3,270.56L81.88,257.37V173.57l-36.32-.07C46.4,201.15,37.82,228.41,39,256c.35,8.17,1.62,16.48,5.38,23.72,7.26,14,22.51,21.79,37.44,26.48s30.74,7.3,44.35,15.1c1.5.76-2.75,27.42-3,30.41L120,383q-3,30.1-6,60.19a2.14,2.14,0,0,0,.14,1.28,2.09,2.09,0,0,0,1.2.78c38.09,13.57,77.85,19,117.76,10.53,2.91-.62,5.83-.84,8.66-1.88a5.55,5.55,0,0,0,3.36-2.84,6.47,6.47,0,0,0,.18-3.48c-.55-3.42-1.89-6.62-2.86-9.93S240.69,431,239.86,427.63Z"/><path class="cls-15" d="M335.49,258.86l-22.2-5.07a4.67,4.67,0,0,1-3.49-5.59l12.48-55.9a4.62,4.62,0,0,1,5.52-3.53l22.2,5.07a4.67,4.67,0,0,1,3.49,5.59L341,255.33A4.62,4.62,0,0,1,335.49,258.86Z"/><path class="cls-6" d="M269.75,826.92l-8,28.41h69s1.55-7.16-4.2-8.05-39.11-20.35-39.11-20.35-1.81,1.79-7.78,1.34A76,76,0,0,1,269.75,826.92Z"/><path class="cls-6" d="M104.09,825.68l-8,28.41h69s1.55-7.16-4.2-8.05-39.11-20.35-39.11-20.35S120,827.47,114,827A76,76,0,0,1,104.09,825.68Z"/><path class="cls-6" d="M198.7,258.62s-1.25,7.18-9.34,6.61-23.27-5.45-15.1-27c-1.23,3.21-13.8-1.06-15.95-1.77a29.7,29.7,0,0,1-16.79-14.93c-5.89-11.45-8.59-29.48.88-39.81.66-.72,3.17-2.18,3.44-3,.5-1.47-.55-1.63-.85-3.09-.72-3.4-1.9-5.91-.92-9.53,1.86-6.84,3.84-6.89,3.85-6.89-1.46,0-4.44-7.17-4.87-8.19-4.54-10.87.77-23.11,8.75-30.84s22.33-13.44,31.94-5.19l3.94,3.38s2.55-7.38,9.82-7.13,11.09,7.38,11.1,7.4c-.8-1.5,2.29-7.18,2.91-8.44,2.86-5.82,7.41-11,13.53-13.45,11.34-4.57,24.7-.77,34.58,5.55,5.1,3.26,10.06,7.32,12.22,13.16.33.88,2.57,11.31.54,11.61,0,0,5.59-.82,8.68,3.18a12.54,12.54,0,0,1,2.5,8.54s16.68-4.89,21.55,8.27a16.46,16.46,0,0,1-6,20s8.11,13.2-1.61,19-13.6,3.39-13.6,3.39-.6,8.46-6.85,9.1-9.52-.94-9.52-.94,4.17-11.24-.92-13.73-5.34-4.68-5.34-4.68-3.83-.16-6.3-6.1a3.1,3.1,0,0,0-4.39.22c-2.4,2.18-3.19,4.37-15.87,2.51s-14.9-9.7-14.9-9.7-3.74.06-3.58,3.8-7,3.35-7,3.35a11.63,11.63,0,0,1-1.4,10.69s-2.6,3.55-6.64,3.27c0,0,1.49,16.66-2,16.41s-10.18,2.06-9.29-9.09c0,0-16-1.94-16.09,14.67s14,17.26,14,17.26S182.09,239.66,198.7,258.62Z"/><path class="cls-16" d="M335.46,246.73l-17.56-4a3.58,3.58,0,0,1-2.81-4.18l9.2-41.25a3.53,3.53,0,0,1,4.31-2.55l17.56,4a3.58,3.58,0,0,1,2.81,4.18l-9.2,41.25A3.53,3.53,0,0,1,335.46,246.73Z"/><path class="cls-5" d="M315.25,249.93c-1.2-.88-1.63-2.45-2-3.9s-.68-3.32.36-4.47a5.65,5.65,0,0,1,3-1.28,14.7,14.7,0,0,0,5.8-3,14.94,14.94,0,0,0,2.31-2.43c4.18-5.52-5.23-5.53-8.46-5.28a13.81,13.81,0,0,0-9.61,4.62,16.6,16.6,0,0,0-3.35,7.72c-.92,4.9-.46,9.95,0,14.91.17,1.78.34,8.25,1,9.91,1.58,3.94,5.57,6.23,9.29,8.21,4.3,2.29,8.9,4.63,13.75,4.24a4.52,4.52,0,0,0,2.13-.6,5,5,0,0,0,1.33-1.45c1.49-2.2,2.63-9.3,3.36-11.86.53-1.84.8-4-.27-5.54s-2.78-2-4.43-2.52a47.35,47.35,0,0,1-13.78-6.82Z"/><path class="cls-5" d="M350.48,225.49l-.76-.27a3.24,3.24,0,0,0-4.14,2l-6.06,17.21a3.3,3.3,0,0,0,2,4.19l.76.27a3.24,3.24,0,0,0,4.14-2l.75-2.12a1.93,1.93,0,0,0,.46.18,2,2,0,0,0,2.31-1.69l.61-3.85a2,2,0,0,0-.8-1.94l2.74-7.79A3.3,3.3,0,0,0,350.48,225.49Z"/><path class="cls-5" d="M355.4,229.61l-14.47,5.8a1.84,1.84,0,0,1-2.39-1l-1.4-3.57a1.87,1.87,0,0,1,1-2.41l14.47-5.8a1.84,1.84,0,0,1,2.39,1l1.4,3.57A1.87,1.87,0,0,1,355.4,229.61Z"/><path class="cls-5" d="M353,237.78l-11.58,4.64a1.59,1.59,0,0,1-2.07-.91l-1.21-3.1a1.62,1.62,0,0,1,.9-2.09l11.58-4.64a1.59,1.59,0,0,1,2.07.91l1.21,3.1A1.62,1.62,0,0,1,353,237.78Z"/><path class="cls-5" d="M351.28,248.84l-12.58,1.57a1.43,1.43,0,0,1-1.58-1.25l-.36-2.94a1.44,1.44,0,0,1,1.23-1.6l12.58-1.57a1.43,1.43,0,0,1,1.58,1.25l.36,2.94A1.44,1.44,0,0,1,351.28,248.84Z"/><path class="cls-3" d="M68.6,52.83A42.18,42.18,0,1,0,110.78,95,42.18,42.18,0,0,0,68.6,52.83Zm0,75.35A33.17,33.17,0,1,1,101.77,95,33.17,33.17,0,0,1,68.6,128.17Z"/><rect class="cls-3" x="63.31" y="9.92" width="10.59" height="48.25" rx="5.3" ry="5.3"/><circle class="cls-17" cx="184.36" cy="322.07" r="5.75"/><circle class="cls-18" cx="184.36" cy="322.07" r="5.75"/><circle class="cls-18" cx="184.24" cy="348.6" r="5.75"/><path class="cls-5" d="M59.29,128.72l-3.19.93a1.61,1.61,0,0,1-2-1.11l-1.8-6.32a1.63,1.63,0,0,1,1.1-2l3.19-.93a1.61,1.61,0,0,1,2,1.11l1.8,6.32A1.63,1.63,0,0,1,59.29,128.72Z"/><path class="cls-5" d="M64.62,129.92l-3.31-.34a1.63,1.63,0,0,1-1.44-1.78l.74-7.34A1.62,1.62,0,0,1,62.39,119l3.31.34a1.63,1.63,0,0,1,1.44,1.78l-.74,7.34A1.62,1.62,0,0,1,64.62,129.92Z"/><path class="cls-5" d="M74.23,128.7l-3.31.26a1.62,1.62,0,0,1-1.73-1.49l-.57-7.36a1.63,1.63,0,0,1,1.48-1.75l3.31-.26a1.62,1.62,0,0,1,1.73,1.49l.57,7.36A1.63,1.63,0,0,1,74.23,128.7Z"/><path class="cls-5" d="M84.75,131.14l-3.31.26a1.62,1.62,0,0,1-1.73-1.49L79.1,122a1.63,1.63,0,0,1,1.48-1.75l3.31-.26a1.62,1.62,0,0,1,1.73,1.49l.61,7.86A1.63,1.63,0,0,1,84.75,131.14Z"/><path class="cls-9" d="M221.61,259.23q9.46,5.19,16.24-.38a2.94,2.94,0,0,0-.46-4.83l-19.64-14.51c-1.81-1-4.38-.54-4.63,1.51C212.4,246.84,215.31,255.77,221.61,259.23Z"/><path class="cls-10" d="M235.5,234.66a8.13,8.13,0,0,0,2,.27,6.73,6.73,0,0,0,6.07-3.48c2.6-4.58-1.54-13.54-2.39-15.29a1.83,1.83,0,0,0-3.3,1.61c1.77,3.63,3.72,9.71,2.5,11.86A3.35,3.35,0,0,1,236,231a1.83,1.83,0,0,0-2.39,1C233,233.51,234.17,234.29,235.5,234.66Z"/></svg>