<svg id="Layer_1" data-name="Layer 1" xmlns="http://www.w3.org/2000/svg" xmlns:xlink="http://www.w3.org/1999/xlink" viewBox="0 0 712 564.11"><defs><style>.cls-1{fill:#c62a6a;}.cls-2{fill:url(#linear-gradient);}.cls-3{opacity:0.6;}.cls-4{fill:#fff;}.cls-5{fill:#ed2755;}.cls-6{fill:url(#New_Gradient_Swatch_3);}.cls-7{opacity:0.5;}</style><linearGradient id="linear-gradient" x1="842.82" y1="431.57" x2="261.75" y2="-199.69" gradientUnits="userSpaceOnUse"><stop offset="0" stop-color="#ed2755"/><stop offset="0.64" stop-color="#f26a30"/><stop offset="1" stop-color="#f58b1e"/></linearGradient><linearGradient id="New_Gradient_Swatch_3" x1="189.75" y1="279.85" x2="912.22" y2="279.85" gradientUnits="userSpaceOnUse"><stop offset="0" stop-color="#ed2755"/><stop offset="0.17" stop-color="#ee3150"/><stop offset="0.46" stop-color="#f04b41"/><stop offset="0.83" stop-color="#f3752a"/><stop offset="1" stop-color="#f58b1e"/></linearGradient></defs><title>contact</title><path class="cls-1" d="M5.27-.9C-7.29.3,7.15,54.86,9.29,59.77c11.14,25.48,31.05,46.79,53,63.42,38.94,29.51,85.73,46.37,124.86,75.5,39.44,29.38,59.7,67.55,80,111.32,17,36.64,38.59,75,75.58,91.22,90.23,39.66,174-31.63,257.2-52.59,39.95-10.06,73.67,2.2,97,36.93,15.48,23.08,23.61,50.14,34,75.93s23.94,51.67,46.68,67.65C801.17,545.74,878.73,557.58,890.9,518L837.1-76.21Z"/><path class="cls-2" d="M22.27-3.9c-12.56,1.2,1.87,55.76,4,60.67,11.14,25.48,31.05,46.79,53,63.42,38.93,29.51,85.73,46.37,124.85,75.5,39.45,29.38,59.71,67.55,80,111.32,17,36.65,38.59,75,75.58,91.22,90.23,39.66,174-31.63,257.2-52.59,39.94-10.06,73.66,2.2,97,36.93,15.49,23.08,23.62,50.14,34,75.93s23.94,51.67,46.68,67.65c23.62,16.59,101.17,28.43,113.34-11.19L854.1-79.21Z"/><g class="cls-3"><path class="cls-4" d="M99.94,16.46c.43.26.39.65-.11.88a2,2,0,0,1-1.69-.05c-.44-.26-.39-.65.1-.88A2.05,2.05,0,0,1,99.94,16.46Z"/><path class="cls-4" d="M110,43.25c.44.26.4.65-.1.88a2,2,0,0,1-1.69-.06c-.44-.25-.39-.65.1-.88A2,2,0,0,1,110,43.25Z"/><path class="cls-4" d="M130,54.92c.44.26.39.65-.1.88a2,2,0,0,1-1.69,0c-.44-.26-.4-.65.1-.88A2,2,0,0,1,130,54.92Z"/><path class="cls-4" d="M149.65,58.17c.44.26.39.65-.1.88a2.05,2.05,0,0,1-1.7-.06c-.43-.25-.39-.65.11-.88A2.07,2.07,0,0,1,149.65,58.17Z"/><path class="cls-4" d="M157.06,42.11c.44.25.39.65-.11.88a2,2,0,0,1-1.69-.06c-.43-.26-.39-.65.11-.88A2,2,0,0,1,157.06,42.11Z"/><path class="cls-4" d="M151.69,10.57c.43.26.39.66-.11.89a2.07,2.07,0,0,1-1.69-.06c-.44-.26-.39-.65.1-.88A2.09,2.09,0,0,1,151.69,10.57Z"/><path class="cls-4" d="M232.58,40.24a2,2,0,0,1-1.65.2c-.56-.18-.73-.57-.38-.86a2,2,0,0,1,1.65-.2C232.76,39.56,232.93,40,232.58,40.24Z"/><path class="cls-4" d="M125.12,22.25c.44.26.39.65-.11.88a2,2,0,0,1-1.69-.05c-.44-.26-.39-.66.11-.88A2,2,0,0,1,125.12,22.25Z"/><path class="cls-4" d="M68.78,1.14c.44.26.39.66-.1.88A2.05,2.05,0,0,1,67,2c-.43-.26-.39-.65.11-.88A2,2,0,0,1,68.78,1.14Z"/><path class="cls-4" d="M27.15,14.87c.44.26.39.66-.11.88a2,2,0,0,1-1.69-.05c-.44-.26-.39-.65.11-.88A2,2,0,0,1,27.15,14.87Z"/><path class="cls-4" d="M25.36,40.35c.44.25.39.65-.1.88a2,2,0,0,1-1.69-.06c-.44-.26-.39-.65.1-.88A2,2,0,0,1,25.36,40.35Z"/><path class="cls-4" d="M8.53,59.13c.43.26.39.65-.11.88a2,2,0,0,1-1.69,0c-.44-.26-.39-.66.1-.88A2.05,2.05,0,0,1,8.53,59.13Z"/><path class="cls-4" d="M45.18,37.44c.43.26.39.66-.11.88a2,2,0,0,1-1.69,0c-.44-.26-.39-.65.11-.88A2.07,2.07,0,0,1,45.18,37.44Z"/><path class="cls-4" d="M73.59,20c.44.26.39.66-.1.88a2,2,0,0,1-1.69-.05c-.44-.26-.39-.65.1-.88A2.07,2.07,0,0,1,73.59,20Z"/><path class="cls-4" d="M58.27,81.93c.44.26.4.65-.1.88a2,2,0,0,1-1.69,0c-.44-.26-.39-.65.1-.88A2,2,0,0,1,58.27,81.93Z"/><path class="cls-4" d="M98.87,52.59c.43.25.39.65-.11.88a2,2,0,0,1-1.69-.06c-.44-.26-.39-.65.1-.88A2.05,2.05,0,0,1,98.87,52.59Z"/><path class="cls-4" d="M119.24,40.37c.43.25.39.65-.11.88a2,2,0,0,1-1.69-.06c-.44-.26-.39-.65.1-.88A2.05,2.05,0,0,1,119.24,40.37Z"/><path class="cls-4" d="M56.78,101.52c.44.26.39.65-.1.88a2.05,2.05,0,0,1-1.7-.05c-.43-.26-.39-.66.11-.88A2,2,0,0,1,56.78,101.52Z"/><path class="cls-4" d="M41.9,113.76c.44.26.39.66-.1.89a2.07,2.07,0,0,1-1.69-.06c-.44-.26-.39-.65.1-.88A2.07,2.07,0,0,1,41.9,113.76Z"/><path class="cls-4" d="M96.88,153.92c.44.26.39.65-.1.88a2.09,2.09,0,0,1-1.7-.05c-.43-.26-.39-.66.11-.89A2.07,2.07,0,0,1,96.88,153.92Z"/><path class="cls-4" d="M97.29,161.06c.44.26.39.65-.1.88a2,2,0,0,1-1.69-.06c-.44-.25-.4-.65.1-.88A2,2,0,0,1,97.29,161.06Z"/><path class="cls-4" d="M30.4,85c.44.26.39.65-.1.88a2,2,0,0,1-1.69,0c-.44-.26-.39-.65.1-.88A2,2,0,0,1,30.4,85Z"/><path class="cls-4" d="M85.57,35.26c.44.26.39.65-.1.88a2.09,2.09,0,0,1-1.7,0c-.43-.26-.39-.66.11-.89A2.07,2.07,0,0,1,85.57,35.26Z"/><path class="cls-4" d="M60.34,40.73a2,2,0,0,1-1.65.2c-.56-.18-.73-.57-.38-.86a2,2,0,0,1,1.65-.2C60.52,40.05,60.69,40.44,60.34,40.73Z"/><path class="cls-4" d="M148.45,41a2,2,0,0,1-1.65.2c-.56-.19-.73-.57-.38-.86a1.89,1.89,0,0,1,1.65-.2C148.63,40.3,148.8,40.68,148.45,41Z"/><path class="cls-4" d="M169.9,51.55a2,2,0,0,1-1.65.2c-.56-.18-.73-.57-.38-.86a2,2,0,0,1,1.65-.2C170.08,50.87,170.25,51.26,169.9,51.55Z"/><path class="cls-4" d="M216.33,46.52a2,2,0,0,1-1.65.2c-.56-.19-.73-.57-.38-.86a1.89,1.89,0,0,1,1.65-.2C216.51,45.84,216.68,46.22,216.33,46.52Z"/><path class="cls-4" d="M220.56,61.57a2,2,0,0,1-1.65.2c-.56-.18-.73-.57-.38-.86a2,2,0,0,1,1.65-.2C220.74,60.89,220.91,61.28,220.56,61.57Z"/><path class="cls-4" d="M157.67,51c.44.26.39.65-.11.88a2.07,2.07,0,0,1-1.69,0c-.44-.26-.39-.66.11-.89A2.07,2.07,0,0,1,157.67,51Z"/><path class="cls-4" d="M88.14,116.75c.44.26.39.65-.1.88a2,2,0,0,1-1.69,0c-.44-.26-.39-.65.1-.88A2,2,0,0,1,88.14,116.75Z"/><path class="cls-4" d="M45.88,89.88c.44.26.39.65-.1.88a2.09,2.09,0,0,1-1.7-.05c-.43-.26-.39-.66.11-.89A2.07,2.07,0,0,1,45.88,89.88Z"/><path class="cls-4" d="M135.78,106.86c.44.25.39.65-.11.88a2,2,0,0,1-1.69-.06c-.44-.26-.39-.65.11-.88A2,2,0,0,1,135.78,106.86Z"/><path class="cls-4" d="M15.68,78.27a2,2,0,0,1-1.65.2c-.56-.19-.73-.57-.38-.86a1.89,1.89,0,0,1,1.65-.2C15.86,77.59,16,78,15.68,78.27Z"/><path class="cls-4" d="M129.09,66.38a1.92,1.92,0,0,1-1.65.2c-.56-.18-.73-.57-.38-.86a2,2,0,0,1,1.65-.2C129.27,65.71,129.44,66.09,129.09,66.38Z"/><path class="cls-4" d="M231.87,55.23a2,2,0,0,1-1.65.2c-.56-.19-.73-.57-.38-.86a1.89,1.89,0,0,1,1.65-.2C232.05,54.55,232.22,54.93,231.87,55.23Z"/><path class="cls-4" d="M267,72.84a2,2,0,0,1-1.65.2c-.56-.19-.74-.57-.39-.86a1.9,1.9,0,0,1,1.66-.2C267.15,72.16,267.32,72.54,267,72.84Z"/><path class="cls-4" d="M204.59,46.58a1.94,1.94,0,0,1-1.66.19c-.56-.18-.73-.56-.38-.86a1.92,1.92,0,0,1,1.65-.19C204.76,45.9,204.94,46.28,204.59,46.58Z"/><path class="cls-4" d="M55.71,62a2,2,0,0,1-1.65.2c-.56-.18-.73-.57-.38-.86a2,2,0,0,1,1.65-.2C55.89,61.28,56.06,61.67,55.71,62Z"/><path class="cls-4" d="M138.47,112.8c.43.26.39.66-.11.89a2.07,2.07,0,0,1-1.69-.06c-.44-.26-.39-.65.1-.88A2.09,2.09,0,0,1,138.47,112.8Z"/><path class="cls-4" d="M76.11,92.2c.44.26.4.65-.1.88a2,2,0,0,1-1.69,0c-.44-.26-.39-.66.1-.88A2,2,0,0,1,76.11,92.2Z"/><path class="cls-4" d="M100,79.41c.43.25.39.65-.11.88a2,2,0,0,1-1.69-.06c-.44-.25-.39-.65.1-.88A2.05,2.05,0,0,1,100,79.41Z"/><path class="cls-4" d="M59.14,56.24c.44.26.39.66-.11.88a2,2,0,0,1-1.69,0c-.44-.26-.39-.65.11-.88A2.07,2.07,0,0,1,59.14,56.24Z"/><path class="cls-4" d="M346.77,57.47a2,2,0,0,1-1.66.2c-.56-.18-.73-.57-.38-.86a2,2,0,0,1,1.65-.2C346.94,56.79,347.12,57.18,346.77,57.47Z"/><path class="cls-4" d="M385.54,84.21a1.92,1.92,0,0,1-1.65.19c-.56-.18-.74-.56-.39-.86a1.94,1.94,0,0,1,1.66-.19C385.72,83.53,385.89,83.91,385.54,84.21Z"/><path class="cls-4" d="M407.69,101.08a1.89,1.89,0,0,1-1.65.2c-.56-.18-.74-.56-.39-.86a2,2,0,0,1,1.66-.2C407.87,100.41,408,100.79,407.69,101.08Z"/><path class="cls-4" d="M406.7,40.29a1.89,1.89,0,0,1-1.65.2c-.56-.18-.74-.56-.38-.86a2,2,0,0,1,1.65-.2C406.88,39.62,407.05,40,406.7,40.29Z"/><path class="cls-4" d="M299.17,49.26a2,2,0,0,1-1.65.2c-.56-.19-.73-.57-.38-.86a1.89,1.89,0,0,1,1.65-.2C299.35,48.58,299.52,49,299.17,49.26Z"/><path class="cls-4" d="M281.1,51.22a2,2,0,0,1-1.65.2c-.56-.18-.74-.57-.39-.86a2,2,0,0,1,1.66-.2C281.28,50.54,281.45,50.93,281.1,51.22Z"/><path class="cls-4" d="M262.83,63.83a2,2,0,0,1-1.65.2c-.56-.18-.73-.57-.38-.86a2,2,0,0,1,1.65-.2C263,63.15,263.18,63.54,262.83,63.83Z"/><path class="cls-4" d="M181.21,86.37a2,2,0,0,1-1.65.2c-.56-.18-.73-.57-.38-.86a2,2,0,0,1,1.65-.2C181.39,85.69,181.56,86.08,181.21,86.37Z"/><path class="cls-4" d="M202.15,85.65a1.92,1.92,0,0,1-1.65.19c-.56-.18-.73-.56-.38-.86a1.92,1.92,0,0,1,1.65-.19C202.33,85,202.5,85.35,202.15,85.65Z"/><path class="cls-4" d="M255.43,98.29a1.92,1.92,0,0,1-1.65.2c-.56-.18-.74-.57-.39-.86a2,2,0,0,1,1.66-.2C255.61,97.62,255.78,98,255.43,98.29Z"/><path class="cls-4" d="M287.12,120.17a1.92,1.92,0,0,1-1.65.19c-.56-.18-.73-.56-.38-.86a1.92,1.92,0,0,1,1.65-.19C287.3,119.49,287.47,119.87,287.12,120.17Z"/><path class="cls-4" d="M322.65,87a1.89,1.89,0,0,1-1.65.2c-.56-.18-.73-.56-.38-.86a2,2,0,0,1,1.65-.2C322.83,86.36,323,86.74,322.65,87Z"/><path class="cls-4" d="M334.85,94.12a2,2,0,0,1-1.65.2c-.56-.18-.74-.57-.39-.86a2,2,0,0,1,1.66-.2C335,93.44,335.2,93.83,334.85,94.12Z"/><path class="cls-4" d="M362.84,119a2,2,0,0,1-1.65.2c-.56-.18-.74-.57-.38-.86a2,2,0,0,1,1.65-.2C363,118.32,363.19,118.71,362.84,119Z"/><path class="cls-4" d="M382.18,137.59a1.92,1.92,0,0,1-1.65.19c-.56-.18-.73-.56-.38-.86a1.92,1.92,0,0,1,1.65-.19C382.36,136.91,382.53,137.29,382.18,137.59Z"/><path class="cls-4" d="M315.94,110.13a2,2,0,0,1-1.65.2c-.57-.18-.74-.57-.39-.86a2,2,0,0,1,1.65-.2C316.12,109.45,316.29,109.84,315.94,110.13Z"/><path class="cls-4" d="M323.19,138.71a1.89,1.89,0,0,1-1.65.2c-.56-.18-.74-.56-.39-.86a2,2,0,0,1,1.66-.2C323.37,138,323.54,138.42,323.19,138.71Z"/><path class="cls-4" d="M380.62,73.7a2,2,0,0,1-1.65.2c-.56-.19-.73-.57-.38-.86a1.89,1.89,0,0,1,1.65-.2C380.8,73,381,73.4,380.62,73.7Z"/><path class="cls-4" d="M323.57,74.59a1.92,1.92,0,0,1-1.65.19c-.57-.18-.74-.56-.39-.86a2,2,0,0,1,1.65-.2C323.75,73.91,323.92,74.29,323.57,74.59Z"/><path class="cls-4" d="M112.74,137.65c.43.26.39.65-.11.88a2,2,0,0,1-1.69-.05c-.44-.26-.39-.66.11-.88A2,2,0,0,1,112.74,137.65Z"/><path class="cls-4" d="M106.52,121c.44.26.39.65-.1.88a2.09,2.09,0,0,1-1.7,0c-.43-.26-.39-.66.11-.88A2,2,0,0,1,106.52,121Z"/><path class="cls-4" d="M119.75,103.4c.44.26.39.65-.1.88a2,2,0,0,1-1.69-.06c-.44-.25-.4-.65.1-.88A2,2,0,0,1,119.75,103.4Z"/><path class="cls-4" d="M161.73,66a2,2,0,0,1-1.66.2c-.56-.19-.73-.57-.38-.86a1.89,1.89,0,0,1,1.65-.2C161.9,65.29,162.08,65.67,161.73,66Z"/><path class="cls-4" d="M183.12,39.48a2,2,0,0,1-1.65.2c-.56-.18-.73-.57-.38-.86a2,2,0,0,1,1.65-.2C183.3,38.8,183.47,39.19,183.12,39.48Z"/><path class="cls-4" d="M103.48,71.47a2,2,0,0,1-1.65.2c-.56-.19-.73-.57-.38-.86a1.89,1.89,0,0,1,1.65-.2C103.66,70.79,103.83,71.17,103.48,71.47Z"/><path class="cls-4" d="M183.94,112.24a2,2,0,0,1-1.66.2c-.56-.19-.73-.57-.38-.86a1.89,1.89,0,0,1,1.65-.2C184.11,111.56,184.29,111.94,183.94,112.24Z"/><path class="cls-4" d="M248.44,148.61a2,2,0,0,1-1.65.2c-.56-.19-.73-.57-.38-.86a1.89,1.89,0,0,1,1.65-.2C248.62,147.93,248.79,148.31,248.44,148.61Z"/><path class="cls-4" d="M259.81,195.74a2,2,0,0,1-1.65.2c-.56-.18-.73-.57-.38-.86a2,2,0,0,1,1.65-.2C260,195.06,260.16,195.45,259.81,195.74Z"/><path class="cls-4" d="M232.44,218.24a1.89,1.89,0,0,1-1.65.2c-.57-.18-.74-.56-.39-.86a2,2,0,0,1,1.65-.2C232.62,217.57,232.79,218,232.44,218.24Z"/><path class="cls-4" d="M191.93,139.69a1.89,1.89,0,0,1-1.65.2c-.56-.18-.73-.56-.38-.86a2,2,0,0,1,1.65-.2C192.11,139,192.28,139.4,191.93,139.69Z"/><path class="cls-4" d="M191,155.58a2,2,0,0,1-1.65.2c-.57-.19-.74-.57-.39-.86a1.89,1.89,0,0,1,1.65-.2C191.13,154.9,191.3,155.28,191,155.58Z"/><path class="cls-4" d="M172.12,198.6a2,2,0,0,1-1.66.2c-.56-.18-.73-.57-.38-.86a2,2,0,0,1,1.65-.2C172.29,197.92,172.47,198.31,172.12,198.6Z"/><path class="cls-4" d="M242.77,157.65a2,2,0,0,1-1.65.2c-.56-.18-.74-.57-.39-.86a2,2,0,0,1,1.66-.2C243,157,243.12,157.36,242.77,157.65Z"/><path class="cls-4" d="M235.36,133.71a1.89,1.89,0,0,1-1.65.2c-.57-.18-.74-.56-.39-.86a2,2,0,0,1,1.65-.2C235.54,133,235.71,133.42,235.36,133.71Z"/><path class="cls-4" d="M263.55,125.54a2,2,0,0,1-1.65.2c-.56-.19-.73-.57-.38-.86a1.89,1.89,0,0,1,1.65-.2C263.73,124.86,263.9,125.24,263.55,125.54Z"/><path class="cls-4" d="M300.22,157.88a1.92,1.92,0,0,1-1.65.19c-.56-.18-.73-.56-.38-.86a1.92,1.92,0,0,1,1.65-.19C300.4,157.2,300.57,157.58,300.22,157.88Z"/><path class="cls-4" d="M324.86,190a2,2,0,0,1-1.65.2c-.56-.19-.73-.57-.38-.86a1.88,1.88,0,0,1,1.65-.2C325,189.36,325.21,189.75,324.86,190Z"/><path class="cls-4" d="M355.53,216.77a2,2,0,0,1-1.65.2c-.56-.18-.73-.57-.38-.86a2,2,0,0,1,1.65-.2C355.71,216.09,355.88,216.48,355.53,216.77Z"/><path class="cls-4" d="M366.22,156.82a2,2,0,0,1-1.66.2c-.56-.18-.73-.57-.38-.86a2,2,0,0,1,1.65-.2C366.4,156.14,366.57,156.53,366.22,156.82Z"/><path class="cls-4" d="M377.52,186.14a2,2,0,0,1-1.65.2c-.56-.18-.73-.57-.38-.86a2,2,0,0,1,1.65-.2C377.7,185.46,377.87,185.85,377.52,186.14Z"/><path class="cls-4" d="M382.73,229.58a2,2,0,0,1-1.65.2c-.56-.19-.74-.57-.39-.86a1.91,1.91,0,0,1,1.66-.2C382.91,228.9,383.08,229.28,382.73,229.58Z"/><path class="cls-4" d="M377.9,252.79a2,2,0,0,1-1.66.2c-.56-.19-.73-.57-.38-.86a1.92,1.92,0,0,1,1.65-.2C378.07,252.11,378.25,252.5,377.9,252.79Z"/><path class="cls-4" d="M361.54,249.47a2,2,0,0,1-1.65.2c-.56-.19-.73-.57-.38-.86a1.92,1.92,0,0,1,1.65-.2C361.72,248.79,361.89,249.18,361.54,249.47Z"/><path class="cls-4" d="M273.91,252.57a2,2,0,0,1-1.65.2c-.56-.18-.73-.57-.38-.86a2,2,0,0,1,1.65-.2C274.09,251.89,274.26,252.28,273.91,252.57Z"/><path class="cls-4" d="M213.9,198.23a2,2,0,0,1-1.65.2c-.56-.18-.73-.57-.38-.86a2,2,0,0,1,1.65-.2C214.08,197.55,214.25,197.94,213.9,198.23Z"/><path class="cls-4" d="M290,211.32a1.89,1.89,0,0,1-1.65.2c-.56-.18-.73-.56-.38-.86a2,2,0,0,1,1.65-.2C290.15,210.65,290.32,211,290,211.32Z"/><path class="cls-4" d="M283.37,214.66a1.94,1.94,0,0,1-1.66.2c-.56-.18-.73-.57-.38-.86a2,2,0,0,1,1.65-.2C283.54,214,283.72,214.37,283.37,214.66Z"/><path class="cls-4" d="M317.94,235.41a1.92,1.92,0,0,1-1.65.2c-.56-.18-.73-.57-.38-.86a2,2,0,0,1,1.65-.2C318.12,234.73,318.29,235.12,317.94,235.41Z"/><path class="cls-4" d="M311.16,185.22a1.89,1.89,0,0,1-1.65.2c-.56-.18-.73-.56-.38-.86a2,2,0,0,1,1.65-.2C311.34,184.55,311.51,184.93,311.16,185.22Z"/><path class="cls-4" d="M144,198.19a2,2,0,0,1-1.65.2c-.56-.18-.73-.57-.38-.86a1.92,1.92,0,0,1,1.65-.2C144.18,197.51,144.35,197.9,144,198.19Z"/><path class="cls-4" d="M128.2,199.33a2,2,0,0,1-1.65.2c-.56-.18-.73-.57-.38-.86a2,2,0,0,1,1.65-.2C128.38,198.65,128.55,199,128.2,199.33Z"/><path class="cls-4" d="M379.57,235.8a2,2,0,0,1-1.65.2c-.56-.18-.73-.57-.38-.86a2,2,0,0,1,1.65-.2C379.75,235.12,379.92,235.51,379.57,235.8Z"/><path class="cls-4" d="M397.57,266.61a1.92,1.92,0,0,1-1.65.19c-.57-.18-.74-.56-.39-.86a1.92,1.92,0,0,1,1.65-.19C397.75,265.93,397.92,266.31,397.57,266.61Z"/><path class="cls-4" d="M405.77,302.33a1.94,1.94,0,0,1-1.66.2c-.56-.18-.73-.57-.38-.86a2,2,0,0,1,1.65-.2C405.94,301.65,406.12,302,405.77,302.33Z"/><path class="cls-4" d="M394.86,321.15a2,2,0,0,1-1.65.2c-.56-.18-.73-.57-.38-.86a2,2,0,0,1,1.65-.2C395,320.47,395.21,320.86,394.86,321.15Z"/><path class="cls-4" d="M350.81,317.49a1.89,1.89,0,0,1-1.65.2c-.56-.18-.73-.56-.38-.86a2,2,0,0,1,1.65-.2C351,316.82,351.16,317.2,350.81,317.49Z"/><path class="cls-4" d="M291,318.1a1.92,1.92,0,0,1-1.65.19c-.56-.18-.73-.56-.38-.86a1.92,1.92,0,0,1,1.65-.19C291.22,317.42,291.39,317.8,291,318.1Z"/><path class="cls-4" d="M276.54,309.69a1.92,1.92,0,0,1-1.65.19c-.56-.18-.73-.56-.38-.86a2,2,0,0,1,1.65-.2C276.72,309,276.89,309.39,276.54,309.69Z"/><path class="cls-4" d="M337.77,305.8a1.92,1.92,0,0,1-1.65.2c-.56-.18-.73-.57-.38-.86a2,2,0,0,1,1.65-.2C338,305.12,338.12,305.51,337.77,305.8Z"/><path class="cls-4" d="M324.92,290.68a2,2,0,0,1-1.65.2c-.56-.18-.73-.57-.38-.86a2,2,0,0,1,1.65-.2C325.1,290,325.27,290.39,324.92,290.68Z"/><path class="cls-4" d="M249.34,292.15a1.92,1.92,0,0,1-1.65.19c-.56-.18-.73-.56-.38-.86a2,2,0,0,1,1.65-.2C249.52,291.47,249.69,291.85,249.34,292.15Z"/><path class="cls-4" d="M248.93,337.1a2,2,0,0,1-1.65.2c-.56-.18-.73-.57-.38-.86a2,2,0,0,1,1.65-.2C249.11,336.42,249.28,336.81,248.93,337.1Z"/><path class="cls-4" d="M314.53,328.45a1.89,1.89,0,0,1-1.65.2c-.56-.18-.73-.57-.38-.86a2,2,0,0,1,1.65-.2C314.71,327.78,314.88,328.16,314.53,328.45Z"/><path class="cls-4" d="M352.11,332.12a2,2,0,0,1-1.65.2c-.56-.18-.73-.57-.38-.86a2,2,0,0,1,1.65-.2C352.29,331.44,352.46,331.83,352.11,332.12Z"/><path class="cls-4" d="M389.33,338.05a2,2,0,0,1-1.65.2c-.56-.18-.73-.57-.38-.86a2,2,0,0,1,1.65-.2C389.51,337.37,389.68,337.76,389.33,338.05Z"/><path class="cls-4" d="M414,306.59a1.89,1.89,0,0,1-1.65.2c-.57-.18-.74-.56-.39-.86a2,2,0,0,1,1.65-.2C414.15,305.92,414.32,306.3,414,306.59Z"/><path class="cls-4" d="M373.08,282a1.89,1.89,0,0,1-1.65.2c-.56-.18-.73-.56-.38-.86a2,2,0,0,1,1.65-.2C373.26,281.3,373.43,281.68,373.08,282Z"/><path class="cls-4" d="M336.32,272.84a1.89,1.89,0,0,1-1.65.2c-.56-.18-.73-.57-.38-.86a2,2,0,0,1,1.65-.2C336.5,272.17,336.67,272.55,336.32,272.84Z"/><path class="cls-4" d="M300.59,262.6a2,2,0,0,1-1.65.2c-.56-.19-.73-.57-.38-.86a1.92,1.92,0,0,1,1.65-.2C300.77,261.92,300.94,262.31,300.59,262.6Z"/><path class="cls-4" d="M276.18,267.34a1.89,1.89,0,0,1-1.65.2c-.56-.18-.73-.56-.38-.86a2,2,0,0,1,1.65-.2C276.36,266.67,276.53,267.05,276.18,267.34Z"/><path class="cls-4" d="M252.08,274.26a2,2,0,0,1-1.65.2c-.56-.18-.73-.57-.38-.86a2,2,0,0,1,1.65-.2C252.26,273.58,252.43,274,252.08,274.26Z"/><path class="cls-4" d="M269.26,235.41a2,2,0,0,1-1.65.2c-.56-.19-.74-.57-.38-.86a1.92,1.92,0,0,1,1.65-.2C269.44,234.73,269.61,235.12,269.26,235.41Z"/><path class="cls-4" d="M108.1,209.23a2,2,0,0,1-1.66.2c-.56-.18-.73-.57-.38-.86a2,2,0,0,1,1.65-.2C108.27,208.55,108.45,208.94,108.1,209.23Z"/><path class="cls-4" d="M160.42,216.3a2,2,0,0,1-1.65.2c-.56-.18-.73-.57-.38-.86a2,2,0,0,1,1.65-.2C160.6,215.62,160.77,216,160.42,216.3Z"/><path class="cls-4" d="M240.74,214.93a2,2,0,0,1-1.65.2c-.56-.18-.73-.57-.38-.86a2,2,0,0,1,1.65-.2C240.92,214.25,241.09,214.64,240.74,214.93Z"/><path class="cls-4" d="M220.69,215.86a2,2,0,0,1-1.65.2c-.56-.19-.73-.57-.38-.86a1.89,1.89,0,0,1,1.65-.2C220.87,215.18,221,215.56,220.69,215.86Z"/><path class="cls-4" d="M278.85,321.62a2,2,0,0,1-1.65.2c-.56-.18-.73-.57-.38-.86a2,2,0,0,1,1.65-.2C279,320.94,279.2,321.33,278.85,321.62Z"/><path class="cls-4" d="M294.56,334a1.89,1.89,0,0,1-1.65.2c-.56-.18-.73-.56-.38-.86a2,2,0,0,1,1.65-.2C294.74,333.29,294.91,333.67,294.56,334Z"/><path class="cls-4" d="M339.61,343.33a2,2,0,0,1-1.66.2c-.56-.18-.73-.57-.38-.86a1.92,1.92,0,0,1,1.65-.2C339.79,342.65,340,343,339.61,343.33Z"/><path class="cls-4" d="M359.42,345.67a1.92,1.92,0,0,1-1.65.19c-.56-.18-.74-.56-.39-.86a1.94,1.94,0,0,1,1.66-.19C359.6,345,359.77,345.37,359.42,345.67Z"/><path class="cls-4" d="M377.8,349.8a2,2,0,0,1-1.65.2c-.56-.19-.73-.57-.38-.86a1.92,1.92,0,0,1,1.65-.2C378,349.12,378.15,349.51,377.8,349.8Z"/><path class="cls-4" d="M355.28,340.72a1.89,1.89,0,0,1-1.65.2c-.56-.18-.73-.56-.38-.86a2,2,0,0,1,1.65-.2C355.46,340.05,355.63,340.43,355.28,340.72Z"/><path class="cls-4" d="M247.69,328.9a1.92,1.92,0,0,1-1.65.2c-.56-.18-.73-.57-.38-.86a2,2,0,0,1,1.65-.2C247.87,328.23,248,328.61,247.69,328.9Z"/><path class="cls-4" d="M397.72,209.49a2,2,0,0,1-1.65.2c-.57-.18-.74-.57-.39-.86a2,2,0,0,1,1.65-.2C397.9,208.81,398.07,209.2,397.72,209.49Z"/><path class="cls-4" d="M383.05,162.15a2,2,0,0,1-1.65.2c-.56-.19-.73-.57-.38-.86a1.89,1.89,0,0,1,1.65-.2C383.23,161.47,383.4,161.85,383.05,162.15Z"/><path class="cls-4" d="M335.34,161.23a2,2,0,0,1-1.65.2c-.56-.18-.73-.57-.38-.86a2,2,0,0,1,1.65-.2C335.52,160.55,335.69,160.94,335.34,161.23Z"/><path class="cls-4" d="M288.19,174.92a2,2,0,0,1-1.66.2c-.56-.19-.73-.57-.38-.86a1.89,1.89,0,0,1,1.65-.2C288.36,174.24,288.54,174.62,288.19,174.92Z"/><path class="cls-4" d="M249.24,172a2,2,0,0,1-1.65.2c-.56-.18-.73-.57-.38-.86a2,2,0,0,1,1.65-.2C249.42,171.33,249.59,171.72,249.24,172Z"/></g><path class="cls-5" d="M611.17,578c17.37-12.4,29.24-31.3,37.14-51.14,10.1-25.35,11.78-52.79,23.49-77.38,18.74-39.33,53.9-69.4,98.47-72.65,13.89-1,29.46,0,39.84-9.3,7.64-6.83,10.35-17.76,10.23-28-.38-31.62-11.11-56.49,13.82-82.24,9.22-9.53,20.74-16.68,32.64-22.37,1.66-.79,12.35-4.49,21.88-7.73a22.9,22.9,0,0,0,15.54-21.69v-218A23.27,23.27,0,0,0,881-35.75H223a23.21,23.21,0,0,0-19.94,11.28C185.48,5,150.12,87.83,244.38,168c25.22,21.45,50.54,42.8,76.45,63.42,18.4,14.64,39.37,27,56.39,43.24,11.67,11.15,21.27,25.06,24.64,40.84,3.21,15,1.14,30.91-2.52,46.63a196.11,196.11,0,0,0,34.8,163.18C464,564.63,507,601.57,560.25,595.18,567.28,595.3,595.33,589.31,611.17,578Z"/><path class="cls-6" d="M389.51,443.81c-3.36-43.7,29.47-85.68,20.35-128.3-3.37-15.78-13-29.69-24.64-40.84-17-16.26-38-28.6-56.39-43.24-25.92-20.62-51.23-42-76.45-63.42C180,106.42,184.05,43.29,197.81,4a59.41,59.41,0,0,1,56.11-39.7H852.73a59.49,59.49,0,0,1,59.49,59.49v197a1.7,1.7,0,0,1-1.17,1.62c-6,2-33.5,11.26-36.25,12.57-11.9,5.69-23.42,12.84-32.65,22.37-24.92,25.75-14.19,50.62-13.81,82.24.12,10.24-2.59,21.17-10.23,28-10.38,9.28-26,8.29-39.84,9.3-44.57,3.25-79.74,33.32-98.47,72.65-11.71,24.59-13.39,52-23.49,77.38-7.9,19.84-19.14,39.67-37.15,51.14-22.66,14.45-48.14,18.6-74.06,17.17C545.1,595.18,401.16,595.18,389.51,443.81Z"/><g id="Star" class="cls-7"><circle class="cls-4" cx="305.57" cy="238.11" r="10.63"/><path class="cls-4" d="M544.41,161.68a10.63,10.63,0,0,1-10.7,10.56,10.62,10.62,0,0,1,10.55,10.7A10.62,10.62,0,0,1,555,172.39,10.63,10.63,0,0,1,544.41,161.68Z"/><circle class="cls-4" cx="340.78" cy="22.44" r="22.34"/></g><g id="Star-2" data-name="Star" class="cls-7"><circle class="cls-4" cx="566.73" cy="536.9" r="16.82"/><circle class="cls-4" cx="476.27" cy="469.36" r="20.91"/><ellipse class="cls-4" cx="591.23" cy="306.42" rx="55.15" ry="12.18" transform="translate(261.72 885.1) rotate(-87.74)"/><path class="cls-4" d="M660,472.19a10.59,10.59,0,0,1-7.39-13,10.59,10.59,0,0,1-13,7.38,10.6,10.6,0,0,1,7.39,13A10.58,10.58,0,0,1,660,472.19Z"/><circle class="cls-4" cx="706.15" cy="345.4" r="10.59"/><path class="cls-4" d="M494,392.74a10.59,10.59,0,0,1,.59-15,10.59,10.59,0,0,1-15-.59,10.59,10.59,0,0,1-.59,15A10.59,10.59,0,0,1,494,392.74Z"/></g></svg>