<svg id="Layer_1" data-name="Layer 1" xmlns="http://www.w3.org/2000/svg" viewBox="0 0 246.63 246.01"><defs><style>.cls-1{fill:#d1f4ff;}.cls-2{opacity:0.1;}.cls-3{fill:#a6cddd;}</style></defs><title>contact</title><g id="Moon"><g id="Moon-2" data-name="Moon"><circle class="cls-1" cx="120.55" cy="119.19" r="115.12" transform="translate(-20.44 213.31) rotate(-78.4)"/><path class="cls-2" d="M156.1,9.67A115.15,115.15,0,0,1,30.73,191.18,115.12,115.12,0,1,0,156.1,9.67Z"/><circle class="cls-3" cx="128.83" cy="103.52" r="21.86" transform="translate(-29.81 57.18) rotate(-22.5)"/><g class="cls-2"><path d="M134.23,87.33a21.7,21.7,0,0,1,12.85,4.18A21.85,21.85,0,1,0,116,121.19a21.85,21.85,0,0,1,18.25-33.86Z"/></g><circle class="cls-3" cx="181.25" cy="66.76" r="14.9"/><g class="cls-2"><path d="M184.94,55.72a14.85,14.85,0,0,1,8.76,2.85,14.9,14.9,0,1,0-21.21,20.24,14.89,14.89,0,0,1,12.45-23.09Z"/></g><path class="cls-3" d="M147,25.92a9.69,9.69,0,1,1-9.69-9.69A9.69,9.69,0,0,1,147,25.92Z"/><g class="cls-2"><path d="M139.69,18.75a9.58,9.58,0,0,1,5.69,1.85,9.69,9.69,0,1,0-13.79,13.16,9.69,9.69,0,0,1,8.1-15Z"/></g><circle class="cls-3" cx="51.37" cy="136.75" r="14.9" transform="translate(-86.51 185) rotate(-88.7)"/><g class="cls-2"><path d="M55.06,125.71a14.82,14.82,0,0,1,8.76,2.85A14.9,14.9,0,1,0,42.61,148.8a14.9,14.9,0,0,1,12.45-23.09Z"/></g><path class="cls-3" d="M118.41,173.19a14.91,14.91,0,1,1-14.91-14.9A14.91,14.91,0,0,1,118.41,173.19Z"/><g class="cls-2"><path d="M107.19,162.15A14.82,14.82,0,0,1,116,165a14.9,14.9,0,1,0-21.21,20.24,14.9,14.9,0,0,1,12.45-23.09Z"/></g><path class="cls-3" d="M188.82,183.1a14.91,14.91,0,1,1-14.9-14.9A14.91,14.91,0,0,1,188.82,183.1Z"/><g class="cls-2"><path d="M177.6,172.06a14.82,14.82,0,0,1,8.76,2.85,14.9,14.9,0,1,0-21.21,20.24,14.9,14.9,0,0,1,12.45-23.09Z"/></g><path class="cls-3" d="M211.28,120.78a8.53,8.53,0,1,1-8.53-8.52A8.52,8.52,0,0,1,211.28,120.78Z"/><g class="cls-2"><path d="M204.86,114.47a8.46,8.46,0,0,1,5,1.63,8.53,8.53,0,1,0-12.14,11.58,8.43,8.43,0,0,1-1.4-4.68A8.52,8.52,0,0,1,204.86,114.47Z"/></g><path class="cls-3" d="M83.33,51.86a8.53,8.53,0,1,1-8.53-8.53A8.53,8.53,0,0,1,83.33,51.86Z"/><g class="cls-2"><path d="M76.91,45.54a8.53,8.53,0,0,1,5,1.63A8.53,8.53,0,1,0,69.79,58.76a8.54,8.54,0,0,1,7.12-13.22Z"/></g><path class="cls-3" d="M32.74,76.14a4.48,4.48,0,1,1-4.48-4.48A4.48,4.48,0,0,1,32.74,76.14Z"/><g class="cls-2"><path d="M29.37,72.82a4.52,4.52,0,0,1,2.64.85,4.48,4.48,0,1,0-6.38,6.09,4.48,4.48,0,0,1,3.74-6.94Z"/></g><circle class="cls-3" cx="225.01" cy="147.17" r="4.48"/><g class="cls-2"><path d="M226.11,143.85a4.46,4.46,0,0,1,2.64.86,4.48,4.48,0,1,0-6.38,6.09,4.54,4.54,0,0,1-.74-2.47A4.49,4.49,0,0,1,226.11,143.85Z"/></g><path class="cls-3" d="M225,89.49A4.48,4.48,0,1,1,220.53,85,4.49,4.49,0,0,1,225,89.49Z"/><g class="cls-2"><path d="M221.63,86.17a4.46,4.46,0,0,1,2.64.86,4.48,4.48,0,1,0-6.38,6.08,4.48,4.48,0,0,1,3.74-6.94Z"/></g><path class="cls-3" d="M51.37,175.28a4.48,4.48,0,1,1-4.48-4.48A4.48,4.48,0,0,1,51.37,175.28Z"/><g class="cls-2"><path d="M48,172a4.46,4.46,0,0,1,2.64.86,4.48,4.48,0,1,0-6.38,6.08,4.4,4.4,0,0,1-.74-2.46A4.49,4.49,0,0,1,48,172Z"/></g><path class="cls-3" d="M93.08,206.44A4.48,4.48,0,1,1,88.6,202,4.48,4.48,0,0,1,93.08,206.44Z"/><g class="cls-2"><path d="M89.71,203.12a4.45,4.45,0,0,1,2.63.86A4.48,4.48,0,1,0,86,210.06a4.4,4.4,0,0,1-.74-2.46A4.49,4.49,0,0,1,89.71,203.12Z"/></g></g></g></svg>