<?xml version="1.0" encoding="UTF-8"?>
<svg width="465px" height="465px" viewBox="0 0 465 465" version="1.1" xmlns="http://www.w3.org/2000/svg" xmlns:xlink="http://www.w3.org/1999/xlink">
    <!-- Generator: Sketch 49.3 (51167) - http://www.bohemiancoding.com/sketch -->
    <title>pattern-dot</title>
    <desc>Created with Sketch.</desc>
    <defs>
        <linearGradient x1="-8.04298286%" y1="-5.77674715%" x2="100%" y2="100%" id="linearGradient-1">
            <stop stop-color="#F58B1E" offset="0%"></stop>
            <stop stop-color="#F58B1E" offset="23.54416%"></stop>
            <stop stop-color="#ED2755" offset="100%"></stop>
        </linearGradient>
    </defs>
    <g id="Resource" stroke="none" stroke-width="1" fill="none" fill-rule="evenodd" opacity="0.1">
        <g id="Artboard" transform="translate(-41.000000, -572.000000)" fill="url(#linearGradient-1)">
            <path d="M120.5,974 C111.939586,974 105,967.060414 105,958.5 C105,949.939586 111.939586,943 120.5,943 C129.060414,943 136,949.939586 136,958.5 C136,967.060414 129.060414,974 120.5,974 Z M222.5,974 C213.939586,974 207,967.060414 207,958.5 C207,949.939586 213.939586,943 222.5,943 C231.060414,943 238,949.939586 238,958.5 C238,967.060414 231.060414,974 222.5,974 Z M171.5,974 C162.939586,974 156,967.060414 156,958.5 C156,949.939586 162.939586,943 171.5,943 C180.060414,943 187,949.939586 187,958.5 C187,967.060414 180.060414,974 171.5,974 Z M273.5,974 C264.939586,974 258,967.060414 258,958.5 C258,949.939586 264.939586,943 273.5,943 C282.060414,943 289,949.939586 289,958.5 C289,967.060414 282.060414,974 273.5,974 Z M324.5,974 C315.939586,974 309,967.060414 309,958.5 C309,949.939586 315.939586,943 324.5,943 C333.060414,943 340,949.939586 340,958.5 C340,967.060414 333.060414,974 324.5,974 Z M375.5,974 C366.939586,974 360,967.060414 360,958.5 C360,949.939586 366.939586,943 375.5,943 C384.060414,943 391,949.939586 391,958.5 C391,967.060414 384.060414,974 375.5,974 Z M426.5,974 C417.939586,974 411,967.060414 411,958.5 C411,949.939586 417.939586,943 426.5,943 C435.060414,943 442,949.939586 442,958.5 C442,967.060414 435.060414,974 426.5,974 Z M136,855.5 C136,864.060414 129.060414,871 120.5,871 C111.939586,871 105,864.060414 105,855.5 C105,846.939586 111.939586,840 120.5,840 C129.060414,840 136,846.939586 136,855.5 Z M187,855.5 C187,864.060414 180.060414,871 171.5,871 C162.939586,871 156,864.060414 156,855.5 C156,846.939586 162.939586,840 171.5,840 C180.060414,840 187,846.939586 187,855.5 Z M238,855.5 C238,864.060414 231.060414,871 222.5,871 C213.939586,871 207,864.060414 207,855.5 C207,846.939586 213.939586,840 222.5,840 C231.060414,840 238,846.939586 238,855.5 Z M289,855.5 C289,864.060414 282.060414,871 273.5,871 C264.939586,871 258,864.060414 258,855.5 C258,846.939586 264.939586,840 273.5,840 C282.060414,840 289,846.939586 289,855.5 Z M340,855.5 C340,864.060414 333.060414,871 324.5,871 C315.939586,871 309,864.060414 309,855.5 C309,846.939586 315.939586,840 324.5,840 C333.060414,840 340,846.939586 340,855.5 Z M391,855.5 C391,864.060414 384.060414,871 375.5,871 C366.939586,871 360,864.060414 360,855.5 C360,846.939586 366.939586,840 375.5,840 C384.060414,840 391,846.939586 391,855.5 Z M442,855.5 C442,864.060414 435.060414,871 426.5,871 C417.939586,871 411,864.060414 411,855.5 C411,846.939586 417.939586,840 426.5,840 C435.060414,840 442,846.939586 442,855.5 Z M136,906.5 C136,915.060414 129.060414,922 120.5,922 C111.939586,922 105,915.060414 105,906.5 C105,897.939586 111.939586,891 120.5,891 C129.060414,891 136,897.939586 136,906.5 Z M187,906.5 C187,915.060414 180.060414,922 171.5,922 C162.939586,922 156,915.060414 156,906.5 C156,897.939586 162.939586,891 171.5,891 C180.060414,891 187,897.939586 187,906.5 Z M238,906.5 C238,915.060414 231.060414,922 222.5,922 C213.939586,922 207,915.060414 207,906.5 C207,897.939586 213.939586,891 222.5,891 C231.060414,891 238,897.939586 238,906.5 Z M289,906.5 C289,915.060414 282.060414,922 273.5,922 C264.939586,922 258,915.060414 258,906.5 C258,897.939586 264.939586,891 273.5,891 C282.060414,891 289,897.939586 289,906.5 Z M340,906.5 C340,915.060414 333.060414,922 324.5,922 C315.939586,922 309,915.060414 309,906.5 C309,897.939586 315.939586,891 324.5,891 C333.060414,891 340,897.939586 340,906.5 Z M391,906.5 C391,915.060414 384.060414,922 375.5,922 C366.939586,922 360,915.060414 360,906.5 C360,897.939586 366.939586,891 375.5,891 C384.060414,891 391,897.939586 391,906.5 Z M442,906.5 C442,915.060414 435.060414,922 426.5,922 C417.939586,922 411,915.060414 411,906.5 C411,897.939586 417.939586,891 426.5,891 C435.060414,891 442,897.939586 442,906.5 Z M136,804.5 C136,813.060414 129.060414,820 120.5,820 C111.939586,820 105,813.060414 105,804.5 C105,795.939586 111.939586,789 120.5,789 C129.060414,789 136,795.939586 136,804.5 Z M187,804.5 C187,813.060414 180.060414,820 171.5,820 C162.939586,820 156,813.060414 156,804.5 C156,795.939586 162.939586,789 171.5,789 C180.060414,789 187,795.939586 187,804.5 Z M238,804.5 C238,813.060414 231.060414,820 222.5,820 C213.939586,820 207,813.060414 207,804.5 C207,795.939586 213.939586,789 222.5,789 C231.060414,789 238,795.939586 238,804.5 Z M289,804.5 C289,813.060414 282.060414,820 273.5,820 C264.939586,820 258,813.060414 258,804.5 C258,795.939586 264.939586,789 273.5,789 C282.060414,789 289,795.939586 289,804.5 Z M340,804.5 C340,813.060414 333.060414,820 324.5,820 C315.939586,820 309,813.060414 309,804.5 C309,795.939586 315.939586,789 324.5,789 C333.060414,789 340,795.939586 340,804.5 Z M391,804.5 C391,813.060414 384.060414,820 375.5,820 C366.939586,820 360,813.060414 360,804.5 C360,795.939586 366.939586,789 375.5,789 C384.060414,789 391,795.939586 391,804.5 Z M442,804.5 C442,813.060414 435.060414,820 426.5,820 C417.939586,820 411,813.060414 411,804.5 C411,795.939586 417.939586,789 426.5,789 C435.060414,789 442,795.939586 442,804.5 Z M136,753.5 C136,762.060414 129.060414,769 120.5,769 C111.939586,769 105,762.060414 105,753.5 C105,744.939586 111.939586,738 120.5,738 C129.060414,738 136,744.939586 136,753.5 Z M187,753.5 C187,762.060414 180.060414,769 171.5,769 C162.939586,769 156,762.060414 156,753.5 C156,744.939586 162.939586,738 171.5,738 C180.060414,738 187,744.939586 187,753.5 Z M238,753.5 C238,762.060414 231.060414,769 222.5,769 C213.939586,769 207,762.060414 207,753.5 C207,744.939586 213.939586,738 222.5,738 C231.060414,738 238,744.939586 238,753.5 Z M289,753.5 C289,762.060414 282.060414,769 273.5,769 C264.939586,769 258,762.060414 258,753.5 C258,744.939586 264.939586,738 273.5,738 C282.060414,738 289,744.939586 289,753.5 Z M340,753.5 C340,762.060414 333.060414,769 324.5,769 C315.939586,769 309,762.060414 309,753.5 C309,744.939586 315.939586,738 324.5,738 C333.060414,738 340,744.939586 340,753.5 Z M391,753.5 C391,762.060414 384.060414,769 375.5,769 C366.939586,769 360,762.060414 360,753.5 C360,744.939586 366.939586,738 375.5,738 C384.060414,738 391,744.939586 391,753.5 Z M442,753.5 C442,762.060414 435.060414,769 426.5,769 C417.939586,769 411,762.060414 411,753.5 C411,744.939586 417.939586,738 426.5,738 C435.060414,738 442,744.939586 442,753.5 Z M136,702.5 C136,711.060414 129.060414,718 120.5,718 C111.939586,718 105,711.060414 105,702.5 C105,693.939586 111.939586,687 120.5,687 C129.060414,687 136,693.939586 136,702.5 Z M187,702.5 C187,711.060414 180.060414,718 171.5,718 C162.939586,718 156,711.060414 156,702.5 C156,693.939586 162.939586,687 171.5,687 C180.060414,687 187,693.939586 187,702.5 Z M238,702.5 C238,711.060414 231.060414,718 222.5,718 C213.939586,718 207,711.060414 207,702.5 C207,693.939586 213.939586,687 222.5,687 C231.060414,687 238,693.939586 238,702.5 Z M289,702.5 C289,711.060414 282.060414,718 273.5,718 C264.939586,718 258,711.060414 258,702.5 C258,693.939586 264.939586,687 273.5,687 C282.060414,687 289,693.939586 289,702.5 Z M340,702.5 C340,711.060414 333.060414,718 324.5,718 C315.939586,718 309,711.060414 309,702.5 C309,693.939586 315.939586,687 324.5,687 C333.060414,687 340,693.939586 340,702.5 Z M391,702.5 C391,711.060414 384.060414,718 375.5,718 C366.939586,718 360,711.060414 360,702.5 C360,693.939586 366.939586,687 375.5,687 C384.060414,687 391,693.939586 391,702.5 Z M442,702.5 C442,711.060414 435.060414,718 426.5,718 C417.939586,718 411,711.060414 411,702.5 C411,693.939586 417.939586,687 426.5,687 C435.060414,687 442,693.939586 442,702.5 Z M136,651.5 C136,660.060414 129.060414,667 120.5,667 C111.939586,667 105,660.060414 105,651.5 C105,642.939586 111.939586,636 120.5,636 C129.060414,636 136,642.939586 136,651.5 Z M187,651.5 C187,660.060414 180.060414,667 171.5,667 C162.939586,667 156,660.060414 156,651.5 C156,642.939586 162.939586,636 171.5,636 C180.060414,636 187,642.939586 187,651.5 Z M238,651.5 C238,660.060414 231.060414,667 222.5,667 C213.939586,667 207,660.060414 207,651.5 C207,642.939586 213.939586,636 222.5,636 C231.060414,636 238,642.939586 238,651.5 Z M289,651.5 C289,660.060414 282.060414,667 273.5,667 C264.939586,667 258,660.060414 258,651.5 C258,642.939586 264.939586,636 273.5,636 C282.060414,636 289,642.939586 289,651.5 Z M340,651.5 C340,660.060414 333.060414,667 324.5,667 C315.939586,667 309,660.060414 309,651.5 C309,642.939586 315.939586,636 324.5,636 C333.060414,636 340,642.939586 340,651.5 Z M391,651.5 C391,660.060414 384.060414,667 375.5,667 C366.939586,667 360,660.060414 360,651.5 C360,642.939586 366.939586,636 375.5,636 C384.060414,636 391,642.939586 391,651.5 Z M442,651.5 C442,660.060414 435.060414,667 426.5,667 C417.939586,667 411,660.060414 411,651.5 C411,642.939586 417.939586,636 426.5,636 C435.060414,636 442,642.939586 442,651.5 Z" id="pattern-dot" transform="translate(273.500000, 805.000000) rotate(45.000000) translate(-273.500000, -805.000000) "></path>
        </g>
    </g>
</svg>