<svg id="Layer_1" data-name="Layer 1" xmlns="http://www.w3.org/2000/svg" viewBox="0 0 697.87 471.06"><defs><style>.cls-1{fill:#fff;}.cls-2{fill:#e7e7e7;}.cls-3{fill:#123456;}.cls-4{fill:#045379;}.cls-5{fill:#dcdcdc;}.cls-6{fill:#dadada;}</style></defs><title>contact</title><path class="cls-1" d="M64.43,153.05S36,166.23,43.6,182.48c14.32,30.72,50.94,121.17,113.47,226,0,0,1.88,17.86,6.25,31.56a11.14,11.14,0,0,0,18.75,4.18c9.16-9.92,23.66-28.56,14.9-51.16-15.8-40.74-41.35-78.55-47.32-92.72-2.53-6,2.27-16.88,10.7-3.12s44.29,85.86,50.52,96.56c4,6.93,4.66,20,6.56,31.64a9.85,9.85,0,0,0,17,4.94C245,418.6,267.27,393,250.68,369.18c-46.24-66.31-87.6-178-96.85-198s-30.08-52-55.76-39.35Z"/><path class="cls-2" d="M57.34,142.21a54.74,54.74,0,0,1,5.56,11.21s21.3-2.45,29-18.33l-5-9Z"/><path class="cls-1" d="M94.62,118.3A43.44,43.44,0,1,1,69.8,62.11,43.43,43.43,0,0,1,94.62,118.3Z"/><path class="cls-3" d="M64.41,101.55c5.06,16.34-2.66,33.25-17.26,37.78s-30.53-5.05-35.6-21.39S14.21,84.7,28.81,80.17,59.34,85.22,64.41,101.55Z"/><path class="cls-4" d="M76.3,95.9c-2.09,5.39.22,11.31,5.15,13.22s10.61-.92,12.7-6.31S93.93,91.51,89,89.6,78.39,90.51,76.3,95.9Z"/><path class="cls-3" d="M78.41,96.72c-2.09,5.39.22,11.31,5.15,13.21s10.61-.91,12.7-6.3S96,92.32,91.11,90.42,80.5,91.33,78.41,96.72Z"/><path class="cls-1" d="M84,98.7a5.49,5.49,0,1,0,7.26-3.6A5.74,5.74,0,0,0,84,98.7Z"/><path class="cls-5" d="M42.15,71.17A35.76,35.76,0,0,0,22.4,73a43.35,43.35,0,0,0-5.24,6.88A32.32,32.32,0,0,1,41.5,74.73C61.24,78.33,72.81,96,69,116.84,65.9,134,56.6,142.73,40.11,143.68a43.24,43.24,0,0,0,9.48,2.1c12.58-3.51,20.18-12.86,23-28.29C76.75,94.62,63.94,75.14,42.15,71.17Z"/><path class="cls-1" d="M71.27,221.73,51.63,165.38s-46.47,56.8-31.05,154.5c0,0,1.27,25.6,5.47,25.11s5.61-5.71,5.61-5.71,1.62,8.78,5.7,7.78,5.1-5.58,5.1-5.58,4.68,8,8.25,5S43,314.36,43,314.36,38.46,249.25,71.27,221.73Z"/><path class="cls-1" d="M177.83,39.65s1-25.61-3.26-25.49-6.09,5.2-6.09,5.2-.85-8.89-5-8.25-5.57,5.12-5.57,5.12-4-8.41-7.78-5.69S155,43.2,155,43.2,153.88,108.46,118.8,133l14.66,57.84S184.7,138.32,177.83,39.65Z"/><path class="cls-3" d="M127.83,233.58l-25.77,12a15.32,15.32,0,0,1-20.34-7.38l-13.79-29.5a15.32,15.32,0,0,1,7.38-20.35l25.77-12a15.31,15.31,0,0,1,20.34,7.38l13.79,29.5A15.33,15.33,0,0,1,127.83,233.58Zm-50.2-40.21a9.83,9.83,0,0,0-4.73,13l13.79,29.5a9.83,9.83,0,0,0,13,4.74L125.5,228.6a9.82,9.82,0,0,0,4.74-13l-13.79-29.5a9.83,9.83,0,0,0-13-4.74Z"/><path class="cls-6" d="M93.55,217a6.19,6.19,0,0,1-8.21-3l-4.07-8.7a6.18,6.18,0,1,1,11.19-5.24l4.08,8.71A6.2,6.2,0,0,1,93.55,217Zm-8.14-17.42a3.43,3.43,0,0,0-1.65,4.56l4.07,8.71A3.43,3.43,0,1,0,94.05,210L90,201.24A3.45,3.45,0,0,0,85.41,199.59Z"/><path class="cls-6" d="M105.55,198.89a5.83,5.83,0,1,1,2.82-7.76A5.85,5.85,0,0,1,105.55,198.89Zm-3.78-8.09a3.09,3.09,0,1,0,4.11,1.49A3.1,3.1,0,0,0,101.77,190.8Z"/><path class="cls-6" d="M111.37,211.33a5.84,5.84,0,1,1,2.81-7.76A5.85,5.85,0,0,1,111.37,211.33Zm-3.78-8.08a3.08,3.08,0,1,0,4.1,1.49A3.07,3.07,0,0,0,107.59,203.25Z"/><path class="cls-6" d="M117.18,223.77A5.83,5.83,0,1,1,120,216,5.84,5.84,0,0,1,117.18,223.77Zm-3.78-8.08a3.09,3.09,0,1,0,4.11,1.49A3.09,3.09,0,0,0,113.4,215.69Z"/><path class="cls-6" d="M103.68,230.84l-4.13,1.93a6.3,6.3,0,0,1-8.38-3l-.19-.39A6.31,6.31,0,0,1,94,221L98.15,219a6.3,6.3,0,0,1,8.38,3l.19.39A6.31,6.31,0,0,1,103.68,230.84Zm-8.5-7.4a3.57,3.57,0,0,0-1.71,4.73l.18.4a3.57,3.57,0,0,0,4.73,1.72l4.13-1.93a3.56,3.56,0,0,0,1.72-4.73l-.19-.4a3.56,3.56,0,0,0-4.73-1.72Z"/><path class="cls-6" d="M216.69,311.82c-.66-1.25-1.3-2.51-1.95-3.77-17.81,4.77-30.46,16.08-36.7,22.23l2,3.84C185.72,328.42,198.48,316.42,216.69,311.82ZM17.52,284.9a74.11,74.11,0,0,0,25.41,14c0-1.35.11-2.71.2-4.17-10.82-3.44-19.39-9.67-25.63-15.24C17.5,281.3,17.49,283.08,17.52,284.9Zm127.3,102.61c.69,1.21,1.39,2.42,2.09,3.63,8.88-7.51,23.16-16.83,41.67-17.67-.61-1.33-1.23-2.66-1.86-4C168.2,370.81,153.9,379.93,144.82,387.51Zm19-61.14c-.78-1.37-1.53-2.69-2.28-4-18.9,1.18-33.47,10.52-42.64,18.21.66,1.24,1.3,2.47,2,3.72C129.85,336.63,144.6,326.93,163.78,326.37ZM153.36,61.57c-.19,1.31-.4,2.67-.63,4.07,6.67,2,15.26,7,24.26,18.52q.31-2.84.57-5.76C168.68,68.16,160.17,63.48,153.36,61.57ZM205.64,384l2,3.81c6.17-6.15,20.18-19.17,40.11-22.94q-1.25-1.85-2.48-3.73C226,365.33,212.29,377.47,205.64,384Zm-180-163.34a130,130,0,0,0,24.84,34c.49-1.43,1-2.83,1.6-4.24a124.34,124.34,0,0,1-24.64-35.85C26.79,216.54,26.2,218.6,25.61,220.67Zm115-114.7c-.61,1.25-1.25,2.49-1.91,3.71,7.43,2,17.39,7.81,27.7,22.46.53-1.56,1.05-3.16,1.57-4.77C158,114.12,148.25,108.29,140.56,106Z"/><path class="cls-1" d="M671.28,364.49c-19.76,32.18-42.67,49.67-70,53.47-65.84,9.26-144.94-64.07-215-128.61-39.67-36.54-77.13-71.05-108.63-87.65C167,143.4,121,219.09,120.55,219.85l5.9,3.46c.42-.72,43.07-70.85,148-15.56,30.7,16.18,67.85,50.4,107.18,86.63C451.78,359,531.15,432.14,599.22,425.09q1.49-.15,3-.36c29.11-4,54.31-23.1,74.91-56.66"/></svg>