<?xml version="1.0" encoding="UTF-8"?>
<svg width="1140px" height="405px" viewBox="0 0 1140 405" version="1.1" xmlns="http://www.w3.org/2000/svg" xmlns:xlink="http://www.w3.org/1999/xlink">
    <!-- Generator: Sketch 55.2 (78181) - https://sketchapp.com -->
    <title>icon/bg-home</title>
    <desc>Created with Sketch.</desc>
    <g id="icon/bg-home" stroke="none" stroke-width="1" fill="none" fill-rule="evenodd">
        <g id="Group">
            <g id="Group-2">
                <path d="M870.825667,111.774194 C872.371609,102.254674 879.899506,94.738002 889.433243,93.1943651 L889.433243,88.5483871 L895.248365,88.5483871 L895.248365,93.0072321 C905.463215,93.9866781 913.685996,101.775705 915.309721,111.774194 L915.601295,111.774194 L915.601295,132.096774 L921.416418,132.096774 L927.231541,132.096774 L927.231541,139.354839 L925.77776,139.354839 L925.77776,149.516129 L925.77776,399.193548 L861.084519,399.193548 L825.466891,399.193548 L810.929084,399.193548 L803.66018,399.193548 L803.66018,225 L810.929084,225 L810.929084,217.741935 L808.021523,217.741935 L808.021523,210.483871 L810.929084,210.483871 L810.929084,209.032258 L825.466891,209.032258 L825.466891,197.419355 L821.105549,197.419355 L821.105549,190.16129 L826.920672,190.16129 L851.634944,190.16129 L851.634944,156.774194 L847.273602,156.774194 L847.273602,149.516129 L853.088725,149.516129 L857.450067,149.516129 L857.450067,139.354839 L854.542505,139.354839 L854.542505,132.096774 L860.357628,132.096774 L870.534093,132.096774 L870.534093,111.774194 L870.825667,111.774194 Z" id="mahatun" fill="#3735AD" transform="translate(865.445861, 243.870968) scale(-1, 1) translate(-865.445861, -243.870968) "></path>
                <path d="M518.719161,150.967742 L521.626722,150.967742 L521.626722,223.548387 L540.525871,223.548387 L540.525871,394.83871 L521.626722,394.83871 L463.475493,394.83871 L463.475493,150.967742 L467.836836,150.967742 L467.836836,71.46542 L472.198178,62.4193548 L477.32203,62.4193548 L477.32203,47.604755 L477.32203,44.9709722 L481.43767,42.0677464 L481.43767,35.7882222 L484.345232,31.6973123 L491.097327,31.6973123 L491.097327,24.6774194 L492.551108,24.6774194 L492.551108,0 L495.458669,0 L495.458669,24.6774194 L495.458669,31.6973123 L503.163248,31.6973123 L506.07081,35.7882222 L506.07081,42.0677464 L509.867894,44.9709722 C509.867894,43.5597817 509.867894,44.4377093 509.867894,47.604755 C509.867894,50.7718006 509.867894,55.7100006 509.867894,62.4193548 L514.357818,62.4193548 L518.719161,71.46542 L518.719161,150.967742 Z" id="baiyok" fill="#3735AD"></path>
                <path d="M357.349501,309.193548 L927.231541,309.193548 L927.231541,399.193548 L152.366421,399.193548 L152.366421,377.419355 L152.366421,139.354839 L163.916989,139.354839 L163.916989,116.8572 L167.320946,116.8572 L167.320946,139.354839 L214.149423,139.354839 L214.149423,144.949873 L242.500825,144.949873 L242.500825,309.193548 L306.467176,309.193548 L306.467176,144.490239 L311.319503,139.354839 L322.843673,139.354839 L322.843673,135.898511 L357.349501,135.898511 L357.349501,139.354839 L357.349501,309.193548 Z" id="layer-3" fill="#3736AD"></path>
                <path d="M211.97143,341.129032 L222.147895,341.129032 L222.147895,362.903226 L255.584851,362.903226 L255.584851,191.612903 L283.206685,191.612903 L283.206685,362.903226 L305.013396,362.903226 L305.013396,259.83871 L393.694019,259.83871 L393.694019,182.903226 L393.694019,174.658262 L432.193542,174.658262 L439.912678,182.903226 L480.920862,182.903226 L480.920862,259.83871 L480.920862,362.903226 L582.685512,362.903226 L582.685512,136.451613 L622.603068,136.451613 L622.603068,141.804273 L642.290521,141.804273 L642.290521,259.83871 L655.374548,259.83871 L655.374548,226.451613 L742.60139,226.451613 L742.60139,326.612903 L943.223129,326.612903 L943.223129,164.032258 L952.515622,164.032258 L952.515622,158.372131 L989.859476,158.372131 L989.859476,164.032258 L998.466796,164.032258 L998.466796,306.290323 L1011.55082,306.290323 L1011.55082,249.677419 L1017.07764,249.677419 L1017.07764,234.303291 L1020.32608,234.303291 L1020.32608,249.677419 L1059.62851,249.677419 L1066.79449,257.584222 L1066.79449,326.612903 L1124.94572,326.612903 L1124.94572,362.903226 L1139.48353,362.903226 L1139.48353,403.548387 L0.515199481,403.548387 L0.515199481,362.903226 L38.9715251,362.903226 L38.9715251,341.129032 L109.911303,341.129032 L123.160813,230.806452 L211.97143,230.806452 L211.97143,341.129032 Z" id="layer-2" fill="#3132B0"></path>
                <path d="M328.273887,354.193548 L328.273887,387.580645 L354.494678,387.580645 L367.525966,342.580645 L390.786458,342.580645 L390.786458,303.387097 L440.215002,303.387097 L440.215002,348.387097 L440.215002,354.193548 L475.105739,354.193548 L475.105739,303.387097 L511.450257,303.387097 L511.450257,354.193548 L511.450257,387.580645 L524.534283,387.580645 L524.534283,354.193548 L524.534283,214.83871 L607.399784,197.419355 L607.399784,354.193548 L620.483811,354.193548 L620.483811,303.387097 L677.181258,303.387097 L677.181258,354.193548 L677.181258,387.580645 L696.080408,387.580645 L696.080408,354.193548 L696.080408,197.419355 L752.777855,197.419355 L752.777855,354.193548 L771.677005,354.193548 L771.677005,283.064516 L857.450067,283.064516 L857.450067,354.193548 L890.887023,354.193548 L890.887023,299.032258 L918.508857,299.032258 L918.508857,236.612903 L988.290331,236.612903 L988.290331,332.419355 L1008.64326,332.419355 L1008.64326,354.193548 L1049.34912,354.193548 L1049.34912,283.064516 L1091.50876,283.064516 L1091.50876,328.064516 L1111.86169,328.064516 L1125.07554,387.580645 L1140,387.580645 L1140,405 L0,405 L0,387.580645 L12.8034722,387.580645 L12.8034722,345.483871 L47.6942094,345.483871 L47.6942094,387.580645 L68.0471394,387.580645 L68.0471394,365.806452 L68.0471394,354.193548 L104.391657,354.193548 L104.391657,303.387097 L140.736175,303.387097 L140.736175,360 L140.736175,365.806452 L184.349596,365.806452 L184.349596,281.612903 L220.694114,281.612903 L220.694114,303.387097 L257.038632,303.387097 L257.038632,354.193548 L273.03022,354.193548 L273.03022,236.612903 L328.273887,236.612903 L328.273887,354.193548 Z" id="layer-1" fill="#2528A6"></path>
                <path d="M857.450067,256.086055 L857.450067,267.096774 L890.887023,267.096774 L890.887023,256.086055 L857.450067,256.086055 Z M853.088725,272.522439 L846.648359,256.086055 L843.806056,256.086055 L843.806056,251.066938 L837.097137,240.967742 L848.390032,248.478265 L853.171709,248.478265 L856.716917,244.443478 L860.22561,248.478265 L868.896668,248.478265 L874.895435,240.967742 L880.28538,248.478265 L889.081934,248.478265 L893.055298,244.443478 L896.563328,248.478265 L901.349962,248.478265 L912.693734,240.967742 L905.860167,251.066938 L905.860167,256.086055 L901.349962,256.086055 L895.248365,275.89315 L895.248365,394.83871 L890.887023,394.83871 L890.887023,270 L857.450067,270 L857.450067,394.83871 L853.088725,394.83871 L853.088725,272.522439 Z" id="Combined-Shape" fill="#2528A6"></path>
            </g>
            <g id="Window" transform="translate(108.752999, 175.645161)" fill="#3C3ABD">
                <rect id="Rectangle" x="594.596312" y="36.2903226" width="7.26890357" height="7.25806452"></rect>
                <rect id="Rectangle" x="594.596312" y="56.6129032" width="7.26890357" height="7.25806452"></rect>
                <rect id="Rectangle" x="594.596312" y="76.9354839" width="7.26890357" height="7.25806452"></rect>
                <rect id="Rectangle" x="612.04168" y="36.2903226" width="7.26890357" height="7.25806452"></rect>
                <rect id="Rectangle" x="612.04168" y="56.6129032" width="7.26890357" height="7.25806452"></rect>
                <rect id="Rectangle" x="612.04168" y="76.9354839" width="7.26890357" height="7.25806452"></rect>
                <rect id="Rectangle" x="629.487049" y="36.2903226" width="7.26890357" height="7.25806452"></rect>
                <rect id="Rectangle" x="629.487049" y="56.6129032" width="7.26890357" height="7.25806452"></rect>
                <rect id="Rectangle" x="629.487049" y="76.9354839" width="7.26890357" height="7.25806452"></rect>
                <rect id="Rectangle" x="594.596312" y="97.2580645" width="7.26890357" height="7.25806452"></rect>
                <rect id="Rectangle" x="594.596312" y="117.580645" width="7.26890357" height="7.25806452"></rect>
                <rect id="Rectangle" x="594.596312" y="137.903226" width="7.26890357" height="7.25806452"></rect>
                <rect id="Rectangle" x="612.04168" y="97.2580645" width="7.26890357" height="7.25806452"></rect>
                <rect id="Rectangle" x="612.04168" y="117.580645" width="7.26890357" height="7.25806452"></rect>
                <rect id="Rectangle" x="612.04168" y="137.903226" width="7.26890357" height="7.25806452"></rect>
                <rect id="Rectangle" x="629.487049" y="97.2580645" width="7.26890357" height="7.25806452"></rect>
                <rect id="Rectangle" x="629.487049" y="117.580645" width="7.26890357" height="7.25806452"></rect>
                <rect id="Rectangle" x="629.487049" y="137.903226" width="7.26890357" height="7.25806452"></rect>
                <rect id="Rectangle" x="594.596312" y="159.677419" width="7.26890357" height="7.25806452"></rect>
                <rect id="Rectangle" x="612.04168" y="159.677419" width="7.26890357" height="7.25806452"></rect>
                <rect id="Rectangle" x="629.487049" y="159.677419" width="7.26890357" height="7.25806452"></rect>
                <rect id="Rectangle" x="93.0419657" y="136.451613" width="7.26890357" height="7.25806452"></rect>
                <rect id="Rectangle" x="103.218431" y="136.451613" width="7.26890357" height="7.25806452"></rect>
                <rect id="Rectangle" x="113.394896" y="136.451613" width="7.26890357" height="7.25806452"></rect>
                <rect id="Rectangle" x="123.571361" y="136.451613" width="7.26890357" height="7.25806452"></rect>
                <rect id="Rectangle" x="133.747826" y="136.451613" width="7.26890357" height="7.25806452"></rect>
                <rect id="Rectangle" x="93.0419657" y="156.774194" width="7.26890357" height="7.25806452"></rect>
                <rect id="Rectangle" x="103.218431" y="156.774194" width="7.26890357" height="7.25806452"></rect>
                <rect id="Rectangle" x="82.8655007" y="136.451613" width="7.26890357" height="7.25806452"></rect>
                <rect id="Rectangle" x="82.8655007" y="156.774194" width="7.26890357" height="7.25806452"></rect>
                <rect id="Rectangle" x="113.394896" y="156.774194" width="7.26890357" height="7.25806452"></rect>
                <rect id="Rectangle" x="123.571361" y="156.774194" width="7.26890357" height="7.25806452"></rect>
                <rect id="Rectangle" x="133.747826" y="156.774194" width="7.26890357" height="7.25806452"></rect>
                <rect id="Rectangle" x="678.915593" y="116.129032" width="7.26890357" height="7.25806452"></rect>
                <rect id="Rectangle" x="689.092058" y="116.129032" width="7.26890357" height="7.25806452"></rect>
                <rect id="Rectangle" x="699.268523" y="116.129032" width="7.26890357" height="7.25806452"></rect>
                <rect id="Rectangle" x="709.444988" y="116.129032" width="7.26890357" height="7.25806452"></rect>
                <rect id="Rectangle" x="719.621453" y="116.129032" width="7.26890357" height="7.25806452"></rect>
                <rect id="Rectangle" x="678.915593" y="136.451613" width="7.26890357" height="7.25806452"></rect>
                <rect id="Rectangle" x="689.092058" y="136.451613" width="7.26890357" height="7.25806452"></rect>
                <rect id="Rectangle" x="668.739128" y="116.129032" width="7.26890357" height="7.25806452"></rect>
                <rect id="Rectangle" x="668.739128" y="136.451613" width="7.26890357" height="7.25806452"></rect>
                <rect id="Rectangle" x="699.268523" y="136.451613" width="7.26890357" height="7.25806452"></rect>
                <rect id="Rectangle" x="709.444988" y="136.451613" width="7.26890357" height="7.25806452"></rect>
                <rect id="Rectangle" x="719.621453" y="136.451613" width="7.26890357" height="7.25806452"></rect>
                <rect id="Rectangle" x="729.797918" y="116.129032" width="7.26890357" height="7.25806452"></rect>
                <rect id="Rectangle" x="729.797918" y="136.451613" width="7.26890357" height="7.25806452"></rect>
                <rect id="Rectangle" x="678.915593" y="159.677419" width="7.26890357" height="7.25806452"></rect>
                <rect id="Rectangle" x="689.092058" y="159.677419" width="7.26890357" height="7.25806452"></rect>
                <rect id="Rectangle" x="668.739128" y="159.677419" width="7.26890357" height="7.25806452"></rect>
                <rect id="Rectangle" x="699.268523" y="159.677419" width="7.26890357" height="7.25806452"></rect>
                <rect id="Rectangle" x="709.444988" y="159.677419" width="7.26890357" height="7.25806452"></rect>
                <rect id="Rectangle" x="719.621453" y="159.677419" width="7.26890357" height="7.25806452"></rect>
                <rect id="Rectangle" x="729.797918" y="159.677419" width="7.26890357" height="7.25806452"></rect>
                <rect id="Rectangle" x="167.184782" y="66.7741935" width="4.36134214" height="8.70967742"></rect>
                <rect id="Rectangle" x="174.695982" y="66.7741935" width="4.36134214" height="8.70967742"></rect>
                <rect id="Rectangle" x="182.207183" y="66.7741935" width="4.36134214" height="8.70967742"></rect>
                <rect id="Rectangle" x="189.718383" y="66.7741935" width="4.36134214" height="8.70967742"></rect>
                <rect id="Rectangle" x="197.229583" y="66.7741935" width="4.36134214" height="8.70967742"></rect>
                <rect id="Rectangle" x="204.740784" y="66.7741935" width="4.36134214" height="8.70967742"></rect>
                <rect id="Rectangle" x="212.251984" y="66.7741935" width="4.36134214" height="8.70967742"></rect>
                <rect id="Rectangle" x="167.184782" y="78.3870968" width="4.36134214" height="8.70967742"></rect>
                <rect id="Rectangle" x="174.695982" y="78.3870968" width="4.36134214" height="8.70967742"></rect>
                <rect id="Rectangle" x="182.207183" y="78.3870968" width="4.36134214" height="8.70967742"></rect>
                <rect id="Rectangle" x="189.718383" y="78.3870968" width="4.36134214" height="8.70967742"></rect>
                <rect id="Rectangle" x="197.229583" y="78.3870968" width="4.36134214" height="8.70967742"></rect>
                <rect id="Rectangle" x="204.740784" y="78.3870968" width="4.36134214" height="8.70967742"></rect>
                <rect id="Rectangle" x="212.251984" y="78.3870968" width="4.36134214" height="8.70967742"></rect>
                <rect id="Rectangle" x="167.184782" y="90" width="4.36134214" height="8.70967742"></rect>
                <rect id="Rectangle" x="174.695982" y="90" width="4.36134214" height="8.70967742"></rect>
                <rect id="Rectangle" x="182.207183" y="90" width="4.36134214" height="8.70967742"></rect>
                <rect id="Rectangle" x="189.718383" y="90" width="4.36134214" height="8.70967742"></rect>
                <rect id="Rectangle" x="197.229583" y="90" width="4.36134214" height="8.70967742"></rect>
                <rect id="Rectangle" x="204.740784" y="90" width="4.36134214" height="8.70967742"></rect>
                <rect id="Rectangle" x="212.251984" y="90" width="4.36134214" height="8.70967742"></rect>
                <rect id="Rectangle" x="289.302362" y="17.4193548" width="4.36134214" height="8.70967742"></rect>
                <rect id="Rectangle" x="296.813562" y="17.4193548" width="4.36134214" height="8.70967742"></rect>
                <rect id="Rectangle" x="304.324763" y="17.4193548" width="4.36134214" height="8.70967742"></rect>
                <rect id="Rectangle" x="311.835963" y="17.4193548" width="4.36134214" height="8.70967742"></rect>
                <rect id="Rectangle" x="319.347163" y="17.4193548" width="4.36134214" height="8.70967742"></rect>
                <rect id="Rectangle" x="326.858364" y="17.4193548" width="4.36134214" height="8.70967742"></rect>
                <rect id="Rectangle" x="334.369564" y="17.4193548" width="4.36134214" height="8.70967742"></rect>
                <rect id="Rectangle" x="289.302362" y="40.6451613" width="4.36134214" height="8.70967742"></rect>
                <rect id="Rectangle" x="296.813562" y="40.6451613" width="4.36134214" height="8.70967742"></rect>
                <rect id="Rectangle" x="304.324763" y="40.6451613" width="4.36134214" height="8.70967742"></rect>
                <rect id="Rectangle" x="311.835963" y="40.6451613" width="4.36134214" height="8.70967742"></rect>
                <rect id="Rectangle" x="319.347163" y="40.6451613" width="4.36134214" height="8.70967742"></rect>
                <rect id="Rectangle" x="326.858364" y="40.6451613" width="4.36134214" height="8.70967742"></rect>
                <rect id="Rectangle" x="334.369564" y="40.6451613" width="4.36134214" height="8.70967742"></rect>
                <rect id="Rectangle" x="342.607655" y="17.4193548" width="4.36134214" height="8.70967742"></rect>
                <rect id="Rectangle" x="350.118855" y="17.4193548" width="4.36134214" height="8.70967742"></rect>
                <rect id="Rectangle" x="357.630056" y="17.4193548" width="4.36134214" height="8.70967742"></rect>
                <rect id="Rectangle" x="342.607655" y="40.6451613" width="4.36134214" height="8.70967742"></rect>
                <rect id="Rectangle" x="350.118855" y="40.6451613" width="4.36134214" height="8.70967742"></rect>
                <rect id="Rectangle" x="357.630056" y="40.6451613" width="4.36134214" height="8.70967742"></rect>
                <rect id="Rectangle" x="364.898959" y="17.4193548" width="4.36134214" height="8.70967742"></rect>
                <rect id="Rectangle" x="364.898959" y="40.6451613" width="4.36134214" height="8.70967742"></rect>
                <rect id="Rectangle" x="289.302362" y="63.8709677" width="4.36134214" height="8.70967742"></rect>
                <rect id="Rectangle" x="296.813562" y="63.8709677" width="4.36134214" height="8.70967742"></rect>
                <rect id="Rectangle" x="304.324763" y="63.8709677" width="4.36134214" height="8.70967742"></rect>
                <rect id="Rectangle" x="311.835963" y="63.8709677" width="4.36134214" height="8.70967742"></rect>
                <rect id="Rectangle" x="319.347163" y="63.8709677" width="4.36134214" height="8.70967742"></rect>
                <rect id="Rectangle" x="326.858364" y="63.8709677" width="4.36134214" height="8.70967742"></rect>
                <rect id="Rectangle" x="334.369564" y="63.8709677" width="4.36134214" height="8.70967742"></rect>
                <rect id="Rectangle" x="342.607655" y="63.8709677" width="4.36134214" height="8.70967742"></rect>
                <rect id="Rectangle" x="350.118855" y="63.8709677" width="4.36134214" height="8.70967742"></rect>
                <rect id="Rectangle" x="357.630056" y="63.8709677" width="4.36134214" height="8.70967742"></rect>
                <rect id="Rectangle" x="364.898959" y="63.8709677" width="4.36134214" height="8.70967742"></rect>
                <rect id="Rectangle" x="18.8991493" y="60.9677419" width="4.36134214" height="8.70967742"></rect>
                <rect id="Rectangle" x="26.4103496" y="60.9677419" width="4.36134214" height="8.70967742"></rect>
                <rect id="Rectangle" x="33.92155" y="60.9677419" width="4.36134214" height="8.70967742"></rect>
                <rect id="Rectangle" x="41.4327503" y="60.9677419" width="4.36134214" height="8.70967742"></rect>
                <rect id="Rectangle" x="48.9439507" y="60.9677419" width="4.36134214" height="8.70967742"></rect>
                <rect id="Rectangle" x="56.455151" y="60.9677419" width="4.36134214" height="8.70967742"></rect>
                <rect id="Rectangle" x="63.9663514" y="60.9677419" width="4.36134214" height="8.70967742"></rect>
                <rect id="Rectangle" x="18.8991493" y="72.5806452" width="4.36134214" height="8.70967742"></rect>
                <rect id="Rectangle" x="26.4103496" y="72.5806452" width="4.36134214" height="8.70967742"></rect>
                <rect id="Rectangle" x="33.92155" y="72.5806452" width="4.36134214" height="8.70967742"></rect>
                <rect id="Rectangle" x="41.4327503" y="72.5806452" width="4.36134214" height="8.70967742"></rect>
                <rect id="Rectangle" x="48.9439507" y="72.5806452" width="4.36134214" height="8.70967742"></rect>
                <rect id="Rectangle" x="56.455151" y="72.5806452" width="4.36134214" height="8.70967742"></rect>
                <rect id="Rectangle" x="63.9663514" y="72.5806452" width="4.36134214" height="8.70967742"></rect>
                <rect id="Rectangle" x="18.8991493" y="84.1935484" width="4.36134214" height="8.70967742"></rect>
                <rect id="Rectangle" x="26.4103496" y="84.1935484" width="4.36134214" height="8.70967742"></rect>
                <rect id="Rectangle" x="33.92155" y="84.1935484" width="4.36134214" height="8.70967742"></rect>
                <rect id="Rectangle" x="41.4327503" y="84.1935484" width="4.36134214" height="8.70967742"></rect>
                <rect id="Rectangle" x="48.9439507" y="84.1935484" width="4.36134214" height="8.70967742"></rect>
                <rect id="Rectangle" x="56.455151" y="84.1935484" width="4.36134214" height="8.70967742"></rect>
                <rect id="Rectangle" x="63.9663514" y="84.1935484" width="4.36134214" height="8.70967742"></rect>
                <rect id="Rectangle" x="72.2044421" y="60.9677419" width="4.36134214" height="8.70967742"></rect>
                <rect id="Rectangle" x="79.7156425" y="60.9677419" width="4.36134214" height="8.70967742"></rect>
                <rect id="Rectangle" x="87.2268428" y="60.9677419" width="4.36134214" height="8.70967742"></rect>
                <rect id="Rectangle" x="72.2044421" y="72.5806452" width="4.36134214" height="8.70967742"></rect>
                <rect id="Rectangle" x="79.7156425" y="72.5806452" width="4.36134214" height="8.70967742"></rect>
                <rect id="Rectangle" x="87.2268428" y="72.5806452" width="4.36134214" height="8.70967742"></rect>
                <rect id="Rectangle" x="72.2044421" y="84.1935484" width="4.36134214" height="8.70967742"></rect>
                <rect id="Rectangle" x="79.7156425" y="84.1935484" width="4.36134214" height="8.70967742"></rect>
                <rect id="Rectangle" x="87.2268428" y="84.1935484" width="4.36134214" height="8.70967742"></rect>
                <rect id="Rectangle" x="94.4957464" y="60.9677419" width="4.36134214" height="8.70967742"></rect>
                <rect id="Rectangle" x="94.4957464" y="72.5806452" width="4.36134214" height="8.70967742"></rect>
                <rect id="Rectangle" x="94.4957464" y="84.1935484" width="4.36134214" height="8.70967742"></rect>
                <rect id="Rectangle" x="841.739033" y="0" width="4.36134214" height="8.70967742"></rect>
                <rect id="Rectangle" x="849.250234" y="0" width="4.36134214" height="8.70967742"></rect>
                <rect id="Rectangle" x="856.761434" y="0" width="4.36134214" height="8.70967742"></rect>
                <rect id="Rectangle" x="864.272634" y="0" width="4.36134214" height="8.70967742"></rect>
                <rect id="Rectangle" x="871.783835" y="0" width="4.36134214" height="8.70967742"></rect>
                <rect id="Rectangle" x="879.295035" y="0" width="4.36134214" height="8.70967742"></rect>
                <rect id="Rectangle" x="841.739033" y="11.6129032" width="4.36134214" height="8.70967742"></rect>
                <rect id="Rectangle" x="849.250234" y="11.6129032" width="4.36134214" height="8.70967742"></rect>
                <rect id="Rectangle" x="856.761434" y="11.6129032" width="4.36134214" height="8.70967742"></rect>
                <rect id="Rectangle" x="864.272634" y="11.6129032" width="4.36134214" height="8.70967742"></rect>
                <rect id="Rectangle" x="871.783835" y="11.6129032" width="4.36134214" height="8.70967742"></rect>
                <rect id="Rectangle" x="879.295035" y="11.6129032" width="4.36134214" height="8.70967742"></rect>
                <rect id="Rectangle" x="841.739033" y="23.2258065" width="4.36134214" height="8.70967742"></rect>
                <rect id="Rectangle" x="849.250234" y="23.2258065" width="4.36134214" height="8.70967742"></rect>
                <rect id="Rectangle" x="856.761434" y="23.2258065" width="4.36134214" height="8.70967742"></rect>
                <rect id="Rectangle" x="864.272634" y="23.2258065" width="4.36134214" height="8.70967742"></rect>
                <rect id="Rectangle" x="871.783835" y="23.2258065" width="4.36134214" height="8.70967742"></rect>
                <rect id="Rectangle" x="879.295035" y="23.2258065" width="4.36134214" height="8.70967742"></rect>
                <rect id="Rectangle" x="841.739033" y="34.8387097" width="4.36134214" height="8.70967742"></rect>
                <rect id="Rectangle" x="849.250234" y="34.8387097" width="4.36134214" height="8.70967742"></rect>
                <rect id="Rectangle" x="856.761434" y="34.8387097" width="4.36134214" height="8.70967742"></rect>
                <rect id="Rectangle" x="864.272634" y="34.8387097" width="4.36134214" height="8.70967742"></rect>
                <rect id="Rectangle" x="871.783835" y="34.8387097" width="4.36134214" height="8.70967742"></rect>
                <rect id="Rectangle" x="879.295035" y="34.8387097" width="4.36134214" height="8.70967742"></rect>
                <rect id="Rectangle" x="841.739033" y="46.4516129" width="4.36134214" height="8.70967742"></rect>
                <rect id="Rectangle" x="849.250234" y="46.4516129" width="4.36134214" height="8.70967742"></rect>
                <rect id="Rectangle" x="856.761434" y="46.4516129" width="4.36134214" height="8.70967742"></rect>
                <rect id="Rectangle" x="864.272634" y="46.4516129" width="4.36134214" height="8.70967742"></rect>
                <rect id="Rectangle" x="871.783835" y="46.4516129" width="4.36134214" height="8.70967742"></rect>
                <rect id="Rectangle" x="879.295035" y="46.4516129" width="4.36134214" height="8.70967742"></rect>
                <rect id="Rectangle" x="167.184782" y="101.612903" width="4.36134214" height="8.70967742"></rect>
                <rect id="Rectangle" x="174.695982" y="101.612903" width="4.36134214" height="8.70967742"></rect>
                <rect id="Rectangle" x="182.207183" y="101.612903" width="4.36134214" height="8.70967742"></rect>
                <rect id="Rectangle" x="189.718383" y="101.612903" width="4.36134214" height="8.70967742"></rect>
                <rect id="Rectangle" x="197.229583" y="101.612903" width="4.36134214" height="8.70967742"></rect>
                <rect id="Rectangle" x="204.740784" y="101.612903" width="4.36134214" height="8.70967742"></rect>
                <rect id="Rectangle" x="212.251984" y="101.612903" width="4.36134214" height="8.70967742"></rect>
                <rect id="Rectangle" x="167.184782" y="113.225806" width="4.36134214" height="8.70967742"></rect>
                <rect id="Rectangle" x="174.695982" y="113.225806" width="4.36134214" height="8.70967742"></rect>
                <rect id="Rectangle" x="182.207183" y="113.225806" width="4.36134214" height="8.70967742"></rect>
                <rect id="Rectangle" x="189.718383" y="113.225806" width="4.36134214" height="8.70967742"></rect>
                <rect id="Rectangle" x="197.229583" y="113.225806" width="4.36134214" height="8.70967742"></rect>
                <rect id="Rectangle" x="204.740784" y="113.225806" width="4.36134214" height="8.70967742"></rect>
                <rect id="Rectangle" x="212.251984" y="113.225806" width="4.36134214" height="8.70967742"></rect>
                <rect id="Rectangle" x="167.184782" y="124.83871" width="4.36134214" height="8.70967742"></rect>
                <rect id="Rectangle" x="174.695982" y="124.83871" width="4.36134214" height="8.70967742"></rect>
                <rect id="Rectangle" x="182.207183" y="124.83871" width="4.36134214" height="8.70967742"></rect>
                <rect id="Rectangle" x="189.718383" y="124.83871" width="4.36134214" height="8.70967742"></rect>
                <rect id="Rectangle" x="197.229583" y="124.83871" width="4.36134214" height="8.70967742"></rect>
                <rect id="Rectangle" x="204.740784" y="124.83871" width="4.36134214" height="8.70967742"></rect>
                <rect id="Rectangle" x="212.251984" y="124.83871" width="4.36134214" height="8.70967742"></rect>
                <rect id="Rectangle" x="167.184782" y="136.451613" width="4.36134214" height="8.70967742"></rect>
                <rect id="Rectangle" x="174.695982" y="136.451613" width="4.36134214" height="8.70967742"></rect>
                <rect id="Rectangle" x="182.207183" y="136.451613" width="4.36134214" height="8.70967742"></rect>
                <rect id="Rectangle" x="189.718383" y="136.451613" width="4.36134214" height="8.70967742"></rect>
                <rect id="Rectangle" x="197.229583" y="136.451613" width="4.36134214" height="8.70967742"></rect>
                <rect id="Rectangle" x="204.740784" y="136.451613" width="4.36134214" height="8.70967742"></rect>
                <rect id="Rectangle" x="212.251984" y="136.451613" width="4.36134214" height="8.70967742"></rect>
                <rect id="Rectangle" x="167.184782" y="148.064516" width="4.36134214" height="8.70967742"></rect>
                <rect id="Rectangle" x="174.695982" y="148.064516" width="4.36134214" height="8.70967742"></rect>
                <rect id="Rectangle" x="182.207183" y="148.064516" width="4.36134214" height="8.70967742"></rect>
                <rect id="Rectangle" x="189.718383" y="148.064516" width="4.36134214" height="8.70967742"></rect>
                <rect id="Rectangle" x="197.229583" y="148.064516" width="4.36134214" height="8.70967742"></rect>
                <rect id="Rectangle" x="204.740784" y="148.064516" width="4.36134214" height="8.70967742"></rect>
                <rect id="Rectangle" x="212.251984" y="148.064516" width="4.36134214" height="8.70967742"></rect>
                <rect id="Rectangle" x="167.184782" y="159.677419" width="4.36134214" height="8.70967742"></rect>
                <rect id="Rectangle" x="174.695982" y="159.677419" width="4.36134214" height="8.70967742"></rect>
                <rect id="Rectangle" x="182.207183" y="159.677419" width="4.36134214" height="8.70967742"></rect>
                <rect id="Rectangle" x="189.718383" y="159.677419" width="4.36134214" height="8.70967742"></rect>
                <rect id="Rectangle" x="197.229583" y="159.677419" width="4.36134214" height="8.70967742"></rect>
                <rect id="Rectangle" x="204.740784" y="159.677419" width="4.36134214" height="8.70967742"></rect>
                <rect id="Rectangle" x="212.251984" y="159.677419" width="4.36134214" height="8.70967742"></rect>
                <rect id="Rectangle" x="167.184782" y="171.290323" width="4.36134214" height="8.70967742"></rect>
                <rect id="Rectangle" x="174.695982" y="171.290323" width="4.36134214" height="8.70967742"></rect>
                <rect id="Rectangle" x="182.207183" y="171.290323" width="4.36134214" height="8.70967742"></rect>
                <rect id="Rectangle" x="189.718383" y="171.290323" width="4.36134214" height="8.70967742"></rect>
                <rect id="Rectangle" x="197.229583" y="171.290323" width="4.36134214" height="8.70967742"></rect>
                <rect id="Rectangle" x="204.740784" y="171.290323" width="4.36134214" height="8.70967742"></rect>
                <rect id="Rectangle" x="212.251984" y="171.290323" width="4.36134214" height="8.70967742"></rect>
                <rect id="Rectangle" x="420.142626" y="47.9032258" width="4.36134214" height="8.70967742"></rect>
                <rect id="Rectangle" x="432.015169" y="47.9032258" width="4.36134214" height="8.70967742"></rect>
                <rect id="Rectangle" x="443.887711" y="47.9032258" width="4.36134214" height="8.70967742"></rect>
                <rect id="Rectangle" x="455.760254" y="47.9032258" width="4.36134214" height="8.70967742"></rect>
                <rect id="Rectangle" x="467.632796" y="47.9032258" width="4.36134214" height="8.70967742"></rect>
                <rect id="Rectangle" x="479.505339" y="47.9032258" width="4.36134214" height="8.70967742"></rect>
                <rect id="Rectangle" x="491.377881" y="47.9032258" width="4.36134214" height="8.70967742"></rect>
                <rect id="Rectangle" x="420.142626" y="65.3225806" width="4.36134214" height="8.70967742"></rect>
                <rect id="Rectangle" x="432.015169" y="65.3225806" width="4.36134214" height="8.70967742"></rect>
                <rect id="Rectangle" x="443.887711" y="65.3225806" width="4.36134214" height="8.70967742"></rect>
                <rect id="Rectangle" x="455.760254" y="65.3225806" width="4.36134214" height="8.70967742"></rect>
                <rect id="Rectangle" x="467.632796" y="65.3225806" width="4.36134214" height="8.70967742"></rect>
                <rect id="Rectangle" x="479.505339" y="65.3225806" width="4.36134214" height="8.70967742"></rect>
                <rect id="Rectangle" x="491.377881" y="65.3225806" width="4.36134214" height="8.70967742"></rect>
                <rect id="Rectangle" x="420.142626" y="82.7419355" width="4.36134214" height="8.70967742"></rect>
                <rect id="Rectangle" x="432.015169" y="82.7419355" width="4.36134214" height="8.70967742"></rect>
                <rect id="Rectangle" x="443.887711" y="82.7419355" width="4.36134214" height="8.70967742"></rect>
                <rect id="Rectangle" x="455.760254" y="82.7419355" width="4.36134214" height="8.70967742"></rect>
                <rect id="Rectangle" x="467.632796" y="82.7419355" width="4.36134214" height="8.70967742"></rect>
                <rect id="Rectangle" x="479.505339" y="82.7419355" width="4.36134214" height="8.70967742"></rect>
                <rect id="Rectangle" x="491.377881" y="82.7419355" width="4.36134214" height="8.70967742"></rect>
                <rect id="Rectangle" x="420.142626" y="100.16129" width="4.36134214" height="8.70967742"></rect>
                <rect id="Rectangle" x="432.015169" y="100.16129" width="4.36134214" height="8.70967742"></rect>
                <rect id="Rectangle" x="443.887711" y="100.16129" width="4.36134214" height="8.70967742"></rect>
                <rect id="Rectangle" x="455.760254" y="100.16129" width="4.36134214" height="8.70967742"></rect>
                <rect id="Rectangle" x="467.632796" y="100.16129" width="4.36134214" height="8.70967742"></rect>
                <rect id="Rectangle" x="479.505339" y="100.16129" width="4.36134214" height="8.70967742"></rect>
                <rect id="Rectangle" x="491.377881" y="100.16129" width="4.36134214" height="8.70967742"></rect>
                <rect id="Rectangle" x="420.142626" y="117.580645" width="4.36134214" height="8.70967742"></rect>
                <rect id="Rectangle" x="432.015169" y="117.580645" width="4.36134214" height="8.70967742"></rect>
                <rect id="Rectangle" x="443.887711" y="117.580645" width="4.36134214" height="8.70967742"></rect>
                <rect id="Rectangle" x="455.760254" y="117.580645" width="4.36134214" height="8.70967742"></rect>
                <rect id="Rectangle" x="467.632796" y="117.580645" width="4.36134214" height="8.70967742"></rect>
                <rect id="Rectangle" x="479.505339" y="117.580645" width="4.36134214" height="8.70967742"></rect>
                <rect id="Rectangle" x="491.377881" y="117.580645" width="4.36134214" height="8.70967742"></rect>
                <rect id="Rectangle" x="420.142626" y="135" width="4.36134214" height="8.70967742"></rect>
                <rect id="Rectangle" x="432.015169" y="135" width="4.36134214" height="8.70967742"></rect>
                <rect id="Rectangle" x="443.887711" y="135" width="4.36134214" height="8.70967742"></rect>
                <rect id="Rectangle" x="455.760254" y="135" width="4.36134214" height="8.70967742"></rect>
                <rect id="Rectangle" x="467.632796" y="135" width="4.36134214" height="8.70967742"></rect>
                <rect id="Rectangle" x="479.505339" y="135" width="4.36134214" height="8.70967742"></rect>
                <rect id="Rectangle" x="491.377881" y="135" width="4.36134214" height="8.70967742"></rect>
                <rect id="Rectangle" x="420.142626" y="152.419355" width="4.36134214" height="8.70967742"></rect>
                <rect id="Rectangle" x="432.015169" y="152.419355" width="4.36134214" height="8.70967742"></rect>
                <rect id="Rectangle" x="443.887711" y="152.419355" width="4.36134214" height="8.70967742"></rect>
                <rect id="Rectangle" x="455.760254" y="152.419355" width="4.36134214" height="8.70967742"></rect>
                <rect id="Rectangle" x="467.632796" y="152.419355" width="4.36134214" height="8.70967742"></rect>
                <rect id="Rectangle" x="479.505339" y="152.419355" width="4.36134214" height="8.70967742"></rect>
                <rect id="Rectangle" x="491.377881" y="152.419355" width="4.36134214" height="8.70967742"></rect>
                <rect id="Rectangle" x="420.142626" y="169.83871" width="4.36134214" height="8.70967742"></rect>
                <rect id="Rectangle" x="432.015169" y="169.83871" width="4.36134214" height="8.70967742"></rect>
                <rect id="Rectangle" x="443.887711" y="169.83871" width="4.36134214" height="8.70967742"></rect>
                <rect id="Rectangle" x="0" y="136.451613" width="4.36134214" height="8.70967742"></rect>
                <rect id="Rectangle" x="11.8725425" y="136.451613" width="4.36134214" height="8.70967742"></rect>
                <rect id="Rectangle" x="23.745085" y="136.451613" width="4.36134214" height="8.70967742"></rect>
                <rect id="Rectangle" x="0" y="153.870968" width="4.36134214" height="8.70967742"></rect>
                <rect id="Rectangle" x="11.8725425" y="153.870968" width="4.36134214" height="8.70967742"></rect>
                <rect id="Rectangle" x="23.745085" y="153.870968" width="4.36134214" height="8.70967742"></rect>
                <rect id="Rectangle" x="455.760254" y="169.83871" width="4.36134214" height="8.70967742"></rect>
                <rect id="Rectangle" x="467.632796" y="169.83871" width="4.36134214" height="8.70967742"></rect>
                <rect id="Rectangle" x="479.505339" y="169.83871" width="4.36134214" height="8.70967742"></rect>
                <rect id="Rectangle" x="491.377881" y="169.83871" width="4.36134214" height="8.70967742"></rect>
                <rect id="Rectangle" x="817.024761" y="69.6774194" width="4.36134214" height="8.70967742"></rect>
                <rect id="Rectangle" x="824.535961" y="69.6774194" width="4.36134214" height="8.70967742"></rect>
                <rect id="Rectangle" x="832.047162" y="69.6774194" width="4.36134214" height="8.70967742"></rect>
                <rect id="Rectangle" x="839.558362" y="69.6774194" width="4.36134214" height="8.70967742"></rect>
                <rect id="Rectangle" x="847.069562" y="69.6774194" width="4.36134214" height="8.70967742"></rect>
                <rect id="Rectangle" x="854.580763" y="69.6774194" width="4.36134214" height="8.70967742"></rect>
                <rect id="Rectangle" x="862.091963" y="69.6774194" width="4.36134214" height="8.70967742"></rect>
                <rect id="Rectangle" x="817.024761" y="81.2903226" width="4.36134214" height="8.70967742"></rect>
                <rect id="Rectangle" x="824.535961" y="81.2903226" width="4.36134214" height="8.70967742"></rect>
                <rect id="Rectangle" x="832.047162" y="81.2903226" width="4.36134214" height="8.70967742"></rect>
                <rect id="Rectangle" x="839.558362" y="81.2903226" width="4.36134214" height="8.70967742"></rect>
                <rect id="Rectangle" x="847.069562" y="81.2903226" width="4.36134214" height="8.70967742"></rect>
                <rect id="Rectangle" x="854.580763" y="81.2903226" width="4.36134214" height="8.70967742"></rect>
                <rect id="Rectangle" x="862.091963" y="81.2903226" width="4.36134214" height="8.70967742"></rect>
                <rect id="Rectangle" x="817.024761" y="92.9032258" width="4.36134214" height="8.70967742"></rect>
                <rect id="Rectangle" x="824.535961" y="92.9032258" width="4.36134214" height="8.70967742"></rect>
                <rect id="Rectangle" x="832.047162" y="92.9032258" width="4.36134214" height="8.70967742"></rect>
                <rect id="Rectangle" x="839.558362" y="92.9032258" width="4.36134214" height="8.70967742"></rect>
                <rect id="Rectangle" x="847.069562" y="92.9032258" width="4.36134214" height="8.70967742"></rect>
                <rect id="Rectangle" x="854.580763" y="92.9032258" width="4.36134214" height="8.70967742"></rect>
                <rect id="Rectangle" x="862.091963" y="92.9032258" width="4.36134214" height="8.70967742"></rect>
                <rect id="Rectangle" x="817.024761" y="104.516129" width="4.36134214" height="8.70967742"></rect>
                <rect id="Rectangle" x="824.535961" y="104.516129" width="4.36134214" height="8.70967742"></rect>
                <rect id="Rectangle" x="832.047162" y="104.516129" width="4.36134214" height="8.70967742"></rect>
                <rect id="Rectangle" x="839.558362" y="104.516129" width="4.36134214" height="8.70967742"></rect>
                <rect id="Rectangle" x="847.069562" y="104.516129" width="4.36134214" height="8.70967742"></rect>
                <rect id="Rectangle" x="854.580763" y="104.516129" width="4.36134214" height="8.70967742"></rect>
                <rect id="Rectangle" x="862.091963" y="104.516129" width="4.36134214" height="8.70967742"></rect>
                <rect id="Rectangle" x="817.024761" y="116.129032" width="4.36134214" height="8.70967742"></rect>
                <rect id="Rectangle" x="824.535961" y="116.129032" width="4.36134214" height="8.70967742"></rect>
                <rect id="Rectangle" x="832.047162" y="116.129032" width="4.36134214" height="8.70967742"></rect>
                <rect id="Rectangle" x="839.558362" y="116.129032" width="4.36134214" height="8.70967742"></rect>
                <rect id="Rectangle" x="847.069562" y="116.129032" width="4.36134214" height="8.70967742"></rect>
                <rect id="Rectangle" x="854.580763" y="116.129032" width="4.36134214" height="8.70967742"></rect>
                <rect id="Rectangle" x="862.091963" y="116.129032" width="4.36134214" height="8.70967742"></rect>
                <rect id="Rectangle" x="817.024761" y="127.741935" width="4.36134214" height="8.70967742"></rect>
                <rect id="Rectangle" x="824.535961" y="127.741935" width="4.36134214" height="8.70967742"></rect>
                <rect id="Rectangle" x="832.047162" y="127.741935" width="4.36134214" height="8.70967742"></rect>
                <rect id="Rectangle" x="839.558362" y="127.741935" width="4.36134214" height="8.70967742"></rect>
                <rect id="Rectangle" x="847.069562" y="127.741935" width="4.36134214" height="8.70967742"></rect>
                <rect id="Rectangle" x="854.580763" y="127.741935" width="4.36134214" height="8.70967742"></rect>
                <rect id="Rectangle" x="862.091963" y="127.741935" width="4.36134214" height="8.70967742"></rect>
                <rect id="Rectangle" x="817.024761" y="139.354839" width="4.36134214" height="8.70967742"></rect>
                <rect id="Rectangle" x="824.535961" y="139.354839" width="4.36134214" height="8.70967742"></rect>
                <rect id="Rectangle" x="832.047162" y="139.354839" width="4.36134214" height="8.70967742"></rect>
                <rect id="Rectangle" x="839.558362" y="139.354839" width="4.36134214" height="8.70967742"></rect>
                <rect id="Rectangle" x="847.069562" y="139.354839" width="4.36134214" height="8.70967742"></rect>
                <rect id="Rectangle" x="854.580763" y="139.354839" width="4.36134214" height="8.70967742"></rect>
                <rect id="Rectangle" x="862.091963" y="139.354839" width="4.36134214" height="8.70967742"></rect>
                <rect id="Rectangle" x="817.024761" y="150.967742" width="4.36134214" height="8.70967742"></rect>
                <rect id="Rectangle" x="824.535961" y="150.967742" width="4.36134214" height="8.70967742"></rect>
                <rect id="Rectangle" x="832.047162" y="150.967742" width="4.36134214" height="8.70967742"></rect>
                <rect id="Rectangle" x="839.558362" y="150.967742" width="4.36134214" height="8.70967742"></rect>
                <rect id="Rectangle" x="847.069562" y="150.967742" width="4.36134214" height="8.70967742"></rect>
                <rect id="Rectangle" x="854.580763" y="150.967742" width="4.36134214" height="8.70967742"></rect>
                <rect id="Rectangle" x="862.091963" y="150.967742" width="4.36134214" height="8.70967742"></rect>
                <rect id="Rectangle" x="817.024761" y="162.580645" width="4.36134214" height="8.70967742"></rect>
                <rect id="Rectangle" x="824.535961" y="162.580645" width="4.36134214" height="8.70967742"></rect>
                <rect id="Rectangle" x="832.047162" y="162.580645" width="4.36134214" height="8.70967742"></rect>
                <rect id="Rectangle" x="839.558362" y="162.580645" width="4.36134214" height="8.70967742"></rect>
                <rect id="Rectangle" x="847.069562" y="162.580645" width="4.36134214" height="8.70967742"></rect>
                <rect id="Rectangle" x="854.580763" y="162.580645" width="4.36134214" height="8.70967742"></rect>
                <rect id="Rectangle" x="862.091963" y="162.580645" width="4.36134214" height="8.70967742"></rect>
                <rect id="Rectangle" x="869.11857" y="69.6774194" width="4.36134214" height="8.70967742"></rect>
                <rect id="Rectangle" x="869.11857" y="81.2903226" width="4.36134214" height="8.70967742"></rect>
                <rect id="Rectangle" x="869.11857" y="92.9032258" width="4.36134214" height="8.70967742"></rect>
                <rect id="Rectangle" x="869.11857" y="104.516129" width="4.36134214" height="8.70967742"></rect>
                <rect id="Rectangle" x="869.11857" y="116.129032" width="4.36134214" height="8.70967742"></rect>
                <rect id="Rectangle" x="869.11857" y="127.741935" width="4.36134214" height="8.70967742"></rect>
                <rect id="Rectangle" x="869.11857" y="139.354839" width="4.36134214" height="8.70967742"></rect>
                <rect id="Rectangle" x="869.11857" y="150.967742" width="4.36134214" height="8.70967742"></rect>
                <rect id="Rectangle" x="869.11857" y="162.580645" width="4.36134214" height="8.70967742"></rect>
            </g>
        </g>
    </g>
</svg>