<?xml version="1.0" encoding="UTF-8"?>
<svg width="70px" height="40px" viewBox="0 0 70 40" version="1.1" xmlns="http://www.w3.org/2000/svg" xmlns:xlink="http://www.w3.org/1999/xlink">
    <!-- Generator: Sketch 55.2 (78181) - https://sketchapp.com -->
    <title>icon/icon-home-insurance </title>
    <desc>Created with Sketch.</desc>
    <g id="icon/icon-home-insurance-" stroke="none" stroke-width="1" fill="none" fill-rule="evenodd">
        <g id="np_home-natural-gas_1306715_000000" transform="translate(18.000000, 5.000000)" fill="#E9483F" fill-rule="nonzero" stroke="#E9483F" stroke-width="0.3">
            <path d="M32.8929851,14.0064179 L27.6720896,9.52880597 L27.6720896,3.48402985 C27.6720896,3.11322985 27.3712478,2.81238806 27.0004478,2.81238806 L23.5023134,2.81238806 C23.1315134,2.81238806 22.8306716,3.11322985 22.8306716,3.48402985 L22.8306716,5.37304478 L17.0151493,0.384537313 C16.7597866,0.157159701 16.3749851,0.157159701 16.1196269,0.384537313 L0.241567164,14.0063284 C0.0264313433,14.1899821 -0.0505253731,14.4890597 0.050919403,14.7549403 C0.15061791,15.0190478 0.405980597,15.192206 0.689337313,15.188709 L5.46247164,15.188709 L5.46247164,27.7609478 C5.46247164,28.1317478 5.76331343,28.4325896 6.13411343,28.4325896 L8.41841194,28.4325896 C8.78921194,28.4325896 9.09005373,28.1317478 9.09005373,27.7609478 C9.09005373,27.3901478 8.78921194,27.089306 8.41841194,27.089306 L6.80575522,27.089306 L6.80575522,14.5170672 C6.80575522,14.1445164 6.50491343,13.8454254 6.13411343,13.8454254 L2.49430746,13.8454254 L16.5674418,1.79079851 L30.6405761,13.8454254 L27.0007701,13.8454254 C26.6299701,13.8454254 26.3291284,14.1445164 26.3291284,14.5170672 L26.3291284,27.089306 L24.7164716,27.089306 C24.3456716,27.089306 24.0448299,27.3901478 24.0448299,27.7609478 C24.0448299,28.1317478 24.3456716,28.4325896 24.7164716,28.4325896 L27.0007701,28.4325896 C27.3715701,28.4325896 27.6724119,28.1317478 27.6724119,27.7609478 L27.6724119,15.188709 L32.4580836,15.188709 C32.7414313,15.1922073 32.9985313,15.0190478 33.0982478,14.7549403 C33.1979463,14.4890821 33.1227345,14.19 32.9058493,14.0063284 L32.8929851,14.0064179 Z M24.1791045,4.15567164 L26.3287164,4.15567164 L26.3287164,8.37792537 L24.1791045,6.53265672 L24.1791045,4.15567164 Z M21.2057015,18.4840299 C21.308897,18.5959701 23.7348358,21.2685672 23.7348358,24.5919403 C23.7313379,27.1350896 21.5415224,29.1044776 20.5970149,29.821791 C20.4553388,29.9302343 20.2769373,29.9774597 20.1002687,29.9547224 C19.9236134,29.9319842 19.762697,29.8392851 19.6542582,29.697609 C19.4286269,29.4037657 19.4828507,28.9822209 19.7784403,28.7548478 C20.5620224,28.1496537 22.3845448,26.5160418 22.3845448,24.5728478 L22.3827954,24.5728478 C22.3373207,23.2470716 21.9455297,21.9580119 21.2458849,20.8298328 C21.1636804,21.6029373 20.8505969,22.3322955 20.3503625,22.9252209 C19.680467,23.5216388 18.7079745,23.6335791 17.9191536,23.2033209 C17.0376013,22.7118134 16.5933775,21.6903806 16.836467,20.7091567 C17.4014073,17.4716194 16.5950969,15.4569179 14.3685416,14.5837836 C14.4892267,17.999709 13.361079,19.3797537 12.3483775,20.6057239 C11.5158103,21.6219179 10.7951834,22.4947388 10.7951834,24.5726194 C10.7951834,26.4301119 12.4428103,28.0165299 13.1511685,28.6024701 C13.4345163,28.842094 13.4729969,29.2653806 13.233373,29.5504701 C12.9954999,29.8338179 12.5704625,29.8722985 12.2871193,29.6326746 C11.2306715,28.7371522 9.45364164,26.9006149 9.45364164,24.5640179 C9.45364164,22.0068985 10.3981491,20.8560179 11.3111342,19.7452119 C12.3361043,18.4963612 13.3085521,17.314003 12.9639999,13.7143164 L12.9622509,13.7143164 C12.9342658,13.4921866 13.0199718,13.2700522 13.1896285,13.1231373 C13.361036,12.9762179 13.5919151,12.925491 13.8087927,12.9849627 C18.6222255,14.113097 18.6132703,18.4472015 18.1797031,20.938097 C18.0502733,21.3403836 18.2059393,21.7793955 18.5592524,22.0120075 C18.8321091,22.1676761 19.1696852,22.1501821 19.4232972,21.9665328 C19.8710584,21.5187716 20.0599688,19.893891 20.0319837,18.938906 L20.0319837,18.9406549 C20.0249875,18.6608042 20.1911494,18.405446 20.4500091,18.3004907 C20.7088688,18.1937982 21.0062181,18.2602621 21.1968748,18.4649042 L21.2057015,18.4840299 Z M20.1947463,25.5483582 C20.0758119,27.2047164 19.2992239,28.7438955 18.036403,29.8213433 C17.740809,30.0277343 17.3332836,29.9647657 17.1146418,29.6761701 C16.896009,29.3875746 16.9449806,28.9782896 17.2248313,28.7509164 C17.861503,28.1999463 18.3372493,27.4863493 18.5995925,26.687006 C17.5606522,27.0770463 16.3905179,26.8829015 15.5334582,26.1762896 C14.9842343,25.6393343 14.5784731,24.9746776 14.3545925,24.2418269 C14.1901791,24.6703478 14.1062239,25.1251254 14.1097209,25.5851104 C14.1464512,26.8042299 14.7114224,27.9480806 15.6576313,28.7194388 C15.9339851,28.9468164 15.9847075,29.3490806 15.7730687,29.6377075 C15.5596836,29.9245522 15.1591433,29.9962657 14.8617851,29.7986239 C13.5692328,28.7701612 12.8031134,27.2222507 12.766397,25.5711313 C12.7191716,24.250594 13.2579045,22.9772507 14.2391284,22.0922507 C14.4297761,21.9435806 14.6851388,21.908597 14.9090239,22.0013015 C15.1311537,22.0940015 15.2885731,22.3003925 15.3183045,22.540003 C15.3952612,23.0647343 15.7398313,24.5549284 16.4149612,25.1461075 C17.0918418,25.7372866 18.1080358,25.5938687 19.1557522,24.9169791 C19.3691373,24.7770537 19.6455134,24.7700552 19.8658567,24.9012372 C20.0862403,25.030667 20.2139194,25.2755387 20.1946791,25.530879 L20.1947463,25.5483582 Z" id="Shape"></path>
        </g>
    </g>
</svg>