<?xml version="1.0" encoding="UTF-8"?>
<svg width="60px" height="60px" viewBox="0 0 60 60" version="1.1" xmlns="http://www.w3.org/2000/svg" xmlns:xlink="http://www.w3.org/1999/xlink">
    <!-- Generator: Sketch 56 (81588) - https://sketch.com -->
    <title>icon/icon-Contact</title>
    <desc>Created with Sketch.</desc>
    <g id="icon/icon-Contact" stroke="none" stroke-width="1" fill="none" fill-rule="evenodd">
        <g id="Group-10" transform="translate(16.000000, 18.000000)" fill="#FFFFFF" fill-rule="nonzero">
            <g id="icon">
                <path d="M19.3280273,18.6689684 L16.3535273,16.2946358 C15.7285273,15.81504 14.8535273,15.8900211 14.3535273,16.4969381 C13.8281273,17.1285171 13.4531273,17.5331318 13.3535273,17.6337802 C12.4531273,18.5436581 10.5537773,17.2045086 8.57802734,15.2081128 C6.60342734,13.2127276 5.25277734,11.2923234 6.17762734,10.3823444 C6.27723734,10.2816859 6.70302734,9.90274863 7.30262734,9.37181811 C7.90222734,8.86655495 7.97742734,7.95667705 7.50282234,7.35076547 L5.12782234,4.29442863 C4.72742234,3.76349811 4.00282234,3.58685811 3.40322234,3.86515705 C2.60342234,4.21843705 1.15322234,5.43127074 0.752722342,5.81021811 C-1.39767766,7.98325389 1.27812234,12.9844497 6.00272234,17.7599444 C10.7272223,22.534176 15.6774723,25.2383444 17.8279723,23.0652076 C18.2029723,22.6862602 19.4031723,21.2207949 19.7527723,20.3868076 C20.0281723,19.780896 19.8523823,19.0733255 19.3279723,18.6687107 L19.3280273,18.6689684 Z" id="Path"></path>
                <path d="M13.3142596,0 C13.1598029,0 13.013042,0.032031586 12.8777773,0.0854188643 L19.5540591,5.87554878 C19.8430014,6.12569427 20.1503567,6.12569427 20.4392989,5.87554878 L27.1277773,0.0854188643 C26.9925324,0.032031586 26.8457596,0 26.6912951,0 L13.3142596,0 Z M12.140082,1.01052632 C12.1323917,1.06508951 12.1277773,1.12198935 12.1277773,1.17889119 L12.1277773,9.1606334 C12.1277773,9.82395609 12.6545755,10.3578947 13.3090273,10.3578947 L26.6965273,10.3578947 C27.3509792,10.3578947 27.8777773,9.82395609 27.8777773,9.1606334 L27.8777773,1.17889119 C27.8777773,1.12198935 27.873163,1.06508951 27.8654727,1.01052632 L21.2148383,6.89087535 C20.5211689,7.50431215 19.4721795,7.50509037 18.7785102,6.89087535 L12.140082,1.01052632 Z" id="Shape"></path>
            </g>
        </g>
    </g>
</svg>