<?xml version="1.0" encoding="UTF-8"?>
<svg width="18px" height="18px" viewBox="0 0 18 18" version="1.1" xmlns="http://www.w3.org/2000/svg" xmlns:xlink="http://www.w3.org/1999/xlink">
    <!-- Generator: Sketch 55.2 (78181) - https://sketchapp.com -->
    <title>icon/icon-check-white-Recommend</title>
    <desc>Created with Sketch.</desc>
    <g id="icon/icon-check-white-Recommend" stroke="none" stroke-width="1" fill="none" fill-rule="evenodd">
        <g id="np_thumb-up_860380_FFFFFF" transform="translate(0.000000, 1.000000)" fill="#FFFFFF" fill-rule="nonzero">
            <path d="M17.9763061,7.39418182 C18.0652739,6.87429091 17.7983724,6.2976 17.3542592,5.951 L17.2947086,5.92188 C17.2652914,5.89347091 17.2652914,5.89347091 17.2358761,5.89347091 L17.1763255,5.86435091 C17.1763255,5.86435091 17.1469084,5.86435091 17.1469084,5.83523091 L17.0579406,5.80682182 C17.0285235,5.77770182 16.9689729,5.77770182 16.9101404,5.74858364 C16.1689812,5.51776545 15.3395853,5.60440727 14.5697731,5.69105455 C14.3918394,5.72017455 12.7330384,5.72017455 12.7029159,5.83523091 L12.9698118,4.99857636 C13.117612,4.53692182 13.2367078,4.10368545 13.3845098,3.64204909 C13.5918588,2.97870364 13.6514057,2.45881273 13.5918588,1.93963091 C13.502891,1.30468545 13.1176139,0.698158182 12.5551139,0.352267273 C12.2293873,0.149849091 11.87352,0.0632127273 11.518369,0.0632127273 L11.4294012,0.0632127273 C11.0735339,0.0923327273 10.8661849,0.265630909 10.8367604,0.611503636 C10.8073433,1.04474 10.7477927,1.44886727 10.6889602,1.82386727 C10.569859,2.48792182 10.3926398,3.03623091 10.1257439,3.49786727 C9.97794367,3.75781273 9.80001735,4.01704909 9.56324388,4.21946727 C9.26692347,4.50781273 8.97060306,4.85441273 8.61473571,5.22941273 L7.84488673,6.09517636 C7.66695306,6.29759455 7.48901939,6.49930364 7.28167041,6.67259455 C7.25225327,6.70100364 7.19270265,6.75924182 7.1338702,6.81677091 C7.01548714,6.93253818 6.8375498,7.01848 6.68903143,7.10511636 C6.60006367,7.13423636 6.48168245,7.19176364 6.30445592,7.22088364 C5.65226816,7.39417818 5.26699469,7.56675636 5.2375702,7.97088364 C5.2375702,8.17330182 5.20815306,8.37501091 5.20815306,8.54830182 L5.20815306,15.0993927 L6.27432245,15.0993927 C6.6301898,15.1569218 6.98534082,15.21516 7.45958571,15.3018109 L7.66693469,15.33022 C8.58530204,15.4743964 9.44412245,15.6192745 10.2734449,15.7059291 C12.3476694,15.9367473 14.8652816,16.5425836 16.4064857,14.6952745 C17.0285327,13.9452745 17.0873633,12.8770927 17.2358816,11.95382 C17.5020612,10.4239836 17.7689571,8.92327455 17.9763061,7.39418364 L17.9763061,7.39418182 Z" id="Path"></path>
            <path d="M3.43028571,15.706 L0.675183673,15.706 C0.320032653,15.706 0.0237122449,15.4169455 0.0237122449,15.0710545 L0.0237122449,7.0476 C0.0237122449,6.70101818 0.320032653,6.41265455 0.675183673,6.41265455 L3.43028571,6.41265455 C3.78615306,6.41265455 4.08247347,6.701 4.08247347,7.0476 L4.08247347,15.0710545 C4.08247347,15.4169273 3.81557755,15.706 3.43028571,15.706 Z" id="Path"></path>
        </g>
    </g>
</svg>