<?xml version="1.0" encoding="UTF-8"?>
<svg width="60px" height="60px" viewBox="0 0 60 60" version="1.1" xmlns="http://www.w3.org/2000/svg" xmlns:xlink="http://www.w3.org/1999/xlink">
    <!-- Generator: Sketch 55.2 (78181) - https://sketchapp.com -->
    <title>icon/icon-valued</title>
    <desc>Created with Sketch.</desc>
    <g id="icon/icon-valued" stroke="none" stroke-width="1" fill="none" fill-rule="evenodd">
        <path d="M30.6845466,54.4537151 L30.6845466,44.5696395 C31.2137209,43.0402957 33.0824748,42.2756238 36.2908081,42.2756238 C39.4991414,42.2756238 41.380215,43.0402957 41.9340287,44.5696395 L41.9340287,49.9482558 C42.9485775,48.8925316 44.9352891,48.3646695 47.8941633,48.3646695 C50.8530376,48.3646695 52.6745164,49.2314424 53.3585996,50.9649884 L53.3585996,54.4537151 C51.9356235,55.9074078 50.1141447,56.6342541 47.8941633,56.6342541 C45.674182,56.6342541 43.6874704,55.95112 41.9340287,54.5848517 C40.8950135,55.95112 39.1815049,56.6342541 36.7935029,56.6342541 C34.4055009,56.6342541 32.3691822,55.9074078 30.6845466,54.4537151 Z" id="Path-2" fill="#CACAFC"></path>
        <ellipse id="Oval" fill="#CACAFC" cx="28.175612" cy="10.7186941" rx="6.79411765" ry="6.76923077"></ellipse>
        <path d="M41.1033081,46.7505814 C39.9202031,47.400093 38.1907189,47.767314 36.2908081,47.767314 C34.3908973,47.767314 32.6614131,47.4000802 31.4783081,46.7505814 L31.4783081,47.767314 C31.4783081,48.4642791 33.5888139,49.3661512 36.2908081,49.3661512 C38.9928023,49.3661512 41.1033081,48.4642791 41.1033081,47.767314 L41.1033081,46.7505814 Z M42.7074748,44.5696395 L42.7074748,54.1626628 C42.7074748,56.1137558 39.7898806,57.3603372 36.2908081,57.3603372 C32.7917356,57.3603372 29.8741414,56.1137558 29.8741414,54.1626628 L29.8741414,44.5696395 C29.8741414,42.6185465 32.7917356,41.3719651 36.2908081,41.3719651 C39.7898806,41.3719651 42.7074748,42.6185465 42.7074748,44.5696395 Z M41.1033081,54.1626628 L41.1033081,53.4082035 C39.9653764,53.9203302 38.2860064,54.1626628 36.2908081,54.1626628 C34.2956098,54.1626628 32.6162398,53.9203366 31.4783081,53.4082035 L31.4783081,54.1626628 C31.4783081,54.8596279 33.5888139,55.7615 36.2908081,55.7615 C38.9928023,55.7615 41.1033081,54.8596279 41.1033081,54.1626628 Z M41.1033081,51.3646977 L41.1033081,49.9482558 C39.9202031,50.5977674 38.1907189,50.9649884 36.2908081,50.9649884 C34.3908973,50.9649884 32.6614131,50.5977547 31.4783081,49.9482558 L31.4783081,51.3646977 C31.4783081,51.931786 33.4008056,52.5638256 36.2908081,52.5638256 C39.1808106,52.5638256 41.1033081,51.931786 41.1033081,51.3646977 Z M36.2908081,46.1684767 C38.9928023,46.1684767 41.1033081,45.2666047 41.1033081,44.5696395 C41.1033081,43.8726744 38.9928023,42.9708023 36.2908081,42.9708023 C33.5888139,42.9708023 31.4783081,43.8726744 31.4783081,44.5696395 C31.4783081,45.2666047 33.5888139,46.1684767 36.2908081,46.1684767 Z" id="Shape" stroke="#0F0E9F" stroke-width="0.7" fill="#0F0E9F" fill-rule="nonzero" stroke-linejoin="round"></path>
        <path d="M52.3324748,53.1459302 C51.1493698,53.7954419 49.4198856,54.1626628 47.5199748,54.1626628 C45.620064,54.1626628 43.8905798,53.7954291 42.7074748,53.1459302 L42.7074748,54.1626628 C42.7074748,54.8596279 44.8179806,55.7615 47.5199748,55.7615 C50.221969,55.7615 52.3324748,54.8596279 52.3324748,54.1626628 L52.3324748,53.1459302 Z M53.9366415,50.9649884 L53.9366415,54.1626628 C53.9366415,56.1137558 51.0190473,57.3603372 47.5199748,57.3603372 C44.0209023,57.3603372 41.1033081,56.1137558 41.1033081,54.1626628 L41.1033081,50.9649884 C41.1033081,49.0138953 44.0209023,47.767314 47.5199748,47.767314 C51.0190473,47.767314 53.9366415,49.0138953 53.9366415,50.9649884 Z M47.5199748,52.5638256 C50.221969,52.5638256 52.3324748,51.6619535 52.3324748,50.9649884 C52.3324748,50.2680233 50.221969,49.3661512 47.5199748,49.3661512 C44.8179806,49.3661512 42.7074748,50.2680233 42.7074748,50.9649884 C42.7074748,51.6619535 44.8179806,52.5638256 47.5199748,52.5638256 Z" id="Shape" stroke="#0F0E9F" stroke-width="0.7" fill="#0F0E9F" fill-rule="nonzero" stroke-linejoin="round"></path>
        <path d="M19.7454331,20.5296512 C19.3343686,20.6945297 18.8681465,20.4946769 18.7027248,20.0849762 C18.5372967,19.6752773 18.7378156,19.2106041 19.148882,19.045732 C24.6807545,16.8398483 30.756632,16.8398483 37.345907,19.0282445 C37.7670008,19.1681428 37.9925787,19.6228137 37.8547295,20.0399887 C37.7143649,20.4596835 37.2581784,20.684512 36.8396128,20.5471207 C30.5958753,18.4711265 24.9084628,18.4711265 19.7449711,20.5296333 L19.7454331,20.5296512 Z" id="Path" stroke="#0F0E9F" stroke-width="0.7" fill="#0F0E9F" fill-rule="nonzero" stroke-linejoin="round"></path>
        <path d="M28.2699748,17.3895349 C31.8141564,17.3895349 34.6866414,14.526593 34.6866414,10.994186 C34.6866414,7.46177907 31.8141564,4.59883721 28.2699748,4.59883721 C24.7257931,4.59883721 21.8533081,7.46177907 21.8533081,10.994186 C21.8533081,14.526593 24.7257931,17.3895349 28.2699748,17.3895349 Z M28.2699748,18.9883721 C23.840999,18.9883721 20.2491415,15.4084477 20.2491415,10.994186 C20.2491415,6.57992442 23.840999,3 28.2699748,3 C32.6989506,3 36.2908081,6.57992442 36.2908081,10.994186 C36.2908081,15.4084477 32.6989506,18.9883721 28.2699748,18.9883721 Z" id="Shape" stroke="#0F0E9F" stroke-width="0.7" fill="#0F0E9F" fill-rule="nonzero" stroke-linejoin="round"></path>
        <path d="M52.7206831,19.8875581 C53.9413256,20.5595814 55.081824,20.5220983 55.6031781,20.0024762 C56.0718964,19.5378157 55.9616067,18.6834355 54.9615115,17.6466855 C54.0692098,16.7223657 52.1667323,15.7905634 50.7279873,15.7905634 C50.4397378,15.7905634 50.1715404,15.8055528 49.920899,15.838029 C50.0462229,17.2620174 51.0338056,18.9582558 52.7206831,19.8875639 L52.7206831,19.8875581 Z M50.7279873,14.1917326 C52.6379723,14.1917326 54.9414273,15.3208953 56.1194631,16.5400407 C57.6660081,18.1438663 57.9066331,19.9750465 56.7360663,21.1366977 C55.6507513,22.2109244 53.7407663,22.2758372 51.9435863,21.2865919 C49.9684721,20.1998942 48.7001538,18.2637663 48.3843255,16.4101384 C47.4945263,17.0996209 47.9080869,18.3887314 48.1988453,20.3797314 C48.2615079,20.816911 47.9582203,21.2241093 47.519577,21.2865919 C47.08094,21.351543 46.674887,21.0467663 46.6096936,20.6095802 C46.1535071,17.4768826 46.3264555,15.3934058 48.4068736,14.5789581 C48.5522496,13.9019465 48.8655626,13.2899116 49.3618661,12.8002837 C51.6904103,10.5144581 55.3975111,10.5219407 58.5133161,13.6272023 C58.8266291,13.9394744 58.8266291,14.4440802 58.5133161,14.7563651 C58.2000031,15.0686372 57.6937153,15.0686372 57.3803895,14.7563651 C54.8889261,12.2731791 52.1894345,12.2681907 50.4901728,13.9394872 C50.4074555,14.0194291 50.3347675,14.1093605 50.2695999,14.204293 C50.4199937,14.1967983 50.57289,14.1918023 50.7282889,14.1918023 L50.7279873,14.1917326 Z" id="Shape" stroke="#0F0E9F" stroke-width="0.7" fill="#0F0E9F" fill-rule="nonzero" stroke-linejoin="round"></path>
        <path d="M27.4678914,14.9535465 C25.9564456,14.8061529 25.0616414,14.2015814 25.0616414,13.0199767 C25.0616414,12.5802965 25.42007,12.2205581 25.8637248,12.2205581 C26.3073795,12.2205581 26.6658081,12.5802965 26.6658081,13.0199767 C26.6658081,13.2048407 27.054318,13.3922052 28.2699748,13.3922052 C29.4831098,13.3922052 29.8741414,13.1323942 29.8741414,12.5927866 C29.8741414,12.0531791 29.4831226,11.793368 28.2699748,11.793368 C26.2747764,11.793368 25.0616414,10.9864669 25.0616414,9.39511221 C25.0616414,7.94618198 25.9489381,7.08428081 27.4678914,6.86946105 L27.4678914,6.19743779 C27.4678914,5.75525698 27.82632,5.39801919 28.2699748,5.39801919 C28.7136295,5.39801919 29.0720581,5.75525698 29.0720581,6.19743779 L29.0720581,6.85443198 C29.8766439,6.93687442 30.4706989,7.14921919 30.8842531,7.48647151 C31.3103583,7.83371977 31.4782953,8.24841337 31.4782953,8.59568081 C31.4782953,9.03786163 31.1198667,9.39509942 30.6762119,9.39509942 C30.2450889,9.39509942 29.8941486,9.05534651 29.8741286,8.63066337 C29.8791413,8.71060523 29.889168,8.74058023 29.8666089,8.72309535 C29.6535563,8.55072151 29.1522414,8.41331744 28.2699498,8.41331744 C27.0668248,8.41331744 26.6657831,8.71059884 26.6657831,9.3951314 C26.6657831,9.93473895 27.0568019,10.19455 28.2699498,10.19455 C30.2651481,10.19455 31.4782953,11.0014512 31.4782953,12.5928058 C31.4782953,13.9593 30.5859814,14.7462477 29.0720331,14.941114 L29.0720331,15.7230733 C29.0720331,16.1627535 28.7136045,16.5224919 28.2699498,16.5224919 C27.826295,16.5224919 27.4678664,16.1627535 27.4678664,15.7230733 L27.4678914,14.9535465 Z" id="Path" stroke="#0F0E9F" stroke-width="0.4" fill="#0F0E9F" fill-rule="nonzero" stroke-linejoin="round"></path>
        <path d="M6.94739145,13.8593023 C6.91230062,13.8268261 6.95491114,13.8967746 6.96744353,14.20405 C6.99501531,14.8410843 6.5989857,15.2782767 6.21297187,15.4081663 C6.28816878,15.3831841 6.85964353,15.4156603 7.57401103,15.5730448 C7.81463603,15.6255071 8.05526103,15.6854622 8.29338353,15.7554145 C7.9499892,15.0558913 7.5063152,14.4189145 6.94735937,13.8593215 L6.94739145,13.8593023 Z M30.6492748,47.6747093 C29.864709,47.7346657 29.0701973,47.7671413 28.2706165,47.7671413 C26.721569,47.7671413 25.1951081,47.6497291 23.7037465,47.4173924 L21.8539498,47.1301006 L21.8539498,49.3659785 C21.8539498,50.2478331 21.1345773,50.9648157 20.2497831,50.9648157 C19.3649889,50.9648157 18.6456164,50.2478331 18.6456164,49.3659785 L18.6456164,46.1683041 L17.6430123,45.7636 C13.7328239,44.1822221 10.5243623,41.7640128 8.43894562,38.8463907 L7.96020453,38.1743674 L4.20793037,38.1743674 C3.3231362,38.1743674 2.6037637,37.4573849 2.6037637,36.5755302 L2.6037637,33.3778558 C2.6037637,32.4960012 3.3231362,31.7790186 4.20793037,31.7790186 L5.67927203,31.7790186 L5.85222045,30.3750477 C5.9349377,29.7080128 6.13545853,28.9011116 6.4412512,27.9892628 C6.68438512,27.2598093 6.99017778,26.4803442 7.34106037,25.673443 C7.68946612,24.8715302 8.06543787,24.0870767 8.44139037,23.3551291 C8.6644722,22.9179494 8.83742062,22.5981756 8.9326632,22.4308093 L9.07051887,22.1834884 L9.11563637,21.9036919 C9.22090821,21.2466977 9.28357337,20.2448663 9.17077928,19.0707442 C9.05798712,17.8691221 8.77725795,16.749936 8.29349262,15.7556512 C9.86256012,16.2103221 11.3063101,16.9872674 11.6923368,17.5968081 L12.5470368,18.9383605 L13.9005684,18.0939826 C16.1739934,16.6724884 18.7982818,15.5983256 21.6358601,14.9387733 L21.2724137,13.3824012 C18.2320045,14.0869128 15.4472995,15.2410174 13.0488137,16.7399593 C11.4271295,14.1917965 3.4064887,12.5929593 5.8127387,14.9912151 C8.2189887,17.3894709 7.53221287,21.6487733 7.53221287,21.6487733 C7.53221287,21.6487733 4.68481703,26.7250814 4.2611887,30.1801686 L4.20855214,30.1801686 C2.43646131,30.1801686 1.00021881,31.6116395 1.00021881,33.377843 L1.00021881,36.5755174 C1.00021881,38.3417209 2.43646131,39.7731919 4.20855214,39.7731919 L7.13365381,39.7731919 C9.39950714,42.9483547 12.8560371,45.5540116 17.0416288,47.2455174 L17.0416288,49.3664709 C17.0416288,51.1326744 18.4778713,52.5641453 20.2499621,52.5641453 C21.5909171,52.5641453 22.738923,51.7447733 23.220173,50.580564 L23.4582891,48.999186 L25.0624557,49.2040355 C26.1126716,49.3114581 27.1829716,49.3664198 28.2707891,49.3664198 C29.0853849,49.3664198 29.8899707,49.3364416 30.6845466,49.2739878 L30.6492748,47.6747093 Z M41.8585299,46.1562552 C48.1849782,42.8436564 52.3330966,37.2827087 52.3330966,30.9800924 C52.3330966,22.6910808 45.1566966,15.6862552 35.2936382,13.3877669 L34.9276893,14.9466331 C44.3043643,17.127575 50.728731,23.6551797 50.728731,30.9797727 C50.728731,36.3159238 47.3298868,41.2845983 41.6651893,44.4426215 L41.8585299,46.1562552 Z M6.94781431,13.8600634 C6.91272348,13.8275872 6.955334,13.8975356 6.96786639,14.204811 C6.99543817,14.8418453 6.59940856,15.2790378 6.21339472,15.4089273 C6.28859164,15.3839452 6.86006639,15.4164214 7.57443389,15.5738058 C7.81505889,15.6262681 8.05568389,15.6862233 8.29380639,15.7561756 C7.95041206,15.0566523 7.50673806,14.4196756 6.94778222,13.8600826 L6.94781431,13.8600634 Z M28.2705702,47.7682029 C26.7213501,47.7682029 25.1948893,47.6507907 23.7035276,47.4184541 L21.853731,47.1311622 L21.853731,49.3670401 C21.853731,50.2488948 21.1343585,50.9658773 20.2495643,50.9658773 C19.3647701,50.9658773 18.6453976,50.2488948 18.6453976,49.3670401 L18.6453976,46.1693657 L17.6427935,45.7646616 C13.7326051,44.1832837 10.5241435,41.7650744 8.43872681,38.8474523 L7.95998572,38.1754291 L4.20771156,38.1754291 C3.32291739,38.1754291 2.60354489,37.4584465 2.60354489,36.5765919 L2.60354489,33.3789174 C2.60354489,32.4970628 3.32291739,31.7800802 4.20771156,31.7800802 L5.67905322,31.7800802 L5.85200164,30.3761093 C5.93471889,29.7090744 6.13523972,28.9021733 6.44103239,27.9903244 C6.68416631,27.2608709 6.98995897,26.4814058 7.34084156,25.6745047 C7.68924731,24.8725919 8.06521906,24.0881384 8.44117156,23.3561907 C8.66425339,22.919011 8.83720181,22.5992372 8.93244439,22.4318709 L9.07030006,22.18455 L9.11541757,21.9047535 C9.2206894,21.2477593 9.28335457,20.2459279 9.17056047,19.0718058 C9.05776831,17.8701837 8.77703914,16.7509977 8.29327381,15.7567128 C9.86234131,16.2113837 11.3060913,16.9883291 11.692118,17.5978698 L12.546818,18.9394221 L13.9003496,18.0950442 C16.1737746,16.67355 18.798063,15.5993872 21.6356413,14.9398349 L21.2721949,13.3834628 C18.2317857,14.0879744 15.4470807,15.2420791 13.0485949,16.7410209 C11.4269107,14.1928581 3.40626989,12.5940209 5.81251989,14.9922767 C8.21876989,17.3905326 7.53199406,21.6498349 7.53199406,21.6498349 C7.53199406,21.6498349 4.68459822,26.726143 4.26096989,30.1812302 L4.20833333,30.1812302 C2.4362425,30.1812302 1,31.6127012 1,33.3789047 L1,36.5765791 C1,38.3427826 2.4362425,39.7742535 4.20833333,39.7742535 L7.133435,39.7742535 C9.39928833,42.9494163 12.8558183,45.5550733 17.04141,47.2465791 L17.04141,49.3675326 C17.04141,51.133736 18.4776525,52.565207 20.2497433,52.565207 C21.5906983,52.565207 22.7387042,51.7458349 23.2199542,50.5816256 L23.4580702,49.0002477 L25.0622369,49.2050971 C26.1124527,49.3125198 27.1827527,49.3674814 28.2705702,49.3674814 L28.2705702,47.7682029 Z M52.3330702,30.9808535 C52.3330702,22.6918419 45.1566702,15.6870163 35.2936119,13.3885279 L34.927663,14.9473942 C44.304338,17.128336 50.7287047,23.6559407 50.7287047,30.9805337 L52.3330702,30.9808535 Z" id="Shape" stroke="#0F0E9F" stroke-width="0.7" fill="#0F0E9F" fill-rule="nonzero" stroke-linejoin="round"></path>
    </g>
</svg>