<?xml version="1.0" encoding="UTF-8"?>
<svg width="60px" height="60px" viewBox="0 0 60 60" version="1.1" xmlns="http://www.w3.org/2000/svg" xmlns:xlink="http://www.w3.org/1999/xlink">
    <!-- Generator: Sketch 55.2 (78181) - https://sketchapp.com -->
    <title>icon/icon-24service</title>
    <desc>Created with Sketch.</desc>
    <g id="icon/icon-24service" stroke="none" stroke-width="1" fill="none" fill-rule="evenodd">
        <path d="M5.00538861,26.5540963 C4.60427482,52.5929652 26.7085754,56.6037004 33.8372735,55.9333638 C37.2300042,54.7373122 38.5488619,51.7078871 37.7938465,46.8450885 L30.4046833,45.6675774 C27.9988146,49.7223308 25.5294514,50.533871 22.9965938,48.1021983 C19.1973075,44.4546891 13.8988812,42.0841132 11.3340729,34.6433165 C10.8304834,33.7998469 11.5192555,32.9285314 13.4003889,32.0293699 L15.2392851,30.085455 L13.4003889,22.6336792 C9.06323158,21.0787098 6.26489813,22.3855155 5.00538861,26.5540963 Z" id="Path-5" fill="#CACAFC"></path>
        <path d="M31.931375,2.28991875 C22.419125,2.28991875 13.67,7.52963125 9.1875,15.919125 C9.0075675,16.2548175 8.96728687,16.6495937 9.07739,17.0148625 C9.1875,17.3774087 9.437255,17.6835662 9.77293375,17.8635125 C10.1086262,18.043445 10.5034025,18.0837256 10.8686712,17.9709344 C11.2312175,17.8608244 11.537375,17.6110694 11.7173212,17.2727094 C15.4771212,10.2368344 22.5990712,5.69795937 30.4943213,5.20364687 L30.4943213,8.02081562 L30.4916352,8.02350169 C30.4835784,8.40753231 30.6312802,8.78085169 30.8998383,9.05475169 C31.1710777,9.33136044 31.5390002,9.48712731 31.9257258,9.48712731 C32.3097564,9.48712731 32.6803946,9.33136731 32.9489321,9.05475169 C33.2174833,8.78082419 33.3651927,8.40753231 33.3571352,8.02350169 L33.3571352,5.23053294 C44.8865102,5.93948294 54.0598227,15.1133454 54.7693227,26.6427204 L51.9763539,26.6427204 C51.9306998,26.6400351 51.8850471,26.6400351 51.8393902,26.6427204 C51.0632714,26.6991167 50.4724339,27.3624642 50.5100402,28.1412642 C50.5476375,28.9200642 51.1975402,29.5269892 51.9763402,29.5082204 L54.7935089,29.5082204 C54.2993683,37.4007204 49.7608027,44.5259704 42.7244464,48.2852204 L42.7271318,48.2825344 C42.3914393,48.4624669 42.1389962,48.7686175 42.0289068,49.1311844 C41.9187968,49.4964187 41.9590843,49.8885344 42.1390168,50.2241719 C42.3189493,50.5598644 42.6224118,50.8096194 42.9876668,50.9197156 C43.3529218,51.0298119 43.7450168,50.9922262 44.0806543,50.8122937 C52.4702168,46.3301375 57.7096543,37.5806687 57.7096543,28.0684187 C57.7096543,13.8454187 46.1534668,2.28991875 31.9311543,2.28991875 L31.931375,2.28991875 Z M34.7753563,19.4508125 C34.3940069,19.4534986 34.0288,19.6092606 33.762875,19.8858694 C33.497005,20.1597969 33.3493025,20.5277125 33.35736,20.9117569 L33.35736,28.0713819 L33.35736,28.0686965 C33.35736,28.4527271 33.5077506,28.817934 33.77899,29.0892215 C34.0475412,29.3577727 34.4154638,29.5081702 34.799515,29.5081702 L40.51704,29.5081702 L40.51704,33.7996827 C40.5089839,34.1837134 40.6540038,34.5570327 40.9252431,34.8309327 C41.1938013,35.1075415 41.5617169,35.2633084 41.9484494,35.2633084 C42.3351819,35.2633084 42.7031181,35.1075484 42.9716556,34.8309327 C43.242895,34.5570052 43.3906044,34.1837134 43.3798587,33.7996827 L43.3798587,28.1976577 C43.3879156,28.1197777 43.3879156,28.0418977 43.3798587,27.9640177 L43.3798587,20.9116427 C43.3879156,20.5222359 43.2375256,20.1489302 42.9662862,19.8750302 C42.6950469,19.5984215 42.321755,19.4453427 41.9350362,19.4505755 C41.5510056,19.4533982 41.18848,19.6091602 40.9198737,19.885769 C40.6540037,20.1596965 40.5089825,20.5276121 40.51704,20.9116565 L40.51704,26.6425877 L36.2255275,26.6425877 L36.2255275,20.9116565 C36.2335843,20.5222496 36.0831944,20.148944 35.8092669,19.8723627 C35.5353394,19.5984352 35.1647356,19.4453634 34.7753356,19.4505755 L34.7753563,19.4508125 Z M21.8957312,19.4722969 C21.5117006,19.4642407 21.1383812,19.6119487 20.8644812,19.8805 C20.5878725,20.1490581 20.4321056,20.5196619 20.4321056,20.9037062 C20.4321056,21.290425 20.5878656,21.658375 20.8644812,21.9295937 C21.1384087,22.198145 21.5117006,22.3458544 21.8957312,22.3377969 L25.4836562,22.3377969 C26.6975062,22.3377969 27.6294125,23.2697031 27.6294125,24.4835531 C27.6294125,25.6974031 26.6975062,26.6427156 25.4836562,26.6427156 L24.7639125,26.6427156 C22.408675,26.6427156 20.4697187,28.5789906 20.4697187,30.9342281 L20.4697187,33.7997281 L20.4697187,33.7970427 C20.4724041,34.5838865 21.1088806,35.220374 21.8957312,35.2257365 L29.0663562,35.2257365 C29.8451562,35.2069375 30.4682375,34.5704665 30.4682375,33.7916802 C30.4682375,33.0128802 29.8451906,32.3763927 29.0663562,32.3603052 L23.3381062,32.3603052 L23.3381062,30.9342927 C23.3381062,30.1152052 23.9477262,29.5082802 24.7641187,29.5082802 L25.4838625,29.5055942 C28.2365437,29.5055942 30.4951187,27.2336129 30.4951187,24.4809317 C30.4951187,21.7282504 28.2365437,19.4696754 25.4838625,19.4696754 L21.8957312,19.4722969 Z M10.4474812,20.8983094 C6.5077625,20.8983094 3.29060625,24.1182844 3.29060625,28.0579344 L3.29060625,28.0686766 C3.29060625,28.3103741 3.29329162,28.5520716 3.32014744,28.7991453 L3.32014744,28.6595003 C3.46248056,35.7146253 6.28767244,42.4122503 11.0923349,47.5657503 L11.0923349,47.5630649 L11.0923349,47.5738064 C11.1648456,47.7403121 11.2642099,47.8907027 11.3904281,48.0196089 C16.6379781,53.4094714 23.7867406,56.5191714 31.3093656,56.6779839 C31.5161518,56.6940976 31.7283143,56.7102105 31.9324124,56.7102105 C35.8721312,56.7102105 39.0920374,53.4795105 39.0920374,49.5395855 C39.0893521,48.1511792 38.6865224,46.8003105 37.9291999,45.6401542 L37.9265139,45.6401542 C37.7063007,45.3017736 37.3544932,45.073503 36.9570014,45.0063686 L29.9341889,43.8945436 L29.9341889,43.897229 C29.4803289,43.8247184 29.0211201,43.975109 28.6988201,44.3000627 L25.9917889,47.0044127 C22.9168076,46.045694 20.0433326,44.5149065 17.7555389,42.2375627 C15.4781951,39.9521752 13.9393639,37.0705877 12.9752826,34.0013127 L15.6930389,31.2835565 C16.0179926,30.9586027 16.1656951,30.499394 16.0958726,30.0481877 L14.9974539,23.0466877 C14.9330007,22.6492302 14.702042,22.2947002 14.3609801,22.074494 C13.1981426,21.3144627 11.8365489,20.9009315 10.4481426,20.9009315 L10.4474812,20.8983094 Z M10.4474812,23.7638094 C11.10007,23.7638094 11.7043,24.0296794 12.2870937,24.3143456 L13.1545125,29.7794206 L10.2138687,32.7200644 C9.85400375,33.0826106 9.71167062,33.6116831 9.84594625,34.1057894 C10.8906025,37.9460956 12.912815,41.4482894 15.7246212,44.2649769 L15.7219359,44.2649769 L15.7353641,44.2649769 C18.5552141,47.0713519 22.0464079,49.0989269 25.8842391,50.1436519 C26.3810679,50.2806156 26.9154891,50.1382804 27.2806891,49.7730481 L30.2106079,46.8324044 L35.6756829,47.7105481 C35.9603491,48.2933144 36.2262191,48.8975856 36.2262191,49.5501606 C36.2208477,51.9376419 34.3195066,53.8416731 31.9320254,53.8416731 C31.7870041,53.8416731 31.6500404,53.8363024 31.5103954,53.8201887 L31.5103954,53.8228741 C31.470112,53.8175034 31.4298272,53.8121319 31.3922279,53.8121319 C24.6165716,53.6751682 18.1688529,50.8741694 13.4422904,46.0186319 C8.90637162,41.3377194 6.32047787,35.1203819 6.18847787,28.6056319 L6.18579181,28.6029459 C6.18579181,28.5572917 6.18042106,28.511639 6.17505031,28.4659821 C6.15893669,28.3317065 6.14550912,28.1947427 6.14550912,28.0550909 C6.14550912,25.6649284 8.05758412,23.7608971 10.4477466,23.7608971 L10.4474812,23.7638094 Z" id="Shape" fill="#0F0E9F"></path>
    </g>
</svg>