<svg height="40" viewBox="0 0 70 40" width="70" xmlns="http://www.w3.org/2000/svg"><path d="m13.3135962 10.0985192 2.5738269-3.55553651-1.7159019-2.51297307h-3.0646558c-1.22507309 0-1.22507309-1.83963462 0-1.83963462h6.7437692c1.2250731 0 1.2250731 1.83963462 0 1.83963462h-1.4704615l.857925 1.22507307h12.0155192l-.7362692-2.943h-1.8396346c-1.2250731 0-1.2250731-1.90048846 0-1.90048846h5.823173c1.2250731 0 1.2250731 1.90048846 0 1.90048846h-2.085023l.857925 3.55553654 2.085023 3.74007115c5.8231731-2.45217115 12.2605962 1.90048842 12.2605962 8.15348082 0 7.6628076-9.5024423 11.769923-15.0800192 6.1923461-3.800925-3.8617788-3.2492423-10.2994615 1.225073-13.4247115l-1.4096077-2.57382695-6.9265384 10.78805765c-.3062631.6125366-1.2879519.6125366-1.5941942-.0608486l-5.0259981-10.23663463-2.0221443 2.75841343c6.0687693 5.456077 2.0221443 15.3256154-5.88599995 15.3256154-4.90429039 0-8.82692308-3.9226327-8.82692308-8.7661731 0-6.7437692 7.35646154-11.03365381 13.24038463-7.6628077zm24.2761153 7.1716154c.6125366 1.1033654-1.0425115 1.9612904-1.5941942.9187789l-3.37095-6.0687693c-3.37095 2.5129731-3.7400711 7.5407885-.7362692 10.5450577 4.3526077 4.3526077 11.8935 1.2250731 11.8935-4.9042904 0-4.9042903-4.9651443-8.27549996-9.5024423-6.4986923zm-8.88975-10.1758846h-10.4822307l4.5371942 9.3175962 5.94675-9.3175962zm-19.06563458 11.1572308c-.73626923.9816577-2.20673077-.0608487-1.47046154-1.0425116l4.04636542-5.5775769c-4.59804811-2.51297307-10.29946157.7971231-10.29946157 6.1295192 0 3.800925 3.12550962 6.9265385 6.98936539 6.9265385 6.19234618 0 9.31759618-7.5407885 4.78055768-11.95425l-4.04636538 5.5168269z" fill="#e9483f" transform="translate(12 6)"/></svg>