<?xml version="1.0" encoding="UTF-8"?>
<svg width="24px" height="24px" viewBox="0 0 24 24" version="1.1" xmlns="http://www.w3.org/2000/svg" xmlns:xlink="http://www.w3.org/1999/xlink">
    <!-- Generator: Sketch 55.2 (78181) - https://sketchapp.com -->
    <title>icon/icon-insurer</title>
    <desc>Created with Sketch.</desc>
    <g id="icon/icon-insurer" stroke="none" stroke-width="1" fill="none" fill-rule="evenodd">
        <path d="M9.20931813,10.8336901 C9.4880844,11.1183241 9.4880844,11.5460458 9.20931813,11.8306799 C8.93055186,12.1153139 8.51164766,12.1153139 8.2328814,11.9018374 C7.11630673,10.8329234 6.41863626,9.2658848 6.41863626,7.69888626 C6.41863626,4.56408845 8.93045384,2 12.0000392,2 C15.0702127,2 17.5814422,4.56468898 17.5814422,7.69888626 C17.5814422,9.62248307 16.6050054,11.4740556 14.9998301,12.4719462 C18.6275754,13.8254943 21,17.3873332 21,21.3056303 C21,22.2314566 19.6046591,22.2314566 19.6046591,21.3056303 C19.6046591,17.1026791 16.2556997,13.3267091 12,13.3985732 C7.88369327,13.1851027 4.39534093,17.1737426 4.39534093,21.3056303 C4.39534093,22.2314566 3,22.2314566 3,21.3056303 C3,16.2479163 7.04670829,11.973101 12.0697553,11.973101 C14.3717973,11.973101 16.186062,10.0495042 16.186062,7.69888626 C16.186062,5.34826833 14.3021204,3.42467152 11.9999608,3.42467152 C9.69780117,3.42467152 7.81385957,5.34826833 7.81385957,7.69888626 C7.81385957,8.91012729 8.30246023,10.0493841 9.2092005,10.8336841 L9.20931813,10.8336901 Z" id="Path" fill="#484848"></path>
    </g>
</svg>