<?xml version="1.0" encoding="UTF-8"?>
<svg width="18px" height="18px" viewBox="0 0 18 18" version="1.1" xmlns="http://www.w3.org/2000/svg" xmlns:xlink="http://www.w3.org/1999/xlink">
    <!-- Generator: Sketch 55.2 (78181) - https://sketchapp.com -->
    <title>icon/icon-close-circle</title>
    <desc>Created with Sketch.</desc>
    <g id="icon/icon-close-circle" stroke="none" stroke-width="1" fill="none" fill-rule="evenodd">
        <g id="X">
            <circle id="Oval" fill="#484848" cx="9" cy="9" r="9"></circle>
            <path d="M14.1374972,5.13750208 C14.3126971,4.96113218 14.4005821,4.74903229 14.4,4.50000242 C14.400583,4.25097256 14.3126926,4.03887267 14.1374972,3.86250277 C13.9611273,3.68730286 13.7490274,3.59941791 13.4999976,3.6 C13.2509677,3.59941701 13.0388678,3.68730736 12.8624979,3.86250277 L9,7.72500069 L5.13750208,3.86250277 C4.96113218,3.68730286 4.74903229,3.59941791 4.50000242,3.6 C4.25097256,3.59941701 4.03887267,3.68730736 3.86250277,3.86250277 C3.68730286,4.03887267 3.59941791,4.25097256 3.6,4.50000242 C3.59941701,4.74903229 3.68730736,4.96113218 3.86250277,5.13750208 L7.72500069,9 L3.86250277,12.8624979 C3.68730286,13.0388678 3.59941791,13.2509677 3.6,13.4999976 C3.59941701,13.7490274 3.68730736,13.9611273 3.86250277,14.1374972 C4.03887267,14.3126971 4.25097256,14.4005821 4.50000242,14.4 C4.74903229,14.400583 4.96113218,14.3126926 5.13750208,14.1374972 L9,10.2749993 L12.8624979,14.1374972 C13.0388678,14.3126971 13.2509677,14.4005821 13.4999976,14.4 C13.7490274,14.400583 13.9611273,14.3126926 14.1374972,14.1374972 C14.3126971,13.9611273 14.4005821,13.7490274 14.4,13.4999976 C14.400583,13.2509677 14.3126926,13.0388678 14.1374972,12.8624979 L10.2749993,9 L14.1374972,5.13750208 Z" id="Path" fill="#FFFFFF" fill-rule="nonzero"></path>
        </g>
    </g>
</svg>