<?xml version="1.0" encoding="UTF-8"?>
<svg width="60px" height="40px" viewBox="0 0 60 40" version="1.1" xmlns="http://www.w3.org/2000/svg" xmlns:xlink="http://www.w3.org/1999/xlink">
    <!-- Generator: Sketch 55.2 (78181) - https://sketchapp.com -->
    <title>icon/icon-plane-active</title>
    <desc>Created with Sketch.</desc>
    <g id="icon/icon-plane-active" stroke="none" stroke-width="1" fill="none" fill-rule="evenodd">
        <polygon id="Path-5" fill="#CACAFC" points="44.3026726 4 40.8040105 4.9958029 33.0781852 12.1564634 28.7892716 10.3659309 28.7892716 8.07823168 26.6505679 8.71042423 25.2377369 9.47139936 22.4309707 8.71042423 22.4309707 6.78633538 20.9865528 6.59797517 19.6393708 7.75294897 16.1323737 7.68086689 13.9117959 10.0393442 28.7892716 16.3534864 24.1877054 21.1192646 21.5026414 24.4458832 14.9882268 22.4196249 13 24.4458832 18.8175774 28.7711907 18.8175774 30.129593 21.5026414 31.3538558 25.2377369 36.7688589 27.3170711 34.7809994 25.2377369 27.7724044 28.7892716 25.5814159 33.0781852 21.1192646 39.7298821 35.4735477 42.0882544 33.1605708 42.0162773 30.129593 42.9827859 28.2664799 42.9827859 26.9077879 40.8040105 26.9077879 39.7298821 24.0554345 42.0162773 22.4196249 41.2962408 21.5538462 40.2977219 21.1192646 39.4031904 21.1192646 37.612658 16.8181911 44.3026726 9.47139936 46.0192935 6.10671163 45.3337071 4.9958029"></polygon>
        <path d="M34.1960159,0.717310167 C33.8644065,-0.0617640518 33.2112815,-0.653510146 32.3746135,-0.913646864 C31.1505979,-1.2332328 29.8608244,-0.643416396 29.3001018,0.486267198 C28.3843166,2.32607579 27.9059026,4.38609142 27.917258,6.43853673 L27.917258,26.2413609 C27.917258,26.2812164 27.9210432,26.3210719 27.9286877,26.3610016 L29.6323791,35.1884313 C29.7760666,36.2219274 30.6709221,36.9997399 31.7126565,36.9997399 C31.7133244,36.9997399 31.7145862,36.9997399 31.7158479,36.9997399 C32.758844,36.9997399 33.6531057,36.2213336 33.7910784,35.2213844 L35.4998166,26.3610758 C35.5080549,26.3218141 35.5118401,26.2813649 35.5118401,26.2414352 L35.5118401,6.43727501 C35.5073869,4.45704454 35.0478987,2.46916954 34.1960159,0.717310167 Z M34.2460393,26.179982 L32.5436096,35.0137203 C32.4866838,35.4244469 32.1303596,35.7339391 31.7139182,35.7339391 C31.2981448,35.7339391 30.9424143,35.4244469 30.8810354,34.9814352 L29.1836526,26.1805758 L29.1836526,6.43541954 C29.1735588,4.57668517 29.6058088,2.71409142 30.4342385,1.04958751 C30.7304455,0.453388292 31.413926,0.142634386 32.0265276,0.302798448 C32.4790393,0.443962511 32.8461252,0.775571886 33.0442151,1.24070079 C33.8264807,2.8513961 34.2415862,4.64875157 34.2460393,6.43853673 L34.2460393,26.179982 L34.2460393,26.179982 Z" id="Shape" stroke="#0F0E9F" stroke-width="0.4" fill="#0F0E9F" transform="translate(31.714450, 17.999870) rotate(-315.000000) translate(-31.714450, -17.999870) "></path>
        <path d="M30.8971051,4.96449706 C30.7053239,4.84997753 30.4667106,4.84552441 30.2718121,4.95180566 L15.0827223,13.1793252 C14.8783239,13.2900596 14.7511129,13.5033643 14.7511129,13.7355947 L14.7511129,17.5328486 C14.7511129,17.7404385 14.8523473,17.9340752 15.0232731,18.0530478 C15.1308903,18.1271182 15.2568395,18.1657119 15.3840504,18.1657119 C15.4587145,18.1657119 15.5340465,18.1530205 15.6061871,18.1258564 L30.795277,12.4299385 C31.0421286,12.3369424 31.2060036,12.1008525 31.2060036,11.8369307 L31.2060036,5.50814941 C31.2060036,5.28541894 31.0888864,5.07909081 30.8971051,4.96449706 Z M29.9402028,11.3983721 L16.0168395,16.6196611 L16.0168395,14.1128486 L29.9402028,6.57148144 L29.9402028,11.3983721 Z" id="Shape" stroke="#0F0E9F" stroke-width="0.4" fill="#0F0E9F" transform="translate(22.978558, 11.520469) rotate(-315.000000) translate(-22.978558, -11.520469) "></path>
        <path d="M46.0897257,28.39447 L30.9006359,20.1670247 C30.7044757,20.0613372 30.4671242,20.0651223 30.2753429,20.1797161 C30.0842296,20.2936418 29.9665187,20.49997 29.9665187,20.7233684 L29.9665187,27.0521497 C29.9665187,27.3160715 30.1297999,27.5527551 30.3766515,27.6451575 L45.5657413,33.3410754 C45.6385499,33.3676457 45.7138077,33.3809309 45.788546,33.3809309 C45.915757,33.3809309 46.0417062,33.3429309 46.1479874,33.2682668 C46.318839,33.1498879 46.4207413,32.9556575 46.4207413,32.7480676 L46.4207413,28.9508137 C46.4207413,28.718509 46.2935304,28.5052043 46.0897257,28.39447 Z M45.1556085,31.8348059 L31.2322452,26.6135168 L31.2322452,21.785884 L45.1556085,29.3279192 L45.1556085,31.8348059 Z" id="Shape" stroke="#0F0E9F" stroke-width="0.4" fill="#0F0E9F" transform="translate(38.193630, 26.735790) rotate(-315.000000) translate(-38.193630, -26.735790) "></path>
        <path d="M27.2294072,8.05593684 C26.1826259,8.05593684 25.3307431,8.90781965 25.3307431,9.9546009 L25.3307431,11.853265 L26.5964697,11.853265 L26.5964697,9.9546009 C26.5964697,9.605847 26.8806533,9.32173762 27.229333,9.32173762 C27.5780127,9.32173762 27.8621963,9.60592122 27.8621963,9.9546009 L27.8621963,10.5874642 L29.1279228,10.5874642 L29.1279228,9.9546009 C29.1280713,8.90774543 28.2761884,8.05593684 27.2294072,8.05593684 Z" id="Path" stroke="#0F0E9F" stroke-width="0.4" fill="#0F0E9F" transform="translate(27.229333, 9.954601) rotate(-315.000000) translate(-27.229333, -9.954601) "></path>
        <path d="M20.9646952,6.26540436 C19.917914,6.26540436 19.0660312,7.11728718 19.0660312,8.16406843 L19.0660312,10.0627325 L20.3317577,10.0627325 L20.3317577,8.16406843 C20.3317577,7.81538874 20.6159413,7.53179889 20.964621,7.53179889 C21.3133007,7.53179889 21.5974843,7.81531452 21.5974843,8.16406843 L22.8632109,8.16406843 C22.8633593,7.11728718 22.0114765,6.26540436 20.9646952,6.26540436 Z" id="Path" stroke="#0F0E9F" stroke-width="0.4" fill="#0F0E9F" transform="translate(20.964621, 8.164068) rotate(-315.000000) translate(-20.964621, -8.164068) "></path>
        <path d="M39.7597758,20.5863054 C38.7129945,20.5863054 37.8611117,21.4381882 37.8611117,22.4849695 L37.8611117,23.1178328 L39.1268383,23.1178328 L39.1268383,22.4849695 C39.1268383,22.1362156 39.4103539,21.8521062 39.7597016,21.8521062 C40.1090492,21.8521062 40.3925648,22.1362898 40.3925648,22.4849695 L40.3925648,24.3836335 L41.6582914,24.3836335 L41.6582914,22.4849695 C41.6584398,21.438114 40.806557,20.5863054 39.7597758,20.5863054 Z" id="Path" stroke="#0F0E9F" stroke-width="0.4" fill="#0F0E9F" transform="translate(39.759702, 22.484969) rotate(-315.000000) translate(-39.759702, -22.484969) "></path>
        <path d="M41.5503082,26.8510174 C40.503527,26.8510174 39.6516442,27.7029002 39.6516442,28.7496814 L40.9173707,28.7496814 C40.9173707,28.4010018 41.2008864,28.1174119 41.550234,28.1174119 C41.8995817,28.1174119 42.1830973,28.4009275 42.1830973,28.7496814 L42.1830973,30.6483455 L43.4488239,30.6483455 L43.4488239,28.7496814 C43.4489723,27.7029002 42.5970895,26.8510174 41.5503082,26.8510174 Z" id="Path" stroke="#0F0E9F" stroke-width="0.4" fill="#0F0E9F" transform="translate(41.550234, 28.749681) rotate(-315.000000) translate(-41.550234, -28.749681) "></path>
        <path d="M21.1223516,26.2437725 L14.2651328,27.3867413 L14.2651328,25.9608507 L20.2870195,22.3477335 L19.63575,21.2623585 L13.3069687,25.0596124 C13.1164492,25.1735382 13,25.3791983 13,25.602003 L13,28.1335304 C13,28.3195968 13.0823086,28.4968311 13.2240664,28.6163975 C13.3392539,28.7138468 13.4842031,28.7663936 13.6329375,28.7663936 C13.6670781,28.7663936 13.7018867,28.7632022 13.7361016,28.7581554 L21.3306836,27.4924288 L21.1223516,26.2437725 Z" id="Path" stroke="#0F0E9F" stroke-width="0.4" fill="#0F0E9F" transform="translate(17.165342, 25.014376) rotate(-315.000000) translate(-17.165342, -25.014376) "></path>
        <path d="M28.5579782,32.5939717 L22.2291969,28.7967178 L21.5780016,29.8820928 L27.5998883,33.49521 L27.5998883,34.9204326 L20.7420016,33.7774639 L20.5344118,35.0261201 L28.1289938,36.2918467 C28.1638024,36.2975615 28.197943,36.3006787 28.2327516,36.3006787 C28.381486,36.3006787 28.5264352,36.2481318 28.6409547,36.1506826 C28.7833805,36.0304483 28.8650212,35.8538818 28.8650212,35.6678154 L28.8650212,33.1362881 C28.8650212,32.9142256 28.7484977,32.7085654 28.5579782,32.5939717 Z" id="Path" stroke="#0F0E9F" stroke-width="0.4" fill="#0F0E9F" transform="translate(24.699716, 32.548698) rotate(-315.000000) translate(-24.699716, -32.548698) "></path>
    </g>
</svg>