<?xml version="1.0" encoding="UTF-8"?>
<svg width="20px" height="20px" viewBox="0 0 20 20" version="1.1" xmlns="http://www.w3.org/2000/svg" xmlns:xlink="http://www.w3.org/1999/xlink">
    <!-- Generator: Sketch 54.1 (76490) - https://sketchapp.com -->
    <title>icon-popup-close</title>
    <desc>Created with Sketch.</desc>
    <g id="Styleguide" stroke="none" stroke-width="1" fill="none" fill-rule="evenodd">
        <g id="Artboard" transform="translate(-183.000000, -171.000000)" fill="#C4C2C2" fill-rule="nonzero">
            <path d="M194.558259,181.007078 L202.683916,172.87913 C203.105361,172.457565 203.105361,171.768815 202.683916,171.324689 C202.26247,170.880563 201.573914,170.903125 201.129913,171.324689 L193.004257,179.452637 L184.8786,171.324689 C184.457154,170.903125 183.768598,170.903125 183.324597,171.324689 C182.880597,171.746253 182.903152,172.435004 183.324597,172.87913 L191.450254,181.007078 L183.324597,189.135026 C182.903152,189.556591 182.903152,190.245341 183.324597,190.689467 C183.546598,190.91153 183.812821,191 184.101599,191 C184.390377,191 184.6566,190.888969 184.8786,190.689467 L193.004257,182.561519 L201.129913,190.689467 C201.351914,190.91153 201.618137,191 201.906915,191 C202.195693,191 202.461916,190.888969 202.683916,190.689467 C203.105361,190.267903 203.105361,189.579152 202.683916,189.135026 L194.558259,181.007078 Z" id="Path"></path>
        </g>
    </g>
</svg>