<?xml version="1.0" encoding="UTF-8"?>
<svg width="70px" height="40px" viewBox="0 0 70 40" version="1.1" xmlns="http://www.w3.org/2000/svg" xmlns:xlink="http://www.w3.org/1999/xlink">
    <!-- Generator: Sketch 55.2 (78181) - https://sketchapp.com -->
    <title>icon/icon-health-insurance</title>
    <desc>Created with Sketch.</desc>
    <g id="icon/icon-health-insurance" stroke="none" stroke-width="1" fill="none" fill-rule="evenodd">
        <g id="np_health_2530407_000000" transform="translate(16.000000, 4.000000)" fill="#E9483F" fill-rule="nonzero">
            <path d="M21.1237591,2.92990494 C27.1599246,-3.74213329 38,1.92272652 38,11.6181448 C38,18.165664 26.1746124,26.5998347 21.1237591,30 C18.0440225,27.8594891 12.2547184,23.8306496 8.4361207,19.4234317 C7.20390612,18.1640289 8.68288358,17.0307383 9.91511457,18.4162532 C13.2416304,22.4450508 18.5376221,26.0953441 21.1251948,27.7333769 C23.9581521,25.9712024 29.6258715,21.8164185 33.1975258,17.6615926 C33.4442887,17.5354888 33.5676701,17.2832813 33.6910434,17.0327088 C35.1700372,15.1444222 36.2772624,13.2561356 36.2772624,11.6184382 C36.2772624,2.93019842 25.9290227,-2.23000307 21.1251128,6.20416767 C16.3212029,-2.35787612 6.09643486,3.0564783 6.09643486,11.6184382 C6.09643486,12.3734342 6.34319774,13.2545005 6.71174225,14.1372438 L12.6244361,14.1372438 L14.5953477,10.7373301 C14.965492,9.98233405 16.0743415,10.1084462 16.1960904,10.8634338 L18.5371299,19.1730856 L22.3555635,5.70113607 C22.6023263,4.82002789 23.8345573,4.82002789 24.0796958,5.70113607 L27.5296013,16.6541962 L28.8852055,14.5136852 C29.1319684,14.2614777 29.378723,14.1353739 29.6239025,14.1353739 L32.8270287,14.1353739 C33.9358537,14.1353739 33.9358537,15.8975483 32.8270287,15.8975483 L30.1174201,15.8975483 L28.0231188,19.1713499 C27.6529745,19.8002337 26.6675146,19.6757566 26.4223761,18.9191423 L23.3426396,9.09933083 L19.4008164,22.6974764 C19.2774349,23.5785846 17.9218225,23.7046548 17.676684,22.6974764 L15.090465,13.3803527 L13.8582504,15.3947515 C13.734869,15.7730629 13.4881061,15.8991583 13.1195534,15.8991583 L0.924160935,15.8991583 C-0.308053645,15.8991583 -0.308053645,14.1369838 0.924160935,14.1369838 L4.86598416,14.1369838 C4.49583985,13.2558757 4.37246661,12.3748094 4.37246661,11.6181783 C4.37246661,2.04908186 14.9655986,-3.86829577 21.1252358,2.92993848 L21.1237591,2.92990494 Z" id="Path"></path>
        </g>
    </g>
</svg>