<?xml version="1.0" encoding="UTF-8"?>
<svg width="60px" height="40px" viewBox="0 0 60 40" version="1.1" xmlns="http://www.w3.org/2000/svg" xmlns:xlink="http://www.w3.org/1999/xlink">
    <!-- Generator: Sketch 55.2 (78181) - https://sketchapp.com -->
    <title>icon/icon-annualtrip-active</title>
    <desc>Created with Sketch.</desc>
    <g id="icon/icon-annualtrip-active" stroke="none" stroke-width="1" fill="none" fill-rule="evenodd">
        <polygon id="Path-9" fill="#CACAFC" points="12.7126116 28.5263667 11.2416086 28.1380814 10.5928243 27.2589362 10.5928243 26.5710664 6.66200335 23.0816054 7.56965276 21.8189362 13.3580583 23.457654 14.832399 20.2118839 18.0121422 17.2658815 7.21119354 11.4126978 8.91250792 9.12633495 11.2416086 10.1547796 12.7126116 8.9299848 13.6524207 9.62486378 13.3580583 10.867623 16.398024 11.911393 17.6584369 10.5979055 18.6981447 11.124145 18.363109 12.5248553 21.9106074 13.6881452 27.0603125 8.5342495 30.4474846 7 31.6127859 7.66716827 32.0371555 9.12633495 30.4474846 12.2745669 25.4310458 17.2658815 26.3144608 20.68269 27.9347832 20.4989361 28.5759562 21.4607541 27.3024513 23.0477985 27.9347832 25.8692764 29.563591 24.6926092 30.0365744 26.8288586 28.5759562 28.1380814 29.2230672 30.2701326 27.3024513 32.401086 21.9106074 21.0360251 18.363109 24.4454545 15.6613712 26.0715645 17.3516682 31.7229654 15.8155656 32.8356051"></polygon>
        <polygon id="Path-9" fill="#CACAFC" points="37.640561 30.9539637 36.6236275 30.6863754 36.1751102 30.080509 36.1751102 29.6064609 34.0799057 27.6391453 34.6409435 26.6441763 38.086771 27.4608405 39.5267332 25.9076432 41.651081 23.4769286 34.2283626 19.9264595 35.764989 18.2997563 37.2638687 18.7705623 38.086771 18.0639804 38.9511746 18.0639804 38.7176915 18.9611545 40.1883594 19.5036895 41.430228 18.9611545 41.7784783 18.9611545 42.1997093 20.1837539 43.9993172 20.7281452 48.136685 17.8560004 50.7066248 16.5787654 51 17.5843559 49.9010291 19.7539722 46.4330658 23.1937562 47.0437881 25.5484632 48.163949 25.4218285 48.6072045 26.0846691 47.7268054 27.178387 48.163949 29.1228195 49.3639676 28.885287 49.6169587 29.7841194 48.6072045 30.6863754 49.0545651 32.1556868 47.7268054 33.6242417 43.9993172 25.7919654 41.5468615 28.1415871 40.4964308 29.7841194 40.8476325 33.1569122 39.6790968 34.1189838"></polygon>
        <g id="Group-2" transform="translate(4.578947, 3.421053)" fill="#0F0E9F" stroke="#0F0E9F" stroke-linejoin="round" stroke-width="0.3">
            <path d="M18.7336967,0.355771184 C18.4718999,-0.259287409 17.9562749,-0.726455378 17.2957475,-0.931826472 C16.3294194,-1.18413116 15.3111772,-0.718486628 14.8685014,0.173368841 C14.1455131,1.62584931 13.7678178,3.25217743 13.7767827,4.872529 L13.7767827,20.5063376 C13.7767827,20.5378024 13.7797709,20.5692673 13.7858061,20.6007907 L15.1308256,27.5698142 C15.2442631,28.3857321 15.950728,28.9997946 16.7731499,28.9997946 C16.7736772,28.9997946 16.7746733,28.9997946 16.7756694,28.9997946 C17.5990874,28.9997946 18.3050834,28.3852634 18.4140092,27.5958298 L19.7630131,20.6008493 C19.769517,20.5698532 19.7725053,20.5379196 19.7725053,20.5063962 L19.7725053,4.8715329 C19.7689897,3.30819306 19.4062358,1.73881806 18.7336967,0.355771184 Z M18.7731889,20.4578806 L17.4291655,27.4318845 C17.3842241,27.7561423 17.1029155,28.0004782 16.7741459,28.0004782 C16.4459038,28.0004782 16.1650639,27.7561423 16.1166069,27.4063962 L14.7765678,20.4583493 L14.7765678,4.87006806 C14.7685991,3.40264618 15.1098491,1.93217743 15.7638725,0.618095403 C15.9977202,0.147411809 16.53731,-0.0979202218 17.0209428,0.0285250907 C17.3781889,0.139970403 17.6679936,0.401767278 17.8243803,0.768974309 C18.4419584,2.04057587 18.7696733,3.45954072 18.7731889,4.872529 L18.7731889,20.4578806 L18.7731889,20.4578806 Z" id="Shape" transform="translate(16.774566, 13.999897) rotate(-315.000000) translate(-16.774566, -13.999897) "></path>
            <path d="M16.1292935,3.70881347 C15.9778873,3.61840331 15.7895084,3.61488769 15.6356412,3.69879394 L3.64425445,10.1942041 C3.48288726,10.281626 3.38245758,10.4500244 3.38245758,10.6333643 L3.38245758,13.6311963 C3.38245758,13.795083 3.46237945,13.9479541 3.59732086,14.0418799 C3.68228179,14.1003564 3.78171539,14.1308252 3.88214508,14.1308252 C3.94109039,14.1308252 4.00056304,14.1208057 4.05751617,14.0993603 L16.0489029,9.602583 C16.2437857,9.52916503 16.3731607,9.34277831 16.3731607,9.13441894 L16.3731607,4.13801269 C16.3731607,3.96217285 16.2806998,3.79928222 16.1292935,3.70881347 Z M15.3738443,8.78818847 L4.38171539,12.9102588 L4.38171539,10.9311963 L15.3738443,4.97748535 L15.3738443,8.78818847 Z" id="Shape" transform="translate(9.877809, 8.884581) rotate(-315.000000) translate(-9.877809, -8.884581) "></path>
            <path d="M28.1234677,22.2061605 L16.132081,15.7108089 C15.9772177,15.6273714 15.7898349,15.6303597 15.6384286,15.7208285 C15.4875497,15.8107699 15.39462,15.9736605 15.39462,16.1500277 L15.39462,21.1464339 C15.39462,21.3547933 15.5235263,21.5416488 15.7184091,21.614598 L27.7097958,26.1113753 C27.7672763,26.1323519 27.8266903,26.1428402 27.8856942,26.1428402 C27.9861239,26.1428402 28.0855575,26.1128402 28.1694638,26.0538949 C28.3043466,25.9604378 28.3847958,25.807098 28.3847958,25.6432113 L28.3847958,22.6453793 C28.3847958,22.4619808 28.2843661,22.2935824 28.1234677,22.2061605 Z M27.3860067,24.9222152 L16.3938778,20.8001449 L16.3938778,16.9888558 L27.3860067,22.9430941 L27.3860067,24.9222152 Z" id="Shape" transform="translate(21.889708, 20.896676) rotate(-315.000000) translate(-21.889708, -20.896676) "></path>
            <path d="M13.2337425,6.14942382 C12.4073363,6.14942382 11.7347972,6.82196288 11.7347972,7.64836913 L11.7347972,9.14731445 L12.734055,9.14731445 L12.734055,7.64836913 C12.734055,7.3730371 12.9584105,7.14874023 13.2336839,7.14874023 C13.5089574,7.14874023 13.7333128,7.3730957 13.7333128,7.64836913 L13.7333128,8.14799804 L14.7325706,8.14799804 L14.7325706,7.64836913 C14.7326878,6.82190429 14.0601488,6.14942382 13.2337425,6.14942382 Z" id="Path" transform="translate(13.233684, 7.648369) rotate(-315.000000) translate(-13.233684, -7.648369) "></path>
            <path d="M8.28791728,4.73584555 C7.46151103,4.73584555 6.78897197,5.40838461 6.78897197,6.23479086 L6.78897197,7.73373618 L7.78822978,7.73373618 L7.78822978,6.23479086 C7.78822978,5.95951743 8.01258525,5.73563071 8.28785869,5.73563071 C8.56313213,5.73563071 8.7874876,5.95945883 8.7874876,6.23479086 L9.78674541,6.23479086 C9.7868626,5.40838461 9.11432353,4.73584555 8.28791728,4.73584555 Z" id="Path" transform="translate(8.287859, 6.234791) rotate(-315.000000) translate(-8.287859, -6.234791) "></path>
            <path d="M23.1261388,16.0418201 C22.2997325,16.0418201 21.6271935,16.7143591 21.6271935,17.5407654 L21.6271935,18.0403943 L22.6264513,18.0403943 L22.6264513,17.5407654 C22.6264513,17.2654333 22.8502794,17.0411365 23.1260802,17.0411365 C23.401881,17.0411365 23.6257091,17.2654919 23.6257091,17.5407654 L23.6257091,19.0397107 L24.6249669,19.0397107 L24.6249669,17.5407654 C24.6250841,16.7143005 23.952545,16.0418201 23.1261388,16.0418201 Z" id="Path" transform="translate(23.126080, 17.540765) rotate(-315.000000) translate(-23.126080, -17.540765) "></path>
            <path d="M24.539717,20.9876453 C23.7133108,20.9876453 23.0407717,21.6601844 23.0407717,22.4865906 L24.0400295,22.4865906 C24.0400295,22.2113172 24.2638577,21.9874305 24.5396584,21.9874305 C24.8154592,21.9874305 25.0392874,22.2112586 25.0392874,22.4865906 L25.0392874,23.9855359 L26.0385452,23.9855359 L26.0385452,22.4865906 C26.0386624,21.6601844 25.3661233,20.9876453 24.539717,20.9876453 Z" id="Path" transform="translate(24.539658, 22.486591) rotate(-315.000000) translate(-24.539658, -22.486591) "></path>
            <path d="M8.41238281,20.5082415 L2.99878906,21.4105852 L2.99878906,20.2848821 L7.75291016,17.4324212 L7.23875,16.5755462 L2.24234375,19.5733782 C2.09193359,19.6633196 2,19.8256829 2,20.0015813 L2,22.0001555 C2,22.1470501 2.06498047,22.286972 2.17689453,22.3813665 C2.26783203,22.4583001 2.38226563,22.4997845 2.4996875,22.4997845 C2.52664063,22.4997845 2.55412109,22.4972649 2.58113281,22.4932805 L8.57685547,21.4940227 L8.41238281,20.5082415 Z" id="Path" transform="translate(5.288428, 19.537665) rotate(-315.000000) translate(-5.288428, -19.537665) "></path>
            <path d="M14.2826144,25.5215566 L9.28620811,22.5237246 L8.77210655,23.3805996 L13.5262276,26.2330605 L13.5262276,27.3582363 L8.11210655,26.4558925 L7.94821983,27.4416738 L13.9439425,28.4409316 C13.971423,28.4454433 13.9983761,28.4479043 14.0258565,28.4479043 C14.1432784,28.4479043 14.257712,28.4064199 14.3481222,28.3294863 C14.4605636,28.2345644 14.5250167,28.0951699 14.5250167,27.9482753 L14.5250167,25.9497011 C14.5250167,25.7743886 14.4330245,25.6120253 14.2826144,25.5215566 Z" id="Path" transform="translate(11.236618, 25.485814) rotate(-315.000000) translate(-11.236618, -25.485814) "></path>
        </g>
        <g id="Group" transform="translate(33.052632, 14.947368)" fill="#0F0E9F" stroke="#0F0E9F" stroke-width="0.4">
            <path d="M12.1557978,-0.0961525437 C11.9812666,-0.506191606 11.6375166,-0.817636919 11.197165,-0.954550981 C10.5529463,-1.12275411 9.87411813,-0.812324419 9.57900094,-0.217754106 C9.09700876,0.750566206 8.84521188,1.83478496 8.85118844,2.91501933 L8.85118844,13.3375584 C8.85118844,13.358535 8.85318063,13.3795115 8.85720407,13.4005271 L9.75388376,18.0465428 C9.82950876,18.5904881 10.3004853,18.9998631 10.8487666,18.9998631 C10.8491181,18.9998631 10.8497822,18.9998631 10.8504463,18.9998631 C11.3993916,18.9998631 11.8700556,18.5901756 11.9426728,18.0638865 L12.8420088,13.4005662 C12.8463447,13.3799021 12.8483369,13.3586131 12.8483369,13.3375975 L12.8483369,2.91435527 C12.8459931,1.87212871 12.6041572,0.825878706 12.1557978,-0.0961525437 Z M12.1821259,13.3052537 L11.2861103,17.9545896 C11.2561494,18.1707615 11.0686103,18.3336521 10.8494306,18.3336521 C10.6306025,18.3336521 10.4433759,18.1707615 10.4110713,17.9375975 L9.51771188,13.3055662 L9.51771188,2.91337871 C9.51239938,1.93509746 9.73989938,0.954784956 10.175915,0.0787302688 C10.3318134,-0.235058794 10.69154,-0.398613481 11.0139619,-0.314316606 C11.2521259,-0.240019731 11.4453291,-0.0654884812 11.5495869,0.179316206 C11.9613056,1.02705058 12.1797822,1.97302714 12.1821259,2.91501933 L12.1821259,13.3052537 L12.1821259,13.3052537 Z" id="Shape" transform="translate(10.849711, 8.999932) rotate(-315.000000) translate(-10.849711, -8.999932) "></path>
            <path d="M10.419529,2.13920898 C10.3185915,2.07893554 10.1930056,2.07659179 10.0904274,2.13252929 L2.09616963,6.46280273 C1.98859151,6.52108398 1.92163838,6.63334961 1.92163838,6.75557617 L1.92163838,8.75413086 C1.92163838,8.86338867 1.97491963,8.96530273 2.06488057,9.02791992 C2.1215212,9.06690429 2.18781026,9.08721679 2.25476338,9.08721679 C2.29406026,9.08721679 2.3337087,9.08053711 2.37167745,9.06624023 L10.3659353,6.06838867 C10.4958571,6.01944336 10.5821071,5.89518554 10.5821071,5.75627929 L10.5821071,2.42534179 C10.5821071,2.30811523 10.5204665,2.19952148 10.419529,2.13920898 Z M9.9158962,5.52545898 L2.58781026,8.27350586 L2.58781026,6.95413086 L9.9158962,2.98499023 L9.9158962,5.52545898 Z" id="Shape" transform="translate(6.251873, 5.589721) rotate(-315.000000) translate(-6.251873, -5.589721) "></path>
            <path d="M18.4156451,14.4707737 L10.4213873,10.1405393 C10.3181451,10.0849143 10.1932232,10.0869065 10.0922857,10.147219 C9.9916998,10.2071799 9.92974668,10.3157737 9.92974668,10.4333518 L9.92974668,13.7642893 C9.92974668,13.9031955 10.0156842,14.0277659 10.1456061,14.0763987 L18.1398639,17.0742502 C18.1781842,17.0882346 18.2177936,17.0952268 18.2571295,17.0952268 C18.3240826,17.0952268 18.3903717,17.0752268 18.4463092,17.0359299 C18.5362311,16.9736252 18.5898639,16.8713987 18.5898639,16.7621409 L18.5898639,14.7635862 C18.5898639,14.6413205 18.5229107,14.5290549 18.4156451,14.4707737 Z M17.9240045,16.2814768 L10.5959186,13.5334299 L10.5959186,10.9925705 L17.9240045,14.9620627 L17.9240045,16.2814768 Z" id="Shape" transform="translate(14.259805, 13.597784) rotate(-315.000000) translate(-14.259805, -13.597784) "></path>
            <path d="M8.48916168,3.76628255 C7.93822418,3.76628255 7.4898648,4.21464192 7.4898648,4.76557942 L7.4898648,5.7648763 L8.15603668,5.7648763 L8.15603668,4.76557942 C8.15603668,4.58202473 8.30560699,4.43249348 8.48912262,4.43249348 C8.67263824,4.43249348 8.82220855,4.5820638 8.82220855,4.76557942 L8.82220855,5.09866536 L9.48838043,5.09866536 L9.48838043,4.76557942 C9.48845855,4.21460286 9.04009918,3.76628255 8.48916168,3.76628255 Z" id="Path" transform="translate(8.489123, 4.765579) rotate(-315.000000) translate(-8.489123, -4.765579) "></path>
            <path d="M5.19194486,2.82389703 C4.64100736,2.82389703 4.19264798,3.27225641 4.19264798,3.82319391 L4.19264798,4.82249078 L4.85881986,4.82249078 L4.85881986,3.82319391 C4.85881986,3.63967828 5.00839017,3.49042047 5.19190579,3.49042047 C5.37542142,3.49042047 5.52499173,3.63963922 5.52499173,3.82319391 L6.19116361,3.82319391 C6.19124173,3.27225641 5.74288236,2.82389703 5.19194486,2.82389703 Z" id="Path" transform="translate(5.191906, 3.823194) rotate(-315.000000) translate(-5.191906, -3.823194) "></path>
            <path d="M15.0840925,10.3612134 C14.533155,10.3612134 14.0847956,10.8095728 14.0847956,11.3605103 L14.0847956,11.6935962 L14.7509675,11.6935962 L14.7509675,11.3605103 C14.7509675,11.1769556 14.9001863,11.0274243 15.0840534,11.0274243 C15.2679206,11.0274243 15.4171394,11.1769946 15.4171394,11.3605103 L15.4171394,12.3598071 L16.0833113,12.3598071 L16.0833113,11.3605103 C16.0833894,10.8095337 15.63503,10.3612134 15.0840925,10.3612134 Z" id="Path" transform="translate(15.084053, 11.360510) rotate(-315.000000) translate(-15.084053, -11.360510) "></path>
            <path d="M16.026478,13.6584302 C15.4755405,13.6584302 15.0271812,14.1067896 15.0271812,14.6577271 L15.693353,14.6577271 C15.693353,14.4742115 15.8425718,14.3249536 16.026439,14.3249536 C16.2103062,14.3249536 16.3595249,14.4741724 16.3595249,14.6577271 L16.3595249,15.657024 L17.0256968,15.657024 L17.0256968,14.6577271 C17.0257749,14.1067896 16.5774155,13.6584302 16.026478,13.6584302 Z" id="Path" transform="translate(16.026439, 14.657727) rotate(-315.000000) translate(-16.026439, -14.657727) "></path>
            <path d="M5.27492188,13.3388277 L1.66585937,13.9403902 L1.66585937,13.1899214 L4.83527344,11.2882808 L4.4925,10.7170308 L1.1615625,12.7155855 C1.06128906,12.7755464 1,12.8837886 1,13.0010542 L1,14.333437 C1,14.4313667 1.04332031,14.524648 1.11792969,14.5875777 C1.17855469,14.6388667 1.25484375,14.666523 1.333125,14.666523 C1.35109375,14.666523 1.36941406,14.6648433 1.38742187,14.662187 L5.38457031,13.9960152 L5.27492188,13.3388277 Z" id="Path" transform="translate(3.192285, 12.691777) rotate(-315.000000) translate(-3.192285, -12.691777) "></path>
            <path d="M9.18840957,16.6810377 L5.85747207,14.682483 L5.5147377,15.253733 L8.68415176,17.1553737 L8.68415176,17.9054909 L5.0747377,17.3039284 L4.96547988,17.9611159 L8.96262832,18.6272877 C8.98094863,18.6302955 8.99891738,18.6319362 9.0172377,18.6319362 C9.09551895,18.6319362 9.17180801,18.6042799 9.23208145,18.5529909 C9.30704238,18.4897096 9.35001113,18.3967799 9.35001113,18.2988502 L9.35001113,16.9664674 C9.35001113,16.8495924 9.28868301,16.7413502 9.18840957,16.6810377 Z" id="Path" transform="translate(7.157746, 16.657210) rotate(-315.000000) translate(-7.157746, -16.657210) "></path>
        </g>
    </g>
</svg>