<?xml version="1.0" encoding="UTF-8"?>
<svg width="12px" height="6px" viewBox="0 0 12 6" version="1.1" xmlns="http://www.w3.org/2000/svg" xmlns:xlink="http://www.w3.org/1999/xlink">
    <!-- Generator: Sketch 55.2 (78181) - https://sketchapp.com -->
    <title>icon/icon-arrow-menu</title>
    <desc>Created with Sketch.</desc>
    <g id="icon/icon-arrow-menu" stroke="none" stroke-width="1" fill="none" fill-rule="evenodd">
        <path d="M6.05770639,5.99736726 C6.17073532,5.98397601 6.27711765,5.93506885 6.36354036,5.85763292 L11.7534349,1.08803427 C11.8853015,0.992549884 11.9733994,0.843502907 11.9950015,0.676402999 C12.0160561,0.509884386 11.970069,0.341040594 11.8670142,0.212365765 C11.7634048,0.0836939175 11.6138026,0.00684077816 11.4536802,0.000431629971 C11.2935578,-0.00597289767 11.1384139,0.0592363099 11.0265027,0.179753634 L6,4.62800058 L0.973498269,0.179753634 C0.861578527,0.0592333289 0.706443177,-0.00597751822 0.546320756,0.000431629971 C0.386198336,0.00683615761 0.236600394,0.083689446 0.132986762,0.212365765 C0.029931978,0.341037613 -0.0160580066,0.509884386 0.00499946042,0.676402999 C0.0266072641,0.843502907 0.114703673,0.992552865 0.246566025,1.08803427 L5.6364606,5.85763292 C5.75336741,5.96185163 5.90517521,6.01251073 6.05755321,5.99736726 L6.05770639,5.99736726 Z" id="Path" fill="#484848"></path>
    </g>
</svg>