<?xml version="1.0" encoding="UTF-8"?>
<svg width="45px" height="45px" viewBox="0 0 45 45" version="1.1" xmlns="http://www.w3.org/2000/svg" xmlns:xlink="http://www.w3.org/1999/xlink">
    <!-- Generator: Sketch 55.2 (78181) - https://sketchapp.com -->
    <title>icon/icon-twitter</title>
    <desc>Created with Sketch.</desc>
    <g id="icon/icon-twitter" stroke="none" stroke-width="1" fill="none" fill-rule="evenodd">
        <path d="M45,8.38023077 C43.3265625,9.12307692 41.5434375,9.61546154 39.684375,9.85453846 C41.596875,8.699 43.0565625,6.88315385 43.7428125,4.69446154 C41.9596875,5.77030769 39.9909375,6.53023077 37.8928125,6.95430769 C36.1996875,5.12992308 33.7865625,4 31.1540625,4 C26.0465625,4 21.9346875,8.19523077 21.9346875,13.3382308 C21.9346875,14.0782308 21.9965625,14.7897692 22.1484375,15.4671538 C14.47875,15.0886154 7.6921875,11.3686923 3.133125,5.702 C2.3371875,7.09946154 1.8703125,8.699 1.8703125,10.4209231 C1.8703125,13.6541538 3.515625,16.5202308 5.968125,18.1795385 C4.4859375,18.1510769 3.031875,17.7156154 1.8,17.0296923 C1.8,17.0581538 1.8,17.0951538 1.8,17.1321538 C1.8,21.6689231 4.9978125,25.4372308 9.19125,26.3053077 C8.4403125,26.5130769 7.621875,26.6126923 6.7725,26.6126923 C6.181875,26.6126923 5.585625,26.5785385 5.0259375,26.4533077 C6.22125,30.1504615 9.613125,32.8685385 13.64625,32.9567692 C10.5075,35.4414615 6.5221875,36.9385385 2.2078125,36.9385385 C1.45125,36.9385385 0.725625,36.9043846 -5.68434189e-14,36.8104615 C4.0865625,39.4773077 8.9296875,41 14.1525,41 C31.12875,41 40.41,26.7692308 40.41,14.434 C40.41,14.0213077 40.3959375,13.6228462 40.37625,13.2272308 C42.2071875,11.9123077 43.745625,10.2700769 45,8.38023077 Z" id="Path" fill="#FFFFFF" fill-rule="nonzero"></path>
    </g>
</svg>