<?xml version="1.0" encoding="UTF-8"?>
<svg width="84px" height="25px" viewBox="0 0 84 25" version="1.1" xmlns="http://www.w3.org/2000/svg" xmlns:xlink="http://www.w3.org/1999/xlink">
    <!-- Generator: Sketch 55.2 (78181) - https://sketchapp.com -->
    <title>icon/icon-playstore</title>
    <desc>Created with Sketch.</desc>
    <defs>
        <linearGradient x1="60.9360797%" y1="4.9481245%" x2="26.7110579%" y2="71.9074222%" id="linearGradient-1">
            <stop stop-color="#00A0FF" offset="0%"></stop>
            <stop stop-color="#00A1FF" offset="1%"></stop>
            <stop stop-color="#00BEFF" offset="26%"></stop>
            <stop stop-color="#00D2FF" offset="51%"></stop>
            <stop stop-color="#00DFFF" offset="76%"></stop>
            <stop stop-color="#00E3FF" offset="100%"></stop>
        </linearGradient>
        <linearGradient x1="107.684729%" y1="50%" x2="-130.640394%" y2="50%" id="linearGradient-2">
            <stop stop-color="#FFE000" offset="0%"></stop>
            <stop stop-color="#FFBD00" offset="41%"></stop>
            <stop stop-color="#FFA500" offset="78%"></stop>
            <stop stop-color="#FF9C00" offset="100%"></stop>
        </linearGradient>
        <linearGradient x1="86.219293%" y1="30.7404688%" x2="-50.1497903%" y2="136.757007%" id="linearGradient-3">
            <stop stop-color="#FF3A44" offset="0%"></stop>
            <stop stop-color="#C31162" offset="100%"></stop>
        </linearGradient>
        <linearGradient x1="-18.7537448%" y1="-12.3848537%" x2="42.1210306%" y2="34.9614335%" id="linearGradient-4">
            <stop stop-color="#32A071" offset="0%"></stop>
            <stop stop-color="#2DA771" offset="7%"></stop>
            <stop stop-color="#15CF74" offset="48%"></stop>
            <stop stop-color="#06E775" offset="80%"></stop>
            <stop stop-color="#00F076" offset="100%"></stop>
        </linearGradient>
    </defs>
    <g id="icon/icon-playstore" stroke="none" stroke-width="1" fill="none" fill-rule="evenodd">
        <g id="Google-Play-Badge-US-2" fill-rule="nonzero">
            <g id="Google-Play-Badge-US">
                <rect id="Background-Black" fill="#000000" x="0" y="0" width="84" height="25" rx="3.125"></rect>
                <path d="M80.8888889,0.5 C82.332193,0.5 83.5022222,1.67525253 83.5022222,3.125 L83.5022222,21.875 C83.5022222,23.3247475 82.332193,24.5 80.8888889,24.5 L3.11111111,24.5 C1.66780696,24.5 0.497777778,23.3247475 0.497777778,21.875 L0.497777778,3.125 C0.497777778,1.67525253 1.66780696,0.5 3.11111111,0.5 L80.8888889,0.5 L80.8888889,0.5 Z M80.8888889,0 L3.11111111,0 C1.39289189,0 0,1.39911016 0,3.125 L0,21.875 C0,23.6008898 1.39289189,25 3.11111111,25 L80.8888889,25 C82.6071081,25 84,23.6008898 84,21.875 L84,3.125 C84,1.39911016 82.6071081,0 80.8888889,0 Z" id="Border-Gray" fill="#A6A6A6"></path>
                <path d="M42.3982222,13.59375 C40.9393755,13.6006459 39.7616638,14.7929257 39.7662219,16.2582941 C39.7708067,17.7236626 40.9559343,18.9085052 42.4147953,18.9062207 C43.8736564,18.9039295 45.055095,17.7153756 45.0551111,16.25 C45.065361,15.5402336 44.7883219,14.8566936 44.2874476,14.3559398 C43.7865734,13.855186 43.1047782,13.5801223 42.3982222,13.59375 L42.3982222,13.59375 Z M42.3982222,17.8625 C41.7406748,17.9086908 41.121841,17.5464459 40.8377022,16.9490232 C40.5535634,16.3516004 40.6618712,15.6404268 41.1108232,15.1556488 C41.5597752,14.6708708 42.2581213,14.5110202 42.8718502,14.7525519 C43.4855791,14.9940836 43.8899495,15.5879059 43.8915556,16.25 C43.9118044,16.6641699 43.7646426,17.0689955 43.4834651,17.3726107 C43.2022876,17.6762258 42.8109373,17.8528852 42.3982222,17.8625 L42.3982222,17.8625 Z M36.6053333,13.59375 C35.1456619,13.5971999 33.964826,14.7879668 33.967111,16.2541569 C33.9694027,17.7203469 35.1539497,18.9073891 36.6136248,18.9062427 C38.0732998,18.9050946 39.255996,17.7161919 39.256,16.25 C39.2662499,15.5402336 38.9892108,14.8566936 38.4883365,14.3559398 C37.9874623,13.855186 37.3056671,13.5801223 36.5991111,13.59375 L36.6053333,13.59375 Z M36.6053333,17.8625 C35.9474427,17.9112957 35.3268045,17.5508571 35.0406633,16.9538104 C34.7545221,16.3567637 34.8611342,15.6446634 35.3094394,15.1585584 C35.7577447,14.6724533 36.4564714,14.511311 37.0709757,14.7523079 C37.6854801,14.9933048 38.0906533,15.5873757 38.0924444,16.25 C38.1126933,16.6641699 37.9655315,17.0689955 37.684354,17.3726107 C37.4031765,17.6762258 37.0118262,17.8528852 36.5991111,17.8625 L36.6053333,17.8625 Z M29.7048889,14.4125 L29.7048889,15.5375 L32.3928889,15.5375 C32.3507417,16.0673774 32.1314589,16.5673715 31.7706667,16.95625 C31.2268587,17.5126404 30.4742936,17.8122863 29.6986667,17.78125 C28.0491762,17.78125 26.712,16.4381042 26.712,14.78125 C26.712,13.1243958 28.0491762,11.78125 29.6986667,11.78125 C30.4564062,11.7688368 31.1881185,12.0587826 31.7333333,12.5875 L32.5235556,11.79375 C31.77995,11.0374113 30.7631137,10.6157838 29.7048889,10.625 C28.1984645,10.5661119 26.7806893,11.3397949 26.0100425,12.6412857 C25.2393957,13.9427765 25.2393957,15.5634735 26.0100425,16.8649643 C26.7806893,18.1664551 28.1984645,18.9401381 29.7048889,18.88125 C30.7824316,18.930159 31.828372,18.5085476 32.5733333,17.725 C33.2252205,17.005576 33.5732713,16.0598508 33.544,15.0875 C33.5460078,14.8506176 33.5251698,14.6140968 33.4817778,14.38125 L29.7048889,14.4125 Z M57.8977778,15.2875 C57.5655607,14.3057563 56.6644884,13.6319082 55.6328889,13.5937452 C54.9449373,13.5923989 54.2871125,13.8771297 53.8156139,14.3803335 C53.3441152,14.8835372 53.1010016,15.560327 53.144,16.25 C53.1287188,16.9558101 53.3998356,17.6375177 53.8950547,18.1384838 C54.3902737,18.6394499 55.067014,18.9165992 55.7697778,18.90625 C56.6538675,18.9110369 57.4812892,18.4696535 57.9724444,17.73125 L57.0702222,17.10625 C56.7962864,17.5649639 56.3023106,17.8451044 55.7697778,17.84375 C55.2182347,17.8648657 54.7099101,17.5451249 54.488,17.0375 L58.0284444,15.56875 L57.8977778,15.2875 Z M54.2888889,16.175 C54.2634101,15.7844777 54.3954916,15.4000906 54.655357,15.1084945 C54.9152225,14.8168983 55.2809975,14.6426385 55.6702222,14.625 C56.0804968,14.5978447 56.4673302,14.8191766 56.6533333,15.1875 L54.2888889,16.175 Z M51.4142222,18.75 L52.5777778,18.75 L52.5777778,10.9375 L51.4142222,10.9375 L51.4142222,18.75 Z M49.5102222,14.1875 L49.4666667,14.1875 C49.1119764,13.789173 48.6049245,13.5618 48.0728889,13.5624984 C46.6605358,13.6312948 45.5506098,14.8015498 45.5506098,16.221875 C45.5506098,17.6422002 46.6605358,18.8124552 48.0728889,18.88125 C48.6066491,18.8902648 49.1169877,18.661418 49.4666667,18.25625 L49.504,18.25625 L49.504,18.6375 C49.504,19.65625 48.9626667,20.2 48.0915556,20.2 C47.4981441,20.1860484 46.9720086,19.8131459 46.76,19.25625 L45.7457778,19.68125 C46.1363352,20.6355069 47.0644103,21.2561615 48.0915556,21.2500455 C49.4542222,21.2500455 50.5804444,20.44375 50.5804444,18.48125 L50.5804444,13.75 L49.5102222,13.75 L49.5102222,14.1875 Z M48.1786667,17.8625 C47.3466856,17.7888499 46.7085897,17.0889344 46.7085897,16.25 C46.7085897,15.4110656 47.3466856,14.7111501 48.1786667,14.6375 C48.5806966,14.6582234 48.957369,14.8411063 49.2232843,15.1446853 C49.4891996,15.4482643 49.6218321,15.846823 49.5911111,16.25 C49.6254172,16.6550309 49.4932091,17.0565195 49.225226,17.3611173 C48.9572428,17.6657152 48.5768332,17.8468836 48.1724444,17.8625 L48.1786667,17.8625 Z M63.3484444,10.9375 L60.5671111,10.9375 L60.5671111,18.75 L61.7306667,18.75 L61.7306667,15.7875 L63.3546667,15.7875 C64.2585589,15.8527274 65.123006,15.4053181 65.5947476,14.6281081 C66.0664892,13.8508981 66.0664892,12.8741019 65.5947476,12.0968919 C65.123006,11.3196819 64.2585589,10.8722726 63.3546667,10.9375 L63.3484444,10.9375 Z M63.3484444,14.6875 L61.7244444,14.6875 L61.7244444,12.025 L63.3733333,12.025 C64.1104494,12.025 64.708,12.6252183 64.708,13.365625 C64.708,14.1060317 64.1104494,14.70625 63.3733333,14.70625 L63.3484444,14.6875 Z M70.5226667,13.5625 C69.6569768,13.5105243 68.843094,13.97943 68.4506667,14.75625 L69.4835556,15.1875 C69.6916303,14.8022926 70.1064776,14.5767847 70.5413333,14.6125 C70.8397063,14.5774966 71.1395712,14.6643563 71.3735732,14.8535689 C71.6075752,15.0427814 71.7560969,15.3184843 71.7857778,15.61875 L71.7857778,15.7 C71.4120665,15.5012494 70.9953019,15.3982032 70.5724444,15.4 C69.4586667,15.4 68.3324444,16.025 68.3324444,17.15625 C68.3546501,17.643568 68.5721496,18.1011434 68.9354595,18.4248733 C69.2987695,18.7486033 69.7769944,18.9109579 70.2613333,18.875 C70.858187,18.9180519 71.4308429,18.6304457 71.7546667,18.125 L71.792,18.125 L71.792,18.75 L72.912,18.75 L72.912,15.74375 C72.912,14.375 71.8791111,13.58125 70.5537778,13.58125 L70.5226667,13.5625 Z M70.3795556,17.84375 C70,17.84375 69.4711111,17.65 69.4711111,17.18125 C69.4711111,16.55625 70.1306667,16.35 70.7155556,16.35 C71.0851817,16.3408387 71.4504814,16.4314921 71.7733333,16.6125 C71.6928775,17.3121344 71.1116147,17.8453378 70.4106667,17.8625 L70.3795556,17.84375 Z M76.9937778,13.75 L75.6622222,17.1375 L75.6248889,17.1375 L74.2435556,13.75 L72.9991111,13.75 L75.0711111,18.4875 L73.8888889,21.11875 L75.1022222,21.11875 L78.288,13.75 L76.9937778,13.75 Z M66.5342222,18.75 L67.6977778,18.75 L67.6977778,10.9375 L66.5342222,10.9375 L66.5342222,18.75 Z" id="Google-Play" fill="#FFFFFF"></path>
                <path d="M29.5057778,6.4 C29.5271533,6.86326941 29.3584776,7.31507931 29.0391111,7.65 C28.6822354,8.02237701 28.1844788,8.22464113 27.6702222,8.20625 C26.8814562,8.20004923 26.1732478,7.71951011 25.8730527,6.98682042 C25.5728576,6.25413073 25.7391777,5.41207654 26.2951111,4.85 C26.6563316,4.47957873 27.154138,4.27594714 27.6702222,4.2875 C27.9332714,4.28661964 28.1937201,4.3397927 28.4355556,4.44375 C28.6607095,4.53497098 28.8611456,4.67847285 29.0204444,4.8625 L28.6906667,5.19375 C28.4388825,4.89292278 28.0609061,4.72855617 27.6702222,4.75 C27.2775063,4.74806492 26.900956,4.90692979 26.6274002,5.18996196 C26.3538444,5.47299414 26.2068976,5.85576087 26.2204444,6.25 C26.2121079,6.84574356 26.5614076,7.38802469 27.1058252,7.62453644 C27.6502427,7.86104819 28.2828576,7.74534103 28.7093333,7.33125 C28.900797,7.12283538 29.011225,6.85218831 29.0204444,6.56875 L27.6702222,6.56875 L27.6702222,6.11875 L29.4808889,6.11875 C29.4974855,6.21157133 29.5058147,6.30569353 29.5057778,6.4 L29.5057778,6.4 Z M32.3555556,4.8375 L30.6755556,4.8375 L30.6755556,6.025 L32.2062222,6.025 L32.2062222,6.475 L30.6755556,6.475 L30.6755556,7.6625 L32.3555556,7.6625 L32.3555556,8.125 L30.1777778,8.125 L30.1777778,4.375 L32.3555556,4.375 L32.3555556,4.8375 Z M34.3964444,8.125 L33.9173333,8.125 L33.9173333,4.8375 L32.872,4.8375 L32.872,4.375 L35.4666667,4.375 L35.4666667,4.8375 L34.3964444,4.8375 L34.3964444,8.125 Z M37.296,8.125 L37.296,4.375 L37.7751111,4.375 L37.7751111,8.125 L37.296,8.125 Z M39.9031111,8.125 L39.424,8.125 L39.424,4.8375 L38.3786667,4.8375 L38.3786667,4.375 L40.9422222,4.375 L40.9422222,4.8375 L39.9031111,4.8375 L39.9031111,8.125 Z M45.8017778,7.6375 C45.044527,8.39389243 43.8212508,8.39389243 43.064,7.6375 C42.3299451,6.85702117 42.3299451,5.63672883 43.064,4.85625 C43.4261324,4.48984168 43.9188809,4.2837706 44.4328889,4.2837706 C44.9468968,4.2837706 45.4396454,4.48984168 45.8017778,4.85625 C46.5389652,5.6354749 46.5389652,6.8582751 45.8017778,7.6375 L45.8017778,7.6375 Z M43.4186667,7.325 C43.9794905,7.88597817 44.8862873,7.88597817 45.4471111,7.325 C45.9979012,6.71510696 45.9979012,5.78489304 45.4471111,5.175 C44.8862873,4.61402183 43.9794905,4.61402183 43.4186667,5.175 C42.8678766,5.78489304 42.8678766,6.71510696 43.4186667,7.325 L43.4186667,7.325 Z M47.0275556,8.125 L47.0275556,4.375 L47.6124444,4.375 L49.4293333,7.29375 L49.4293333,4.375 L49.9084444,4.375 L49.9084444,8.125 L49.4106667,8.125 L47.5128889,5.06875 L47.5128889,8.125 L47.0275556,8.125 Z" id="GET-IT-ON" stroke="#FFFFFF" stroke-width="0.5" fill="#FFFFFF"></path>
                <g id="Icon" transform="translate(5.600000, 4.375000)">
                    <path d="M0.896,0.3375 C0.693195973,0.58194271 0.590833382,0.894871826 0.609777778,1.2125 L0.609777778,15.0375 C0.590833382,15.3551282 0.693195973,15.6680573 0.896,15.9125 L0.939555556,15.95625 L8.64888889,8.21875 L8.64888889,8.0375 L0.939555556,0.29375 L0.896,0.3375 Z" id="Shape" fill="url(#linearGradient-1)"></path>
                    <path d="M11.2,10.8 L8.64888889,8.21875 L8.64888889,8.0375 L11.2,5.45 L11.256,5.48125 L14.3111111,7.225 C15.1822222,7.71875 15.1822222,8.53125 14.3111111,9.03125 L11.2684444,10.76875 L11.2,10.8 Z" id="Shape" fill="url(#linearGradient-2)"></path>
                    <path d="M11.2746667,10.7625 L8.64888889,8.125 L0.896,15.9125 C1.26231325,16.2359515 1.8059558,16.2517035 2.19022222,15.95 L11.2808889,10.7625" id="Shape" fill="url(#linearGradient-3)"></path>
                    <path d="M11.2746667,5.4875 L2.184,0.3 C1.79973358,-0.00170350569 1.25609103,0.0140484997 0.889777778,0.3375 L8.64888889,8.125 L11.2746667,5.4875 Z" id="Shape" fill="url(#linearGradient-4)"></path>
                    <path d="M11.2,10.70625 L2.184,15.8625 C1.8150462,16.1395853 1.30850936,16.1395853 0.939555556,15.8625 L0.896,15.90625 L0.939555556,15.95 C1.30781516,16.2291745 1.8157404,16.2291745 2.184,15.95 L11.2746667,10.7625 L11.2,10.70625 Z" id="Shape" fill="#000000" opacity="0.2"></path>
                    <path d="M0.896,15.825 C0.693195973,15.5805573 0.590833382,15.2676282 0.609777778,14.95 L0.609777778,15.04375 C0.590833382,15.3613782 0.693195973,15.6743073 0.896,15.91875 L0.939555556,15.875 L0.896,15.825 Z M14.3111111,8.9375 L11.2,10.70625 L11.256,10.7625 L14.3111111,9.025 C14.6639547,8.85850825 14.9012692,8.51524979 14.9333333,8.125 C14.8624183,8.47802372 14.632617,8.77809909 14.3111111,8.9375 Z" id="Shape" fill="#000000" opacity="0.12"></path>
                    <path d="M2.184,0.3875 L14.3111111,7.3125 C14.632617,7.47190091 14.8624183,7.77197628 14.9333333,8.125 C14.9012692,7.73475021 14.6639547,7.39149175 14.3111111,7.225 L2.184,0.3 C1.31288889,-0.19375 0.603555556,0.21875 0.603555556,1.21875 L0.603555556,1.3125 C0.622222222,0.30625 1.31911111,-0.10625 2.184,0.3875 L2.184,0.3875 Z" id="Shape" fill="#FFFFFF" opacity="0.25"></path>
                </g>
            </g>
        </g>
    </g>
</svg>