<?xml version="1.0" encoding="UTF-8"?>
<svg width="60px" height="60px" viewBox="0 0 60 60" version="1.1" xmlns="http://www.w3.org/2000/svg" xmlns:xlink="http://www.w3.org/1999/xlink">
    <!-- Generator: Sketch 55.2 (78181) - https://sketchapp.com -->
    <title>icon/icon-response</title>
    <desc>Created with Sketch.</desc>
    <g id="icon/icon-response" stroke="none" stroke-width="1" fill="none" fill-rule="evenodd">
        <polygon id="Path-3" fill="#CACAFC" points="17.3087484 21.2576301 22.2829572 16.330474 24.9710332 18.794052 27.2562756 18.0994331 27.2562756 14 34.1643315 14 34.1643315 17.6288151 36.6594798 18.794052 39.7091099 16.330474 44.6609802 21.2576301 41.6570689 24.0782371 42.9548267 26.5552881 47 26.5552881 47 33.1764963 43.4710506 33.1764963 41.6570689 35.5396972 44.2326055 38.3024442 39.7091099 43.1739963 36.6594798 40.7423978 34.1643315 41.5911524 34.1643315 45 27.2562756 45 27.2562756 41.5911524 24.9710332 40.7423978 21.8998292 43.1739963 17.3087484 38.3024442 20.194851 35.5396972 18.8365683 33.1764963 15 33.1764963 15 26.5552881 18.8365683 26.5552881 20.194851 23.3832621"></polygon>
        <circle id="Oval" fill="#FFFFFF" cx="29.5" cy="29.5" r="6.5"></circle>
        <path d="M20.011383,11.4026596 C19.947384,11.4026596 19.8811032,11.3980887 19.8148223,11.386661 L14.1420404,10.3901663 C13.8471995,10.3398835 13.5866457,10.1730392 13.4152213,9.92848229 C13.2437968,9.68392537 13.1775218,9.38223282 13.2278059,9.08739186 L14.2265824,3.42830144 C14.3340021,2.81575356 14.9122686,2.40208335 15.5293803,2.51635463 C16.1419282,2.62377431 16.5487527,3.20660463 16.4413271,3.8191525 L15.6390878,8.36970037 L20.2033856,9.16965782 C20.8159335,9.2770775 21.2250399,9.85990782 21.1176144,10.4724557 C21.0239037,11.0187052 20.5485048,11.4026596 20.0114122,11.4026596 L20.011383,11.4026596 Z" id="Path" stroke="#0F0E9F" stroke-width="0.4" fill="#0F0E9F" fill-rule="nonzero"></path>
        <path d="M30.4725,56.5014894 C27.4121011,56.5014894 24.3037234,55.9780941 21.2664362,54.8764734 C14.4803723,52.4126489 9.06579787,47.4573245 6.01914894,40.9275372 C2.98162766,34.4135479 2.66619681,27.1090798 5.13007979,20.3575372 C5.34263723,19.7747186 5.98714362,19.4730319 6.57225,19.6856011 C7.15735638,19.8981585 7.45675532,20.5450053 7.24418617,21.1277713 C4.9860266,27.3123457 5.27629787,34.007133 8.06011702,39.974633 C10.8507819,45.9602713 15.815117,50.4995266 22.0342128,52.7580372 C34.8585745,57.4160106 49.0883617,50.7969947 53.7534149,38.0069202 C56.0115745,31.8223457 55.7213032,25.1275585 52.937484,19.1600585 C50.1468191,13.1744202 45.182484,8.63282447 38.9633883,6.37431383 C33.4003138,4.35388298 27.2911011,4.39045213 21.7624309,6.47259415 C19.5362766,7.3182484 17.4449894,8.47020585 15.5456755,9.90096649 C15.0497043,10.2757973 14.3434574,10.1775229 13.9709202,9.6815516 C13.5960894,9.18558032 13.6966516,8.47933351 14.1926229,8.10679628 C16.261091,6.54573245 18.5420697,5.28868989 20.9716654,4.37446117 C27.0035271,2.10261011 33.6655484,2.06375904 39.7336867,4.26475372 C46.5197505,6.72857819 51.934325,11.6839027 54.9809739,18.2136899 C58.0184952,24.7276793 58.3339261,32.0321473 55.8700431,38.7836899 C51.8840059,49.7041154 41.5027559,56.5014894 30.4729154,56.5014894 L30.4725,56.5014894 Z" id="Path" stroke="#0F0E9F" stroke-width="0.4" fill="#0F0E9F" fill-rule="nonzero"></path>
        <path d="M33.8760638,46.3814929 L27.1245213,46.3814929 C26.5028457,46.3814929 26.0000053,45.8786665 26.0000053,45.2569734 L26.0000053,42.2262979 C25.5497484,42.0685941 25.1109362,41.8857484 24.6857979,41.6846181 L22.5441915,43.8262245 C22.1213585,44.2490574 21.3739787,44.2490574 20.9534043,43.8262245 L16.1788191,39.0516394 C15.7399894,38.6128096 15.7399894,37.8996819 16.1788191,37.4608521 L18.3204255,35.3192457 C18.1192952,34.8941309 17.9364495,34.4552777 17.7787457,34.0050383 L14.7480702,34.0050383 C14.1263947,34.0050383 13.6235543,33.5022096 13.6235543,32.8805223 L13.6235543,26.1289798 C13.6235543,25.5073043 14.126383,25.0044638 14.7480702,25.0044638 L17.7787457,25.0044638 C17.9364495,24.5542069 18.1192952,24.1153947 18.3204255,23.6902564 L16.1788191,21.54865 C15.9685436,21.3383745 15.8496968,21.0526787 15.8496968,20.7532564 C15.8496968,20.453834 15.9685436,20.16815 16.1788191,19.9578628 L20.9534043,15.1856181 C21.392234,14.7467883 22.1053617,14.7467883 22.5441915,15.1856181 L24.6857979,17.3272245 C25.1109128,17.1215245 25.549766,16.9386787 26.0000053,16.780975 L26.0000053,13.7502995 C26.0000053,13.1286239 26.502834,12.6257835 27.1245213,12.6257835 L33.8760638,12.6257835 C34.4977394,12.6257835 35.0005798,13.1286122 35.0005798,13.7502995 L35.0005798,16.780975 C35.4508367,16.9386787 35.8896489,17.1215245 36.3147872,17.3226548 L38.4563936,15.1810484 C38.8952234,14.7422186 39.6083511,14.7422186 40.0471809,15.1810484 L44.821766,19.9532931 C45.0320415,20.1635686 45.1508883,20.4492644 45.1508883,20.7486867 C45.1508883,21.048109 45.0320415,21.3337931 44.821766,21.5440803 L42.6801596,23.6856867 C42.8812899,24.1108016 43.0641356,24.5496548 43.2218394,24.9998941 L46.2525149,25.0021796 C46.8741904,25.0021796 47.3770309,25.5050083 47.3770309,26.1266955 L47.3770309,32.8782381 C47.3770309,33.4999136 46.8742021,34.002754 46.2525149,34.002754 L43.2218394,34.002754 C43.0641356,34.453011 42.8812899,34.8918232 42.6801596,35.3169615 L44.821766,37.4585679 C45.2605957,37.8973977 45.2605957,38.6105253 44.821766,39.0493551 L40.0471809,43.8239402 C39.8369053,44.0342157 39.5489277,44.1530626 39.2517872,44.1530626 C38.9523766,44.1530626 38.6666809,44.0342157 38.4563936,43.8239402 L36.3147872,41.6823338 C35.8896723,41.8857519 35.4508191,42.0685977 35.0005798,42.2263014 L35.0005798,45.2569769 C35.0005798,45.8786524 34.4977511,46.3814929 33.8760638,46.3814929 L33.8760638,46.3814929 Z M28.2489787,44.1324574 L32.749266,44.1324574 L32.749266,41.4034628 C32.749266,40.900634 33.082958,40.4595106 33.5674787,40.3200798 C34.4199787,40.0778106 35.2314043,39.7441128 35.9810426,39.3235851 C36.4198723,39.0790282 36.9706915,39.1544543 37.3249734,39.5110005 L39.2517287,41.4377559 L42.4355266,38.253958 L40.5087713,36.3272027 C40.1522191,35.9706505 40.0767989,35.4221016 40.3213559,34.9832718 C40.7396133,34.2359154 41.0756165,33.4244899 41.3155686,32.5719899 C41.4527059,32.0874516 41.8938176,31.7537771 42.3989516,31.7537771 L45.1279463,31.7537771 L45.1279463,27.2534899 L42.3989516,27.2534899 C41.8961229,27.2534899 41.4549995,26.9197979 41.3155686,26.4352771 C41.0732995,25.5827771 40.7396016,24.7713516 40.3213559,24.0239952 C40.0767989,23.5851654 40.152225,23.0343463 40.5087713,22.6800644 L42.4355266,20.753309 L39.2517287,17.5717931 L37.3249734,19.4985484 C36.9684271,19.8528128 36.4198723,19.9282388 35.9810426,19.6859638 C35.2336862,19.2677064 34.4222606,18.9317032 33.5674787,18.6894691 C33.0852223,18.55005 32.7515479,18.1066505 32.7515479,17.6038043 L32.7515479,14.8748096 L28.2512606,14.8748096 L28.2512606,17.6038043 C28.2512606,18.106633 27.9175686,18.5477564 27.4330479,18.6871872 C26.5805479,18.9294564 25.7691223,19.2631543 25.021766,19.6814 C24.5829362,19.9305266 24.0343989,19.8528186 23.6755532,19.4962665 L21.7487979,17.5695112 L18.565,20.7510271 L20.4917553,22.6777824 C20.8483074,23.0343346 20.9237277,23.5828835 20.6791707,24.0217133 C20.2609133,24.7690697 19.9249101,25.5804952 19.684958,26.4329952 C19.5478207,26.9175394 19.106709,27.251208 18.601575,27.251208 L15.8725803,27.2534934 L15.8725803,31.7537806 L18.601575,31.7537806 C19.1044037,31.7537806 19.5455271,32.0874727 19.684958,32.5719934 C19.9272271,33.4244934 20.260925,34.2359189 20.6791707,34.9832753 C20.9237277,35.4221051 20.8483016,35.9729243 20.4917553,36.3272062 L18.565,38.2539615 L21.7487979,41.4377594 L23.6755532,39.511004 C24.0320995,39.1567397 24.5783723,39.0790317 25.019484,39.3235886 C25.7668404,39.7418461 26.578266,40.0778493 27.4330479,40.3200833 C27.9153043,40.4572147 28.2489787,40.90062 28.2489787,41.4034663 L28.2489787,44.1324574 Z" id="Shape" stroke="#0F0E9F" stroke-width="0.4" fill="#0F0E9F" fill-rule="nonzero"></path>
        <path d="M30.5,37.5200532 C26.0796968,37.5200532 22.4822872,33.9225851 22.4822872,29.5023404 C22.4822872,25.0820372 26.0797553,21.4846277 30.5,21.4846277 C34.9202447,21.4846277 38.5177128,25.0820957 38.5177128,29.5023404 C38.5177128,33.9249255 34.9202447,37.5200532 30.5,37.5200532 L30.5,37.5200532 Z M30.5,23.7355319 C27.320766,23.7355319 24.733484,26.3228138 24.733484,29.5020479 C24.733484,32.6812819 27.320766,35.2685638 30.5,35.2685638 C33.679234,35.2685638 36.266516,32.6812819 36.266516,29.5020479 C36.266516,26.3228138 33.679234,23.7355319 30.5,23.7355319 Z" id="Shape" stroke="#0F0E9F" stroke-width="0.4" fill="#0F0E9F" fill-rule="nonzero"></path>
    </g>
</svg>