<?xml version="1.0" encoding="UTF-8"?>
<svg width="60px" height="60px" viewBox="0 0 60 60" version="1.1" xmlns="http://www.w3.org/2000/svg" xmlns:xlink="http://www.w3.org/1999/xlink">
    <!-- Generator: Sketch 55.2 (78181) - https://sketchapp.com -->
    <title>icon/icon-trust</title>
    <desc>Created with Sketch.</desc>
    <g id="icon/icon-trust" stroke="none" stroke-width="1" fill="none" fill-rule="evenodd">
        <path d="M12.0829221,13.5640095 L30.5023081,8 L48.9203875,13.5640095 C49.7824804,29.5385726 43.6431206,41.3505694 30.5023081,49 C17.3416705,41.3505694 11.2018751,29.5385726 12.0829221,13.5640095 Z" id="Path-4" fill="#CACAFC"></path>
        <rect id="Rectangle" fill="#FFFFFF" x="24" y="25" width="13" height="13"></rect>
        <path d="M55.4535714,10.2290132 C55.3966518,9.77671053 55.072208,9.40640132 54.6310871,9.28764474 C42.7918014,6.11870395 30.9379443,2.61614474 30.8213729,2.57945395 C30.610772,2.5172627 30.3887836,2.5172627 30.1781827,2.57945395 C30.0614947,2.57945395 18.2077541,6.11870395 6.374297,9.28764474 L6.3771428,9.28764474 C5.93601466,9.40637237 5.61155994,9.77669605 5.55465851,10.2290132 C5.5119686,10.5823737 1.43939566,45.4999342 30.1067871,56.3921053 C30.3657724,56.4910474 30.6532157,56.4910474 30.9150642,56.3921053 C59.5683214,45.5086184 55.4956071,10.5821711 55.4533499,10.2290132 L55.4535714,10.2290132 Z M30.5,54.1421711 C6.17227143,44.5902632 7.31685714,16.2051974 7.71757143,11.2494079 C18.2308571,8.41965789 28.5612714,5.39494737 30.5,4.82106579 C32.4381457,5.39209605 42.7691429,8.43948684 53.2824286,11.2465855 C53.6837111,16.2049803 54.8562886,44.5729671 30.5,54.1415197 L30.5,54.1421711 Z" id="Shape" fill="#0F0E9F"></path>
        <path d="M49.5310143,13.1744079 C44.4310143,11.8287895 40.0595857,10.5114671 36.5420429,9.45423684 C34.0802729,8.73055263 32.1706143,8.13126974 30.7788971,7.78918421 L30.7760513,7.78918421 C30.5939085,7.74395395 30.4060755,7.74395395 30.2239326,7.78918421 C28.8692269,8.12841118 26.9311541,8.71636842 24.4750669,9.45423684 C20.9631341,10.5114671 16.5919241,11.8287895 11.4919241,13.1659408 C10.9768022,13.3016316 10.6295869,13.7737197 10.6552326,14.3023421 L10.6552326,14.7207184 C11.0479763,23.1219684 11.9587198,42.8141395 30.0192041,50.9049289 C30.3123375,51.0377901 30.6510139,51.0377901 30.9441255,50.9049289 C49.2094112,42.7721658 49.9948112,23.0937447 50.3394255,14.7207184 L50.3394255,14.3503947 L50.3394255,14.3532214 C50.387807,13.8189399 50.0491335,13.3242149 49.5311483,13.1744122 L49.5310143,13.1744079 Z M30.5,48.6266118 C14.4714286,41.1346711 13.3355857,23.2973026 12.9487143,15.0994079 C17.70716,13.8244934 21.7943,12.5948092 25.1238714,11.5969211 C27.3836086,10.9156375 29.2050371,10.3672368 30.4999271,10.0336184 C31.7976586,10.3728454 33.6190871,10.9156447 35.8845071,11.6053882 C39.2142971,12.6032763 43.3152071,13.8414276 48.0735071,15.1164145 C47.7462183,23.291875 46.68179,41.0785855 30.4996357,48.6266118 L30.5,48.6266118 Z" id="Shape" fill="#0F0E9F"></path>
        <path d="M30.5,16.3947926 C27.3750843,16.3976293 24.8422057,18.9135855 24.8393643,22.0174671 L24.8393643,24.485375 L23.8176886,24.485375 C23.1944176,24.485375 22.6906614,24.9885599 22.6906614,25.6076645 L22.6906614,37.3364145 C22.6906614,37.9583342 23.194403,38.4587039 23.8176886,38.4587039 L37.1964457,38.4587039 C37.8197167,38.4587039 38.3234729,37.9583414 38.3234729,37.3364145 L38.3234729,25.6076645 C38.3234729,24.9885743 37.8197313,24.485375 37.1964457,24.485375 L36.1776114,24.485375 L36.1747649,22.0174671 C36.1747649,20.5248684 35.5742618,19.0916118 34.5098335,18.0372039 C33.4454635,16.9827961 32.0025278,16.3919803 30.4998492,16.3947926 L30.5,16.3947926 Z M27.0961871,22.0174671 C27.0961871,20.1517368 28.62167,18.6364868 30.5,18.6364868 C32.37833,18.6364868 33.9038129,20.1517368 33.9038129,22.0174671 L33.9038129,24.485375 L27.1133086,24.485375 L27.0961871,22.0174671 Z M36.0663586,36.216875 L24.9614729,36.216875 L24.9614729,26.7300987 L36.0663586,26.7300987 L36.0663586,36.216875 Z" id="Shape" fill="#0F0E9F"></path>
    </g>
</svg>