<?xml version="1.0" encoding="UTF-8"?>
<svg width="60px" height="40px" viewBox="0 0 60 40" version="1.1" xmlns="http://www.w3.org/2000/svg" xmlns:xlink="http://www.w3.org/1999/xlink">
    <!-- Generator: Sketch 55.2 (78181) - https://sketchapp.com -->
    <title>icon/icon-annualtrip</title>
    <desc>Created with Sketch.</desc>
    <g id="icon/icon-annualtrip" stroke="none" stroke-width="1" fill="none" fill-rule="evenodd" stroke-linejoin="round">
        <path d="M23.3126441,3.77682382 C23.0508472,3.16176522 22.5352222,2.69459725 21.8746949,2.48922616 C20.9083668,2.23692147 19.8901246,2.702566 19.4474488,3.59442147 C18.7244605,5.04690194 18.3467652,6.67323007 18.35573,8.29358163 L18.35573,23.9273902 C18.35573,23.9588551 18.3587183,23.9903199 18.3647535,24.0218433 L19.709773,30.9908668 C19.8232105,31.8067848 20.5296753,32.4208473 21.3520972,32.4208473 C21.3526246,32.4208473 21.3536207,32.4208473 21.3546168,32.4208473 C22.1780347,32.4208473 22.8840308,31.806316 22.9929566,31.0168824 L24.3419605,24.0219019 C24.3484644,23.9909058 24.3514527,23.9589723 24.3514527,23.9274488 L24.3514527,8.29258553 C24.3479371,6.72924569 23.9851832,5.15987069 23.3126441,3.77682382 Z M23.3521363,23.8789332 L22.0081128,30.8529371 C21.9631714,31.1771949 21.6818628,31.4215308 21.3530933,31.4215308 C21.0248511,31.4215308 20.7440113,31.1771949 20.6955543,30.8274488 L19.3555152,23.8794019 L19.3555152,8.29112069 C19.3475464,6.82369882 19.6887964,5.35323007 20.3428199,4.03914803 C20.5766675,3.56846444 21.1162574,3.32313241 21.5998902,3.44957772 C21.9571363,3.56102303 22.246941,3.82281991 22.4033277,4.19002694 C23.0209058,5.4616285 23.3486207,6.88059335 23.3521363,8.29358163 L23.3521363,23.8789332 L23.3521363,23.8789332 Z" id="Shape" stroke="#484848" stroke-width="0.3" fill="#484848" transform="translate(21.353513, 17.420950) rotate(-315.000000) translate(-21.353513, -17.420950) "></path>
        <path d="M20.7082409,7.1298661 C20.5568346,7.03945595 20.3684557,7.03594032 20.2145885,7.11984657 L8.22320182,13.6152567 C8.06183463,13.7026786 7.96140494,13.871077 7.96140494,14.0544169 L7.96140494,17.0522489 C7.96140494,17.2161356 8.04132682,17.3690067 8.17626823,17.4629325 C8.26122916,17.5214091 8.36066276,17.5518778 8.46109244,17.5518778 C8.52003776,17.5518778 8.57951041,17.5418583 8.63646354,17.520413 L20.6278503,13.0236356 C20.8227331,12.9502177 20.9521081,12.7638309 20.9521081,12.5554716 L20.9521081,7.55906532 C20.9521081,7.38322548 20.8596471,7.22033485 20.7082409,7.1298661 Z M19.9527917,12.2092411 L8.96066276,16.3313114 L8.96066276,14.3522489 L19.9527917,8.39853798 L19.9527917,12.2092411 Z" id="Shape" stroke="#484848" stroke-width="0.3" fill="#484848" transform="translate(14.456757, 12.305633) rotate(-315.000000) translate(-14.456757, -12.305633) "></path>
        <path d="M32.702415,25.6272131 L20.7110283,19.1318616 C20.556165,19.0484241 20.3687822,19.0514124 20.217376,19.1418811 C20.0664971,19.2318225 19.9735674,19.3947131 19.9735674,19.5710803 L19.9735674,24.5674866 C19.9735674,24.7758459 20.1024736,24.9627014 20.2973564,25.0356506 L32.2887432,29.532428 C32.3462236,29.5534045 32.4056377,29.5638928 32.4646416,29.5638928 C32.5650713,29.5638928 32.6645049,29.5338928 32.7484111,29.4749475 C32.8832939,29.3814905 32.9637432,29.2281506 32.9637432,29.0642639 L32.9637432,26.0664319 C32.9637432,25.8830334 32.8633135,25.714635 32.702415,25.6272131 Z M31.9649541,28.3432678 L20.9728252,24.2211975 L20.9728252,20.4099084 L31.9649541,26.3641467 L31.9649541,28.3432678 Z" id="Shape" stroke="#484848" stroke-width="0.3" fill="#484848" transform="translate(26.468655, 24.317729) rotate(-315.000000) translate(-26.468655, -24.317729) "></path>
        <path d="M17.8126899,9.57047645 C16.9862836,9.57047645 16.3137446,10.2430155 16.3137446,11.0694218 L16.3137446,12.5683671 L17.3130024,12.5683671 L17.3130024,11.0694218 C17.3130024,10.7940897 17.5373579,10.5697929 17.8126313,10.5697929 C18.0879047,10.5697929 18.3122602,10.7941483 18.3122602,11.0694218 L18.3122602,11.5690507 L19.311518,11.5690507 L19.311518,11.0694218 C19.3116352,10.2429569 18.6390961,9.57047645 17.8126899,9.57047645 Z" id="Path" stroke="#484848" stroke-width="0.3" fill="#484848" transform="translate(17.812631, 11.069422) rotate(-315.000000) translate(-17.812631, -11.069422) "></path>
        <path d="M12.8668647,8.15689818 C12.0404584,8.15689818 11.3679193,8.82943724 11.3679193,9.65584349 L11.3679193,11.1547888 L12.3671772,11.1547888 L12.3671772,9.65584349 C12.3671772,9.38057006 12.5915326,9.15668334 12.8668061,9.15668334 C13.1420795,9.15668334 13.366435,9.38051146 13.366435,9.65584349 L14.3656928,9.65584349 C14.36581,8.82943724 13.6932709,8.15689818 12.8668647,8.15689818 Z" id="Path" stroke="#484848" stroke-width="0.3" fill="#484848" transform="translate(12.866806, 9.655843) rotate(-315.000000) translate(-12.866806, -9.655843) "></path>
        <path d="M27.7050861,19.4628727 C26.8786799,19.4628727 26.2061408,20.1354118 26.2061408,20.961818 L26.2061408,21.4614469 L27.2053986,21.4614469 L27.2053986,20.961818 C27.2053986,20.686486 27.4292268,20.4621891 27.7050275,20.4621891 C27.9808283,20.4621891 28.2046564,20.6865446 28.2046564,20.961818 L28.2046564,22.4607633 L29.2039143,22.4607633 L29.2039143,20.961818 C29.2040314,20.1353532 28.5314924,19.4628727 27.7050861,19.4628727 Z" id="Path" stroke="#484848" stroke-width="0.3" fill="#484848" transform="translate(27.705028, 20.961818) rotate(-315.000000) translate(-27.705028, -20.961818) "></path>
        <path d="M29.1186644,24.4086979 C28.2922582,24.4086979 27.6197191,25.081237 27.6197191,25.9076432 L28.6189769,25.9076432 C28.6189769,25.6323698 28.842805,25.4084831 29.1186058,25.4084831 C29.3944066,25.4084831 29.6182347,25.6323112 29.6182347,25.9076432 L29.6182347,27.4065886 L30.6174925,27.4065886 L30.6174925,25.9076432 C30.6176097,25.081237 29.9450707,24.4086979 29.1186644,24.4086979 Z" id="Path" stroke="#484848" stroke-width="0.3" fill="#484848" transform="translate(29.118606, 25.907643) rotate(-315.000000) translate(-29.118606, -25.907643) "></path>
        <path d="M12.9913302,23.9292941 L7.57773643,24.8316379 L7.57773643,23.7059347 L12.3318575,20.8534738 L11.8176974,19.9965988 L6.82129112,22.9944308 C6.67088096,23.0843722 6.57894737,23.2467355 6.57894737,23.422634 L6.57894737,25.4212082 C6.57894737,25.5681027 6.64392784,25.7080246 6.7558419,25.8024191 C6.8467794,25.8793527 6.96121299,25.9208371 7.07863487,25.9208371 C7.10558799,25.9208371 7.13306846,25.9183176 7.16008018,25.9143332 L13.1558028,24.9150754 L12.9913302,23.9292941 Z" id="Path" stroke="#484848" stroke-width="0.3" fill="#484848" transform="translate(9.867375, 22.958718) rotate(-315.000000) translate(-9.867375, -22.958718) "></path>
        <path d="M18.8615617,28.9426092 L13.8651555,25.9447772 L13.3510539,26.8016522 L18.105175,29.6541131 L18.105175,30.7792889 L12.6910539,29.8769452 L12.5271672,30.8627264 L18.5228899,31.8619842 C18.5503703,31.866496 18.5773234,31.8689569 18.6048039,31.8689569 C18.7222258,31.8689569 18.8366594,31.8274725 18.9270695,31.7505389 C19.0395109,31.655617 19.1039641,31.5162225 19.1039641,31.369328 L19.1039641,29.3707538 C19.1039641,29.1954413 19.0119719,29.033078 18.8615617,28.9426092 Z" id="Path" stroke="#484848" stroke-width="0.3" fill="#484848" transform="translate(15.815566, 28.906867) rotate(-315.000000) translate(-15.815566, -28.906867) "></path>
        <g id="Group" transform="translate(33.052632, 14.947368)" fill="#484848" stroke="#484848" stroke-width="0.5">
            <path d="M12.1557978,-0.0961525437 C11.9812666,-0.506191606 11.6375166,-0.817636919 11.197165,-0.954550981 C10.5529463,-1.12275411 9.87411813,-0.812324419 9.57900094,-0.217754106 C9.09700876,0.750566206 8.84521188,1.83478496 8.85118844,2.91501933 L8.85118844,13.3375584 C8.85118844,13.358535 8.85318063,13.3795115 8.85720407,13.4005271 L9.75388376,18.0465428 C9.82950876,18.5904881 10.3004853,18.9998631 10.8487666,18.9998631 C10.8491181,18.9998631 10.8497822,18.9998631 10.8504463,18.9998631 C11.3993916,18.9998631 11.8700556,18.5901756 11.9426728,18.0638865 L12.8420088,13.4005662 C12.8463447,13.3799021 12.8483369,13.3586131 12.8483369,13.3375975 L12.8483369,2.91435527 C12.8459931,1.87212871 12.6041572,0.825878706 12.1557978,-0.0961525437 Z M12.1821259,13.3052537 L11.2861103,17.9545896 C11.2561494,18.1707615 11.0686103,18.3336521 10.8494306,18.3336521 C10.6306025,18.3336521 10.4433759,18.1707615 10.4110713,17.9375975 L9.51771188,13.3055662 L9.51771188,2.91337871 C9.51239938,1.93509746 9.73989938,0.954784956 10.175915,0.0787302688 C10.3318134,-0.235058794 10.69154,-0.398613481 11.0139619,-0.314316606 C11.2521259,-0.240019731 11.4453291,-0.0654884812 11.5495869,0.179316206 C11.9613056,1.02705058 12.1797822,1.97302714 12.1821259,2.91501933 L12.1821259,13.3052537 L12.1821259,13.3052537 Z" id="Shape" transform="translate(10.849711, 8.999932) rotate(-315.000000) translate(-10.849711, -8.999932) "></path>
            <path d="M10.419529,2.13920898 C10.3185915,2.07893554 10.1930056,2.07659179 10.0904274,2.13252929 L2.09616963,6.46280273 C1.98859151,6.52108398 1.92163838,6.63334961 1.92163838,6.75557617 L1.92163838,8.75413086 C1.92163838,8.86338867 1.97491963,8.96530273 2.06488057,9.02791992 C2.1215212,9.06690429 2.18781026,9.08721679 2.25476338,9.08721679 C2.29406026,9.08721679 2.3337087,9.08053711 2.37167745,9.06624023 L10.3659353,6.06838867 C10.4958571,6.01944336 10.5821071,5.89518554 10.5821071,5.75627929 L10.5821071,2.42534179 C10.5821071,2.30811523 10.5204665,2.19952148 10.419529,2.13920898 Z M9.9158962,5.52545898 L2.58781026,8.27350586 L2.58781026,6.95413086 L9.9158962,2.98499023 L9.9158962,5.52545898 Z" id="Shape" transform="translate(6.251873, 5.589721) rotate(-315.000000) translate(-6.251873, -5.589721) "></path>
            <path d="M18.4156451,14.4707737 L10.4213873,10.1405393 C10.3181451,10.0849143 10.1932232,10.0869065 10.0922857,10.147219 C9.9916998,10.2071799 9.92974668,10.3157737 9.92974668,10.4333518 L9.92974668,13.7642893 C9.92974668,13.9031955 10.0156842,14.0277659 10.1456061,14.0763987 L18.1398639,17.0742502 C18.1781842,17.0882346 18.2177936,17.0952268 18.2571295,17.0952268 C18.3240826,17.0952268 18.3903717,17.0752268 18.4463092,17.0359299 C18.5362311,16.9736252 18.5898639,16.8713987 18.5898639,16.7621409 L18.5898639,14.7635862 C18.5898639,14.6413205 18.5229107,14.5290549 18.4156451,14.4707737 Z M17.9240045,16.2814768 L10.5959186,13.5334299 L10.5959186,10.9925705 L17.9240045,14.9620627 L17.9240045,16.2814768 Z" id="Shape" transform="translate(14.259805, 13.597784) rotate(-315.000000) translate(-14.259805, -13.597784) "></path>
            <path d="M8.48916168,3.76628255 C7.93822418,3.76628255 7.4898648,4.21464192 7.4898648,4.76557942 L7.4898648,5.7648763 L8.15603668,5.7648763 L8.15603668,4.76557942 C8.15603668,4.58202473 8.30560699,4.43249348 8.48912262,4.43249348 C8.67263824,4.43249348 8.82220855,4.5820638 8.82220855,4.76557942 L8.82220855,5.09866536 L9.48838043,5.09866536 L9.48838043,4.76557942 C9.48845855,4.21460286 9.04009918,3.76628255 8.48916168,3.76628255 Z" id="Path" transform="translate(8.489123, 4.765579) rotate(-315.000000) translate(-8.489123, -4.765579) "></path>
            <path d="M5.19194486,2.82389703 C4.64100736,2.82389703 4.19264798,3.27225641 4.19264798,3.82319391 L4.19264798,4.82249078 L4.85881986,4.82249078 L4.85881986,3.82319391 C4.85881986,3.63967828 5.00839017,3.49042047 5.19190579,3.49042047 C5.37542142,3.49042047 5.52499173,3.63963922 5.52499173,3.82319391 L6.19116361,3.82319391 C6.19124173,3.27225641 5.74288236,2.82389703 5.19194486,2.82389703 Z" id="Path" transform="translate(5.191906, 3.823194) rotate(-315.000000) translate(-5.191906, -3.823194) "></path>
            <path d="M15.0840925,10.3612134 C14.533155,10.3612134 14.0847956,10.8095728 14.0847956,11.3605103 L14.0847956,11.6935962 L14.7509675,11.6935962 L14.7509675,11.3605103 C14.7509675,11.1769556 14.9001863,11.0274243 15.0840534,11.0274243 C15.2679206,11.0274243 15.4171394,11.1769946 15.4171394,11.3605103 L15.4171394,12.3598071 L16.0833113,12.3598071 L16.0833113,11.3605103 C16.0833894,10.8095337 15.63503,10.3612134 15.0840925,10.3612134 Z" id="Path" transform="translate(15.084053, 11.360510) rotate(-315.000000) translate(-15.084053, -11.360510) "></path>
            <path d="M16.026478,13.6584302 C15.4755405,13.6584302 15.0271812,14.1067896 15.0271812,14.6577271 L15.693353,14.6577271 C15.693353,14.4742115 15.8425718,14.3249536 16.026439,14.3249536 C16.2103062,14.3249536 16.3595249,14.4741724 16.3595249,14.6577271 L16.3595249,15.657024 L17.0256968,15.657024 L17.0256968,14.6577271 C17.0257749,14.1067896 16.5774155,13.6584302 16.026478,13.6584302 Z" id="Path" transform="translate(16.026439, 14.657727) rotate(-315.000000) translate(-16.026439, -14.657727) "></path>
            <path d="M5.27492187,13.3388277 L1.66585937,13.9403902 L1.66585937,13.1899214 L4.83527344,11.2882808 L4.4925,10.7170308 L1.1615625,12.7155855 C1.06128906,12.7755464 1,12.8837886 1,13.0010542 L1,14.333437 C1,14.4313667 1.04332031,14.524648 1.11792969,14.5875777 C1.17855469,14.6388667 1.25484375,14.666523 1.333125,14.666523 C1.35109375,14.666523 1.36941406,14.6648433 1.38742187,14.662187 L5.38457031,13.9960152 L5.27492187,13.3388277 Z" id="Path" transform="translate(3.192285, 12.691777) rotate(-315.000000) translate(-3.192285, -12.691777) "></path>
            <path d="M9.18840957,16.6810377 L5.85747207,14.682483 L5.5147377,15.253733 L8.68415176,17.1553737 L8.68415176,17.9054909 L5.0747377,17.3039284 L4.96547988,17.9611159 L8.96262832,18.6272877 C8.98094863,18.6302955 8.99891738,18.6319362 9.0172377,18.6319362 C9.09551895,18.6319362 9.17180801,18.6042799 9.23208145,18.5529909 C9.30704238,18.4897096 9.35001113,18.3967799 9.35001113,18.2988502 L9.35001113,16.9664674 C9.35001113,16.8495924 9.28868301,16.7413502 9.18840957,16.6810377 Z" id="Path" transform="translate(7.157746, 16.657210) rotate(-315.000000) translate(-7.157746, -16.657210) "></path>
        </g>
    </g>
</svg>