<?xml version="1.0" encoding="UTF-8"?>
<svg width="75px" height="25px" viewBox="0 0 75 25" version="1.1" xmlns="http://www.w3.org/2000/svg" xmlns:xlink="http://www.w3.org/1999/xlink">
    <!-- Generator: Sketch 55.2 (78181) - https://sketchapp.com -->
    <title>icon/icon-appstore</title>
    <desc>Created with Sketch.</desc>
    <g id="icon/icon-appstore" stroke="none" stroke-width="1" fill="none" fill-rule="evenodd">
        <g id="App-Store-Badge-US-Black-2" fill-rule="nonzero">
            <g id="App-Store-Badge-US-Black">
                <path d="M68.8342313,-8.125e-05 L5.959175,-8.125e-05 C5.7299875,-8.125e-05 5.50355,-8.125e-05 5.27496875,0.00125 C5.083625,0.0025 4.89380625,0.00613125 4.700625,0.0091875 C4.28094605,0.0141261273 3.86225404,0.0510476624 3.4481875,0.11963125 C3.03470255,0.189707892 2.63417032,0.321822338 2.2601375,0.51150625 C1.88656213,0.70279482 1.54521564,0.951354706 1.24848125,1.24816875 C0.950189061,1.54414812 0.701539488,1.88626024 0.51209375,2.26135 C0.322125151,2.6356932 0.190400311,3.03683643 0.12146875,3.450925 C0.0518818382,3.86449057 0.0144364879,4.28282534 0.00946875,4.702175 C0.00366875,4.8938 0.00305625,5.0860625 0,5.2777125 L0,19.724125 C0.00305625,19.9181875 0.00366875,20.1061875 0.00946875,20.3003125 C0.0144380113,20.7196414 0.0518833622,21.1379552 0.12146875,21.5515 C0.190209971,21.9658306 0.321942599,22.3672042 0.51209375,22.7416875 C0.701453469,23.1155643 0.950138008,23.4562914 1.24848125,23.750625 C1.54409051,24.0487588 1.88565765,24.2974878 2.2601375,24.4873125 C2.63416748,24.6775041 3.03465653,24.8104049 3.4481875,24.8815625 C3.86232443,24.9495967 4.28097338,24.9865332 4.700625,24.9920625 C4.89380625,24.9963125 5.083625,24.99875 5.27496875,24.99875 C5.50354375,25 5.73,25 5.959175,25 L68.8342313,25 C69.0588563,25 69.2871063,25 69.5117313,24.99875 C69.7021688,24.99875 69.8974813,24.9963125 70.0879188,24.9920625 C70.506777,24.9868273 70.9246378,24.9498884 71.3379188,24.8815625 C71.7527838,24.809904 72.1547086,24.6770384 72.5305438,24.4873125 C72.9046859,24.2973779 73.2459377,24.0486557 73.5412938,23.750625 C73.8388672,23.4551386 74.0880828,23.1146608 74.2797938,22.7416875 C74.4685181,22.3669317 74.5989967,21.9655903 74.6667312,21.5515 C74.736428,21.1378985 74.7752021,20.7196777 74.7827312,20.3003125 C74.7851688,20.1061875 74.7851688,19.9181875 74.7851688,19.724125 C74.7900438,19.4970625 74.7900438,19.27125 74.7900438,19.0405 L74.7900438,5.96008125 C74.7900438,5.7312 74.7900438,5.50415 74.7851688,5.2777125 C74.7851688,5.0860625 74.7851688,4.8938 74.7827312,4.70215 C74.7752036,4.28276403 74.7364296,3.86452229 74.6667313,3.4509 C74.5988079,3.037051 74.4683369,2.63593955 74.2797938,2.261325 C73.8939964,1.50949755 73.2822333,0.897515873 72.5305438,0.51145 C72.1547075,0.322229613 71.7527397,0.190150256 71.3379188,0.119575 C70.9247093,0.0506892395 70.5068049,0.0137548531 70.0879188,0.0091 C69.8974813,0.00605 69.7021688,0.0023875 69.5117313,0.00116875 C69.2871063,-8.125e-05 69.0588563,-8.125e-05 68.8342313,-8.125e-05 L68.8342313,-8.125e-05 Z" id="Background-Gray" fill="#A6A6A6"></path>
                <path d="M5.27801875,24.453125 C5.08759375,24.453125 4.90176875,24.4506875 4.7128375,24.4464375 C4.32145111,24.441338 3.93097948,24.4072657 3.544625,24.3445 C3.18436894,24.2824551 2.83537765,24.1670403 2.5091625,24.0020625 C2.18593857,23.8384517 1.89113235,23.6239205 1.6360375,23.3666875 C1.3772502,23.1124845 1.16179796,22.8176525 0.99821875,22.493875 C0.832837038,22.1679932 0.718383051,21.8186872 0.65884375,21.458125 C0.594546474,21.0706968 0.559758983,20.6789458 0.55478125,20.28625 C0.55081875,20.1544375 0.54563125,19.7155625 0.54563125,19.7155625 L0.54563125,5.2777125 C0.54563125,5.2777125 0.55115625,4.84558125 0.5548125,4.718625 C0.559578642,4.32655128 0.594163842,3.93540819 0.65826875,3.54858125 C0.717917952,3.1870313 0.832460545,2.83671804 0.99793125,2.50976875 C1.16090927,2.18621491 1.37516536,1.89116268 1.63239375,1.63605 C1.88933302,1.37851339 2.18508226,1.16287757 2.50885625,0.99700625 C2.83432167,0.832558502 3.1826534,0.717957841 3.54218125,0.65704375 C3.92980458,0.593647587 4.32163177,0.559372553 4.714375,0.55450625 L5.278325,0.546875 L69.5086687,0.546875 L70.0793563,0.5548125 C70.4685271,0.559436999 70.8567949,0.593406254 71.2408563,0.65643125 C71.6040237,0.718109418 71.9559856,0.833509709 72.2851688,0.9988375 C72.9338053,1.33311628 73.4615884,1.86197684 73.7945438,2.51129375 C73.9573733,2.83598598 74.0701491,3.18344172 74.1290438,3.54186875 C74.193912,3.93186961 74.2302168,4.32608646 74.2376687,4.721375 C74.2394813,4.898375 74.2394813,5.0885 74.2394813,5.2777125 C74.2444188,5.5120875 74.2444188,5.73516875 74.2444188,5.96008125 L74.2444188,19.0405 C74.2444188,19.2675625 74.2444188,19.489125 74.2394813,19.7125 C74.2394813,19.91575 74.2394813,20.1019375 74.2370437,20.2935625 C74.2297531,20.6817973 74.1940536,21.0689777 74.1302313,21.452 C74.0719123,21.8151632 73.9580815,22.1671957 73.7927312,22.49575 C73.6279957,22.8160132 73.4137807,23.1082914 73.1579812,23.3618125 C72.9026569,23.6204279 72.6073304,23.8362142 72.2833562,24.000875 C71.955085,24.167121 71.6036412,24.2829627 71.2408562,24.3445 C70.854531,24.4076006 70.4640219,24.4416751 70.0726062,24.4464375 C69.8895437,24.4506875 69.6978562,24.453125 69.5117312,24.453125 L68.8342312,24.454375 L5.27801875,24.453125 Z" id="Background-Black" fill="#000000"></path>
                <path d="M26.4389187,16.9622813 L23.4805438,16.9622813 L22.7700938,19.0600625 L21.5170437,19.0600625 L24.3191687,11.2988125 L25.6210437,11.2988125 L28.4231687,19.0600625 L27.14875,19.0600625 L26.4389187,16.9622813 Z M23.7869375,15.9942625 L26.1319375,15.9942625 L24.9759313,12.5897187 L24.9435813,12.5897187 L23.7869375,15.9942625 Z M34.4748063,16.2310812 C34.4748063,17.9895062 33.5336438,19.1192625 32.1133563,19.1192625 C31.379222,19.1576654 30.6877078,18.7731442 30.3329625,18.1292625 L30.3060875,18.1292625 L30.3060875,20.932 L29.1445875,20.932 L29.1445875,13.4014875 L30.268875,13.4014875 L30.268875,14.34265 L30.2902375,14.34265 C30.6607427,13.7028049 31.3530027,13.3184493 32.0919938,13.3422812 C33.528125,13.3422875 34.4748063,14.4775375 34.4748063,16.2310812 Z M33.2809563,16.2310812 C33.2809563,15.0854562 32.6889125,14.332275 31.7855938,14.332275 C30.8981438,14.332275 30.3012188,15.1013187 30.3012188,16.2310812 C30.3012188,17.3712187 30.8981438,18.1347687 31.7855938,18.1347687 C32.6889188,18.1347687 33.2809563,17.3870875 33.2809563,16.2310812 Z M40.7028313,16.2310812 C40.7028313,17.9895062 39.7616687,19.1192625 38.3413812,19.1192625 C37.607247,19.1576654 36.9157328,18.7731442 36.5609875,18.1292625 L36.5341125,18.1292625 L36.5341125,20.932 L35.3726125,20.932 L35.3726125,13.4014875 L36.496875,13.4014875 L36.496875,14.34265 L36.5182375,14.34265 C36.8887454,13.7028053 37.581008,13.3184519 38.32,13.3422875 C39.756175,13.3422875 40.7028313,14.4775375 40.7028313,16.2310812 Z M39.5089875,16.2310812 C39.5089875,15.0854562 38.9169375,14.332275 38.0136187,14.332275 C37.1261688,14.332275 36.5292437,15.1013187 36.5292437,16.2310812 C36.5292437,17.3712187 37.1261688,18.1347687 38.0136187,18.1347687 C38.9169438,18.1347687 39.5089875,17.3870875 39.5089875,16.2310812 L39.5089875,16.2310812 Z M44.8190437,16.8975812 C44.9051062,17.6672375 45.6527938,18.1725812 46.6745125,18.1725812 C47.6535188,18.1725812 48.3578625,17.6672125 48.3578625,16.9732375 C48.3578625,16.3708187 47.9330563,16.0101125 46.9272,15.7629125 L45.9213437,15.5206 C44.496175,15.1763625 43.83455,14.5098562 43.83455,13.4283125 C43.83455,12.0892 45.0015437,11.1694 46.6586437,11.1694 C48.2986437,11.1694 49.422925,12.0892 49.4607687,13.4283125 L48.2882688,13.4283125 C48.2180812,12.653775 47.5778187,12.18625 46.64215,12.18625 C45.7064812,12.18625 45.066225,12.659275 45.066225,13.34775 C45.066225,13.8964562 45.4751625,14.2193312 46.475525,14.4665 L47.330625,14.6764625 C48.9230312,15.05305 49.5846562,15.6927125 49.5846562,16.82795 C49.5846562,18.279975 48.4280375,19.1894 46.5884375,19.1894 C44.8672438,19.1894 43.7051375,18.3013375 43.6300625,16.897525 L44.8190437,16.8975812 Z M52.0913813,12.062375 L52.0913813,13.4014875 L53.1674313,13.4014875 L53.1674313,14.3212875 L52.0913813,14.3212875 L52.0913813,17.4407937 C52.0913813,17.9254125 52.3068375,18.1512437 52.7798563,18.1512437 C52.9076009,18.1490162 53.0351388,18.1400454 53.1619375,18.1243688 L53.1619375,19.038675 C52.9492677,19.0784122 52.7331068,19.0964091 52.5167938,19.0923875 C51.3711688,19.0923875 50.9243875,18.6620875 50.9243875,17.564675 L50.9243875,14.3212875 L50.1016375,14.3212875 L50.1016375,13.4014875 L50.924375,13.4014875 L50.924375,12.062375 L52.0913813,12.062375 Z M53.790625,16.2310812 C53.790625,14.4506875 54.8392062,13.3319125 56.4743437,13.3319125 C58.1149687,13.3319125 59.1586687,14.4506625 59.1586687,16.2310812 C59.1586687,18.0163625 58.1204625,19.13025 56.4743437,19.13025 C54.8288062,19.13025 53.790625,18.0163562 53.790625,16.2310812 Z M57.9751938,16.2310812 C57.9751938,15.0097687 57.4155,14.2889437 56.4743375,14.2889437 C55.533175,14.2889437 54.9740938,15.0152625 54.9740938,16.2310812 C54.9740938,17.457275 55.533175,18.1726125 56.4743375,18.1726125 C57.4155,18.1726125 57.9751938,17.457275 57.9751938,16.2310812 L57.9751938,16.2310812 Z M60.1162812,13.4014875 L61.224075,13.4014875 L61.224075,14.3646125 L61.25095,14.3646125 C61.405435,13.7446053 61.9735328,13.3178947 62.6120312,13.342275 C62.7458838,13.3418076 62.879367,13.3563442 63.0099812,13.3856125 L63.0099812,14.4720375 C62.8410006,14.4204021 62.6647248,14.3966946 62.4881063,14.40185 C62.1466364,14.3879971 61.8161693,14.5240842 61.5834759,14.7743787 C61.3507825,15.0246733 61.2391104,15.3641692 61.2777812,15.703725 L61.2777812,19.06005 L60.1162812,19.06005 L60.1162812,13.4014875 Z M68.3651875,17.3980688 C68.2089375,18.4252875 67.2085687,19.1302437 65.9286625,19.1302437 C64.2825438,19.1302437 63.2608187,18.0273375 63.2608187,16.2579312 C63.2608187,14.4830312 64.2880375,13.3319062 65.8798375,13.3319062 C67.4453875,13.3319062 68.4298875,14.4073437 68.4298875,16.1230437 L68.4298875,16.5209937 L64.4333063,16.5209937 L64.4333063,16.5911812 C64.3959921,17.012451 64.5414572,17.4294497 64.8326999,17.7361062 C65.1239427,18.0427628 65.5328922,18.2095208 65.955525,18.1939625 C66.5191764,18.2467748 67.0505894,17.923111 67.2622875,17.3980625 L68.3651875,17.3980688 Z M64.438789,15.7092312 L67.267775,15.7092312 C67.2888534,15.3306859 67.1510603,14.9605144 66.8875938,14.6878947 C66.6241272,14.415275 66.2588755,14.2649253 65.8798375,14.2730688 C65.4978011,14.2707889 65.1306817,14.4212091 64.8600785,14.6908958 C64.5894752,14.9605824 64.4378102,15.3271893 64.438789,15.7092312 L64.438789,15.7092312 Z" id="App-Store" fill="#FFFFFF"></path>
                <path d="M23.6413687,5.456875 C24.1344603,5.42149011 24.6174327,5.60909214 24.9573508,5.96804489 C25.2972689,6.32699763 25.4583037,6.81946549 25.3961312,7.3099 C25.3961312,8.50130625 24.7522125,9.18615 23.6413687,9.18615 L22.294325,9.18615 L22.294325,5.456875 L23.6413687,5.456875 Z M22.8735437,8.65875 L23.5766687,8.65875 C23.9290575,8.67981375 24.2721791,8.54097438 24.5107616,8.28078237 C24.7493441,8.02059036 24.8579873,7.66674651 24.806525,7.3175 C24.8542431,6.96970283 24.7440354,6.61877888 24.5060444,6.36070874 C24.2680535,6.10263859 23.9271848,5.96442894 23.5766687,5.98388125 L22.8735437,5.98388125 L22.8735437,8.65875 Z M26.050425,7.7777125 C26.002167,7.27326566 26.2440523,6.78506996 26.674635,6.51787335 C27.1052176,6.25067675 27.6500511,6.25067675 28.0806338,6.51787335 C28.5112165,6.78506996 28.7531018,7.27326566 28.7048438,7.7777125 C28.75402,8.28270141 28.5123554,8.77184399 28.081391,9.03961581 C27.6504265,9.30738764 27.1048422,9.30738764 26.6738778,9.03961581 C26.2429133,8.77184399 26.0012488,8.28270141 26.050425,7.7777125 Z M28.1335563,7.7777125 C28.1335563,7.16766875 27.8595,6.81091875 27.37855,6.81091875 C26.8957625,6.81091875 26.624175,7.16766875 26.624175,7.77771875 C26.624175,8.39265 26.8957813,8.74665 27.37855,8.74665 C27.8595125,8.74665 28.1335563,8.3902 28.1335563,7.7777125 L28.1335563,7.7777125 Z M32.2332875,9.18609375 L31.6571187,9.18609375 L31.0754562,7.1133375 L31.0315125,7.1133375 L30.4522875,9.18609375 L29.8816062,9.18609375 L29.10585,6.3717625 L29.6692062,6.3717625 L30.1733562,8.5192625 L30.2148625,8.5192625 L30.793475,6.3717625 L31.3263125,6.3717625 L31.904925,8.5192625 L31.9488687,8.5192625 L32.450575,6.3717625 L33.0059937,6.3717625 L32.2332875,9.18609375 Z M33.6584563,6.3717625 L34.193125,6.3717625 L34.193125,6.81884375 L34.2346313,6.81884375 C34.3789655,6.48967371 34.716233,6.28831717 35.074475,6.3174375 C35.3518605,6.29658236 35.6236787,6.40299369 35.8131817,6.60662629 C36.0026848,6.8102589 36.0893082,7.08901485 36.0485938,7.3641875 L36.0485938,9.1860625 L35.493175,9.1860625 L35.493175,7.5036625 C35.493175,7.05139375 35.2966438,6.826475 34.885875,6.826475 C34.6977286,6.81771195 34.5151376,6.89155161 34.3859716,7.02863549 C34.2568056,7.16571937 34.1939469,7.35237563 34.213875,7.53966875 L34.213875,9.18609375 L33.6584563,9.18609375 L33.6584563,6.3717625 Z M36.9336063,5.273125 L37.489025,5.273125 L37.489025,9.1860875 L36.9336063,9.1860875 L36.9336063,5.273125 Z M38.2611188,7.7777125 C38.2128978,7.27323266 38.4548213,6.7850246 38.8854359,6.51782388 C39.3160505,6.25062315 39.860912,6.25062315 40.2915266,6.51782388 C40.7221412,6.7850246 40.9640647,7.27323266 40.9158438,7.7777125 C40.9649575,8.28271949 40.7232487,8.77184824 40.2922628,9.03960828 C39.861277,9.30736831 39.3156855,9.30736831 38.8846997,9.03960828 C38.4537138,8.77184824 38.212005,8.28271949 38.2611188,7.7777125 L38.2611188,7.7777125 Z M40.34425,7.7777125 C40.34425,7.16766875 40.0701938,6.81091875 39.5892438,6.81091875 C39.1064563,6.81091875 38.8348688,7.16766875 38.8348688,7.77771875 C38.8348688,8.39265 39.106475,8.74665 39.5892438,8.74665 C40.0702,8.74665 40.34425,8.3902 40.34425,7.7777125 L40.34425,7.7777125 Z M41.5005625,8.3902 C41.5005625,7.88360625 41.8777625,7.59155625 42.5473125,7.55005 L43.3096437,7.50610625 L43.3096437,7.2631875 C43.3096437,6.96594375 43.1131125,6.7981 42.733475,6.7981 C42.4234188,6.7981 42.208575,6.91193125 42.146925,7.11090625 L41.6092063,7.11090625 C41.6659688,6.62750625 42.1206813,6.31745 42.7591063,6.31745 C43.464675,6.31745 43.862625,6.6687 43.862625,7.2631875 L43.862625,9.1861 L43.3279563,9.1861 L43.3279563,8.79059375 L43.2840125,8.79059375 C43.1024179,9.07942271 42.7794835,9.24822702 42.438675,9.23246875 C42.1997601,9.25731988 41.961482,9.17994416 41.7827474,9.01947028 C41.6040128,8.85899639 41.5015038,8.63040207 41.5005625,8.3902 L41.5005625,8.3902 Z M43.3096437,8.14971875 L43.3096437,7.91443125 L42.6223875,7.958375 C42.2348125,7.9843125 42.0590312,8.11615 42.0590312,8.36425625 C42.0590312,8.61755 42.2787563,8.76495 42.5809062,8.76495 C42.7597725,8.78305616 42.938329,8.72779691 43.0757002,8.61182224 C43.2130715,8.49584758 43.2974948,8.32908816 43.3096437,8.14971875 Z M44.5926,7.7777125 C44.5926,6.88843125 45.0497563,6.325075 45.7608125,6.325075 C46.1198605,6.30853133 46.4561422,6.50092054 46.62385,6.818825 L46.6653562,6.818825 L46.6653562,5.273125 L47.220775,5.273125 L47.220775,9.1860875 L46.68855,9.1860875 L46.68855,8.74144375 L46.6446062,8.74144375 C46.4642214,9.05671061 46.1237966,9.2458478 45.7608187,9.23246875 C45.044875,9.2325 44.5926,8.66913125 44.5926,7.7777125 Z M45.16635,7.7777125 C45.16635,8.3746375 45.447725,8.73383125 45.9183063,8.73383125 C46.3864313,8.73383125 46.67575,8.36945625 46.67575,7.78015625 C46.67575,7.19360625 46.3833938,6.8240375 45.9183063,6.8240375 C45.4507563,6.8240375 45.1663313,7.18566875 45.1663313,7.7777125 L45.16635,7.7777125 Z M49.51875,7.7777125 C49.470492,7.27326566 49.7123773,6.78506996 50.14296,6.51787335 C50.5735426,6.25067675 51.1183761,6.25067675 51.5489588,6.51787335 C51.9795415,6.78506996 52.2214268,7.27326566 52.1731688,7.7777125 C52.222345,8.28270141 51.9806804,8.77184399 51.549716,9.03961581 C51.1187515,9.30738764 50.5731672,9.30738764 50.1422028,9.03961581 C49.7112383,8.77184399 49.4695738,8.28270141 49.51875,7.7777125 L49.51875,7.7777125 Z M51.601875,7.7777125 C51.601875,7.16766875 51.327825,6.81091875 50.846875,6.81091875 C50.3640875,6.81091875 50.0925,7.16766875 50.0925,7.77771875 C50.0925,8.39265 50.3641063,8.74665 50.846875,8.74665 C51.3278313,8.74665 51.601875,8.3902 51.601875,7.7777125 Z M52.9184062,6.3717625 L53.453075,6.3717625 L53.453075,6.81884375 L53.4945812,6.81884375 C53.6389155,6.48967371 53.976183,6.28831717 54.334425,6.3174375 C54.6118105,6.29658236 54.8836287,6.40299369 55.0731317,6.60662629 C55.2626348,6.8102589 55.3492582,7.08901485 55.3085438,7.3641875 L55.3085438,9.1860625 L54.753125,9.1860625 L54.753125,7.5036625 C54.753125,7.05139375 54.5565937,6.826475 54.145825,6.826475 C53.9576786,6.81771195 53.7750876,6.89155161 53.6459216,7.02863549 C53.5167556,7.16571937 53.4538969,7.35237563 53.473825,7.53966875 L53.473825,9.18609375 L52.9184062,9.18609375 L52.9184062,6.3717625 Z M58.446975,5.67108125 L58.446975,6.38458125 L59.0567188,6.38458125 L59.0567188,6.85241875 L58.446975,6.85241875 L58.446975,8.2995625 C58.446975,8.5943625 58.5684375,8.72345 58.844925,8.72345 C58.9157097,8.72322346 58.9864234,8.71894354 59.0567188,8.71063125 L59.0567188,9.173275 C58.9569747,9.1911192 58.855916,9.20061253 58.7545937,9.20165625 C58.1369187,9.20165625 57.8909437,8.98436875 57.8909437,8.44176875 L57.8909437,6.85239375 L57.4441688,6.85239375 L57.4441688,6.38455625 L57.8909437,6.38455625 L57.8909437,5.67108125 L58.446975,5.67108125 Z M59.8153813,5.273125 L60.3659188,5.273125 L60.3659188,6.82403125 L60.4098625,6.82403125 C60.5611299,6.49198035 60.9043001,6.29036721 61.2679875,6.31988125 C61.5437979,6.3048733 61.8119365,6.41362732 61.9993683,6.61652116 C62.1868001,6.819415 62.2740031,7.09531602 62.237225,7.369075 L62.237225,9.18609375 L61.68125,9.18609375 L61.68125,7.50609375 C61.68125,7.05656875 61.471875,6.82890625 61.0794438,6.82890625 C60.8862119,6.81305854 60.6958369,6.88330685 60.559214,7.02087094 C60.422591,7.15843503 60.3536512,7.34928769 60.370825,7.54240625 L60.370825,9.18609375 L59.8154063,9.18609375 L59.8153813,5.273125 Z M65.4757812,8.42620625 C65.3200356,8.95706843 64.8063118,9.3000644 64.2563,9.2404125 C63.8810275,9.25031887 63.5203696,9.09476919 63.2700177,8.81503448 C63.0196657,8.53529977 62.904929,8.15965996 62.95625,7.78778125 C62.9062921,7.41486905 63.0205989,7.03862733 63.2695568,6.75652935 C63.5185147,6.47443136 63.8776263,6.31423547 64.2538562,6.31744375 C65.0369375,6.31744375 65.50935,6.85244375 65.50935,7.73619375 L65.50935,7.93 L63.5220437,7.93 L63.5220437,7.961125 C63.5044575,8.16996259 63.5757817,8.37652984 63.7184755,8.53002544 C63.8611693,8.68352103 64.0619924,8.76970245 64.2715563,8.767375 C64.5432887,8.79999668 64.8078016,8.66520815 64.9411125,8.4261875 L65.4757812,8.42620625 Z M63.5220313,7.519225 L64.9435375,7.519225 C64.9576956,7.32822527 64.8905365,7.14012817 64.7586106,7.00128693 C64.6266846,6.8624457 64.4422609,6.78577264 64.2507875,6.7901625 C64.05672,6.78772432 63.8698925,6.86376327 63.7326852,7.00103055 C63.5954779,7.13829783 63.5195207,7.32515858 63.5220438,7.519225 L63.5220313,7.519225 Z" id="Download-on-the" fill="#FFFFFF"></path>
                <path d="M15.48055,12.687925 C15.4942106,11.6276307 16.0500768,10.6482413 16.9534,10.0928875 C16.3809454,9.27532048 15.456495,8.77554897 14.458925,8.7443375 C13.4094,8.634175 12.3919312,9.37235625 11.8571125,9.37235625 C11.3119437,9.37235625 10.4885062,8.755275 9.6018,8.77351875 C8.43512579,8.81121151 7.37383573,9.45845342 6.806225,10.4784375 C5.597475,12.5712 6.49909375,15.6468563 7.656975,17.3384875 C8.2362875,18.1668313 8.9133375,19.0921125 9.79924375,19.0593 C10.6661562,19.0233437 10.9899312,18.5065 12.0363688,18.5065 C13.0730937,18.5065 13.3768625,19.0593 14.2807438,19.0384375 C15.2109813,19.0233375 15.797075,18.2064125 16.3560625,17.370225 C16.7722976,16.7799998 17.0925898,16.1276725 17.305075,15.4374063 C16.2002354,14.9701133 15.4818395,13.8875215 15.48055,12.687925 L15.48055,12.687925 Z M13.7732813,7.63180625 C14.2804854,7.02292619 14.5303656,6.24031403 14.4698562,5.45016875 C13.6949611,5.53155655 12.9791751,5.90190605 12.4651187,6.487425 C11.9575117,7.06511814 11.7003591,7.82089542 11.7503,8.58829375 C12.5355855,8.59637923 13.2811976,8.24384576 13.7732813,7.63180625 L13.7732813,7.63180625 Z" id="Icon" fill="#FFFFFF"></path>
            </g>
        </g>
    </g>
</svg>