<?xml version="1.0" encoding="UTF-8"?>
<svg width="60px" height="40px" viewBox="0 0 60 40" version="1.1" xmlns="http://www.w3.org/2000/svg" xmlns:xlink="http://www.w3.org/1999/xlink">
    <!-- Generator: Sketch 55.2 (78181) - https://sketchapp.com -->
    <title>icon/icon-invididual-active</title>
    <desc>Created with Sketch.</desc>
    <g id="icon/icon-invididual-active" stroke="none" stroke-width="1" fill="none" fill-rule="evenodd">
        <path d="M32.1849231,7.30824242 C32.1849231,8.58309091 31.1356308,9.61648485 29.8423692,9.61648485 C28.5479077,9.61648485 27.4986154,8.58309091 27.4986154,7.30824242 C27.4986154,6.03339394 28.5479077,5 29.8423692,5 C31.1356308,5 32.1849231,6.03339394 32.1849231,7.30824242" id="Path-Copy" fill="#0F0E9F"></path>
        <path d="M32.4963077,10.2378788 L27.1609231,10.2343279 C25.4085231,10.2343279 24,11.6713582 24,13.4634188 L24,21.1006915 C24,21.8428733 24.5408615,22.2145703 25.0805231,22.2145703 C25.6213846,22.2145703 26.1610462,21.8428733 26.1610462,21.1006915 L26.1634502,14.3546309 C26.1634502,14.2185036 26.3305178,14.0539673 26.4687394,14.0539673 C26.6069609,14.0539673 26.7740286,14.2185036 26.7740286,14.3546309 L26.7812403,33.4667521 C26.7812403,34.4456915 27.4555172,34.9274491 28.1382249,34.9346477 C28.8389326,34.9404891 29.5504711,34.4445097 29.5504711,33.4667521 L29.5372498,22.3873582 C29.5372498,22.2512309 29.7043175,22.0866945 29.8425391,22.0866945 C29.9807606,22.0866945 30.1478283,22.2512309 30.1478283,22.3873582 L30.1550397,33.4667521 C30.1550397,34.4302976 30.8509474,34.9262673 31.5468551,34.9346477 C32.2427628,34.9416727 32.9386705,34.4599036 32.9386705,33.4667521 L32.9338628,14.3746309 C32.9338628,14.2385036 33.1009305,14.0739673 33.239152,14.0739673 C33.3773735,14.0739673 33.5444412,14.2385036 33.5444412,14.3746309 L33.5468452,21.0991764 C33.5468452,21.8472976 34.0841068,22.2213279 34.6213683,22.2213279 C35.1586298,22.2213279 35.6946914,21.8472673 35.6934914,21.0991764 L35.6958954,13.5079642 C35.6958954,11.8566915 34.4194646,10.2373582 32.4965108,10.2373582 L32.4963077,10.2378788 Z" id="Path-Copy-2" fill="#0F0E9F"></path>
    </g>
</svg>