<?xml version="1.0" encoding="UTF-8"?>
<svg width="60px" height="60px" viewBox="0 0 60 60" version="1.1" xmlns="http://www.w3.org/2000/svg" xmlns:xlink="http://www.w3.org/1999/xlink">
    <!-- Generator: Sketch 55.2 (78181) - https://sketchapp.com -->
    <title>icon/icon-safe</title>
    <desc>Created with Sketch.</desc>
    <g id="icon/icon-safe" stroke="none" stroke-width="1" fill="none" fill-rule="evenodd">
        <g id="Group-10" transform="translate(7.000000, 2.000000)">
            <path d="M16.2005825,26 L30.6093046,26 C31.6153921,21.9926903 30.6783827,19.2187901 27.7982762,17.6782994 C26.7082467,15.0348637 29.6091401,11.7547846 23.6002912,11 C17.3428173,11 20.6872941,16.2462254 19.9233645,17.422021 C16.7163838,19.2895473 15.4754564,22.1488736 16.2005825,26 Z" id="Path-6" fill="#CACAFC"></path>
            <g id="np_care_2400807_000000" fill="#0F0E9F" fill-rule="nonzero" stroke="#0F0E9F" stroke-width="0.2">
                <path d="M35.7258025,38.9365263 C35.5127416,38.9365263 35.2974178,38.8777284 35.1047642,38.7510837 C34.5811842,38.4073337 34.4361457,37.7085153 34.7783753,37.1861311 C34.8327735,37.1024558 34.9030356,36.9984247 34.9846357,36.8763016 C35.503684,36.1006279 36.4715184,34.6577753 37.2149888,33.1515858 C38.3664307,30.8199911 38.1329394,30.0193647 38.0740443,29.8837174 C38.0491117,29.8249195 37.9879125,29.6824405 37.568597,29.6123358 C36.9520847,29.5060468 36.5373242,28.9225779 36.6437995,28.3051884 C36.750327,27.6900568 37.3351057,27.2762253 37.953881,27.3824621 C39.3024909,27.6131379 39.8963736,28.3843305 40.1570205,28.9926305 C41.1407131,31.2812674 38.9172069,35.0808411 36.868181,38.1336305 C36.7911184,38.2489684 36.725388,38.3484721 36.6732528,38.4253679 C36.457929,38.7578111 36.0952747,38.9365263 35.7258257,38.9365263 L35.7258025,38.9365263 Z" id="Path"></path>
                <path d="M40.0799753,48.0167368 L28.7767654,48.0167368 C28.1987873,48.0167368 27.7137531,47.5825263 27.6502741,47.0103526 C27.5324143,45.9428895 27.6593404,42.1503789 27.7613391,41.3271737 C27.9812005,39.4999 29.3502293,36.0352474 30.9436453,33.2740158 C32.435054,30.6936474 34.7220391,27.6360526 37.2811021,27.4121737 C36.5127391,24.6893263 36.0661811,21.3175947 36.4877885,19.0649105 C36.7960447,17.3732842 38.2104256,14.9851263 40.3931404,14.9851263 C40.6424667,14.9851263 40.891793,15.0167878 41.1388737,15.0823721 C42.8909293,15.5437237 44.4299762,18.4949774 45.71737,23.8545826 C46.6081651,27.5589195 47.2586219,32.2672668 46.7055885,34.4336879 C46.032386,37.0864247 44.819786,38.6672405 43.7499268,40.0626195 C42.4035799,41.8175247 41.2408231,43.3350037 41.2136095,46.8901458 C41.209076,47.5143089 40.7013617,48.0163721 40.0803293,48.0163721 L40.0799753,48.0167368 Z M29.8687555,45.7554113 L38.9896914,45.7554113 C39.2526186,42.2069421 40.6216358,40.4226263 41.947616,38.6926737 C42.9766259,37.3516 43.9467407,36.0851526 44.506621,33.8801737 C44.8783388,32.4260316 44.4658221,28.4095842 43.547879,24.5330684 C42.3443309,19.4492158 41.0115617,17.4432789 40.5536889,17.2690158 C40.5038242,17.255447 40.4471614,17.2486623 40.3904944,17.2486623 C39.717292,17.2486623 38.8922969,18.4924728 38.7132327,19.4740202 C38.2735158,21.8259939 39.0554856,26.0890728 40.0618426,28.5970728 C40.2567707,29.083296 40.0913081,29.6396413 39.6629228,29.9404044 C39.2345381,30.2411849 38.6542796,30.2095223 38.2598858,29.8635144 C38.2168205,29.8250688 38.0830904,29.7323481 37.7748342,29.6780718 C37.7703013,29.6780718 37.7680349,29.6758098 37.7635014,29.6758098 C37.7023028,29.6645024 37.6388411,29.6599797 37.5753737,29.6599797 C36.6415244,29.6599797 34.9257342,30.9060481 32.9061849,34.4023692 C31.299191,37.1817797 30.1726997,40.2462639 30.0094762,41.6010007 C29.9414771,42.1641197 29.8644145,44.366806 29.8689462,45.7554113 L29.8687555,45.7554113 Z" id="Shape"></path>
                <path d="M43.5092346,54.8008479 L27.642963,54.8008479 C27.0173988,54.8008479 26.5096827,54.2942632 26.5096827,53.6701 L26.5096827,46.8854158 C26.5096827,46.2612526 27.0173988,45.7546737 27.642963,45.7546737 L42.3760123,45.7546737 C42.9290573,45.7546737 43.4027593,46.1549637 43.4934519,46.6999789 L44.6267321,53.4846632 C44.6811302,53.8125847 44.5882002,54.1472684 44.3728741,54.4005579 C44.1575479,54.6538474 43.8424936,54.8008479 43.5092926,54.8008479 L43.5092346,54.8008479 Z M28.7761852,52.5393579 L42.1717654,52.5393579 L41.4169802,48.0163316 L28.7761852,48.0163316 L28.7761852,52.5393579 Z" id="Shape"></path>
                <path d="M38.9763457,51.4087895 C38.6771588,51.4087895 38.3870469,51.2866663 38.1739802,51.0763463 C37.9631881,50.8660263 37.8430596,50.5742889 37.8430596,50.2780358 C37.8430596,49.9817826 37.9631881,49.6900568 38.1739802,49.4774674 C38.3870411,49.2694053 38.6771646,49.1472879 38.9763457,49.1472879 C39.2732696,49.1472879 39.5656444,49.2671474 39.7764481,49.4774674 C39.9872402,49.6877874 40.1096375,49.9795247 40.1096375,50.2780358 C40.1096375,50.5742947 39.9872402,50.8660147 39.7764481,51.0763463 C39.565656,51.2866663 39.2755326,51.4087895 38.9763457,51.4087895 Z" id="Path"></path>
                <path d="M11.6275679,38.93659 C11.2581131,38.93659 10.8977333,38.7578689 10.6801407,38.4254258 C10.628009,38.3462721 10.562281,38.2490263 10.4852126,38.1314305 C8.43624469,35.0761516 6.21268049,31.2766937 7.19637309,28.9904305 C7.4570316,28.3843305 8.05090272,27.6131726 9.39951259,27.3802621 C10.0160249,27.2739732 10.6030607,27.6878279 10.7095941,28.3029884 C10.8161216,28.91812 10.4013379,29.5038411 9.78479654,29.6101358 C9.36547531,29.6825042 9.30654543,29.8227195 9.27934926,29.8815174 C9.22041938,30.0172111 8.98469407,30.8177911 10.1384048,33.1493858 C10.8818172,34.6555753 11.849669,36.0984279 12.3687579,36.8741016 C12.4503522,36.9962247 12.5206201,37.10025 12.5750183,37.1839311 C12.9195399,37.7063384 12.7722094,38.4074205 12.2486294,38.7488837 C12.05597,38.8777921 11.8406462,38.93659 11.6275911,38.93659 L11.6275679,38.93659 Z" id="Path"></path>
                <path d="M18.5771852,48.0167368 L7.27397531,48.0167368 C6.65067407,48.0167368 6.14522099,47.5146795 6.14069506,46.8950263 C6.11349599,43.3399421 4.95072469,41.8224632 3.60437778,40.0675 C2.53451852,38.6721211 1.32191852,37.0913632 0.648716049,34.4363105 C0.0956653086,32.2697737 0.746180123,27.5613105 1.63693457,23.8572053 C2.92438642,18.4974263 4.46337531,15.5464158 6.2131679,15.0873105 C6.4624942,15.0217274 6.71408346,14.9900647 6.9611642,14.9900647 C9.14387901,14.9900647 10.5604938,17.3782226 10.868779,19.0743647 C11.2881002,21.3245595 10.8415799,24.6942068 10.0732025,27.4169963 C12.6322074,27.6408868 14.9191926,30.69847 16.4106593,33.2788384 C18.0063383,36.0401279 19.3753728,39.5025226 19.5952284,41.3366279 C19.6972242,42.1530595 19.8241532,45.9478279 19.7062935,47.0152911 C19.6405631,47.5829316 19.1555115,48.0171595 18.5775391,48.0171595 L18.5771852,48.0167368 Z M8.36367901,45.7552526 L17.4845802,45.7552526 C17.4891137,44.3667053 17.4120494,42.1662421 17.3417873,41.6076158 C17.1785928,40.2484211 16.0498095,37.1841105 14.4450786,34.4049316 C12.4255293,30.9086105 10.7097391,29.6625421 9.77588975,29.6625421 C9.71242235,29.6625421 9.64896074,29.6670654 9.5877621,29.6783728 C9.58322863,29.6783728 9.58096219,29.6806342 9.57642872,29.6806342 C9.26817254,29.7326492 9.13444304,29.8276347 9.09137711,29.8660768 C8.69698909,30.2120905 8.11673637,30.2460111 7.68834007,29.9429668 C7.25995538,29.6421863 7.09451538,29.0858353 7.28942032,28.5996353 C8.2935376,26.0916353 9.07547835,21.8288458 8.6380302,19.4812142 C8.4589718,18.4952089 7.63391291,17.2513405 6.96076847,17.2513405 C6.90637032,17.2513405 6.84744044,17.2603866 6.78850477,17.2739559 C6.34198736,17.4458281 5.00923563,19.4495244 3.80568748,24.5356928 C2.88773686,28.4119191 2.47518131,32.4284823 2.84694551,33.8804823 C3.40679094,36.0854612 4.37688254,37.3519086 5.40595044,38.6929823 C6.73193069,40.4230507 8.10090723,42.2073665 8.36387514,45.7555612 L8.36367901,45.7552526 Z" id="Shape"></path>
                <path d="M19.7104074,54.8008421 L3.8441358,54.8008421 C3.51094642,54.8008421 3.19588395,54.6538416 2.97829136,54.4005521 C2.76296753,54.1472626 2.67003519,53.8125732 2.72443333,53.4846574 L3.85771358,46.6999732 C3.95064593,46.1549463 4.42435951,45.7546679 4.97741605,45.7546679 L19.7104654,45.7546679 C20.3360296,45.7546679 20.8437457,46.2612468 20.8437457,46.88541 L20.8437457,53.6700942 C20.8437457,54.2942574 20.3360296,54.8008421 19.7104654,54.8008421 L19.7104074,54.8008421 Z M5.18160494,52.5393579 L18.5771852,52.5393579 L18.5771852,48.0163316 L5.93882716,48.0163316 L5.18160494,52.5393579 Z" id="Shape"></path>
                <path d="M8.37760494,51.4087895 C8.07841802,51.4087895 7.78830617,51.2866663 7.57523951,51.0763463 C7.36671037,50.8660263 7.24431889,50.5765526 7.24431889,50.2780358 C7.24431889,49.9817768 7.36671617,49.6900568 7.57523951,49.4774674 C7.7860316,49.2671474 8.07842383,49.1472879 8.37760494,49.1472879 C8.67678605,49.1472879 8.9669037,49.2671474 9.17997037,49.4774674 C9.38849951,49.6900511 9.51089099,49.9795247 9.51089099,50.2780358 C9.51089099,50.5742947 9.3884937,50.8660147 9.17997037,51.0763463 C8.96690951,51.2866663 8.67678605,51.4087895 8.37760494,51.4087895 Z" id="Path"></path>
                <path d="M37.5617037,10.7012632 C37.14692,10.7012632 36.7457605,10.4728511 36.5485346,10.0771 C34.3272914,5.64682105 29.2751395,2.78583684 23.676337,2.78583684 C18.0778827,2.78583684 13.0259049,5.64664737 10.8041395,10.0771 C10.5230795,10.6356916 9.84313457,10.8618632 9.28325432,10.5814153 C8.72337407,10.3009674 8.49672963,9.62256263 8.77780704,9.06393632 C11.3798663,3.87604684 17.2273626,0.524462632 23.6762268,0.524462632 C30.1245107,0.524462632 35.9722391,3.87604684 38.5746465,9.06393632 C38.8557065,9.62252789 38.6290447,10.3009732 38.0691993,10.5814153 C37.9060048,10.6628268 37.7337469,10.7012747 37.5614832,10.7012747 L37.5617037,10.7012632 Z" id="Path"></path>
                <path d="M31.0432099,26.532 L16.3101605,26.532 C15.6845963,26.532 15.1768802,26.0254211 15.1768802,25.4012579 L15.1768802,22.5743737 C15.1768802,19.7474895 17.0831074,17.1399684 20.0319222,15.9321105 C20.5169738,15.7330974 21.0745679,15.8914036 21.3805321,16.3143084 C21.9131814,17.0470242 22.7721963,17.4857505 23.6765691,17.4857505 C24.580942,17.4857505 25.4399975,17.0470184 25.9726062,16.3143084 C26.2785936,15.8914047 26.8361877,15.7331032 27.321216,15.9321105 C30.2700309,17.1397368 32.176258,19.7472579 32.176258,22.5743737 L32.176258,25.4012579 C32.176258,26.0254211 31.668542,26.532 31.0429778,26.532 L31.0432099,26.532 Z M17.4433827,24.2705158 L29.9094074,24.2705158 L29.9094074,22.5743737 C29.9094074,20.8646842 28.8781346,19.3042474 27.1713383,18.3634579 C26.232963,19.2431684 24.9818346,19.7474895 23.676279,19.7474895 C22.3707235,19.7474895 21.1195951,19.2431742 20.1812198,18.3634579 C18.4744815,19.3042474 17.4431506,20.8646842 17.4431506,22.5743737 L17.4433827,24.2705158 Z" id="Shape"></path>
                <path d="M23.6769753,19.7473158 C22.0472938,19.7473158 20.503721,18.9602947 19.544979,17.6396 C18.8514099,16.6830053 18.5114432,15.5047316 18.5885,14.3219421 C18.7516944,11.7913053 20.7871136,9.7537 23.3234309,9.58181053 C23.4412964,9.57276447 23.5614249,9.57050311 23.6792847,9.57050311 C26.4921477,9.57050311 28.7791328,11.8523663 28.7791328,14.6589294 C28.7791328,15.7376821 28.4436805,16.7689031 27.811281,17.6395821 C26.850276,18.9602768 25.3067032,19.7473158 23.6770217,19.7473158 L23.6769753,19.7473158 Z M23.6769753,11.8319474 C23.6112449,11.8319474 23.5432458,11.8342087 23.4752467,11.8387321 C22.0699467,11.9337142 20.9411923,13.0644794 20.8482948,14.4688899 C20.8052295,15.1382689 20.9888248,15.7760373 21.3786753,16.3142847 C21.9135933,17.0470005 22.7726025,17.4857268 23.6769753,17.4857268 C24.5813481,17.4857268 25.4404037,17.0469947 25.9730123,16.3142847 C26.3243344,15.8303194 26.5101933,15.2581689 26.5101933,14.6588426 C26.5101933,13.1006636 25.2386402,11.8319474 23.6769637,11.8319474 L23.6769753,11.8319474 Z" id="Shape"></path>
                <path d="M38.9763457,12.9632105 C38.6771588,12.9632105 38.3870469,12.8410874 38.1739802,12.6330311 C37.9654569,12.4204474 37.8430596,12.1309737 37.8430596,11.8324626 C37.8430596,11.5339516 37.9631881,11.2444837 38.1739802,11.0318942 C38.3847723,10.8215742 38.6771646,10.7017147 38.9763457,10.7017147 C39.2732696,10.7017147 39.5656444,10.8238379 39.7764481,11.0318942 C39.9872402,11.2422142 40.1096375,11.5339516 40.1096375,11.8324626 C40.1096375,12.1309737 39.9872402,12.4204416 39.7764481,12.6330311 C39.565656,12.8410932 39.2755326,12.9632105 38.9763457,12.9632105 Z" id="Path"></path>
                <path d="M8.37760494,12.9632105 C8.07841802,12.9632105 7.78830617,12.8410874 7.57523951,12.6330311 C7.36444741,12.4227111 7.24431889,12.1309737 7.24431889,11.8324626 C7.24431889,11.5339516 7.36671617,11.2444837 7.57523951,11.0318942 C7.7860316,10.8215742 8.07842383,10.7017147 8.37760494,10.7017147 C8.67678605,10.7017147 8.9669037,10.8238379 9.17997037,11.0318942 C9.39076247,11.2422142 9.51089099,11.5339516 9.51089099,11.8324626 C9.51089099,12.1309737 9.3884937,12.4204416 9.17997037,12.6330311 C8.96690951,12.8410932 8.67678605,12.9632105 8.37760494,12.9632105 Z" id="Path"></path>
            </g>
        </g>
    </g>
</svg>