<?xml version="1.0" encoding="UTF-8"?>
<svg width="60px" height="40px" viewBox="0 0 60 40" version="1.1" xmlns="http://www.w3.org/2000/svg" xmlns:xlink="http://www.w3.org/1999/xlink">
    <!-- Generator: Sketch 55.2 (78181) - https://sketchapp.com -->
    <title>icon/icon-family</title>
    <desc>Created with Sketch.</desc>
    <g id="icon/icon-family" stroke="none" stroke-width="1" fill="none" fill-rule="evenodd">
        <path d="M35,10.2083333 C36.3753333,10.2083333 37.5,9.08366667 37.5,7.70833333 C37.5,6.333 36.3753333,5.20833333 35,5.20833333 C33.6246667,5.20833333 32.5,6.333 32.5,7.70833333 C32.5,9.04133333 33.6246667,10.2083333 35,10.2083333 Z" id="Path" fill="#484848"></path>
        <path d="M49.8341667,28.7075 L48.3335,23.8329167 C48.2504917,23.5822667 48.08285,23.3739167 47.7915,23.33325 L47.2495,23.2909333 C46.8328333,23.582275 46.3331667,23.7499333 45.7911667,23.7499333 C45.2491667,23.7499333 44.7495,23.5839167 44.3751667,23.2909333 L41.2925,20.5402667 C41.3348167,20.4149417 41.3755083,20.2896167 41.3348167,20.1236 L38.96015,11.2481833 C38.8771417,10.8738333 38.5434833,10.5401833 38.1268167,10.49785 L36.62615,10.3318333 C36.1264833,10.623175 35.5844833,10.7908333 34.9594833,10.7908333 C34.3768167,10.7908333 33.7924833,10.6248167 33.2928167,10.3318333 L31.79215,10.49785 C31.4178,10.5808583 31.08415,10.8722 30.9588167,11.2481833 L29.2498167,17.7065167 L27.3324833,11.2481833 C27.2071583,10.8738333 26.8734833,10.58085 26.49915,10.49785 L25.5828167,10.372525 C25.1238167,10.6638667 24.5834833,10.7891917 23.99915,10.7891917 C23.4164833,10.7891917 22.8744833,10.623175 22.4154833,10.372525 L21.49915,10.49785 C21.0824833,10.5808583 20.79115,10.8722 20.6658167,11.2481833 L17.9998167,20.2490167 C17.9575,20.4150333 17.9998167,20.6233667 18.082825,20.7486833 L15.2914917,23.2910167 C14.874825,23.5416667 14.415825,23.7076833 13.8754917,23.7076833 C13.3334917,23.7076833 12.8761583,23.5416667 12.4594917,23.2910167 L12.293475,23.3333333 C12.042825,23.37565 11.834475,23.5839833 11.751475,23.833 L10.042475,28.7500833 C10.0001583,28.9161 10.0847917,29.1244333 10.2508083,29.16675 L10.4591417,29.2497583 C10.667475,29.3327667 10.8758083,29.2074417 10.9181417,29.041425 L12.0851417,26.4990917 C12.042825,26.7497417 12.042825,26.9987583 11.9598167,27.2070917 L11.2518167,30.7487583 C11.2095,31.165425 11.5024667,31.4990917 11.91915,31.4990917 L12.2528083,31.4990917 L12.3358167,34.4580917 C12.3358167,34.666425 12.5018333,34.79175 12.7101667,34.79175 L13.0015083,34.79175 C13.2098417,34.79175 13.3758583,34.6257333 13.3758583,34.4174 L13.6265083,31.4584 L14.043175,31.4584 L14.293825,34.4174 C14.293825,34.6257333 14.4598417,34.79175 14.668175,34.79175 L14.9595167,34.79175 C15.16785,34.79175 15.3338667,34.6257333 15.3338667,34.4580917 L15.416875,31.4990917 L15.7505333,31.4990917 C16.1672,31.4990917 16.4585333,31.1654333 16.4178667,30.7487583 L15.7098667,27.249425 C15.6268583,26.875075 15.5845417,26.4990917 15.5845417,26.1247583 L15.542225,25.0407583 L18.750225,21.4160917 C18.8332333,21.3330833 18.8332333,21.250075 18.8332333,21.12475 C19.0838833,21.12475 19.2922333,20.9587333 19.3752333,20.7504 L21.3332333,14.6258167 L21.2909167,16.16715 C21.2486,16.7498167 21.2079083,17.33415 21.0825833,17.9168167 L19.62425,23.4589 C19.5412417,24.0839 20.0409167,24.6259 20.6659167,24.6259 L21.4569167,24.6259 L21.66525,34.29215 C21.66525,34.5834917 21.9565917,34.8343083 22.2479167,34.8343083 L22.7069167,34.8343083 C23.040575,34.8343083 23.2895833,34.5835 23.2895833,34.2514833 L23.7485833,24.5852333 L24.2905833,24.5852333 L24.7495833,34.2514833 C24.7495833,34.5851417 25.0002333,34.8343083 25.33225,34.8343083 L25.79125,34.8343083 C26.0825917,34.8343083 26.3739167,34.5835 26.3739167,34.29215 L26.58225,24.6259 L27.3325833,24.6259 C27.9575833,24.6259 28.45725,24.0839 28.37425,23.4589 L26.9159167,17.9168167 C26.7905917,17.33415 26.7075833,16.7498167 26.7075833,16.16715 L26.6652667,14.5834833 L28.6232667,20.7080667 C28.706275,20.9994083 29.0399333,21.1670667 29.3312667,21.041725 L29.414275,20.9994083 L29.5396,21.041725 C29.8732583,21.16705 30.2476,20.9587167 30.3306,20.582725 L31.7059333,15.7081417 C31.7059333,16.2908083 31.7059333,16.8751417 31.6636167,17.4578083 L31.4129667,20.7081417 C31.4129667,21.0418 31.6636167,21.2908083 31.9956333,21.3331417 L32.286975,34.2923083 C32.286975,34.58365 32.537625,34.8343083 32.828975,34.8343083 L33.8706417,34.8343083 C34.1619833,34.8343083 34.4126417,34.5836583 34.4126417,34.2516417 L34.8716417,22.8358083 C34.8716417,22.627475 34.9969667,22.627475 34.9969667,22.8358083 L35.4559667,34.2516417 C35.4559667,34.5853 35.7066167,34.8343083 35.9979667,34.8343083 L37.0396333,34.8343083 C37.330975,34.8343083 37.5816333,34.5836583 37.5816333,34.2923083 L37.872975,21.3331417 C38.2066333,21.3331417 38.4556417,21.0418 38.4556417,20.7081417 L38.2049917,17.4171417 C38.162675,16.8751417 38.162675,16.292475 38.162675,15.750475 L39.5380083,20.6250583 C39.6210167,20.9164 39.9123583,21.124725 40.2053417,21.0840583 C40.2053417,21.126375 40.2476583,21.126375 40.2476583,21.1670667 L43.706325,24.8747333 C43.706325,25.5827333 43.706325,26.4990667 43.6640083,26.9580667 L43.4979917,29.0414 C43.4979917,29.2497333 43.6640083,29.41575 43.8723417,29.41575 L44.0383583,34.45825 C44.0383583,34.6665833 44.204375,34.7919083 44.3720167,34.7919083 L45.03935,34.7919083 C45.2476833,34.7919083 45.3730083,34.6258917 45.3730083,34.4175583 L45.66435,30.3338917 C45.66435,30.2085667 45.7473583,30.2085667 45.7473583,30.3338917 L46.0387,34.4175583 C46.0387,34.6258917 46.2047167,34.7919083 46.3723583,34.7919083 L47.0396917,34.7919083 C47.2057083,34.7919083 47.37335,34.6258917 47.37335,34.45825 L47.5393667,29.41575 C47.7477,29.41575 47.9137167,29.2497333 47.9137167,29.0414 L47.7477,26.9580667 L48.5810333,28.9584 C48.62335,29.1667333 48.872375,29.2920583 49.0807,29.2497417 L49.3720417,29.1667333 C49.7919583,29.1244167 49.9172917,28.9160833 49.8342917,28.7077333 L49.8341667,28.7075 Z" id="Path" fill="#484848"></path>
        <path d="M47.7508333,21.2075 C47.7508333,23.7644583 43.9162083,23.7644583 43.9162083,21.2075 C43.9162083,18.6521667 47.7508333,18.6521667 47.7508333,21.2075" id="Path" fill="#484848"></path>
        <path d="M15.91625,21.2075 C15.91625,23.7644583 12.08325,23.7644583 12.08325,21.2075 C12.08325,18.6521667 15.91625,18.6521667 15.91625,21.2075" id="Path" fill="#484848"></path>
        <path d="M24.08375,10.2083333 C25.4590833,10.2083333 26.58375,9.08366667 26.58375,7.70833333 C26.58375,6.333 25.4590833,5.20833333 24.08375,5.20833333 C22.7084167,5.20833333 21.58375,6.333 21.58375,7.70833333 C21.5414333,9.04133333 22.666125,10.2083333 24.08375,10.2083333 Z" id="Path" fill="#484848"></path>
    </g>
</svg>