<?xml version="1.0" encoding="UTF-8"?>
<svg width="70px" height="40px" viewBox="0 0 70 40" version="1.1" xmlns="http://www.w3.org/2000/svg" xmlns:xlink="http://www.w3.org/1999/xlink">
    <!-- Generator: Sketch 55.2 (78181) - https://sketchapp.com -->
    <title>icon/icon-car-insurance</title>
    <desc>Created with Sketch.</desc>
    <g id="icon/icon-car-insurance" stroke="none" stroke-width="1" fill="none" fill-rule="evenodd">
        <path d="M59.285,15.008014 L53.6242,14.200014 C52.592,13.566014 51.5208,12.998014 50.4165,12.500014 C46.7693,10.848014 42.8108,9.99601402 38.8066,10 L37.8232,10 C33.0977,10.003014 28.4479,11.189014 24.2975,13.449014 L21.4407,15.008014 C18.0967,15.045014 14.817,15.935014 11.9118,17.591014 C10.7311,18.268014 10.002,19.524014 10,20.885014 L10,25.833014 C10,26.294014 10.373,26.667014 10.8335,26.667014 L13.6316,26.667014 C14.5417,29.263014 17.3842,30.630014 19.9806,29.720014 C21.4098,29.219014 22.5332,28.096014 23.0341,26.667014 L45.2983,26.667014 C46.2084,29.263014 49.051,30.630014 51.6473,29.720014 C53.0762,29.219014 54.2,28.096014 54.7008,26.667014 L54.9999,26.667014 C55.106,26.667014 55.2111,26.647014 55.3098,26.607014 L58.0089,25.524014 C59.215,25.047014 60.004,23.880014 60.0000151,22.583014 L60.0000151,15.833014 C60.0000151,15.419014 59.695,15.067014 59.285,15.008014 Z M21.599,25.667014 C21.2305,27.470014 19.4696,28.634014 17.666,28.265014 C15.8621,27.897014 14.6987,26.136014 15.0673,24.332014 C15.4362,22.528014 17.1971,21.365014 19.0006,21.733014 C20.5526,22.050014 21.6669,23.416014 21.6665001,25.000014 C21.6665001,25.224014 21.6438,25.447014 21.599,25.667014 Z M36.6666,25.000014 L23.3331,25.000014 C23.3331,22.239014 21.0948,20.000014 18.3333,20.000014 C15.5718,20.000014 13.3332,22.239014 13.3332,25.000014 L11.6666,25.000014 L11.6666,20.885014 C11.6676,20.122014 12.0766,19.417014 12.7391,19.038014 C15.4586,17.485014 18.5354,16.668014 21.6665,16.667014 L36.6666,16.667014 L36.6666,25.000014 Z M36.6666,15.000014 L24.935,15.000014 L25.0957,14.912014 C28.6584,12.976014 32.6159,11.879014 36.6666,11.703014 L36.6666,15.000014 Z M38.3332,11.6669953 L38.8049,11.6669953 C42.1631,11.663014 45.4909,12.300014 48.6101,13.545014 L47.1551,15.000014 L38.3332,15.000014 L38.3332,11.6669953 Z M53.2658,25.667014 C52.8972,27.470014 51.1363,28.634014 49.3324,28.265014 C47.5288,27.897014 46.3654,26.136014 46.734,24.332014 C47.1026,22.528014 48.8638,21.365014 50.6674,21.733014 C52.2194,22.050014 53.3336,23.416014 53.3333001,25.000014 C53.3333001,25.224014 53.3105,25.447014 53.2658,25.667014 Z M58.333408,17.500014 L55.8333,17.500014 L55.8333,19.167014 L58.333408,19.167014 L58.333408,22.583014 C58.3354,23.198014 57.9611,23.750014 57.3901,23.976014 L54.9999,24.936014 C54.9999,24.859014 54.99,24.783014 54.9849,24.706014 C54.9798,24.630014 54.9781,24.540014 54.97,24.457014 C54.9615,24.373014 54.9449,24.290014 54.9317,24.207014 C54.9181,24.123014 54.9083,24.040014 54.8917,23.964014 C54.8751,23.888014 54.8507,23.804014 54.829,23.725014 C54.8073,23.646014 54.7906,23.566014 54.7655,23.488014 C54.7408,23.411014 54.7106,23.337014 54.6825,23.261014 C54.654,23.185014 54.6282,23.107014 54.5991,23.031014 C54.5699,22.956014 54.5306,22.888014 54.4956,22.817014 C54.4607,22.747014 54.4265,22.669014 54.3875,22.597014 C54.3481,22.526014 54.3041,22.465014 54.2664,22.398014 C54.2291,22.331014 54.1833,22.256014 54.1359,22.187014 C54.0881,22.119014 54.044,22.065014 53.9982,22.003014 C53.9524,21.942014 53.9005,21.869014 53.8473,21.805014 C53.7941,21.741014 53.7442,21.691014 53.6923,21.638014 C53.6408,21.586014 53.5832,21.515014 53.5259,21.457014 C53.4682,21.398014 53.4116,21.352014 53.3543,21.301014 C53.2966,21.249014 53.2349,21.188014 53.1715,21.134014 C53.1084,21.080014 53.044,21.038014 52.9809,20.991014 C52.9175,20.943014 52.8541,20.892014 52.7877,20.848014 C52.7209,20.804014 52.6459,20.765014 52.5744,20.718014 C52.5025,20.671014 52.4442,20.635014 52.3767,20.599014 C52.3092,20.563014 52.2251,20.526014 52.1485,20.489014 C52.0719,20.452014 52.0118,20.420014 51.941,20.390014 C51.8701,20.360014 51.7741,20.328014 51.6911,20.298014 C51.6077,20.268014 51.5534,20.245014 51.4825,20.222014 C51.3876,20.193014 51.2903,20.172014 51.1933,20.148014 C51.1299,20.133014 51.0692,20.113014 51.0051,20.100014 C50.9027,20.079014 50.7976,20.067014 50.6935,20.052014 C50.6318,20.044014 50.5728,20.030014 50.5111,20.025014 C50.3442,20.008014 50.1777,19.999014 50.0028,19.999014 C47.2423,20.002014 45.0053,22.239014 45.0026,24.999014 L38.3335,24.999014 L38.3335,16.666014 L47.5,16.666014 C47.7211,16.666014 47.933,16.579014 48.089,16.422014 L50.25,14.261014 C51.157,14.693014 52.039,15.175014 52.8918,15.706014 C52.9901,15.768014 53.1,15.808014 53.2149,15.825014 L58.333408,16.556014 L58.333408,17.500014 Z" id="Shape" fill="#E9483F" fill-rule="nonzero"></path>
    </g>
</svg>