<?xml version="1.0" encoding="UTF-8"?>
<svg width="45px" height="45px" viewBox="0 0 45 45" version="1.1" xmlns="http://www.w3.org/2000/svg" xmlns:xlink="http://www.w3.org/1999/xlink">
    <!-- Generator: Sketch 55.2 (78181) - https://sketchapp.com -->
    <title>icon/icon-facebook</title>
    <desc>Created with Sketch.</desc>
    <g id="icon/icon-facebook" stroke="none" stroke-width="1" fill="none" fill-rule="evenodd">
        <path d="M36.5625,0 L8.4375,0 C3.77653846,0 0,3.77653846 0,8.4375 L0,36.5625 C0,41.2234615 3.77653846,45 8.4375,45 L36.5625,45 C41.2234615,45 45,41.2234615 45,36.5625 L45,8.4375 C45,3.77653846 41.2234615,0 36.5625,0 Z M35.4184615,24.2342308 L31.2075,24.2342308 L31.2075,39.8180769 L24.1753846,39.8180769 L24.1753846,24.2342308 L21.4476923,24.2342308 L21.4476923,18.9848077 L24.1753846,18.9848077 L24.1753846,15.6409615 C24.1771154,11.2569231 25.9978846,8.65384615 31.1642308,8.65384615 L36.3998077,8.65384615 L36.3998077,13.8842308 L33.3588462,13.8842308 C31.3476923,13.8842308 31.2161538,14.6336538 31.2161538,16.0355769 L31.2075,18.9830769 L35.9913462,18.9830769 L35.4184615,24.2342308 Z" id="Shape" fill="#FFFFFF" fill-rule="nonzero"></path>
    </g>
</svg>