<?xml version="1.0" encoding="UTF-8"?>
<svg width="24px" height="24px" viewBox="0 0 24 24" version="1.1" xmlns="http://www.w3.org/2000/svg" xmlns:xlink="http://www.w3.org/1999/xlink">
    <!-- Generator: Sketch 55.2 (78181) - https://sketchapp.com -->
    <title>icon/icon-select-blue</title>
    <desc>Created with Sketch.</desc>
    <g id="icon/icon-select-blue" stroke="none" stroke-width="1" fill="none" fill-rule="evenodd">
        <ellipse id="Oval" fill="#FFFFFF" fill-rule="nonzero" cx="12.5" cy="12.5" rx="7.5" ry="6.5"></ellipse>
        <path d="M12,2 C6.48562162,2 2,6.48562162 2,12 C2,17.5143784 6.48562162,22 12,22 C17.5143784,22 22,17.5143784 22,12 C22,6.48562162 17.5143784,2 12,2 Z M17.5431351,9.96281081 L11.1563243,16.3487568 C10.962067,16.5430141 10.6926486,16.6545081 10.4181405,16.6545081 L10.4181405,17.0869405 L10.4088499,16.6545081 C10.1301256,16.6519743 9.85985535,16.5354205 9.66644995,16.3352432 L6.44439589,12.9966486 C6.04404995,12.5819459 6.05587697,11.9197838 6.47057751,11.5203027 C6.66652346,11.3311135 6.92413427,11.2272216 7.19524778,11.2272216 C7.4815613,11.2272216 7.74845859,11.3403978 7.94694508,11.5464865 L10.430837,14.1207568 L16.065864,8.48572973 C16.2626554,8.28893838 16.5253235,8.17997838 16.8040478,8.17997838 C17.0827721,8.17997838 17.3454316,8.28893189 17.5422316,8.48572973 C17.9501667,8.89282162 17.9501667,9.55582703 17.5430763,9.96291892 L17.5431351,9.96281081 Z" id="Shape" fill="#0F0E9F" fill-rule="nonzero"></path>
    </g>
</svg>