<?xml version="1.0" encoding="UTF-8"?>
<svg width="118px" height="45px" viewBox="0 0 118 45" version="1.1" xmlns="http://www.w3.org/2000/svg" xmlns:xlink="http://www.w3.org/1999/xlink">
    <!-- Generator: Sketch 55.2 (78181) - https://sketchapp.com -->
    <title>icon/icon-tipinsure/white/small</title>
    <desc>Created with Sketch.</desc>
    <g id="icon/icon-tipinsure/white/small" stroke="none" stroke-width="1" fill="none" fill-rule="evenodd">
        <g id="Group-5">
            <rect id="Rectangle" fill="#E1251B" fill-rule="nonzero" x="34.8534789" y="25.5471429" width="82.8030108" height="9.87428571"></rect>
            <polygon id="Path" fill="#FFFFFF" fill-rule="nonzero" points="41.9842316 22.2942857 39.0405757 22.2942857 39.0405757 13.3585714 36.6107907 13.3585714 36.6107907 10.8321429 44.4076724 10.8321429 44.4076724 13.3585714 41.9842316 13.3585714"></polygon>
            <rect id="Rectangle" fill="#FFFFFF" fill-rule="nonzero" x="45.4734789" y="10.8321429" width="2.93731183" height="11.4557143"></rect>
            <path d="M50.3330488,10.8321429 L54.8310058,10.8321429 C57.2607907,10.8321429 58.9419735,11.97 58.9419735,14.5992857 C58.9419735,17.3057143 57.501866,18.4885714 54.9388552,18.4885714 L53.2767047,18.4885714 L53.2767047,22.2878571 L50.3393929,22.2878571 L50.3393929,10.8321429 L50.3330488,10.8321429 Z M53.2703606,16.0907143 L53.7651993,16.0907143 C54.8310058,16.0907143 55.87778,16.0907143 55.87778,14.6957143 C55.87778,13.2492857 54.9007907,13.2364286 53.7651993,13.2364286 L53.2703606,13.2364286 L53.2703606,16.0907143 Z" id="Shape" fill="#FFFFFF" fill-rule="nonzero"></path>
            <rect id="Rectangle" fill="#FFFFFF" fill-rule="nonzero" x="63.3955219" y="11.2821429" width="1.64311828" height="11.0121429"></rect>
            <polygon id="Path" fill="#FFFFFF" fill-rule="nonzero" points="67.9378875 22.2942857 67.9378875 10.53 75.8616509 18.9321429 75.8616509 11.2821429 77.5047692 11.2821429 77.5047692 22.9628571 69.5746617 14.58 69.5746617 22.2942857"></polygon>
            <path d="M86.5387477,12.9214286 L85.2064896,13.7185714 C84.9590703,13.2814286 84.717995,12.9985714 84.495952,12.8635714 C84.2612208,12.7092857 83.9567047,12.6385714 83.5887477,12.6385714 C83.1319735,12.6385714 82.7576724,12.7671429 82.4531563,13.0307143 C82.1549843,13.2878571 82.0027262,13.6092857 82.0027262,14.0014286 C82.0027262,14.5414286 82.3960595,14.9721429 83.1827262,15.3 L84.2675649,15.75 C85.1493929,16.11 85.7964896,16.5535714 86.2025111,17.0742857 C86.6085326,17.595 86.8115434,18.2314286 86.8115434,18.99 C86.8115434,20.0057143 86.4753068,20.8414286 85.8091778,21.5035714 C85.1367047,22.1721429 84.3056294,22.5 83.3096079,22.5 C82.3643391,22.5 81.5840165,22.2171429 80.9749843,21.6514286 C80.3722961,21.0857143 79.9916509,20.2885714 79.8393929,19.26 L81.5015434,18.8871429 C81.5776724,19.5364286 81.7108982,19.98 81.8948767,20.2307143 C82.2311133,20.7064286 82.725952,20.9442857 83.3730488,20.9442857 C83.8869197,20.9442857 84.3119735,20.7707143 84.6482101,20.4235714 C84.9844466,20.0764286 85.1557369,19.6392857 85.1557369,19.1057143 C85.1557369,18.8935714 85.1240165,18.6942857 85.0669197,18.5142857 C85.009823,18.3342857 84.9146617,18.1735714 84.794124,18.0192857 C84.6672423,17.8714286 84.5086402,17.73 84.3119735,17.595 C84.1153068,17.4664286 83.8805757,17.3378571 83.60778,17.2221429 L82.5610058,16.7785714 C81.0764896,16.1421429 80.3278875,15.21 80.3278875,13.9821429 C80.3278875,13.1528571 80.6387477,12.465 81.2604681,11.9057143 C81.8821886,11.3464286 82.6625111,11.0635714 83.5887477,11.0635714 C84.8575649,11.0635714 85.8345541,11.6807143 86.5387477,12.9214286" id="Path" fill="#FFFFFF" fill-rule="nonzero"></path>
            <path d="M90.7258445,11.2821429 L90.7258445,17.9164286 C90.7258445,18.8614286 90.8781025,19.5557143 91.1826187,19.9928571 C91.6393929,20.6228571 92.2801455,20.9378571 93.1048767,20.9378571 C93.935952,20.9378571 94.5767047,20.6228571 95.0334789,19.9928571 C95.337995,19.5685714 95.4902531,18.8807143 95.4902531,17.9164286 L95.4902531,11.2821429 L97.1333714,11.2821429 L97.1333714,18.3728571 C97.1333714,19.5364286 96.7781025,20.4878571 96.0612208,21.24 C95.261866,22.0757143 94.2721886,22.4935714 93.1048767,22.4935714 C91.9375649,22.4935714 90.9542316,22.0757143 90.1548767,21.24 C89.4443391,20.4878571 89.0827262,19.5364286 89.0827262,18.3728571 L89.0827262,11.2821429 L90.7258445,11.2821429 Z" id="Path" fill="#FFFFFF" fill-rule="nonzero"></path>
            <path d="M103.705844,17.6014286 L107.06821,22.2942857 L105.063479,22.2942857 L101.961221,17.7878571 L101.663049,17.7878571 L101.663049,22.2942857 L100.026275,22.2942857 L100.026275,11.2821429 L101.948533,11.2821429 C103.382296,11.2821429 104.422726,11.5521429 105.057135,12.105 C105.761328,12.7157143 106.110253,13.5192857 106.110253,14.5157143 C106.110253,15.2935714 105.88821,15.9685714 105.450468,16.5278571 C105.012726,17.0807143 104.42907,17.4407143 103.705844,17.6014286 L103.705844,17.6014286 Z M101.663049,16.335 L102.183264,16.335 C103.737565,16.335 104.511543,15.7307143 104.511543,14.5285714 C104.511543,13.4035714 103.756597,12.8378571 102.246705,12.8378571 L101.663049,12.8378571 L101.663049,16.335 Z" id="Shape" fill="#FFFFFF" fill-rule="nonzero"></path>
            <polygon id="Path" fill="#FFFFFF" fill-rule="nonzero" points="114.985629 12.8442857 110.633586 12.8442857 110.633586 15.4864286 114.865092 15.4864286 114.865092 17.0485714 110.633586 17.0485714 110.633586 20.7321429 114.985629 20.7321429 114.985629 22.2942857 108.990468 22.2942857 108.990468 11.2821429 114.985629 11.2821429"></polygon>
            <path d="M39.6432638,30.6321429 C39.6432638,30.1242857 39.8272423,29.6935714 40.1888552,29.3335714 C40.5504681,28.9735714 40.9882101,28.7871429 41.502081,28.7871429 C42.0096079,28.7871429 42.4410058,28.9671429 42.8026187,29.3335714 C43.1642316,29.7 43.3482101,30.1371429 43.3482101,30.6514286 C43.3482101,31.1657143 43.1642316,31.6028571 42.8026187,31.9628571 C42.4346617,32.3228571 41.9969197,32.5028571 41.4767047,32.5028571 C41.0199305,32.5028571 40.6075649,32.3421429 40.245952,32.0207143 C39.8399305,31.6735714 39.6432638,31.2042857 39.6432638,30.6321429 M40.1825111,30.6385714 C40.1825111,31.0371429 40.3157369,31.3585714 40.5758445,31.6157143 C40.835952,31.8728571 41.1404681,32.0014286 41.4830488,32.0014286 C41.8573498,32.0014286 42.1682101,31.8728571 42.4219735,31.6092857 C42.6757369,31.3457143 42.8026187,31.0242857 42.8026187,30.645 C42.8026187,30.2592857 42.6757369,29.9442857 42.4219735,29.6807143 C42.1745541,29.4235714 41.8636939,29.2885714 41.4893929,29.2885714 C41.1214359,29.2885714 40.8105757,29.4171429 40.5568122,29.6807143 C40.3093929,29.9442857 40.1825111,30.2592857 40.1825111,30.6385714" id="Shape" fill="#FFFFFF" fill-rule="nonzero"></path>
            <path d="M39.6432638,30.6321429 C39.6432638,30.1242857 39.8272423,29.6935714 40.1888552,29.3335714 C40.5504681,28.9735714 40.9882101,28.7871429 41.502081,28.7871429 C42.0096079,28.7871429 42.4410058,28.9671429 42.8026187,29.3335714 C43.1642316,29.7 43.3482101,30.1371429 43.3482101,30.6514286 C43.3482101,31.1657143 43.1642316,31.6028571 42.8026187,31.9628571 C42.4346617,32.3228571 41.9969197,32.5028571 41.4767047,32.5028571 C41.0199305,32.5028571 40.6075649,32.3421429 40.245952,32.0207143 C39.8399305,31.6735714 39.6432638,31.2042857 39.6432638,30.6321429 Z M40.1825111,30.6385714 C40.1825111,31.0371429 40.3157369,31.3585714 40.5758445,31.6157143 C40.835952,31.8728571 41.1404681,32.0014286 41.4830488,32.0014286 C41.8573498,32.0014286 42.1682101,31.8728571 42.4219735,31.6092857 C42.6757369,31.3457143 42.8026187,31.0242857 42.8026187,30.645 C42.8026187,30.2592857 42.6757369,29.9442857 42.4219735,29.6807143 C42.1745541,29.4235714 41.8636939,29.2885714 41.4893929,29.2885714 C41.1214359,29.2885714 40.8105757,29.4171429 40.5568122,29.6807143 C40.3093929,29.9442857 40.1825111,30.2592857 40.1825111,30.6385714 Z" id="Shape" stroke="#FFFFFF" stroke-width="0.592105263"></path>
            <polygon id="Path" fill="#FFFFFF" fill-rule="nonzero" points="45.8033714 32.445 45.8033714 28.6071429 48.3854144 31.3457143 48.3854144 28.8514286 48.9183176 28.8514286 48.9183176 32.6635714 46.3362746 29.9314286 46.3362746 32.445"></polygon>
            <polygon id="Path" stroke="#FFFFFF" stroke-width="0.592105263" points="45.8033714 32.445 45.8033714 28.6071429 48.3854144 31.3457143 48.3854144 28.8514286 48.9183176 28.8514286 48.9183176 32.6635714 46.3362746 29.9314286 46.3362746 32.445"></polygon>
            <polygon id="Path" fill="#FFFFFF" fill-rule="nonzero" points="52.0840165 28.8514286 52.0840165 31.9307143 53.1307907 31.9307143 53.1307907 32.445 51.5511133 32.445 51.5511133 28.8514286"></polygon>
            <polygon id="Path" stroke="#FFFFFF" stroke-width="0.592105263" points="52.0840165 28.8514286 52.0840165 31.9307143 53.1307907 31.9307143 53.1307907 32.445 51.5511133 32.445 51.5511133 28.8514286"></polygon>
            <rect id="Rectangle" fill="#FFFFFF" fill-rule="nonzero" x="55.4210058" y="28.8514286" width="1" height="3.58714286"></rect>
            <rect id="Rectangle" stroke="#FFFFFF" stroke-width="0.592105263" x="55.4210058" y="28.8514286" width="1" height="3.58714286"></rect>
            <polygon id="Path" fill="#FFFFFF" fill-rule="nonzero" points="58.5867047 32.445 58.5867047 28.6071429 61.1687477 31.3457143 61.1687477 28.8514286 61.707995 28.8514286 61.707995 32.6635714 59.125952 29.9314286 59.125952 32.445"></polygon>
            <polygon id="Path" stroke="#FFFFFF" stroke-width="0.592105263" points="58.5867047 32.445 58.5867047 28.6071429 61.1687477 31.3457143 61.1687477 28.8514286 61.707995 28.8514286 61.707995 32.6635714 59.125952 29.9314286 59.125952 32.445"></polygon>
            <polygon id="Path" fill="#FFFFFF" fill-rule="nonzero" points="66.2947692 29.3657143 64.8736939 29.3657143 64.8736939 30.2271429 66.2503606 30.2271429 66.2503606 30.735 64.8736939 30.735 64.8736939 31.9307143 66.2947692 31.9307143 66.2947692 32.445 64.3407907 32.445 64.3407907 28.8514286 66.2947692 28.8514286"></polygon>
            <polygon id="Path" stroke="#FFFFFF" stroke-width="0.592105263" points="66.2947692 29.3657143 64.8736939 29.3657143 64.8736939 30.2271429 66.2503606 30.2271429 66.2503606 30.735 64.8736939 30.735 64.8736939 31.9307143 66.2947692 31.9307143 66.2947692 32.445 64.3407907 32.445 64.3407907 28.8514286 66.2947692 28.8514286"></polygon>
            <rect id="Rectangle" fill="#FFFFFF" fill-rule="nonzero" x="72.0171348" y="28.8514286" width="1" height="3.58714286"></rect>
            <rect id="Rectangle" stroke="#FFFFFF" stroke-width="0.592105263" x="72.0171348" y="28.8514286" width="1" height="3.58714286"></rect>
            <polygon id="Path" fill="#FFFFFF" fill-rule="nonzero" points="75.1891778 32.445 75.1891778 28.6071429 77.7712208 31.3457143 77.7712208 28.8514286 78.304124 28.8514286 78.304124 32.6635714 75.722081 29.9314286 75.722081 32.445"></polygon>
            <polygon id="Path" stroke="#FFFFFF" stroke-width="0.592105263" points="75.1891778 32.445 75.1891778 28.6071429 77.7712208 31.3457143 77.7712208 28.8514286 78.304124 28.8514286 78.304124 32.6635714 75.722081 29.9314286 75.722081 32.445"></polygon>
            <path d="M82.9416509,29.3914286 L82.5102531,29.6485714 C82.42778,29.5071429 82.3516509,29.4107143 82.2755219,29.3721429 C82.1993929,29.3207143 82.0978875,29.295 81.9773498,29.295 C81.8314359,29.295 81.7045541,29.34 81.6093929,29.4235714 C81.5142316,29.5071429 81.4634789,29.61 81.4634789,29.7385714 C81.4634789,29.9121429 81.5903606,30.0535714 81.8504681,30.1628571 L82.2057369,30.3107143 C82.4912208,30.4264286 82.7005757,30.5742857 82.8338015,30.7414286 C82.9670273,30.9085714 83.0368122,31.1207143 83.0368122,31.365 C83.0368122,31.6928571 82.9289628,31.9692857 82.7132638,32.1814286 C82.4975649,32.4 82.2247692,32.5092857 81.9012208,32.5092857 C81.5967047,32.5092857 81.3429412,32.4192857 81.1399305,32.2328571 C80.9432638,32.0464286 80.8227262,31.7892857 80.7719735,31.455 L81.3112208,31.3328571 C81.3365972,31.545 81.3810058,31.6864286 81.4381025,31.77 C81.545952,31.9242857 81.7108982,32.0014286 81.9202531,32.0014286 C82.0851993,32.0014286 82.2247692,31.9435714 82.3326187,31.8342857 C82.4404681,31.7185714 82.4975649,31.5771429 82.4975649,31.4035714 C82.4975649,31.3328571 82.4848767,31.2685714 82.4721886,31.2107143 C82.4531563,31.1528571 82.4214359,31.1014286 82.3833714,31.05 C82.3453068,30.9985714 82.2882101,30.9535714 82.2247692,30.915 C82.1613283,30.87 82.0851993,30.8314286 81.9963821,30.7928571 L81.6538015,30.6514286 C81.1716509,30.4457143 80.9242316,30.1371429 80.9242316,29.7385714 C80.9242316,29.4685714 81.0257369,29.2435714 81.2287477,29.0635714 C81.4317584,28.8771429 81.6855219,28.7871429 81.990038,28.7871429 C82.3897154,28.7871429 82.7069197,28.9864286 82.9416509,29.3914286" id="Path" fill="#FFFFFF" fill-rule="nonzero"></path>
            <path d="M82.9416509,29.3914286 L82.5102531,29.6485714 C82.42778,29.5071429 82.3516509,29.4107143 82.2755219,29.3721429 C82.1993929,29.3207143 82.0978875,29.295 81.9773498,29.295 C81.8314359,29.295 81.7045541,29.34 81.6093929,29.4235714 C81.5142316,29.5071429 81.4634789,29.61 81.4634789,29.7385714 C81.4634789,29.9121429 81.5903606,30.0535714 81.8504681,30.1628571 L82.2057369,30.3107143 C82.4912208,30.4264286 82.7005757,30.5742857 82.8338015,30.7414286 C82.9670273,30.9085714 83.0368122,31.1207143 83.0368122,31.365 C83.0368122,31.6928571 82.9289628,31.9692857 82.7132638,32.1814286 C82.4975649,32.4 82.2247692,32.5092857 81.9012208,32.5092857 C81.5967047,32.5092857 81.3429412,32.4192857 81.1399305,32.2328571 C80.9432638,32.0464286 80.8227262,31.7892857 80.7719735,31.455 L81.3112208,31.3328571 C81.3365972,31.545 81.3810058,31.6864286 81.4381025,31.77 C81.545952,31.9242857 81.7108982,32.0014286 81.9202531,32.0014286 C82.0851993,32.0014286 82.2247692,31.9435714 82.3326187,31.8342857 C82.4404681,31.7185714 82.4975649,31.5771429 82.4975649,31.4035714 C82.4975649,31.3328571 82.4848767,31.2685714 82.4721886,31.2107143 C82.4531563,31.1528571 82.4214359,31.1014286 82.3833714,31.05 C82.3453068,30.9985714 82.2882101,30.9535714 82.2247692,30.915 C82.1613283,30.87 82.0851993,30.8314286 81.9963821,30.7928571 L81.6538015,30.6514286 C81.1716509,30.4457143 80.9242316,30.1371429 80.9242316,29.7385714 C80.9242316,29.4685714 81.0257369,29.2435714 81.2287477,29.0635714 C81.4317584,28.8771429 81.6855219,28.7871429 81.990038,28.7871429 C82.3897154,28.7871429 82.7069197,28.9864286 82.9416509,29.3914286 Z" id="Path" stroke="#FFFFFF" stroke-width="0.592105263"></path>
            <path d="M85.9931563,28.8514286 L85.9931563,31.0114286 C85.9931563,31.32 86.043909,31.545 86.1454144,31.6864286 C86.2913283,31.8921429 86.5006832,31.995 86.7734789,31.995 C87.0462746,31.995 87.2556294,31.8921429 87.4015434,31.6864286 C87.5030488,31.5514286 87.5538015,31.32 87.5538015,31.0114286 L87.5538015,28.8514286 L88.0867047,28.8514286 L88.0867047,31.1592857 C88.0867047,31.5385714 87.9725111,31.8471429 87.73778,32.0914286 C87.4776724,32.3614286 87.154124,32.5028571 86.7734789,32.5028571 C86.3928337,32.5028571 86.0692853,32.3678571 85.8155219,32.0914286 C85.5807907,31.8471429 85.4665972,31.5321429 85.4665972,31.1592857 L85.4665972,28.8514286 L85.9931563,28.8514286 Z" id="Path" fill="#FFFFFF" fill-rule="nonzero"></path>
            <path d="M85.9931563,28.8514286 L85.9931563,31.0114286 C85.9931563,31.32 86.043909,31.545 86.1454144,31.6864286 C86.2913283,31.8921429 86.5006832,31.995 86.7734789,31.995 C87.0462746,31.995 87.2556294,31.8921429 87.4015434,31.6864286 C87.5030488,31.5514286 87.5538015,31.32 87.5538015,31.0114286 L87.5538015,28.8514286 L88.0867047,28.8514286 L88.0867047,31.1592857 C88.0867047,31.5385714 87.9725111,31.8471429 87.73778,32.0914286 C87.4776724,32.3614286 87.154124,32.5028571 86.7734789,32.5028571 C86.3928337,32.5028571 86.0692853,32.3678571 85.8155219,32.0914286 C85.5807907,31.8471429 85.4665972,31.5321429 85.4665972,31.1592857 L85.4665972,28.8514286 L85.9931563,28.8514286 Z" id="Path" stroke="#FFFFFF" stroke-width="0.592105263"></path>
            <path d="M91.9121886,30.915 L93.0097154,32.445 L92.3562746,32.445 L91.3475649,30.9792857 L91.2524036,30.9792857 L91.2524036,32.445 L90.7195004,32.445 L90.7195004,28.8514286 L91.3475649,28.8514286 C91.8170273,28.8514286 92.1532638,28.9414286 92.3626187,29.1214286 C92.5910058,29.3207143 92.7051993,29.5778571 92.7051993,29.9057143 C92.7051993,30.1628571 92.6354144,30.3814286 92.4895004,30.5614286 C92.3372423,30.7478571 92.1469197,30.8635714 91.9121886,30.915 L91.9121886,30.915 Z M91.2460595,30.5035714 L91.4173498,30.5035714 C91.9248767,30.5035714 92.1786402,30.3107143 92.1786402,29.9121429 C92.1786402,29.5457143 91.9312208,29.3592857 91.4427262,29.3592857 L91.2524036,29.3592857 L91.2524036,30.5035714 L91.2460595,30.5035714 Z" id="Shape" fill="#FFFFFF" fill-rule="nonzero"></path>
            <path d="M91.9121886,30.915 L93.0097154,32.445 L92.3562746,32.445 L91.3475649,30.9792857 L91.2524036,30.9792857 L91.2524036,32.445 L90.7195004,32.445 L90.7195004,28.8514286 L91.3475649,28.8514286 C91.8170273,28.8514286 92.1532638,28.9414286 92.3626187,29.1214286 C92.5910058,29.3207143 92.7051993,29.5778571 92.7051993,29.9057143 C92.7051993,30.1628571 92.6354144,30.3814286 92.4895004,30.5614286 C92.3372423,30.7478571 92.1469197,30.8635714 91.9121886,30.915 Z M91.2460595,30.5035714 L91.4173498,30.5035714 C91.9248767,30.5035714 92.1786402,30.3107143 92.1786402,29.9121429 C92.1786402,29.5457143 91.9312208,29.3592857 91.4427262,29.3592857 L91.2524036,29.3592857 L91.2524036,30.5035714 L91.2460595,30.5035714 Z" id="Shape" stroke="#FFFFFF" stroke-width="0.592105263"></path>
            <path d="M97.4061671,31.5707143 L95.8899305,31.5707143 L95.4965972,32.445 L94.9192853,32.445 L96.6702531,28.6328571 L98.35778,32.445 L97.774124,32.445 L97.4061671,31.5707143 Z M97.1904681,31.0628571 L96.663909,29.8414286 L96.1119735,31.0628571 L97.1904681,31.0628571 Z" id="Shape" fill="#FFFFFF" fill-rule="nonzero"></path>
            <path d="M97.4061671,31.5707143 L95.8899305,31.5707143 L95.4965972,32.445 L94.9192853,32.445 L96.6702531,28.6328571 L98.35778,32.445 L97.774124,32.445 L97.4061671,31.5707143 Z M97.1904681,31.0628571 L96.663909,29.8414286 L96.1119735,31.0628571 L97.1904681,31.0628571 Z" id="Shape" stroke="#FFFFFF" stroke-width="0.592105263"></path>
            <polygon id="Path" fill="#FFFFFF" fill-rule="nonzero" points="100.590898 32.445 100.590898 28.6071429 103.172941 31.3457143 103.172941 28.8514286 103.712189 28.8514286 103.712189 32.6635714 101.123801 29.9314286 101.123801 32.445"></polygon>
            <polygon id="Path" stroke="#FFFFFF" stroke-width="0.592105263" points="100.590898 32.445 100.590898 28.6071429 103.172941 31.3457143 103.172941 28.8514286 103.712189 28.8514286 103.712189 32.6635714 101.123801 29.9314286 101.123801 32.445"></polygon>
            <path d="M108.990468,29.0442857 L108.990468,29.6871429 C108.679608,29.4235714 108.362404,29.295 108.032511,29.295 C107.670898,29.295 107.360038,29.43 107.112619,29.6935714 C106.865199,29.9571429 106.738318,30.2785714 106.738318,30.6578571 C106.738318,31.0371429 106.865199,31.3521429 107.112619,31.6092857 C107.366382,31.8664286 107.670898,31.995 108.032511,31.995 C108.222834,31.995 108.381436,31.9628571 108.514662,31.8985714 C108.590791,31.8664286 108.66692,31.8278571 108.743049,31.7764286 C108.819178,31.725 108.901651,31.6607143 108.990468,31.5835714 L108.990468,32.2392857 C108.685952,32.4128571 108.362404,32.5028571 108.026167,32.5028571 C107.51864,32.5028571 107.087242,32.3228571 106.731974,31.9692857 C106.376705,31.6092857 106.19907,31.1721429 106.19907,30.6642857 C106.19907,30.2078571 106.344984,29.8028571 106.6495,29.4428571 C107.017457,29.0057143 107.493264,28.7871429 108.07692,28.7871429 C108.38778,28.7871429 108.692296,28.8707143 108.990468,29.0442857" id="Path" fill="#FFFFFF" fill-rule="nonzero"></path>
            <path d="M108.990468,29.0442857 L108.990468,29.6871429 C108.679608,29.4235714 108.362404,29.295 108.032511,29.295 C107.670898,29.295 107.360038,29.43 107.112619,29.6935714 C106.865199,29.9571429 106.738318,30.2785714 106.738318,30.6578571 C106.738318,31.0371429 106.865199,31.3521429 107.112619,31.6092857 C107.366382,31.8664286 107.670898,31.995 108.032511,31.995 C108.222834,31.995 108.381436,31.9628571 108.514662,31.8985714 C108.590791,31.8664286 108.66692,31.8278571 108.743049,31.7764286 C108.819178,31.725 108.901651,31.6607143 108.990468,31.5835714 L108.990468,32.2392857 C108.685952,32.4128571 108.362404,32.5028571 108.026167,32.5028571 C107.51864,32.5028571 107.087242,32.3228571 106.731974,31.9692857 C106.376705,31.6092857 106.19907,31.1721429 106.19907,30.6642857 C106.19907,30.2078571 106.344984,29.8028571 106.6495,29.4428571 C107.017457,29.0057143 107.493264,28.7871429 108.07692,28.7871429 C108.38778,28.7871429 108.692296,28.8707143 108.990468,29.0442857 Z" id="Path" stroke="#FFFFFF" stroke-width="0.592105263"></path>
            <polygon id="Path" fill="#FFFFFF" fill-rule="nonzero" points="113.405952 29.3657143 111.984877 29.3657143 111.984877 30.2271429 113.361543 30.2271429 113.361543 30.735 111.984877 30.735 111.984877 31.9307143 113.405952 31.9307143 113.405952 32.445 111.451974 32.445 111.451974 28.8514286 113.405952 28.8514286"></polygon>
            <polygon id="Path" stroke="#FFFFFF" stroke-width="0.592105263" points="113.405952 29.3657143 111.984877 29.3657143 111.984877 30.2271429 113.361543 30.2271429 113.361543 30.735 111.984877 30.735 111.984877 31.9307143 113.405952 31.9307143 113.405952 32.445 111.451974 32.445 111.451974 28.8514286 113.405952 28.8514286"></polygon>
            <path d="M73.1146617,43.7978571 L73.1146617,39.2014286 L73.799823,39.2014286 C74.1043391,39.2014286 74.3454144,39.2271429 74.5230488,39.2721429 C74.7070273,39.3171429 74.8592853,39.4007143 74.9861671,39.5164286 C75.1130488,39.6321429 75.2145541,39.78 75.2906832,39.9535714 C75.3668122,40.1271429 75.4048767,40.3071429 75.4048767,40.4871429 C75.4048767,40.815 75.277995,41.0978571 75.0305757,41.3228571 C75.2716509,41.4064286 75.4619735,41.5542857 75.6015434,41.76 C75.7411133,41.9657143 75.8108982,42.21 75.8108982,42.48 C75.8108982,42.84 75.6840165,43.1421429 75.4365972,43.3928571 C75.2843391,43.5471429 75.1193929,43.65 74.9290703,43.7142857 C74.7260595,43.7721429 74.465952,43.7978571 74.1550918,43.7978571 L73.1146617,43.7978571 Z M73.799823,41.175 L74.0155219,41.175 C74.2692853,41.175 74.4596079,41.1171429 74.5738015,41.0014286 C74.6943391,40.8857143 74.7514359,40.7185714 74.7514359,40.4935714 C74.7514359,40.275 74.687995,40.1142857 74.5674574,39.9985714 C74.4469197,39.8892857 74.2692853,39.8314286 74.0408982,39.8314286 L73.799823,39.8314286 L73.799823,41.175 Z M73.799823,43.1485714 L74.2248767,43.1485714 C74.5357369,43.1485714 74.764124,43.0842857 74.910038,42.9621429 C75.0622961,42.8271429 75.1384251,42.66 75.1384251,42.4542857 C75.1384251,42.255 75.0622961,42.0878571 74.9163821,41.9528571 C74.7704681,41.8178571 74.5167047,41.7535714 74.1487477,41.7535714 L73.799823,41.7535714 L73.799823,43.1485714 Z" id="Shape" fill="#FFFFFF" fill-rule="nonzero"></path>
            <polygon id="Path" fill="#FFFFFF" fill-rule="nonzero" points="78.1455219 41.8114286 76.6610058 39.2014286 77.4476724 39.2014286 78.4881025 41.04 79.5285326 39.2014286 80.3151993 39.2014286 78.8306832 41.8114286 78.8306832 43.7978571 78.1455219 43.7978571"></polygon>
            <path d="M84.2612208,43.7978571 L84.2612208,39.2014286 L85.2128337,39.2014286 C85.6696079,39.2014286 86.0312208,39.2464286 86.2976724,39.3364286 C86.5831563,39.4264286 86.8369197,39.5807143 87.0716509,39.7928571 C87.5411133,40.2235714 87.7758445,40.7957143 87.7758445,41.5028571 C87.7758445,42.21 87.5347692,42.7821429 87.0462746,43.2192857 C86.7988552,43.4378571 86.5450918,43.5921429 86.2786402,43.6757143 C86.0248767,43.7592857 85.6696079,43.8042857 85.2128337,43.8042857 L84.2612208,43.8042857 L84.2612208,43.7978571 Z M84.9463821,43.1485714 L85.2572423,43.1485714 C85.5617584,43.1485714 85.821866,43.1164286 86.0248767,43.0521429 C86.2278875,42.9814286 86.411866,42.8721429 86.5768122,42.7242857 C86.9130488,42.4092857 87.0843391,42.0042857 87.0843391,41.5028571 C87.0843391,40.995 86.9193929,40.59 86.5831563,40.275 C86.2849843,39.9921429 85.8408982,39.8571429 85.2572423,39.8571429 L84.9463821,39.8571429 L84.9463821,43.1485714 L84.9463821,43.1485714 Z" id="Shape" fill="#FFFFFF" fill-rule="nonzero"></path>
            <polygon id="Path" fill="#FFFFFF" fill-rule="nonzero" points="90.104124 41.0014286 92.0581025 41.0014286 92.0581025 39.2014286 92.7432638 39.2014286 92.7432638 43.7978571 92.0581025 43.7978571 92.0581025 41.6507143 90.104124 41.6507143 90.104124 43.7978571 89.4189628 43.7978571 89.4189628 39.2014286 90.104124 39.2014286"></polygon>
            <rect id="Rectangle" fill="#FFFFFF" fill-rule="nonzero" x="94.6147692" y="39.2014286" width="1" height="4.60285714"></rect>
            <path d="M97.8565972,41.9335714 L97.8565972,43.8042857 L97.1714359,43.8042857 L97.1714359,39.2014286 L97.9454144,39.2014286 C98.3260595,39.2014286 98.6115434,39.2271429 98.8082101,39.2785714 C99.0048767,39.33 99.1761671,39.4328571 99.3284251,39.5807143 C99.5885326,39.8378571 99.7217584,40.1657143 99.7217584,40.5578571 C99.7217584,40.9757143 99.5821886,41.31 99.3030488,41.5607143 C99.023909,41.805 98.6496079,41.9271429 98.1801455,41.9271429 L97.8565972,41.9271429 L97.8565972,41.9335714 Z M97.8565972,41.2907143 L98.1103606,41.2907143 C98.7384251,41.2907143 99.0556294,41.0464286 99.0556294,40.5514286 C99.0556294,40.0757143 98.732081,39.8378571 98.0849843,39.8378571 L97.8565972,39.8378571 L97.8565972,41.2907143 Z" id="Shape" fill="#FFFFFF" fill-rule="nonzero"></path>
            <path d="M103.540898,42.6792857 L101.599608,42.6792857 L101.092081,43.7978571 L100.356167,43.7978571 L102.601974,38.9121429 L104.771651,43.7978571 L104.023049,43.7978571 L103.540898,42.6792857 Z M103.261758,42.03 L102.589285,40.4678571 L101.885092,42.03 L103.261758,42.03 Z" id="Shape" fill="#FFFFFF" fill-rule="nonzero"></path>
            <polygon id="Path" fill="#FFFFFF" fill-rule="nonzero" points="106.636812 41.8114286 105.15864 39.2014286 105.945307 39.2014286 106.985737 41.04 108.026167 39.2014286 108.812834 39.2014286 107.321974 41.8114286 107.321974 43.7978571 106.636812 43.7978571"></polygon>
            <path d="M112.371866,42.6792857 L110.430576,42.6792857 L109.923049,43.7978571 L109.187135,43.7978571 L111.432941,38.9121429 L113.602619,43.7978571 L112.854017,43.7978571 L112.371866,42.6792857 Z M112.092726,42.03 L111.420253,40.4678571 L110.71606,42.03 L112.092726,42.03 Z" id="Shape" fill="#FFFFFF" fill-rule="nonzero"></path>
            <path d="M21.9369197,10.2214286 C21.6768122,7.2 20.3064896,4.50642857 18.0860595,2.64214286 C16.1003606,0.938571429 13.5944466,8.8817842e-15 11.0314359,8.8817842e-15 C10.7205757,8.8817842e-15 10.3970273,0.0128571429 10.0861671,0.0385714286 C7.10444662,0.308571429 4.44627458,1.69071429 2.60648963,3.93428571 C0.69691974,6.22285714 -0.216628647,9.10285714 0.0434788794,12.0342857 C0.259177804,14.8757143 1.53433909,17.4857143 3.6215434,19.3885714 C3.74842512,19.5171429 3.9387477,19.5942857 4.11638211,19.5942857 C4.3003606,19.5942857 4.49068318,19.5171429 4.61122081,19.3885714 C4.75713479,19.2407143 4.82691974,19.035 4.8015434,18.8228571 C4.77616705,18.6621429 4.70003802,18.5078571 4.56046813,18.3664286 C2.74605952,16.6435714 1.63584447,14.3421429 1.4391778,11.8864286 C1.24251114,9.27 2.01648963,6.82071429 3.68498426,4.80857143 C5.34713479,2.84142857 7.67541436,1.65214286 10.2384251,1.45285714 C10.4921886,1.43357143 10.745952,1.42071429 10.9997154,1.42071429 C13.2708982,1.42071429 15.465952,2.23714286 17.1788552,3.72857143 C19.1011133,5.4 20.2938015,7.74642857 20.5348767,10.3242857 C20.6934789,12.4842857 20.1732638,14.5735714 19.0376724,16.3607143 C18.9361671,16.5085714 18.9044466,16.7078571 18.9425111,16.8942857 C18.9805757,17.0871429 19.0884251,17.2542857 19.2343391,17.3507143 C19.3421886,17.4278571 19.4754144,17.4664286 19.6149843,17.4664286 C19.8560595,17.4664286 20.0907907,17.3442857 20.2176724,17.1514286 C21.5562746,15.0685714 22.1462746,12.6707143 21.9369197,10.2214286" id="Path" fill="#FFFFFF" fill-rule="nonzero"></path>
            <path d="M11.0631563,3.47785714 C10.8538015,3.47785714 10.6381025,3.48428571 10.4287477,3.50357143 C6.19724232,3.85714286 3.03788748,7.63714286 3.38046813,11.9185714 C3.50734985,13.5128571 4.12907028,15.0364286 5.18218856,16.335 C5.34079071,16.5985714 5.62627458,16.5985714 5.72777995,16.5985714 C5.89907028,16.5985714 6.01326383,16.5342857 6.08304877,16.4892857 L6.17821006,16.4378571 L6.22261866,16.3928571 C6.47638211,16.1357143 6.51444662,15.75 6.31143587,15.4478571 L6.28605952,15.4092857 C5.39788748,14.3485714 4.8903606,13.095 4.82057565,11.7707143 C4.55412404,8.26714286 7.12982297,5.19428571 10.5746617,4.92428571 C10.7396079,4.91142857 10.9045541,4.905 11.0695004,4.905 C14.3303606,4.905 17.0773498,7.47642857 17.3374574,10.755 C17.4516509,12.15 17.1154144,13.5128571 16.3858445,14.6828571 C16.2589628,14.8564286 16.2082101,15.0557143 16.2399305,15.2485714 C16.2716509,15.435 16.3731563,15.5892857 16.5317584,15.6985714 C16.6396079,15.7757143 16.7728337,15.8142857 16.9124036,15.8142857 C17.1534789,15.8142857 17.3882101,15.6921429 17.5214359,15.4928571 C18.4476724,14.0207143 18.8663821,12.3492857 18.7395004,10.6521429 C18.3969197,6.62785714 15.0345541,3.47785714 11.0631563,3.47785714" id="Path" fill="#E1251B" fill-rule="nonzero"></path>
            <path d="M8.06240361,27.9257143 C8.06240361,28.0992857 8.06240361,28.215 8.06240361,28.3307143 C8.06240361,29.7 8.05605952,31.0692857 8.0687477,32.445 C8.0687477,32.8371429 8.32885522,33.1392857 8.67777995,33.21 C9.07111329,33.2807143 9.43272619,33.1071429 9.565952,32.7471429 C9.62304877,32.5992857 9.62939286,32.4321429 9.62939286,32.2714286 C9.63573694,30.9535714 9.62939286,29.6421429 9.62939286,28.3242857 C9.62939286,24.0814286 9.62939286,19.845 9.62939286,15.6021429 C9.62939286,14.6828571 10.1178875,14.0142857 10.8855219,13.8471429 C11.9386402,13.6285714 12.8458445,14.3935714 12.8458445,15.525 C12.8521886,17.8328571 12.8458445,20.1407143 12.8458445,22.455 C12.8458445,23.5864286 12.8458445,24.7178571 12.8458445,25.8557143 C12.8458445,26.415 13.1440165,26.7492857 13.6325111,26.7428571 C14.1210058,26.7428571 14.4128337,26.4085714 14.4128337,25.8428571 C14.4128337,24.5571429 14.4064896,23.2778571 14.4128337,21.9921429 C14.4191778,21.1307143 14.9267047,20.4685714 15.6816509,20.3142857 C16.7093929,20.1085714 17.6102531,20.8542857 17.6292853,21.9471429 C17.6419735,22.7571429 17.6292853,23.5671429 17.6356294,24.3771429 C17.6419735,24.75 17.902081,25.0457143 18.2383176,25.11 C18.6316509,25.1871429 18.9869197,25.0071429 19.1264896,24.6535714 C19.1708982,24.5378571 19.1899305,24.4028571 19.1899305,24.2742857 C19.2026187,24.0171429 19.1835864,23.7535714 19.1962746,23.4964286 C19.2470273,22.5642857 19.963909,21.8635714 20.8267047,21.8892857 C21.7085326,21.915 22.3873498,22.6221429 22.4127262,23.5478571 C22.4254144,24.0557143 22.4127262,24.5635714 22.4190703,25.0714286 C22.4254144,25.5728571 22.7235864,25.9264286 23.1676724,25.9457143 C23.5990703,25.9714286 23.947995,25.6371429 23.9860595,25.1357143 C24.0431563,24.39 24.3857369,23.8435714 25.1026187,23.5992857 C25.7370273,23.3807143 26.3016509,23.5478571 26.7647692,24.03 C27.0692853,24.345 27.2088552,24.7371429 27.2088552,25.1742857 C27.2088552,28.5107143 27.2532638,31.8471429 27.1961671,35.1771429 C27.1390703,39.7157143 24.1256294,43.4378571 19.7545541,44.3571429 C16.5571348,45.0257143 13.7213283,44.1707143 11.3422961,41.895 C10.0925111,40.6928571 8.88713479,39.4392857 7.68175845,38.1921429 C4.90939286,35.3185714 5.02358641,30.7671429 7.92283372,28.0285714 C7.94186598,28.0028571 7.97358641,27.99 8.06240361,27.9257143" id="Path" fill="#FFFFFF" fill-rule="nonzero"></path>
        </g>
    </g>
</svg>