<svg id="Layer_1" data-name="Layer 1" xmlns="http://www.w3.org/2000/svg" xmlns:xlink="http://www.w3.org/1999/xlink" viewBox="0 0 744 814"><defs><style>.cls-1,.cls-2,.cls-5{fill:#fff;}.cls-1,.cls-4{clip-rule:evenodd;}.cls-3,.cls-4{fill:none;}.cls-13,.cls-15,.cls-5{fill-rule:evenodd;}.cls-6{clip-path:url(#clip-path);}.cls-7{clip-path:url(#clip-path-2);}.cls-8{fill:#20386d;}.cls-9{fill:url(#linear-gradient);}.cls-10{clip-path:url(#clip-path-3);}.cls-11{opacity:0.6;}.cls-12{clip-path:url(#clip-path-4);}.cls-13{fill:url(#linear-gradient-2);}.cls-14{fill:#f9dac9;}.cls-15,.cls-16{fill:#f7bd9f;}.cls-17{fill:url(#linear-gradient-3);}.cls-18{fill:url(#linear-gradient-4);}</style><clipPath id="clip-path"><path class="cls-1" d="M9.68-1749.4"/></clipPath><clipPath id="clip-path-2"><rect class="cls-2" x="131.78" y="-2204.1" width="6.4" height="2.45" transform="translate(1538.62 -499.73) rotate(-43)"/></clipPath><linearGradient id="linear-gradient" x1="616.5" y1="61.6" x2="118.35" y2="415.27" gradientUnits="userSpaceOnUse"><stop offset="0" stop-color="#f18921"/><stop offset="0.13" stop-color="#ef7a2a"/><stop offset="0.51" stop-color="#ea5042"/><stop offset="0.82" stop-color="#e73650"/><stop offset="1" stop-color="#e62c56"/></linearGradient><clipPath id="clip-path-3"><rect class="cls-3" x="44.03" y="179.22" width="561.85" height="178.74"/></clipPath><clipPath id="clip-path-4"><path class="cls-4" d="M30.79.65h677.1c10,0,18,6.71,18,15V42.57H12.74V15.64C12.74,7.36,20.82.65,30.79.65Z"/></clipPath><linearGradient id="linear-gradient-2" x1="572.05" y1="-118.27" x2="-41.27" y2="317.17" xlink:href="#linear-gradient"/><linearGradient id="linear-gradient-3" x1="148.59" y1="496.42" x2="305.15" y2="496.42" xlink:href="#linear-gradient"/><linearGradient id="linear-gradient-4" x1="533.82" y1="473.49" x2="688.2" y2="473.49" xlink:href="#linear-gradient"/></defs><title>icon-nuch</title><path class="cls-5" d="M9.68-1749.4"/><g class="cls-6"><rect class="cls-2" x="-604.64" y="-3226.43" width="1823.02" height="5037.36"/></g><rect class="cls-2" x="131.78" y="-2204.1" width="6.4" height="2.45" transform="translate(1538.62 -499.73) rotate(-43)"/><g class="cls-7"><rect class="cls-2" x="-348.76" y="-3372.65" width="1440" height="3979"/></g><rect id="_Rectangle_" data-name="&lt;Rectangle&gt;" class="cls-8" x="13.25" y="16.59" width="730.81" height="447.54" rx="10.33" ry="10.33"/><rect id="_Rectangle_2" data-name="&lt;Rectangle&gt;" class="cls-2" x="12.74" y="1.19" width="713.19" height="447.54" rx="10.33" ry="10.33"/><rect class="cls-8" y="78.52" width="591.21" height="72.38"/><path class="cls-5" d="M53.47,91.11h430.8a22,22,0,0,1,0,44.05H53.47a22,22,0,1,1,0-44.05Z"/><path class="cls-5" d="M539.39,118.34a9.85,9.85,0,1,1,9.84-9.85A9.81,9.81,0,0,1,539.39,118.34Zm22.86,10-11.37-11.38a13.88,13.88,0,0,0,2.73-8.43,14.17,14.17,0,1,0-5.8,11.49l11.38,11.38a2.12,2.12,0,0,0,3.06,0A2.12,2.12,0,0,0,562.25,128.3Z"/><rect class="cls-9" x="44.03" y="179.22" width="561.85" height="178.74"/><g class="cls-10"><g class="cls-11"><path class="cls-2" d="M82.41,108.83a.87.87,0,0,1-1.2.27.85.85,0,0,1-.28-1.19.87.87,0,0,1,1.2-.27A.86.86,0,0,1,82.41,108.83Z"/><path class="cls-2" d="M104.72,120.07a.87.87,0,0,1-1.2.27.86.86,0,0,1-.28-1.19.87.87,0,0,1,1.2-.27A.86.86,0,0,1,104.72,120.07Z"/><path class="cls-2" d="M126.05,132.91a.87.87,0,0,1-1.2.27.86.86,0,0,1-.28-1.19.87.87,0,0,1,1.2-.27A.86.86,0,0,1,126.05,132.91Z"/><path class="cls-2" d="M143.61,124.62a.87.87,0,0,1-1.2.27.86.86,0,0,1-.28-1.19.87.87,0,0,1,1.2-.27A.85.85,0,0,1,143.61,124.62Z"/><path class="cls-2" d="M167.36,121a.87.87,0,0,1-1.2.27.86.86,0,0,1-.28-1.19.87.87,0,0,1,1.2-.27A.86.86,0,0,1,167.36,121Z"/><path class="cls-2" d="M185.25,131.82a.87.87,0,0,1-1.2.27.85.85,0,0,1-.28-1.19.87.87,0,0,1,1.2-.27A.85.85,0,0,1,185.25,131.82Z"/><path class="cls-2" d="M190.86,150.73a.87.87,0,0,1-1.2.27.85.85,0,0,1-.28-1.19.87.87,0,0,1,1.2-.27A.86.86,0,0,1,190.86,150.73Z"/><path class="cls-2" d="M180.52,153.76a.87.87,0,0,1-1.2.27.85.85,0,0,1-.28-1.19.87.87,0,0,1,1.2-.27A.86.86,0,0,1,180.52,153.76Z"/><path class="cls-2" d="M147.86,132.42a.87.87,0,0,1-1.2.27.86.86,0,0,1-.28-1.19.87.87,0,0,1,1.2-.27A.86.86,0,0,1,147.86,132.42Z"/><path class="cls-2" d="M114.78,149.8a.87.87,0,0,1-1.2.27.85.85,0,0,1-.28-1.19.87.87,0,0,1,1.2-.27A.86.86,0,0,1,114.78,149.8Z"/><path class="cls-2" d="M81.49,139.42a.87.87,0,0,1-1.2.27.86.86,0,0,1-.28-1.19.87.87,0,0,1,1.2-.27A.86.86,0,0,1,81.49,139.42Z"/><path class="cls-2" d="M61.56,145.34a.87.87,0,0,1-1.2.27.86.86,0,0,1-.28-1.19.87.87,0,0,1,1.2-.27A.86.86,0,0,1,61.56,145.34Z"/><path class="cls-2" d="M57.27,173.92a.87.87,0,0,1-1.2.27.86.86,0,0,1-.28-1.19.87.87,0,0,1,1.2-.27A.86.86,0,0,1,57.27,173.92Z"/><path class="cls-2" d="M57.13,206.65a.87.87,0,0,1-1.2.27.86.86,0,0,1-.28-1.19.87.87,0,0,1,1.2-.27A.86.86,0,0,1,57.13,206.65Z"/><path class="cls-2" d="M49.44,237a.87.87,0,0,1-1.2.27.85.85,0,0,1-.28-1.19.87.87,0,0,1,1.2-.27A.86.86,0,0,1,49.44,237Z"/><path class="cls-2" d="M58.49,259.6a.87.87,0,0,1-1.2.27.86.86,0,0,1-.28-1.19.87.87,0,0,1,1.2-.27A.86.86,0,0,1,58.49,259.6Z"/><path class="cls-2" d="M67.87,254.24a.87.87,0,0,1-1.2.27.86.86,0,0,1-.28-1.19.87.87,0,0,1,1.2-.27A.86.86,0,0,1,67.87,254.24Z"/><path class="cls-2" d="M64.07,206.68a.87.87,0,0,1-1.2.27.86.86,0,0,1-.28-1.19.87.87,0,0,1,1.2-.27A.85.85,0,0,1,64.07,206.68Z"/><path class="cls-2" d="M72.71,170.7a.87.87,0,0,1-1.2.27.86.86,0,0,1-.28-1.19.87.87,0,0,1,1.2-.27A.86.86,0,0,1,72.71,170.7Z"/><path class="cls-2" d="M100.33,184a.87.87,0,0,1-1.2.27.86.86,0,0,1-.28-1.19.87.87,0,0,1,1.2-.27A.86.86,0,0,1,100.33,184Z"/><path class="cls-2" d="M122.57,182.26a.87.87,0,0,1-1.2.27.86.86,0,0,1-.28-1.19.87.87,0,0,1,1.2-.27A.85.85,0,0,1,122.57,182.26Z"/><path class="cls-2" d="M150.34,167.51a.87.87,0,0,1-1.2.27.85.85,0,0,1-.28-1.19.87.87,0,0,1,1.2-.27A.86.86,0,0,1,150.34,167.51Z"/><path class="cls-2" d="M174.43,190.22a.87.87,0,0,1-1.2.27.86.86,0,0,1-.28-1.19.87.87,0,0,1,1.2-.27A.86.86,0,0,1,174.43,190.22Z"/><path class="cls-2" d="M195.71,176.1a.87.87,0,0,1-1.2.27.85.85,0,0,1-.28-1.19.87.87,0,0,1,1.2-.27A.86.86,0,0,1,195.71,176.1Z"/><path class="cls-2" d="M181.93,161.48a.87.87,0,0,1-1.2.27.85.85,0,0,1-.28-1.19.87.87,0,0,1,1.2-.27A.86.86,0,0,1,181.93,161.48Z"/><path class="cls-2" d="M151.32,149.35a.87.87,0,0,1-1.2.27.86.86,0,0,1-.28-1.19.87.87,0,0,1,1.2-.27A.86.86,0,0,1,151.32,149.35Z"/><path class="cls-2" d="M125.23,159a.87.87,0,0,1-1.2.27.85.85,0,0,1-.28-1.19.87.87,0,0,1,1.2-.27A.86.86,0,0,1,125.23,159Z"/><path class="cls-2" d="M103.57,155.64a.87.87,0,0,1-1.2.27.86.86,0,0,1-.28-1.19.87.87,0,0,1,1.2-.27A.86.86,0,0,1,103.57,155.64Z"/><path class="cls-2" d="M93.49,189.94a.87.87,0,0,1-1.2.27A.85.85,0,0,1,92,189a.87.87,0,0,1,1.2-.27A.86.86,0,0,1,93.49,189.94Z"/><path class="cls-2" d="M96.5,203.42a.87.87,0,0,1-1.2.27.86.86,0,0,1-.28-1.19.87.87,0,0,1,1.2-.27A.86.86,0,0,1,96.5,203.42Z"/><path class="cls-2" d="M79,218.4a.87.87,0,0,1-1.2.27.86.86,0,0,1-.28-1.19.87.87,0,0,1,1.2-.27A.86.86,0,0,1,79,218.4Z"/><path class="cls-2" d="M78.68,237.09a.87.87,0,0,1-1.2.27.86.86,0,0,1-.28-1.19.87.87,0,0,1,1.2-.27A.86.86,0,0,1,78.68,237.09Z"/><path class="cls-2" d="M84.62,229.31a.87.87,0,0,1-1.2.27.85.85,0,0,1-.28-1.19.87.87,0,0,1,1.2-.27A.86.86,0,0,1,84.62,229.31Z"/><path class="cls-2" d="M126,213.77a.87.87,0,0,1-1.2.27.85.85,0,0,1-.28-1.19.87.87,0,0,1,1.2-.27A.86.86,0,0,1,126,213.77Z"/><path class="cls-2" d="M149,197.94a.87.87,0,0,1-1.2.27.85.85,0,0,1-.28-1.19.87.87,0,0,1,1.2-.27A.86.86,0,0,1,149,197.94Z"/><path class="cls-2" d="M177.55,183.88a.87.87,0,0,1-1.2.27.85.85,0,0,1-.28-1.19.87.87,0,0,1,1.2-.27A.86.86,0,0,1,177.55,183.88Z"/><path class="cls-2" d="M105.63,136.24a.87.87,0,0,1-1.2.27.86.86,0,0,1-.28-1.19.87.87,0,0,1,1.2-.27A.86.86,0,0,1,105.63,136.24Z"/><path class="cls-2" d="M102.5,98.35a.87.87,0,0,1-1.2.27.86.86,0,0,1-.28-1.19.87.87,0,0,1,1.2-.27A.86.86,0,0,1,102.5,98.35Z"/><path class="cls-2" d="M88,84.43a.87.87,0,0,1-1.2.27.86.86,0,0,1-.28-1.19.87.87,0,0,1,1.2-.27A.85.85,0,0,1,88,84.43Z"/><path class="cls-2" d="M76.34,69.73a.87.87,0,0,1-1.2.27.85.85,0,0,1-.28-1.19.87.87,0,0,1,1.2-.27A.86.86,0,0,1,76.34,69.73Z"/><path class="cls-2" d="M62.38,50.06a.87.87,0,0,1-1.2.27.86.86,0,0,1-.28-1.19.87.87,0,0,1,1.2-.27A.86.86,0,0,1,62.38,50.06Z"/><path class="cls-2" d="M54.37,41.07a.87.87,0,0,1-1.2.27.86.86,0,0,1-.28-1.19.87.87,0,0,1,1.2-.27A.85.85,0,0,1,54.37,41.07Z"/><path class="cls-2" d="M46.91,33.45a.87.87,0,0,1-1.2.27.85.85,0,0,1-.28-1.19.87.87,0,0,1,1.2-.27A.85.85,0,0,1,46.91,33.45Z"/><path class="cls-2" d="M38.78,23.22a.87.87,0,0,1-1.2.27.86.86,0,0,1-.28-1.19A.87.87,0,0,1,38.5,22,.86.86,0,0,1,38.78,23.22Z"/><path class="cls-2" d="M39.86,16.27a.87.87,0,0,1-1.2.27.86.86,0,0,1-.28-1.19.87.87,0,0,1,1.2-.27A.86.86,0,0,1,39.86,16.27Z"/><path class="cls-2" d="M79.77,12.81a.87.87,0,0,1-1.2.27.86.86,0,0,1-.28-1.19.87.87,0,0,1,1.2-.27A.85.85,0,0,1,79.77,12.81Z"/><path class="cls-2" d="M101.71,18.3a.87.87,0,0,1-1.2.27.85.85,0,0,1-.28-1.19.87.87,0,0,1,1.2-.27A.86.86,0,0,1,101.71,18.3Z"/><path class="cls-2" d="M123.29,12.59a.87.87,0,0,1-1.2.27.86.86,0,0,1-.28-1.19.87.87,0,0,1,1.2-.27A.85.85,0,0,1,123.29,12.59Z"/><path class="cls-2" d="M134.4,22.93a.87.87,0,0,1-1.2.27.86.86,0,0,1-.28-1.19.87.87,0,0,1,1.2-.27A.86.86,0,0,1,134.4,22.93Z"/><path class="cls-2" d="M119.63,30.6a.87.87,0,0,1-1.2.27.85.85,0,0,1-.28-1.19.87.87,0,0,1,1.2-.27A.86.86,0,0,1,119.63,30.6Z"/><path class="cls-2" d="M86.17,29.32a.87.87,0,0,1-1.2.27.86.86,0,0,1-.28-1.19.87.87,0,0,1,1.2-.27A.86.86,0,0,1,86.17,29.32Z"/><path class="cls-2" d="M58.84,57.85a.87.87,0,0,1-1.2.27.85.85,0,0,1-.28-1.19.87.87,0,0,1,1.2-.27A.86.86,0,0,1,58.84,57.85Z"/><path class="cls-2" d="M47,76.49a.87.87,0,0,1-1.2.27.86.86,0,0,1-.28-1.19.87.87,0,0,1,1.2-.27A.85.85,0,0,1,47,76.49Z"/><path class="cls-2" d="M41.33,112.16a.87.87,0,0,1-1.2.27.86.86,0,0,1-.28-1.19A.87.87,0,0,1,41,111,.85.85,0,0,1,41.33,112.16Z"/><path class="cls-2" d="M35.52,131.41a.87.87,0,0,1-1.2.27A.86.86,0,0,1,34,130.5a.87.87,0,0,1,1.2-.27A.86.86,0,0,1,35.52,131.41Z"/><path class="cls-2" d="M55.41,109.53a.87.87,0,0,1-1.2.27.86.86,0,0,1-.28-1.19.87.87,0,0,1,1.2-.27A.85.85,0,0,1,55.41,109.53Z"/><path class="cls-2" d="M105.92,86.83a.87.87,0,0,1-1.2.27.86.86,0,0,1-.28-1.19.87.87,0,0,1,1.2-.27A.85.85,0,0,1,105.92,86.83Z"/><path class="cls-2" d="M142.69,96.35a.87.87,0,0,1-1.2.27.86.86,0,0,1-.28-1.19.87.87,0,0,1,1.2-.27A.85.85,0,0,1,142.69,96.35Z"/><path class="cls-2" d="M178.57,93.83a.87.87,0,0,1-1.2.27.85.85,0,0,1-.28-1.19.87.87,0,0,1,1.2-.27A.86.86,0,0,1,178.57,93.83Z"/><path class="cls-2" d="M178.31,77.26a.87.87,0,0,1-1.2.27.86.86,0,0,1-.28-1.19.87.87,0,0,1,1.2-.27A.86.86,0,0,1,178.31,77.26Z"/><path class="cls-2" d="M160.71,45.45a.87.87,0,0,1-1.2.27.85.85,0,0,1-.28-1.19.87.87,0,0,1,1.2-.27A.86.86,0,0,1,160.71,45.45Z"/><path class="cls-2" d="M144.08,45.75a.87.87,0,0,1-1.2.27.86.86,0,0,1-.28-1.19.87.87,0,0,1,1.2-.27A.86.86,0,0,1,144.08,45.75Z"/><path class="cls-2" d="M155.31,21.92a.87.87,0,0,1-1.2.27.86.86,0,0,1-.28-1.19.87.87,0,0,1,1.2-.27A.86.86,0,0,1,155.31,21.92Z"/></g><g class="cls-11"><path class="cls-2" d="M359.81,18.67a.85.85,0,0,1-.08,1.21.88.88,0,0,1-1.23-.07.85.85,0,0,1,.08-1.21A.88.88,0,0,1,359.81,18.67Z"/><path class="cls-2" d="M353.37,37.33a.85.85,0,0,1-.08,1.21.88.88,0,0,1-1.23-.07.85.85,0,0,1,.08-1.21A.88.88,0,0,1,353.37,37.33Z"/><path class="cls-2" d="M347.86,59.12a.85.85,0,0,1-.08,1.21.88.88,0,0,1-1.23-.07.85.85,0,0,1,.08-1.21A.88.88,0,0,1,347.86,59.12Z"/><path class="cls-2" d="M333.83,69.52a.85.85,0,0,1-.08,1.21.88.88,0,0,1-1.23-.07.85.85,0,0,1,.08-1.21A.88.88,0,0,1,333.83,69.52Z"/><path class="cls-2" d="M339.8,85.78a.85.85,0,0,1-.08,1.21.88.88,0,0,1-1.23-.07.85.85,0,0,1,.08-1.21A.88.88,0,0,1,339.8,85.78Z"/><path class="cls-2" d="M358.83,94.63a.85.85,0,0,1-.08,1.21.88.88,0,0,1-1.23-.07.85.85,0,0,1,.08-1.21A.88.88,0,0,1,358.83,94.63Z"/><path class="cls-2" d="M365.06,85.74A.85.85,0,0,1,365,87a.88.88,0,0,1-1.23-.07.85.85,0,0,1,.08-1.21A.88.88,0,0,1,365.06,85.74Z"/><path class="cls-2" d="M364.77,47.77A.85.85,0,0,1,364.7,49a.88.88,0,0,1-1.23-.07.85.85,0,0,1,.08-1.21A.88.88,0,0,1,364.77,47.77Z"/><path class="cls-2" d="M397.34,44.38a.85.85,0,0,1-.08,1.21.88.88,0,0,1-1.23-.07.85.85,0,0,1,.08-1.21A.88.88,0,0,1,397.34,44.38Z"/><path class="cls-2" d="M419.3,65.66a.85.85,0,0,1-.08,1.21A.88.88,0,0,1,418,66.8a.85.85,0,0,1,.08-1.21A.88.88,0,0,1,419.3,65.66Z"/><path class="cls-2" d="M405.85,104.84a.85.85,0,0,1-.08,1.21.88.88,0,0,1-1.23-.07.85.85,0,0,1,.08-1.21A.88.88,0,0,1,405.85,104.84Z"/><path class="cls-2" d="M395.91,131.88a.85.85,0,0,1-.08,1.21.88.88,0,0,1-1.23-.07.85.85,0,0,1,.08-1.21A.88.88,0,0,1,395.91,131.88Z"/><path class="cls-2" d="M403.18,168.79a.85.85,0,0,1-.08,1.21.88.88,0,0,1-1.23-.07.85.85,0,0,1,.08-1.21A.88.88,0,0,1,403.18,168.79Z"/><path class="cls-2" d="M417.7,184.87a.85.85,0,0,1-.08,1.21.88.88,0,0,1-1.23-.07.85.85,0,0,1,.08-1.21A.88.88,0,0,1,417.7,184.87Z"/><path class="cls-2" d="M432,189.34a.85.85,0,0,1-.08,1.21.88.88,0,0,1-1.23-.07.85.85,0,0,1,.08-1.21A.88.88,0,0,1,432,189.34Z"/><path class="cls-2" d="M437.35,167.21a.85.85,0,0,1-.08,1.21.88.88,0,0,1-1.23-.07.85.85,0,0,1,.08-1.21A.88.88,0,0,1,437.35,167.21Z"/><path class="cls-2" d="M433.45,123.77a.85.85,0,0,1-.08,1.21.88.88,0,0,1-1.23-.07.85.85,0,0,1,.08-1.21A.88.88,0,0,1,433.45,123.77Z"/><path class="cls-2" d="M438.82,99.45a.85.85,0,0,1-.08,1.21.88.88,0,0,1-1.23-.07.85.85,0,0,1,.08-1.21A.88.88,0,0,1,438.82,99.45Z"/><path class="cls-2" d="M441.52,77.42a.85.85,0,0,1-.08,1.21.88.88,0,0,1-1.23-.07.85.85,0,0,1,.08-1.21A.88.88,0,0,1,441.52,77.42Z"/><path class="cls-2" d="M468.92,79.37a.85.85,0,0,1-.08,1.21.88.88,0,0,1-1.23-.07.85.85,0,0,1,.08-1.21A.88.88,0,0,1,468.92,79.37Z"/><path class="cls-2" d="M492.14,164.64a.87.87,0,0,1-1.2.27.85.85,0,0,1-.28-1.19.87.87,0,0,1,1.2-.27A.85.85,0,0,1,492.14,164.64Z"/><path class="cls-2" d="M475.66,84.23a.85.85,0,0,1-.08,1.21.88.88,0,0,1-1.23-.07.85.85,0,0,1,.08-1.21A.88.88,0,0,1,475.66,84.23Z"/><path class="cls-2" d="M447.15,65.67a.85.85,0,0,1-.08,1.21.88.88,0,0,1-1.23-.07.85.85,0,0,1,.08-1.21A.88.88,0,0,1,447.15,65.67Z"/><path class="cls-2" d="M423.26,28.59a.85.85,0,0,1-.08,1.21.88.88,0,0,1-1.23-.07.85.85,0,0,1,.08-1.21A.88.88,0,0,1,423.26,28.59Z"/><path class="cls-2" d="M420.64,6.15a.85.85,0,0,1-.08,1.21.88.88,0,0,1-1.23-.07.85.85,0,0,1,.08-1.21A.88.88,0,0,1,420.64,6.15Z"/><path class="cls-2" d="M384.64,20.48a.85.85,0,0,1-.08,1.21.88.88,0,0,1-1.23-.07.85.85,0,0,1,.08-1.21A.88.88,0,0,1,384.64,20.48Z"/><path class="cls-2" d="M378.12,54.4a.85.85,0,0,1-.08,1.21.88.88,0,0,1-1.23-.07.85.85,0,0,1,.08-1.21A.88.88,0,0,1,378.12,54.4Z"/><path class="cls-2" d="M380.32,80.54a.85.85,0,0,1-.08,1.21.88.88,0,0,1-1.23-.07.85.85,0,0,1,.08-1.21A.88.88,0,0,1,380.32,80.54Z"/><path class="cls-2" d="M414.18,139.86a.85.85,0,0,1-.08,1.21.88.88,0,0,1-1.23-.07.85.85,0,0,1,.08-1.21A.88.88,0,0,1,414.18,139.86Z"/><path class="cls-2" d="M373.31,110.77a.85.85,0,0,1-.08,1.21.88.88,0,0,1-1.23-.07.85.85,0,0,1,.08-1.21A.88.88,0,0,1,373.31,110.77Z"/><path class="cls-2" d="M343.11,129.69a.85.85,0,0,1-.08,1.21.88.88,0,0,1-1.23-.07.85.85,0,0,1,.08-1.21A.88.88,0,0,1,343.11,129.69Z"/><path class="cls-2" d="M341.82,164.79a.85.85,0,0,1-.08,1.21.88.88,0,0,1-1.23-.07.85.85,0,0,1,.08-1.21A.88.88,0,0,1,341.82,164.79Z"/><path class="cls-2" d="M329.6,190.67a.85.85,0,0,1-.08,1.21.88.88,0,0,1-1.23-.07.85.85,0,0,1,.08-1.21A.88.88,0,0,1,329.6,190.67Z"/><path class="cls-2" d="M307.08,212.5a.85.85,0,0,1-.08,1.21.88.88,0,0,1-1.23-.07.85.85,0,0,1,.08-1.21A.88.88,0,0,1,307.08,212.5Z"/><path class="cls-2" d="M303.47,235.47a.85.85,0,0,1-.08,1.21.88.88,0,0,1-1.23-.07.85.85,0,0,1,.08-1.21A.88.88,0,0,1,303.47,235.47Z"/><path class="cls-2" d="M316.5,259.19a.85.85,0,0,1-.08,1.21.88.88,0,0,1-1.23-.07.85.85,0,0,1,.08-1.21A.88.88,0,0,1,316.5,259.19Z"/><path class="cls-2" d="M320,204.08a.85.85,0,0,1-.08,1.21.88.88,0,0,1-1.23-.07.85.85,0,0,1,.08-1.21A.88.88,0,0,1,320,204.08Z"/><path class="cls-2" d="M356.19,160.79a.85.85,0,0,1-.08,1.21.88.88,0,0,1-1.23-.07.85.85,0,0,1,.08-1.21A.88.88,0,0,1,356.19,160.79Z"/><path class="cls-2" d="M376.8,136.72a.85.85,0,0,1-.08,1.21.88.88,0,0,1-1.23-.07.85.85,0,0,1,.08-1.21A.88.88,0,0,1,376.8,136.72Z"/><path class="cls-2" d="M336.18,91.1a.85.85,0,0,1-.08,1.21.88.88,0,0,1-1.23-.07.85.85,0,0,1,.08-1.21A.88.88,0,0,1,336.18,91.1Z"/><path class="cls-2" d="M314.38,135.53a.85.85,0,0,1-.08,1.21.88.88,0,0,1-1.23-.07.85.85,0,0,1,.08-1.21A.88.88,0,0,1,314.38,135.53Z"/><path class="cls-2" d="M305.81,181.16a.85.85,0,0,1-.08,1.21.88.88,0,0,1-1.23-.07.85.85,0,0,1,.08-1.21A.88.88,0,0,1,305.81,181.16Z"/><path class="cls-2" d="M321.74,231.59a.85.85,0,0,1-.08,1.21.88.88,0,0,1-1.23-.07.85.85,0,0,1,.08-1.21A.88.88,0,0,1,321.74,231.59Z"/><path class="cls-2" d="M365.69,222.08a.85.85,0,0,1-.08,1.21.88.88,0,0,1-1.23-.07.85.85,0,0,1,.08-1.21A.88.88,0,0,1,365.69,222.08Z"/><path class="cls-2" d="M395.14,181.65a.85.85,0,0,1-.08,1.21.88.88,0,0,1-1.23-.07.85.85,0,0,1,.08-1.21A.88.88,0,0,1,395.14,181.65Z"/><path class="cls-2" d="M367.24,107.54a.85.85,0,0,1-.08,1.21.88.88,0,0,1-1.23-.07.85.85,0,0,1,.08-1.21A.88.88,0,0,1,367.24,107.54Z"/><path class="cls-2" d="M419.5,92.47a.85.85,0,0,1-.08,1.21.88.88,0,0,1-1.23-.07.85.85,0,0,1,.08-1.21A.88.88,0,0,1,419.5,92.47Z"/><path class="cls-2" d="M421.66,58.86a.85.85,0,0,1-.08,1.21.88.88,0,0,1-1.23-.07.85.85,0,0,1,.08-1.21A.88.88,0,0,1,421.66,58.86Z"/><path class="cls-2" d="M409.92,164.82a.85.85,0,0,1-.08,1.21.88.88,0,0,1-1.23-.07.85.85,0,0,1,.08-1.21A.88.88,0,0,1,409.92,164.82Z"/><path class="cls-2" d="M364.61,249.07a.85.85,0,0,1-.08,1.21.88.88,0,0,1-1.23-.07.85.85,0,0,1,.08-1.21A.88.88,0,0,1,364.61,249.07Z"/><path class="cls-2" d="M353.82,265.94a.85.85,0,0,1-.08,1.21.88.88,0,0,1-1.23-.07.85.85,0,0,1,.08-1.21A.88.88,0,0,1,353.82,265.94Z"/><path class="cls-2" d="M393.7,321.27a.85.85,0,0,1-.08,1.21.88.88,0,0,1-1.23-.07.85.85,0,0,1,.08-1.21A.88.88,0,0,1,393.7,321.27Z"/><path class="cls-2" d="M363.65,305.14a.85.85,0,0,1-.08,1.21.88.88,0,0,1-1.23-.07.85.85,0,0,1,.08-1.21A.88.88,0,0,1,363.65,305.14Z"/><path class="cls-2" d="M198.13,172.28a.87.87,0,0,1-1.2.27.86.86,0,0,1-.28-1.19.87.87,0,0,1,1.2-.27A.86.86,0,0,1,198.13,172.28Z"/><path class="cls-2" d="M340.69,352a.85.85,0,0,1-.08,1.21.88.88,0,0,1-1.23-.07.85.85,0,0,1,.08-1.21A.88.88,0,0,1,340.69,352Z"/><path class="cls-2" d="M365.59,362a.85.85,0,0,1-.08,1.21.88.88,0,0,1-1.23-.07.85.85,0,0,1,.08-1.21A.88.88,0,0,1,365.59,362Z"/><path class="cls-2" d="M322.12,326a.85.85,0,0,1-.08,1.21.88.88,0,0,1-1.23-.07.85.85,0,0,1,.08-1.21A.88.88,0,0,1,322.12,326Z"/><path class="cls-2" d="M394,331.1a.85.85,0,0,1-.08,1.21.88.88,0,0,1-1.23-.07.85.85,0,0,1,.08-1.21A.88.88,0,0,1,394,331.1Z"/><path class="cls-2" d="M345.47,226.37a.85.85,0,0,1-.08,1.21.88.88,0,0,1-1.23-.07.85.85,0,0,1,.08-1.21A.88.88,0,0,1,345.47,226.37Z"/><path class="cls-2" d="M321.24,175.42a.87.87,0,0,1-1.2.27.85.85,0,0,1-.28-1.19.87.87,0,0,1,1.2-.27A.86.86,0,0,1,321.24,175.42Z"/><path class="cls-2" d="M385.49,157.78a.85.85,0,0,1-.08,1.21.88.88,0,0,1-1.23-.07.85.85,0,0,1,.08-1.21A.88.88,0,0,1,385.49,157.78Z"/><path class="cls-2" d="M367.19,165.32a.87.87,0,0,1-1.2.27.85.85,0,0,1-.28-1.19.87.87,0,0,1,1.2-.27A.86.86,0,0,1,367.19,165.32Z"/><path class="cls-2" d="M431.11,165.66a.87.87,0,0,1-1.2.27.86.86,0,0,1-.28-1.19.87.87,0,0,1,1.2-.27A.86.86,0,0,1,431.11,165.66Z"/><path class="cls-2" d="M446.67,180.22a.87.87,0,0,1-1.2.27.85.85,0,0,1-.28-1.19.87.87,0,0,1,1.2-.27A.86.86,0,0,1,446.67,180.22Z"/><path class="cls-2" d="M480.35,173.29a.87.87,0,0,1-1.2.27.85.85,0,0,1-.28-1.19.87.87,0,0,1,1.2-.27A.86.86,0,0,1,480.35,173.29Z"/><path class="cls-2" d="M483.42,194a.87.87,0,0,1-1.2.27.86.86,0,0,1-.28-1.19.87.87,0,0,1,1.2-.27A.86.86,0,0,1,483.42,194Z"/><path class="cls-2" d="M437.79,179.4a.85.85,0,0,1-.08,1.21.88.88,0,0,1-1.23-.07.85.85,0,0,1,.08-1.21A.88.88,0,0,1,437.79,179.4Z"/><path class="cls-2" d="M387.36,270.06a.85.85,0,0,1-.08,1.21.88.88,0,0,1-1.23-.07.85.85,0,0,1,.08-1.21A.88.88,0,0,1,387.36,270.06Z"/><path class="cls-2" d="M356.7,233a.85.85,0,0,1-.08,1.21.88.88,0,0,1-1.23-.07.85.85,0,0,1,.08-1.21A.88.88,0,0,1,356.7,233Z"/><path class="cls-2" d="M421.91,256.43a.85.85,0,0,1-.08,1.21.88.88,0,0,1-1.23-.07.85.85,0,0,1,.08-1.21A.88.88,0,0,1,421.91,256.43Z"/><path class="cls-2" d="M261.31,180.41a.87.87,0,0,1-1.2.27.86.86,0,0,1-.28-1.19.87.87,0,0,1,1.2-.27A.85.85,0,0,1,261.31,180.41Z"/><path class="cls-2" d="M225.26,223.3a.87.87,0,0,1-1.2.27.85.85,0,0,1-.28-1.19.87.87,0,0,1,1.2-.27A.86.86,0,0,1,225.26,223.3Z"/><path class="cls-2" d="M276.23,209.33a.87.87,0,0,1-1.2.27.85.85,0,0,1-.28-1.19.87.87,0,0,1,1.2-.27A.86.86,0,0,1,276.23,209.33Z"/><path class="cls-2" d="M334.8,217a.87.87,0,0,1-1.2.27.86.86,0,0,1-.28-1.19.87.87,0,0,1,1.2-.27A.86.86,0,0,1,334.8,217Z"/><path class="cls-2" d="M417.06,200.66a.87.87,0,0,1-1.2.27.86.86,0,0,1-.28-1.19.87.87,0,0,1,1.2-.27A.85.85,0,0,1,417.06,200.66Z"/><path class="cls-2" d="M491.62,185.29a.87.87,0,0,1-1.2.27.86.86,0,0,1-.28-1.19.87.87,0,0,1,1.2-.27A.86.86,0,0,1,491.62,185.29Z"/><path class="cls-2" d="M517.08,209.55a.87.87,0,0,1-1.2.27.85.85,0,0,1-.28-1.19.87.87,0,0,1,1.2-.27A.86.86,0,0,1,517.08,209.55Z"/><path class="cls-2" d="M471.83,173.37a.87.87,0,0,1-1.2.27.85.85,0,0,1-.28-1.19.87.87,0,0,1,1.2-.27A.86.86,0,0,1,471.83,173.37Z"/><path class="cls-2" d="M363.83,194.57a.87.87,0,0,1-1.2.27.85.85,0,0,1-.28-1.19.87.87,0,0,1,1.2-.27A.86.86,0,0,1,363.83,194.57Z"/><path class="cls-2" d="M423.87,264.62a.85.85,0,0,1-.08,1.21.88.88,0,0,1-1.23-.07.85.85,0,0,1,.08-1.21A.88.88,0,0,1,423.87,264.62Z"/><path class="cls-2" d="M378.63,236.23a.85.85,0,0,1-.08,1.21.88.88,0,0,1-1.23-.07.85.85,0,0,1,.08-1.21A.88.88,0,0,1,378.63,236.23Z"/><path class="cls-2" d="M395.92,218.61a.85.85,0,0,1-.08,1.21.88.88,0,0,1-1.23-.07.85.85,0,0,1,.08-1.21A.88.88,0,0,1,395.92,218.61Z"/><path class="cls-2" d="M366.32,186.69a.85.85,0,0,1-.08,1.21.88.88,0,0,1-1.23-.07.85.85,0,0,1,.08-1.21A.88.88,0,0,1,366.32,186.69Z"/><path class="cls-2" d="M320.89,284a.85.85,0,0,1-.08,1.21.88.88,0,0,1-1.23-.07.85.85,0,0,1,.08-1.21A.88.88,0,0,1,320.89,284Z"/><path class="cls-2" d="M307.95,292.57a.85.85,0,0,1-.08,1.21.88.88,0,0,1-1.23-.07.85.85,0,0,1,.08-1.21A.88.88,0,0,1,307.95,292.57Z"/><path class="cls-2" d="M294.11,301.52a.85.85,0,0,1-.08,1.21.88.88,0,0,1-1.23-.07.85.85,0,0,1,.08-1.21A.88.88,0,0,1,294.11,301.52Z"/><path class="cls-2" d="M278.78,310.49a.85.85,0,0,1-.08,1.21.88.88,0,0,1-1.23-.07.85.85,0,0,1,.08-1.21A.88.88,0,0,1,278.78,310.49Z"/><path class="cls-2" d="M246,350a.85.85,0,0,1-.08,1.21.88.88,0,0,1-1.23-.07.85.85,0,0,1,.08-1.21A.88.88,0,0,1,246,350Z"/><path class="cls-2" d="M266.73,348.77a.85.85,0,0,1-.08,1.21.88.88,0,0,1-1.23-.07.85.85,0,0,1,.08-1.21A.88.88,0,0,1,266.73,348.77Z"/><path class="cls-2" d="M270.64,251a.85.85,0,0,1-.08,1.21.88.88,0,0,1-1.23-.07.85.85,0,0,1,.08-1.21A.88.88,0,0,1,270.64,251Z"/><path class="cls-2" d="M286,264a.85.85,0,0,1-.08,1.21.88.88,0,0,1-1.23-.07.85.85,0,0,1,.08-1.21A.88.88,0,0,1,286,264Z"/><path class="cls-2" d="M257.1,305a.85.85,0,0,1-.08,1.21.88.88,0,0,1-1.23-.07.85.85,0,0,1,.08-1.21A.88.88,0,0,1,257.1,305Z"/><path class="cls-2" d="M289.85,341.11a.85.85,0,0,1-.08,1.21.88.88,0,0,1-1.23-.07.85.85,0,0,1,.08-1.21A.88.88,0,0,1,289.85,341.11Z"/><path class="cls-2" d="M249.43,340.14a.85.85,0,0,1-.08,1.21.88.88,0,0,1-1.23-.07.85.85,0,0,1,.08-1.21A.88.88,0,0,1,249.43,340.14Z"/><path class="cls-2" d="M358.53,330.38a.85.85,0,0,1-.08,1.21.88.88,0,0,1-1.23-.07.85.85,0,0,1,.08-1.21A.88.88,0,0,1,358.53,330.38Z"/><path class="cls-2" d="M300.13,320.87a.85.85,0,0,1-.08,1.21.88.88,0,0,1-1.23-.07.85.85,0,0,1,.08-1.21A.88.88,0,0,1,300.13,320.87Z"/><path class="cls-2" d="M314.12,358.4a.85.85,0,0,1-.08,1.21.88.88,0,0,1-1.23-.07.85.85,0,0,1,.08-1.21A.88.88,0,0,1,314.12,358.4Z"/><path class="cls-2" d="M443.5,36.47a.85.85,0,0,1-.08,1.21.88.88,0,0,1-1.23-.07.85.85,0,0,1,.08-1.21A.88.88,0,0,1,443.5,36.47Z"/><path class="cls-2" d="M490.8,32.39a.85.85,0,0,1-.08,1.21.88.88,0,0,1-1.23-.07.85.85,0,0,1,.08-1.21A.88.88,0,0,1,490.8,32.39Z"/><path class="cls-2" d="M575,188.38a.87.87,0,0,1-1.2.27.86.86,0,0,1-.28-1.19.87.87,0,0,1,1.2-.27A.85.85,0,0,1,575,188.38Z"/><path class="cls-2" d="M603.1,225.22a.87.87,0,0,1-1.2.27.86.86,0,0,1-.28-1.19.87.87,0,0,1,1.2-.27A.86.86,0,0,1,603.1,225.22Z"/><path class="cls-2" d="M619.16,248.47a.87.87,0,0,1-1.2.27.86.86,0,0,1-.28-1.19.87.87,0,0,1,1.2-.27A.85.85,0,0,1,619.16,248.47Z"/><path class="cls-2" d="M618.45,164.72a.87.87,0,0,1-1.2.27.85.85,0,0,1-.28-1.19.87.87,0,0,1,1.2-.27A.86.86,0,0,1,618.45,164.72Z"/><path class="cls-2" d="M540.45,177.06a.87.87,0,0,1-1.2.27.86.86,0,0,1-.28-1.19.87.87,0,0,1,1.2-.27A.86.86,0,0,1,540.45,177.06Z"/><path class="cls-2" d="M527.33,179.77a.87.87,0,0,1-1.2.27.86.86,0,0,1-.28-1.19.87.87,0,0,1,1.2-.27A.86.86,0,0,1,527.33,179.77Z"/><path class="cls-2" d="M514.08,197.14a.87.87,0,0,1-1.2.27.86.86,0,0,1-.28-1.19.87.87,0,0,1,1.2-.27A.85.85,0,0,1,514.08,197.14Z"/><path class="cls-2" d="M454.87,228.2a.87.87,0,0,1-1.2.27.85.85,0,0,1-.28-1.19.87.87,0,0,1,1.2-.27A.86.86,0,0,1,454.87,228.2Z"/><path class="cls-2" d="M470.06,227.2a.87.87,0,0,1-1.2.27.86.86,0,0,1-.28-1.19.87.87,0,0,1,1.2-.27A.86.86,0,0,1,470.06,227.2Z"/><path class="cls-2" d="M508.71,244.63a.87.87,0,0,1-1.2.27.85.85,0,0,1-.28-1.19.87.87,0,0,1,1.2-.27A.86.86,0,0,1,508.71,244.63Z"/><path class="cls-2" d="M531.7,274.76a.87.87,0,0,1-1.2.27.86.86,0,0,1-.28-1.19.87.87,0,0,1,1.2-.27A.86.86,0,0,1,531.7,274.76Z"/><path class="cls-2" d="M557.48,229.11a.87.87,0,0,1-1.2.27.86.86,0,0,1-.28-1.19.87.87,0,0,1,1.2-.27A.86.86,0,0,1,557.48,229.11Z"/><path class="cls-2" d="M566.33,238.88a.87.87,0,0,1-1.2.27.86.86,0,0,1-.28-1.19.87.87,0,0,1,1.2-.27A.85.85,0,0,1,566.33,238.88Z"/><path class="cls-2" d="M586.63,273.16a.87.87,0,0,1-1.2.27.85.85,0,0,1-.28-1.19.87.87,0,0,1,1.2-.27A.86.86,0,0,1,586.63,273.16Z"/><path class="cls-2" d="M600.66,298.76a.87.87,0,0,1-1.2.27.85.85,0,0,1-.28-1.19.87.87,0,0,1,1.2-.27A.85.85,0,0,1,600.66,298.76Z"/><path class="cls-2" d="M552.61,260.94a.87.87,0,0,1-1.2.27.85.85,0,0,1-.28-1.19.87.87,0,0,1,1.2-.27A.86.86,0,0,1,552.61,260.94Z"/><path class="cls-2" d="M557.87,300.32a.87.87,0,0,1-1.2.27.85.85,0,0,1-.28-1.19.87.87,0,0,1,1.2-.27A.86.86,0,0,1,557.87,300.32Z"/><path class="cls-2" d="M599.53,210.74a.87.87,0,0,1-1.2.27.86.86,0,0,1-.28-1.19.87.87,0,0,1,1.2-.27A.86.86,0,0,1,599.53,210.74Z"/><path class="cls-2" d="M558.14,212a.87.87,0,0,1-1.2.27.86.86,0,0,1-.28-1.19.87.87,0,0,1,1.2-.27A.86.86,0,0,1,558.14,212Z"/><path class="cls-2" d="M234.41,199.1a.87.87,0,0,1-1.2.27.85.85,0,0,1-.28-1.19.87.87,0,0,1,1.2-.27A.86.86,0,0,1,234.41,199.1Z"/><path class="cls-2" d="M207.1,214.71a.87.87,0,0,1-1.2.27.86.86,0,0,1-.28-1.19.87.87,0,0,1,1.2-.27A.85.85,0,0,1,207.1,214.71Z"/><path class="cls-2" d="M149.05,250.63a.87.87,0,0,1-1.2.27.86.86,0,0,1-.28-1.19.87.87,0,0,1,1.2-.27A.85.85,0,0,1,149.05,250.63Z"/><path class="cls-2" d="M119.31,275.16a.87.87,0,0,1-1.2.27.85.85,0,0,1-.28-1.19A.87.87,0,0,1,119,274,.86.86,0,0,1,119.31,275.16Z"/><path class="cls-2" d="M92.79,304.32a.87.87,0,0,1-1.2.27.85.85,0,0,1-.28-1.19.87.87,0,0,1,1.2-.27A.86.86,0,0,1,92.79,304.32Z"/><path class="cls-2" d="M134.73,234.69a.87.87,0,0,1-1.2.27.86.86,0,0,1-.28-1.19.87.87,0,0,1,1.2-.27A.86.86,0,0,1,134.73,234.69Z"/><path class="cls-2" d="M109.39,237.55a.87.87,0,0,1-1.2.27.86.86,0,0,1-.28-1.19.87.87,0,0,1,1.2-.27A.86.86,0,0,1,109.39,237.55Z"/><path class="cls-2" d="M76.23,265.08a.87.87,0,0,1-1.2.27.85.85,0,0,1-.28-1.19.87.87,0,0,1,1.2-.27A.86.86,0,0,1,76.23,265.08Z"/><path class="cls-2" d="M60.7,285.54a.87.87,0,0,1-1.2.27.86.86,0,0,1-.28-1.19.87.87,0,0,1,1.2-.27A.86.86,0,0,1,60.7,285.54Z"/><path class="cls-2" d="M43.29,303.29a.87.87,0,0,1-1.2.27.85.85,0,0,1-.28-1.19.87.87,0,0,1,1.2-.27A.86.86,0,0,1,43.29,303.29Z"/><path class="cls-2" d="M145.5,216.38a.87.87,0,0,1-1.2.27.86.86,0,0,1-.28-1.19.87.87,0,0,1,1.2-.27A.86.86,0,0,1,145.5,216.38Z"/><path class="cls-2" d="M171,258.89a.87.87,0,0,1-1.2.27.86.86,0,0,1-.28-1.19.87.87,0,0,1,1.2-.27A.86.86,0,0,1,171,258.89Z"/><path class="cls-2" d="M182.53,318.18a.87.87,0,0,1-1.2.27.85.85,0,0,1-.28-1.19.87.87,0,0,1,1.2-.27A.86.86,0,0,1,182.53,318.18Z"/><path class="cls-2" d="M187.89,351.14a.87.87,0,0,1-1.2.27.86.86,0,0,1-.28-1.19.87.87,0,0,1,1.2-.27A.85.85,0,0,1,187.89,351.14Z"/><path class="cls-2" d="M211.58,261.25a.87.87,0,0,1-1.2.27.86.86,0,0,1-.28-1.19.87.87,0,0,1,1.2-.27A.86.86,0,0,1,211.58,261.25Z"/><path class="cls-2" d="M215.74,234.68a.87.87,0,0,1-1.2.27.86.86,0,0,1-.28-1.19.87.87,0,0,1,1.2-.27A.86.86,0,0,1,215.74,234.68Z"/><path class="cls-2" d="M181.3,221.22a.87.87,0,0,1-1.2.27.86.86,0,0,1-.28-1.19A.87.87,0,0,1,181,220,.86.86,0,0,1,181.3,221.22Z"/><path class="cls-2" d="M166.64,208a.87.87,0,0,1-1.2.27.86.86,0,0,1-.28-1.19.87.87,0,0,1,1.2-.27A.85.85,0,0,1,166.64,208Z"/><path class="cls-2" d="M162.73,226.17a.87.87,0,0,1-1.2.27.85.85,0,0,1-.28-1.19.87.87,0,0,1,1.2-.27A.86.86,0,0,1,162.73,226.17Z"/><path class="cls-2" d="M120.41,294.13a.87.87,0,0,1-1.2.27.86.86,0,0,1-.28-1.19.87.87,0,0,1,1.2-.27A.85.85,0,0,1,120.41,294.13Z"/><path class="cls-2" d="M92.28,313.89a.87.87,0,0,1-1.2.27A.86.86,0,0,1,90.8,313a.87.87,0,0,1,1.2-.27A.85.85,0,0,1,92.28,313.89Z"/><path class="cls-2" d="M49.31,353.14a.87.87,0,0,1-1.2.27.86.86,0,0,1-.28-1.19A.87.87,0,0,1,49,352,.85.85,0,0,1,49.31,353.14Z"/><path class="cls-2" d="M37.15,365.82a.87.87,0,0,1-1.2.27.86.86,0,0,1-.28-1.19.87.87,0,0,1,1.2-.27A.85.85,0,0,1,37.15,365.82Z"/><path class="cls-2" d="M40.14,329.13a.87.87,0,0,1-1.2.27.86.86,0,0,1-.28-1.19.87.87,0,0,1,1.2-.27A.85.85,0,0,1,40.14,329.13Z"/><path class="cls-2" d="M48.15,273.14a.87.87,0,0,1-1.2.27.86.86,0,0,1-.28-1.19.87.87,0,0,1,1.2-.27A.86.86,0,0,1,48.15,273.14Z"/><path class="cls-2" d="M52.25,250.66a.87.87,0,0,1-1.2.27.86.86,0,0,1-.28-1.19.87.87,0,0,1,1.2-.27A.85.85,0,0,1,52.25,250.66Z"/><path class="cls-2" d="M143.4,301.12a.87.87,0,0,1-1.2.27.86.86,0,0,1-.28-1.19.87.87,0,0,1,1.2-.27A.85.85,0,0,1,143.4,301.12Z"/><path class="cls-2" d="M168.68,381.9a.87.87,0,0,1-1.2.27.86.86,0,0,1-.28-1.19.87.87,0,0,1,1.2-.27A.86.86,0,0,1,168.68,381.9Z"/><path class="cls-2" d="M193.56,434.58a.87.87,0,0,1-1.2.27.86.86,0,0,1-.28-1.19.87.87,0,0,1,1.2-.27A.86.86,0,0,1,193.56,434.58Z"/><path class="cls-2" d="M99.19,275.7A.87.87,0,0,1,98,276a.86.86,0,0,1-.28-1.19.87.87,0,0,1,1.2-.27A.86.86,0,0,1,99.19,275.7Z"/><path class="cls-2" d="M83.87,299.61a.87.87,0,0,1-1.2.27.86.86,0,0,1-.28-1.19.87.87,0,0,1,1.2-.27A.86.86,0,0,1,83.87,299.61Z"/><path class="cls-2" d="M74.76,350.27a.87.87,0,0,1-1.2.27.86.86,0,0,1-.28-1.19.87.87,0,0,1,1.2-.27A.86.86,0,0,1,74.76,350.27Z"/><path class="cls-2" d="M65.6,392a.87.87,0,0,1-1.2.27.86.86,0,0,1-.28-1.19.87.87,0,0,1,1.2-.27A.86.86,0,0,1,65.6,392Z"/><path class="cls-2" d="M51.87,458.31a.87.87,0,0,1-1.2.27.85.85,0,0,1-.28-1.19.87.87,0,0,1,1.2-.27A.86.86,0,0,1,51.87,458.31Z"/><path class="cls-2" d="M41.89,380a.87.87,0,0,1-1.2.27.86.86,0,0,1-.28-1.19.87.87,0,0,1,1.2-.27A.86.86,0,0,1,41.89,380Z"/><path class="cls-2" d="M40.9,453.94a.87.87,0,0,1-1.2.27.85.85,0,0,1-.28-1.19.87.87,0,0,1,1.2-.27A.86.86,0,0,1,40.9,453.94Z"/><path class="cls-2" d="M63,498.49a.87.87,0,0,1-1.2.27.86.86,0,0,1-.28-1.19.87.87,0,0,1,1.2-.27A.86.86,0,0,1,63,498.49Z"/><path class="cls-2" d="M64.16,420.32a.87.87,0,0,1-1.2.27.86.86,0,0,1-.28-1.19.87.87,0,0,1,1.2-.27A.86.86,0,0,1,64.16,420.32Z"/><path class="cls-2" d="M94.47,440.65a.87.87,0,0,1-1.2.27.86.86,0,0,1-.28-1.19.87.87,0,0,1,1.2-.27A.85.85,0,0,1,94.47,440.65Z"/><path class="cls-2" d="M144.86,443.57a.87.87,0,0,1-1.2.27.86.86,0,0,1-.28-1.19.87.87,0,0,1,1.2-.27A.86.86,0,0,1,144.86,443.57Z"/><path class="cls-2" d="M175.69,476.35a.87.87,0,0,1-1.2.27.86.86,0,0,1-.28-1.19.87.87,0,0,1,1.2-.27A.86.86,0,0,1,175.69,476.35Z"/><path class="cls-2" d="M190.17,499.74a.87.87,0,0,1-1.2.27.85.85,0,0,1-.28-1.19.87.87,0,0,1,1.2-.27A.86.86,0,0,1,190.17,499.74Z"/><path class="cls-2" d="M137.79,423.19a.87.87,0,0,1-1.2.27.85.85,0,0,1-.28-1.19.87.87,0,0,1,1.2-.27A.86.86,0,0,1,137.79,423.19Z"/><path class="cls-2" d="M171.4,403.12a.87.87,0,0,1-1.2.27.86.86,0,0,1-.28-1.19.87.87,0,0,1,1.2-.27A.86.86,0,0,1,171.4,403.12Z"/><path class="cls-2" d="M220.3,378.43a.87.87,0,0,1-1.2.27.86.86,0,0,1-.28-1.19.87.87,0,0,1,1.2-.27A.86.86,0,0,1,220.3,378.43Z"/><path class="cls-2" d="M405.2,298.85a.85.85,0,0,1-.08,1.21.88.88,0,0,1-1.23-.07.85.85,0,0,1,.08-1.21A.88.88,0,0,1,405.2,298.85Z"/><path class="cls-2" d="M400.69,275.84a.85.85,0,0,1-.08,1.21.88.88,0,0,1-1.23-.07.85.85,0,0,1,.08-1.21A.88.88,0,0,1,400.69,275.84Z"/><path class="cls-2" d="M410.29,251.66a.85.85,0,0,1-.08,1.21.88.88,0,0,1-1.23-.07.85.85,0,0,1,.08-1.21A.88.88,0,0,1,410.29,251.66Z"/><path class="cls-2" d="M319.85,164.27a.87.87,0,0,1-1.2.27.85.85,0,0,1-.28-1.19.87.87,0,0,1,1.2-.27A.86.86,0,0,1,319.85,164.27Z"/><path class="cls-2" d="M284,194.85a.87.87,0,0,1-1.2.27.86.86,0,0,1-.28-1.19.87.87,0,0,1,1.2-.27A.85.85,0,0,1,284,194.85Z"/><path class="cls-2" d="M440.74,200.09a.87.87,0,0,1-1.2.27.85.85,0,0,1-.28-1.19.87.87,0,0,1,1.2-.27A.86.86,0,0,1,440.74,200.09Z"/><path class="cls-2" d="M456.26,163.6a.87.87,0,0,1-1.2.27.86.86,0,0,1-.28-1.19.87.87,0,0,1,1.2-.27A.86.86,0,0,1,456.26,163.6Z"/><path class="cls-2" d="M398.49,207.67a.87.87,0,0,1-1.2.27.86.86,0,0,1-.28-1.19.87.87,0,0,1,1.2-.27A.86.86,0,0,1,398.49,207.67Z"/><path class="cls-2" d="M456.85,263.84a.87.87,0,0,1-1.2.27.85.85,0,0,1-.28-1.19.87.87,0,0,1,1.2-.27A.86.86,0,0,1,456.85,263.84Z"/><path class="cls-2" d="M503.64,313.95a.87.87,0,0,1-1.2.27.85.85,0,0,1-.28-1.19.87.87,0,0,1,1.2-.27A.86.86,0,0,1,503.64,313.95Z"/><path class="cls-2" d="M511.89,378.89a.87.87,0,0,1-1.2.27.85.85,0,0,1-.28-1.19.87.87,0,0,1,1.2-.27A.86.86,0,0,1,511.89,378.89Z"/><path class="cls-2" d="M492,409.9a.87.87,0,0,1-1.2.27.86.86,0,0,1-.28-1.19.87.87,0,0,1,1.2-.27A.86.86,0,0,1,492,409.9Z"/><path class="cls-2" d="M462.65,301.67a.87.87,0,0,1-1.2.27.85.85,0,0,1-.28-1.19.87.87,0,0,1,1.2-.27A.86.86,0,0,1,462.65,301.67Z"/><path class="cls-2" d="M461.94,323.55a.87.87,0,0,1-1.2.27.86.86,0,0,1-.28-1.19.87.87,0,0,1,1.2-.27A.86.86,0,0,1,461.94,323.55Z"/><path class="cls-2" d="M448.28,382.83a.87.87,0,0,1-1.2.27.85.85,0,0,1-.28-1.19.87.87,0,0,1,1.2-.27A.86.86,0,0,1,448.28,382.83Z"/><path class="cls-2" d="M418.22,437.33a.87.87,0,0,1-1.2.27.86.86,0,0,1-.28-1.19.87.87,0,0,1,1.2-.27A.86.86,0,0,1,418.22,437.33Z"/><path class="cls-2" d="M499.53,326.41a.87.87,0,0,1-1.2.27.86.86,0,0,1-.28-1.19.87.87,0,0,1,1.2-.27A.86.86,0,0,1,499.53,326.41Z"/><path class="cls-2" d="M494.15,293.43a.87.87,0,0,1-1.2.27.86.86,0,0,1-.28-1.19.87.87,0,0,1,1.2-.27A.86.86,0,0,1,494.15,293.43Z"/><path class="cls-2" d="M514.6,282.16a.87.87,0,0,1-1.2.27.85.85,0,0,1-.28-1.19.87.87,0,0,1,1.2-.27A.85.85,0,0,1,514.6,282.16Z"/><path class="cls-2" d="M541.21,326.72a.87.87,0,0,1-1.2.27.85.85,0,0,1-.28-1.19.87.87,0,0,1,1.2-.27A.86.86,0,0,1,541.21,326.72Z"/><path class="cls-2" d="M559.08,371a.87.87,0,0,1-1.2.27.86.86,0,0,1-.28-1.19.87.87,0,0,1,1.2-.27A.86.86,0,0,1,559.08,371Z"/><path class="cls-2" d="M581.33,407.87a.87.87,0,0,1-1.2.27.85.85,0,0,1-.28-1.19.87.87,0,0,1,1.2-.27A.86.86,0,0,1,581.33,407.87Z"/><path class="cls-2" d="M589.08,325.26a.87.87,0,0,1-1.2.27.85.85,0,0,1-.28-1.19.87.87,0,0,1,1.2-.27A.86.86,0,0,1,589.08,325.26Z"/><path class="cls-2" d="M597.28,365.66a.87.87,0,0,1-1.2.27.86.86,0,0,1-.28-1.19.87.87,0,0,1,1.2-.27A.85.85,0,0,1,597.28,365.66Z"/><path class="cls-2" d="M601.06,425.51a.87.87,0,0,1-1.2.27.86.86,0,0,1-.28-1.19.87.87,0,0,1,1.2-.27A.86.86,0,0,1,601.06,425.51Z"/><path class="cls-2" d="M597.55,457.49a.87.87,0,0,1-1.2.27.86.86,0,0,1-.28-1.19.87.87,0,0,1,1.2-.27A.86.86,0,0,1,597.55,457.49Z"/><path class="cls-2" d="M585.69,452.92a.87.87,0,0,1-1.2.27.86.86,0,0,1-.28-1.19.87.87,0,0,1,1.2-.27A.86.86,0,0,1,585.69,452.92Z"/><path class="cls-2" d="M522.12,457.19a.87.87,0,0,1-1.2.27.85.85,0,0,1-.28-1.19.87.87,0,0,1,1.2-.27A.86.86,0,0,1,522.12,457.19Z"/><path class="cls-2" d="M479.11,461.84a.87.87,0,0,1-1.2.27.86.86,0,0,1-.28-1.19.87.87,0,0,1,1.2-.27A.86.86,0,0,1,479.11,461.84Z"/><path class="cls-2" d="M447.28,459.59a.87.87,0,0,1-1.2.27.86.86,0,0,1-.28-1.19.87.87,0,0,1,1.2-.27A.85.85,0,0,1,447.28,459.59Z"/><path class="cls-2" d="M478.59,382.32a.87.87,0,0,1-1.2.27.86.86,0,0,1-.28-1.19.87.87,0,0,1,1.2-.27A.86.86,0,0,1,478.59,382.32Z"/><path class="cls-2" d="M446.87,425.71a.87.87,0,0,1-1.2.27.85.85,0,0,1-.28-1.19.87.87,0,0,1,1.2-.27A.86.86,0,0,1,446.87,425.71Z"/><path class="cls-2" d="M533.77,400.36a.87.87,0,0,1-1.2.27.86.86,0,0,1-.28-1.19.87.87,0,0,1,1.2-.27A.85.85,0,0,1,533.77,400.36Z"/><path class="cls-2" d="M529,405a.87.87,0,0,1-1.2.27.86.86,0,0,1-.28-1.19.87.87,0,0,1,1.2-.27A.86.86,0,0,1,529,405Z"/><path class="cls-2" d="M554.06,433.55a.87.87,0,0,1-1.2.27.85.85,0,0,1-.28-1.19.87.87,0,0,1,1.2-.27A.86.86,0,0,1,554.06,433.55Z"/><path class="cls-2" d="M549.14,364.4a.87.87,0,0,1-1.2.27.85.85,0,0,1-.28-1.19.87.87,0,0,1,1.2-.27A.86.86,0,0,1,549.14,364.4Z"/><path class="cls-2" d="M427.88,382.26a.87.87,0,0,1-1.2.27.86.86,0,0,1-.28-1.19.87.87,0,0,1,1.2-.27A.86.86,0,0,1,427.88,382.26Z"/><path class="cls-2" d="M379.21,396a.87.87,0,0,1-1.2.27.86.86,0,0,1-.28-1.19.87.87,0,0,1,1.2-.27A.85.85,0,0,1,379.21,396Z"/><path class="cls-2" d="M330.81,395.53a.87.87,0,0,1-1.2.27.86.86,0,0,1-.28-1.19.87.87,0,0,1,1.2-.27A.86.86,0,0,1,330.81,395.53Z"/><path class="cls-2" d="M289,397.69a.87.87,0,0,1-1.2.27.85.85,0,0,1-.28-1.19.87.87,0,0,1,1.2-.27A.86.86,0,0,1,289,397.69Z"/><path class="cls-2" d="M270.75,382.09a.87.87,0,0,1-1.2.27.86.86,0,0,1-.28-1.19.87.87,0,0,1,1.2-.27A.85.85,0,0,1,270.75,382.09Z"/><path class="cls-2" d="M222,425.53a.87.87,0,0,1-1.2.27.86.86,0,0,1-.28-1.19.87.87,0,0,1,1.2-.27A.86.86,0,0,1,222,425.53Z"/><path class="cls-2" d="M267.05,468.46a.87.87,0,0,1-1.2.27.86.86,0,0,1-.28-1.19.87.87,0,0,1,1.2-.27A.86.86,0,0,1,267.05,468.46Z"/><path class="cls-2" d="M345.76,472.32a.87.87,0,0,1-1.2.27.86.86,0,0,1-.28-1.19.87.87,0,0,1,1.2-.27A.86.86,0,0,1,345.76,472.32Z"/><path class="cls-2" d="M367.79,440.21a.87.87,0,0,1-1.2.27.86.86,0,0,1-.28-1.19.87.87,0,0,1,1.2-.27A.86.86,0,0,1,367.79,440.21Z"/><path class="cls-2" d="M359.76,439a.87.87,0,0,1-1.2.27.86.86,0,0,1-.28-1.19.87.87,0,0,1,1.2-.27A.86.86,0,0,1,359.76,439Z"/><path class="cls-2" d="M316.48,436.75a.87.87,0,0,1-1.2.27.86.86,0,0,1-.28-1.19.87.87,0,0,1,1.2-.27A.86.86,0,0,1,316.48,436.75Z"/><path class="cls-2" d="M293.67,448a.87.87,0,0,1-1.2.27.85.85,0,0,1-.28-1.19.87.87,0,0,1,1.2-.27A.86.86,0,0,1,293.67,448Z"/><path class="cls-2" d="M257.67,446a.87.87,0,0,1-1.2.27.86.86,0,0,1-.28-1.19.87.87,0,0,1,1.2-.27A.85.85,0,0,1,257.67,446Z"/><path class="cls-2" d="M218.06,462.07a.87.87,0,0,1-1.2.27.86.86,0,0,1-.28-1.19.87.87,0,0,1,1.2-.27A.85.85,0,0,1,218.06,462.07Z"/><path class="cls-2" d="M314.63,378.61a.87.87,0,0,1-1.2.27.85.85,0,0,1-.28-1.19.87.87,0,0,1,1.2-.27A.86.86,0,0,1,314.63,378.61Z"/><path class="cls-2" d="M346.09,376.08a.87.87,0,0,1-1.2.27.86.86,0,0,1-.28-1.19.87.87,0,0,1,1.2-.27A.86.86,0,0,1,346.09,376.08Z"/><path class="cls-2" d="M381.41,380.48a.87.87,0,0,1-1.2.27.86.86,0,0,1-.28-1.19.87.87,0,0,1,1.2-.27A.86.86,0,0,1,381.41,380.48Z"/><path class="cls-2" d="M416.42,383.84a.87.87,0,0,1-1.2.27.86.86,0,0,1-.28-1.19.87.87,0,0,1,1.2-.27A.85.85,0,0,1,416.42,383.84Z"/><path class="cls-2" d="M164,268.54a.87.87,0,0,1-1.2.27.86.86,0,0,1-.28-1.19.87.87,0,0,1,1.2-.27A.85.85,0,0,1,164,268.54Z"/><path class="cls-2" d="M179.58,293.27a.87.87,0,0,1-1.2.27.86.86,0,0,1-.28-1.19.87.87,0,0,1,1.2-.27A.86.86,0,0,1,179.58,293.27Z"/><path class="cls-2" d="M196.5,298.32a.87.87,0,0,1-1.2.27.86.86,0,0,1-.28-1.19.87.87,0,0,1,1.2-.27A.86.86,0,0,1,196.5,298.32Z"/><path class="cls-2" d="M206,302.43a.87.87,0,0,1-1.2.27.86.86,0,0,1-.28-1.19.87.87,0,0,1,1.2-.27A.86.86,0,0,1,206,302.43Z"/><path class="cls-2" d="M209.19,275.32a.87.87,0,0,1-1.2.27.86.86,0,0,1-.28-1.19.87.87,0,0,1,1.2-.27A.86.86,0,0,1,209.19,275.32Z"/><path class="cls-2" d="M241,422a.87.87,0,0,1-1.2.27.86.86,0,0,1-.28-1.19.87.87,0,0,1,1.2-.27A.86.86,0,0,1,241,422Z"/><path class="cls-2" d="M213.93,409.24a.87.87,0,0,1-1.2.27.85.85,0,0,1-.28-1.19.87.87,0,0,1,1.2-.27A.86.86,0,0,1,213.93,409.24Z"/><path class="cls-2" d="M196.17,439.63a.87.87,0,0,1-1.2.27.85.85,0,0,1-.28-1.19.87.87,0,0,1,1.2-.27A.86.86,0,0,1,196.17,439.63Z"/><path class="cls-2" d="M162.37,465.63a.87.87,0,0,1-1.2.27.85.85,0,0,1-.28-1.19.87.87,0,0,1,1.2-.27A.86.86,0,0,1,162.37,465.63Z"/><path class="cls-2" d="M122,479.89a.87.87,0,0,1-1.2.27.86.86,0,0,1-.28-1.19.87.87,0,0,1,1.2-.27A.85.85,0,0,1,122,479.89Z"/><path class="cls-2" d="M84.8,499.12a.87.87,0,0,1-1.2.27.86.86,0,0,1-.28-1.19.87.87,0,0,1,1.2-.27A.86.86,0,0,1,84.8,499.12Z"/><path class="cls-2" d="M67.36,512a.87.87,0,0,1-1.2.27.86.86,0,0,1-.28-1.19.87.87,0,0,1,1.2-.27A.86.86,0,0,1,67.36,512Z"/><path class="cls-2" d="M53.75,535.66a.87.87,0,0,1-1.2.27.86.86,0,0,1-.28-1.19.87.87,0,0,1,1.2-.27A.86.86,0,0,1,53.75,535.66Z"/><path class="cls-2" d="M51.1,553.07a.87.87,0,0,1-1.2.27.85.85,0,0,1-.28-1.19.87.87,0,0,1,1.2-.27A.86.86,0,0,1,51.1,553.07Z"/><path class="cls-2" d="M46.42,570a.87.87,0,0,1-1.2.27.86.86,0,0,1-.28-1.19.87.87,0,0,1,1.2-.27A.85.85,0,0,1,46.42,570Z"/><path class="cls-2" d="M52.45,583.14a.87.87,0,0,1-1.2.27.86.86,0,0,1-.28-1.19.87.87,0,0,1,1.2-.27A.85.85,0,0,1,52.45,583.14Z"/><path class="cls-2" d="M107.83,573.94a.87.87,0,0,1-1.2.27.85.85,0,0,1-.28-1.19.87.87,0,0,1,1.2-.27A.86.86,0,0,1,107.83,573.94Z"/><path class="cls-2" d="M171.92,572.14a.87.87,0,0,1-1.2.27.85.85,0,0,1-.28-1.19.87.87,0,0,1,1.2-.27A.86.86,0,0,1,171.92,572.14Z"/><path class="cls-2" d="M230.48,578.76a.87.87,0,0,1-1.2.27.86.86,0,0,1-.28-1.19.87.87,0,0,1,1.2-.27A.86.86,0,0,1,230.48,578.76Z"/><path class="cls-2" d="M289.37,592.28a.87.87,0,0,1-1.2.27.86.86,0,0,1-.28-1.19.87.87,0,0,1,1.2-.27A.86.86,0,0,1,289.37,592.28Z"/><path class="cls-2" d="M147,520.26a.87.87,0,0,1-1.2.27.86.86,0,0,1-.28-1.19.87.87,0,0,1,1.2-.27A.86.86,0,0,1,147,520.26Z"/><path class="cls-2" d="M124.09,529.78a.87.87,0,0,1-1.2.27.86.86,0,0,1-.28-1.19.87.87,0,0,1,1.2-.27A.86.86,0,0,1,124.09,529.78Z"/><path class="cls-2" d="M111.19,534.74a.87.87,0,0,1-1.2.27.85.85,0,0,1-.28-1.19.87.87,0,0,1,1.2-.27A.86.86,0,0,1,111.19,534.74Z"/><path class="cls-2" d="M101.12,517.62a.87.87,0,0,1-1.2.27.85.85,0,0,1-.28-1.19.87.87,0,0,1,1.2-.27A.86.86,0,0,1,101.12,517.62Z"/><path class="cls-2" d="M110.31,489a.87.87,0,0,1-1.2.27.86.86,0,0,1-.28-1.19.87.87,0,0,1,1.2-.27A.86.86,0,0,1,110.31,489Z"/><path class="cls-2" d="M109.87,477.42a.87.87,0,0,1-1.2.27.86.86,0,0,1-.28-1.19.87.87,0,0,1,1.2-.27A.86.86,0,0,1,109.87,477.42Z"/><path class="cls-2" d="M80.92,475.34a.87.87,0,0,1-1.2.27.86.86,0,0,1-.28-1.19.87.87,0,0,1,1.2-.27A.86.86,0,0,1,80.92,475.34Z"/><path class="cls-2" d="M57.84,472.26a.87.87,0,0,1-1.2.27.85.85,0,0,1-.28-1.19.87.87,0,0,1,1.2-.27A.86.86,0,0,1,57.84,472.26Z"/><path class="cls-2" d="M48.85,488.47a.87.87,0,0,1-1.2.27.85.85,0,0,1-.28-1.19.87.87,0,0,1,1.2-.27A.85.85,0,0,1,48.85,488.47Z"/><path class="cls-2" d="M43.69,518.62a.87.87,0,0,1-1.2.27.86.86,0,0,1-.28-1.19.87.87,0,0,1,1.2-.27A.86.86,0,0,1,43.69,518.62Z"/><path class="cls-2" d="M41.47,532.77a.87.87,0,0,1-1.2.27.86.86,0,0,1-.28-1.19.87.87,0,0,1,1.2-.27A.86.86,0,0,1,41.47,532.77Z"/><path class="cls-2" d="M68.82,549.58a.87.87,0,0,1-1.2.27.86.86,0,0,1-.28-1.19.87.87,0,0,1,1.2-.27A.86.86,0,0,1,68.82,549.58Z"/><path class="cls-2" d="M97,559.76a.87.87,0,0,1-1.2.27.85.85,0,0,1-.28-1.19.87.87,0,0,1,1.2-.27A.86.86,0,0,1,97,559.76Z"/><path class="cls-2" d="M113.86,582.23a.87.87,0,0,1-1.2.27.86.86,0,0,1-.28-1.19.87.87,0,0,1,1.2-.27A.86.86,0,0,1,113.86,582.23Z"/><path class="cls-2" d="M256.66,404.68a.87.87,0,0,1-1.2.27.86.86,0,0,1-.28-1.19.87.87,0,0,1,1.2-.27A.86.86,0,0,1,256.66,404.68Z"/><path class="cls-2" d="M299.18,405.44a.87.87,0,0,1-1.2.27.86.86,0,0,1-.28-1.19.87.87,0,0,1,1.2-.27A.86.86,0,0,1,299.18,405.44Z"/><path class="cls-2" d="M349.64,421.8a.87.87,0,0,1-1.2.27.85.85,0,0,1-.28-1.19.87.87,0,0,1,1.2-.27A.86.86,0,0,1,349.64,421.8Z"/><path class="cls-2" d="M408.13,428.9a.87.87,0,0,1-1.2.27.86.86,0,0,1-.28-1.19.87.87,0,0,1,1.2-.27A.85.85,0,0,1,408.13,428.9Z"/><path class="cls-2" d="M598.77,434.09a.87.87,0,0,1-1.2.27.86.86,0,0,1-.28-1.19.87.87,0,0,1,1.2-.27A.86.86,0,0,1,598.77,434.09Z"/><path class="cls-2" d="M611.82,476.53a.87.87,0,0,1-1.2.27.85.85,0,0,1-.28-1.19.87.87,0,0,1,1.2-.27A.86.86,0,0,1,611.82,476.53Z"/><path class="cls-2" d="M617.77,525.75a.87.87,0,0,1-1.2.27.85.85,0,0,1-.28-1.19.87.87,0,0,1,1.2-.27A.86.86,0,0,1,617.77,525.75Z"/><path class="cls-2" d="M609.86,551.68a.87.87,0,0,1-1.2.27.85.85,0,0,1-.28-1.19.87.87,0,0,1,1.2-.27A.86.86,0,0,1,609.86,551.68Z"/><path class="cls-2" d="M577.91,546.64a.87.87,0,0,1-1.2.27.85.85,0,0,1-.28-1.19.87.87,0,0,1,1.2-.27A.86.86,0,0,1,577.91,546.64Z"/><path class="cls-2" d="M534.55,547.47a.87.87,0,0,1-1.2.27.85.85,0,0,1-.28-1.19.87.87,0,0,1,1.2-.27A.86.86,0,0,1,534.55,547.47Z"/><path class="cls-2" d="M476,566a.87.87,0,0,1-1.2.27.86.86,0,0,1-.28-1.19.87.87,0,0,1,1.2-.27A.86.86,0,0,1,476,566Z"/><path class="cls-2" d="M417,580a.87.87,0,0,1-1.2.27.85.85,0,0,1-.28-1.19.87.87,0,0,1,1.2-.27A.86.86,0,0,1,417,580Z"/><path class="cls-2" d="M402.62,546.25a.87.87,0,0,1-1.2.27.86.86,0,0,1-.28-1.19.87.87,0,0,1,1.2-.27A.86.86,0,0,1,402.62,546.25Z"/><path class="cls-2" d="M454.67,530.55a.87.87,0,0,1-1.2.27.86.86,0,0,1-.28-1.19.87.87,0,0,1,1.2-.27A.85.85,0,0,1,454.67,530.55Z"/><path class="cls-2" d="M524,535.88a.87.87,0,0,1-1.2.27.86.86,0,0,1-.28-1.19.87.87,0,0,1,1.2-.27A.86.86,0,0,1,524,535.88Z"/><path class="cls-2" d="M568.45,530.53a.87.87,0,0,1-1.2.27.86.86,0,0,1-.28-1.19.87.87,0,0,1,1.2-.27A.86.86,0,0,1,568.45,530.53Z"/><path class="cls-2" d="M559.12,509.7a.87.87,0,0,1-1.2.27.86.86,0,0,1-.28-1.19.87.87,0,0,1,1.2-.27A.86.86,0,0,1,559.12,509.7Z"/><path class="cls-2" d="M504.3,511.72a.87.87,0,0,1-1.2.27.86.86,0,0,1-.28-1.19.87.87,0,0,1,1.2-.27A.85.85,0,0,1,504.3,511.72Z"/><path class="cls-2" d="M439.1,507a.87.87,0,0,1-1.2.27.86.86,0,0,1-.28-1.19.87.87,0,0,1,1.2-.27A.86.86,0,0,1,439.1,507Z"/><path class="cls-2" d="M378.57,501.21a.87.87,0,0,1-1.2.27.86.86,0,0,1-.28-1.19.87.87,0,0,1,1.2-.27A.85.85,0,0,1,378.57,501.21Z"/><path class="cls-2" d="M325.3,530.44a.87.87,0,0,1-1.2.27.85.85,0,0,1-.28-1.19.87.87,0,0,1,1.2-.27A.86.86,0,0,1,325.3,530.44Z"/><path class="cls-2" d="M249.14,513.35a.87.87,0,0,1-1.2.27.86.86,0,0,1-.28-1.19.87.87,0,0,1,1.2-.27A.86.86,0,0,1,249.14,513.35Z"/><path class="cls-2" d="M219.37,530.64a.87.87,0,0,1-1.2.27.86.86,0,0,1-.28-1.19.87.87,0,0,1,1.2-.27A.86.86,0,0,1,219.37,530.64Z"/><path class="cls-2" d="M171.48,549a.87.87,0,0,1-1.2.27.85.85,0,0,1-.28-1.19.87.87,0,0,1,1.2-.27A.85.85,0,0,1,171.48,549Z"/><path class="cls-2" d="M150.53,548.94a.87.87,0,0,1-1.2.27.86.86,0,0,1-.28-1.19.87.87,0,0,1,1.2-.27A.85.85,0,0,1,150.53,548.94Z"/><path class="cls-2" d="M144,551.94a.87.87,0,0,1-1.2.27.86.86,0,0,1-.28-1.19.87.87,0,0,1,1.2-.27A.86.86,0,0,1,144,551.94Z"/><path class="cls-2" d="M128.18,563.86a.87.87,0,0,1-1.2.27.86.86,0,0,1-.28-1.19.87.87,0,0,1,1.2-.27A.86.86,0,0,1,128.18,563.86Z"/><path class="cls-2" d="M139.32,494.35a.87.87,0,0,1-1.2.27.86.86,0,0,1-.28-1.19.87.87,0,0,1,1.2-.27A.85.85,0,0,1,139.32,494.35Z"/><path class="cls-2" d="M174.4,506a.87.87,0,0,1-1.2.27.86.86,0,0,1-.28-1.19.87.87,0,0,1,1.2-.27A.85.85,0,0,1,174.4,506Z"/><path class="cls-2" d="M197.78,538.73a.87.87,0,0,1-1.2.27.86.86,0,0,1-.28-1.19.87.87,0,0,1,1.2-.27A.85.85,0,0,1,197.78,538.73Z"/><path class="cls-2" d="M235.49,558.91a.87.87,0,0,1-1.2.27A.86.86,0,0,1,234,558a.87.87,0,0,1,1.2-.27A.86.86,0,0,1,235.49,558.91Z"/><path class="cls-2" d="M280,570.91a.87.87,0,0,1-1.2.27.86.86,0,0,1-.28-1.19.87.87,0,0,1,1.2-.27A.85.85,0,0,1,280,570.91Z"/><path class="cls-2" d="M330.54,568.32a.87.87,0,0,1-1.2.27.85.85,0,0,1-.28-1.19.87.87,0,0,1,1.2-.27A.86.86,0,0,1,330.54,568.32Z"/><path class="cls-2" d="M231,498.24a.87.87,0,0,1-1.2.27.86.86,0,0,1-.28-1.19.87.87,0,0,1,1.2-.27A.86.86,0,0,1,231,498.24Z"/><path class="cls-2" d="M214.18,494.1a.87.87,0,0,1-1.2.27.85.85,0,0,1-.28-1.19.87.87,0,0,1,1.2-.27A.86.86,0,0,1,214.18,494.1Z"/><path class="cls-2" d="M224.77,506.93a.87.87,0,0,1-1.2.27.86.86,0,0,1-.28-1.19.87.87,0,0,1,1.2-.27A.85.85,0,0,1,224.77,506.93Z"/><path class="cls-2" d="M276.36,497.42a.87.87,0,0,1-1.2.27.85.85,0,0,1-.28-1.19.87.87,0,0,1,1.2-.27A.86.86,0,0,1,276.36,497.42Z"/><path class="cls-2" d="M335.88,493.82a.87.87,0,0,1-1.2.27.86.86,0,0,1-.28-1.19.87.87,0,0,1,1.2-.27A.86.86,0,0,1,335.88,493.82Z"/><path class="cls-2" d="M369.39,490.64a.87.87,0,0,1-1.2.27.85.85,0,0,1-.28-1.19.87.87,0,0,1,1.2-.27A.86.86,0,0,1,369.39,490.64Z"/><path class="cls-2" d="M405.69,516.75a.87.87,0,0,1-1.2.27.86.86,0,0,1-.28-1.19.87.87,0,0,1,1.2-.27A.86.86,0,0,1,405.69,516.75Z"/><path class="cls-2" d="M323.91,467.74a.87.87,0,0,1-1.2.27.86.86,0,0,1-.28-1.19.87.87,0,0,1,1.2-.27A.86.86,0,0,1,323.91,467.74Z"/><path class="cls-2" d="M298.89,513.74a.87.87,0,0,1-1.2.27.86.86,0,0,1-.28-1.19.87.87,0,0,1,1.2-.27A.86.86,0,0,1,298.89,513.74Z"/><path class="cls-2" d="M273.81,538.31a.87.87,0,0,1-1.2.27.85.85,0,0,1-.28-1.19.87.87,0,0,1,1.2-.27A.86.86,0,0,1,273.81,538.31Z"/><path class="cls-2" d="M362.66,527.54a.87.87,0,0,1-1.2.27.85.85,0,0,1-.28-1.19.87.87,0,0,1,1.2-.27A.86.86,0,0,1,362.66,527.54Z"/><path class="cls-2" d="M384.22,555.2a.87.87,0,0,1-1.2.27.86.86,0,0,1-.28-1.19.87.87,0,0,1,1.2-.27A.86.86,0,0,1,384.22,555.2Z"/><path class="cls-2" d="M412.62,573.23a.87.87,0,0,1-1.2.27.86.86,0,0,1-.28-1.19.87.87,0,0,1,1.2-.27A.86.86,0,0,1,412.62,573.23Z"/><path class="cls-2" d="M452.17,576.44a.87.87,0,0,1-1.2.27.85.85,0,0,1-.28-1.19.87.87,0,0,1,1.2-.27A.86.86,0,0,1,452.17,576.44Z"/><path class="cls-2" d="M504,573.66a.87.87,0,0,1-1.2.27.86.86,0,0,1-.28-1.19.87.87,0,0,1,1.2-.27A.86.86,0,0,1,504,573.66Z"/><path class="cls-2" d="M551.59,561.74a.87.87,0,0,1-1.2.27.85.85,0,0,1-.28-1.19.87.87,0,0,1,1.2-.27A.86.86,0,0,1,551.59,561.74Z"/><path class="cls-2" d="M578.85,566.79a.87.87,0,0,1-1.2.27.86.86,0,0,1-.28-1.19.87.87,0,0,1,1.2-.27A.86.86,0,0,1,578.85,566.79Z"/><path class="cls-2" d="M605.85,575a.87.87,0,0,1-1.2.27.86.86,0,0,1-.28-1.19.87.87,0,0,1,1.2-.27A.86.86,0,0,1,605.85,575Z"/><path class="cls-2" d="M623.72,531.63a.87.87,0,0,1-1.2.27.86.86,0,0,1-.28-1.19.87.87,0,0,1,1.2-.27A.85.85,0,0,1,623.72,531.63Z"/><path class="cls-2" d="M594.06,497.7a.87.87,0,0,1-1.2.27.86.86,0,0,1-.28-1.19.87.87,0,0,1,1.2-.27A.85.85,0,0,1,594.06,497.7Z"/><path class="cls-2" d="M567.4,485.12a.87.87,0,0,1-1.2.27.86.86,0,0,1-.28-1.19.87.87,0,0,1,1.2-.27A.86.86,0,0,1,567.4,485.12Z"/><path class="cls-2" d="M541.48,471a.87.87,0,0,1-1.2.27.86.86,0,0,1-.28-1.19.87.87,0,0,1,1.2-.27A.86.86,0,0,1,541.48,471Z"/><path class="cls-2" d="M523.76,477.55a.87.87,0,0,1-1.2.27.86.86,0,0,1-.28-1.19.87.87,0,0,1,1.2-.27A.85.85,0,0,1,523.76,477.55Z"/><path class="cls-2" d="M506.29,487.08a.87.87,0,0,1-1.2.27.86.86,0,0,1-.28-1.19.87.87,0,0,1,1.2-.27A.85.85,0,0,1,506.29,487.08Z"/><path class="cls-2" d="M518.74,433.54a.87.87,0,0,1-1.2.27.86.86,0,0,1-.28-1.19.87.87,0,0,1,1.2-.27A.86.86,0,0,1,518.74,433.54Z"/><path class="cls-2" d="M481.36,452.69a.87.87,0,0,1-1.2.27.86.86,0,0,1-.28-1.19.87.87,0,0,1,1.2-.27A.86.86,0,0,1,481.36,452.69Z"/><path class="cls-2" d="M438.69,479.83a.87.87,0,0,1-1.2.27.86.86,0,0,1-.28-1.19.87.87,0,0,1,1.2-.27A.86.86,0,0,1,438.69,479.83Z"/><path class="cls-2" d="M420.57,484.37a.87.87,0,0,1-1.2.27.86.86,0,0,1-.28-1.19.87.87,0,0,1,1.2-.27A.86.86,0,0,1,420.57,484.37Z"/><path class="cls-2" d="M401,488.71a.87.87,0,0,1-1.2.27.86.86,0,0,1-.28-1.19.87.87,0,0,1,1.2-.27A.86.86,0,0,1,401,488.71Z"/><path class="cls-2" d="M395.28,457.17a.87.87,0,0,1-1.2.27.86.86,0,0,1-.28-1.19A.87.87,0,0,1,395,456,.85.85,0,0,1,395.28,457.17Z"/><path class="cls-2" d="M381.59,442.12a.87.87,0,0,1-1.2.27.86.86,0,0,1-.28-1.19.87.87,0,0,1,1.2-.27A.86.86,0,0,1,381.59,442.12Z"/><path class="cls-2" d="M396.62,413.28a.87.87,0,0,1-1.2.27.86.86,0,0,1-.28-1.19.87.87,0,0,1,1.2-.27A.86.86,0,0,1,396.62,413.28Z"/><path class="cls-2" d="M389.93,417a.87.87,0,0,1-1.2.27.86.86,0,0,1-.28-1.19.87.87,0,0,1,1.2-.27A.86.86,0,0,1,389.93,417Z"/><path class="cls-2" d="M401.83,397.48a.87.87,0,0,1-1.2.27.85.85,0,0,1-.28-1.19.87.87,0,0,1,1.2-.27A.86.86,0,0,1,401.83,397.48Z"/><path class="cls-2" d="M439.79,407.22a.87.87,0,0,1-1.2.27.86.86,0,0,1-.28-1.19.87.87,0,0,1,1.2-.27A.85.85,0,0,1,439.79,407.22Z"/><path class="cls-2" d="M498.06,405.33a.87.87,0,0,1-1.2.27.85.85,0,0,1-.28-1.19.87.87,0,0,1,1.2-.27A.86.86,0,0,1,498.06,405.33Z"/><path class="cls-2" d="M483.52,406.61a.87.87,0,0,1-1.2.27.86.86,0,0,1-.28-1.19.87.87,0,0,1,1.2-.27A.86.86,0,0,1,483.52,406.61Z"/><path class="cls-2" d="M487.56,447.55a.87.87,0,0,1-1.2.27.86.86,0,0,1-.28-1.19.87.87,0,0,1,1.2-.27A.86.86,0,0,1,487.56,447.55Z"/><path class="cls-2" d="M463,482a.87.87,0,0,1-1.2.27.85.85,0,0,1-.28-1.19.87.87,0,0,1,1.2-.27A.86.86,0,0,1,463,482Z"/><path class="cls-2" d="M450.49,499.47a.87.87,0,0,1-1.2.27.86.86,0,0,1-.28-1.19.87.87,0,0,1,1.2-.27A.86.86,0,0,1,450.49,499.47Z"/><path class="cls-2" d="M481.55,481.48a.87.87,0,0,1-1.2.27.86.86,0,0,1-.28-1.19.87.87,0,0,1,1.2-.27A.85.85,0,0,1,481.55,481.48Z"/><path class="cls-2" d="M477.37,526.32a.87.87,0,0,1-1.2.27.85.85,0,0,1-.28-1.19.87.87,0,0,1,1.2-.27A.86.86,0,0,1,477.37,526.32Z"/><path class="cls-2" d="M483.92,544.66a.87.87,0,0,1-1.2.27.86.86,0,0,1-.28-1.19.87.87,0,0,1,1.2-.27A.86.86,0,0,1,483.92,544.66Z"/><path class="cls-2" d="M525.7,552.32a.87.87,0,0,1-1.2.27.85.85,0,0,1-.28-1.19.87.87,0,0,1,1.2-.27A.86.86,0,0,1,525.7,552.32Z"/><path class="cls-2" d="M537.1,569.33a.87.87,0,0,1-1.2.27.85.85,0,0,1-.28-1.19.87.87,0,0,1,1.2-.27A.86.86,0,0,1,537.1,569.33Z"/><path class="cls-2" d="M569.78,582.24a.87.87,0,0,1-1.2.27.86.86,0,0,1-.28-1.19.87.87,0,0,1,1.2-.27A.86.86,0,0,1,569.78,582.24Z"/><path class="cls-2" d="M584.15,585.46a.87.87,0,0,1-1.2.27.86.86,0,0,1-.28-1.19.87.87,0,0,1,1.2-.27A.86.86,0,0,1,584.15,585.46Z"/><path class="cls-2" d="M597.49,591.15a.87.87,0,0,1-1.2.27.86.86,0,0,1-.28-1.19.87.87,0,0,1,1.2-.27A.86.86,0,0,1,597.49,591.15Z"/><path class="cls-2" d="M581.15,578.65a.87.87,0,0,1-1.2.27.86.86,0,0,1-.28-1.19.87.87,0,0,1,1.2-.27A.85.85,0,0,1,581.15,578.65Z"/><path class="cls-2" d="M503.1,562.36a.87.87,0,0,1-1.2.27.86.86,0,0,1-.28-1.19.87.87,0,0,1,1.2-.27A.85.85,0,0,1,503.1,562.36Z"/><path class="cls-2" d="M447.41,569.92a.87.87,0,0,1-1.2.27.86.86,0,0,1-.28-1.19.87.87,0,0,1,1.2-.27A.86.86,0,0,1,447.41,569.92Z"/><path class="cls-2" d="M401.23,577.48a.87.87,0,0,1-1.2.27.86.86,0,0,1-.28-1.19.87.87,0,0,1,1.2-.27A.86.86,0,0,1,401.23,577.48Z"/><path class="cls-2" d="M366.16,584.19a.87.87,0,0,1-1.2.27.86.86,0,0,1-.28-1.19.87.87,0,0,1,1.2-.27A.86.86,0,0,1,366.16,584.19Z"/><path class="cls-2" d="M330.29,593.5a.87.87,0,0,1-1.2.27.86.86,0,0,1-.28-1.19.87.87,0,0,1,1.2-.27A.85.85,0,0,1,330.29,593.5Z"/><path class="cls-2" d="M315.67,597.11a.87.87,0,0,1-1.2.27.86.86,0,0,1-.28-1.19.87.87,0,0,1,1.2-.27A.86.86,0,0,1,315.67,597.11Z"/><path class="cls-2" d="M351.14,562.07a.87.87,0,0,1-1.2.27.86.86,0,0,1-.28-1.19.87.87,0,0,1,1.2-.27A.86.86,0,0,1,351.14,562.07Z"/><path class="cls-2" d="M330.27,521.28a.87.87,0,0,1-1.2.27.86.86,0,0,1-.28-1.19.87.87,0,0,1,1.2-.27A.85.85,0,0,1,330.27,521.28Z"/><path class="cls-2" d="M318.66,506.94a.87.87,0,0,1-1.2.27.85.85,0,0,1-.28-1.19.87.87,0,0,1,1.2-.27A.86.86,0,0,1,318.66,506.94Z"/><path class="cls-2" d="M298.34,530.4a.87.87,0,0,1-1.2.27.86.86,0,0,1-.28-1.19.87.87,0,0,1,1.2-.27A.85.85,0,0,1,298.34,530.4Z"/><path class="cls-2" d="M281.76,562.45a.87.87,0,0,1-1.2.27.86.86,0,0,1-.28-1.19.87.87,0,0,1,1.2-.27A.85.85,0,0,1,281.76,562.45Z"/><path class="cls-2" d="M289,564.73a.87.87,0,0,1-1.2.27.85.85,0,0,1-.28-1.19.87.87,0,0,1,1.2-.27A.86.86,0,0,1,289,564.73Z"/><path class="cls-2" d="M316,546.79a.87.87,0,0,1-1.2.27.85.85,0,0,1-.28-1.19.87.87,0,0,1,1.2-.27A.86.86,0,0,1,316,546.79Z"/><path class="cls-2" d="M260.13,555.65a.87.87,0,0,1-1.2.27.85.85,0,0,1-.28-1.19.87.87,0,0,1,1.2-.27A.86.86,0,0,1,260.13,555.65Z"/><path class="cls-2" d="M225.46,561.15a.87.87,0,0,1-1.2.27.85.85,0,0,1-.28-1.19.87.87,0,0,1,1.2-.27A.86.86,0,0,1,225.46,561.15Z"/><path class="cls-2" d="M190.35,583.49a.87.87,0,0,1-1.2.27.85.85,0,0,1-.28-1.19.87.87,0,0,1,1.2-.27A.86.86,0,0,1,190.35,583.49Z"/><path class="cls-2" d="M166.1,581.26a.87.87,0,0,1-1.2.27.86.86,0,0,1-.28-1.19.87.87,0,0,1,1.2-.27A.86.86,0,0,1,166.1,581.26Z"/><path class="cls-2" d="M128.84,593.17a.87.87,0,0,1-1.2.27.85.85,0,0,1-.28-1.19.87.87,0,0,1,1.2-.27A.86.86,0,0,1,128.84,593.17Z"/><path class="cls-2" d="M182.47,558a.87.87,0,0,1-1.2.27.85.85,0,0,1-.28-1.19.87.87,0,0,1,1.2-.27A.86.86,0,0,1,182.47,558Z"/><path class="cls-2" d="M205.06,554a.87.87,0,0,1-1.2.27.86.86,0,0,1-.28-1.19.87.87,0,0,1,1.2-.27A.85.85,0,0,1,205.06,554Z"/><path class="cls-2" d="M611.93,397.84a.87.87,0,0,1-1.2.27.85.85,0,0,1-.28-1.19.87.87,0,0,1,1.2-.27A.86.86,0,0,1,611.93,397.84Z"/><path class="cls-2" d="M601.29,332.6a.87.87,0,0,1-1.2.27.86.86,0,0,1-.28-1.19.87.87,0,0,1,1.2-.27A.85.85,0,0,1,601.29,332.6Z"/><path class="cls-2" d="M566.68,331.34a.87.87,0,0,1-1.2.27.86.86,0,0,1-.28-1.19.87.87,0,0,1,1.2-.27A.85.85,0,0,1,566.68,331.34Z"/><path class="cls-2" d="M532.47,350.2a.87.87,0,0,1-1.2.27.85.85,0,0,1-.28-1.19.87.87,0,0,1,1.2-.27A.85.85,0,0,1,532.47,350.2Z"/><path class="cls-2" d="M504.23,346.19a.87.87,0,0,1-1.2.27.86.86,0,0,1-.28-1.19.87.87,0,0,1,1.2-.27A.86.86,0,0,1,504.23,346.19Z"/><path class="cls-2" d="M119.94,437.37a.87.87,0,0,1-1.2.27.86.86,0,0,1-.28-1.19.87.87,0,0,1,1.2-.27A.85.85,0,0,1,119.94,437.37Z"/><path class="cls-2" d="M99.5,428.92a.87.87,0,0,1-1.2.27A.86.86,0,0,1,98,428a.87.87,0,0,1,1.2-.27A.85.85,0,0,1,99.5,428.92Z"/><path class="cls-2" d="M81.38,416.39a.87.87,0,0,1-1.2.27.86.86,0,0,1-.28-1.19.87.87,0,0,1,1.2-.27A.85.85,0,0,1,81.38,416.39Z"/><path class="cls-2" d="M65.51,428.51a.87.87,0,0,1-1.2.27A.86.86,0,0,1,64,427.6a.87.87,0,0,1,1.2-.27A.85.85,0,0,1,65.51,428.51Z"/><path class="cls-2" d="M62.61,526.57a.87.87,0,0,1-1.2.27.85.85,0,0,1-.28-1.19.87.87,0,0,1,1.2-.27A.85.85,0,0,1,62.61,526.57Z"/><path class="cls-2" d="M64.25,559.75a.87.87,0,0,1-1.2.27.86.86,0,0,1-.28-1.19.87.87,0,0,1,1.2-.27A.85.85,0,0,1,64.25,559.75Z"/><path class="cls-2" d="M64.81,566.88a.87.87,0,0,1-1.2.27.85.85,0,0,1-.28-1.19.87.87,0,0,1,1.2-.27A.85.85,0,0,1,64.81,566.88Z"/></g></g><rect class="cls-2" x="84.78" y="213.82" width="227.07" height="20.18"/><rect class="cls-2" x="84.78" y="245.53" width="148.47" height="8.65"/><rect class="cls-2" x="84.78" y="262.83" width="148.47" height="8.65"/><g class="cls-12"><path class="cls-13" d="M30.79.65h677.1c10,0,18,6.71,18,15V42.57H12.74V15.64C12.74,7.36,20.82.65,30.79.65Z"/><g class="cls-11"><path class="cls-2" d="M21.63,18.5a1.21,1.21,0,0,1-1.48.29.81.81,0,0,1-.34-1.23,1.21,1.21,0,0,1,1.48-.29A.81.81,0,0,1,21.63,18.5Z"/><path class="cls-2" d="M18.35,36.58a1.21,1.21,0,0,1-1.48.28.81.81,0,0,1-.34-1.23A1.21,1.21,0,0,1,18,35.35.81.81,0,0,1,18.35,36.58Z"/><path class="cls-2" d="M12.56,54.21a1.21,1.21,0,0,1-1.48.29.81.81,0,0,1-.34-1.23A1.21,1.21,0,0,1,12.22,53,.81.81,0,0,1,12.56,54.21Z"/><path class="cls-2" d="M20,67.82a1.21,1.21,0,0,1-1.48.29.81.81,0,0,1-.34-1.23,1.21,1.21,0,0,1,1.48-.28A.81.81,0,0,1,20,67.82Z"/><path class="cls-2" d="M88.54,58.26a1.21,1.21,0,0,1-1.48.28.81.81,0,0,1-.34-1.23A1.21,1.21,0,0,1,88.19,57,.81.81,0,0,1,88.54,58.26Z"/><path class="cls-2" d="M167.83,56.39a1.21,1.21,0,0,1-1.48.28.81.81,0,0,1-.34-1.23,1.21,1.21,0,0,1,1.48-.29A.81.81,0,0,1,167.83,56.39Z"/><path class="cls-2" d="M240.3,63.26a1.21,1.21,0,0,1-1.48.28.81.81,0,0,1-.34-1.23A1.21,1.21,0,0,1,240,62,.81.81,0,0,1,240.3,63.26Z"/><path class="cls-2" d="M313.15,77.31a1.21,1.21,0,0,1-1.48.29.81.81,0,0,1-.34-1.23,1.21,1.21,0,0,1,1.48-.28A.81.81,0,0,1,313.15,77.31Z"/><path class="cls-2" d="M137,2.5a1.21,1.21,0,0,1-1.48.28.81.81,0,0,1-.34-1.23,1.21,1.21,0,0,1,1.48-.29A.81.81,0,0,1,137,2.5Z"/><path class="cls-2" d="M108.66,12.39a1.21,1.21,0,0,1-1.48.29.81.81,0,0,1-.34-1.23,1.21,1.21,0,0,1,1.48-.28A.81.81,0,0,1,108.66,12.39Z"/><path class="cls-2" d="M92.69,17.54a1.21,1.21,0,0,1-1.48.28.81.81,0,0,1-.34-1.23,1.21,1.21,0,0,1,1.48-.29A.81.81,0,0,1,92.69,17.54Z"/><path class="cls-2" d="M80.24-.24A1.21,1.21,0,0,1,78.76,0a.81.81,0,0,1-.34-1.23,1.21,1.21,0,0,1,1.48-.29A.81.81,0,0,1,80.24-.24Z"/><path class="cls-2" d="M9.18.8a1.21,1.21,0,0,1-1.48.28A.81.81,0,0,1,7.35-.15,1.21,1.21,0,0,1,8.84-.43.81.81,0,0,1,9.18.8Z"/><path class="cls-2" d="M6.43,15.5a1.21,1.21,0,0,1-1.48.29.81.81,0,0,1-.34-1.23,1.21,1.21,0,0,1,1.48-.28A.81.81,0,0,1,6.43,15.5Z"/><path class="cls-2" d="M40.27,33a1.21,1.21,0,0,1-1.48.28A.81.81,0,0,1,38.45,32a1.21,1.21,0,0,1,1.48-.29A.81.81,0,0,1,40.27,33Z"/><path class="cls-2" d="M75.18,43.53a1.21,1.21,0,0,1-1.48.28.81.81,0,0,1-.34-1.23,1.21,1.21,0,0,1,1.48-.29A.81.81,0,0,1,75.18,43.53Z"/><path class="cls-2" d="M96,66.87a1.21,1.21,0,0,1-1.48.28.81.81,0,0,1-.34-1.23,1.21,1.21,0,0,1,1.48-.29A.81.81,0,0,1,96,66.87Z"/><path class="cls-2" d="M719.49,8.21a1.21,1.21,0,0,1-1.48.28.81.81,0,0,1-.34-1.23A1.21,1.21,0,0,1,719.15,7,.81.81,0,0,1,719.49,8.21Z"/><path class="cls-2" d="M709.7,35.14a1.21,1.21,0,0,1-1.48.28.81.81,0,0,1-.34-1.23,1.21,1.21,0,0,1,1.48-.29A.81.81,0,0,1,709.7,35.14Z"/><path class="cls-2" d="M670.17,29.91a1.21,1.21,0,0,1-1.48.28.81.81,0,0,1-.34-1.23,1.21,1.21,0,0,1,1.48-.29A.81.81,0,0,1,670.17,29.91Z"/><path class="cls-2" d="M616.52,30.77a1.21,1.21,0,0,1-1.48.28.81.81,0,0,1-.34-1.23,1.21,1.21,0,0,1,1.48-.29A.81.81,0,0,1,616.52,30.77Z"/><path class="cls-2" d="M544,50a1.21,1.21,0,0,1-1.48.29A.81.81,0,0,1,542.2,49a1.21,1.21,0,0,1,1.48-.28A.81.81,0,0,1,544,50Z"/><path class="cls-2" d="M471.12,64.6a1.21,1.21,0,0,1-1.48.28.81.81,0,0,1-.34-1.23,1.21,1.21,0,0,1,1.48-.29A.81.81,0,0,1,471.12,64.6Z"/><path class="cls-2" d="M453.28,29.5a1.21,1.21,0,0,1-1.48.29.81.81,0,0,1-.34-1.23,1.21,1.21,0,0,1,1.48-.28A.81.81,0,0,1,453.28,29.5Z"/><path class="cls-2" d="M517.69,13.19a1.21,1.21,0,0,1-1.48.29.81.81,0,0,1-.34-1.23,1.21,1.21,0,0,1,1.48-.29A.81.81,0,0,1,517.69,13.19Z"/><path class="cls-2" d="M603.5,18.73A1.21,1.21,0,0,1,602,19a.81.81,0,0,1-.34-1.23,1.21,1.21,0,0,1,1.48-.29A.81.81,0,0,1,603.5,18.73Z"/><path class="cls-2" d="M658.46,13.17a1.21,1.21,0,0,1-1.48.29.81.81,0,0,1-.34-1.23,1.21,1.21,0,0,1,1.48-.28A.81.81,0,0,1,658.46,13.17Z"/><path class="cls-2" d="M357.61,13.07a1.21,1.21,0,0,1-1.48.28.81.81,0,0,1-.34-1.23,1.21,1.21,0,0,1,1.48-.29A.81.81,0,0,1,357.61,13.07Z"/><path class="cls-2" d="M226.54,13.28a1.21,1.21,0,0,1-1.48.29.81.81,0,0,1-.34-1.23,1.21,1.21,0,0,1,1.48-.29A.81.81,0,0,1,226.54,13.28Z"/><path class="cls-2" d="M167.29,32.4a1.21,1.21,0,0,1-1.48.29.81.81,0,0,1-.34-1.23,1.21,1.21,0,0,1,1.48-.29A.81.81,0,0,1,167.29,32.4Z"/><path class="cls-2" d="M141.37,32.29a1.21,1.21,0,0,1-1.48.29.81.81,0,0,1-.34-1.23,1.21,1.21,0,0,1,1.48-.28A.81.81,0,0,1,141.37,32.29Z"/><path class="cls-2" d="M133.3,35.41a1.21,1.21,0,0,1-1.48.29.81.81,0,0,1-.34-1.23,1.21,1.21,0,0,1,1.48-.28A.81.81,0,0,1,133.3,35.41Z"/><path class="cls-2" d="M113.71,47.8a1.21,1.21,0,0,1-1.48.29.81.81,0,0,1-.34-1.23,1.21,1.21,0,0,1,1.48-.28A.81.81,0,0,1,113.71,47.8Z"/><path class="cls-2" d="M199.83,21.68a1.21,1.21,0,0,1-1.48.29.81.81,0,0,1-.34-1.23,1.21,1.21,0,0,1,1.48-.28A.81.81,0,0,1,199.83,21.68Z"/><path class="cls-2" d="M246.49,42.65a1.21,1.21,0,0,1-1.48.28.81.81,0,0,1-.34-1.23,1.21,1.21,0,0,1,1.48-.29A.81.81,0,0,1,246.49,42.65Z"/><path class="cls-2" d="M301.56,55.11a1.21,1.21,0,0,1-1.48.29.81.81,0,0,1-.34-1.23,1.21,1.21,0,0,1,1.48-.29A.81.81,0,0,1,301.56,55.11Z"/><path class="cls-2" d="M364.09,52.42a1.21,1.21,0,0,1-1.48.28.81.81,0,0,1-.34-1.23,1.21,1.21,0,0,1,1.48-.29A.81.81,0,0,1,364.09,52.42Z"/><path class="cls-2" d="M293.9,21.25a1.21,1.21,0,0,1-1.48.28.81.81,0,0,1-.34-1.23,1.21,1.21,0,0,1,1.48-.29A.81.81,0,0,1,293.9,21.25Z"/><path class="cls-2" d="M403.84,10.07a1.21,1.21,0,0,1-1.48.28A.81.81,0,0,1,402,9.12a1.21,1.21,0,0,1,1.48-.29A.81.81,0,0,1,403.84,10.07Z"/><path class="cls-2" d="M430.51,38.79a1.21,1.21,0,0,1-1.48.28.81.81,0,0,1-.34-1.23,1.21,1.21,0,0,1,1.48-.29A.81.81,0,0,1,430.51,38.79Z"/><path class="cls-2" d="M465.66,57.52a1.21,1.21,0,0,1-1.48.28.81.81,0,0,1-.34-1.23,1.21,1.21,0,0,1,1.48-.29A.81.81,0,0,1,465.66,57.52Z"/><path class="cls-2" d="M514.59,60.86a1.21,1.21,0,0,1-1.48.28.81.81,0,0,1-.34-1.23,1.21,1.21,0,0,1,1.48-.29A.81.81,0,0,1,514.59,60.86Z"/><path class="cls-2" d="M578.72,58a1.21,1.21,0,0,1-1.48.29A.81.81,0,0,1,576.9,57a1.21,1.21,0,0,1,1.48-.29A.81.81,0,0,1,578.72,58Z"/><path class="cls-2" d="M637.6,45.59a1.21,1.21,0,0,1-1.48.28.81.81,0,0,1-.34-1.23,1.21,1.21,0,0,1,1.48-.29A.81.81,0,0,1,637.6,45.59Z"/><path class="cls-2" d="M671.33,50.84a1.21,1.21,0,0,1-1.48.29.81.81,0,0,1-.34-1.23A1.21,1.21,0,0,1,671,49.6.81.81,0,0,1,671.33,50.84Z"/><path class="cls-2" d="M704.74,59.33a1.21,1.21,0,0,1-1.48.29.81.81,0,0,1-.34-1.23,1.21,1.21,0,0,1,1.48-.29A.81.81,0,0,1,704.74,59.33Z"/><path class="cls-2" d="M726.85,14.31a1.21,1.21,0,0,1-1.48.29.81.81,0,0,1-.34-1.23,1.21,1.21,0,0,1,1.48-.29A.81.81,0,0,1,726.85,14.31Z"/><path class="cls-2" d="M545.77,8.8a1.21,1.21,0,0,1-1.48.29.81.81,0,0,1-.34-1.23,1.21,1.21,0,0,1,1.48-.29A.81.81,0,0,1,545.77,8.8Z"/><path class="cls-2" d="M553.88,27.84a1.21,1.21,0,0,1-1.48.29.81.81,0,0,1-.34-1.23,1.21,1.21,0,0,1,1.48-.29A.81.81,0,0,1,553.88,27.84Z"/><path class="cls-2" d="M605.57,35.81a1.21,1.21,0,0,1-1.48.28.81.81,0,0,1-.34-1.23,1.21,1.21,0,0,1,1.48-.29A.81.81,0,0,1,605.57,35.81Z"/><path class="cls-2" d="M619.67,53.48a1.21,1.21,0,0,1-1.48.28.81.81,0,0,1-.34-1.23,1.21,1.21,0,0,1,1.48-.29A.81.81,0,0,1,619.67,53.48Z"/><path class="cls-2" d="M660.11,66.88a1.21,1.21,0,0,1-1.48.29.81.81,0,0,1-.34-1.23,1.21,1.21,0,0,1,1.48-.28A.81.81,0,0,1,660.11,66.88Z"/><path class="cls-2" d="M677.89,70.22a1.21,1.21,0,0,1-1.48.29.81.81,0,0,1-.34-1.23,1.21,1.21,0,0,1,1.48-.28A.81.81,0,0,1,677.89,70.22Z"/><path class="cls-2" d="M694.39,76.14a1.21,1.21,0,0,1-1.48.28.81.81,0,0,1-.34-1.23,1.21,1.21,0,0,1,1.48-.29A.81.81,0,0,1,694.39,76.14Z"/><path class="cls-2" d="M674.18,63.15a1.21,1.21,0,0,1-1.48.29.81.81,0,0,1-.34-1.23,1.21,1.21,0,0,1,1.48-.28A.81.81,0,0,1,674.18,63.15Z"/><path class="cls-2" d="M577.61,46.23a1.21,1.21,0,0,1-1.48.29.81.81,0,0,1-.34-1.23,1.21,1.21,0,0,1,1.48-.28A.81.81,0,0,1,577.61,46.23Z"/><path class="cls-2" d="M508.7,54.08a1.21,1.21,0,0,1-1.48.29.81.81,0,0,1-.34-1.23,1.21,1.21,0,0,1,1.48-.28A.81.81,0,0,1,508.7,54.08Z"/><path class="cls-2" d="M451.56,61.93a1.21,1.21,0,0,1-1.48.29.81.81,0,0,1-.34-1.23,1.21,1.21,0,0,1,1.48-.29A.81.81,0,0,1,451.56,61.93Z"/><path class="cls-2" d="M408.17,68.9a1.21,1.21,0,0,1-1.48.29.81.81,0,0,1-.34-1.23,1.21,1.21,0,0,1,1.48-.28A.81.81,0,0,1,408.17,68.9Z"/><path class="cls-2" d="M363.79,78.57a1.21,1.21,0,0,1-1.48.29.81.81,0,0,1-.34-1.23,1.21,1.21,0,0,1,1.48-.28A.81.81,0,0,1,363.79,78.57Z"/><path class="cls-2" d="M345.7,82.33a1.21,1.21,0,0,1-1.48.29.81.81,0,0,1-.34-1.23,1.21,1.21,0,0,1,1.48-.29A.81.81,0,0,1,345.7,82.33Z"/><path class="cls-2" d="M389.59,45.93a1.21,1.21,0,0,1-1.48.29.81.81,0,0,1-.34-1.23,1.21,1.21,0,0,1,1.48-.29A.81.81,0,0,1,389.59,45.93Z"/><path class="cls-2" d="M363.76,3.56a1.21,1.21,0,0,1-1.48.29.81.81,0,0,1-.34-1.23,1.21,1.21,0,0,1,1.48-.28A.81.81,0,0,1,363.76,3.56Z"/><path class="cls-2" d="M324.26,13a1.21,1.21,0,0,1-1.48.29.81.81,0,0,1-.34-1.23,1.21,1.21,0,0,1,1.48-.28A.81.81,0,0,1,324.26,13Z"/><path class="cls-2" d="M303.74,46.33a1.21,1.21,0,0,1-1.48.29.81.81,0,0,1-.34-1.23,1.21,1.21,0,0,1,1.48-.28A.81.81,0,0,1,303.74,46.33Z"/><path class="cls-2" d="M312.69,48.7a1.21,1.21,0,0,1-1.48.29.81.81,0,0,1-.34-1.23,1.21,1.21,0,0,1,1.48-.29A.81.81,0,0,1,312.69,48.7Z"/><path class="cls-2" d="M346.09,30.06a1.21,1.21,0,0,1-1.48.28.81.81,0,0,1-.34-1.23,1.21,1.21,0,0,1,1.48-.29A.81.81,0,0,1,346.09,30.06Z"/><path class="cls-2" d="M277,39.26a1.21,1.21,0,0,1-1.48.29.81.81,0,0,1-.34-1.23,1.21,1.21,0,0,1,1.48-.29A.81.81,0,0,1,277,39.26Z"/><path class="cls-2" d="M234.08,45a1.21,1.21,0,0,1-1.48.28.81.81,0,0,1-.34-1.23,1.21,1.21,0,0,1,1.48-.29A.81.81,0,0,1,234.08,45Z"/><path class="cls-2" d="M190.64,68.18a1.21,1.21,0,0,1-1.48.28.81.81,0,0,1-.34-1.23A1.21,1.21,0,0,1,190.3,67,.81.81,0,0,1,190.64,68.18Z"/><path class="cls-2" d="M160.64,65.86a1.21,1.21,0,0,1-1.48.29.81.81,0,0,1-.34-1.23,1.21,1.21,0,0,1,1.48-.28A.81.81,0,0,1,160.64,65.86Z"/><path class="cls-2" d="M114.54,78.23a1.21,1.21,0,0,1-1.48.28.81.81,0,0,1-.34-1.23A1.21,1.21,0,0,1,114.2,77,.81.81,0,0,1,114.54,78.23Z"/><path class="cls-2" d="M180.89,41.71a1.21,1.21,0,0,1-1.48.29.81.81,0,0,1-.34-1.23,1.21,1.21,0,0,1,1.48-.29A.81.81,0,0,1,180.89,41.71Z"/><path class="cls-2" d="M208.85,37.56a1.21,1.21,0,0,1-1.48.29.81.81,0,0,1-.34-1.23,1.21,1.21,0,0,1,1.48-.28A.81.81,0,0,1,208.85,37.56Z"/><path class="cls-2" d="M32.58,9.05a1.21,1.21,0,0,1-1.48.29.81.81,0,0,1-.34-1.23,1.21,1.21,0,0,1,1.48-.29A.81.81,0,0,1,32.58,9.05Z"/><path class="cls-2" d="M34.62,43.52a1.21,1.21,0,0,1-1.48.29.81.81,0,0,1-.34-1.23,1.21,1.21,0,0,1,1.48-.28A.81.81,0,0,1,34.62,43.52Z"/><path class="cls-2" d="M35.31,50.93a1.21,1.21,0,0,1-1.48.29A.81.81,0,0,1,33.49,50,1.21,1.21,0,0,1,35,49.7.81.81,0,0,1,35.31,50.93Z"/></g></g><ellipse class="cls-8" cx="39.99" cy="23.94" rx="10.04" ry="10.03"/><ellipse class="cls-8" cx="74.41" cy="23.94" rx="10.04" ry="10.03"/><ellipse class="cls-8" cx="108.68" cy="23.94" rx="10.04" ry="10.03"/><rect class="cls-2" x="357.46" y="271.09" width="29.9" height="99.4" rx="14.95" ry="14.95" transform="translate(17.78 661.13) rotate(-84.56)"/><path class="cls-14" d="M160.19,501l-10-23.46-30.84,30.56L93.29,574.78l.15,0c-8,9.33-10.32,11.74-10.32,11.74s-10.07,7.74-11,8.8-1.09,2.55.7,2.42,10.51-7,10.51-7-6.81,10.08-8.77,12.56-2.4,7,.06,5,10.67-13.77,10.67-13.77-6.94,15-8.83,17.77-.25,4.66,1.48,4.28,13.3-22.12,13.3-22.12-5.46,14.2-7.65,18.71,0,6.86,2,5.05,13.25-28.63,13.25-28.63c1.6-.73.28,2.81-.52,8.29s2.95,8.25,4.27,5.12,2.06-25.41,2.14-26.67a1.21,1.21,0,0,0-.07-.37l28.93-59.72Z"/><path class="cls-14" d="M342.31,332.89a10.1,10.1,0,0,1-7.89-5.84c-1.59-3.43-3.32-6.13-4.87-4.6-2.63,2.61,5.85,17.26,5.85,17.26l-26.68,63.17-25.79,16.62,11.2,22.91,29.23-32.11,22.58-68c3.29-3,5.61-8.29,5.61-8.29Z"/><path class="cls-14" d="M205.85,400.48s-.12,0-6.57-.28c-7.21-.29-14.5-19.47-13.55-23.68.49-2.15,2.93-1.37,5.21-.09,0,0,.84-.2.63-.6l-4.24-8.09a.45.45,0,0,1,.25-.64l6.86-2.52a.45.45,0,0,0,.29-.4C195,357.63,196,351,198.84,349c5.77-4,32.11-12.52,35.55-13.62a.44.44,0,0,1,.54.25l12.42,27.52v0s17.65,43.17,1.07,54.47a39.27,39.27,0,0,1-21,7,.45.45,0,0,0-.31.6l7.49,19.39c5.47,4.87,5,6.45,4.79,6.57-1,.58-.44,1.06-1.57,1.47s-28.24-17.69-32-20.46a.45.45,0,0,1,.13-.78h0a11.31,11.31,0,0,0,7.32-12.53"/><g id="_Group_" data-name="&lt;Group&gt;"><polygon id="_Path_" data-name="&lt;Path&gt;" class="cls-14" points="268.92 763.37 266.51 778.33 250.74 777.79 253.73 759.79 268.92 763.37"/></g><path id="_Path_2" data-name="&lt;Path&gt;" class="cls-8" d="M269.66,778.39l11.75,18.2,29.07,10.25a3.32,3.32,0,0,1-.76,6.55l-48.57.61-16.47-12.18,3.37-24.95Z"/><g id="_Group_2" data-name="&lt;Group&gt;"><polygon id="_Path_3" data-name="&lt;Path&gt;" class="cls-14" points="139.93 709.26 126.47 716.22 117.53 703.22 133.78 694.93 139.93 709.26"/></g><path id="_Path_4" data-name="&lt;Path&gt;" class="cls-8" d="M137.17,778.66a3.32,3.32,0,0,1-5.72,3.29l-41.28-70.4,26.5-11,11.62,18.28"/><polygon id="_Path_5" data-name="&lt;Path&gt;" class="cls-8" points="287.25 577.13 273.42 765.33 251.83 765.33 247.43 612.01 213.54 670.32 137.55 713.78 127.81 695.77 197.9 648.78 207.62 571 287.25 577.13"/><path id="_Rectangle_3" data-name="&lt;Rectangle&gt;" class="cls-8" d="M515.25,194.76h184.5a3.63,3.63,0,0,1,3.63,3.63v63.24a3.62,3.62,0,0,1-3.62,3.62H515.25a3.62,3.62,0,0,1-3.62-3.62V198.38a3.62,3.62,0,0,1,3.62-3.62Z" transform="translate(-13.77 40.3) rotate(-3.76)"/><rect id="_Rectangle_4" data-name="&lt;Rectangle&gt;" class="cls-2" x="530.41" y="209.15" width="152.28" height="13.05" transform="matrix(1, -0.07, 0.07, 1, -12.83, 40.21)"/><rect id="_Rectangle_5" data-name="&lt;Rectangle&gt;" class="cls-2" x="532.06" y="235.19" width="96.16" height="13.05" transform="translate(-14.59 38.53) rotate(-3.76)"/><g id="_Group_3" data-name="&lt;Group&gt;"><polygon id="_Path_6" data-name="&lt;Path&gt;" class="cls-14" points="629.5 758.33 627.1 798.48 611.33 797.94 614.32 754.75 629.5 758.33"/></g><g id="_Group_4" data-name="&lt;Group&gt;"><polygon id="_Path_7" data-name="&lt;Path&gt;" class="cls-14" points="553.78 761.1 552.47 776.2 567.89 779.52 569.38 761.33 553.78 761.1"/></g><path id="_Path_8" data-name="&lt;Path&gt;" class="cls-8" d="M549.4,775.49l-5.73,17.38L516,803.72a3.32,3.32,0,0,0-.86,6.54l59.46-1.68-3.91-29.3Z"/><path id="_Path_9" data-name="&lt;Path&gt;" class="cls-8" d="M631.83,775.49l5.73,17.38,27.63,10.85a3.32,3.32,0,0,1,.86,6.54l-59.46-1.68,3.91-29.3Z"/><path id="_Path_10" data-name="&lt;Path&gt;" class="cls-14" d="M605.88,377.67l-.69,7.34a17.53,17.53,0,0,1-12.37,15.13l-3.1.94h54.49l-7.06-.16a17.53,17.53,0,0,1-10.94-17.84l.79-8.76Z"/><path id="_Path_11" data-name="&lt;Path&gt;" class="cls-8" d="M646.27,574.56,632.44,763.07H610.85l-4.4-153.32L586,673.61l-15.66,89.46H546.22l13.05-102.52,7.36-91h0a111.53,111.53,0,0,1,74,2.8Z"/><path id="_Path_12" data-name="&lt;Path&gt;" class="cls-14" d="M642.47,351.51a13.92,13.92,0,0,0,1.72-.7c6.84-3.34,5.31-9.79,2-16.63-2.18-4.47-2.1-9-6.71-9.47Z"/><path id="_Path_13" data-name="&lt;Path&gt;" class="cls-14" d="M586.42,362.69a14.86,14.86,0,0,1-2,.13c-8.12,0-9-5.5-9-13.61,0-5.3-2.87-11,1.34-13.61Z"/><path class="cls-14" d="M685,279c.27-14,.59-17.68.59-17.68s2.89-12.37,2.93-13.77-.78-2.66-2.08-1.43-3.68,12.1-3.68,12.1-1.11-12.11-1.17-15.27-2.57-6.92-3.2-3.81.47,17.42.47,17.42-4.11-16-4.42-19.34-2.75-3.76-3.85-2.38,3.71,25.54,3.71,25.54-4.77-14.45-5.93-19.32-4.38-5.28-4.73-2.66,5.93,25.27,5.93,25.27c.16,1.2,0,2.56-2.89-2.2l-6.15.41c.8,2.74,10.19,15,13.61,19.44l1.92,65.88L659.52,373l19.71,16.19,13.23-41.35Z"/><path class="cls-14" d="M546.26,287c2.26-2.9,12.29-15.49,13.17-18.47l-7,.41c-.51.83-1,.58-.86-.62,0,0,6.28-22.65,5.93-25.27s-3.57-2.21-4.73,2.66S546.89,265,546.89,265s4.81-24.15,3.71-25.54-3.54-1-3.85,2.38-4.42,19.34-4.42,19.34,1.1-14.31.47-17.42-3.13.65-3.2,3.81-1.17,15.27-1.17,15.27S536,252,534.75,250.78s-2.11,0-2.08,1.43S535.6,266,535.6,266s.25,2.94.5,13.41l-.35-.06L528,350.52l13.23,41.35L561,375.69l-16.54-25.84Z"/><path class="cls-15" d="M243.89,408.92q5.84-4.55,4.16-10.34a2,2,0,0,0-3.17-1L230.42,406c-1.12.87-1.53,2.62-.31,3.33C233.58,411.36,240,412,243.89,408.92Z"/><path class="cls-16" d="M241.89,391.76a5.77,5.77,0,0,0,1.29-.54,4.77,4.77,0,0,0,2.46-4.31c0-3.73-5.8-7.73-7-8.5a1.3,1.3,0,0,0-1.44,2.17c2.39,1.59,5.76,4.61,5.79,6.36a2.38,2.38,0,0,1-2.16,2.38,1.3,1.3,0,0,0-1.1,1.47C240,392,241,392,241.89,391.76Z"/><path class="cls-8" d="M251.63,339c-7.41,10.55-26.51,19.24-48.38,17.91,0,0-2,17.4,0,25.27a7.26,7.26,0,0,1-5.18,0l-7.14-5.79s-8.68-.48-1.26,13.87S204,397.13,204,397.13l4.27,8.82s-16.15-2.76-21.63-3.77-16.94-12-22.66-27c-3.76-9.84-10-26.6,1.58-39.76s25.91-17.69,35.69-16.81c24.39,2.19,41.17-16.05,41.17-16.05S268.55,315,251.63,339Z"/><polygon class="cls-17" points="260.41 426.94 228.25 428.93 235.32 448.32 205.38 431.16 148.59 479.09 160.39 504.44 199.73 484.42 202.72 571.35 288.7 577.48 273.49 462.21 305.15 439.64 289.36 415.37 260.41 426.94"/><polygon class="cls-18" points="639.44 394.06 586.42 394.06 559.06 372.44 533.82 391.89 569.35 424.87 557.99 577.48 650.96 577.48 650.96 426.32 688.2 389.19 661.76 369.49 639.44 394.06"/><path class="cls-8" d="M594.85,373.67c16.64,14.69,44.63-2.23,47.12-13.14,1.54-6.76-1-26.13-3.24-41.81"/><path class="cls-8" d="M655.85,279.18c-2.72-4.3-11-12.39-20.11-7.62-3.7,1.93-7.47,6.11-14.26,6.11s-14.69-5.34-35.42,4.23c-11.19,5.16-14,19.16-13.95,32.83s9.81,47.52,22.73,58.92C611.49,388.35,639.47,374,642,363c1.54-6.76-1-28.65-3.24-44.33a78.15,78.15,0,0,0,10.57-6.49C660.61,303.85,658.57,283.48,655.85,279.18Z"/></svg>