<?xml version="1.0" encoding="UTF-8"?>
<svg width="140px" height="175px" viewBox="0 0 140 175" version="1.1" xmlns="http://www.w3.org/2000/svg" xmlns:xlink="http://www.w3.org/1999/xlink">
    <!-- Generator: Sketch 54.1 (76490) - https://sketchapp.com -->
    <title>designer</title>
    <desc>Created with Sketch.</desc>
    <defs>
        <linearGradient x1="0%" y1="50%" x2="100%" y2="50%" id="linearGradient-1">
            <stop stop-color="#ED2954" offset="0%"></stop>
            <stop stop-color="#F58B1F" offset="100%"></stop>
        </linearGradient>
    </defs>
    <g id="designer" stroke="none" stroke-width="1" fill="none" fill-rule="evenodd">
        <g id="Group-2" transform="translate(0.000000, 1.000000)">
            <rect id="Rectangle" x="0" y="0" width="140" height="172"></rect>
            <g id="Combined-Shape-4" transform="translate(18.400000, 14.400000)" fill="url(#linearGradient-1)">
                <path d="M68.4578266,28.1828662 L68.4553398,28.1835809 L68.4553398,28.1752311 L74.8804087,28.1752311 L74.8804087,44.6966811 L58.4393365,44.6966811 L58.4393365,28.1752311 L64.8561069,28.1752311 L64.8561069,26.0266161 C64.8561069,21.7040211 63.1881679,17.6766861 60.159904,14.6736411 C59.2234438,13.7412636 58.1789605,12.9758961 57.084544,12.3079273 L57.084544,16.5189448 L40.6406347,16.5217279 L40.6406347,12.2773654 C35.9169827,15.1387654 32.8775831,20.3682304 32.8775831,26.0264779 L32.8775831,28.1750929 L39.2860549,28.1750929 L39.2860549,44.6986804 L22.8421456,44.6986804 L22.8421456,28.1772304 L29.275513,28.1772304 L29.275513,26.0286154 C29.275513,20.2452529 31.8799122,14.8566866 36.0884862,11.1772654 L27.7516285,11.1772654 C26.7680722,13.6376704 24.3853225,15.3882829 21.5870066,15.3882829 C17.9186899,15.3882829 14.9375221,12.3935741 14.9375221,8.70859537 C14.9375221,5.02639537 17.9186899,2.03168662 21.5870066,2.03168662 C24.8562833,2.03168662 27.5687482,4.42248037 28.1173324,7.55078287 L40.6460252,7.55078287 L40.6460252,8.2215375 L40.6460252,-8.32410631e-14 L57.0870974,-8.02208872e-14 L57.0898678,7.553925 L69.8178678,7.553925 C70.3691899,4.4256225 73.0816121,2.03482875 76.3481936,2.03482875 C80.0165103,2.03482875 82.9976781,5.03231625 82.9976781,8.7117375 C82.9976781,12.3967162 80.0165103,15.391425 76.3481936,15.391425 C73.5526439,15.391425 71.1643618,13.6407412 70.1835717,11.1804075 L61.5672583,11.1804075 C61.9357994,11.5032697 62.3486064,11.7565421 62.7004723,12.1100062 C66.4103528,15.7922062 68.4578266,20.7378112 68.4578266,26.0286937 L68.4578266,28.1828662 Z M18.5395255,8.72021625 C18.5395255,10.39851 19.8999214,11.773417 21.5844575,11.7762 C23.2634612,11.7762 24.6266233,10.4040675 24.6266233,8.72021625 C24.6266233,7.03358625 23.2662274,5.66145375 21.5844575,5.66145375 C19.8999214,5.66145375 18.5395255,7.03358625 18.5395255,8.72021625 Z M35.6813647,31.8037912 L26.4444328,31.8037912 L26.4444328,41.0805412 L35.6813647,41.0805412 L35.6813647,31.8037912 Z M76.342874,5.65860375 C74.6666365,5.65860375 73.3007082,7.033515 73.3007082,8.71736625 C73.3007082,10.4012175 74.6638703,11.77335 76.342874,11.77335 C78.0218777,11.77335 79.387806,10.4012175 79.387806,8.71736625 C79.387806,7.03073625 78.0191115,5.65860375 76.342874,5.65860375 Z M44.2451915,12.9004537 L53.4799956,12.9004537 L53.4799956,3.62655375 L44.2451915,3.62655375 L44.2451915,12.9004537 Z M71.2779173,31.8037912 L62.0409853,31.8037912 L62.0409853,41.0805412 L71.2779173,41.0805412 L71.2779173,31.8037912 Z M55.831323,123.334752 L64.281323,109.010657 L72.731323,123.334752 L55.831323,123.334752 Z M61.2976786,120.215257 L67.2649675,120.215257 L64.281323,115.155613 L61.2976786,120.215257 Z M50.8890119,123.659723 L50.8890119,126.725287 L53.9675275,126.725287 L53.9675275,131.609423 L50.8890119,131.609423 L50.8890119,134.674987 L45.9959275,134.674987 L45.9959275,131.609423 L42.9174119,131.609423 L42.9174119,126.725287 L45.9959275,126.725287 L45.9959275,123.659723 L50.8890119,123.659723 Z M30.5674119,105.923428 C27.9809319,105.923428 25.8774741,103.825749 25.8774741,101.246375 L25.8774741,77.316032 C25.8774741,74.7366577 27.9809319,72.6389786 30.5674119,72.6389786 L66.3179897,72.6389786 C68.9044697,72.6389786 71.0079275,74.7366577 71.0079275,77.316032 L71.0079275,101.246375 C71.0079275,103.825749 68.9044697,105.923428 66.3179897,105.923428 L30.5674119,105.923428 Z M29.005563,77.3167234 L29.005563,101.247066 C29.005563,102.106892 29.7052635,102.804624 30.5674119,102.804624 L66.3179897,102.804624 C67.1801844,102.804624 67.8798386,102.106846 67.8798386,101.247066 L67.8798386,77.3167234 C67.8798386,76.4568974 67.1801381,75.7591653 66.3179897,75.7591653 L30.5674119,75.7591653 C29.7052172,75.7591653 29.005563,76.4569435 29.005563,77.3167234 Z M36.913723,93.0271329 C35.4963186,93.0271329 34.340763,91.874752 34.340763,90.4612415 L34.340763,88.1024329 C34.340763,86.6844166 35.4963186,85.5365415 36.913723,85.5365415 L39.2790297,85.5365415 C40.6964341,85.5365415 41.8519897,86.6889224 41.8519897,88.1024329 L41.8519897,90.4612415 C41.8519897,91.874752 40.6964341,93.0271329 39.2790297,93.0271329 L36.913723,93.0271329 Z M57.6062564,93.0271329 C56.1843337,93.0271329 55.0332964,91.874752 55.0332964,90.4612415 L55.0332964,88.1024329 C55.0332964,86.6844166 56.1888519,85.5365415 57.6062564,85.5365415 L59.9760697,85.5365415 C61.3979924,85.5365415 62.5490297,86.6889224 62.5490297,88.1024329 L62.5490297,90.4612415 C62.5490297,91.874752 61.3934741,93.0271329 59.9760697,93.0271329 L57.6062564,93.0271329 Z M33.0322119,110.024752 C36.8509764,110.024752 39.9565319,113.121776 39.9565319,116.930049 C39.9565319,120.738322 36.8509764,123.835346 33.0322119,123.835346 C29.2134475,123.835346 26.1078919,120.738322 26.1078919,116.930049 C26.1078919,113.121776 29.2134475,110.024752 33.0322119,110.024752 Z M33.0322119,120.715736 C35.1266564,120.715736 36.8329566,119.018624 36.828443,116.929934 C36.828443,114.845738 35.1266564,113.144132 33.0322119,113.144132 C30.9377675,113.144132 29.2359808,114.841243 29.2359808,116.929934 C29.2359808,119.018624 30.9377675,120.715736 33.0322119,120.715736 Z M96.3035008,58.212552 L99.4134452,53.6397707 L103.999614,56.7412888 L100.885045,61.3238469 L97.7749829,65.8974164 L93.2565296,62.8409564 L93.0443812,63.9843372 C92.5884567,63.8943017 92.1054692,64.0518552 91.6134567,64.4389861 C90.7693234,65.1052928 90.1689764,66.2801451 90.1193234,67.3605023 C90.0155545,69.6697585 91.2388256,71.9745204 92.8502478,74.751989 L96.2898745,80.6804128 C98.7092727,84.8484594 101.169323,89.7145032 99.7113589,94.7336985 C98.6685856,98.3123023 95.6037056,101.391349 91.5095723,102.966884 C88.7424789,104.029184 85.9077856,104.357796 83.01439,104.510844 L83.0098764,131.861454 C83.0098764,138.154491 77.877592,143.27717 71.562712,143.27717 L25.313912,143.27717 C19.0035387,143.27717 13.8667476,138.154491 13.8667476,131.861454 L13.8667476,102.372025 C8.98729867,101.6292 5.02408978,97.2853004 3.15532533,92.8873537 C0.239338667,86.0226204 0.388289778,77.893149 3.55254756,71.1453823 C4.02195733,70.137049 4.56363556,69.1917048 5.08724089,68.282407 C5.98094756,66.7203547 6.82955289,65.2484185 7.14100978,63.7538956 C7.78199644,60.7019299 7.31700089,60.3823747 5.36249422,59.0453823 L4.81630933,58.6672515 L4.99234667,58.419674 L-2.84217094e-13,58.419674 L-2.84217094e-13,47.3639616 L5.54308444,47.3639616 L5.54308444,52.8873235 L11.0861689,52.8918247 L11.0861689,47.3639685 L16.6292533,47.3639685 L16.6292533,52.8873304 L16.6247397,58.4151866 L11.8806064,58.4151866 C12.6118535,59.9231923 12.8465815,61.908399 12.2417175,64.8073285 C11.7588108,67.1075962 10.6619113,69.0116752 9.60566418,70.8573285 C9.11370951,71.71712 8.64877173,72.527336 8.26961084,73.3375981 C5.72376018,78.7802933 5.60647129,85.3295047 7.95363573,90.8618552 C9.13623129,93.6438181 11.3751202,96.2771468 13.8713513,97.0559028 L13.8713513,73.0448933 C13.8713513,66.7518562 19.0036357,61.6291771 25.3185157,61.6291771 L71.5673157,61.6291771 C77.8776891,61.6291771 83.0144802,66.7518562 83.0144802,73.0448933 L83.0099666,99.3065028 C85.3572466,99.1715129 87.6096555,98.8969236 89.6318777,98.1181676 C92.2183577,97.1233171 94.114139,95.3182276 94.7054599,93.2880781 C95.5947755,90.2316181 93.7485444,86.6663819 91.7805177,83.2767685 L88.340891,77.3483447 C86.8197177,74.7285219 84.7343444,71.13632 84.9148999,67.1209638 C85.0323044,64.5505781 86.3593444,61.9622152 88.3770599,60.3642085 C88.5711586,60.2111608 88.7742821,60.0671132 88.9774057,59.9365715 L88.6072697,59.6844882 L84.0211008,56.5829701 L90.2412252,47.4359462 L94.8273941,50.5374643 L91.7173319,55.1110339 L96.3035008,58.212552 Z M77.8099897,131.861219 L77.8053675,73.0448472 C77.8053675,69.6147853 75.006843,66.8238339 71.5672164,66.8238339 L25.3184164,66.8238339 C21.8789052,66.8238339 19.0802652,69.6146701 19.0802652,73.0448472 L19.0802652,131.861219 C19.0802652,135.291281 21.8787897,138.082232 25.3184164,138.082232 L71.5718386,138.082232 C75.0113497,138.082232 77.8099897,135.291396 77.8099897,131.861219 Z" id="Combined-Shape"></path>
            </g>
        </g>
    </g>
</svg>