<?xml version="1.0" encoding="UTF-8"?>
<svg width="140px" height="175px" viewBox="0 0 140 175" version="1.1" xmlns="http://www.w3.org/2000/svg" xmlns:xlink="http://www.w3.org/1999/xlink">
    <!-- Generator: Sketch 54.1 (76490) - https://sketchapp.com -->
    <title>intern</title>
    <desc>Created with Sketch.</desc>
    <defs>
        <linearGradient x1="0%" y1="50%" x2="100%" y2="50%" id="linearGradient-1">
            <stop stop-color="#ED2954" offset="0%"></stop>
            <stop stop-color="#F58B1F" offset="100%"></stop>
        </linearGradient>
    </defs>
    <g id="intern" stroke="none" stroke-width="1" fill="none" fill-rule="evenodd">
        <g id="Group-5" transform="translate(0.000000, 2.000000)">
            <rect id="Rectangle-Copy-2" x="0" y="0" width="140" height="172"></rect>
            <g id="Combined-Shape-3" transform="translate(36.000000, 18.400000)" fill="url(#linearGradient-1)">
                <path d="M86.8793895,102.606756 L86.8778842,102.606871 C86.8778842,106.177422 84.8787789,109.287484 81.9387684,110.885387 C84.8831789,112.478898 86.8824,115.58896 86.8824,119.159396 C86.8824,124.350382 82.6489053,128.575324 77.4474105,128.575324 C72.2459158,128.575324 68.0169368,124.350382 68.0169368,119.159396 C68.0169368,116.897973 68.8176211,114.826062 70.1518632,113.20112 L61.3093684,113.20112 L61.3093684,136.000231 L6.39488462e-14,136.000231 L6.39488462e-14,87.33632 L8.48065263,87.33632 L8.48065263,48.20112 C8.48065263,39.2676356 15.7632316,32.0002311 24.7143368,32.0002311 L36.5920211,32.0002311 C45.5435895,32.0002311 52.8257053,39.2680978 52.8257053,48.20112 L52.830228,87.33632 L61.3108806,87.33632 L61.3063579,108.565031 L70.1488526,108.565031 C68.8145063,106.940089 68.0139263,104.863671 68.0139263,102.606756 C68.0139263,97.4157689 72.2429053,93.1908267 77.4444,93.1908267 C82.6458947,93.1908267 86.8793895,97.4157689 86.8793895,102.606756 Z M13.1319158,48.2008889 L13.1319158,87.3360889 L48.1767579,87.3360889 L48.1767579,48.2008889 C48.1767579,41.8271911 42.9796632,36.6407111 36.5931789,36.6407111 L24.7154947,36.6407111 C18.3288947,36.6407111 13.1319158,41.8273067 13.1319158,48.2008889 Z M56.6618105,131.360444 L56.6618105,91.9721778 L4.64686316,91.9721778 L4.64686316,131.360444 L56.6618105,131.360444 Z M82.2350737,119.158933 C82.2350737,116.527387 80.0866,114.383253 77.4497263,114.383253 C74.8128526,114.383253 72.6643789,116.527387 72.6643789,119.158933 C72.6643789,121.79048 74.8128526,123.934613 77.4497263,123.934613 C80.0866,123.934613 82.2350737,121.79048 82.2350737,119.158933 Z M77.4497263,107.382667 C80.0866,107.382667 82.2350737,105.238533 82.2350737,102.606987 C82.2350737,99.97544 80.0866,97.8313067 77.4497263,97.8313067 C74.8128526,97.8313067 72.6643789,99.97544 72.6643789,102.606987 C72.6643789,105.238533 74.8128526,107.382667 77.4497263,107.382667 Z M30.6531789,42.0926222 C38.1521684,42.0926222 44.2491789,48.1815911 44.2491789,55.6611556 C44.2491789,63.1404889 38.1524,69.2296889 30.6531789,69.2296889 C23.1541895,69.2296889 17.0571789,63.1452267 17.0571789,55.6611556 C17.0571789,48.1818222 23.1539579,42.0926222 30.6531789,42.0926222 Z M31.4673179,65.9399378 C36.7909705,65.5201244 40.9928628,61.0740089 40.9883389,55.6663556 C40.9883389,50.2496889 36.7864547,45.8035387 31.4673179,45.3882667 L31.4673179,65.9399378 Z M12.7243368,111.273422 L12.7243368,107.851938 L9.29592632,107.851938 L9.29592632,102.399102 L12.7243368,102.399102 L12.7243368,98.9776178 L18.1882105,98.9776178 L18.1882105,102.399102 L21.6166211,102.399102 L21.6166211,107.851938 L18.1882105,107.851938 L18.1882105,111.273422 L12.7243368,111.273422 Z M53.3583368,105.124711 L44.7057368,113.759831 L36.0531368,105.124711 L44.7057368,96.4895911 L53.3583368,105.124711 Z M44.7102526,100.588231 L40.1600737,105.124711 L44.7102526,109.665698 L49.2559158,105.124711 L44.7102526,100.588231 Z M30.6531789,125.446311 C27.0845474,125.446311 24.1807789,122.548409 24.1807789,118.986987 C24.1807789,115.425564 27.0845474,112.527662 30.6531789,112.527662 C34.2218105,112.527662 37.1255789,115.425564 37.1255789,118.986987 C37.1255789,122.548409 34.2218105,125.446311 30.6531789,125.446311 Z M30.6531789,115.588036 C28.7761158,115.588036 27.2518632,117.113716 27.2518632,118.98248 C27.2518632,120.851244 28.7761158,122.376924 30.6531789,122.376924 C32.5257263,122.376924 34.0544947,120.855751 34.0544947,118.98248 C34.0544947,117.113716 32.5302421,115.588036 30.6531789,115.588036 Z M32.6399005,0.000134542464 L32.6400085,0 C38.5989343,0 43.4398105,4.9192761 43.4398105,10.8895979 C43.4398105,15.9034574 39.9647042,20.0290944 35.339959,21.2746616 L35.339959,22.8723534 C35.3505023,23.5923708 35.0710169,24.2861121 34.5647762,24.8011541 C34.0532706,25.310949 33.3624613,25.6 32.6399815,25.6 C31.9175018,25.6 31.2267059,25.310949 30.7151868,24.8011541 C30.2089461,24.2861256 29.929458,23.5923708 29.940004,22.8723534 L29.940004,19.1304584 C29.940004,17.6431318 31.1475569,16.4396091 32.6399545,16.4396091 C35.6246148,16.4396091 38.0398555,14.0116558 38.0398555,10.8897325 C38.0398555,7.76780914 35.6246148,5.38183309 32.6399545,5.38183309 C29.6552942,5.38183309 27.2400535,7.76794368 27.2400535,10.8897325 C27.2505968,11.6097499 26.9711114,12.3034912 26.4648707,12.8185332 C25.9533651,13.3283281 25.2625558,13.6173791 24.540076,13.6173791 C23.8175963,13.6173791 23.1268004,13.3283281 22.6152813,12.8185332 C22.1090406,12.3035047 21.8295525,11.6097499 21.8400985,10.8897325 C21.8400985,4.9192761 26.6809748,0.000134542464 32.6399005,0.000134542464 Z" id="Combined-Shape"></path>
            </g>
        </g>
    </g>
</svg>