<svg width="100" height="100" viewBox="0 0 100 100" fill="none" xmlns="http://www.w3.org/2000/svg">
<circle cx="50" cy="50" r="50" fill="#747474"/>
<path d="M73.5361 16.0001C72.7205 16.0001 71.9986 16.5368 71.758 17.3228L68.3238 27.974L60.8305 30.5625C61.3117 29.4513 61.5805 28.2612 61.5805 27.0395C61.5805 21.5941 56.3933 20.3472 49.994 20.3472C43.5947 20.3472 38.4075 21.5973 38.4075 27.0395C38.4075 28.2643 38.6794 29.4513 39.1575 30.5625L31.6642 27.974L28.2331 17.3228H28.2362C27.9894 16.5178 27.2394 15.978 26.405 16.0033C25.8145 16.0191 25.2676 16.319 24.9301 16.8114C24.5926 17.3007 24.5082 17.9226 24.6989 18.4876L28.4173 30.0286C28.5986 30.5905 29.0329 31.0324 29.586 31.225L37.2824 33.8862C34.6732 34.7195 31.9452 36.0865 29.286 37.8574C23.6457 41.614 18.2995 47.1445 15.8932 53.5813C13.6059 59.6959 13.4496 64.4781 15.1089 68.1559C16.7713 71.8367 20.0804 74.0086 23.6556 75.3723C27.2307 76.736 31.1364 77.3137 34.7893 75.6627C36.4954 74.8925 38.0609 73.6676 39.4797 71.9662V71.9693C41.9108 79.514 45.8261 83.9903 49.9974 84C54.169 83.9874 58.0809 79.5079 60.5128 71.9661C61.9314 73.6708 63.497 74.8956 65.2062 75.669C68.8622 77.32 72.7682 76.7422 76.3431 75.3785C79.918 74.0148 83.2271 71.8398 84.8898 68.1622C86.5522 64.4814 86.3928 59.6986 84.1055 53.5875C81.6994 47.1509 76.3528 41.6199 70.7127 37.8637C68.0535 36.0927 65.3255 34.7259 62.7163 33.8924L70.4127 31.2312V31.2249C70.9658 31.0324 71.3971 30.5904 71.5783 30.0285L75.2968 18.4876C75.4905 17.913 75.3999 17.2785 75.0499 16.786C74.6999 16.2936 74.1375 16 73.5375 16L73.5361 16.0001ZM42.5476 37.4059C43.1225 37.4249 43.5975 37.507 43.9506 37.6427C44.8912 38.0026 45.2349 38.4697 45.5005 39.8051C45.7692 41.1404 45.6599 43.2302 45.1755 45.6767C44.2069 50.5697 41.8508 56.858 39.6821 62.6604C37.6322 68.1405 35.2824 70.6438 33.02 71.667C30.7546 72.6898 28.1859 72.4183 25.1924 71.2756C22.1957 70.1328 20.0895 68.6207 19.0615 66.3415C18.0334 64.0623 17.9084 60.6152 19.9552 55.1351C21.8832 49.977 26.6454 44.8727 31.676 41.5197C34.1915 39.8435 36.7664 38.5997 38.9787 37.9431C40.0849 37.6148 41.0942 37.4506 41.941 37.4128C42.1535 37.4033 42.3535 37.4001 42.5472 37.4064L42.5476 37.4059ZM57.453 37.4059C57.6437 37.3996 57.8468 37.4028 58.0593 37.4123C58.9061 37.4501 59.9154 37.6143 61.0216 37.9426C63.2339 38.5992 65.8088 39.843 68.3242 41.5192C73.3552 44.8717 78.1172 49.9763 80.0451 55.1346C82.095 60.6147 81.9699 64.0621 80.9388 66.341C79.9107 68.6202 77.8015 70.1323 74.8079 71.2751C71.8112 72.4178 69.2426 72.6893 66.9771 71.6665C64.7116 70.6437 62.3649 68.1404 60.315 62.6599C58.1464 56.8577 55.7935 50.5694 54.8216 45.6762C54.3373 43.2297 54.2279 41.1399 54.4966 39.8046C54.7654 38.4693 55.1091 38.0021 56.0465 37.6422C56.3996 37.5064 56.8746 37.4244 57.4496 37.4054L57.453 37.4059Z" fill="white"/>
</svg>
