<svg width="32" height="32" viewBox="0 0 32 32" fill="none" xmlns="http://www.w3.org/2000/svg">
<path fill-rule="evenodd" clip-rule="evenodd" d="M27.4192 4.552C26.6834 3.816 25.4678 3.816 24.7007 4.552L16.0019 13.2526L7.27038 4.552C6.53453 3.816 5.31895 3.816 4.55189 4.552C3.81604 5.28799 3.81604 6.50382 4.55189 7.27104L13.2834 15.9717L4.58451 24.7049C3.84866 25.4409 3.84866 26.6567 4.58451 27.4239C4.96804 27.8076 5.44777 28 5.92751 28C6.40724 28 6.91947 27.8076 7.27051 27.4239L16.002 18.6907L24.7335 27.4239C25.117 27.8076 25.5968 28 26.0765 28C26.5562 28 27.0685 27.8076 27.4195 27.4239C28.1553 26.688 28.1553 25.4721 27.4195 24.7049L18.7206 15.9717L27.4521 7.23841C28.188 6.50242 28.188 5.28783 27.4196 4.55187L27.4192 4.552Z" fill="#666665"/>
</svg>
