<svg width="24" height="24" viewBox="0 0 24 24" fill="none" xmlns="http://www.w3.org/2000/svg">
<path d="M16.4531 3.61328C15.4221 3.61328 14.4769 3.93999 13.6437 4.58436C12.8449 5.20212 12.3131 5.98895 12 6.5611C11.6869 5.98891 11.1551 5.20212 10.3563 4.58436C9.52313 3.93999 8.57788 3.61328 7.54688 3.61328C4.66971 3.61328 2.5 5.96665 2.5 9.08743C2.5 12.459 5.20687 14.7657 9.30471 18.2578C10.0006 18.8509 10.7893 19.5231 11.6092 20.24C11.7172 20.3346 11.856 20.3867 12 20.3867C12.144 20.3867 12.2828 20.3346 12.3908 20.24C13.2107 19.523 13.9995 18.8508 14.6957 18.2575C18.7931 14.7657 21.5 12.459 21.5 9.08743C21.5 5.96665 19.3303 3.61328 16.4531 3.61328Z" fill="#F05B7A"/>
</svg>
