<svg width="60" height="60" viewBox="0 0 60 60" fill="none" xmlns="http://www.w3.org/2000/svg">
<path fill-rule="evenodd" clip-rule="evenodd" d="M47.4628 5.0046L54.9944 12.5441C56.3346 13.8836 56.3349 16.1171 54.9969 17.4566L40.9926 31.4756L52.2615 42.8697C52.7649 43.4282 53.155 44.1002 53.2662 44.8812L54.3253 51.1926C54.4931 52.364 54.1008 53.5377 53.3206 54.3755C52.6516 55.1019 51.7036 55.4924 50.699 55.4924H50.6989C50.5311 55.4924 50.3089 55.4924 50.1411 55.4357L43.7822 54.3187C42.9998 54.262 42.3308 53.8715 41.7729 53.313L30.4471 41.9753L16.4428 55.9943C15.7738 56.664 14.9369 57 13.989 57C13.041 57 12.2041 56.664 11.5351 55.9943L4.00354 48.4548C2.66549 47.1131 2.66549 44.8792 4.00354 43.5397L18.0056 29.4643L8.1314 19.5797C6.73666 18.1835 5.95651 16.3423 5.95651 14.3309C5.95651 12.3217 6.73666 10.4783 8.1314 9.08207C11.0319 6.17841 15.7198 6.17841 18.6204 9.08207L28.4945 19.0214L42.5529 5.0046C43.8365 3.66513 46.1248 3.66513 47.4628 5.0046ZM14.2139 53.7606L52.7086 15.2254C52.8197 15.1119 52.8195 14.9461 52.6495 14.8327L45.1179 7.29319H44.7278L41.995 10.0289L46.2359 14.2742C46.8505 14.9462 46.8505 15.9496 46.2359 16.5649C45.957 16.8441 45.5102 17.0121 45.1201 17.0121C44.73 17.0121 44.3399 16.9008 44.0043 16.5649L39.5935 12.3195L35.7449 16.1721L38.4777 18.9078C39.0923 19.5798 39.0923 20.5833 38.4777 21.1985C38.1988 21.4777 37.752 21.6457 37.3619 21.6457C36.9718 21.6457 36.5817 21.5344 36.2461 21.1985L33.5133 18.4628L29.6648 22.3154L32.3976 25.0511C33.0121 25.7231 33.0121 26.7266 32.3976 27.3418C32.1186 27.621 31.6719 27.789 31.2818 27.789C30.8917 27.789 30.5016 27.6777 30.166 27.3418L27.4332 24.6061L23.5846 28.4587L27.8255 32.7041C28.4401 33.3761 28.4401 34.3795 27.8255 34.9948C27.5466 35.274 27.0998 35.442 26.7097 35.442C26.3196 35.442 25.9295 35.3307 25.5939 34.9948L21.1831 30.8083L17.3345 34.6609L20.0673 37.3966C20.6819 38.0686 20.6819 39.0721 20.0673 39.6873C19.7884 39.9665 19.3416 40.1345 18.9515 40.1345C18.5614 40.1345 18.1713 40.0232 17.8357 39.6873L15.1029 36.9516L11.2544 40.8042L13.9872 43.5399C14.6017 44.2119 14.6017 45.2154 13.9872 45.8306C13.7082 46.1098 13.2615 46.2778 12.8714 46.2778C12.4813 46.2778 12.0912 46.1665 11.7556 45.8306L9.02279 43.0949L6.29 45.8306C6.17886 45.9418 6.17886 46.1098 6.29 46.2211L13.8238 53.7606C13.935 53.8718 14.1028 53.8718 14.2139 53.7606Z" fill="url(#paint0_linear)"/>
<defs>
<linearGradient id="paint0_linear" x1="3" y1="30.5" x2="56" y2="30.5" gradientUnits="userSpaceOnUse">
<stop stop-color="#F16F78"/>
<stop offset="1" stop-color="#EF8721"/>
</linearGradient>
</defs>
</svg>
