<svg width="24" height="24" viewBox="0 0 24 24" fill="none" xmlns="http://www.w3.org/2000/svg">
<path d="M12.3985 2.01333C8.34835 1.76007 5 5.14948 5 9.33837C5 10.6647 5.34071 11.9278 5.94224 13.0008L11.176 21.5264C11.5567 22.1579 12.459 22.1579 12.8404 21.5264L18.0742 13.0008C18.6961 11.8849 19.0368 10.5585 18.9968 9.14828C18.895 5.35998 15.9876 2.20236 12.3988 2.01312L12.3985 2.01333ZM11.9975 12.917C10.113 12.917 8.56831 11.3168 8.56831 9.3169C8.56831 7.33846 10.0925 5.71679 11.9975 5.71679C13.8819 5.71679 15.4266 7.33754 15.4266 9.3169C15.4266 11.3175 13.882 12.917 11.9975 12.917Z" fill="#123456"/>
</svg>
