<svg width="24" height="24" viewBox="0 0 24 24" fill="none" xmlns="http://www.w3.org/2000/svg">
<path d="M2.5 19.2557V9.95894C2.5 7.08385 4.83953 4.74432 7.71462 4.74432H16.2841C19.1598 4.74432 21.5 7.08385 21.5 9.95894V11.5625C21.5 14.4376 19.1605 16.7771 16.2854 16.7771H7.83551L2.5 19.2557ZM7.71462 5.90689C5.48032 5.90689 3.66256 7.72464 3.66256 9.95894V17.4335L7.57932 15.6139H16.2854C18.5197 15.6139 20.3374 13.7961 20.3374 11.5618V9.95832C20.3374 7.72402 18.5191 5.90626 16.2841 5.90626H7.71462V5.90689ZM8.09796 9.87062C8.70868 9.87062 9.20352 10.3655 9.20352 10.9762C9.20352 11.5869 8.70868 12.0817 8.09796 12.0817C7.48724 12.0817 6.9924 11.5869 6.9924 10.9762C6.9924 10.3655 7.48724 9.87062 8.09796 9.87062ZM15.9014 9.87062C16.5121 9.87062 17.007 10.3655 17.007 10.9762C17.007 11.5869 16.5121 12.0817 15.9014 12.0817C15.2907 12.0817 14.7958 11.5869 14.7958 10.9762C14.7958 10.3655 15.2907 9.87062 15.9014 9.87062ZM11.9991 9.87062C12.6098 9.87062 13.1046 10.3655 13.1046 10.9762C13.1046 11.5869 12.6098 12.0817 11.9991 12.0817C11.3883 12.0817 10.8935 11.5869 10.8935 10.9762C10.8935 10.3655 11.3883 9.87062 11.9991 9.87062Z" fill="url(#paint0_linear)"/>
<defs>
<linearGradient id="paint0_linear" x1="12" y1="4.74432" x2="12" y2="19.2557" gradientUnits="userSpaceOnUse">
<stop stop-color="#F16F78"/>
<stop offset="1" stop-color="#EF8721"/>
</linearGradient>
</defs>
</svg>
