<svg width="24" height="24" viewBox="0 0 24 24" fill="none" xmlns="http://www.w3.org/2000/svg">
<path d="M12 2C6.47724 2 2 6.47724 2 12C2 17.5228 6.47724 22 12 22C17.5228 22 22 17.5228 22 12C22 6.47724 17.5228 2 12 2ZM12 5.44828C12.3812 5.44828 12.6897 5.75673 12.6897 6.13793V11.72L16.1486 15.1683C16.418 15.4377 16.418 15.8795 16.1486 16.1489C15.8792 16.4183 15.4374 16.4183 15.168 16.1489L11.5149 12.4851C11.3896 12.3598 11.3102 12.1901 11.3102 12.0002V6.13814C11.3102 5.75693 11.6186 5.44848 11.9998 5.44848L12 5.44828Z" fill="#123456"/>
</svg>
