<svg width="60" height="60" viewBox="0 0 60 60" fill="none" xmlns="http://www.w3.org/2000/svg">
<path fill-rule="evenodd" clip-rule="evenodd" d="M47.3209 22.0992L52.0112 29.2481H52.0114C52.7379 30.3651 52.7924 31.7612 52.1227 32.9349C51.453 34.1063 50.2793 34.8328 48.9399 34.8328H47.1532L47.1511 41.3663C47.1511 43.9361 45.0852 46.002 42.5153 46.002H37.5459L37.5524 52.8717C37.5524 53.7094 37.2165 54.5471 36.5467 55.1623C35.9883 55.7208 35.2051 56 34.4241 56H34.1449L18.1716 54.6038C16.5508 54.4904 15.3226 53.0942 15.3226 51.4755V40.8647C15.3226 40.5309 15.0979 40.3062 14.9866 40.195C9.96032 35.9495 7 29.5271 7 23.1048C7 11.9924 16.0466 3 27.1048 3C37.6045 3 46.204 10.8755 47.0984 21.3182C47.0984 21.5975 47.2097 21.8767 47.3209 22.0992ZM48.9396 31.7612C49.2188 31.7612 49.3846 31.5933 49.4413 31.482L49.4414 31.4816C49.4981 31.3703 49.6093 31.1456 49.4959 30.9231L44.7489 23.72C44.3585 22.9935 44.1359 22.3238 44.0792 21.5974C43.2985 12.773 35.9815 6.07145 27.103 6.07145C17.666 6.07145 10.0698 13.6677 10.072 23.1047C10.072 28.5782 12.7506 34.274 16.9959 37.904C17.8903 38.6305 18.392 39.7474 18.392 40.8643V51.4752L34.4194 52.9826L34.5307 45.3322C34.5307 43.9905 35.5931 42.9303 36.9326 42.9303H42.5172C43.3549 42.9303 44.0814 42.2606 44.0814 41.3662V33.8839C44.0814 32.7102 45.0303 31.7612 46.204 31.7612H48.9396ZM38.3829 22.6035H36.4283C35.7586 22.6035 35.2001 23.162 35.2001 23.8317C35.2001 24.5014 35.7586 25.0599 36.4283 25.0599H38.3829C39.0527 25.0599 39.6111 24.5014 39.6111 23.8317C39.6133 23.162 39.0548 22.6035 38.3829 22.6035ZM36.0382 15.1186C36.2629 15.3979 36.3742 15.6771 36.3742 16.0131H36.3742C36.3742 16.2698 36.2748 16.4942 36.1783 16.7122C36.1494 16.7776 36.1206 16.8425 36.0949 16.9075L34.7555 18.2469C34.4763 18.4716 34.197 18.5829 33.8611 18.5829C33.5251 18.5829 33.1892 18.4694 32.9666 18.2469C32.7419 17.9677 32.6307 17.6884 32.6307 17.3525C32.6307 17.0165 32.7441 16.6806 32.9666 16.458L34.3061 15.1186C34.7533 14.6169 35.5365 14.6169 36.0382 15.1186ZM27.2706 15.9019C27.9403 15.9019 28.4987 15.3434 28.4987 14.6737V12.7737C28.4987 12.1039 27.9403 11.5455 27.2706 11.5455C26.6009 11.5455 26.0424 12.1039 26.0424 12.7737V14.7283C26.0424 15.3435 26.6009 15.902 27.2706 15.902V15.9019ZM21.6861 16.4578C21.9108 16.737 22.0221 17.0163 22.0221 17.3522H22.0221C22.0221 17.6882 21.9087 18.022 21.7429 18.2467C21.4636 18.4714 21.1844 18.5826 20.8484 18.5826C20.5125 18.5826 20.1765 18.4692 19.954 18.2467L18.6146 16.9073C18.3899 16.628 18.2786 16.3488 18.2786 16.0128C18.2786 15.6768 18.3921 15.3409 18.6146 15.1184C19.0618 14.6166 19.845 14.6166 20.3467 15.1184L21.6861 16.4578ZM18.1128 22.6035H16.1582C15.4885 22.6035 14.93 23.162 14.93 23.8317C14.93 24.5014 15.4885 25.0599 16.1582 25.0599H18.1128C18.7825 25.0599 19.341 24.5014 19.341 23.8317C19.341 23.162 18.7825 22.6035 18.1128 22.6035ZM21.073 23.4412C21.3522 20.8169 23.4181 18.6375 26.0424 18.1358H26.0424C27.8858 17.7999 29.727 18.3016 31.1231 19.4207C32.576 20.5921 33.357 22.2675 33.357 24.1109C33.357 25.8976 32.576 27.573 31.2911 28.7466V31.5957C31.2911 32.8806 30.2309 33.9408 28.946 33.9408H25.5952C24.3103 33.9408 23.2501 32.8806 23.2501 31.5957V28.9146C21.6882 27.573 20.8505 25.5638 21.073 23.4412Z" fill="url(#paint0_linear)"/>
<defs>
<linearGradient id="paint0_linear" x1="7" y1="29.5" x2="52.5925" y2="29.5" gradientUnits="userSpaceOnUse">
<stop stop-color="#F16F78"/>
<stop offset="1" stop-color="#EF8721"/>
</linearGradient>
</defs>
</svg>
