<?xml version="1.0" encoding="UTF-8"?>
<svg width="200px" height="200px" viewBox="0 0 200 200" version="1.1" xmlns="http://www.w3.org/2000/svg" xmlns:xlink="http://www.w3.org/1999/xlink">
    <!-- Generator: Sketch 55 (78076) - https://sketchapp.com -->
    <title>img-busy-asto</title>
    <desc>Created with Sketch.</desc>
    <g id="img-busy-asto" stroke="none" stroke-width="1" fill="none" fill-rule="evenodd">
        <g id="people" transform="translate(4.000000, 1.000000)">
            <path d="M64.771461,56.2902235 L64.4968906,55.8318344 C41.0668435,68.1223453 27.5760481,89.112981 27.4418866,89.3242785 L20.8046713,85.1021105 C21.4006661,84.1633798 35.6740654,61.9620175 61.1045897,48.7214205 C65.8940725,47.0707594 70.950111,46.3307663 76.0117513,46.539634 L88.6913178,47.062854 C95.2518036,47.3335712 101.704242,48.8255897 107.717616,51.4623672 L108.305011,51.7199315 L108.302391,51.7224755 L108.308397,51.7224755 C111.426364,54.9753851 121.616691,63.6079762 127.382772,60.7459924 C132.252321,58.334294 135.990834,48.0956 136.91615,44.7002272 L144.499845,46.7735755 C144.039304,48.4636299 139.745432,63.4061533 130.869003,67.8055524 C130.233219,68.1193106 129.588122,68.3762532 128.938792,68.578076 C117.498339,72.1461414 104.3862,59.0003421 102.665149,57.2057301 L102.615492,57.2556677 L98.5269704,95.5154915 C102.23416,117.031674 96.2606661,138.88451 81.249046,158.710638 C70.0622906,173.48865 57.8951913,181.902458 57.3830082,182.253528 L52.9477568,175.763821 C52.4558918,175.043873 52.60997,174.066135 53.3050151,173.541226 C56.5626687,171.08204 65.6270392,163.770625 73.9023937,152.777215 C86.3664778,136.218446 91.7100778,118.930505 89.8187814,101.325962 L76.2620458,100.887148 C72.2691238,126.270337 57.7895303,139.024556 45.9609025,145.313162 C42.0479932,147.394142 38.1934981,148.903573 34.6818694,149.998335 C26.0839665,152.679696 19.5339493,152.876431 19.1529867,152.885759 L18.9261023,143.43994 L19.0395445,148.163273 L18.963352,145.274154 C18.9371079,144.265039 19.6931071,143.413652 20.6971552,143.320373 C29.0859519,142.541065 63.4623249,136.794202 67.5022218,94.9956704 L64.771461,56.2902235 Z" id="Combined-Shape" fill="#FFFFFE" transform="translate(81.712974, 113.476878) rotate(18.000000) translate(-81.712974, -113.476878) "></path>
            <path d="M32.777483,120.45932 C23.6326871,125.443836 14.754565,126.678517 11.2556351,126.979555 C10.3912733,127.054179 9.72585856,127.763951 9.6928418,128.63145 L9.00118301,146.636932 C8.94192216,148.170955 11.1269544,148.512697 11.5367008,147.032946 L14.5683167,136.092959 L14.5683167,136.092111 C17.3374916,135.710514 21.1632028,134.991414 25.5188753,133.632925 C29.030504,132.538164 32.8849991,131.028732 36.7979084,128.947752 C38.469911,128.059053 40.1952483,127.036371 41.9358242,125.872073 C40.9444748,124.125203 38.4936153,121.326819 32.777483,120.45932" id="Fill-883" fill="#123356" transform="translate(25.467912, 134.220607) rotate(18.000000) translate(-25.467912, -134.220607) "></path>
            <path d="M63.6002123,150.294348 C58.9245311,149.071539 54.2319183,149.713471 51.5270838,150.311308 C44.3463618,158.705613 37.3154851,164.298141 34.7588027,166.220546 C34.1568818,166.673375 33.9223781,167.459467 34.1729669,168.170087 L40.0169334,184.800121 C40.4105947,185.92117 42.0673588,185.621828 42.0470408,184.435483 L41.8404744,172.678877 C46.2748792,169.220753 55.2799888,161.528589 63.602752,150.301132 L63.6002123,150.294348" id="Fill-892" fill="#123356" transform="translate(48.838251, 167.549884) rotate(18.000000) translate(-48.838251, -167.549884) "></path>
            <path d="M41.3399293,67.0251434 L34.7145662,62.6910399 C32.1409521,65.9855013 30.7212314,68.1894408 30.5426023,68.4709752 C27.2561648,73.6971696 26.8345662,83.7798325 26.8193277,84.5184363 C26.8049358,85.2570401 27.4584983,85.3520156 27.7759672,84.6278277 C28.0942826,83.9036398 30.1870372,76.9704311 30.1870372,76.9704311 C30.1870372,76.9704311 29.3997145,84.6108678 29.370084,85.3002879 C29.339607,85.98886 30.2471446,86.1143633 30.4765688,85.280784 C30.7059929,84.4480527 32.1375658,78.8360205 32.7115495,77.1883658 C32.7115495,77.1883658 32.6277377,84.6922753 32.7090097,85.5640144 C32.7902817,86.4357535 34.0474584,86.2882023 33.9661863,85.4164632 C33.8849143,84.5447242 34.6155159,77.4648123 34.6155159,77.4648123 C34.6155159,77.4648123 36.3391601,82.7461264 36.6921855,83.5330659 C37.0452108,84.3200054 37.9290441,84.0172712 37.8130621,83.2099797 C37.6987733,82.4035363 36.3306943,76.1690756 36.8979053,74.4145735 C36.8979053,74.4145735 38.8865301,76.0520523 39.8736466,76.7592803 C40.58647,77.2706214 41.4719964,76.9034394 41.0571704,75.918069 C40.6431911,74.9352426 38.6833501,70.5511074 38.6748842,70.5332995 C39.3453784,69.6047448 40.2342912,68.4150075 41.3399293,67.0251434" id="Fill-905" fill="#123356" transform="translate(34.079512, 74.419872) rotate(18.000000) translate(-34.079512, -74.419872) "></path>
            <rect id="Rectangle" stroke="#123356" stroke-width="1.76" transform="translate(97.441917, 73.165675) rotate(18.000000) translate(-97.441917, -73.165675) " x="87.8342404" y="64.1199607" width="19.2153533" height="18.0914286" rx="4.4"></rect>
            <path d="M97.5069056,43.6907246 L114.018637,43.6907246 C115.841177,43.6907246 117.318637,45.1681849 117.318637,46.9907246 L117.318628,50.781509 C117.318628,52.418479 116.118599,53.8080207 114.49907,54.0463405 C110.250208,54.6715764 107.338109,54.9841944 105.762772,54.9841944 C104.187435,54.9841944 101.275337,54.6715766 97.0264765,54.0463409 L97.0264758,54.0463452 C95.4069401,53.8080245 94.2069056,52.4184771 94.2069056,50.7815004 L94.2069056,46.9907246 C94.2069056,45.1681849 95.684366,43.6907246 97.5069056,43.6907246 Z" id="Rectangle" fill="#E7E7E7" transform="translate(105.762772, 49.337459) rotate(18.000000) translate(-105.762772, -49.337459) "></path>
            <g id="Group" transform="translate(115.066066, 29.608571) rotate(18.000000) translate(-115.066066, -29.608571) translate(91.954334, 7.000000)">
                <path d="M44.0970262,15.8892249 C40.3935268,3.97076852 27.7498557,-2.68284304 15.8563237,1.02770092 C3.96207664,4.73896148 -2.67762059,17.4091291 1.02587881,29.3283021 C4.72866311,41.2467584 17.3730494,47.90037 29.2665813,44.1891094 C41.1608284,40.4785655 47.8005256,27.8083979 44.0970262,15.8892249" id="Fill-908" fill="#FFFFFF"></path>
                <ellipse id="Oval-Copy" stroke="#E7E7E7" stroke-width="1.65" cx="29.5087291" cy="23.16" rx="15.9581006" ry="18.7485714"></ellipse>
                <ellipse id="Oval" fill="#123356" cx="31.3659218" cy="23.16" rx="14.8575419" ry="16.5428571"></ellipse>
                <ellipse id="Oval" fill-opacity="0.256637893" fill="#FFFFFF" transform="translate(38.519553, 13.234286) rotate(51.000000) translate(-38.519553, -13.234286) " cx="38.5195531" cy="13.2342857" rx="3.30584131" ry="2.20294056"></ellipse>
            </g>
            <g id="Group-7" transform="translate(97.454821, 25.045944) rotate(18.000000) translate(-97.454821, -25.045944) translate(91.401749, 18.980230)">
                <g id="Group-6">
                    <ellipse id="Oval-Copy-2" fill="#055277" cx="6.05307263" cy="6.06571429" rx="6.05307263" ry="6.06571429"></ellipse>
                    <ellipse id="Oval" fill="#123356" cx="5.5027933" cy="6.06571429" rx="5.5027933" ry="6.06571429"></ellipse>
                </g>
                <ellipse id="Oval" fill="#FFFFFF" cx="3.85195531" cy="6.06571429" rx="2.75139665" ry="2.75714286"></ellipse>
            </g>
            <ellipse id="Oval" stroke="#E7E7E7" stroke-width="1.1" transform="translate(102.651096, 71.379402) rotate(18.000000) translate(-102.651096, -71.379402) " cx="102.651096" cy="71.3794019" rx="2.20111732" ry="2.20571429"></ellipse>
            <ellipse id="Oval" stroke="#E7E7E7" stroke-width="1.1" transform="translate(100.606286, 77.672679) rotate(18.000000) translate(-100.606286, -77.672679) " cx="100.606286" cy="77.6726787" rx="2.20111732" ry="2.20571429"></ellipse>
            <rect id="Rectangle" stroke="#E7E7E7" stroke-width="1.1" transform="translate(94.301837, 72.145401) rotate(18.000000) translate(-94.301837, -72.145401) " x="91.0001606" y="66.6311153" width="6.60335196" height="11.0285714" rx="1.65"></rect>
            <polygon id="Fill-148" fill="#BCDCE6" transform="translate(169.668127, 41.495911) rotate(-10.000000) translate(-169.668127, -41.495911) " points="149.668127 57.0013848 189.668127 57.0013848 189.668127 25.9904365 149.668127 25.9904365"></polygon>
            <path d="M169.560701,56.880868 C168.991507,55.6123638 168.470061,54.4573409 168.465632,54.4481136 C169.158251,53.4980909 170.076497,52.2808472 171.218619,50.8588497 L164.37463,46.4245427 C161.71609,49.7951713 160.249521,52.0500654 160.064998,52.3381088 C156.670113,57.6851317 156.234602,68.0009037 156.218861,68.7565838 C156.203994,69.512264 156.879123,69.6094353 157.207068,68.8685043 C157.535887,68.1275733 159.697699,61.0340703 159.697699,61.0340703 C159.697699,61.0340703 158.884396,68.8511523 158.853788,69.5565116 C158.822305,70.2610034 159.75979,70.3894083 159.996785,69.5365568 C160.23378,68.684573 161.712592,62.9427918 162.305517,61.2570437 C162.305517,61.2570437 162.218939,68.934442 162.302893,69.8263355 C162.386847,70.7182289 163.685508,70.5672664 163.601554,69.6753729 C163.517601,68.7834795 164.272311,61.5398815 164.272311,61.5398815 C164.272311,61.5398815 166.052833,66.9432984 166.417507,67.7484319 C166.782182,68.5535653 167.69518,68.2438318 167.575371,67.417876 C167.457311,66.5927878 165.973224,59.5442647 166.559152,57.7491989" id="Path" fill="#123356" transform="translate(163.718619, 58.424543) scale(-1, -1) rotate(6.000000) translate(-163.718619, -58.424543) "></path>
        </g>
    </g>
</svg>