<?xml version="1.0" encoding="UTF-8"?>
<svg width="1036px" height="620px" viewBox="0 0 1036 620" version="1.1" xmlns="http://www.w3.org/2000/svg" xmlns:xlink="http://www.w3.org/1999/xlink">
    <!-- Generator: Sketch 54.1 (76490) - https://sketchapp.com -->
    <title>work-process</title>
    <desc>Created with Sketch.</desc>
    <defs>
        <linearGradient x1="100%" y1="50%" x2="0%" y2="50%" id="linearGradient-1">
            <stop stop-color="#F58B1E" offset="0%"></stop>
            <stop stop-color="#F58B1E" offset="23.54416%"></stop>
            <stop stop-color="#ED2755" offset="100%"></stop>
        </linearGradient>
    </defs>
    <g id="work-process" stroke="none" stroke-width="1" fill="none" fill-rule="evenodd">
        <rect fill="#FFFFFF" x="0" y="0" width="1036" height="620"></rect>
        <g id="Group" transform="translate(513.612805, 306.645737) rotate(7.000000) translate(-513.612805, -306.645737) translate(228.112805, 21.145737)" fill="#113455" fill-rule="nonzero">
            <path d="M234.485398,16.5729374 C107.792235,29.3552533 10.3,136.381877 10.3,264.85 C10.3,266.120255 9.27025492,267.15 8,267.15 C6.72974508,267.15 5.7,266.120255 5.7,264.85 C5.7,133.926946 105.118664,24.8715017 234.277496,11.970685 L233.839449,2.27380868 C233.828166,2.02402882 233.875192,1.77505217 233.976805,1.54659612 C234.338292,0.733863227 235.290186,0.368056258 236.102918,0.729543381 L260.393719,11.5335993 C260.712126,11.6752202 260.97601,11.9162934 261.145763,12.2206341 C261.579057,12.9974636 261.300566,13.9784625 260.523737,14.4117565 L237.306012,27.3619633 C237.087648,27.4837606 236.843926,27.5530444 236.594146,27.564328 C235.705553,27.6044693 234.952666,26.9166638 234.912525,26.0280714 L234.485398,16.5729374 Z" id="Path"></path>
            <path d="M538.085398,320.172937 C411.392235,332.955253 313.9,439.981877 313.9,568.45 C313.9,569.720255 312.870255,570.75 311.6,570.75 C310.329745,570.75 309.3,569.720255 309.3,568.45 C309.3,437.526946 408.718664,328.471502 537.877496,315.570685 L537.439449,305.873809 C537.428166,305.624029 537.475192,305.375052 537.576805,305.146596 C537.938292,304.333863 538.890186,303.968056 539.702918,304.329543 L563.993719,315.133599 C564.312126,315.27522 564.57601,315.516293 564.745763,315.820634 C565.179057,316.597464 564.900566,317.578462 564.123737,318.011756 L540.906012,330.961963 C540.687648,331.083761 540.443926,331.153044 540.194146,331.164328 C539.305553,331.204469 538.552666,330.516664 538.512525,329.628071 L538.085398,320.172937 L538.085398,320.172937 Z" id="Path-Copy-2" transform="translate(437.125030, 437.470073) rotate(-180.000000) translate(-437.125030, -437.470073) "></path>
            <path d="M538.085398,16.5729374 C411.392235,29.3552533 313.9,136.381877 313.9,264.85 C313.9,266.120255 312.870255,267.15 311.6,267.15 C310.329745,267.15 309.3,266.120255 309.3,264.85 C309.3,133.926946 408.718664,24.8715017 537.877496,11.970685 L537.439449,2.27380868 C537.428166,2.02402882 537.475192,1.77505217 537.576805,1.54659612 C537.938292,0.733863227 538.890186,0.368056258 539.702918,0.729543381 L563.993719,11.5335993 C564.312126,11.6752202 564.57601,11.9162934 564.745763,12.2206341 C565.179057,12.9974636 564.900566,13.9784625 564.123737,14.4117565 L540.906012,27.3619633 C540.687648,27.4837606 540.443926,27.5530444 540.194146,27.564328 C539.305553,27.6044693 538.552666,26.9166638 538.512525,26.0280714 L538.085398,16.5729374 Z" id="Path-Copy" transform="translate(437.125030, 133.870073) rotate(-270.000000) translate(-437.125030, -133.870073) "></path>
            <path d="M234.485398,320.172937 C107.792235,332.955253 10.3,439.981877 10.3,568.45 C10.3,569.720255 9.27025492,570.75 8,570.75 C6.72974508,570.75 5.7,569.720255 5.7,568.45 C5.7,437.526946 105.118664,328.471502 234.277496,315.570685 L233.839449,305.873809 C233.828166,305.624029 233.875192,305.375052 233.976805,305.146596 C234.338292,304.333863 235.290186,303.968056 236.102918,304.329543 L260.393719,315.133599 C260.712126,315.27522 260.97601,315.516293 261.145763,315.820634 C261.579057,316.597464 261.300566,317.578462 260.523737,318.011756 L237.306012,330.961963 C237.087648,331.083761 236.843926,331.153044 236.594146,331.164328 C235.705553,331.204469 234.952666,330.516664 234.912525,329.628071 L234.485398,320.172937 L234.485398,320.172937 Z" id="Path-Copy-3" transform="translate(133.525030, 437.470073) rotate(-90.000000) translate(-133.525030, -437.470073) "></path>
        </g>
        <circle id="Oval" stroke="#113455" stroke-width="2.3" fill="#FFFFFF" fill-rule="nonzero" cx="310.5" cy="106.5" r="72.5"></circle>
        <circle id="Oval-Copy-2" stroke="#113455" stroke-width="2.3" fill="#FFFFFF" fill-rule="nonzero" cx="310.5" cy="506.5" r="72.5"></circle>
        <circle id="Oval-Copy" stroke="#113455" stroke-width="2.3" fill="#FFFFFF" fill-rule="nonzero" cx="717.5" cy="106.5" r="72.5"></circle>
        <circle id="Oval-Copy-3" stroke="#113455" stroke-width="2.3" fill="#FFFFFF" fill-rule="nonzero" cx="717.5" cy="506.5" r="72.5"></circle>
        <path d="M334.148939,65 L334.150043,65.0004647 C339.148685,65.0004647 343.944649,66.9509504 347.479074,70.4212951 C351.013498,73.891093 353,78.6003779 353,83.5086659 L353,117.678157 C353,118.055471 352.847778,118.418524 352.575871,118.685474 C352.303963,118.952424 351.934207,119.101914 351.549954,119.101914 L335.599291,119.101914 C335.215011,119.101914 334.845254,118.952452 334.573374,118.685474 C334.301495,118.418496 334.149245,118.055443 334.149245,117.678157 L334.149245,111.983242 L319.649064,111.983242 C319.264784,111.983242 318.895027,111.83378 318.623148,111.566803 C318.351268,111.299825 318.199019,110.936772 318.199019,110.559486 L318.199019,102.017113 L310.948928,102.017113 C310.474092,102.017113 310.031839,101.789317 309.75996,101.404905 C309.491709,101.027583 309.426451,100.543524 309.585958,100.109289 L315.298982,84.6756133 L315.298982,83.5082012 C315.298982,78.6001866 317.285484,73.8911751 320.819909,70.4208304 C324.353777,66.9504857 329.150019,65 334.148939,65 Z M350.099602,116.254237 L350.100604,83.5081921 C350.100604,77.9126873 347.059139,72.7409753 342.125458,69.9433596 C337.19123,67.1492975 331.108485,67.1492975 326.174805,69.9433596 C321.241031,72.7416131 318.199659,77.9129607 318.199659,83.5081921 L318.199659,84.9319209 C318.199659,85.095652 318.170659,85.259374 318.112658,85.4159887 L313.023071,99.1694369 L319.649631,99.1694369 C320.033911,99.1694369 320.403668,99.3188988 320.675547,99.5858764 C320.947427,99.852854 321.099676,100.215907 321.099676,100.593193 L321.099676,109.135566 L335.599857,109.135566 C335.984138,109.135566 336.353895,109.285028 336.625774,109.552005 C336.897654,109.818983 337.049903,110.182036 337.049903,110.559322 L337.049903,116.254237 L350.099602,116.254237 Z M323.578887,83.3517505 L323.578516,83.3517505 C325.717304,85.4482083 329.182871,85.4482083 331.321659,83.3517505 L333.380731,85.373491 C330.103922,88.5839653 324.79681,88.5839653 321.519815,85.373491 L323.578887,83.3517505 Z M267.448571,149 L267.450046,148.999535 C267.065766,148.999535 266.696009,148.850073 266.424129,148.583096 C266.15225,148.316118 266,147.953065 266,147.575779 L266,113.406288 C266,106.792896 269.592334,100.685123 275.424886,97.3785181 C281.257439,94.0719137 288.442198,94.0718225 294.274657,97.3785181 C300.107117,100.685214 303.699543,106.793079 303.699543,113.406288 L303.699543,114.5737 L309.412568,130.007376 C309.572074,130.441638 309.506817,130.925706 309.238566,131.302992 C308.966733,131.687403 308.524479,131.9152 308.049597,131.9152 L300.799507,131.9152 L300.799507,140.457572 C300.799507,140.834886 300.647285,141.197939 300.375378,141.464889 C300.10347,141.731839 299.733713,141.881329 299.349461,141.881329 L284.84928,141.881329 L284.84928,147.576244 C284.84928,147.953557 284.697058,148.31661 284.425151,148.58356 C284.153244,148.850511 283.783487,149 283.399234,149 L267.448571,149 Z M268.898589,113.407235 L268.899655,146.153226 L281.949355,146.153226 L281.949355,140.458311 C281.949355,139.671701 282.59824,139.034582 283.399373,139.034582 L297.899554,139.034582 L297.899554,130.492209 C297.899554,129.7056 298.548438,129.06848 299.349572,129.06848 L305.976132,129.06848 L300.886545,115.315032 C300.828544,115.158426 300.799544,114.994695 300.799544,114.830964 L300.799544,113.407235 C300.799544,107.81173 297.758079,102.640018 292.824398,99.8424027 C287.890161,97.0483406 281.807416,97.0483406 276.873735,99.8424027 C271.939962,102.640656 268.898589,107.812004 268.898589,113.407235 Z M297.478562,115.271523 L297.478191,115.271523 C294.201382,118.481997 288.894269,118.481997 285.617275,115.271523 L287.676347,113.249782 C289.815135,115.34624 293.280701,115.34624 295.41949,113.249782 L297.478562,115.271523 Z M289.198843,79.2368325 C286.795478,79.2368325 284.848788,81.1482283 284.848788,83.508019 L284.848788,87.1954994 L286.719288,85.3446975 L288.77836,87.366438 L284.428306,91.6376244 C284.156408,91.9081374 283.78667,92.0576267 283.39877,92.0576267 C283.010871,92.0576267 282.641114,91.9081374 282.369234,91.6376244 L278.01918,87.366438 L280.078252,85.3446975 L281.948752,87.1954994 L281.948752,83.508019 C281.948752,79.5749738 285.193173,76.3893749 289.198843,76.3893749 L306.599059,76.3893749 L306.599059,79.2368325 L289.198843,79.2368325 Z M309.499096,79.2377437 L309.499096,76.3902861 L312.399132,76.3902861 L312.399132,79.2377437 L309.499096,79.2377437 Z M338.499457,137.610169 C340.902822,137.610169 342.849512,135.698774 342.849512,133.338983 L342.849512,126.804045 L340.979011,128.654847 L338.919939,126.633106 L343.269994,122.36192 C343.541892,122.091407 343.91163,121.941918 344.29953,121.941918 C344.687429,121.941918 345.057186,122.091407 345.329066,122.36192 L349.67912,126.633106 L347.620048,128.654847 L345.749548,126.804045 L345.749548,133.338983 C345.749548,135.225412 344.984588,137.037124 343.625236,138.37183 C342.265885,139.706609 340.42072,140.457627 338.499457,140.457627 L309.499096,140.457627 L309.499096,137.610169 L338.499457,137.610169 Z M303.699023,140.457627 L303.699023,137.610169 L306.599059,137.610169 L306.599059,140.457627 L303.699023,140.457627 Z" id="Combined-Shape" fill="#113455"></path>
        <g id="Group-5" transform="translate(673.000000, 455.000000)" fill="#113455">
            <path d="M38.1055111,91.93392 L28.6198667,91.93392 L28.6198667,95.2651471 L38.1055111,95.2651471 L38.1055111,98.5963711 C38.1055111,101.358818 40.3493956,103.593259 43.1237533,103.593259 L50.8958822,103.593259 C53.6701356,103.593259 55.9141244,101.358922 55.9141244,98.5963711 L55.9141244,95.2651471 L65.3997689,95.2651471 L65.3997689,91.93392 L38.1055111,91.93392 Z M52.5689778,98.5963711 C52.5689778,99.5104375 51.8141996,100.262035 50.8961956,100.262035 L43.1240667,100.262035 C42.206094,100.262035 41.4512844,99.5104687 41.4512844,98.5963711 L41.4512844,95.2651471 L52.5693956,95.2651471 L52.5689778,98.5963711 Z" id="Fill-1"></path>
            <path d="M27.5190222,51.24808 L30.7217067,51.24808 C33.7816156,51.24808 36.2906844,53.705912 36.2906844,56.732416 L36.2906844,58.641752 L32.53716,58.641752 L32.53716,61.972976 L38.6365067,61.972976 L38.6365067,73.632416 L55.3643289,73.632416 L55.3643289,61.972976 L61.4636756,61.972976 L61.4636756,58.641752 L57.7101511,58.641752 L57.7101511,56.732416 C57.7101511,53.705808 60.1988533,51.24808 63.2791289,51.24808 L66.4818133,51.24808 L47.0008356,23.4 L27.5190222,51.24808 Z M52.0185556,70.30088 L41.9820711,70.30088 L41.9820711,62.17588 L52.0185556,62.17588 L52.0185556,70.30088 Z M47.0003133,44.1792 C48.0815222,44.1792 48.93828,45.0526336 48.93828,46.10892 C48.93828,47.185528 48.0611138,48.03864 47.0003133,48.03864 C45.9191044,48.03864 45.0623467,47.1652064 45.0623467,46.10892 C45.0623467,45.052696 45.9191149,44.1792 47.0003133,44.1792 Z M54.3644822,56.732 L54.3644822,58.641336 L39.6357267,58.641336 L39.6357267,56.732 C39.6357267,52.85228 37.1061867,49.56172 33.5975844,48.383608 L45.3266956,31.626088 L45.3266956,41.152696 C43.2255867,41.8636296 41.7160511,43.81364 41.7160511,46.129304 C41.7160511,49.034024 44.0823444,51.390248 46.9994778,51.390248 C49.9166111,51.390248 52.2829044,49.034024 52.2829044,46.129304 C52.2829044,43.81364 50.7530022,41.86364 48.67226,41.152696 L48.67226,31.626088 L60.4013711,48.383608 C56.8926644,49.582 54.3632289,52.872664 54.3632289,56.732 L54.3644822,56.732 Z" id="Fill-2"></path>
            <polygon id="Fill-3" points="85.4522667 48.668984 93.8159689 48.668984 93.8159689 45.33776 85.4522667 45.33776"></polygon>
            <polygon id="Fill-4" points="0.20398 48.668984 8.56768222 48.668984 8.56768222 45.33776 0.20398 45.33776"></polygon>
            <polygon id="Fill-5" points="45.3268 8.7343568 48.67226 8.7343568 48.67226 0.4062448 45.3268 0.4062448"></polygon>
            <polygon id="Fill-6" points="79.0477333 17.44808 76.68144 15.091856 82.5972778 9.201192 84.9635711 11.557416"></polygon>
            <polygon id="Fill-7" points="15.087 81.12416 12.7207067 78.767936 18.6365444 72.877272 21.0028378 75.233496"></polygon>
            <polygon id="Fill-8" points="11.6069111 9.408776 17.5227489 15.29944 15.1564556 17.655664 9.24061778 11.765"></polygon>
            <polygon id="Fill-9" points="78.9088222 81.12416 72.9970578 75.233496 75.3633511 72.877272 81.2751156 78.767936"></polygon>
            <path d="M77.5990889,42.6764 C77.5990889,34.023288 73.8864022,25.73584 67.3994622,19.96696 C60.8308467,14.11696 52.3239511,11.435736 43.4910844,12.410736 C29.5790844,13.954512 18.2771511,25.126816 16.62484,38.958816 C15.6252753,47.368152 18.0324378,55.574896 23.3974356,62.054096 C28.8236378,68.59476 31.8427089,76.841856 31.9447511,85.291856 L28.6196578,85.291856 L28.6196578,88.62308 L65.3997689,88.62308 L65.3997689,85.291856 L62.0746756,85.291856 C62.1766656,76.943464 65.2161556,68.777696 70.94838,61.648496 C75.2934778,56.20472 77.5985667,49.643776 77.5985667,42.676816 L77.5990889,42.6764 Z M58.7092667,85.29248 L35.2907333,85.29248 C35.1887329,76.070592 31.8840689,67.07168 25.9682311,59.92168 C21.1948067,54.152904 19.05286,46.86032 19.9504556,39.34528 C21.4191533,27.01608 31.4759,17.08304 43.8588333,15.70192 C51.7533711,14.8284864 59.3009444,17.225312 65.1561,22.425312 C70.9290578,27.564368 74.2541511,34.937552 74.2541511,42.656432 C74.2541511,48.872096 72.1937756,54.701712 68.3179467,59.556432 C62.1165578,67.295488 58.8118311,76.172512 58.7098933,85.292272 L58.7092667,85.29248 Z" id="Fill-10"></path>
        </g>
        <g id="Group-3" transform="translate(675.000000, 60.000000)" fill="#113455">
            <path d="M1.56183511,68.0839787 L5.90026596,68.0839787 L5.90026596,85.4376984 C5.90026596,85.8209242 6.05210872,86.1896931 6.32326181,86.460874 C6.59441489,86.7320548 6.96318383,86.8838698 7.34643734,86.8838698 L21.8078735,86.8838698 C22.1910993,86.8838698 22.5598682,86.732027 22.831049,86.460874 C23.1022299,86.1897209 23.2540449,85.8209519 23.2540449,85.4376984 L23.2540449,68.0839787 L27.5924757,68.0839787 C27.9757015,68.0839787 28.3444704,67.932136 28.6156513,67.6609829 C28.8868321,67.3898298 29.0386471,67.0210609 29.0386471,66.6378073 L29.0386471,55.8424031 C29.0314187,50.9002478 25.220828,46.800419 20.2967205,46.4278924 C21.2692695,45.1769435 21.8007099,43.640468 21.807929,42.0532733 C21.807929,38.0583073 18.5721769,34.8225552 14.577211,34.8225552 C10.582245,34.8225552 7.34649287,38.0583073 7.34649287,42.0532733 C7.35372128,43.6403754 7.88518021,45.1769435 8.85770138,46.4278924 C3.93359394,46.800271 0.122993936,50.9000627 0.115774787,55.8424031 L0.115774787,66.6378073 C0.115774787,67.0210331 0.267617553,67.389802 0.538770638,67.6609829 C0.809923723,67.9321637 1.17869266,68.0839787 1.56194617,68.0839787 L1.56183511,68.0839787 Z M14.5766649,37.7154255 C16.3300851,37.7154255 17.9136702,38.7710872 18.5860691,40.3943777 C19.254914,42.0140585 18.8861451,43.8795606 17.6460989,45.1232904 C16.4023691,46.3633181 14.536867,46.7321426 12.9171862,46.0632606 C11.2938957,45.3908062 10.238234,43.8072766 10.238234,42.0538564 C10.238234,39.6569138 12.1797223,37.7154255 14.5766649,37.7154255 Z M3.00751596,55.8428936 C3.01113109,52.2202691 5.94321064,49.2882766 9.56574255,49.284667 L19.5911043,49.284667 L19.5874854,49.284667 C23.2101099,49.2882766 26.1421024,52.2203617 26.145712,55.8428936 L26.145712,65.192617 L23.2534248,65.192617 L23.2534248,53.6234681 L20.3611376,53.6234681 L20.3611376,83.9920185 L16.0227067,83.9920185 L16.0227067,68.0839787 L13.1304195,68.0839787 L13.1304195,83.9920185 L8.79198862,83.9920185 L8.79198862,53.6234681 L5.89970416,53.6234681 L5.89970416,65.192617 L3.00741693,65.192617 L3.00751596,55.8428936 Z" id="Fill-1"></path>
            <path d="M85.9337872,5.98708085 L70.0257447,0.202506383 C69.5810544,0.039816383 69.0857745,0.104890532 68.7025117,0.376043617 C68.3156671,0.647196702 68.0842841,1.08826819 68.0842841,1.56183511 L68.0842841,27.5924202 L59.4074224,27.5924202 C58.6084293,27.5924202 57.9612788,28.2395706 57.9612788,29.0385638 L57.9612788,42.0533936 C57.9612788,42.4366194 58.1131216,42.8053883 58.3842747,43.0765691 C58.6554278,43.34775 59.0241967,43.499565 59.4074502,43.499565 L79.6534609,43.499565 C80.0366866,43.499565 80.4054555,43.3477222 80.6766364,43.0765691 C80.9478172,42.8054161 81.0996322,42.4366471 81.0996322,42.0533936 L81.0996322,29.0385638 C81.0996322,28.6553381 80.9477895,28.2865691 80.6766364,28.0153883 C80.4054833,27.7442074 80.0367144,27.5923924 79.6534609,27.5923924 L70.9765991,27.5923924 L70.9765991,14.1434882 L85.9331949,8.70598819 C86.5044239,8.49990926 86.8839938,7.95399351 86.8839938,7.34656691 C86.8839938,6.73914032 86.5043777,6.1932616 85.9331949,5.98714564 L85.9337872,5.98708085 Z M78.2077245,30.4849851 L78.2077245,40.6084532 L60.8540011,40.6084532 L60.8540011,30.4849851 L68.0847191,30.4849851 L68.0847191,36.2695596 L70.9770064,36.2695596 L70.9770064,30.4849851 L78.2077245,30.4849851 Z M70.9770064,11.0673255 L70.9770064,3.62688191 L81.2087617,7.34705745 L70.9770064,11.0673255 Z" id="Fill-2"></path>
            <path d="M55.0691489,76.761766 L30.4851702,76.761766 L30.4851702,79.6540532 L55.0691489,79.6540532 C60.7524702,79.6540532 66.005234,76.6208074 68.8475426,71.700217 C71.6855936,66.7797191 71.6855936,60.7132277 68.8475426,55.7921745 C66.0058819,50.8716766 60.7527479,47.8383383 55.0691489,47.8383383 L39.1611064,47.8383383 C35.9651521,47.8383383 33.3765319,45.2497181 33.3765319,42.0537638 C33.3765319,38.8578096 35.9651521,36.2691894 39.1611064,36.2691894 L49.6279468,36.2691894 L44.0205191,40.943866 L45.871583,43.1636617 L54.5484447,35.9329436 C54.8774435,35.6581717 55.0690564,35.2532515 55.0690564,34.8230457 C55.0690564,34.39284 54.8774435,33.9879013 54.5484447,33.7131479 L45.871583,26.4824298 L44.0205191,28.7022255 L49.6279468,33.3769021 L39.1611064,33.3769021 C34.3707383,33.3769021 30.4842447,37.2633957 30.4842447,42.0537638 C30.4842447,46.8441319 34.3707383,50.7306255 39.1611064,50.7306255 L55.0691489,50.7306255 C62.2564596,50.7306255 68.0839787,56.5586074 68.0839787,63.7454553 C68.0839787,70.9323124 62.2559968,76.7602851 55.0691489,76.7602851 L55.0691489,76.761766 Z" id="Fill-3"></path>
        </g>
        <g id="Group-4" transform="translate(268.000000, 469.000000)" fill="#113455">
            <path d="M7.52882474,78.2074468 L46.0597526,78.2074468 L46.0597526,75.3151596 L7.52882474,75.3151596 C5.07251959,75.3151596 3.08294845,73.3736713 3.08294845,70.9767287 L3.08294845,7.34640957 C3.08294845,4.94946702 5.07251959,3.00797872 7.52882474,3.00797872 L72.7350103,3.00797872 C75.1913155,3.00797872 77.1808866,4.94946702 77.1808866,7.34640957 L77.1808866,40.6081755 L80.1448041,40.6081755 L80.1448041,7.34640957 C80.1410957,3.35505319 76.8252165,0.119301064 72.7350103,0.115691489 L7.52882474,0.115691489 C3.43861856,0.119310319 0.122729897,3.35505319 0.119030928,7.34640957 L0.119030928,70.9767287 C0.122735588,74.9680851 3.43861856,78.2038372 7.52882474,78.2074468 Z" id="Fill-1"></path>
            <polygon id="Fill-2" points="6.04639175 8.79255319 9.01030928 8.79255319 9.01030928 5.90026596 6.04639175 5.90026596"></polygon>
            <polygon id="Fill-3" points="11.9742268 8.79255319 14.9381443 8.79255319 14.9381443 5.90026596 11.9742268 5.90026596"></polygon>
            <polygon id="Fill-4" points="17.9020619 8.79255319 20.8659794 8.79255319 20.8659794 5.90026596 17.9020619 5.90026596"></polygon>
            <polygon id="Fill-5" points="6.04639175 14.5771277 74.2164948 14.5771277 74.2164948 11.6848404 6.04639175 11.6848404"></polygon>
            <path d="M21.2994227,17.892383 L17.5352,21.565634 C14.3526639,19.5120638 10.0920206,20.1411479 7.67981856,23.026216 C5.26420301,25.9076745 5.4791226,30.1086638 8.17997608,32.7405989 C10.8771885,35.3762362 15.1822194,35.5858691 18.1349452,33.2286689 C21.0914647,30.8750413 21.7361287,26.7173668 19.6316998,23.6114668 L23.3959225,19.9382157 L21.2994227,17.892383 Z M13.4561856,31.9308511 C10.9998804,31.9308511 9.01030928,29.9893628 9.01030928,27.5924202 C9.01030928,25.1954777 10.9998804,23.2539894 13.4561856,23.2539894 C14.1156548,23.2576082 14.7677072,23.4058321 15.3604907,23.6878324 L12.4076701,26.569291 L14.5046062,28.6155495 L17.4574268,25.734091 C17.7464111,26.3125484 17.898306,26.9488516 17.9020144,27.5923739 C17.9020144,29.9893165 15.9124433,31.9308048 13.4561381,31.9308048 L13.4561856,31.9308511 Z" id="Fill-6"></path>
            <polygon id="Fill-7" points="25.3123299 26.1462766 50.5051546 26.1462766 50.5051546 23.2539894 25.3123299 23.2539894"></polygon>
            <polygon id="Fill-8" points="25.3123299 31.9308511 35.6865155 31.9308511 35.6865155 29.0385638 25.3123299 29.0385638"></polygon>
            <polygon id="Fill-9" points="38.6494845 31.9308511 59.3969072 31.9308511 59.3969072 29.0385638 38.6494845 29.0385638"></polygon>
            <polygon id="Fill-10" points="53.4690722 26.1462766 68.2886598 26.1462766 68.2886598 23.2539894 53.4690722 23.2539894"></polygon>
            <path d="M21.2994227,35.2461064 L17.5352,38.9193574 C14.3526639,36.8657872 10.0920206,37.4948713 7.67981856,40.3799394 C5.26420301,43.2613979 5.4791226,47.4623872 8.17997608,50.0943223 C10.8771885,52.7299596 15.1822194,52.9395926 18.1349452,50.5823923 C21.0914647,48.2287647 21.7361287,44.0710902 19.6316998,40.9651902 L23.3959225,37.2919391 L21.2994227,35.2461064 Z M13.4561856,49.2845745 C10.9998804,49.2845745 9.01030928,47.3430862 9.01030928,44.9461436 C9.01030928,42.5492011 10.9998804,40.6077128 13.4561856,40.6077128 C14.1156548,40.6113316 14.7677072,40.7595555 15.3604907,41.0415559 L12.4076701,43.9230144 L14.5046062,45.9692729 L17.4574268,43.0878144 C17.7464111,43.6662718 17.898306,44.302575 17.9020144,44.9460973 C17.9020144,47.3430399 15.9124433,49.2845282 13.4561381,49.2845282 L13.4561856,49.2845745 Z" id="Fill-11"></path>
            <polygon id="Fill-12" points="25.3123299 43.5 50.5051546 43.5 50.5051546 40.6077128 25.3123299 40.6077128"></polygon>
            <polygon id="Fill-13" points="25.3123299 49.2845745 35.6865155 49.2845745 35.6865155 46.3922872 25.3123299 46.3922872"></polygon>
            <polygon id="Fill-14" points="38.6494845 49.2845745 50.5051546 49.2845745 50.5051546 46.3922872 38.6494845 46.3922872"></polygon>
            <polygon id="Fill-15" points="53.4690722 43.5 59.3969072 43.5 59.3969072 40.6077128 53.4690722 40.6077128"></polygon>
            <path d="M21.2994227,52.5998298 L17.5352,56.2730809 C14.3526639,54.2195106 10.0920206,54.8485947 7.67981856,57.7336628 C5.26420301,60.6151213 5.4791226,64.8161106 8.17997608,67.4480457 C10.8771885,70.083683 15.1822194,70.293316 18.1349452,67.9361157 C21.0914647,65.5824881 21.7361287,61.4248136 19.6316998,58.3189136 L23.3959225,54.6456626 L21.2994227,52.5998298 Z M13.4561856,66.6382979 C10.9998804,66.6382979 9.01030928,64.6968096 9.01030928,62.299867 C9.01030928,59.9029245 10.9998804,57.9614362 13.4561856,57.9614362 C14.1156548,57.965055 14.7677072,58.1132789 15.3604907,58.3952793 L12.4076701,61.2767378 L14.5046062,63.3229963 L17.4574268,60.4415378 C17.7464111,61.0199952 17.898306,61.6562984 17.9020144,62.2998207 C17.9020144,64.6967633 15.9124433,66.6382516 13.4561381,66.6382516 L13.4561856,66.6382979 Z" id="Fill-16"></path>
            <polygon id="Fill-17" points="25.3123299 60.8537234 44.5773196 60.8537234 44.5773196 57.9614362 25.3123299 57.9614362"></polygon>
            <polygon id="Fill-18" points="25.3123299 66.6382979 35.6865155 66.6382979 35.6865155 63.7460106 25.3123299 63.7460106"></polygon>
            <polygon id="Fill-19" points="38.6494845 66.6382979 44.5773196 66.6382979 44.5773196 63.7460106 38.6494845 63.7460106"></polygon>
            <path d="M69.7701443,86.8843085 C75.6645938,86.8843085 81.3185155,84.5993553 85.4898144,80.5321053 C89.6577938,76.4612457 91.9993361,70.9445202 91.9993361,65.1923394 C91.9993361,59.4401585 89.6577938,53.9230628 85.4898144,49.8525734 C81.3181361,45.7853234 75.6647835,43.5003702 69.7701443,43.5003702 C63.8755052,43.5003702 58.2217732,45.7853234 54.0504742,49.8525734 C49.8824948,53.923433 47.5409526,59.4401585 47.5409526,65.1923394 C47.54836,70.9443351 49.8935918,76.4579138 54.0578722,80.524702 C58.2258515,84.5883424 63.8762639,86.8769052 69.7699546,86.8841243 L69.7701443,86.8843085 Z M69.7701443,46.3922872 C74.8791794,46.3922872 79.7810722,48.3734809 83.3927835,51.8984617 C87.0050639,55.4234426 89.0353237,60.2065915 89.0353237,65.1918766 C89.0353237,70.1771617 87.0050639,74.960866 83.3927835,78.4852915 C79.7805031,82.0102723 74.8788948,83.991466 69.7701443,83.991466 C64.6613938,83.991466 59.7592165,82.0102723 56.1475052,78.4852915 C52.5352247,74.9603106 50.5049649,70.1771617 50.5049649,65.1918766 C50.5123724,60.2063138 52.5426227,55.4302915 56.1549031,51.905866 C59.7671835,48.3808851 64.6613938,46.3996915 69.7699546,46.3924723 L69.7701443,46.3922872 Z" id="Fill-20"></path>
            <path d="M60.730433,65.9913511 L58.0777031,67.2856149 L61.0416206,73.0701894 C61.2565023,73.4859568 61.6603348,73.7751855 62.1308247,73.8511069 C62.2049179,73.8619541 62.2827291,73.8691826 62.3605307,73.8691826 C62.7532474,73.8691826 63.1311493,73.7173398 63.4090462,73.4461867 L81.1925513,56.0924633 L79.0956153,54.0462048 L62.7679864,69.9829388 L60.730433,65.9913511 Z" id="Fill-21"></path>
        </g>
        <path d="M524.761287,379.661972 C524.530593,379.661972 524.34604,379.588733 524.207624,379.442254 C524.069207,379.295774 524,379.10986 524,378.884507 L524,356.811268 C524,356.563379 524.069207,356.366198 524.207624,356.219718 C524.34604,356.073239 524.530593,356 524.761287,356 L533.516085,356 C536.122929,356 538.170309,356.614078 539.658286,357.842254 C541.146263,359.070429 541.890241,360.856326 541.890241,363.2 C541.890241,365.543674 541.146263,367.323938 539.658286,368.540845 C538.170309,369.757753 536.122929,370.366197 533.516085,370.366197 L527.287375,370.366197 L527.287375,378.884507 C527.287375,379.10986 527.212401,379.295774 527.062449,379.442254 C526.912498,379.588733 526.722178,379.661972 526.491484,379.661972 L524.761287,379.661972 Z M533.343066,367.628169 C536.826547,367.628169 538.568262,366.152127 538.568262,363.2 C538.568262,361.757739 538.135717,360.653525 537.270614,359.887324 C536.405511,359.121123 535.096341,358.738028 533.343066,358.738028 L527.287375,358.738028 L527.287375,367.628169 L533.343066,367.628169 Z M547.248085,379.661972 C547.017391,379.661972 546.827071,379.588733 546.67712,379.442254 C546.527169,379.295774 546.452194,379.10986 546.452194,378.884507 L546.452194,362.895775 C546.452194,362.670421 546.527169,362.478874 546.67712,362.321127 C546.827071,362.163379 547.017391,362.084507 547.248085,362.084507 L548.701451,362.084507 C548.955214,362.084507 549.157069,362.157746 549.30702,362.304225 C549.456971,362.450705 549.531946,362.647886 549.531946,362.895775 L549.531946,364.383099 C550.477792,362.850697 552.081092,362.084507 554.341894,362.084507 L555.691448,362.084507 C555.945212,362.084507 556.141299,362.152112 556.279715,362.287324 C556.418132,362.422536 556.487339,362.614083 556.487339,362.861972 L556.487339,364.112676 C556.487339,364.338029 556.418132,364.523943 556.279715,364.670423 C556.141299,364.816902 555.945212,364.890141 555.691448,364.890141 L553.719023,364.890141 C552.450205,364.890141 551.452468,365.250701 550.725782,365.971831 C549.999095,366.692961 549.635757,367.673233 549.635757,368.912676 L549.635757,378.884507 C549.635757,379.10986 549.555016,379.295774 549.39353,379.442254 C549.232044,379.588733 549.035957,379.661972 548.805263,379.661972 L547.248085,379.661972 Z M567.139587,380 C564.601952,380 562.646848,379.301415 561.274218,377.904225 C559.901588,376.507035 559.169145,374.647899 559.076868,372.326761 L559.042264,370.873239 L559.076868,369.419718 C559.169145,367.09858 559.913123,365.239444 561.308822,363.842254 C562.704522,362.445063 564.648091,361.746479 567.139587,361.746479 C569.631084,361.746479 571.574653,362.445063 572.970352,363.842254 C574.366052,365.239444 575.110029,367.09858 575.202307,369.419718 C575.248446,369.915495 575.271515,370.399998 575.271515,370.873239 C575.271515,371.346481 575.248446,371.830983 575.202307,372.326761 C575.110029,374.647899 574.377586,376.507035 573.004956,377.904225 C571.632326,379.301415 569.677223,380 567.139587,380 Z M567.139587,377.464789 C568.61603,377.464789 569.786785,377.008455 570.651888,376.095775 C571.516991,375.183094 571.98414,373.870431 572.053348,372.157746 C572.076417,371.932393 572.087952,371.504229 572.087952,370.873239 C572.087952,370.24225 572.076417,369.814086 572.053348,369.588732 C571.98414,367.876048 571.516991,366.563385 570.651888,365.650704 C569.786785,364.738024 568.61603,364.28169 567.139587,364.28169 C565.663145,364.28169 564.49239,364.738024 563.627287,365.650704 C562.762184,366.563385 562.295035,367.876048 562.225827,369.588732 L562.191223,370.873239 L562.225827,372.157746 C562.295035,373.870431 562.762184,375.183094 563.627287,376.095775 C564.49239,377.008455 565.663145,377.464789 567.139587,377.464789 Z M587.550149,380 C585.081721,380 583.155454,379.318317 581.77129,377.95493 C580.387125,376.591542 579.660449,374.681702 579.591241,372.225352 L579.556637,370.873239 L579.591241,369.521127 C579.660449,367.064776 580.387125,365.154936 581.77129,363.791549 C583.155454,362.428162 585.081721,361.746479 587.550149,361.746479 C589.211146,361.746479 590.612592,362.0338 591.754528,362.608451 C592.896464,363.183101 593.75002,363.898587 594.31522,364.75493 C594.880421,365.611272 595.186086,366.467601 595.232225,367.323944 C595.255294,367.526762 595.18032,367.707041 595.007299,367.864789 C594.834279,368.022536 594.643959,368.101408 594.436334,368.101408 L592.91376,368.101408 C592.683066,368.101408 592.510048,368.050705 592.394701,367.949296 C592.279354,367.847887 592.164009,367.661973 592.048662,367.391549 C591.633412,366.287318 591.062453,365.504228 590.335766,365.042254 C589.60908,364.580279 588.692084,364.349296 587.584753,364.349296 C586.13138,364.349296 584.977926,364.788728 584.124358,365.667606 C583.27079,366.546483 582.809408,367.887315 582.7402,369.690141 L582.705596,370.873239 L582.7402,372.056338 C582.809408,373.859164 583.27079,375.199996 584.124358,376.078873 C584.977926,376.957751 586.13138,377.397183 587.584753,377.397183 C588.715154,377.397183 589.637917,377.166199 590.353068,376.704225 C591.06822,376.242251 591.633412,375.45916 592.048662,374.35493 C592.164009,374.084506 592.279354,373.898592 592.394701,373.797183 C592.510048,373.695774 592.683066,373.64507 592.91376,373.64507 L594.436334,373.64507 C594.643959,373.64507 594.834279,373.723943 595.007299,373.88169 C595.18032,374.039437 595.255294,374.219717 595.232225,374.422535 C595.186086,375.256342 594.880421,376.101404 594.31522,376.957746 C593.75002,377.814089 592.896464,378.535208 591.754528,379.121127 C590.612592,379.707045 589.211146,380 587.550149,380 Z M607.234027,380 C604.880947,380 603.000818,379.284514 601.593584,377.853521 C600.18635,376.422528 599.413536,374.467618 599.275119,371.988732 L599.240515,370.839437 L599.275119,369.723944 C599.413536,367.290129 600.18635,365.35212 601.593584,363.909859 C603.000818,362.467598 604.880947,361.746479 607.234027,361.746479 C609.771663,361.746479 611.738301,362.535203 613.134,364.112676 C614.5297,365.690149 615.227539,367.830972 615.227539,370.535211 L615.227539,371.143662 C615.227539,371.369015 615.152565,371.554929 615.002613,371.701408 C614.852662,371.847888 614.662342,371.921127 614.431648,371.921127 L602.424079,371.921127 L602.424079,372.225352 C602.493287,373.690148 602.954668,374.94084 603.808236,375.977465 C604.661805,377.01409 605.792189,377.532394 607.199423,377.532394 C608.283686,377.532394 609.166078,377.323946 609.846625,376.907042 C610.527173,376.490139 611.04046,376.05634 611.386501,375.605634 C611.594126,375.33521 611.755609,375.171831 611.870956,375.115493 C611.986303,375.059155 612.18239,375.030986 612.459223,375.030986 L613.981797,375.030986 C614.189422,375.030986 614.368207,375.087323 614.518158,375.2 C614.668109,375.312677 614.743084,375.459154 614.743084,375.639437 C614.743084,376.135214 614.431651,376.732391 613.808777,377.430986 C613.185903,378.129581 612.303511,378.732392 611.161575,379.239437 C610.019639,379.746481 608.71047,380 607.234027,380 Z M612.07858,369.622535 L612.07858,369.521127 C612.07858,367.943654 611.640268,366.65916 610.76363,365.667606 C609.886992,364.676051 608.71047,364.180282 607.234027,364.180282 C605.734515,364.180282 604.557993,364.676051 603.704425,365.667606 C602.850856,366.65916 602.424079,367.943654 602.424079,369.521127 L602.424079,369.622535 L612.07858,369.622535 Z M626.329639,380 C624.737849,380 623.394076,379.746481 622.298279,379.239437 C621.202482,378.732392 620.389297,378.152116 619.8587,377.498592 C619.328104,376.845067 619.06281,376.304227 619.06281,375.876056 C619.06281,375.650703 619.143551,375.476057 619.305037,375.352113 C619.466523,375.228168 619.639541,375.166197 619.824097,375.166197 L621.277462,375.166197 C621.415879,375.166197 621.525457,375.188732 621.6062,375.233803 C621.686943,375.278873 621.796521,375.380281 621.934937,375.538028 C622.465534,376.169017 623.059562,376.664787 623.717041,377.025352 C624.374519,377.385917 625.256911,377.566197 626.364243,377.566197 C627.609991,377.566197 628.607728,377.340847 629.357484,376.890141 C630.10724,376.439434 630.482112,375.78592 630.482112,374.929577 C630.482112,374.366194 630.320629,373.915495 629.997657,373.577465 C629.674685,373.239435 629.138329,372.935213 628.388573,372.664789 C627.638818,372.394365 626.525735,372.10141 625.049293,371.785915 C623.042254,371.357744 621.623506,370.738032 620.793007,369.926761 C619.962508,369.115489 619.547265,368.067612 619.547265,366.783099 C619.547265,365.949292 619.801025,365.143666 620.308552,364.366197 C620.816079,363.588729 621.571591,362.957749 622.57511,362.473239 C623.57863,361.98873 624.772454,361.746479 626.156619,361.746479 C627.609992,361.746479 628.849954,361.983096 629.876543,362.456338 C630.903132,362.92958 631.675946,363.481687 632.195008,364.112676 C632.714069,364.743665 632.973596,365.273237 632.973596,365.701408 C632.973596,365.904226 632.898622,366.073239 632.748671,366.208451 C632.59872,366.343663 632.419934,366.411268 632.21231,366.411268 L630.89736,366.411268 C630.574388,366.411268 630.343697,366.287325 630.205281,366.039437 C629.813101,365.611265 629.484366,365.278874 629.219068,365.042254 C628.95377,364.805633 628.567363,364.602818 628.059836,364.433803 C627.552309,364.264788 626.91791,364.180282 626.156619,364.180282 C625.026218,364.180282 624.161128,364.411265 623.561323,364.873239 C622.961518,365.335214 622.66162,365.949292 622.66162,366.715493 C622.66162,367.188735 622.7885,367.588731 623.042264,367.915493 C623.296027,368.242255 623.780478,368.546477 624.495629,368.828169 C625.210781,369.109861 626.271958,369.397182 627.679193,369.690141 C629.870787,370.140847 631.422182,370.783094 632.333423,371.616901 C633.244665,372.450708 633.700279,373.52112 633.700279,374.828169 C633.700279,375.797188 633.417683,376.676052 632.852483,377.464789 C632.287282,378.253525 631.445261,378.873237 630.326395,379.323944 C629.207528,379.77465 627.875289,380 626.329639,380 Z M644.629359,380 C643.03757,380 641.693797,379.746481 640.597999,379.239437 C639.502202,378.732392 638.689018,378.152116 638.158421,377.498592 C637.627825,376.845067 637.36253,376.304227 637.36253,375.876056 C637.36253,375.650703 637.443272,375.476057 637.604758,375.352113 C637.766244,375.228168 637.939262,375.166197 638.123817,375.166197 L639.577183,375.166197 C639.715599,375.166197 639.825178,375.188732 639.90592,375.233803 C639.986663,375.278873 640.096241,375.380281 640.234658,375.538028 C640.765254,376.169017 641.359283,376.664787 642.016761,377.025352 C642.67424,377.385917 643.556631,377.566197 644.663963,377.566197 C645.909712,377.566197 646.907449,377.340847 647.657205,376.890141 C648.406961,376.439434 648.781833,375.78592 648.781833,374.929577 C648.781833,374.366194 648.620349,373.915495 648.297378,373.577465 C647.974406,373.239435 647.43805,372.935213 646.688294,372.664789 C645.938538,372.394365 644.825456,372.10141 643.349013,371.785915 C641.341974,371.357744 639.923227,370.738032 639.092728,369.926761 C638.262229,369.115489 637.846986,368.067612 637.846986,366.783099 C637.846986,365.949292 638.100745,365.143666 638.608272,364.366197 C639.1158,363.588729 639.871311,362.957749 640.874831,362.473239 C641.87835,361.98873 643.072175,361.746479 644.45634,361.746479 C645.909713,361.746479 647.149675,361.983096 648.176264,362.456338 C649.202853,362.92958 649.975666,363.481687 650.494728,364.112676 C651.01379,364.743665 651.273317,365.273237 651.273317,365.701408 C651.273317,365.904226 651.198343,366.073239 651.048391,366.208451 C650.89844,366.343663 650.719655,366.411268 650.51203,366.411268 L649.19708,366.411268 C648.874108,366.411268 648.643418,366.287325 648.505001,366.039437 C648.112821,365.611265 647.784087,365.278874 647.518789,365.042254 C647.253491,364.805633 646.867084,364.602818 646.359557,364.433803 C645.85203,364.264788 645.21763,364.180282 644.45634,364.180282 C643.325938,364.180282 642.460848,364.411265 641.861043,364.873239 C641.261239,365.335214 640.961341,365.949292 640.961341,366.715493 C640.961341,367.188735 641.088221,367.588731 641.341984,367.915493 C641.595748,368.242255 642.080198,368.546477 642.79535,368.828169 C643.510502,369.109861 644.571679,369.397182 645.978913,369.690141 C648.170507,370.140847 649.721902,370.783094 650.633144,371.616901 C651.544386,372.450708 652,373.52112 652,374.828169 C652,375.797188 651.717404,376.676052 651.152203,377.464789 C650.587003,378.253525 649.744982,378.873237 648.626115,379.323944 C647.507249,379.77465 646.17501,380 644.629359,380 Z" id="Process" fill="#123456" fill-rule="nonzero"></path>
        <path d="M482.594805,244.118712 C483.327259,244.051746 484.109641,244.202417 484.941975,244.570728 C485.774309,244.93904 486.456812,245.391052 486.989506,245.926778 C487.5222,246.462504 487.971653,247.132151 488.33788,247.93574 C488.704107,248.73933 488.853925,249.509424 488.787338,250.246047 L488.487699,254.163524 C487.622072,264.945011 486.323651,275.726335 484.592397,286.507821 C482.994316,296.954479 480.996744,307.300532 478.599623,317.546292 L476.801791,325.079902 C476.535444,326.151354 476.269101,327.206049 476.002754,328.244018 C475.736407,329.281987 475.436772,330.336682 475.103838,331.408134 C474.704318,332.613518 474.238218,333.818883 473.705524,335.024267 C473.172831,336.22965 472.540266,337.368051 471.807813,338.439503 C471.341706,339.10916 470.875606,339.745325 470.409499,340.348017 C469.943392,340.950709 469.443999,341.519909 468.911305,342.055635 L467.712751,343.261013 C467.31323,343.595842 466.913716,343.913924 466.514196,344.21527 C466.114676,344.516616 465.681869,344.767734 465.215762,344.968631 C464.483308,345.30346 463.767511,345.571319 463.068351,345.772216 C462.369191,345.973113 461.586808,346.107043 460.721181,346.174009 C459.788967,346.30794 458.856767,346.207493 457.924554,345.872664 C457.1921,345.604801 456.559536,345.320201 456.026842,345.018855 C455.494148,344.717509 454.92817,344.29898 454.328889,343.763254 C453.995956,343.428425 453.69632,343.07686 453.429973,342.708548 C453.163626,342.340237 452.897284,341.988672 452.630937,341.653843 C452.231417,341.118117 451.898488,340.515434 451.632141,339.845777 L450.833105,337.836814 C450.633345,337.301088 450.450234,336.748629 450.283767,336.17942 C450.1173,335.610211 449.967482,335.057752 449.834309,334.522026 C449.101855,332.178225 448.435998,329.800976 447.836718,327.390209 C447.237437,324.979442 446.671459,322.535228 446.138765,320.057496 L444.940211,314.030608 C444.873624,314.16454 444.773745,314.432399 444.640572,314.834193 C444.241052,315.972611 443.858184,317.127753 443.491957,318.299653 C443.12573,319.471554 442.676276,320.626696 442.143583,321.765114 C441.544302,323.171395 440.845152,324.527431 440.046112,325.833263 C439.247072,327.139095 438.148407,328.160308 436.750086,328.896931 C434.219792,330.236246 431.656242,330.269728 429.05936,328.997379 C428.26032,328.595584 427.544523,328.059866 426.91195,327.390209 C426.279376,326.720551 425.730044,326.017422 425.263937,325.280798 C424.531483,324.075415 424.015444,322.786343 423.715804,321.413545 C423.416163,320.040747 423.19976,318.684711 423.066587,317.345396 C423,316.140013 422.983353,314.934647 423.016647,313.729264 C423.04994,312.52388 423.099879,311.318515 423.166466,310.113131 L423.765743,294.141879 C423.898917,291.396283 424.015442,288.684211 424.115322,286.005581 C424.215202,283.32695 424.398313,280.648361 424.66466,277.96973 L426.162853,261.697134 C426.296026,260.156922 427.095055,259.319862 428.559962,259.185931 C429.225829,259.118965 429.791808,259.3366 430.257915,259.838844 C430.724022,260.341087 430.957072,260.927028 430.957072,261.596686 C430.957072,263.73959 430.973718,265.848979 431.007012,267.924918 C431.040305,270.000856 431.090244,272.110246 431.156831,274.25315 C431.290004,278.003232 431.35659,281.719775 431.35659,285.402892 C431.35659,289.086008 431.423176,292.802552 431.556349,296.552634 L431.855988,307.702376 C431.922575,309.242588 431.972514,310.81626 432.005807,312.423438 C432.039101,314.030616 432.122333,315.604288 432.255506,317.1445 C432.38868,316.608774 432.555144,316.056315 432.754904,315.487106 C432.954664,314.917897 433.121128,314.365438 433.254302,313.829712 C434.652623,309.409972 435.96769,304.990299 437.199545,300.570559 C438.431399,296.150819 439.580002,291.664181 440.645389,287.11051 C440.778563,286.440852 441.094845,285.787946 441.594245,285.151772 C442.093646,284.515597 442.642978,284.030102 443.242258,283.695274 C444.174472,283.159548 445.139965,282.891689 446.138765,282.891689 C446.738046,282.824723 447.320671,282.908429 447.886658,283.142809 C448.452645,283.377189 449.001977,283.661789 449.53467,283.996618 C450.133951,284.398413 450.633344,284.934131 451.032864,285.603788 L451.632141,286.809166 L453.429973,297.657563 C453.962667,300.871919 454.528645,304.036004 455.127926,307.149911 C455.727206,310.263819 456.393063,313.394421 457.125517,316.541811 C457.525037,318.082024 457.924552,319.638954 458.324072,321.212649 C458.723592,322.786344 459.156399,324.343275 459.622506,325.883487 C459.888853,326.687076 460.138549,327.490653 460.371603,328.294242 C460.604656,329.097831 460.887646,329.901408 461.220579,330.704997 C461.353753,330.437134 461.486924,330.186016 461.620097,329.951636 C461.753271,329.717256 461.886442,329.466138 462.019616,329.198275 C462.685483,327.457166 463.234815,325.699341 463.667628,323.924749 C464.100442,322.150156 464.549895,320.358849 465.016002,318.550774 C466.014803,314.532829 466.963649,310.531685 467.86257,306.547223 C468.76149,302.56276 469.577165,298.561617 470.309619,294.543671 C471.841113,286.708678 473.139535,278.940768 474.204922,271.239706 C474.671029,267.757487 475.08719,264.27532 475.453417,260.793101 C475.819644,257.310882 476.169218,253.795232 476.502152,250.246047 C476.502152,249.174595 476.801788,248.136642 477.401068,247.132155 L478.299984,245.926778 C478.832678,245.324086 479.498535,244.888815 480.297575,244.620952 C481.096616,244.353089 481.895644,244.185677 482.694685,244.118712 L482.594805,244.118712 Z M515.858865,283.444154 C515.833895,283.410671 515.788117,283.360447 515.72153,283.293481 C515.654943,283.226515 515.609165,283.176291 515.584195,283.142809 C515.659105,283.176291 515.688237,283.226515 515.72153,283.293481 C515.788117,283.427413 515.887995,283.561342 516.021169,283.695274 C516.087756,283.829205 516.137695,283.946393 516.170988,284.046842 C516.204282,284.147291 516.254221,284.264479 516.320808,284.398411 C516.520568,284.934137 516.620446,285.436372 516.620446,285.905132 C517.75242,285.704235 518.817792,285.704235 519.816592,285.905132 L520.116231,285.905132 C520.782098,286.172995 521.381369,286.440854 521.914063,286.708717 C522.246997,286.909615 522.563279,287.12725 522.862919,287.36163 C523.162559,287.59601 523.478841,287.847128 523.811775,288.114991 C524.144708,288.382854 524.427697,288.667454 524.660751,288.9688 C524.893804,289.270146 525.110208,289.588229 525.309968,289.923058 L525.609607,290.525746 C525.875954,291.061472 526.109004,291.580449 526.308764,292.082692 C526.508524,292.584935 526.674988,293.103912 526.808161,293.639638 L526.808161,293.840535 C526.941335,294.376261 527.041213,294.945461 527.1078,295.548153 C527.174387,296.150844 527.174387,296.753527 527.1078,297.356219 C527.1078,297.958911 527.074507,298.561593 527.007921,299.164285 C526.941334,299.766977 526.841455,300.36966 526.708282,300.972352 C526.575109,301.708975 526.391998,302.412105 526.158944,303.081762 C525.925891,303.75142 525.676194,304.421067 525.409848,305.090725 C525.010327,306.095211 524.57752,307.099682 524.111413,308.104169 C523.645306,309.108655 523.145914,310.079644 522.61322,311.017164 C521.880766,312.289514 520.981859,313.628808 519.916472,315.035089 C519.250605,315.905644 518.584748,316.742703 517.918881,317.546292 C517.253013,318.349881 516.487278,319.119976 515.621651,319.856599 C514.556263,320.727154 513.507538,321.497249 512.475444,322.166906 C511.44335,322.836564 510.261454,323.372282 508.92972,323.774076 L507.731165,324.075421 C507.265058,324.142386 506.815605,324.209351 506.382791,324.276317 C505.949978,324.343283 505.500524,324.376765 505.034417,324.376765 C504.56831,324.376765 504.10221,324.343283 503.636103,324.276317 C503.169996,324.209351 502.703896,324.108904 502.237789,323.974973 L501.338873,323.673628 C500.80618,323.472731 500.256848,323.238354 499.69086,322.970491 C499.124873,322.702628 498.575541,322.401287 498.042848,322.066458 C497.510154,321.731629 497.010761,321.380064 496.544654,321.011753 C496.078547,320.643441 495.64574,320.224912 495.24622,319.756151 C494.8467,319.287391 494.463832,318.801897 494.097605,318.299653 C493.731378,317.79741 493.415096,317.278433 493.148749,316.742707 C492.882402,316.206981 492.632706,315.637781 492.399652,315.035089 C492.166599,314.432398 491.983488,313.829715 491.850315,313.227023 C491.717141,312.758263 491.617263,312.289509 491.550676,311.820749 C491.48409,311.351989 491.417504,310.849753 491.350917,310.314027 L491.350917,307.7526 C491.350917,307.317323 491.38421,306.865311 491.450797,306.39655 C491.517383,305.392064 491.617262,304.387593 491.750435,303.383107 L492.149954,300.369663 C492.349714,298.963382 492.616057,297.573863 492.94899,296.201065 C493.281924,294.828268 493.714731,293.472231 494.247424,292.132916 C494.580358,291.329327 494.929933,290.52575 495.29616,289.722161 C495.662387,288.918572 496.11184,288.148478 496.644534,287.411854 C497.110641,286.675231 497.610034,285.95536 498.142727,285.25222 C498.675421,284.549079 499.274692,283.929655 499.940559,283.393929 C501.53864,282.12158 503.203283,281.150591 504.934537,280.480934 C505.267471,280.347002 505.567107,280.246555 505.833454,280.179589 C506.0998,280.112623 506.399436,280.045659 506.73237,279.978693 C507.198477,279.911727 507.64793,279.861504 508.080744,279.828021 C508.513557,279.794538 508.963011,279.777797 509.429118,279.777797 C510.361332,279.844762 511.276885,280.079139 512.175806,280.480934 C513.074726,280.882728 513.890401,281.384964 514.622855,281.987656 L515.222132,282.590344 C515.288719,282.65731 515.322012,282.707534 515.322012,282.741016 C515.322012,282.774499 515.355305,282.824723 515.421891,282.891689 C515.555065,283.02562 515.654943,283.15955 515.72153,283.293481 C515.754824,283.360447 515.783955,283.410671 515.808925,283.444154 L515.858865,283.444154 Z M514.123457,297.657563 C513.124657,296.787009 512.425507,295.715573 512.025986,294.443223 C511.75964,293.572668 511.726347,292.668644 511.926107,291.731124 C511.926107,291.061466 512.059278,290.492266 512.325625,290.023506 C512.525385,289.353848 512.825021,288.784648 513.224541,288.315888 C512.891608,288.315888 512.591972,288.21544 512.325625,288.014543 L510.527793,288.014543 C509.861926,288.148475 509.395826,288.282404 509.129479,288.416336 C508.863132,288.550267 508.530204,288.751161 508.130683,289.019024 C507.864337,289.219922 507.631287,289.437557 507.431527,289.671937 C507.231766,289.906317 507.032009,290.157435 506.832249,290.425298 C506.166382,291.295853 505.666989,292.132912 505.334056,292.936501 C505.001122,293.673125 504.734779,294.443219 504.535019,295.246808 C504.335259,296.050397 504.168795,296.853974 504.035621,297.657563 C503.835861,299.197776 503.735983,300.704482 503.735983,302.177729 L503.735983,304.739156 C503.735983,305.576228 503.802568,306.430029 503.935742,307.300584 C504.068915,307.769344 504.18544,308.221356 504.28532,308.656633 C504.3852,309.091911 504.501725,309.543923 504.634899,310.012683 L504.934537,310.615372 L505.833454,310.012683 C506.898841,309.008197 507.897626,307.903278 508.82984,306.697895 C510.427921,304.554991 511.69305,302.412119 512.625264,300.269215 C512.825024,299.733489 513.008135,299.231253 513.174601,298.762493 C513.341068,298.293732 513.490886,297.791497 513.624059,297.255771 L514.123457,297.657563 Z M562.431875,283.695274 C562.631636,284.565828 562.698221,285.369405 562.631635,286.106029 C562.565048,286.574789 562.398584,286.993319 562.132237,287.36163 C561.86589,287.729942 561.566254,288.081507 561.233321,288.416336 C560.767214,288.885096 560.267821,289.152955 559.735127,289.219921 C559.535367,289.286886 559.33561,289.320369 559.13585,289.320369 C558.93609,289.320369 558.736333,289.353851 558.536572,289.420817 C558.203639,289.353851 557.904003,289.320369 557.637656,289.320369 L555.540186,289.320369 C555.207252,289.387335 554.707859,289.554746 554.041992,289.822609 C553.242952,290.157438 552.577095,290.559227 552.044401,291.027987 C551.178774,291.76461 550.479624,292.501222 549.94693,293.237846 C549.14789,294.577161 548.44874,295.983421 547.849459,297.456667 C547.316766,299.130811 546.900605,300.838412 546.600965,302.579522 C546.301325,304.320631 546.084921,306.061715 545.951748,307.802824 C545.885161,308.539447 545.851868,309.242577 545.851868,309.912235 L545.851868,322.568699 C545.851868,324.644637 545.868515,326.703803 545.901808,328.746259 C545.935101,330.788714 545.885162,332.814398 545.751989,334.82337 L545.751989,333.015304 L545.751989,334.82337 C545.885162,335.961788 545.685405,337.033224 545.152711,338.03771 L544.253795,339.243088 C543.721102,339.84578 543.055244,340.281051 542.256204,340.548914 C541.457163,340.816777 540.658135,340.984188 539.859094,341.051154 C539.060054,341.11812 538.227733,340.967449 537.362105,340.599138 C536.496478,340.230826 535.764035,339.778814 535.164755,339.243088 C534.432301,338.640396 533.932908,337.937266 533.666562,337.133677 C533.267041,336.330088 533.067284,335.493029 533.067284,334.622474 L533.067284,317.1445 C533.067284,315.001596 533.083931,312.892206 533.117224,310.816268 C533.150517,308.74033 533.23375,306.63094 533.366923,304.488036 L533.366923,305.994758 L533.666562,299.666526 C533.799735,297.657553 533.899614,295.63187 533.9662,293.589414 C534.032787,291.546959 534.232544,289.521275 534.565478,287.512303 L535.464394,282.088104 C535.597567,281.150583 535.730739,280.196335 535.863912,279.225332 C535.997085,278.254329 536.230135,277.300081 536.563069,276.36256 L536.26343,276.965249 C536.46319,276.027729 536.69624,275.291116 536.962587,274.75539 C537.095761,274.487527 537.195639,274.202927 537.262226,273.901581 C537.328813,273.600235 537.428691,273.315635 537.561865,273.047772 L538.161142,272.143739 C538.827009,271.139253 539.725916,270.737464 540.85789,270.938362 C541.989864,271.072293 542.788893,271.708458 543.255,272.846876 C543.587933,273.717431 543.78769,274.487525 543.854277,275.157183 L544.153916,276.663905 C544.220502,276.998734 544.270442,277.300075 544.303735,277.567938 C544.337028,277.835801 544.353675,278.137142 544.353675,278.471971 L544.353675,284.498859 C545.285889,283.628304 546.301321,282.858209 547.400001,282.188552 C548.498682,281.518894 549.680578,280.983176 550.945726,280.581382 C552.144287,280.179587 553.409415,279.978693 554.741149,279.978693 C555.606776,279.978693 556.439098,280.07914 557.238138,280.280037 C557.637658,280.413969 558.037173,280.56464 558.436693,280.732054 C558.836213,280.899468 559.235727,281.083621 559.635248,281.284519 C560.167941,281.552382 560.650688,281.937429 561.083501,282.439672 C561.516315,282.941915 561.799304,283.460892 561.932478,283.996618 L562.431875,283.695274 Z M593.373673,308.131396 C593.729767,308.861955 594.058555,309.606234 594.360046,310.364251 C594.692979,311.201323 595.025908,312.055124 595.358841,312.925679 L596.557396,315.939122 C596.890329,316.541814 597.206612,317.144497 597.506252,317.747189 C597.805892,318.34988 598.122174,318.952563 598.455108,319.555255 L598.754746,318.349877 L600.15306,313.528367 C600.619167,311.921189 601.11856,310.347518 601.651254,308.807305 C602.050774,307.200127 602.883095,305.96128 604.148243,305.090725 C604.81411,304.621964 605.563199,304.354105 606.395533,304.28714 C607.227867,304.220174 608.043541,304.287139 608.842582,304.488036 C609.575036,304.621967 610.290832,304.956791 610.989993,305.492517 C611.689153,306.028243 612.238485,306.630926 612.638005,307.300584 L613.037524,307.300584 C613.437044,307.970241 613.720033,308.757077 613.8865,309.661114 C614.052967,310.565152 614.03632,311.38547 613.83656,312.122094 C613.703387,312.65782 613.586862,313.160055 613.486982,313.628816 C613.387102,314.097576 613.270577,314.599811 613.137403,315.135537 L612.538126,318.148981 L611.039932,323.874524 L609.841378,329.298723 L609.2421,331.408134 L608.842582,332.613512 C608.709409,333.015306 608.542944,333.383612 608.343184,333.718441 C608.143424,334.05327 607.92702,334.371352 607.693967,334.672698 C607.460914,334.974044 607.211217,335.292127 606.94487,335.626955 C606.678523,335.961784 606.395534,336.246384 606.095894,336.480764 C605.796254,336.715145 605.479972,336.966262 605.147038,337.234125 C604.814105,337.501988 604.46453,337.719624 604.098303,337.887038 C603.732076,338.054453 603.382501,338.205123 603.049567,338.339055 C602.982981,338.40602 602.883102,338.439503 602.749929,338.439503 C602.416995,338.506469 602.06742,338.556692 601.701193,338.590175 C601.334966,338.623658 600.985391,338.640399 600.652458,338.640399 C600.386111,338.640399 599.986597,338.573434 599.453903,338.439503 C599.187556,338.372537 598.954506,338.339055 598.754746,338.339055 C598.554986,338.339055 598.355229,338.305572 598.155469,338.238607 C597.090082,337.903778 596.091296,337.401542 595.159082,336.731885 C594.892735,336.530987 594.643039,336.346834 594.409985,336.17942 C594.176932,336.012006 593.960528,335.827853 593.760768,335.626955 C593.294661,335.091229 592.878501,334.572252 592.512274,334.070009 C592.146047,333.567766 591.796472,333.048789 591.463538,332.513063 C590.464738,330.771954 589.532538,329.03087 588.66691,327.289761 C587.801283,325.548651 587.002255,323.774085 586.269801,321.96601 C585.936867,321.229387 585.637232,320.476033 585.370885,319.705927 C585.104538,318.935821 584.838195,318.182468 584.571848,317.445844 L584.571848,322.568699 C584.638435,326.184849 584.638435,329.800946 584.571848,333.417097 C584.505262,337.033247 584.471969,340.649344 584.471969,344.265494 C584.538556,345.604809 584.272213,346.910622 583.672932,348.182971 L582.474378,349.689693 C581.808511,350.426316 581.009482,350.978776 580.077268,351.347087 C579.145054,351.715399 578.179562,351.933034 577.180761,352 C576.048787,352 575.050001,351.765623 574.184374,351.296863 C573.118987,350.962034 572.253373,350.426316 571.587505,349.689693 C569.989424,348.149481 569.12381,346.30795 568.990637,344.165046 C568.92405,343.495389 568.907404,342.842482 568.940697,342.206308 C568.97399,341.570133 569.02393,340.917227 569.090516,340.247569 C569.157103,339.310049 569.190396,338.406025 569.190396,337.53547 C569.190396,336.664915 569.223689,335.760891 569.290276,334.82337 L569.290276,330.00186 C569.356862,329.06434 569.390155,328.160316 569.390155,327.289761 C569.390155,326.419206 569.423448,325.515182 569.490035,324.577661 L570.388951,308.907754 L570.688589,301.374144 C570.821763,299.900897 570.921641,298.427673 570.988228,296.954426 C571.054815,295.48118 571.154693,294.007955 571.287867,292.534709 L572.186783,281.384967 L574.284254,259.788619 L574.583892,257.377864 L574.883531,253.460387 L575.782447,245.625434 C575.849034,245.089708 576.115377,244.671178 576.581484,244.369832 C577.04759,244.068486 577.546983,243.951298 578.079677,244.018264 C579.344824,244.152195 580.043974,244.855325 580.177148,246.127674 L581.076064,258.181449 L581.076064,259.688171 L582.174739,286.708717 L582.774016,285.804684 C582.973776,285.469856 583.19018,285.118291 583.423234,284.749979 C583.656287,284.381667 583.939276,283.99662 584.27221,283.594826 C584.47197,283.326963 584.821545,282.891692 585.320945,282.289 C585.820345,281.686308 586.436263,281.050143 587.168717,280.380485 C587.901171,279.710828 588.733492,279.074663 589.665706,278.471971 C590.59792,277.869279 591.596706,277.434008 592.662093,277.166145 C593.394547,277.032214 594.160282,276.965249 594.959323,276.965249 C595.758363,276.965249 596.524099,277.132661 597.256553,277.46749 C597.789246,277.668387 598.271993,277.902764 598.704806,278.170627 C599.13762,278.43849 599.520488,278.840278 599.853421,279.376004 C600.186355,279.978696 600.419405,280.681826 600.552578,281.485415 C600.619165,282.35597 600.386115,283.193029 599.853421,283.996618 C599.520488,284.532344 599.120974,284.934133 598.654867,285.201996 L597.755951,285.50334 C597.023497,285.637271 596.324347,285.838166 595.65848,286.106029 C595.325546,286.23996 595.009264,286.407372 594.709624,286.608269 C594.409984,286.809167 594.093702,287.010061 593.760768,287.210958 C593.094901,287.746684 592.49563,288.416332 591.962936,289.219921 C591.829763,289.487784 591.696591,289.738901 591.563418,289.973282 C591.430244,290.207662 591.297073,290.492262 591.1639,290.827091 C590.830966,291.898543 590.597916,293.103908 590.464743,294.443223 C590.398156,295.380744 590.414802,296.284768 590.514682,297.155323 C590.614562,298.025877 590.731087,298.929902 590.864261,299.867422 C591.197194,301.4746 591.630001,303.081754 592.162695,304.688932 C592.54886,305.854023 592.952518,307.001505 593.373673,308.131396 L593.373673,308.131396 Z" id="Work" fill="url(#linearGradient-1)" fill-rule="nonzero"></path>
        <path d="M56.864,117.56 C56.6239988,117.56 56.4200008,117.476001 56.252,117.308 C56.0839992,117.139999 56,116.936001 56,116.696 L56,93.26 C56,92.9959987 56.0779992,92.7800008 56.234,92.612 C56.3900008,92.4439992 56.5999987,92.36 56.864,92.36 L72.74,92.36 C73.0040013,92.36 73.2199992,92.4439992 73.388,92.612 C73.5560008,92.7800008 73.64,92.9959987 73.64,93.26 L73.64,95.672 C73.64,95.9360013 73.5560008,96.1459992 73.388,96.302 C73.2199992,96.4580008 73.0040013,96.536 72.74,96.536 L60.932,96.536 L60.932,102.836 L71.948,102.836 C72.2120013,102.836 72.4279992,102.919999 72.596,103.088 C72.7640008,103.256001 72.848,103.471999 72.848,103.736 L72.848,106.004 C72.848,106.268001 72.7640008,106.477999 72.596,106.634 C72.4279992,106.790001 72.2120013,106.868 71.948,106.868 L60.932,106.868 L60.932,113.384 L73.028,113.384 C73.2920013,113.384 73.5079992,113.461999 73.676,113.618 C73.8440008,113.774001 73.928,113.983999 73.928,114.248 L73.928,116.696 C73.928,116.960001 73.8440008,117.169999 73.676,117.326 C73.5079992,117.482001 73.2920013,117.56 73.028,117.56 L56.864,117.56 Z M78.86,117.56 C78.6199988,117.56 78.4160008,117.476001 78.248,117.308 C78.0799992,117.139999 77.996,116.936001 77.996,116.696 L77.996,99.704 C77.996,99.4399987 78.0799992,99.2300008 78.248,99.074 C78.4160008,98.9179992 78.6199988,98.84 78.86,98.84 L81.704,98.84 C81.9680013,98.84 82.1779992,98.9179992 82.334,99.074 C82.4900008,99.2300008 82.568,99.4399987 82.568,99.704 L82.568,100.928 C83.8640065,99.2959918 85.6039891,98.48 87.788,98.48 C90.4520133,98.48 92.3119947,99.5479893 93.368,101.684 C93.9440029,100.723995 94.7599947,99.9500029 95.816,99.362 C96.8720053,98.7739971 98.0119939,98.48 99.236,98.48 C101.20401,98.48 102.811994,99.1519933 104.06,100.496 C105.308006,101.840007 105.932,103.795987 105.932,106.364 L105.932,116.696 C105.932,116.936001 105.854001,117.139999 105.698,117.308 C105.541999,117.476001 105.332001,117.56 105.068,117.56 L102.08,117.56 C101.839999,117.56 101.636001,117.476001 101.468,117.308 C101.299999,117.139999 101.216,116.936001 101.216,116.696 L101.216,106.652 C101.216,105.139992 100.898003,104.048003 100.262,103.376 C99.6259968,102.703997 98.7920052,102.368 97.76,102.368 C96.8239953,102.368 96.0260033,102.709997 95.366,103.394 C94.7059967,104.078003 94.376,105.163993 94.376,106.652 L94.376,116.696 C94.376,116.936001 94.2980008,117.139999 94.142,117.308 C93.9859992,117.476001 93.7760013,117.56 93.512,117.56 L90.488,117.56 C90.2479988,117.56 90.0440008,117.476001 89.876,117.308 C89.7079992,117.139999 89.624,116.936001 89.624,116.696 L89.624,106.652 C89.624,105.163993 89.3000032,104.078003 88.652,103.394 C88.0039968,102.709997 87.176005,102.368 86.168,102.368 C85.2319953,102.368 84.4340033,102.709997 83.774,103.394 C83.1139967,104.078003 82.784,105.163993 82.784,106.652 L82.784,116.696 C82.784,116.936001 82.7060008,117.139999 82.55,117.308 C82.3939992,117.476001 82.1840013,117.56 81.92,117.56 L78.86,117.56 Z M111.404,124.4 C111.163999,124.4 110.960001,124.322001 110.792,124.166 C110.623999,124.009999 110.54,123.800001 110.54,123.536 L110.54,99.704 C110.54,99.4399987 110.623999,99.2300008 110.792,99.074 C110.960001,98.9179992 111.163999,98.84 111.404,98.84 L114.284,98.84 C114.548001,98.84 114.763999,98.9239992 114.932,99.092 C115.100001,99.2600008 115.184,99.4639988 115.184,99.704 L115.184,101.144 C116.456006,99.3679911 118.363987,98.48 120.908,98.48 C123.332012,98.48 125.191994,99.2419924 126.488,100.766 C127.784006,102.290008 128.48,104.335987 128.576,106.904 C128.6,107.192001 128.612,107.623997 128.612,108.2 C128.612,108.776003 128.6,109.207999 128.576,109.496 C128.504,112.016013 127.814007,114.049992 126.506,115.598 C125.197993,117.146008 123.332012,117.92 120.908,117.92 C118.507988,117.92 116.672006,117.068009 115.4,115.364 L115.4,123.536 C115.4,123.800001 115.322001,124.009999 115.166,124.166 C115.009999,124.322001 114.800001,124.4 114.536,124.4 L111.404,124.4 Z M119.54,114.032 C122.108013,114.032 123.475999,112.448016 123.644,109.28 C123.668,109.039999 123.68,108.680002 123.68,108.2 C123.68,107.719998 123.668,107.360001 123.644,107.12 C123.475999,103.951984 122.108013,102.368 119.54,102.368 C118.171993,102.368 117.152003,102.811996 116.48,103.7 C115.807997,104.588004 115.448,105.667994 115.4,106.94 C115.376,107.228001 115.364,107.683997 115.364,108.308 C115.364,108.932003 115.376,109.399998 115.4,109.712 C115.448,110.912006 115.819997,111.931996 116.516,112.772 C117.212003,113.612004 118.219993,114.032 119.54,114.032 Z M138.044,117.92 C136.819994,117.92 135.698005,117.674002 134.678,117.182 C133.657995,116.689998 132.854003,116.024004 132.266,115.184 C131.677997,114.343996 131.384,113.420005 131.384,112.412 C131.384,110.779992 132.043993,109.460005 133.364,108.452 C134.684007,107.443995 136.495988,106.760002 138.8,106.4 L143.732,105.68 L143.732,104.924 C143.732,103.891995 143.468003,103.112003 142.94,102.584 C142.411997,102.055997 141.572006,101.792 140.42,101.792 C139.627996,101.792 138.992002,101.935999 138.512,102.224 C138.031998,102.512001 137.642002,102.805999 137.342,103.106 L136.748,103.7 C136.652,103.988001 136.472001,104.132 136.208,104.132 L133.4,104.132 C133.183999,104.132 132.998001,104.060001 132.842,103.916 C132.685999,103.771999 132.608,103.580001 132.608,103.34 C132.632,102.739997 132.925997,102.062004 133.49,101.306 C134.054003,100.549996 134.923994,99.8900028 136.1,99.326 C137.276006,98.7619972 138.727991,98.48 140.456,98.48 C143.288014,98.48 145.351994,99.1159936 146.648,100.388 C147.944006,101.660006 148.592,103.32799 148.592,105.392 L148.592,116.696 C148.592,116.936001 148.514001,117.139999 148.358,117.308 C148.201999,117.476001 147.992001,117.56 147.728,117.56 L144.74,117.56 C144.499999,117.56 144.296001,117.476001 144.128,117.308 C143.959999,117.139999 143.876,116.936001 143.876,116.696 L143.876,115.292 C143.347997,116.060004 142.604005,116.689998 141.644,117.182 C140.683995,117.674002 139.484007,117.92 138.044,117.92 Z M139.268,114.464 C140.588007,114.464 141.667996,114.032004 142.508,113.168 C143.348004,112.303996 143.768,111.056008 143.768,109.424 L143.768,108.704 L140.168,109.28 C137.407986,109.712002 136.028,110.635993 136.028,112.052 C136.028,112.820004 136.345997,113.413998 136.982,113.834 C137.618003,114.254002 138.379996,114.464 139.268,114.464 Z M161.696,117.56 C159.511989,117.56 157.868006,116.990006 156.764,115.85 C155.659994,114.709994 155.108,113.036011 155.108,110.828 L155.108,102.692 L152.264,102.692 C152.023999,102.692 151.820001,102.608001 151.652,102.44 C151.483999,102.271999 151.4,102.068001 151.4,101.828 L151.4,99.704 C151.4,99.4639988 151.483999,99.2600008 151.652,99.092 C151.820001,98.9239992 152.023999,98.84 152.264,98.84 L155.108,98.84 L155.108,92.864 C155.108,92.5999987 155.191999,92.3900008 155.36,92.234 C155.528001,92.0779992 155.731999,92 155.972,92 L158.96,92 C159.224001,92 159.433999,92.0779992 159.59,92.234 C159.746001,92.3900008 159.824,92.5999987 159.824,92.864 L159.824,98.84 L164.324,98.84 C164.564001,98.84 164.767999,98.9239992 164.936,99.092 C165.104001,99.2600008 165.188,99.4639988 165.188,99.704 L165.188,101.828 C165.188,102.068001 165.104001,102.271999 164.936,102.44 C164.767999,102.608001 164.564001,102.692 164.324,102.692 L159.824,102.692 L159.824,110.432 C159.824,111.464005 160.003998,112.243997 160.364,112.772 C160.724002,113.300003 161.311996,113.564 162.128,113.564 L164.648,113.564 C164.912001,113.564 165.121999,113.641999 165.278,113.798 C165.434001,113.954001 165.512,114.163999 165.512,114.428 L165.512,116.696 C165.512,116.936001 165.434001,117.139999 165.278,117.308 C165.121999,117.476001 164.912001,117.56 164.648,117.56 L161.696,117.56 Z M169.616,117.56 C169.375999,117.56 169.172001,117.476001 169.004,117.308 C168.835999,117.139999 168.752,116.936001 168.752,116.696 L168.752,92.864 C168.752,92.5999987 168.835999,92.3900008 169.004,92.234 C169.172001,92.0779992 169.375999,92 169.616,92 L172.892,92 C173.156001,92 173.365999,92.0779992 173.522,92.234 C173.678001,92.3900008 173.756,92.5999987 173.756,92.864 L173.756,101.072 C175.196007,99.3439914 177.127988,98.48 179.552,98.48 C181.760011,98.48 183.523993,99.2059927 184.844,100.658 C186.164007,102.110007 186.824,104.083988 186.824,106.58 L186.824,116.696 C186.824,116.936001 186.746001,117.139999 186.59,117.308 C186.433999,117.476001 186.224001,117.56 185.96,117.56 L182.684,117.56 C182.419999,117.56 182.204001,117.476001 182.036,117.308 C181.867999,117.139999 181.784,116.936001 181.784,116.696 L181.784,106.796 C181.784,105.403993 181.442003,104.318004 180.758,103.538 C180.073997,102.757996 179.096006,102.368 177.824,102.368 C176.599994,102.368 175.616004,102.763996 174.872,103.556 C174.127996,104.348004 173.756,105.427993 173.756,106.796 L173.756,116.696 C173.756,116.936001 173.678001,117.139999 173.522,117.308 C173.365999,117.476001 173.156001,117.56 172.892,117.56 L169.616,117.56 Z M194.78,124.4 C194.587999,124.4 194.414001,124.328001 194.258,124.184 C194.101999,124.039999 194.024,123.872001 194.024,123.68 C194.024,123.511999 194.072,123.320001 194.168,123.104 L197.012,116.444 L190.1,100.136 C190.004,99.9199989 189.956,99.7520006 189.956,99.632 C189.98,99.4159989 190.063999,99.2300008 190.208,99.074 C190.352001,98.9179992 190.531999,98.84 190.748,98.84 L193.736,98.84 C194.168002,98.84 194.479999,99.0679977 194.672,99.524 L199.46,111.26 L204.32,99.524 C204.560001,99.0679977 204.895998,98.84 205.328,98.84 L208.244,98.84 C208.460001,98.84 208.639999,98.9119993 208.784,99.056 C208.928001,99.2000007 209,99.367999 209,99.56 C209,99.7280008 208.952,99.9199989 208.856,100.136 L198.668,123.716 C198.475999,124.172002 198.140002,124.4 197.66,124.4 L194.78,124.4 Z" id="Empathy" fill="#F0533D" fill-rule="nonzero"></path>
        <path d="M823.864,118.64 C823.623999,118.64 823.420001,118.556001 823.252,118.388 C823.083999,118.219999 823,118.016001 823,117.776 L823,94.34 C823,94.0759987 823.077999,93.8600008 823.234,93.692 C823.390001,93.5239992 823.599999,93.44 823.864,93.44 L832.648,93.44 C839.728035,93.44 843.339999,96.7039674 843.484,103.232 C843.532,104.624007 843.556,105.559998 843.556,106.04 C843.556,106.496002 843.532,107.419993 843.484,108.812 C843.388,112.172017 842.482009,114.649992 840.766,116.246 C839.049991,117.842008 836.404018,118.64 832.828,118.64 L823.864,118.64 Z M832.648,114.464 C834.64001,114.464 836.079996,114.020004 836.968,113.132 C837.856004,112.243996 838.324,110.76801 838.372,108.704 C838.42,107.263993 838.444,106.364002 838.444,106.004 C838.444,105.619998 838.42,104.732007 838.372,103.34 C838.324,101.37199 837.832005,99.9260046 836.896,99.002 C835.959995,98.0779954 834.48401,97.616 832.468,97.616 L828.076,97.616 L828.076,114.464 L832.648,114.464 Z M855.976,119 C853.287987,119 851.158008,118.232008 849.586,116.696 C848.013992,115.159992 847.18,112.976014 847.084,110.144 L847.048,109.244 C847.048,106.243985 847.833992,103.880009 849.406,102.152 C850.978008,100.423991 853.155986,99.56 855.94,99.56 C858.796014,99.56 860.997992,100.423991 862.546,102.152 C864.094008,103.880009 864.868,106.183986 864.868,109.064 L864.868,109.82 C864.868,110.060001 864.784001,110.263999 864.616,110.432 C864.447999,110.600001 864.232001,110.684 863.968,110.684 L852.016,110.684 L852.016,110.972 C852.064,112.316007 852.429997,113.425996 853.114,114.302 C853.798003,115.178004 854.739994,115.616 855.94,115.616 C857.308007,115.616 858.423996,115.064006 859.288,113.96 C859.504001,113.695999 859.671999,113.534 859.792,113.474 C859.912001,113.414 860.115999,113.384 860.404,113.384 L863.572,113.384 C863.788001,113.384 863.973999,113.443999 864.13,113.564 C864.286001,113.684001 864.364,113.851999 864.364,114.068 C864.364,114.644003 864.022003,115.321996 863.338,116.102 C862.653997,116.882004 861.676006,117.559997 860.404,118.136 C859.131994,118.712003 857.656008,119 855.976,119 Z M859.9,107.624 L859.9,107.552 C859.9,106.135993 859.546004,105.002004 858.838,104.15 C858.129996,103.297996 857.164006,102.872 855.94,102.872 C854.715994,102.872 853.756003,103.297996 853.06,104.15 C852.363997,105.002004 852.016,106.135993 852.016,107.552 L852.016,107.624 L859.9,107.624 Z M871.564,118.64 C871.323999,118.64 871.120001,118.556001 870.952,118.388 C870.783999,118.219999 870.7,118.016001 870.7,117.776 L870.7,103.772 L867.784,103.772 C867.543999,103.772 867.340001,103.688001 867.172,103.52 C867.003999,103.351999 866.92,103.148001 866.92,102.908 L866.92,100.784 C866.92,100.543999 867.003999,100.340001 867.172,100.172 C867.340001,100.003999 867.543999,99.92 867.784,99.92 L870.7,99.92 L870.7,98.48 C870.7,96.2959891 871.287994,94.6700053 872.464,93.602 C873.640006,92.5339947 875.415988,92 877.792,92 L885.244,92 C885.508001,92 885.717999,92.0779992 885.874,92.234 C886.030001,92.3900008 886.108,92.5999987 886.108,92.864 L886.108,94.988 C886.108,95.2280012 886.024001,95.4319992 885.856,95.6 C885.687999,95.7680008 885.484001,95.852 885.244,95.852 L877.972,95.852 C877.035995,95.852 876.376002,96.0799977 875.992,96.536 C875.607998,96.9920023 875.416,97.6999952 875.416,98.66 L875.416,99.92 L885.244,99.92 C885.508001,99.92 885.717999,99.9979992 885.874,100.154 C886.030001,100.310001 886.108,100.519999 886.108,100.784 L886.108,117.776 C886.108,118.016001 886.030001,118.219999 885.874,118.388 C885.717999,118.556001 885.508001,118.64 885.244,118.64 L882.256,118.64 C882.015999,118.64 881.812001,118.556001 881.644,118.388 C881.475999,118.219999 881.392,118.016001 881.392,117.776 L881.392,103.772 L875.416,103.772 L875.416,117.776 C875.416,118.016001 875.338001,118.219999 875.182,118.388 C875.025999,118.556001 874.816001,118.64 874.552,118.64 L871.564,118.64 Z M891.724,118.64 C891.483999,118.64 891.280001,118.556001 891.112,118.388 C890.943999,118.219999 890.86,118.016001 890.86,117.776 L890.86,100.784 C890.86,100.519999 890.943999,100.310001 891.112,100.154 C891.280001,99.9979992 891.483999,99.92 891.724,99.92 L894.712,99.92 C894.976001,99.92 895.185999,99.9979992 895.342,100.154 C895.498001,100.310001 895.576,100.519999 895.576,100.784 L895.576,102.26 C897.040007,100.459991 899.043987,99.56 901.588,99.56 C903.796011,99.56 905.547994,100.279993 906.844,101.72 C908.140006,103.160007 908.788,105.139987 908.788,107.66 L908.788,117.776 C908.788,118.016001 908.710001,118.219999 908.554,118.388 C908.397999,118.556001 908.188001,118.64 907.924,118.64 L904.684,118.64 C904.443999,118.64 904.240001,118.556001 904.072,118.388 C903.903999,118.219999 903.82,118.016001 903.82,117.776 L903.82,107.876 C903.82,106.483993 903.478003,105.398004 902.794,104.618 C902.109997,103.837996 901.132006,103.448 899.86,103.448 C898.635994,103.448 897.652004,103.843996 896.908,104.636 C896.163996,105.428004 895.792,106.507993 895.792,107.876 L895.792,117.776 C895.792,118.016001 895.714001,118.219999 895.558,118.388 C895.401999,118.556001 895.192001,118.64 894.928,118.64 L891.724,118.64 Z M921.46,119 C918.771987,119 916.642008,118.232008 915.07,116.696 C913.497992,115.159992 912.664,112.976014 912.568,110.144 L912.532,109.244 C912.532,106.243985 913.317992,103.880009 914.89,102.152 C916.462008,100.423991 918.639986,99.56 921.424,99.56 C924.280014,99.56 926.481992,100.423991 928.03,102.152 C929.578008,103.880009 930.352,106.183986 930.352,109.064 L930.352,109.82 C930.352,110.060001 930.268001,110.263999 930.1,110.432 C929.931999,110.600001 929.716001,110.684 929.452,110.684 L917.5,110.684 L917.5,110.972 C917.548,112.316007 917.913997,113.425996 918.598,114.302 C919.282003,115.178004 920.223994,115.616 921.424,115.616 C922.792007,115.616 923.907996,115.064006 924.772,113.96 C924.988001,113.695999 925.155999,113.534 925.276,113.474 C925.396001,113.414 925.599999,113.384 925.888,113.384 L929.056,113.384 C929.272001,113.384 929.457999,113.443999 929.614,113.564 C929.770001,113.684001 929.848,113.851999 929.848,114.068 C929.848,114.644003 929.506003,115.321996 928.822,116.102 C928.137997,116.882004 927.160006,117.559997 925.888,118.136 C924.615994,118.712003 923.140008,119 921.46,119 Z M925.384,107.624 L925.384,107.552 C925.384,106.135993 925.030004,105.002004 924.322,104.15 C923.613996,103.297996 922.648006,102.872 921.424,102.872 C920.199994,102.872 919.240003,103.297996 918.544,104.15 C917.847997,105.002004 917.5,106.135993 917.5,107.552 L917.5,107.624 L925.384,107.624 Z" id="Defne" fill="#F0533D" fill-rule="nonzero"></path>
        <path d="M823.864,519.172 C823.623999,519.172 823.420001,519.088001 823.252,518.92 C823.083999,518.751999 823,518.548001 823,518.308 L823,494.872 C823,494.607999 823.077999,494.392001 823.234,494.224 C823.390001,494.055999 823.599999,493.972 823.864,493.972 L832.648,493.972 C839.728035,493.972 843.339999,497.235967 843.484,503.764 C843.532,505.156007 843.556,506.091998 843.556,506.572 C843.556,507.028002 843.532,507.951993 843.484,509.344 C843.388,512.704017 842.482009,515.181992 840.766,516.778 C839.049991,518.374008 836.404018,519.172 832.828,519.172 L823.864,519.172 Z M832.648,514.996 C834.64001,514.996 836.079996,514.552004 836.968,513.664 C837.856004,512.775996 838.324,511.30001 838.372,509.236 C838.42,507.795993 838.444,506.896002 838.444,506.536 C838.444,506.151998 838.42,505.264007 838.372,503.872 C838.324,501.90399 837.832005,500.458005 836.896,499.534 C835.959995,498.609995 834.48401,498.148 832.468,498.148 L828.076,498.148 L828.076,514.996 L832.648,514.996 Z M855.976,519.532 C853.287987,519.532 851.158008,518.764008 849.586,517.228 C848.013992,515.691992 847.18,513.508014 847.084,510.676 L847.048,509.776 C847.048,506.775985 847.833992,504.412009 849.406,502.684 C850.978008,500.955991 853.155986,500.092 855.94,500.092 C858.796014,500.092 860.997992,500.955991 862.546,502.684 C864.094008,504.412009 864.868,506.715986 864.868,509.596 L864.868,510.352 C864.868,510.592001 864.784001,510.795999 864.616,510.964 C864.447999,511.132001 864.232001,511.216 863.968,511.216 L852.016,511.216 L852.016,511.504 C852.064,512.848007 852.429997,513.957996 853.114,514.834 C853.798003,515.710004 854.739994,516.148 855.94,516.148 C857.308007,516.148 858.423996,515.596006 859.288,514.492 C859.504001,514.227999 859.671999,514.066 859.792,514.006 C859.912001,513.946 860.115999,513.916 860.404,513.916 L863.572,513.916 C863.788001,513.916 863.973999,513.975999 864.13,514.096 C864.286001,514.216001 864.364,514.383999 864.364,514.6 C864.364,515.176003 864.022003,515.853996 863.338,516.634 C862.653997,517.414004 861.676006,518.091997 860.404,518.668 C859.131994,519.244003 857.656008,519.532 855.976,519.532 Z M859.9,508.156 L859.9,508.084 C859.9,506.667993 859.546004,505.534004 858.838,504.682 C858.129996,503.829996 857.164006,503.404 855.94,503.404 C854.715994,503.404 853.756003,503.829996 853.06,504.682 C852.363997,505.534004 852.016,506.667993 852.016,508.084 L852.016,508.156 L859.9,508.156 Z M875.812,519.532 C873.987991,519.532 872.464006,519.256003 871.24,518.704 C870.015994,518.151997 869.110003,517.510004 868.522,516.778 C867.933997,516.045996 867.64,515.416003 867.64,514.888 C867.64,514.647999 867.717999,514.456001 867.874,514.312 C868.030001,514.167999 868.215999,514.096 868.432,514.096 L871.384,514.096 C871.576001,514.096 871.743999,514.191999 871.888,514.384 C872.008001,514.48 872.277998,514.707998 872.698,515.068 C873.118002,515.428002 873.597997,515.709999 874.138,515.914 C874.678003,516.118001 875.271997,516.22 875.92,516.22 C876.880005,516.22 877.659997,516.034002 878.26,515.662 C878.860003,515.289998 879.16,514.756003 879.16,514.06 C879.16,513.579998 879.022001,513.190001 878.746,512.89 C878.469999,512.589998 877.978004,512.314001 877.27,512.062 C876.561996,511.809999 875.500007,511.528002 874.084,511.216 C872.04399,510.783998 870.538005,510.124004 869.566,509.236 C868.593995,508.347996 868.108,507.172007 868.108,505.708 C868.108,504.747995 868.395997,503.842004 868.972,502.99 C869.548003,502.137996 870.405994,501.442003 871.546,500.902 C872.686006,500.361997 874.047992,500.092 875.632,500.092 C877.264008,500.092 878.667994,500.349997 879.844,500.866 C881.020006,501.382003 881.913997,501.999996 882.526,502.72 C883.138003,503.440004 883.444,504.075997 883.444,504.628 C883.444,504.844001 883.366001,505.029999 883.21,505.186 C883.053999,505.342001 882.868001,505.42 882.652,505.42 L879.952,505.42 C879.687999,505.42 879.484001,505.324001 879.34,505.132 C879.171999,505.011999 878.902002,504.790002 878.53,504.466 C878.157998,504.141998 877.744002,503.884001 877.288,503.692 C876.831998,503.499999 876.280003,503.404 875.632,503.404 C874.743996,503.404 874.060002,503.595998 873.58,503.98 C873.099998,504.364002 872.86,504.867997 872.86,505.492 C872.86,505.924002 872.973999,506.283999 873.202,506.572 C873.430001,506.860001 873.891997,507.129999 874.588,507.382 C875.284003,507.634001 876.327993,507.891999 877.72,508.156 C882.040022,508.996004 884.2,510.879985 884.2,513.808 C884.2,515.512009 883.462007,516.891995 881.986,517.948 C880.509993,519.004005 878.452013,519.532 875.812,519.532 Z M888.592,497.392 C888.351999,497.392 888.148001,497.308001 887.98,497.14 C887.811999,496.971999 887.728,496.768001 887.728,496.528 L887.728,493.9 C887.728,493.635999 887.811999,493.420001 887.98,493.252 C888.148001,493.083999 888.351999,493 888.592,493 L891.904,493 C892.168001,493 892.383999,493.083999 892.552,493.252 C892.720001,493.420001 892.804,493.635999 892.804,493.9 L892.804,496.528 C892.804,496.768001 892.714001,496.971999 892.534,497.14 C892.353999,497.308001 892.144001,497.392 891.904,497.392 L888.592,497.392 Z M888.736,519.172 C888.495999,519.172 888.292001,519.088001 888.124,518.92 C887.955999,518.751999 887.872,518.548001 887.872,518.308 L887.872,501.316 C887.872,501.051999 887.955999,500.842001 888.124,500.686 C888.292001,500.529999 888.495999,500.452 888.736,500.452 L891.796,500.452 C892.036001,500.452 892.239999,500.535999 892.408,500.704 C892.576001,500.872001 892.66,501.075999 892.66,501.316 L892.66,518.308 C892.66,518.548001 892.576001,518.751999 892.408,518.92 C892.239999,519.088001 892.036001,519.172 891.796,519.172 L888.736,519.172 Z M905.872,527.092 C903.735989,527.092 902.008007,526.738004 900.688,526.03 C899.367993,525.321996 898.432003,524.512005 897.88,523.6 C897.327997,522.687995 897.052,521.908003 897.052,521.26 C897.052,521.019999 897.135999,520.822001 897.304,520.666 C897.472001,520.509999 897.675999,520.432 897.916,520.432 L901.12,520.432 C901.336001,520.432 901.521999,520.485999 901.678,520.594 C901.834001,520.702001 901.96,520.899999 902.056,521.188 C902.320001,521.812003 902.715997,522.345998 903.244,522.79 C903.772003,523.234002 904.587994,523.456 905.692,523.456 C907.132007,523.456 908.187997,523.138003 908.86,522.502 C909.532003,521.865997 909.868,520.756008 909.868,519.172 L909.868,516.724 C908.571994,518.260008 906.736012,519.028 904.36,519.028 C901.863988,519.028 899.986006,518.272008 898.726,516.76 C897.465994,515.247992 896.788,513.184013 896.692,510.568 L896.656,509.596 L896.692,508.624 C896.788,506.055987 897.471994,503.992008 898.744,502.432 C900.016006,500.871992 901.887988,500.092 904.36,500.092 C905.632006,500.092 906.747995,500.331998 907.708,500.812 C908.668005,501.292002 909.459997,501.939996 910.084,502.756 L910.084,501.352 C910.084,501.087999 910.173999,500.872001 910.354,500.704 C910.534001,500.535999 910.743999,500.452 910.984,500.452 L913.936,500.452 C914.176001,500.452 914.379999,500.535999 914.548,500.704 C914.716001,500.872001 914.8,501.087999 914.8,501.352 L914.836,518.704 C914.836,521.368013 914.092007,523.431993 912.604,524.896 C911.115993,526.360007 908.872015,527.092 905.872,527.092 Z M905.728,515.212 C907.072007,515.212 908.079997,514.780004 908.752,513.916 C909.424003,513.051996 909.796,511.996006 909.868,510.748 C909.892,510.555999 909.904,510.172003 909.904,509.596 C909.904,509.019997 909.892,508.636001 909.868,508.444 C909.796,507.195994 909.424003,506.140004 908.752,505.276 C908.079997,504.411996 907.072007,503.98 905.728,503.98 C903.135987,503.98 901.768001,505.563984 901.624,508.732 L901.588,509.596 C901.588,513.340019 902.967986,515.212 905.728,515.212 Z M920.452,519.172 C920.211999,519.172 920.008001,519.088001 919.84,518.92 C919.671999,518.751999 919.588,518.548001 919.588,518.308 L919.588,501.316 C919.588,501.051999 919.671999,500.842001 919.84,500.686 C920.008001,500.529999 920.211999,500.452 920.452,500.452 L923.44,500.452 C923.704001,500.452 923.913999,500.529999 924.07,500.686 C924.226001,500.842001 924.304,501.051999 924.304,501.316 L924.304,502.792 C925.768007,500.991991 927.771987,500.092 930.316,500.092 C932.524011,500.092 934.275994,500.811993 935.572,502.252 C936.868006,503.692007 937.516,505.671987 937.516,508.192 L937.516,518.308 C937.516,518.548001 937.438001,518.751999 937.282,518.92 C937.125999,519.088001 936.916001,519.172 936.652,519.172 L933.412,519.172 C933.171999,519.172 932.968001,519.088001 932.8,518.92 C932.631999,518.751999 932.548,518.548001 932.548,518.308 L932.548,508.408 C932.548,507.015993 932.206003,505.930004 931.522,505.15 C930.837997,504.369996 929.860006,503.98 928.588,503.98 C927.363994,503.98 926.380004,504.375996 925.636,505.168 C924.891996,505.960004 924.52,507.039993 924.52,508.408 L924.52,518.308 C924.52,518.548001 924.442001,518.751999 924.286,518.92 C924.129999,519.088001 923.920001,519.172 923.656,519.172 L920.452,519.172 Z" id="Design" fill="#F0533D" fill-rule="nonzero"></path>
        <path d="M76.144,519.172 C75.4239964,519.172 74.9560011,518.836003 74.74,518.164 L67.036,495.052 C67.0119999,494.98 67,494.872001 67,494.728 C67,494.511999 67.0719993,494.332001 67.216,494.188 C67.3600007,494.043999 67.5399989,493.972 67.756,493.972 L70.96,493.972 C71.2720016,493.972 71.523999,494.055999 71.716,494.224 C71.908001,494.392001 72.0399996,494.571999 72.112,494.764 L78.124,513.196 L84.172,494.764 C84.2200002,494.571999 84.339999,494.392001 84.532,494.224 C84.724001,494.055999 84.9759984,493.972 85.288,493.972 L88.528,493.972 C88.720001,493.972 88.8939992,494.043999 89.05,494.188 C89.2060008,494.332001 89.284,494.511999 89.284,494.728 L89.212,495.052 L81.544,518.164 C81.3039988,518.836003 80.8360035,519.172 80.14,519.172 L76.144,519.172 Z M98.104,519.532 C96.8799939,519.532 95.7580051,519.286002 94.738,518.794 C93.7179949,518.301998 92.9140029,517.636004 92.326,516.796 C91.7379971,515.955996 91.444,515.032005 91.444,514.024 C91.444,512.391992 92.1039934,511.072005 93.424,510.064 C94.7440066,509.055995 96.5559885,508.372002 98.86,508.012 L103.792,507.292 L103.792,506.536 C103.792,505.503995 103.528003,504.724003 103,504.196 C102.471997,503.667997 101.632006,503.404 100.48,503.404 C99.687996,503.404 99.0520024,503.547999 98.572,503.836 C98.0919976,504.124001 97.7020015,504.417999 97.402,504.718 L96.808,505.312 C96.7119995,505.600001 96.5320013,505.744 96.268,505.744 L93.46,505.744 C93.2439989,505.744 93.0580008,505.672001 92.902,505.528 C92.7459992,505.383999 92.668,505.192001 92.668,504.952 C92.6920001,504.351997 92.9859972,503.674004 93.55,502.918 C94.1140028,502.161996 94.9839941,501.502003 96.16,500.938 C97.3360059,500.373997 98.7879914,500.092 100.516,500.092 C103.348014,500.092 105.411994,500.727994 106.708,502 C108.004006,503.272006 108.652,504.93999 108.652,507.004 L108.652,518.308 C108.652,518.548001 108.574001,518.751999 108.418,518.92 C108.261999,519.088001 108.052001,519.172 107.788,519.172 L104.8,519.172 C104.559999,519.172 104.356001,519.088001 104.188,518.92 C104.019999,518.751999 103.936,518.548001 103.936,518.308 L103.936,516.904 C103.407997,517.672004 102.664005,518.301998 101.704,518.794 C100.743995,519.286002 99.5440072,519.532 98.104,519.532 Z M99.328,516.076 C100.648007,516.076 101.727996,515.644004 102.568,514.78 C103.408004,513.915996 103.828,512.668008 103.828,511.036 L103.828,510.316 L100.228,510.892 C97.4679862,511.324002 96.088,512.247993 96.088,513.664 C96.088,514.432004 96.4059968,515.025998 97.042,515.446 C97.6780032,515.866002 98.4399956,516.076 99.328,516.076 Z M114.16,519.172 C113.919999,519.172 113.716001,519.088001 113.548,518.92 C113.379999,518.751999 113.296,518.548001 113.296,518.308 L113.296,494.476 C113.296,494.211999 113.379999,494.002001 113.548,493.846 C113.716001,493.689999 113.919999,493.612 114.16,493.612 L117.184,493.612 C117.448001,493.612 117.657999,493.689999 117.814,493.846 C117.970001,494.002001 118.048,494.211999 118.048,494.476 L118.048,518.308 C118.048,518.548001 117.970001,518.751999 117.814,518.92 C117.657999,519.088001 117.448001,519.172 117.184,519.172 L114.16,519.172 Z M123.556,497.392 C123.315999,497.392 123.112001,497.308001 122.944,497.14 C122.775999,496.971999 122.692,496.768001 122.692,496.528 L122.692,493.9 C122.692,493.635999 122.775999,493.420001 122.944,493.252 C123.112001,493.083999 123.315999,493 123.556,493 L126.868,493 C127.132001,493 127.347999,493.083999 127.516,493.252 C127.684001,493.420001 127.768,493.635999 127.768,493.9 L127.768,496.528 C127.768,496.768001 127.678001,496.971999 127.498,497.14 C127.317999,497.308001 127.108001,497.392 126.868,497.392 L123.556,497.392 Z M123.7,519.172 C123.459999,519.172 123.256001,519.088001 123.088,518.92 C122.919999,518.751999 122.836,518.548001 122.836,518.308 L122.836,501.316 C122.836,501.051999 122.919999,500.842001 123.088,500.686 C123.256001,500.529999 123.459999,500.452 123.7,500.452 L126.76,500.452 C127.000001,500.452 127.203999,500.535999 127.372,500.704 C127.540001,500.872001 127.624,501.075999 127.624,501.316 L127.624,518.308 C127.624,518.548001 127.540001,518.751999 127.372,518.92 C127.203999,519.088001 127.000001,519.172 126.76,519.172 L123.7,519.172 Z M139.324,519.532 C136.899988,519.532 135.040006,518.758008 133.744,517.21 C132.447994,515.661992 131.740001,513.592013 131.62,511 L131.584,509.812 L131.62,508.624 C131.716,506.079987 132.417993,504.022008 133.726,502.45 C135.034007,500.877992 136.899988,500.092 139.324,500.092 C141.628012,500.092 143.463993,500.883992 144.832,502.468 L144.832,494.476 C144.832,494.211999 144.915999,494.002001 145.084,493.846 C145.252001,493.689999 145.455999,493.612 145.696,493.612 L148.828,493.612 C149.092001,493.612 149.301999,493.689999 149.458,493.846 C149.614001,494.002001 149.692,494.211999 149.692,494.476 L149.692,518.308 C149.692,518.548001 149.614001,518.751999 149.458,518.92 C149.301999,519.088001 149.092001,519.172 148.828,519.172 L145.912,519.172 C145.671999,519.172 145.468001,519.088001 145.3,518.92 C145.131999,518.751999 145.048,518.548001 145.048,518.308 L145.048,516.976 C143.727993,518.680009 141.820012,519.532 139.324,519.532 Z M140.692,515.644 C142.060007,515.644 143.073997,515.206004 143.734,514.33 C144.394003,513.453996 144.76,512.368006 144.832,511.072 C144.856,510.783999 144.868,510.328003 144.868,509.704 C144.868,509.055997 144.856,508.588001 144.832,508.3 C144.784,507.099994 144.412003,506.080004 143.716,505.24 C143.019997,504.399996 142.012007,503.98 140.692,503.98 C138.123987,503.98 136.756001,505.563984 136.588,508.732 L136.552,509.812 L136.588,510.892 C136.756001,514.060016 138.123987,515.644 140.692,515.644 Z M159.916,519.532 C158.691994,519.532 157.570005,519.286002 156.55,518.794 C155.529995,518.301998 154.726003,517.636004 154.138,516.796 C153.549997,515.955996 153.256,515.032005 153.256,514.024 C153.256,512.391992 153.915993,511.072005 155.236,510.064 C156.556007,509.055995 158.367988,508.372002 160.672,508.012 L165.604,507.292 L165.604,506.536 C165.604,505.503995 165.340003,504.724003 164.812,504.196 C164.283997,503.667997 163.444006,503.404 162.292,503.404 C161.499996,503.404 160.864002,503.547999 160.384,503.836 C159.903998,504.124001 159.514002,504.417999 159.214,504.718 L158.62,505.312 C158.524,505.600001 158.344001,505.744 158.08,505.744 L155.272,505.744 C155.055999,505.744 154.870001,505.672001 154.714,505.528 C154.557999,505.383999 154.48,505.192001 154.48,504.952 C154.504,504.351997 154.797997,503.674004 155.362,502.918 C155.926003,502.161996 156.795994,501.502003 157.972,500.938 C159.148006,500.373997 160.599991,500.092 162.328,500.092 C165.160014,500.092 167.223994,500.727994 168.52,502 C169.816006,503.272006 170.464,504.93999 170.464,507.004 L170.464,518.308 C170.464,518.548001 170.386001,518.751999 170.23,518.92 C170.073999,519.088001 169.864001,519.172 169.6,519.172 L166.612,519.172 C166.371999,519.172 166.168001,519.088001 166,518.92 C165.831999,518.751999 165.748,518.548001 165.748,518.308 L165.748,516.904 C165.219997,517.672004 164.476005,518.301998 163.516,518.794 C162.555995,519.286002 161.356007,519.532 159.916,519.532 Z M161.14,516.076 C162.460007,516.076 163.539996,515.644004 164.38,514.78 C165.220004,513.915996 165.64,512.668008 165.64,511.036 L165.64,510.316 L162.04,510.892 C159.279986,511.324002 157.9,512.247993 157.9,513.664 C157.9,514.432004 158.217997,515.025998 158.854,515.446 C159.490003,515.866002 160.251996,516.076 161.14,516.076 Z M183.568,519.172 C181.383989,519.172 179.740006,518.602006 178.636,517.462 C177.531994,516.321994 176.98,514.648011 176.98,512.44 L176.98,504.304 L174.136,504.304 C173.895999,504.304 173.692001,504.220001 173.524,504.052 C173.355999,503.883999 173.272,503.680001 173.272,503.44 L173.272,501.316 C173.272,501.075999 173.355999,500.872001 173.524,500.704 C173.692001,500.535999 173.895999,500.452 174.136,500.452 L176.98,500.452 L176.98,494.476 C176.98,494.211999 177.063999,494.002001 177.232,493.846 C177.400001,493.689999 177.603999,493.612 177.844,493.612 L180.832,493.612 C181.096001,493.612 181.305999,493.689999 181.462,493.846 C181.618001,494.002001 181.696,494.211999 181.696,494.476 L181.696,500.452 L186.196,500.452 C186.436001,500.452 186.639999,500.535999 186.808,500.704 C186.976001,500.872001 187.06,501.075999 187.06,501.316 L187.06,503.44 C187.06,503.680001 186.976001,503.883999 186.808,504.052 C186.639999,504.220001 186.436001,504.304 186.196,504.304 L181.696,504.304 L181.696,512.044 C181.696,513.076005 181.875998,513.855997 182.236,514.384 C182.596002,514.912003 183.183996,515.176 184,515.176 L186.52,515.176 C186.784001,515.176 186.993999,515.253999 187.15,515.41 C187.306001,515.566001 187.384,515.775999 187.384,516.04 L187.384,518.308 C187.384,518.548001 187.306001,518.751999 187.15,518.92 C186.993999,519.088001 186.784001,519.172 186.52,519.172 L183.568,519.172 Z M198.688,519.532 C195.999987,519.532 193.870008,518.764008 192.298,517.228 C190.725992,515.691992 189.892,513.508014 189.796,510.676 L189.76,509.776 C189.76,506.775985 190.545992,504.412009 192.118,502.684 C193.690008,500.955991 195.867986,500.092 198.652,500.092 C201.508014,500.092 203.709992,500.955991 205.258,502.684 C206.806008,504.412009 207.58,506.715986 207.58,509.596 L207.58,510.352 C207.58,510.592001 207.496001,510.795999 207.328,510.964 C207.159999,511.132001 206.944001,511.216 206.68,511.216 L194.728,511.216 L194.728,511.504 C194.776,512.848007 195.141997,513.957996 195.826,514.834 C196.510003,515.710004 197.451994,516.148 198.652,516.148 C200.020007,516.148 201.135996,515.596006 202,514.492 C202.216001,514.227999 202.383999,514.066 202.504,514.006 C202.624001,513.946 202.827999,513.916 203.116,513.916 L206.284,513.916 C206.500001,513.916 206.685999,513.975999 206.842,514.096 C206.998001,514.216001 207.076,514.383999 207.076,514.6 C207.076,515.176003 206.734003,515.853996 206.05,516.634 C205.365997,517.414004 204.388006,518.091997 203.116,518.668 C201.843994,519.244003 200.368008,519.532 198.688,519.532 Z M202.612,508.156 L202.612,508.084 C202.612,506.667993 202.258004,505.534004 201.55,504.682 C200.841996,503.829996 199.876006,503.404 198.652,503.404 C197.427994,503.404 196.468003,503.829996 195.772,504.682 C195.075997,505.534004 194.728,506.667993 194.728,508.084 L194.728,508.156 L202.612,508.156 Z" id="Validate" fill="#F0533D" fill-rule="nonzero"></path>
    </g>
</svg>